<?xml version="1.0" encoding="UTF-8" standalone="no"?>
<!DOCTYPE svg PUBLIC "-//W3C//DTD SVG 1.1//EN"
 "http://www.w3.org/Graphics/SVG/1.1/DTD/svg11.dtd">
<!-- Generated by graphviz version 8.0.5 (0)
 -->
<!-- Title: dbHandleCarRemove Pages: 1 -->
<svg width="610pt" height="125pt"
 viewBox="0.00 0.00 610.25 124.75" xmlns="http://www.w3.org/2000/svg" xmlns:xlink="http://www.w3.org/1999/xlink">
<g id="graph0" class="graph" transform="scale(1 1) rotate(0) translate(4 120.75)">
<title>dbHandleCarRemove</title>
<!-- Node1 -->
<g id="Node000001" class="node">
<title>Node1</title>
<g id="a_Node000001"><a xlink:title="Remove a car from the database.">
<polygon fill="#999999" stroke="#666666" points="170.5,-71.75 0,-71.75 0,-45 170.5,-45 170.5,-71.75"/>
<text text-anchor="middle" x="85.25" y="-52.55" font-family="Helvetica,sans-Serif" font-size="16.00">dbHandleCarRemove</text>
</a>
</g>
</g>
<!-- Node2 -->
<g id="Node000002" class="node">
<title>Node2</title>
<g id="a_Node000002"><a xlink:href="../../d7/dba/menuutil_8c.html#ae6ed898f3726361b1edde3f8707f0260" target="_top" xlink:title="Displays message box on the screen with title and message.">
<polygon fill="white" stroke="#666666" points="378.5,-71.75 206.5,-71.75 206.5,-45 378.5,-45 378.5,-71.75"/>
<text text-anchor="middle" x="292.5" y="-52.55" font-family="Helvetica,sans-Serif" font-size="16.00">menuUtilMessagebox</text>
</a>
</g>
</g>
<!-- Node1&#45;&gt;Node2 -->
<g id="edge1_Node000001_Node000002" class="edge">
<title>Node1&#45;&gt;Node2</title>
<g id="a_edge1_Node000001_Node000002"><a xlink:title=" ">
<path fill="none" stroke="#63b8ff" stroke-width="2" d="M170.92,-58.38C178.26,-58.38 185.72,-58.38 193.15,-58.38"/>
<polygon fill="#63b8ff" stroke="#63b8ff" stroke-width="2" points="193.03,-61.88 203.03,-58.38 193.03,-54.88 193.03,-61.88"/>
</a>
</g>
</g>
<!-- Node3 -->
<g id="Node000003" class="node">
<title>Node3</title>
<g id="a_Node000003"><a xlink:href="../../d7/dba/menuutil_8c.html#ac6b71fcc47a9cdec8ac08b98e754239c" target="_top" xlink:title="Get length of longest string in array of strings.">
<polygon fill="white" stroke="#666666" points="602.25,-116.75 414.5,-116.75 414.5,-90 602.25,-90 602.25,-116.75"/>
<text text-anchor="middle" x="508.38" y="-97.55" font-family="Helvetica,sans-Serif" font-size="16.00">getLongestStringLength</text>
</a>
</g>
</g>
<!-- Node2&#45;&gt;Node3 -->
<g id="edge2_Node000002_Node000003" class="edge">
<title>Node2&#45;&gt;Node3</title>
<g id="a_edge2_Node000002_Node000003"><a xlink:title=" ">
<path fill="none" stroke="#63b8ff" stroke-width="2" d="M359.41,-72.24C381.47,-76.88 406.28,-82.1 429.18,-86.92"/>
<polygon fill="#63b8ff" stroke="#63b8ff" stroke-width="2" points="429.17,-90.92 439.68,-89.55 430.61,-84.07 429.17,-90.92"/>
</a>
</g>
</g>
<!-- Node4 -->
<g id="Node000004" class="node">
<title>Node4</title>
<g id="a_Node000004"><a xlink:href="../../d7/dba/menuutil_8c.html#a9941ed217da0309cd9453bdb776d5c51" target="_top" xlink:title="Add basic functionality to the shitty language which C is.">
<polygon fill="white" stroke="#666666" points="531.75,-71.75 485,-71.75 485,-45 531.75,-45 531.75,-71.75"/>
<text text-anchor="middle" x="508.38" y="-52.55" font-family="Helvetica,sans-Serif" font-size="16.00">max</text>
</a>
</g>
</g>
<!-- Node2&#45;&gt;Node4 -->
<g id="edge3_Node000002_Node000004" class="edge">
<title>Node2&#45;&gt;Node4</title>
<g id="a_edge3_Node000002_Node000004"><a xlink:title=" ">
<path fill="none" stroke="#63b8ff" stroke-width="2" d="M378.95,-58.38C411.35,-58.38 446.49,-58.38 471.81,-58.38"/>
<polygon fill="#63b8ff" stroke="#63b8ff" stroke-width="2" points="471.78,-61.88 481.78,-58.38 471.78,-54.88 471.78,-61.88"/>
</a>
</g>
</g>
<!-- Node5 -->
<g id="Node000005" class="node">
<title>Node5</title>
<g id="a_Node000005"><a xlink:href="../../d7/dba/menuutil_8c.html#a14ca6bd9893f550a2051ca6cd5a689ac" target="_top" xlink:title="Print boarders of window.">
<polygon fill="white" stroke="#666666" points="593.25,-26.75 423.5,-26.75 423.5,0 593.25,0 593.25,-26.75"/>
<text text-anchor="middle" x="508.38" y="-7.55" font-family="Helvetica,sans-Serif" font-size="16.00">printWindowBoarders</text>
</a>
</g>
</g>
<!-- Node2&#45;&gt;Node5 -->
<g id="edge4_Node000002_Node000005" class="edge">
<title>Node2&#45;&gt;Node5</title>
<g id="a_edge4_Node000002_Node000005"><a xlink:title=" ">
<path fill="none" stroke="#63b8ff" stroke-width="2" d="M359.41,-44.51C381.47,-39.87 406.28,-34.65 429.18,-29.83"/>
<polygon fill="#63b8ff" stroke="#63b8ff" stroke-width="2" points="430.61,-32.68 439.68,-27.2 429.17,-25.83 430.61,-32.68"/>
</a>
</g>
</g>
</g>
</svg>
