<?xml version="1.0" encoding="UTF-8" standalone="no"?>
<!DOCTYPE svg PUBLIC "-//W3C//DTD SVG 1.1//EN"
 "http://www.w3.org/Graphics/SVG/1.1/DTD/svg11.dtd">
<!-- Generated by graphviz version 8.0.5 (0)
 -->
<!-- Title: dbHandlClientRemove Pages: 1 -->
<svg width="617pt" height="125pt"
 viewBox="0.00 0.00 617.00 124.75" xmlns="http://www.w3.org/2000/svg" xmlns:xlink="http://www.w3.org/1999/xlink">
<g id="graph0" class="graph" transform="scale(1 1) rotate(0) translate(4 120.75)">
<title>dbHandlClientRemove</title>
<!-- Node1 -->
<g id="Node000001" class="node">
<title>Node1</title>
<g id="a_Node000001"><a xlink:title="Remove clinet from database.">
<polygon fill="#999999" stroke="#666666" points="177.25,-71.75 0,-71.75 0,-45 177.25,-45 177.25,-71.75"/>
<text text-anchor="middle" x="88.62" y="-52.55" font-family="Helvetica,sans-Serif" font-size="16.00">dbHandlClientRemove</text>
</a>
</g>
</g>
<!-- Node2 -->
<g id="Node000002" class="node">
<title>Node2</title>
<g id="a_Node000002"><a xlink:href="../../d7/dba/menuutil_8c.html#ae6ed898f3726361b1edde3f8707f0260" target="_top" xlink:title="Displays message box on the screen with title and message.">
<polygon fill="white" stroke="#666666" points="385.25,-71.75 213.25,-71.75 213.25,-45 385.25,-45 385.25,-71.75"/>
<text text-anchor="middle" x="299.25" y="-52.55" font-family="Helvetica,sans-Serif" font-size="16.00">menuUtilMessagebox</text>
</a>
</g>
</g>
<!-- Node1&#45;&gt;Node2 -->
<g id="edge1_Node000001_Node000002" class="edge">
<title>Node1&#45;&gt;Node2</title>
<g id="a_edge1_Node000001_Node000002"><a xlink:title=" ">
<path fill="none" stroke="#63b8ff" stroke-width="2" d="M177.5,-58.38C184.9,-58.38 192.41,-58.38 199.88,-58.38"/>
<polygon fill="#63b8ff" stroke="#63b8ff" stroke-width="2" points="199.81,-61.88 209.81,-58.38 199.81,-54.88 199.81,-61.88"/>
</a>
</g>
</g>
<!-- Node3 -->
<g id="Node000003" class="node">
<title>Node3</title>
<g id="a_Node000003"><a xlink:href="../../d7/dba/menuutil_8c.html#ac6b71fcc47a9cdec8ac08b98e754239c" target="_top" xlink:title="Get length of longest string in array of strings.">
<polygon fill="white" stroke="#666666" points="609,-116.75 421.25,-116.75 421.25,-90 609,-90 609,-116.75"/>
<text text-anchor="middle" x="515.12" y="-97.55" font-family="Helvetica,sans-Serif" font-size="16.00">getLongestStringLength</text>
</a>
</g>
</g>
<!-- Node2&#45;&gt;Node3 -->
<g id="edge2_Node000002_Node000003" class="edge">
<title>Node2&#45;&gt;Node3</title>
<g id="a_edge2_Node000002_Node000003"><a xlink:title=" ">
<path fill="none" stroke="#63b8ff" stroke-width="2" d="M366.16,-72.24C388.22,-76.88 413.03,-82.1 435.93,-86.92"/>
<polygon fill="#63b8ff" stroke="#63b8ff" stroke-width="2" points="435.92,-90.92 446.43,-89.55 437.36,-84.07 435.92,-90.92"/>
</a>
</g>
</g>
<!-- Node4 -->
<g id="Node000004" class="node">
<title>Node4</title>
<g id="a_Node000004"><a xlink:href="../../d7/dba/menuutil_8c.html#a9941ed217da0309cd9453bdb776d5c51" target="_top" xlink:title="Add basic functionality to the shitty language which C is.">
<polygon fill="white" stroke="#666666" points="538.5,-71.75 491.75,-71.75 491.75,-45 538.5,-45 538.5,-71.75"/>
<text text-anchor="middle" x="515.12" y="-52.55" font-family="Helvetica,sans-Serif" font-size="16.00">max</text>
</a>
</g>
</g>
<!-- Node2&#45;&gt;Node4 -->
<g id="edge3_Node000002_Node000004" class="edge">
<title>Node2&#45;&gt;Node4</title>
<g id="a_edge3_Node000002_Node000004"><a xlink:title=" ">
<path fill="none" stroke="#63b8ff" stroke-width="2" d="M385.7,-58.38C418.1,-58.38 453.24,-58.38 478.56,-58.38"/>
<polygon fill="#63b8ff" stroke="#63b8ff" stroke-width="2" points="478.53,-61.88 488.53,-58.38 478.53,-54.88 478.53,-61.88"/>
</a>
</g>
</g>
<!-- Node5 -->
<g id="Node000005" class="node">
<title>Node5</title>
<g id="a_Node000005"><a xlink:href="../../d7/dba/menuutil_8c.html#a14ca6bd9893f550a2051ca6cd5a689ac" target="_top" xlink:title="Print boarders of window.">
<polygon fill="white" stroke="#666666" points="600,-26.75 430.25,-26.75 430.25,0 600,0 600,-26.75"/>
<text text-anchor="middle" x="515.12" y="-7.55" font-family="Helvetica,sans-Serif" font-size="16.00">printWindowBoarders</text>
</a>
</g>
</g>
<!-- Node2&#45;&gt;Node5 -->
<g id="edge4_Node000002_Node000005" class="edge">
<title>Node2&#45;&gt;Node5</title>
<g id="a_edge4_Node000002_Node000005"><a xlink:title=" ">
<path fill="none" stroke="#63b8ff" stroke-width="2" d="M366.16,-44.51C388.22,-39.87 413.03,-34.65 435.93,-29.83"/>
<polygon fill="#63b8ff" stroke="#63b8ff" stroke-width="2" points="437.36,-32.68 446.43,-27.2 435.92,-25.83 437.36,-32.68"/>
</a>
</g>
</g>
</g>
</svg>
