<?xml version="1.0" encoding="UTF-8" standalone="no"?>
<!DOCTYPE svg PUBLIC "-//W3C//DTD SVG 1.1//EN"
 "http://www.w3.org/Graphics/SVG/1.1/DTD/svg11.dtd">
<!-- Generated by graphviz version 8.0.5 (0)
 -->
<!-- Title: dbHandlClientRemove Pages: 1 -->
<svg width="669pt" height="35pt"
 viewBox="0.00 0.00 669.00 34.75" xmlns="http://www.w3.org/2000/svg" xmlns:xlink="http://www.w3.org/1999/xlink">
<g id="graph0" class="graph" transform="scale(1 1) rotate(0) translate(4 30.75)">
<title>dbHandlClientRemove</title>
<!-- Node1 -->
<g id="Node000001" class="node">
<title>Node1</title>
<g id="a_Node000001"><a xlink:title="Remove clinet from database.">
<polygon fill="#999999" stroke="#666666" points="661,-26.75 483.75,-26.75 483.75,0 661,0 661,-26.75"/>
<text text-anchor="middle" x="572.38" y="-7.55" font-family="Helvetica,sans-Serif" font-size="16.00">dbHandlClientRemove</text>
</a>
</g>
</g>
<!-- Node2 -->
<g id="Node000002" class="node">
<title>Node2</title>
<g id="a_Node000002"><a xlink:href="../../da/de9/clientsmenu_8c.html#ae81aa78f6e32fdd87e554ba85c063111" target="_top" xlink:title="Remove client.">
<polygon fill="white" stroke="#666666" points="447.75,-26.75 333.5,-26.75 333.5,0 447.75,0 447.75,-26.75"/>
<text text-anchor="middle" x="390.62" y="-7.55" font-family="Helvetica,sans-Serif" font-size="16.00">clientRemove</text>
</a>
</g>
</g>
<!-- Node1&#45;&gt;Node2 -->
<g id="edge1_Node000001_Node000002" class="edge">
<title>Node1&#45;&gt;Node2</title>
<g id="a_edge1_Node000001_Node000002"><a xlink:title=" ">
<path fill="none" stroke="#63b8ff" stroke-width="2" d="M470.42,-13.38C462.78,-13.38 455.24,-13.38 448.04,-13.38"/>
<polygon fill="#63b8ff" stroke="#63b8ff" stroke-width="2" points="470.34,-16.88 480.34,-13.38 470.34,-9.88 470.34,-16.88"/>
</a>
</g>
</g>
<!-- Node3 -->
<g id="Node000003" class="node">
<title>Node3</title>
<g id="a_Node000003"><a xlink:href="../../da/de9/clientsmenu_8c.html#ad2a8354e045a2d4deb82f4b3b20ad5a4" target="_top" xlink:title="Handles displaying of clients menu.">
<polygon fill="white" stroke="#666666" points="297.5,-26.75 194.5,-26.75 194.5,0 297.5,0 297.5,-26.75"/>
<text text-anchor="middle" x="246" y="-7.55" font-family="Helvetica,sans-Serif" font-size="16.00">clientsMenu</text>
</a>
</g>
</g>
<!-- Node2&#45;&gt;Node3 -->
<g id="edge2_Node000002_Node000003" class="edge">
<title>Node2&#45;&gt;Node3</title>
<g id="a_edge2_Node000002_Node000003"><a xlink:title=" ">
<path fill="none" stroke="#63b8ff" stroke-width="2" d="M320.51,-13.38C312.88,-13.38 305.22,-13.38 297.87,-13.38"/>
<polygon fill="#63b8ff" stroke="#63b8ff" stroke-width="2" points="320.26,-16.88 330.26,-13.38 320.26,-9.88 320.26,-16.88"/>
</a>
</g>
</g>
<!-- Node4 -->
<g id="Node000004" class="node">
<title>Node4</title>
<g id="a_Node000004"><a xlink:href="../../de/dc9/mmenu_8c.html#a315bc1f41a79da39147ec73e38cfc9e7" target="_top" xlink:title="Handles main menu.">
<polygon fill="#fff0f0" stroke="red" points="158.5,-26.75 0,-26.75 0,0 158.5,0 158.5,-26.75"/>
<text text-anchor="middle" x="79.25" y="-7.55" font-family="Helvetica,sans-Serif" font-size="16.00">mainMenuSelection</text>
</a>
</g>
</g>
<!-- Node3&#45;&gt;Node4 -->
<g id="edge3_Node000003_Node000004" class="edge">
<title>Node3&#45;&gt;Node4</title>
<g id="a_edge3_Node000003_Node000004"><a xlink:title=" ">
<path fill="none" stroke="#63b8ff" stroke-width="2" d="M181.23,-13.38C173.86,-13.38 166.27,-13.38 158.73,-13.38"/>
<polygon fill="#63b8ff" stroke="#63b8ff" stroke-width="2" points="181.23,-16.88 191.23,-13.38 181.23,-9.88 181.23,-16.88"/>
</a>
</g>
</g>
</g>
</svg>
