<?xml version="1.0" encoding="UTF-8" standalone="no"?>
<!DOCTYPE svg PUBLIC "-//W3C//DTD SVG 1.1//EN"
 "http://www.w3.org/Graphics/SVG/1.1/DTD/svg11.dtd">
<!-- Generated by graphviz version 8.0.5 (0)
 -->
<!-- Title: dbHandleGetResultAsList Pages: 1 -->
<svg width="641pt" height="125pt"
 viewBox="0.00 0.00 641.00 124.75" xmlns="http://www.w3.org/2000/svg" xmlns:xlink="http://www.w3.org/1999/xlink">
<g id="graph0" class="graph" transform="scale(1 1) rotate(0) translate(4 120.75)">
<title>dbHandleGetResultAsList</title>
<!-- Node1 -->
<g id="Node000001" class="node">
<title>Node1</title>
<g id="a_Node000001"><a xlink:title="Given query and callback function create List based on the query.">
<polygon fill="#999999" stroke="#666666" points="201.25,-93.75 0,-93.75 0,-67 201.25,-67 201.25,-93.75"/>
<text text-anchor="middle" x="100.62" y="-74.55" font-family="Helvetica,sans-Serif" font-size="16.00">dbHandleGetResultAsList</text>
</a>
</g>
</g>
<!-- Node2 -->
<g id="Node000002" class="node">
<title>Node2</title>
<g id="a_Node000002"><a xlink:href="../../d7/d40/list_8c.html#a5fccd2bb814aa2d6757242416f61ac40" target="_top" xlink:title="Returns empty list.">
<polygon fill="white" stroke="#666666" points="378.12,-116.75 268.38,-116.75 268.38,-90 378.12,-90 378.12,-116.75"/>
<text text-anchor="middle" x="323.25" y="-97.55" font-family="Helvetica,sans-Serif" font-size="16.00">listCreateList</text>
</a>
</g>
</g>
<!-- Node1&#45;&gt;Node2 -->
<g id="edge1_Node000001_Node000002" class="edge">
<title>Node1&#45;&gt;Node2</title>
<g id="a_edge1_Node000001_Node000002"><a xlink:title=" ">
<path fill="none" stroke="#63b8ff" stroke-width="2" d="M201.61,-90.8C219.78,-92.69 238.33,-94.63 255.26,-96.39"/>
<polygon fill="#63b8ff" stroke="#63b8ff" stroke-width="2" points="254.85,-100.18 265.16,-97.74 255.57,-93.22 254.85,-100.18"/>
</a>
</g>
</g>
<!-- Node3 -->
<g id="Node000003" class="node">
<title>Node3</title>
<g id="a_Node000003"><a xlink:href="../../d7/dba/menuutil_8c.html#ae6ed898f3726361b1edde3f8707f0260" target="_top" xlink:title="Displays message box on the screen with title and message.">
<polygon fill="white" stroke="#666666" points="409.25,-71.75 237.25,-71.75 237.25,-45 409.25,-45 409.25,-71.75"/>
<text text-anchor="middle" x="323.25" y="-52.55" font-family="Helvetica,sans-Serif" font-size="16.00">menuUtilMessagebox</text>
</a>
</g>
</g>
<!-- Node1&#45;&gt;Node3 -->
<g id="edge2_Node000001_Node000003" class="edge">
<title>Node1&#45;&gt;Node3</title>
<g id="a_edge2_Node000001_Node000003"><a xlink:title=" ">
<path fill="none" stroke="#63b8ff" stroke-width="2" d="M201.61,-70.4C209.04,-69.66 216.53,-68.92 223.96,-68.18"/>
<polygon fill="#63b8ff" stroke="#63b8ff" stroke-width="2" points="224.17,-71.37 233.77,-66.9 223.48,-64.41 224.17,-71.37"/>
</a>
</g>
</g>
<!-- Node4 -->
<g id="Node000004" class="node">
<title>Node4</title>
<g id="a_Node000004"><a xlink:href="../../d7/dba/menuutil_8c.html#ac6b71fcc47a9cdec8ac08b98e754239c" target="_top" xlink:title="Get length of longest string in array of strings.">
<polygon fill="white" stroke="#666666" points="633,-116.75 445.25,-116.75 445.25,-90 633,-90 633,-116.75"/>
<text text-anchor="middle" x="539.12" y="-97.55" font-family="Helvetica,sans-Serif" font-size="16.00">getLongestStringLength</text>
</a>
</g>
</g>
<!-- Node3&#45;&gt;Node4 -->
<g id="edge3_Node000003_Node000004" class="edge">
<title>Node3&#45;&gt;Node4</title>
<g id="a_edge3_Node000003_Node000004"><a xlink:title=" ">
<path fill="none" stroke="#63b8ff" stroke-width="2" d="M390.16,-72.24C412.22,-76.88 437.03,-82.1 459.93,-86.92"/>
<polygon fill="#63b8ff" stroke="#63b8ff" stroke-width="2" points="459.92,-90.92 470.43,-89.55 461.36,-84.07 459.92,-90.92"/>
</a>
</g>
</g>
<!-- Node5 -->
<g id="Node000005" class="node">
<title>Node5</title>
<g id="a_Node000005"><a xlink:href="../../d7/dba/menuutil_8c.html#a9941ed217da0309cd9453bdb776d5c51" target="_top" xlink:title="Add basic functionality to the shitty language which C is.">
<polygon fill="white" stroke="#666666" points="562.5,-71.75 515.75,-71.75 515.75,-45 562.5,-45 562.5,-71.75"/>
<text text-anchor="middle" x="539.12" y="-52.55" font-family="Helvetica,sans-Serif" font-size="16.00">max</text>
</a>
</g>
</g>
<!-- Node3&#45;&gt;Node5 -->
<g id="edge4_Node000003_Node000005" class="edge">
<title>Node3&#45;&gt;Node5</title>
<g id="a_edge4_Node000003_Node000005"><a xlink:title=" ">
<path fill="none" stroke="#63b8ff" stroke-width="2" d="M409.7,-58.38C442.1,-58.38 477.24,-58.38 502.56,-58.38"/>
<polygon fill="#63b8ff" stroke="#63b8ff" stroke-width="2" points="502.53,-61.88 512.53,-58.38 502.53,-54.88 502.53,-61.88"/>
</a>
</g>
</g>
<!-- Node6 -->
<g id="Node000006" class="node">
<title>Node6</title>
<g id="a_Node000006"><a xlink:href="../../d7/dba/menuutil_8c.html#a14ca6bd9893f550a2051ca6cd5a689ac" target="_top" xlink:title="Print boarders of window.">
<polygon fill="white" stroke="#666666" points="624,-26.75 454.25,-26.75 454.25,0 624,0 624,-26.75"/>
<text text-anchor="middle" x="539.12" y="-7.55" font-family="Helvetica,sans-Serif" font-size="16.00">printWindowBoarders</text>
</a>
</g>
</g>
<!-- Node3&#45;&gt;Node6 -->
<g id="edge5_Node000003_Node000006" class="edge">
<title>Node3&#45;&gt;Node6</title>
<g id="a_edge5_Node000003_Node000006"><a xlink:title=" ">
<path fill="none" stroke="#63b8ff" stroke-width="2" d="M390.16,-44.51C412.22,-39.87 437.03,-34.65 459.93,-29.83"/>
<polygon fill="#63b8ff" stroke="#63b8ff" stroke-width="2" points="461.36,-32.68 470.43,-27.2 459.92,-25.83 461.36,-32.68"/>
</a>
</g>
</g>
</g>
</svg>
