<?xml version="1.0" encoding="UTF-8" standalone="no"?>
<!DOCTYPE svg PUBLIC "-//W3C//DTD SVG 1.1//EN"
 "http://www.w3.org/Graphics/SVG/1.1/DTD/svg11.dtd">
<!-- Generated by graphviz version 8.0.5 (0)
 -->
<!-- Title: dbHandleClientUpdate Pages: 1 -->
<svg width="618pt" height="125pt"
 viewBox="0.00 0.00 617.75 124.75" xmlns="http://www.w3.org/2000/svg" xmlns:xlink="http://www.w3.org/1999/xlink">
<g id="graph0" class="graph" transform="scale(1 1) rotate(0) translate(4 120.75)">
<title>dbHandleClientUpdate</title>
<!-- Node1 -->
<g id="Node000001" class="node">
<title>Node1</title>
<g id="a_Node000001"><a xlink:title="Update Client in database.">
<polygon fill="#999999" stroke="#666666" points="178,-71.75 0,-71.75 0,-45 178,-45 178,-71.75"/>
<text text-anchor="middle" x="89" y="-52.55" font-family="Helvetica,sans-Serif" font-size="16.00">dbHandleClientUpdate</text>
</a>
</g>
</g>
<!-- Node2 -->
<g id="Node000002" class="node">
<title>Node2</title>
<g id="a_Node000002"><a xlink:href="../../d7/dba/menuutil_8c.html#ae6ed898f3726361b1edde3f8707f0260" target="_top" xlink:title="Displays message box on the screen with title and message.">
<polygon fill="white" stroke="#666666" points="386,-71.75 214,-71.75 214,-45 386,-45 386,-71.75"/>
<text text-anchor="middle" x="300" y="-52.55" font-family="Helvetica,sans-Serif" font-size="16.00">menuUtilMessagebox</text>
</a>
</g>
</g>
<!-- Node1&#45;&gt;Node2 -->
<g id="edge1_Node000001_Node000002" class="edge">
<title>Node1&#45;&gt;Node2</title>
<g id="a_edge1_Node000001_Node000002"><a xlink:title=" ">
<path fill="none" stroke="#63b8ff" stroke-width="2" d="M178.33,-58.38C185.73,-58.38 193.25,-58.38 200.72,-58.38"/>
<polygon fill="#63b8ff" stroke="#63b8ff" stroke-width="2" points="200.65,-61.88 210.65,-58.38 200.65,-54.88 200.65,-61.88"/>
</a>
</g>
</g>
<!-- Node3 -->
<g id="Node000003" class="node">
<title>Node3</title>
<g id="a_Node000003"><a xlink:href="../../d7/dba/menuutil_8c.html#ac6b71fcc47a9cdec8ac08b98e754239c" target="_top" xlink:title="Get length of longest string in array of strings.">
<polygon fill="white" stroke="#666666" points="609.75,-116.75 422,-116.75 422,-90 609.75,-90 609.75,-116.75"/>
<text text-anchor="middle" x="515.88" y="-97.55" font-family="Helvetica,sans-Serif" font-size="16.00">getLongestStringLength</text>
</a>
</g>
</g>
<!-- Node2&#45;&gt;Node3 -->
<g id="edge2_Node000002_Node000003" class="edge">
<title>Node2&#45;&gt;Node3</title>
<g id="a_edge2_Node000002_Node000003"><a xlink:title=" ">
<path fill="none" stroke="#63b8ff" stroke-width="2" d="M366.91,-72.24C388.97,-76.88 413.78,-82.1 436.68,-86.92"/>
<polygon fill="#63b8ff" stroke="#63b8ff" stroke-width="2" points="436.67,-90.92 447.18,-89.55 438.11,-84.07 436.67,-90.92"/>
</a>
</g>
</g>
<!-- Node4 -->
<g id="Node000004" class="node">
<title>Node4</title>
<g id="a_Node000004"><a xlink:href="../../d7/dba/menuutil_8c.html#a9941ed217da0309cd9453bdb776d5c51" target="_top" xlink:title="Add basic functionality to the shitty language which C is.">
<polygon fill="white" stroke="#666666" points="539.25,-71.75 492.5,-71.75 492.5,-45 539.25,-45 539.25,-71.75"/>
<text text-anchor="middle" x="515.88" y="-52.55" font-family="Helvetica,sans-Serif" font-size="16.00">max</text>
</a>
</g>
</g>
<!-- Node2&#45;&gt;Node4 -->
<g id="edge3_Node000002_Node000004" class="edge">
<title>Node2&#45;&gt;Node4</title>
<g id="a_edge3_Node000002_Node000004"><a xlink:title=" ">
<path fill="none" stroke="#63b8ff" stroke-width="2" d="M386.45,-58.38C418.85,-58.38 453.99,-58.38 479.31,-58.38"/>
<polygon fill="#63b8ff" stroke="#63b8ff" stroke-width="2" points="479.28,-61.88 489.28,-58.38 479.28,-54.88 479.28,-61.88"/>
</a>
</g>
</g>
<!-- Node5 -->
<g id="Node000005" class="node">
<title>Node5</title>
<g id="a_Node000005"><a xlink:href="../../d7/dba/menuutil_8c.html#a14ca6bd9893f550a2051ca6cd5a689ac" target="_top" xlink:title="Print boarders of window.">
<polygon fill="white" stroke="#666666" points="600.75,-26.75 431,-26.75 431,0 600.75,0 600.75,-26.75"/>
<text text-anchor="middle" x="515.88" y="-7.55" font-family="Helvetica,sans-Serif" font-size="16.00">printWindowBoarders</text>
</a>
</g>
</g>
<!-- Node2&#45;&gt;Node5 -->
<g id="edge4_Node000002_Node000005" class="edge">
<title>Node2&#45;&gt;Node5</title>
<g id="a_edge4_Node000002_Node000005"><a xlink:title=" ">
<path fill="none" stroke="#63b8ff" stroke-width="2" d="M366.91,-44.51C388.97,-39.87 413.78,-34.65 436.68,-29.83"/>
<polygon fill="#63b8ff" stroke="#63b8ff" stroke-width="2" points="438.11,-32.68 447.18,-27.2 436.67,-25.83 438.11,-32.68"/>
</a>
</g>
</g>
</g>
</svg>
