<?xml version="1.0" encoding="UTF-8" standalone="no"?>
<!DOCTYPE svg PUBLIC "-//W3C//DTD SVG 1.1//EN"
 "http://www.w3.org/Graphics/SVG/1.1/DTD/svg11.dtd">
<!-- Generated by graphviz version 8.0.5 (0)
 -->
<!-- Title: dbHandleCarUpdate Pages: 1 -->
<svg width="602pt" height="125pt"
 viewBox="0.00 0.00 602.00 124.75" xmlns="http://www.w3.org/2000/svg" xmlns:xlink="http://www.w3.org/1999/xlink">
<g id="graph0" class="graph" transform="scale(1 1) rotate(0) translate(4 120.75)">
<title>dbHandleCarUpdate</title>
<!-- Node1 -->
<g id="Node000001" class="node">
<title>Node1</title>
<g id="a_Node000001"><a xlink:title="Update a car in the database.">
<polygon fill="#999999" stroke="#666666" points="162.25,-71.75 0,-71.75 0,-45 162.25,-45 162.25,-71.75"/>
<text text-anchor="middle" x="81.12" y="-52.55" font-family="Helvetica,sans-Serif" font-size="16.00">dbHandleCarUpdate</text>
</a>
</g>
</g>
<!-- Node2 -->
<g id="Node000002" class="node">
<title>Node2</title>
<g id="a_Node000002"><a xlink:href="../../d7/dba/menuutil_8c.html#ae6ed898f3726361b1edde3f8707f0260" target="_top" xlink:title="Displays message box on the screen with title and message.">
<polygon fill="white" stroke="#666666" points="370.25,-71.75 198.25,-71.75 198.25,-45 370.25,-45 370.25,-71.75"/>
<text text-anchor="middle" x="284.25" y="-52.55" font-family="Helvetica,sans-Serif" font-size="16.00">menuUtilMessagebox</text>
</a>
</g>
</g>
<!-- Node1&#45;&gt;Node2 -->
<g id="edge1_Node000001_Node000002" class="edge">
<title>Node1&#45;&gt;Node2</title>
<g id="a_edge1_Node000001_Node000002"><a xlink:title=" ">
<path fill="none" stroke="#63b8ff" stroke-width="2" d="M162.48,-58.38C169.98,-58.38 177.64,-58.38 185.28,-58.38"/>
<polygon fill="#63b8ff" stroke="#63b8ff" stroke-width="2" points="185.08,-61.88 195.08,-58.38 185.08,-54.88 185.08,-61.88"/>
</a>
</g>
</g>
<!-- Node3 -->
<g id="Node000003" class="node">
<title>Node3</title>
<g id="a_Node000003"><a xlink:href="../../d7/dba/menuutil_8c.html#ac6b71fcc47a9cdec8ac08b98e754239c" target="_top" xlink:title="Get length of longest string in array of strings.">
<polygon fill="white" stroke="#666666" points="594,-116.75 406.25,-116.75 406.25,-90 594,-90 594,-116.75"/>
<text text-anchor="middle" x="500.12" y="-97.55" font-family="Helvetica,sans-Serif" font-size="16.00">getLongestStringLength</text>
</a>
</g>
</g>
<!-- Node2&#45;&gt;Node3 -->
<g id="edge2_Node000002_Node000003" class="edge">
<title>Node2&#45;&gt;Node3</title>
<g id="a_edge2_Node000002_Node000003"><a xlink:title=" ">
<path fill="none" stroke="#63b8ff" stroke-width="2" d="M351.16,-72.24C373.22,-76.88 398.03,-82.1 420.93,-86.92"/>
<polygon fill="#63b8ff" stroke="#63b8ff" stroke-width="2" points="420.92,-90.92 431.43,-89.55 422.36,-84.07 420.92,-90.92"/>
</a>
</g>
</g>
<!-- Node4 -->
<g id="Node000004" class="node">
<title>Node4</title>
<g id="a_Node000004"><a xlink:href="../../d7/dba/menuutil_8c.html#a9941ed217da0309cd9453bdb776d5c51" target="_top" xlink:title="Add basic functionality to the shitty language which C is.">
<polygon fill="white" stroke="#666666" points="523.5,-71.75 476.75,-71.75 476.75,-45 523.5,-45 523.5,-71.75"/>
<text text-anchor="middle" x="500.12" y="-52.55" font-family="Helvetica,sans-Serif" font-size="16.00">max</text>
</a>
</g>
</g>
<!-- Node2&#45;&gt;Node4 -->
<g id="edge3_Node000002_Node000004" class="edge">
<title>Node2&#45;&gt;Node4</title>
<g id="a_edge3_Node000002_Node000004"><a xlink:title=" ">
<path fill="none" stroke="#63b8ff" stroke-width="2" d="M370.7,-58.38C403.1,-58.38 438.24,-58.38 463.56,-58.38"/>
<polygon fill="#63b8ff" stroke="#63b8ff" stroke-width="2" points="463.53,-61.88 473.53,-58.38 463.53,-54.88 463.53,-61.88"/>
</a>
</g>
</g>
<!-- Node5 -->
<g id="Node000005" class="node">
<title>Node5</title>
<g id="a_Node000005"><a xlink:href="../../d7/dba/menuutil_8c.html#a14ca6bd9893f550a2051ca6cd5a689ac" target="_top" xlink:title="Print boarders of window.">
<polygon fill="white" stroke="#666666" points="585,-26.75 415.25,-26.75 415.25,0 585,0 585,-26.75"/>
<text text-anchor="middle" x="500.12" y="-7.55" font-family="Helvetica,sans-Serif" font-size="16.00">printWindowBoarders</text>
</a>
</g>
</g>
<!-- Node2&#45;&gt;Node5 -->
<g id="edge4_Node000002_Node000005" class="edge">
<title>Node2&#45;&gt;Node5</title>
<g id="a_edge4_Node000002_Node000005"><a xlink:title=" ">
<path fill="none" stroke="#63b8ff" stroke-width="2" d="M351.16,-44.51C373.22,-39.87 398.03,-34.65 420.93,-29.83"/>
<polygon fill="#63b8ff" stroke="#63b8ff" stroke-width="2" points="422.36,-32.68 431.43,-27.2 420.92,-25.83 422.36,-32.68"/>
</a>
</g>
</g>
</g>
</svg>
