<?xml version="1.0" encoding="UTF-8" standalone="no"?>
<!DOCTYPE svg PUBLIC "-//W3C//DTD SVG 1.1//EN"
 "http://www.w3.org/Graphics/SVG/1.1/DTD/svg11.dtd">
<!-- Generated by graphviz version 8.0.5 (0)
 -->
<!-- Title: main.c Pages: 1 -->
<svg width="407pt" height="286pt"
 viewBox="0.00 0.00 406.77 285.75" xmlns="http://www.w3.org/2000/svg" xmlns:xlink="http://www.w3.org/1999/xlink">

<svg id="main" version="1.1" xmlns="http://www.w3.org/2000/svg" xmlns:xlink="http://www.w3.org/1999/xlink" xml:space="preserve" onload="init(evt)">
<style type="text/css"><![CDATA[
.node, .edge {opacity: 0.7;}
.node.selected, .edge.selected {opacity: 1;}
.edge:hover path { stroke: red; }
.edge:hover polygon { stroke: red; fill: red; }
]]></style>
<script type="application/ecmascript" xlink:href="../../svg.min.js"/>
<svg id="graph" class="graph">
<g id="graph0" class="graph" transform="scale(1 1) rotate(0) translate(4 281.75)">
<title>main.c</title>
<!-- Node1 -->
<g id="Node000001" class="node">
<title>Node1</title>
<g id="a_Node000001"><a xlink:title="Main file.">
<polygon fill="#999999" stroke="#666666" points="216.77,-277.75 152.77,-277.75 152.77,-251 216.77,-251 216.77,-277.75"/>
<text text-anchor="middle" x="184.77" y="-258.55" font-family="Helvetica,sans-Serif" font-size="16.00">main.c</text>
</a>
</g>
</g>
<!-- Node2 -->
<g id="Node000002" class="node">
<title>Node2</title>
<g id="a_Node000002"><a xlink:href="../../db/d9d/dbhandle_8h.html" target="_top" xlink:title="Database operations interface.">
<polygon fill="white" stroke="#666666" points="106.89,-215 10.64,-215 10.64,-188.25 106.89,-188.25 106.89,-215"/>
<text text-anchor="middle" x="58.77" y="-195.8" font-family="Helvetica,sans-Serif" font-size="16.00">dbhandle.h</text>
</a>
</g>
</g>
<!-- Node1&#45;&gt;Node2 -->
<g id="edge1_Node000001_Node000002" class="edge">
<title>Node1&#45;&gt;Node2</title>
<g id="a_edge1_Node000001_Node000002"><a xlink:title=" ">
<path fill="none" stroke="#63b8ff" stroke-width="2" d="M158.35,-250.64C140.46,-242.01 116.54,-230.48 96.63,-220.88"/>
<polygon fill="#63b8ff" stroke="#63b8ff" stroke-width="2" points="97.67,-217.53 87.15,-216.34 94.63,-223.84 97.67,-217.53"/>
</a>
</g>
</g>
<!-- Node7 -->
<g id="Node000007" class="node">
<title>Node7</title>
<g id="a_Node000007"><a xlink:href="../../de/d0e/menuutil_8h.html" target="_top" xlink:title="Header file for menu operations.">
<polygon fill="white" stroke="#666666" points="230.27,-215 139.27,-215 139.27,-188.25 230.27,-188.25 230.27,-215"/>
<text text-anchor="middle" x="184.77" y="-195.8" font-family="Helvetica,sans-Serif" font-size="16.00">menuutil.h</text>
</a>
</g>
</g>
<!-- Node1&#45;&gt;Node7 -->
<g id="edge10_Node000001_Node000007" class="edge">
<title>Node1&#45;&gt;Node7</title>
<g id="a_edge10_Node000001_Node000007"><a xlink:title=" ">
<path fill="none" stroke="#63b8ff" stroke-width="2" d="M184.77,-250.79C184.77,-244.19 184.77,-235.86 184.77,-228"/>
<polygon fill="#63b8ff" stroke="#63b8ff" stroke-width="2" points="188.27,-228.2 184.77,-218.2 181.27,-228.2 188.27,-228.2"/>
</a>
</g>
</g>
<!-- Node9 -->
<g id="Node000009" class="node">
<title>Node9</title>
<g id="a_Node000009"><a xlink:href="../../df/d7b/mmenu_8h.html" target="_top" xlink:title="For invoking menu.">
<polygon fill="white" stroke="#666666" points="398.77,-215 256.77,-215 256.77,-188.25 398.77,-188.25 398.77,-215"/>
<text text-anchor="middle" x="327.77" y="-195.8" font-family="Helvetica,sans-Serif" font-size="16.00">mmenu/mmenu.h</text>
</a>
</g>
</g>
<!-- Node1&#45;&gt;Node9 -->
<g id="edge13_Node000001_Node000009" class="edge">
<title>Node1&#45;&gt;Node9</title>
<g id="a_edge13_Node000001_Node000009"><a xlink:title=" ">
<path fill="none" stroke="#63b8ff" stroke-width="2" d="M214.74,-250.64C235.43,-241.85 263.22,-230.05 286.06,-220.34"/>
<polygon fill="#63b8ff" stroke="#63b8ff" stroke-width="2" points="287.99,-223.47 295.83,-216.34 285.26,-217.03 287.99,-223.47"/>
</a>
</g>
</g>
<!-- Node3 -->
<g id="Node000003" class="node">
<title>Node3</title>
<g id="a_Node000003"><a xlink:href="../../db/d42/car_8h.html" target="_top" xlink:title="Interface for Car structure.">
<polygon fill="white" stroke="#666666" points="66.39,-152.25 15.14,-152.25 15.14,-125.5 66.39,-125.5 66.39,-152.25"/>
<text text-anchor="middle" x="40.77" y="-133.05" font-family="Helvetica,sans-Serif" font-size="16.00">car.h</text>
</a>
</g>
</g>
<!-- Node2&#45;&gt;Node3 -->
<g id="edge2_Node000002_Node000003" class="edge">
<title>Node2&#45;&gt;Node3</title>
<g id="a_edge2_Node000002_Node000003"><a xlink:title=" ">
<path fill="none" stroke="#63b8ff" stroke-width="2" d="M55.04,-188.04C53.03,-181.28 50.49,-172.7 48.11,-164.67"/>
<polygon fill="#63b8ff" stroke="#63b8ff" stroke-width="2" points="50.69,-163.04 44.49,-154.45 43.98,-165.03 50.69,-163.04"/>
</a>
</g>
</g>
<!-- Node5 -->
<g id="Node000005" class="node">
<title>Node5</title>
<g id="a_Node000005"><a xlink:title=" ">
<polygon fill="#e0e0e0" stroke="#999999" points="93.77,-26.75 11.77,-26.75 11.77,0 93.77,0 93.77,-26.75"/>
<text text-anchor="middle" x="52.77" y="-7.55" font-family="Helvetica,sans-Serif" font-size="16.00">stdbool.h</text>
</a>
</g>
</g>
<!-- Node2&#45;&gt;Node5 -->
<g id="edge9_Node000002_Node000005" class="edge">
<title>Node2&#45;&gt;Node5</title>
<g id="a_edge9_Node000002_Node000005"><a xlink:title=" ">
<path fill="none" stroke="#63b8ff" stroke-width="2" d="M37.64,-187.77C25.87,-179.31 12.3,-167.07 5.77,-152.25 -11.55,-113 14.72,-65.23 34.41,-37.47"/>
<polygon fill="#63b8ff" stroke="#63b8ff" stroke-width="2" points="37.89,-39.31 41.05,-29.2 32.27,-35.14 37.89,-39.31"/>
</a>
</g>
</g>
<!-- Node6 -->
<g id="Node000006" class="node">
<title>Node6</title>
<g id="a_Node000006"><a xlink:href="../../d8/de1/client_8h.html" target="_top" xlink:title="Interface for Client structure.">
<polygon fill="white" stroke="#666666" points="152.64,-152.25 84.89,-152.25 84.89,-125.5 152.64,-125.5 152.64,-152.25"/>
<text text-anchor="middle" x="118.77" y="-133.05" font-family="Helvetica,sans-Serif" font-size="16.00">client.h</text>
</a>
</g>
</g>
<!-- Node2&#45;&gt;Node6 -->
<g id="edge6_Node000002_Node000006" class="edge">
<title>Node2&#45;&gt;Node6</title>
<g id="a_edge6_Node000002_Node000006"><a xlink:title=" ">
<path fill="none" stroke="#63b8ff" stroke-width="2" d="M71.2,-188.04C78.76,-180.38 88.62,-170.4 97.4,-161.5"/>
<polygon fill="#63b8ff" stroke="#63b8ff" stroke-width="2" points="99.81,-164.02 104.35,-154.45 94.83,-159.1 99.81,-164.02"/>
</a>
</g>
</g>
<!-- Node4 -->
<g id="Node000004" class="node">
<title>Node4</title>
<g id="a_Node000004"><a xlink:href="../../da/d23/list_8h.html" target="_top" xlink:title="Doubly linked list interface.">
<polygon fill="white" stroke="#666666" points="149.64,-89.5 99.89,-89.5 99.89,-62.75 149.64,-62.75 149.64,-89.5"/>
<text text-anchor="middle" x="124.77" y="-70.3" font-family="Helvetica,sans-Serif" font-size="16.00">list.h</text>
</a>
</g>
</g>
<!-- Node3&#45;&gt;Node4 -->
<g id="edge3_Node000003_Node000004" class="edge">
<title>Node3&#45;&gt;Node4</title>
<g id="a_edge3_Node000003_Node000004"><a xlink:title=" ">
<path fill="none" stroke="#63b8ff" stroke-width="2" d="M58.17,-125.29C69.36,-117.2 84.14,-106.51 96.94,-97.25"/>
<polygon fill="#63b8ff" stroke="#63b8ff" stroke-width="2" points="99.04,-99.6 105.09,-90.91 94.94,-93.93 99.04,-99.6"/>
</a>
</g>
</g>
<!-- Node3&#45;&gt;Node5 -->
<g id="edge5_Node000003_Node000005" class="edge">
<title>Node3&#45;&gt;Node5</title>
<g id="a_edge5_Node000003_Node000005"><a xlink:title=" ">
<path fill="none" stroke="#63b8ff" stroke-width="2" d="M42.01,-125.12C43.95,-105.16 47.74,-66.11 50.26,-40.13"/>
<polygon fill="#63b8ff" stroke="#63b8ff" stroke-width="2" points="54.03,-40.53 51.52,-30.24 47.07,-39.86 54.03,-40.53"/>
</a>
</g>
</g>
<!-- Node4&#45;&gt;Node5 -->
<g id="edge4_Node000004_Node000005" class="edge">
<title>Node4&#45;&gt;Node5</title>
<g id="a_edge4_Node000004_Node000005"><a xlink:title=" ">
<path fill="none" stroke="#63b8ff" stroke-width="2" d="M109.85,-62.54C100.48,-54.64 88.18,-44.26 77.4,-35.16"/>
<polygon fill="#63b8ff" stroke="#63b8ff" stroke-width="2" points="79.57,-31.72 69.67,-27.95 75.05,-37.07 79.57,-31.72"/>
</a>
</g>
</g>
<!-- Node6&#45;&gt;Node4 -->
<g id="edge7_Node000006_Node000004" class="edge">
<title>Node6&#45;&gt;Node4</title>
<g id="a_edge7_Node000006_Node000004"><a xlink:title=" ">
<path fill="none" stroke="#63b8ff" stroke-width="2" d="M120.01,-125.29C120.66,-118.69 121.48,-110.36 122.26,-102.5"/>
<polygon fill="#63b8ff" stroke="#63b8ff" stroke-width="2" points="126.02,-102.99 123.52,-92.7 119.06,-102.3 126.02,-102.99"/>
</a>
</g>
</g>
<!-- Node6&#45;&gt;Node5 -->
<g id="edge8_Node000006_Node000005" class="edge">
<title>Node6&#45;&gt;Node5</title>
<g id="a_edge8_Node000006_Node000005"><a xlink:title=" ">
<path fill="none" stroke="#63b8ff" stroke-width="2" d="M111.2,-125.25C105.45,-115.56 97.42,-101.79 90.77,-89.5 81.63,-72.63 71.87,-53.31 64.53,-38.49"/>
<polygon fill="#63b8ff" stroke="#63b8ff" stroke-width="2" points="67.56,-36.68 60,-29.25 61.28,-39.77 67.56,-36.68"/>
</a>
</g>
</g>
<!-- Node7&#45;&gt;Node4 -->
<g id="edge11_Node000007_Node000004" class="edge">
<title>Node7&#45;&gt;Node4</title>
<g id="a_edge11_Node000007_Node000004"><a xlink:title=" ">
<path fill="none" stroke="#63b8ff" stroke-width="2" d="M182.31,-187.87C179.03,-172.48 172.37,-146.12 161.77,-125.5 157.16,-116.55 150.87,-107.57 144.78,-99.82"/>
<polygon fill="#63b8ff" stroke="#63b8ff" stroke-width="2" points="146.57,-97.29 137.5,-91.81 141.18,-101.75 146.57,-97.29"/>
</a>
</g>
</g>
<!-- Node8 -->
<g id="Node000008" class="node">
<title>Node8</title>
<g id="a_Node000008"><a xlink:title=" ">
<polygon fill="#e0e0e0" stroke="#999999" points="270.64,-152.25 208.89,-152.25 208.89,-125.5 270.64,-125.5 270.64,-152.25"/>
<text text-anchor="middle" x="239.77" y="-133.05" font-family="Helvetica,sans-Serif" font-size="16.00">form.h</text>
</a>
</g>
</g>
<!-- Node7&#45;&gt;Node8 -->
<g id="edge12_Node000007_Node000008" class="edge">
<title>Node7&#45;&gt;Node8</title>
<g id="a_edge12_Node000007_Node000008"><a xlink:title=" ">
<path fill="none" stroke="#63b8ff" stroke-width="2" d="M196.16,-188.04C202.95,-180.54 211.75,-170.82 219.67,-162.07"/>
<polygon fill="#63b8ff" stroke="#63b8ff" stroke-width="2" points="222.27,-164.21 226.38,-154.45 217.08,-159.51 222.27,-164.21"/>
</a>
</g>
</g>
<!-- Node10 -->
<g id="Node000010" class="node">
<title>Node10</title>
<g id="a_Node000010"><a xlink:title=" ">
<polygon fill="#e0e0e0" stroke="#999999" points="375.02,-152.25 288.52,-152.25 288.52,-125.5 375.02,-125.5 375.02,-152.25"/>
<text text-anchor="middle" x="331.77" y="-133.05" font-family="Helvetica,sans-Serif" font-size="16.00">ncurses.h</text>
</a>
</g>
</g>
<!-- Node9&#45;&gt;Node10 -->
<g id="edge14_Node000009_Node000010" class="edge">
<title>Node9&#45;&gt;Node10</title>
<g id="a_edge14_Node000009_Node000010"><a xlink:title=" ">
<path fill="none" stroke="#63b8ff" stroke-width="2" d="M328.59,-188.04C329.03,-181.44 329.58,-173.11 330.1,-165.25"/>
<polygon fill="#63b8ff" stroke="#63b8ff" stroke-width="2" points="333.77,-165.65 330.94,-155.45 326.79,-165.19 333.77,-165.65"/>
</a>
</g>
</g>
</g>
</svg>
</svg>

<style type='text/css'>
<![CDATA[
[data-mouse-over-selected='false'] { opacity: 0.7; }
[data-mouse-over-selected='true']  { opacity: 1.0; }
]]>
</style>
<script type="application/ecmascript"><![CDATA[
document.addEventListener('DOMContentLoaded', (event) => {
  highlightEdges();
  highlightAdjacentNodes();
});
]]></script>
</svg>
