<?xml version="1.0" encoding="UTF-8" standalone="no"?>
<!DOCTYPE svg PUBLIC "-//W3C//DTD SVG 1.1//EN"
 "http://www.w3.org/Graphics/SVG/1.1/DTD/svg11.dtd">
<!-- Generated by graphviz version 8.0.5 (0)
 -->
<!-- Title: carIsComplete Pages: 1 -->
<svg width="995pt" height="55pt"
 viewBox="0.00 0.00 995.00 54.75" xmlns="http://www.w3.org/2000/svg" xmlns:xlink="http://www.w3.org/1999/xlink">
<g id="graph0" class="graph" transform="scale(1 1) rotate(0) translate(4 50.75)">
<title>carIsComplete</title>
<!-- Node1 -->
<g id="Node000001" class="node">
<title>Node1</title>
<g id="a_Node000001"><a xlink:title="Checks if every field in Car is set.">
<polygon fill="#999999" stroke="#666666" points="987,-46.75 866.75,-46.75 866.75,-20 987,-20 987,-46.75"/>
<text text-anchor="middle" x="926.88" y="-27.55" font-family="Helvetica,sans-Serif" font-size="16.00">carIsComplete</text>
</a>
</g>
</g>
<!-- Node2 -->
<g id="Node000002" class="node">
<title>Node2</title>
<g id="a_Node000002"><a xlink:href="../../dc/dc6/carsmenu_8c.html#a920be2aa6ca8626fdd965865d26f3fd4" target="_top" xlink:title="Function for adding a car.">
<polygon fill="white" stroke="#666666" points="386.25,-46.75 317.75,-46.75 317.75,-20 386.25,-20 386.25,-46.75"/>
<text text-anchor="middle" x="352" y="-27.55" font-family="Helvetica,sans-Serif" font-size="16.00">addCar</text>
</a>
</g>
</g>
<!-- Node1&#45;&gt;Node2 -->
<g id="edge1_Node000001_Node000002" class="edge">
<title>Node1&#45;&gt;Node2</title>
<g id="a_edge1_Node000001_Node000002"><a xlink:title=" ">
<path fill="none" stroke="#63b8ff" stroke-width="2" d="M853.44,-35.06C845.78,-35.19 838.1,-35.3 830.75,-35.38 649.2,-37.28 603.79,-38 422.25,-35.38 410.58,-35.21 397.82,-34.88 386.46,-34.54"/>
<polygon fill="#63b8ff" stroke="#63b8ff" stroke-width="2" points="853.32,-38.5 863.25,-34.82 853.19,-31.51 853.32,-38.5"/>
</a>
</g>
</g>
<!-- Node10 -->
<g id="Node000010" class="node">
<title>Node10</title>
<g id="a_Node000010"><a xlink:href="../../d3/df4/dbhandle_8c.html#a2c254ca698cb291dd9b3b8e8c26f9e00" target="_top" xlink:title="Given car, get string containing SQL query that would add that car to DB.">
<polygon fill="white" stroke="#666666" points="830.75,-26.75 609.25,-26.75 609.25,0 830.75,0 830.75,-26.75"/>
<text text-anchor="middle" x="720" y="-7.55" font-family="Helvetica,sans-Serif" font-size="16.00">dbHandleGetCarInsertQuery</text>
</a>
</g>
</g>
<!-- Node1&#45;&gt;Node10 -->
<g id="edge4_Node000001_Node000010" class="edge">
<title>Node1&#45;&gt;Node10</title>
<g id="a_edge4_Node000001_Node000010"><a xlink:title=" ">
<path fill="none" stroke="#63b8ff" stroke-width="2" d="M853.54,-26.31C846.27,-25.6 838.78,-24.87 831.24,-24.14"/>
<polygon fill="#63b8ff" stroke="#63b8ff" stroke-width="2" points="853.05,-30.08 863.34,-27.56 853.73,-23.11 853.05,-30.08"/>
</a>
</g>
</g>
<!-- Node3 -->
<g id="Node000003" class="node">
<title>Node3</title>
<g id="a_Node000003"><a xlink:href="../../dc/dc6/carsmenu_8c.html#a7adcbb9b8798811ec24e33760623ebc0" target="_top" xlink:title="Handles displaying of cars menu.">
<polygon fill="white" stroke="#666666" points="281.75,-46.75 194.5,-46.75 194.5,-20 281.75,-20 281.75,-46.75"/>
<text text-anchor="middle" x="238.12" y="-27.55" font-family="Helvetica,sans-Serif" font-size="16.00">carsMenu</text>
</a>
</g>
</g>
<!-- Node2&#45;&gt;Node3 -->
<g id="edge2_Node000002_Node000003" class="edge">
<title>Node2&#45;&gt;Node3</title>
<g id="a_edge2_Node000002_Node000003"><a xlink:title=" ">
<path fill="none" stroke="#63b8ff" stroke-width="2" d="M304.5,-33.38C297.12,-33.38 289.51,-33.38 282.21,-33.38"/>
<polygon fill="#63b8ff" stroke="#63b8ff" stroke-width="2" points="304.43,-36.88 314.43,-33.38 304.43,-29.88 304.43,-36.88"/>
</a>
</g>
</g>
<!-- Node4 -->
<g id="Node000004" class="node">
<title>Node4</title>
<g id="a_Node000004"><a xlink:href="../../de/dc9/mmenu_8c.html#a315bc1f41a79da39147ec73e38cfc9e7" target="_top" xlink:title="Handles main menu.">
<polygon fill="#fff0f0" stroke="red" points="158.5,-46.75 0,-46.75 0,-20 158.5,-20 158.5,-46.75"/>
<text text-anchor="middle" x="79.25" y="-27.55" font-family="Helvetica,sans-Serif" font-size="16.00">mainMenuSelection</text>
</a>
</g>
</g>
<!-- Node3&#45;&gt;Node4 -->
<g id="edge3_Node000003_Node000004" class="edge">
<title>Node3&#45;&gt;Node4</title>
<g id="a_edge3_Node000003_Node000004"><a xlink:title=" ">
<path fill="none" stroke="#63b8ff" stroke-width="2" d="M181.47,-33.38C174.16,-33.38 166.56,-33.38 158.96,-33.38"/>
<polygon fill="#63b8ff" stroke="#63b8ff" stroke-width="2" points="181.26,-36.88 191.26,-33.38 181.26,-29.88 181.26,-36.88"/>
</a>
</g>
</g>
<!-- Node11 -->
<g id="Node000011" class="node">
<title>Node11</title>
<g id="a_Node000011"><a xlink:href="../../d3/df4/dbhandle_8c.html#ae62043f5776328dcdc74dc9f29c4e2c6" target="_top" xlink:title="Insert a car into the database.">
<polygon fill="white" stroke="#666666" points="573.25,-26.75 422.25,-26.75 422.25,0 573.25,0 573.25,-26.75"/>
<text text-anchor="middle" x="497.75" y="-7.55" font-family="Helvetica,sans-Serif" font-size="16.00">dbHandleCarInsert</text>
</a>
</g>
</g>
<!-- Node10&#45;&gt;Node11 -->
<g id="edge5_Node000010_Node000011" class="edge">
<title>Node10&#45;&gt;Node11</title>
<g id="a_edge5_Node000010_Node000011"><a xlink:title=" ">
<path fill="none" stroke="#63b8ff" stroke-width="2" d="M596.03,-13.38C588.43,-13.38 580.91,-13.38 573.62,-13.38"/>
<polygon fill="#63b8ff" stroke="#63b8ff" stroke-width="2" points="595.88,-16.88 605.88,-13.38 595.87,-9.88 595.88,-16.88"/>
</a>
</g>
</g>
<!-- Node11&#45;&gt;Node2 -->
<g id="edge6_Node000011_Node000002" class="edge">
<title>Node11&#45;&gt;Node2</title>
<g id="a_edge6_Node000011_Node000002"><a xlink:title=" ">
<path fill="none" stroke="#63b8ff" stroke-width="2" d="M409.23,-25.55C401.25,-26.66 393.54,-27.74 386.52,-28.71"/>
<polygon fill="#63b8ff" stroke="#63b8ff" stroke-width="2" points="410.51,-28.63 419.93,-23.79 409.54,-21.7 410.51,-28.63"/>
</a>
</g>
</g>
</g>
</svg>
