<?xml version="1.0" encoding="UTF-8" standalone="no"?>
<!DOCTYPE svg PUBLIC "-//W3C//DTD SVG 1.1//EN"
 "http://www.w3.org/Graphics/SVG/1.1/DTD/svg11.dtd">
<!-- Generated by graphviz version 8.0.5 (0)
 -->
<!-- Title: carFree Pages: 1 -->
<svg width="726pt" height="176pt"
 viewBox="0.00 0.00 725.50 176.02" xmlns="http://www.w3.org/2000/svg" xmlns:xlink="http://www.w3.org/1999/xlink">
<g id="graph0" class="graph" transform="scale(1 1) rotate(0) translate(4 172.02)">
<title>carFree</title>
<!-- Node1 -->
<g id="Node000001" class="node">
<title>Node1</title>
<g id="a_Node000001"><a xlink:title="Deallocates car.">
<polygon fill="#999999" stroke="#666666" points="717.5,-89.02 646,-89.02 646,-62.27 717.5,-62.27 717.5,-89.02"/>
<text text-anchor="middle" x="681.75" y="-69.82" font-family="Helvetica,sans-Serif" font-size="16.00">carFree</text>
</a>
</g>
</g>
<!-- Node2 -->
<g id="Node000002" class="node">
<title>Node2</title>
<g id="a_Node000002"><a xlink:href="../../dc/dc6/carsmenu_8c.html#a920be2aa6ca8626fdd965865d26f3fd4" target="_top" xlink:title="Function for adding a car.">
<polygon fill="white" stroke="#666666" points="597.25,-168.02 528.75,-168.02 528.75,-141.27 597.25,-141.27 597.25,-168.02"/>
<text text-anchor="middle" x="563" y="-148.82" font-family="Helvetica,sans-Serif" font-size="16.00">addCar</text>
</a>
</g>
</g>
<!-- Node1&#45;&gt;Node2 -->
<g id="edge1_Node000001_Node000002" class="edge">
<title>Node1&#45;&gt;Node2</title>
<g id="a_edge1_Node000001_Node000002"><a xlink:title=" ">
<path fill="none" stroke="#63b8ff" stroke-width="2" d="M653.01,-97.06C640.15,-106.72 624.52,-118.08 610,-127.65 603.19,-132.13 595.63,-136.72 588.64,-140.81"/>
<polygon fill="#63b8ff" stroke="#63b8ff" stroke-width="2" points="655.23,-99.25 661.08,-90.42 651,-93.67 655.23,-99.25"/>
</a>
</g>
</g>
<!-- Node10 -->
<g id="Node000010" class="node">
<title>Node10</title>
<g id="a_Node000010"><a xlink:href="../../dc/dc6/carsmenu_8c.html#ad451b82b7f3d31d1bb3fc4c210941579" target="_top" xlink:title="Invokes the listView of cars.">
<polygon fill="white" stroke="#666666" points="610,-48.02 516,-48.02 516,-21.27 610,-21.27 610,-48.02"/>
<text text-anchor="middle" x="563" y="-28.82" font-family="Helvetica,sans-Serif" font-size="16.00">carChoose</text>
</a>
</g>
</g>
<!-- Node1&#45;&gt;Node10 -->
<g id="edge4_Node000001_Node000010" class="edge">
<title>Node1&#45;&gt;Node10</title>
<g id="a_edge4_Node000001_Node000010"><a xlink:title=" ">
<path fill="none" stroke="#63b8ff" stroke-width="2" d="M633.46,-59.04C623.51,-55.55 613.13,-51.9 603.5,-48.52"/>
<polygon fill="#63b8ff" stroke="#63b8ff" stroke-width="2" points="633.13,-62.33 643.72,-62.34 635.45,-55.73 633.13,-62.33"/>
</a>
</g>
</g>
<!-- Node11 -->
<g id="Node000011" class="node">
<title>Node11</title>
<g id="a_Node000011"><a xlink:href="../../dc/dc6/carsmenu_8c.html#a04e2543edc445ed8a4cbd29b3466a07d" target="_top" xlink:title="Wrapper around carChoose frees extracted car instanntly.">
<polygon fill="white" stroke="#666666" points="480,-127.02 317.75,-127.02 317.75,-100.27 480,-100.27 480,-127.02"/>
<text text-anchor="middle" x="398.88" y="-107.82" font-family="Helvetica,sans-Serif" font-size="16.00">carChooseNoReturn</text>
</a>
</g>
</g>
<!-- Node1&#45;&gt;Node11 -->
<g id="edge11_Node000001_Node000011" class="edge">
<title>Node1&#45;&gt;Node11</title>
<g id="a_edge11_Node000001_Node000011"><a xlink:title=" ">
<path fill="none" stroke="#63b8ff" stroke-width="2" d="M632.91,-83.26C625.25,-84.43 617.41,-85.59 610,-86.65 567.21,-92.72 519.44,-98.91 480.26,-103.82"/>
<polygon fill="#63b8ff" stroke="#63b8ff" stroke-width="2" points="634.16,-86.3 643.51,-81.31 633.09,-79.38 634.16,-86.3"/>
</a>
</g>
</g>
<!-- Node12 -->
<g id="Node000012" class="node">
<title>Node12</title>
<g id="a_Node000012"><a xlink:href="../../dc/dc6/carsmenu_8c.html#acf8ae724beca8714d7d114a7f2539895" target="_top" xlink:title="Edit car.">
<polygon fill="white" stroke="#666666" points="432,-82.02 365.75,-82.02 365.75,-55.27 432,-55.27 432,-82.02"/>
<text text-anchor="middle" x="398.88" y="-62.82" font-family="Helvetica,sans-Serif" font-size="16.00">carEdit</text>
</a>
</g>
</g>
<!-- Node1&#45;&gt;Node12 -->
<g id="edge12_Node000001_Node000012" class="edge">
<title>Node1&#45;&gt;Node12</title>
<g id="a_edge12_Node000001_Node000012"><a xlink:title=" ">
<path fill="none" stroke="#63b8ff" stroke-width="2" d="M633.1,-74.46C575.93,-73.03 481.63,-70.68 432.27,-69.45"/>
<polygon fill="#63b8ff" stroke="#63b8ff" stroke-width="2" points="632.66,-78.02 642.74,-74.77 632.84,-71.03 632.66,-78.02"/>
</a>
</g>
</g>
<!-- Node13 -->
<g id="Node000013" class="node">
<title>Node13</title>
<g id="a_Node000013"><a xlink:href="../../dc/dc6/carsmenu_8c.html#a76be213354bbaa3d64a095bafa1ec8d2" target="_top" xlink:title="Removes a car.">
<polygon fill="white" stroke="#666666" points="448.12,-37.02 349.62,-37.02 349.62,-10.27 448.12,-10.27 448.12,-37.02"/>
<text text-anchor="middle" x="398.88" y="-17.82" font-family="Helvetica,sans-Serif" font-size="16.00">carRemove</text>
</a>
</g>
</g>
<!-- Node1&#45;&gt;Node13 -->
<g id="edge13_Node000001_Node000013" class="edge">
<title>Node1&#45;&gt;Node13</title>
<g id="a_edge13_Node000001_Node000013"><a xlink:title=" ">
<path fill="none" stroke="#63b8ff" stroke-width="2" d="M662.23,-52.08C649.34,-37.68 630.78,-20.56 610,-12.65 557.42,7.37 492.06,-0.68 448.33,-10.27"/>
<polygon fill="#63b8ff" stroke="#63b8ff" stroke-width="2" points="660.44,-54.55 669.57,-59.92 665.77,-50.02 660.44,-54.55"/>
</a>
</g>
</g>
<!-- Node3 -->
<g id="Node000003" class="node">
<title>Node3</title>
<g id="a_Node000003"><a xlink:href="../../dc/dc6/carsmenu_8c.html#a7adcbb9b8798811ec24e33760623ebc0" target="_top" xlink:title="Handles displaying of cars menu.">
<polygon fill="white" stroke="#666666" points="281.75,-104.02 194.5,-104.02 194.5,-77.27 281.75,-77.27 281.75,-104.02"/>
<text text-anchor="middle" x="238.12" y="-84.82" font-family="Helvetica,sans-Serif" font-size="16.00">carsMenu</text>
</a>
</g>
</g>
<!-- Node2&#45;&gt;Node3 -->
<g id="edge2_Node000002_Node000003" class="edge">
<title>Node2&#45;&gt;Node3</title>
<g id="a_edge2_Node000002_Node000003"><a xlink:title=" ">
<path fill="none" stroke="#63b8ff" stroke-width="2" d="M515.42,-157.01C465.42,-158.19 384.21,-156.11 317.75,-135.65 295.65,-128.84 273.01,-115.01 257.73,-104.47"/>
<polygon fill="#63b8ff" stroke="#63b8ff" stroke-width="2" points="515.46,-160.42 525.35,-156.62 515.25,-153.43 515.46,-160.42"/>
</a>
</g>
</g>
<!-- Node4 -->
<g id="Node000004" class="node">
<title>Node4</title>
<g id="a_Node000004"><a xlink:href="../../de/dc9/mmenu_8c.html#a315bc1f41a79da39147ec73e38cfc9e7" target="_top" xlink:title="Handles main menu.">
<polygon fill="#fff0f0" stroke="red" points="158.5,-104.02 0,-104.02 0,-77.27 158.5,-77.27 158.5,-104.02"/>
<text text-anchor="middle" x="79.25" y="-84.82" font-family="Helvetica,sans-Serif" font-size="16.00">mainMenuSelection</text>
</a>
</g>
</g>
<!-- Node3&#45;&gt;Node4 -->
<g id="edge3_Node000003_Node000004" class="edge">
<title>Node3&#45;&gt;Node4</title>
<g id="a_edge3_Node000003_Node000004"><a xlink:title=" ">
<path fill="none" stroke="#63b8ff" stroke-width="2" d="M181.47,-90.65C174.16,-90.65 166.56,-90.65 158.96,-90.65"/>
<polygon fill="#63b8ff" stroke="#63b8ff" stroke-width="2" points="181.26,-94.15 191.26,-90.65 181.26,-87.15 181.26,-94.15"/>
</a>
</g>
</g>
<!-- Node10&#45;&gt;Node11 -->
<g id="edge5_Node000010_Node000011" class="edge">
<title>Node10&#45;&gt;Node11</title>
<g id="a_edge5_Node000010_Node000011"><a xlink:title=" ">
<path fill="none" stroke="#63b8ff" stroke-width="2" d="M535.07,-56.28C519.68,-67.8 499.59,-81.44 480,-90.65 472.67,-94.09 464.71,-97.13 456.74,-99.78"/>
<polygon fill="#63b8ff" stroke="#63b8ff" stroke-width="2" points="537.58,-58.24 543.38,-49.37 533.32,-52.68 537.58,-58.24"/>
</a>
</g>
</g>
<!-- Node10&#45;&gt;Node12 -->
<g id="edge7_Node000010_Node000012" class="edge">
<title>Node10&#45;&gt;Node12</title>
<g id="a_edge7_Node000010_Node000012"><a xlink:title=" ">
<path fill="none" stroke="#63b8ff" stroke-width="2" d="M503.02,-47.01C479.22,-52.01 452.65,-57.58 432.45,-61.81"/>
<polygon fill="#63b8ff" stroke="#63b8ff" stroke-width="2" points="504.47,-49.87 513.54,-44.39 503.04,-43.02 504.47,-49.87"/>
</a>
</g>
</g>
<!-- Node10&#45;&gt;Node13 -->
<g id="edge9_Node000010_Node000013" class="edge">
<title>Node10&#45;&gt;Node13</title>
<g id="a_edge9_Node000010_Node000013"><a xlink:title=" ">
<path fill="none" stroke="#63b8ff" stroke-width="2" d="M502.62,-30.62C484.86,-29.41 465.59,-28.1 448.6,-26.95"/>
<polygon fill="#63b8ff" stroke="#63b8ff" stroke-width="2" points="502.33,-34.31 512.54,-31.49 502.8,-27.32 502.33,-34.31"/>
</a>
</g>
</g>
<!-- Node11&#45;&gt;Node3 -->
<g id="edge6_Node000011_Node000003" class="edge">
<title>Node11&#45;&gt;Node3</title>
<g id="a_edge6_Node000011_Node000003"><a xlink:title=" ">
<path fill="none" stroke="#63b8ff" stroke-width="2" d="M304.94,-100.18C296.97,-99.03 289.19,-97.9 281.93,-96.85"/>
<polygon fill="#63b8ff" stroke="#63b8ff" stroke-width="2" points="305.17,-104.04 315.57,-102.01 306.18,-97.11 305.17,-104.04"/>
</a>
</g>
</g>
<!-- Node12&#45;&gt;Node3 -->
<g id="edge8_Node000012_Node000003" class="edge">
<title>Node12&#45;&gt;Node3</title>
<g id="a_edge8_Node000012_Node000003"><a xlink:title=" ">
<path fill="none" stroke="#63b8ff" stroke-width="2" d="M352.57,-74.92C330.44,-77.99 303.95,-81.66 282.13,-84.69"/>
<polygon fill="#63b8ff" stroke="#63b8ff" stroke-width="2" points="353.94,-77.99 363.37,-73.15 352.98,-71.06 353.94,-77.99"/>
</a>
</g>
</g>
<!-- Node13&#45;&gt;Node3 -->
<g id="edge10_Node000013_Node000003" class="edge">
<title>Node13&#45;&gt;Node3</title>
<g id="a_edge10_Node000013_Node000003"><a xlink:title=" ">
<path fill="none" stroke="#63b8ff" stroke-width="2" d="M337.11,-39.47C330.5,-41.67 323.93,-44.07 317.75,-46.65 297.54,-55.07 275.92,-67.44 260.47,-76.92"/>
<polygon fill="#63b8ff" stroke="#63b8ff" stroke-width="2" points="338.89,-41.96 347.38,-35.62 336.79,-35.28 338.89,-41.96"/>
</a>
</g>
</g>
</g>
</svg>
