<?xml version="1.0" encoding="UTF-8" standalone="no"?>
<!DOCTYPE svg PUBLIC "-//W3C//DTD SVG 1.1//EN"
 "http://www.w3.org/Graphics/SVG/1.1/DTD/svg11.dtd">
<!-- Generated by graphviz version 8.0.5 (0)
 -->
<!-- Title: rentalsMenu Pages: 1 -->
<svg width="576pt" height="96pt"
 viewBox="0.00 0.00 576.00 95.75" xmlns="http://www.w3.org/2000/svg" xmlns:xlink="http://www.w3.org/1999/xlink">
<g id="graph0" class="graph" transform="scale(1 1) rotate(0) translate(4 91.75)">
<title>rentalsMenu</title>
<!-- Node1 -->
<g id="Node000001" class="node">
<title>Node1</title>
<g id="a_Node000001"><a xlink:title="Handles Rentals Menu.">
<polygon fill="#999999" stroke="#666666" points="568,-26.75 462.75,-26.75 462.75,0 568,0 568,-26.75"/>
<text text-anchor="middle" x="515.38" y="-7.55" font-family="Helvetica,sans-Serif" font-size="16.00">rentalsMenu</text>
</a>
</g>
</g>
<!-- Node2 -->
<g id="Node000002" class="node">
<title>Node2</title>
<g id="a_Node000002"><a xlink:href="../../de/dc9/mmenu_8c.html#a315bc1f41a79da39147ec73e38cfc9e7" target="_top" xlink:title="Handles main menu.">
<polygon fill="white" stroke="#666666" points="426.75,-47.75 268.25,-47.75 268.25,-21 426.75,-21 426.75,-47.75"/>
<text text-anchor="middle" x="347.5" y="-28.55" font-family="Helvetica,sans-Serif" font-size="16.00">mainMenuSelection</text>
</a>
</g>
</g>
<!-- Node1&#45;&gt;Node2 -->
<g id="edge1_Node000001_Node000002" class="edge">
<title>Node1&#45;&gt;Node2</title>
<g id="a_edge1_Node000001_Node000002"><a xlink:title=" ">
<path fill="none" stroke="#63b8ff" stroke-width="2" d="M449.69,-21.56C442.27,-22.5 434.65,-23.47 427.08,-24.43"/>
<polygon fill="#63b8ff" stroke="#63b8ff" stroke-width="2" points="449.87,-24.69 459.35,-19.96 448.99,-17.75 449.87,-24.69"/>
</a>
</g>
</g>
<!-- Node3 -->
<g id="Node000003" class="node">
<title>Node3</title>
<g id="a_Node000003"><a xlink:href="../../de/dc9/mmenu_8c.html#a29c2128f12316ca1ce77fd1d686f6ec7" target="_top" xlink:title="Invokes menu.">
<polygon fill="white" stroke="#666666" points="232.25,-85.75 140.5,-85.75 140.5,-59 232.25,-59 232.25,-85.75"/>
<text text-anchor="middle" x="186.38" y="-66.55" font-family="Helvetica,sans-Serif" font-size="16.00">mainMenu</text>
</a>
</g>
</g>
<!-- Node2&#45;&gt;Node3 -->
<g id="edge2_Node000002_Node000003" class="edge">
<title>Node2&#45;&gt;Node3</title>
<g id="a_edge2_Node000002_Node000003"><a xlink:title=" ">
<path fill="none" stroke="#63b8ff" stroke-width="2" d="M276.28,-51.14C261.42,-54.69 246.13,-58.34 232.51,-61.6"/>
<polygon fill="#63b8ff" stroke="#63b8ff" stroke-width="2" points="277.69,-53.93 286.6,-48.2 276.06,-47.12 277.69,-53.93"/>
</a>
</g>
</g>
<!-- Node4 -->
<g id="Node000004" class="node">
<title>Node4</title>
<g id="a_Node000004"><a xlink:href="../../d0/d29/main_8c.html#ae66f6b31b5ad750f1fe042a706a4e3d4" target="_top" xlink:title="main.">
<polygon fill="white" stroke="#666666" points="77.88,-87.75 26.62,-87.75 26.62,-61 77.88,-61 77.88,-87.75"/>
<text text-anchor="middle" x="52.25" y="-68.55" font-family="Helvetica,sans-Serif" font-size="16.00">main</text>
</a>
</g>
</g>
<!-- Node3&#45;&gt;Node4 -->
<g id="edge3_Node000003_Node000004" class="edge">
<title>Node3&#45;&gt;Node4</title>
<g id="a_edge3_Node000003_Node000004"><a xlink:title=" ">
<path fill="none" stroke="#63b8ff" stroke-width="2" d="M127.31,-73.25C110.06,-73.52 92.07,-73.79 78.14,-74"/>
<polygon fill="#63b8ff" stroke="#63b8ff" stroke-width="2" points="127.33,-76.71 137.27,-73.06 127.22,-69.71 127.33,-76.71"/>
</a>
</g>
</g>
<!-- Node5 -->
<g id="Node000005" class="node">
<title>Node5</title>
<g id="a_Node000005"><a xlink:href="../../d7/dba/menuutil_8c.html#a949419e66b27ac75475821fb7aba527d" target="_top" xlink:title="Handle all operation and functions for menu.">
<polygon fill="#fff0f0" stroke="red" points="104.5,-42.75 0,-42.75 0,-16 104.5,-16 104.5,-42.75"/>
<text text-anchor="middle" x="52.25" y="-23.55" font-family="Helvetica,sans-Serif" font-size="16.00">menuInvoke</text>
</a>
</g>
</g>
<!-- Node3&#45;&gt;Node5 -->
<g id="edge4_Node000003_Node000005" class="edge">
<title>Node3&#45;&gt;Node5</title>
<g id="a_edge4_Node000003_Node000005"><a xlink:title=" ">
<path fill="none" stroke="#63b8ff" stroke-width="2" d="M130.49,-54.51C118.87,-50.73 106.78,-46.8 95.7,-43.19"/>
<polygon fill="#63b8ff" stroke="#63b8ff" stroke-width="2" points="130.25,-58.77 140.84,-58.53 132.42,-52.11 130.25,-58.77"/>
</a>
</g>
</g>
<!-- Node5&#45;&gt;Node1 -->
<g id="edge6_Node000005_Node000001" class="edge">
<title>Node5&#45;&gt;Node1</title>
<g id="a_edge6_Node000005_Node000001"><a xlink:title=" ">
<path fill="none" stroke="#63b8ff" stroke-width="2" d="M117.63,-22.95C160.3,-19.02 217.56,-14.38 268.25,-12.38 338.64,-9.6 356.31,-11.97 426.75,-12.38 438.31,-12.44 450.73,-12.56 462.48,-12.68"/>
<polygon fill="#63b8ff" stroke="#63b8ff" stroke-width="2" points="117.51,-19.73 107.88,-24.14 118.16,-26.7 117.51,-19.73"/>
</a>
</g>
</g>
<!-- Node5&#45;&gt;Node2 -->
<g id="edge5_Node000005_Node000002" class="edge">
<title>Node5&#45;&gt;Node2</title>
<g id="a_edge5_Node000005_Node000002"><a xlink:title=" ">
<path fill="none" stroke="#63b8ff" stroke-width="2" d="M117.7,-30.47C161.94,-31.23 220.92,-32.23 267.91,-33.04"/>
<polygon fill="#63b8ff" stroke="#63b8ff" stroke-width="2" points="117.83,-26.92 107.77,-30.25 117.71,-33.92 117.83,-26.92"/>
</a>
</g>
</g>
</g>
</svg>
