<?xml version="1.0" encoding="UTF-8" standalone="no"?>
<!DOCTYPE svg PUBLIC "-//W3C//DTD SVG 1.1//EN"
 "http://www.w3.org/Graphics/SVG/1.1/DTD/svg11.dtd">
<!-- Generated by graphviz version 8.0.5 (0)
 -->
<!-- Title: carGetListQueryCallback Pages: 1 -->
<svg width="508pt" height="80pt"
 viewBox="0.00 0.00 508.25 79.75" xmlns="http://www.w3.org/2000/svg" xmlns:xlink="http://www.w3.org/1999/xlink">
<g id="graph0" class="graph" transform="scale(1 1) rotate(0) translate(4 75.75)">
<title>carGetListQueryCallback</title>
<!-- Node1 -->
<g id="Node000001" class="node">
<title>Node1</title>
<g id="a_Node000001"><a xlink:title="CallBack function for dbHandleGetResultAsList. Transforms row into Car.">
<polygon fill="#999999" stroke="#666666" points="196.75,-48.75 0,-48.75 0,-22 196.75,-22 196.75,-48.75"/>
<text text-anchor="middle" x="98.38" y="-29.55" font-family="Helvetica,sans-Serif" font-size="16.00">carGetListQueryCallback</text>
</a>
</g>
</g>
<!-- Node2 -->
<g id="Node000002" class="node">
<title>Node2</title>
<g id="a_Node000002"><a xlink:href="../../d5/df2/car_8c.html#a0d3175ea031713002ce87092fd6e258f" target="_top" xlink:title="Allocates and returns car containing nothing.">
<polygon fill="white" stroke="#666666" points="322.25,-71.75 252.25,-71.75 252.25,-45 322.25,-45 322.25,-71.75"/>
<text text-anchor="middle" x="287.25" y="-52.55" font-family="Helvetica,sans-Serif" font-size="16.00">carNew</text>
</a>
</g>
</g>
<!-- Node1&#45;&gt;Node2 -->
<g id="edge1_Node000001_Node000002" class="edge">
<title>Node1&#45;&gt;Node2</title>
<g id="a_edge1_Node000001_Node000002"><a xlink:title=" ">
<path fill="none" stroke="#63b8ff" stroke-width="2" d="M197.19,-47.41C211.74,-49.2 226.15,-50.98 239,-52.56"/>
<polygon fill="#63b8ff" stroke="#63b8ff" stroke-width="2" points="238.42,-56.38 248.77,-54.13 239.27,-49.44 238.42,-56.38"/>
</a>
</g>
</g>
<!-- Node3 -->
<g id="Node000003" class="node">
<title>Node3</title>
<g id="a_Node000003"><a xlink:href="../../d7/d40/list_8c.html#a339df7b81560e9469a44d37ad966870f" target="_top" xlink:title="Adds item at the end of list.">
<polygon fill="white" stroke="#666666" points="341.75,-26.75 232.75,-26.75 232.75,0 341.75,0 341.75,-26.75"/>
<text text-anchor="middle" x="287.25" y="-7.55" font-family="Helvetica,sans-Serif" font-size="16.00">listPushBack</text>
</a>
</g>
</g>
<!-- Node1&#45;&gt;Node3 -->
<g id="edge2_Node000001_Node000003" class="edge">
<title>Node1&#45;&gt;Node3</title>
<g id="a_edge2_Node000001_Node000003"><a xlink:title=" ">
<path fill="none" stroke="#63b8ff" stroke-width="2" d="M197.19,-23.86C204.81,-22.96 212.39,-22.07 219.72,-21.21"/>
<polygon fill="#63b8ff" stroke="#63b8ff" stroke-width="2" points="220.1,-24.33 229.62,-19.69 219.28,-17.38 220.1,-24.33"/>
</a>
</g>
</g>
<!-- Node4 -->
<g id="Node000004" class="node">
<title>Node4</title>
<g id="a_Node000004"><a xlink:href="../../d7/d40/list_8c.html#ab3906daba38e516a6c2bd15bfa3042db" target="_top" xlink:title="Instantiates ListNode containing pointer to data.">
<polygon fill="white" stroke="#666666" points="500.25,-26.75 377.75,-26.75 377.75,0 500.25,0 500.25,-26.75"/>
<text text-anchor="middle" x="439" y="-7.55" font-family="Helvetica,sans-Serif" font-size="16.00">listCreateNode</text>
</a>
</g>
</g>
<!-- Node3&#45;&gt;Node4 -->
<g id="edge3_Node000003_Node000004" class="edge">
<title>Node3&#45;&gt;Node4</title>
<g id="a_edge3_Node000003_Node000004"><a xlink:title=" ">
<path fill="none" stroke="#63b8ff" stroke-width="2" d="M341.89,-13.38C349.26,-13.38 356.92,-13.38 364.56,-13.38"/>
<polygon fill="#63b8ff" stroke="#63b8ff" stroke-width="2" points="364.35,-16.88 374.35,-13.38 364.35,-9.88 364.35,-16.88"/>
</a>
</g>
</g>
</g>
</svg>
