<?xml version="1.0" encoding="UTF-8" standalone="no"?>
<!DOCTYPE svg PUBLIC "-//W3C//DTD SVG 1.1//EN"
 "http://www.w3.org/Graphics/SVG/1.1/DTD/svg11.dtd">
<!-- Generated by graphviz version 8.0.5 (0)
 -->
<!-- Title: carClone Pages: 1 -->
<svg width="861pt" height="125pt"
 viewBox="0.00 0.00 860.75 124.75" xmlns="http://www.w3.org/2000/svg" xmlns:xlink="http://www.w3.org/1999/xlink">
<g id="graph0" class="graph" transform="scale(1 1) rotate(0) translate(4 120.75)">
<title>carClone</title>
<!-- Node1 -->
<g id="Node000001" class="node">
<title>Node1</title>
<g id="a_Node000001"><a xlink:title="Make a clone of Car. It allocates memory internally.">
<polygon fill="#999999" stroke="#666666" points="852.75,-94.75 772.25,-94.75 772.25,-68 852.75,-68 852.75,-94.75"/>
<text text-anchor="middle" x="812.5" y="-75.55" font-family="Helvetica,sans-Serif" font-size="16.00">carClone</text>
</a>
</g>
</g>
<!-- Node2 -->
<g id="Node000002" class="node">
<title>Node2</title>
<g id="a_Node000002"><a xlink:href="../../dc/dc6/carsmenu_8c.html#acf8ae724beca8714d7d114a7f2539895" target="_top" xlink:title="Edit car.">
<polygon fill="white" stroke="#666666" points="432,-116.75 365.75,-116.75 365.75,-90 432,-90 432,-116.75"/>
<text text-anchor="middle" x="398.88" y="-97.55" font-family="Helvetica,sans-Serif" font-size="16.00">carEdit</text>
</a>
</g>
</g>
<!-- Node1&#45;&gt;Node2 -->
<g id="edge1_Node000001_Node000002" class="edge">
<title>Node1&#45;&gt;Node2</title>
<g id="a_edge1_Node000001_Node000002"><a xlink:title=" ">
<path fill="none" stroke="#63b8ff" stroke-width="2" d="M759.18,-84.17C672.88,-88.78 503.22,-97.85 432.27,-101.64"/>
<polygon fill="#63b8ff" stroke="#63b8ff" stroke-width="2" points="759.23,-87.51 769.03,-83.48 758.86,-80.52 759.23,-87.51"/>
</a>
</g>
</g>
<!-- Node10 -->
<g id="Node000010" class="node">
<title>Node10</title>
<g id="a_Node000010"><a xlink:href="../../dc/dc6/carsmenu_8c.html#acf7941e462559f5f161ffcd804d4b8c9" target="_top" xlink:title="Extracts car from the given ListNode.">
<polygon fill="white" stroke="#666666" points="736.25,-74.75 646,-74.75 646,-48 736.25,-48 736.25,-74.75"/>
<text text-anchor="middle" x="691.12" y="-55.55" font-family="Helvetica,sans-Serif" font-size="16.00">extractCar</text>
</a>
</g>
</g>
<!-- Node1&#45;&gt;Node10 -->
<g id="edge4_Node000001_Node000010" class="edge">
<title>Node1&#45;&gt;Node10</title>
<g id="a_edge4_Node000001_Node000010"><a xlink:title=" ">
<path fill="none" stroke="#63b8ff" stroke-width="2" d="M759.44,-72.65C751.77,-71.37 743.94,-70.06 736.45,-68.8"/>
<polygon fill="#63b8ff" stroke="#63b8ff" stroke-width="2" points="759.64,-76.57 770.08,-74.77 760.8,-69.67 759.64,-76.57"/>
</a>
</g>
</g>
<!-- Node3 -->
<g id="Node000003" class="node">
<title>Node3</title>
<g id="a_Node000003"><a xlink:href="../../dc/dc6/carsmenu_8c.html#a7adcbb9b8798811ec24e33760623ebc0" target="_top" xlink:title="Handles displaying of cars menu.">
<polygon fill="white" stroke="#666666" points="281.75,-71.75 194.5,-71.75 194.5,-45 281.75,-45 281.75,-71.75"/>
<text text-anchor="middle" x="238.12" y="-52.55" font-family="Helvetica,sans-Serif" font-size="16.00">carsMenu</text>
</a>
</g>
</g>
<!-- Node2&#45;&gt;Node3 -->
<g id="edge2_Node000002_Node000003" class="edge">
<title>Node2&#45;&gt;Node3</title>
<g id="a_edge2_Node000002_Node000003"><a xlink:title=" ">
<path fill="none" stroke="#63b8ff" stroke-width="2" d="M352.88,-90.62C330.69,-84.33 304.05,-76.78 282.13,-70.57"/>
<polygon fill="#63b8ff" stroke="#63b8ff" stroke-width="2" points="352.79,-94.8 363.37,-94.16 354.7,-88.07 352.79,-94.8"/>
</a>
</g>
</g>
<!-- Node4 -->
<g id="Node000004" class="node">
<title>Node4</title>
<g id="a_Node000004"><a xlink:href="../../de/dc9/mmenu_8c.html#a315bc1f41a79da39147ec73e38cfc9e7" target="_top" xlink:title="Handles main menu.">
<polygon fill="#fff0f0" stroke="red" points="158.5,-71.75 0,-71.75 0,-45 158.5,-45 158.5,-71.75"/>
<text text-anchor="middle" x="79.25" y="-52.55" font-family="Helvetica,sans-Serif" font-size="16.00">mainMenuSelection</text>
</a>
</g>
</g>
<!-- Node3&#45;&gt;Node4 -->
<g id="edge3_Node000003_Node000004" class="edge">
<title>Node3&#45;&gt;Node4</title>
<g id="a_edge3_Node000003_Node000004"><a xlink:title=" ">
<path fill="none" stroke="#63b8ff" stroke-width="2" d="M181.47,-58.38C174.16,-58.38 166.56,-58.38 158.96,-58.38"/>
<polygon fill="#63b8ff" stroke="#63b8ff" stroke-width="2" points="181.26,-61.88 191.26,-58.38 181.26,-54.88 181.26,-61.88"/>
</a>
</g>
</g>
<!-- Node11 -->
<g id="Node000011" class="node">
<title>Node11</title>
<g id="a_Node000011"><a xlink:href="../../dc/dc6/carsmenu_8c.html#ad451b82b7f3d31d1bb3fc4c210941579" target="_top" xlink:title="Invokes the listView of cars.">
<polygon fill="white" stroke="#666666" points="610,-73.75 516,-73.75 516,-47 610,-47 610,-73.75"/>
<text text-anchor="middle" x="563" y="-54.55" font-family="Helvetica,sans-Serif" font-size="16.00">carChoose</text>
</a>
</g>
</g>
<!-- Node10&#45;&gt;Node11 -->
<g id="edge5_Node000010_Node000011" class="edge">
<title>Node10&#45;&gt;Node11</title>
<g id="a_edge5_Node000010_Node000011"><a xlink:title=" ">
<path fill="none" stroke="#63b8ff" stroke-width="2" d="M632.72,-60.92C625.18,-60.86 617.52,-60.8 610.2,-60.74"/>
<polygon fill="#63b8ff" stroke="#63b8ff" stroke-width="2" points="632.63,-64.44 642.66,-61.02 632.69,-57.44 632.63,-64.44"/>
</a>
</g>
</g>
<!-- Node11&#45;&gt;Node2 -->
<g id="edge8_Node000011_Node000002" class="edge">
<title>Node11&#45;&gt;Node2</title>
<g id="a_edge8_Node000011_Node000002"><a xlink:title=" ">
<path fill="none" stroke="#63b8ff" stroke-width="2" d="M503.02,-76.02C479.22,-82.33 452.65,-89.38 432.45,-94.74"/>
<polygon fill="#63b8ff" stroke="#63b8ff" stroke-width="2" points="504.77,-78.64 513.54,-72.7 502.98,-71.88 504.77,-78.64"/>
</a>
</g>
</g>
<!-- Node12 -->
<g id="Node000012" class="node">
<title>Node12</title>
<g id="a_Node000012"><a xlink:href="../../dc/dc6/carsmenu_8c.html#a04e2543edc445ed8a4cbd29b3466a07d" target="_top" xlink:title="Wrapper around carChoose frees extracted car instanntly.">
<polygon fill="white" stroke="#666666" points="480,-71.75 317.75,-71.75 317.75,-45 480,-45 480,-71.75"/>
<text text-anchor="middle" x="398.88" y="-52.55" font-family="Helvetica,sans-Serif" font-size="16.00">carChooseNoReturn</text>
</a>
</g>
</g>
<!-- Node11&#45;&gt;Node12 -->
<g id="edge6_Node000011_Node000012" class="edge">
<title>Node11&#45;&gt;Node12</title>
<g id="a_edge6_Node000011_Node000012"><a xlink:title=" ">
<path fill="none" stroke="#63b8ff" stroke-width="2" d="M502.73,-59.64C495.43,-59.55 487.88,-59.46 480.33,-59.37"/>
<polygon fill="#63b8ff" stroke="#63b8ff" stroke-width="2" points="502.5,-63.18 512.54,-59.8 502.59,-56.18 502.5,-63.18"/>
</a>
</g>
</g>
<!-- Node13 -->
<g id="Node000013" class="node">
<title>Node13</title>
<g id="a_Node000013"><a xlink:href="../../dc/dc6/carsmenu_8c.html#a76be213354bbaa3d64a095bafa1ec8d2" target="_top" xlink:title="Removes a car.">
<polygon fill="white" stroke="#666666" points="448.12,-26.75 349.62,-26.75 349.62,0 448.12,0 448.12,-26.75"/>
<text text-anchor="middle" x="398.88" y="-7.55" font-family="Helvetica,sans-Serif" font-size="16.00">carRemove</text>
</a>
</g>
</g>
<!-- Node11&#45;&gt;Node13 -->
<g id="edge9_Node000011_Node000013" class="edge">
<title>Node11&#45;&gt;Node13</title>
<g id="a_edge9_Node000011_Node000013"><a xlink:title=" ">
<path fill="none" stroke="#63b8ff" stroke-width="2" d="M503.4,-43.18C495.54,-40.89 487.57,-38.57 480,-36.38 469.71,-33.39 458.68,-30.21 448.19,-27.2"/>
<polygon fill="#63b8ff" stroke="#63b8ff" stroke-width="2" points="503.03,-47.31 513.61,-46.75 504.99,-40.59 503.03,-47.31"/>
</a>
</g>
</g>
<!-- Node12&#45;&gt;Node3 -->
<g id="edge7_Node000012_Node000003" class="edge">
<title>Node12&#45;&gt;Node3</title>
<g id="a_edge7_Node000012_Node000003"><a xlink:title=" ">
<path fill="none" stroke="#63b8ff" stroke-width="2" d="M304.65,-58.38C296.78,-58.38 289.1,-58.38 281.93,-58.38"/>
<polygon fill="#63b8ff" stroke="#63b8ff" stroke-width="2" points="304.57,-61.88 314.57,-58.38 304.57,-54.88 304.57,-61.88"/>
</a>
</g>
</g>
<!-- Node13&#45;&gt;Node3 -->
<g id="edge10_Node000013_Node000003" class="edge">
<title>Node13&#45;&gt;Node3</title>
<g id="a_edge10_Node000013_Node000003"><a xlink:title=" ">
<path fill="none" stroke="#63b8ff" stroke-width="2" d="M337.01,-30.63C318.73,-35.81 299.08,-41.38 282.21,-46.16"/>
<polygon fill="#63b8ff" stroke="#63b8ff" stroke-width="2" points="338.72,-33.22 347.38,-27.12 336.81,-26.48 338.72,-33.22"/>
</a>
</g>
</g>
</g>
</svg>
