<?xml version="1.0" encoding="UTF-8" standalone="no"?>
<!DOCTYPE svg PUBLIC "-//W3C//DTD SVG 1.1//EN"
 "http://www.w3.org/Graphics/SVG/1.1/DTD/svg11.dtd">
<!-- Generated by graphviz version 8.0.5 (0)
 -->
<!-- Title: carNew Pages: 1 -->
<!--zoomable 162 -->

<svg id="main" version="1.1" xmlns="http://www.w3.org/2000/svg" xmlns:xlink="http://www.w3.org/1999/xlink" xml:space="preserve" onload="init(evt)">
<style type="text/css"><![CDATA[
.node, .edge {opacity: 0.7;}
.node.selected, .edge.selected {opacity: 1;}
.edge:hover path { stroke: red; }
.edge:hover polygon { stroke: red; fill: red; }
]]></style>

<defs>
  <circle id="rim" cx="0" cy="0" r="7"/>
  <circle id="rim2" cx="0" cy="0" r="3.5"/>
  <g id="zoomPlus">
    <use xlink:href="#rim" fill="#404040"><set attributeName="fill" to="#808080" begin="zoomplus.mouseover" end="zoomplus.mouseout"/></use>
    <path d="M-4,0h8M0,-4v8" fill="none" stroke="white" stroke-width="1.5" pointer-events="none"/>
  </g>
  <g id="zoomMin">
    <use xlink:href="#rim" fill="#404040"><set attributeName="fill" to="#808080" begin="zoomminus.mouseover" end="zoomminus.mouseout"/></use>
    <path d="M-4,0h8" fill="none" stroke="white" stroke-width="1.5" pointer-events="none"/>
  </g>
  <g id="arrowUp" transform="translate(30 24)">
    <use xlink:href="#rim"/>
    <path pointer-events="none" fill="none" stroke="white" stroke-width="1.5" d="M0,-3.0v7 M-2.5,-0.5L0,-3.0L2.5,-0.5"/>
  </g>
  <g id="arrowRight" transform="rotate(90) translate(36 -43)">
    <use xlink:href="#rim"/>
    <path pointer-events="none" fill="none" stroke="white" stroke-width="1.5" d="M0,-3.0v7 M-2.5,-0.5L0,-3.0L2.5,-0.5"/>
  </g>
  <g id="arrowDown" transform="rotate(180) translate(-30 -48)">
    <use xlink:href="#rim"/>
    <path pointer-events="none" fill="none" stroke="white" stroke-width="1.5" d="M0,-3.0v7 M-2.5,-0.5L0,-3.0L2.5,-0.5"/>
  </g>
  <g id="arrowLeft" transform="rotate(270) translate(-36 17)">
    <use xlink:href="#rim"/>
    <path pointer-events="none" fill="none" stroke="white" stroke-width="1.5" d="M0,-3.0v7 M-2.5,-0.5L0,-3.0L2.5,-0.5"/>
  </g>
  <g id="resetDef">
    <use xlink:href="#rim2" fill="#404040"><set attributeName="fill" to="#808080" begin="reset.mouseover" end="reset.mouseout"/></use>
  </g>
</defs>
<script type="application/ecmascript">
var viewWidth = 987;
var viewHeight = 162;
var sectionId = 'dynsection-10';
</script>
<script type="application/ecmascript" xlink:href="../../svg.min.js"/>
<svg id="graph" class="graph">
<g id="viewport">
<title>carNew</title>
<!-- Node1 -->
<g id="Node000001" class="node">
<title>Node1</title>
<g id="a_Node000001"><a xlink:title="Allocates and returns car containing nothing.">
<polygon fill="#999999" stroke="#666666" points="979,-102.75 909,-102.75 909,-76 979,-76 979,-102.75"/>
<text text-anchor="middle" x="944" y="-83.55" font-family="Helvetica,sans-Serif" font-size="16.00">carNew</text>
</a>
</g>
</g>
<!-- Node2 -->
<g id="Node000002" class="node">
<title>Node2</title>
<g id="a_Node000002"><a xlink:href="../../dc/dc6/carsmenu_8c.html#a920be2aa6ca8626fdd965865d26f3fd4" target="_top" xlink:title="Function for adding a car.">
<polygon fill="white" stroke="#666666" points="501.25,-153.75 432.75,-153.75 432.75,-127 501.25,-127 501.25,-153.75"/>
<text text-anchor="middle" x="467" y="-134.55" font-family="Helvetica,sans-Serif" font-size="16.00">addCar</text>
</a>
</g>
</g>
<!-- Node1&#45;&gt;Node2 -->
<g id="edge1_Node000001_Node000002" class="edge">
<title>Node1&#45;&gt;Node2</title>
<g id="a_edge1_Node000001_Node000002"><a xlink:title=" ">
<path fill="none" stroke="#63b8ff" stroke-width="2" d="M896.3,-105.7C888.59,-107.92 880.63,-109.92 873,-111.38 737.1,-137.23 571.55,-140.49 501.68,-140.6"/>
<polygon fill="#63b8ff" stroke="#63b8ff" stroke-width="2" points="897.97,-108.24 906.51,-101.97 895.93,-101.54 897.97,-108.24"/>
</a>
</g>
</g>
<!-- Node10 -->
<g id="Node000010" class="node">
<title>Node10</title>
<g id="a_Node000010"><a xlink:href="../../d5/df2/car_8c.html#aad591876ff6e73edb792e10ad133e602" target="_top" xlink:title="Make a clone of Car. It allocates memory internally.">
<polygon fill="white" stroke="#666666" points="814.88,-102.75 734.38,-102.75 734.38,-76 814.88,-76 814.88,-102.75"/>
<text text-anchor="middle" x="774.62" y="-83.55" font-family="Helvetica,sans-Serif" font-size="16.00">carClone</text>
</a>
</g>
</g>
<!-- Node1&#45;&gt;Node10 -->
<g id="edge4_Node000001_Node000010" class="edge">
<title>Node1&#45;&gt;Node10</title>
<g id="a_edge4_Node000001_Node000010"><a xlink:title=" ">
<path fill="none" stroke="#63b8ff" stroke-width="2" d="M895.98,-89.38C870.5,-89.38 839.36,-89.38 815.14,-89.38"/>
<polygon fill="#63b8ff" stroke="#63b8ff" stroke-width="2" points="895.73,-92.88 905.73,-89.38 895.73,-85.88 895.73,-92.88"/>
</a>
</g>
</g>
<!-- Node16 -->
<g id="Node000016" class="node">
<title>Node16</title>
<g id="a_Node000016"><a xlink:href="../../d5/df2/car_8c.html#a2337951b2ae65cc121c20255a2179ad2" target="_top" xlink:title="CallBack function for dbHandleGetResultAsList. Transforms row into Car.">
<polygon fill="white" stroke="#666666" points="873,-37.75 676.25,-37.75 676.25,-11 873,-11 873,-37.75"/>
<text text-anchor="middle" x="774.62" y="-18.55" font-family="Helvetica,sans-Serif" font-size="16.00">carGetListQueryCallback</text>
</a>
</g>
</g>
<!-- Node1&#45;&gt;Node16 -->
<g id="edge10_Node000001_Node000016" class="edge">
<title>Node1&#45;&gt;Node16</title>
<g id="a_edge10_Node000001_Node000016"><a xlink:title=" ">
<path fill="none" stroke="#63b8ff" stroke-width="2" d="M896.84,-71.45C869.83,-60.96 836.26,-47.92 811.3,-38.23"/>
<polygon fill="#63b8ff" stroke="#63b8ff" stroke-width="2" points="896.14,-74.71 906.73,-75.06 898.67,-68.18 896.14,-74.71"/>
</a>
</g>
</g>
<!-- Node3 -->
<g id="Node000003" class="node">
<title>Node3</title>
<g id="a_Node000003"><a xlink:href="../../dc/dc6/carsmenu_8c.html#a7adcbb9b8798811ec24e33760623ebc0" target="_top" xlink:title="Handles displaying of cars menu.">
<polygon fill="white" stroke="#666666" points="281.75,-132.75 194.5,-132.75 194.5,-106 281.75,-106 281.75,-132.75"/>
<text text-anchor="middle" x="238.12" y="-113.55" font-family="Helvetica,sans-Serif" font-size="16.00">carsMenu</text>
</a>
</g>
</g>
<!-- Node2&#45;&gt;Node3 -->
<g id="edge2_Node000002_Node000003" class="edge">
<title>Node2&#45;&gt;Node3</title>
<g id="a_edge2_Node000002_Node000003"><a xlink:title=" ">
<path fill="none" stroke="#63b8ff" stroke-width="2" d="M419.84,-136.1C379.5,-132.37 321.4,-126.99 282.05,-123.35"/>
<polygon fill="#63b8ff" stroke="#63b8ff" stroke-width="2" points="419.24,-139.84 429.52,-137.28 419.89,-132.87 419.24,-139.84"/>
</a>
</g>
</g>
<!-- Node4 -->
<g id="Node000004" class="node">
<title>Node4</title>
<g id="a_Node000004"><a xlink:href="../../de/dc9/mmenu_8c.html#a315bc1f41a79da39147ec73e38cfc9e7" target="_top" xlink:title="Handles main menu.">
<polygon fill="#fff0f0" stroke="red" points="158.5,-132.75 0,-132.75 0,-106 158.5,-106 158.5,-132.75"/>
<text text-anchor="middle" x="79.25" y="-113.55" font-family="Helvetica,sans-Serif" font-size="16.00">mainMenuSelection</text>
</a>
</g>
</g>
<!-- Node3&#45;&gt;Node4 -->
<g id="edge3_Node000003_Node000004" class="edge">
<title>Node3&#45;&gt;Node4</title>
<g id="a_edge3_Node000003_Node000004"><a xlink:title=" ">
<path fill="none" stroke="#63b8ff" stroke-width="2" d="M181.47,-119.38C174.16,-119.38 166.56,-119.38 158.96,-119.38"/>
<polygon fill="#63b8ff" stroke="#63b8ff" stroke-width="2" points="181.26,-122.88 191.26,-119.38 181.26,-115.88 181.26,-122.88"/>
</a>
</g>
</g>
<!-- Node11 -->
<g id="Node000011" class="node">
<title>Node11</title>
<g id="a_Node000011"><a xlink:href="../../dc/dc6/carsmenu_8c.html#acf8ae724beca8714d7d114a7f2539895" target="_top" xlink:title="Edit car.">
<polygon fill="white" stroke="#666666" points="384,-112.75 317.75,-112.75 317.75,-86 384,-86 384,-112.75"/>
<text text-anchor="middle" x="350.88" y="-93.55" font-family="Helvetica,sans-Serif" font-size="16.00">carEdit</text>
</a>
</g>
</g>
<!-- Node10&#45;&gt;Node11 -->
<g id="edge5_Node000010_Node000011" class="edge">
<title>Node10&#45;&gt;Node11</title>
<g id="a_edge5_Node000010_Node000011"><a xlink:title=" ">
<path fill="none" stroke="#63b8ff" stroke-width="2" d="M721.06,-90.62C632.68,-92.72 456.92,-96.88 384.36,-98.6"/>
<polygon fill="#63b8ff" stroke="#63b8ff" stroke-width="2" points="721.03,-94.05 730.95,-90.32 720.87,-87.05 721.03,-94.05"/>
</a>
</g>
</g>
<!-- Node12 -->
<g id="Node000012" class="node">
<title>Node12</title>
<g id="a_Node000012"><a xlink:href="../../dc/dc6/carsmenu_8c.html#acf7941e462559f5f161ffcd804d4b8c9" target="_top" xlink:title="Extracts car from the given ListNode.">
<polygon fill="white" stroke="#666666" points="640.25,-71.75 550,-71.75 550,-45 640.25,-45 640.25,-71.75"/>
<text text-anchor="middle" x="595.12" y="-52.55" font-family="Helvetica,sans-Serif" font-size="16.00">extractCar</text>
</a>
</g>
</g>
<!-- Node10&#45;&gt;Node12 -->
<g id="edge7_Node000010_Node000012" class="edge">
<title>Node10&#45;&gt;Node12</title>
<g id="a_edge7_Node000010_Node000012"><a xlink:title=" ">
<path fill="none" stroke="#63b8ff" stroke-width="2" d="M721.7,-80.31C696.01,-75.82 665.33,-70.46 640.72,-66.16"/>
<polygon fill="#63b8ff" stroke="#63b8ff" stroke-width="2" points="721.78,-84.22 732.23,-82.5 722.98,-77.33 721.78,-84.22"/>
</a>
</g>
</g>
<!-- Node11&#45;&gt;Node3 -->
<g id="edge6_Node000011_Node000003" class="edge">
<title>Node11&#45;&gt;Node3</title>
<g id="a_edge6_Node000011_Node000003"><a xlink:title=" ">
<path fill="none" stroke="#63b8ff" stroke-width="2" d="M304.81,-107.51C297.28,-108.87 289.48,-110.28 282,-111.63"/>
<polygon fill="#63b8ff" stroke="#63b8ff" stroke-width="2" points="306.32,-110.44 315.54,-105.21 305.08,-103.55 306.32,-110.44"/>
</a>
</g>
</g>
<!-- Node13 -->
<g id="Node000013" class="node">
<title>Node13</title>
<g id="a_Node000013"><a xlink:href="../../dc/dc6/carsmenu_8c.html#ad451b82b7f3d31d1bb3fc4c210941579" target="_top" xlink:title="Invokes the listView of cars.">
<polygon fill="#fff0f0" stroke="red" points="514,-71.75 420,-71.75 420,-45 514,-45 514,-71.75"/>
<text text-anchor="middle" x="467" y="-52.55" font-family="Helvetica,sans-Serif" font-size="16.00">carChoose</text>
</a>
</g>
</g>
<!-- Node12&#45;&gt;Node13 -->
<g id="edge8_Node000012_Node000013" class="edge">
<title>Node12&#45;&gt;Node13</title>
<g id="a_edge8_Node000012_Node000013"><a xlink:title=" ">
<path fill="none" stroke="#63b8ff" stroke-width="2" d="M536.72,-58.38C529.18,-58.38 521.52,-58.38 514.2,-58.38"/>
<polygon fill="#63b8ff" stroke="#63b8ff" stroke-width="2" points="536.66,-61.88 546.66,-58.38 536.66,-54.88 536.66,-61.88"/>
</a>
</g>
</g>
<!-- Node13&#45;&gt;Node11 -->
<g id="edge9_Node000013_Node000011" class="edge">
<title>Node13&#45;&gt;Node11</title>
<g id="a_edge9_Node000013_Node000011"><a xlink:title=" ">
<path fill="none" stroke="#63b8ff" stroke-width="2" d="M415.45,-76.54C404.84,-80.35 393.92,-84.27 384.19,-87.77"/>
<polygon fill="#63b8ff" stroke="#63b8ff" stroke-width="2" points="417.45,-79.82 425.68,-73.14 415.09,-73.23 417.45,-79.82"/>
</a>
</g>
</g>
<!-- Node17 -->
<g id="Node000017" class="node">
<title>Node17</title>
<g id="a_Node000017"><a xlink:href="../../d5/df2/car_8c.html#ad946b04e98242aa73d41af8cd6963335" target="_top" xlink:title="Get list of cars.">
<polygon fill="white" stroke="#666666" points="640.25,-26.75 550,-26.75 550,0 640.25,0 640.25,-26.75"/>
<text text-anchor="middle" x="595.12" y="-7.55" font-family="Helvetica,sans-Serif" font-size="16.00">carGetList</text>
</a>
</g>
</g>
<!-- Node16&#45;&gt;Node17 -->
<g id="edge11_Node000016_Node000017" class="edge">
<title>Node16&#45;&gt;Node17</title>
<g id="a_edge11_Node000016_Node000017"><a xlink:title=" ">
<path fill="none" stroke="#63b8ff" stroke-width="2" d="M662.87,-17.51C655.03,-17.03 647.43,-16.55 640.35,-16.12"/>
<polygon fill="#63b8ff" stroke="#63b8ff" stroke-width="2" points="662.59,-21.19 672.79,-18.31 663.02,-14.2 662.59,-21.19"/>
</a>
</g>
</g>
<!-- Node17&#45;&gt;Node13 -->
<g id="edge12_Node000017_Node000013" class="edge">
<title>Node17&#45;&gt;Node13</title>
<g id="a_edge12_Node000017_Node000013"><a xlink:title=" ">
<path fill="none" stroke="#63b8ff" stroke-width="2" d="M543.28,-31.52C531.02,-35.89 518.12,-40.49 506.53,-44.63"/>
<polygon fill="#63b8ff" stroke="#63b8ff" stroke-width="2" points="545.01,-34.9 553.25,-28.24 542.66,-28.31 545.01,-34.9"/>
</a>
</g>
</g>
</g>
</svg>

<g id="navigator" transform="translate(0 0)" fill="#404254">
  <rect fill="#f2f5e9" fill-opacity="0.5" stroke="#606060" stroke-width=".5" x="0" y="0" width="60" height="60"/>
  <use id="zoomplus" xlink:href="#zoomPlus" x="17" y="9" onmousedown="handleZoom(evt,'in')"/>
  <use id="zoomminus" xlink:href="#zoomMin" x="42" y="9" onmousedown="handleZoom(evt,'out')"/>
  <use id="reset" xlink:href="#resetDef" x="30" y="36" onmousedown="handleReset()"/>
   <use id="arrowup" xlink:href="#arrowUp" x="0" y="0" onmousedown="handlePan(0,-1)"/>
  <use id="arrowright" xlink:href="#arrowRight" x="0" y="0" onmousedown="handlePan(1,0)"/>
  <use id="arrowdown" xlink:href="#arrowDown" x="0" y="0" onmousedown="handlePan(0,1)"/>
  <use id="arrowleft" xlink:href="#arrowLeft" x="0" y="0" onmousedown="handlePan(-1,0)"/>
</g>
<svg viewBox="0 0 15 15" width="100%" height="30px" preserveAspectRatio="xMaxYMin meet">
 <g id="arrow_out" transform="scale(0.3 0.3)">
  <a xlink:href="car_8c_a0d3175ea031713002ce87092fd6e258f_icgraph_org.svg" target="_base">
   <rect id="button" ry="5" rx="5" y="6" x="6" height="38" width="38"
        fill="#f2f5e9" fill-opacity="0.5" stroke="#606060" stroke-width="1.0"/>
   <path id="arrow"
     d="M 11.500037,31.436501 C 11.940474,20.09759 22.043105,11.32322 32.158766,21.979434 L 37.068811,17.246167 C 37.068811,17.246167 37.088388,32 37.088388,32 L 22.160133,31.978069 C 22.160133,31.978069 26.997745,27.140456 26.997745,27.140456 C 18.528582,18.264221 13.291696,25.230495 11.500037,31.436501 z"
     style="fill:#404040;"/>
  </a>
 </g>
</svg>

<style type='text/css'>
<![CDATA[
[data-mouse-over-selected='false'] { opacity: 0.7; }
[data-mouse-over-selected='true']  { opacity: 1.0; }
]]>
</style>
<script type="application/ecmascript"><![CDATA[
document.addEventListener('DOMContentLoaded', (event) => {
  highlightEdges();
  highlightAdjacentNodes();
});
]]></script>
</svg>
