<?xml version="1.0" encoding="UTF-8" standalone="no"?>
<!DOCTYPE svg PUBLIC "-//W3C//DTD SVG 1.1//EN"
 "http://www.w3.org/Graphics/SVG/1.1/DTD/svg11.dtd">
<!-- Generated by graphviz version 8.0.5 (0)
 -->
<!-- Title: carGetQueryOfSort Pages: 1 -->
<svg width="618pt" height="125pt"
 viewBox="0.00 0.00 618.00 124.75" xmlns="http://www.w3.org/2000/svg" xmlns:xlink="http://www.w3.org/1999/xlink">
<g id="graph0" class="graph" transform="scale(1 1) rotate(0) translate(4 120.75)">
<title>carGetQueryOfSort</title>
<!-- Node1 -->
<g id="Node000001" class="node">
<title>Node1</title>
<g id="a_Node000001"><a xlink:title="Generates SQL query.">
<polygon fill="#999999" stroke="#666666" points="610,-71.75 454.5,-71.75 454.5,-45 610,-45 610,-71.75"/>
<text text-anchor="middle" x="532.25" y="-52.55" font-family="Helvetica,sans-Serif" font-size="16.00">carGetQueryOfSort</text>
</a>
</g>
</g>
<!-- Node2 -->
<g id="Node000002" class="node">
<title>Node2</title>
<g id="a_Node000002"><a xlink:href="../../d5/df2/car_8c.html#ad946b04e98242aa73d41af8cd6963335" target="_top" xlink:title="Get list of cars.">
<polygon fill="white" stroke="#666666" points="418.5,-71.75 328.25,-71.75 328.25,-45 418.5,-45 418.5,-71.75"/>
<text text-anchor="middle" x="373.38" y="-52.55" font-family="Helvetica,sans-Serif" font-size="16.00">carGetList</text>
</a>
</g>
</g>
<!-- Node1&#45;&gt;Node2 -->
<g id="edge1_Node000001_Node000002" class="edge">
<title>Node1&#45;&gt;Node2</title>
<g id="a_edge1_Node000001_Node000002"><a xlink:title=" ">
<path fill="none" stroke="#63b8ff" stroke-width="2" d="M441.2,-58.38C433.53,-58.38 426.01,-58.38 418.95,-58.38"/>
<polygon fill="#63b8ff" stroke="#63b8ff" stroke-width="2" points="441.19,-61.88 451.19,-58.38 441.19,-54.88 441.19,-61.88"/>
</a>
</g>
</g>
<!-- Node3 -->
<g id="Node000003" class="node">
<title>Node3</title>
<g id="a_Node000003"><a xlink:href="../../dc/dc6/carsmenu_8c.html#ad451b82b7f3d31d1bb3fc4c210941579" target="_top" xlink:title="Invokes the listView of cars.">
<polygon fill="white" stroke="#666666" points="292.25,-71.75 198.25,-71.75 198.25,-45 292.25,-45 292.25,-71.75"/>
<text text-anchor="middle" x="245.25" y="-52.55" font-family="Helvetica,sans-Serif" font-size="16.00">carChoose</text>
</a>
</g>
</g>
<!-- Node2&#45;&gt;Node3 -->
<g id="edge2_Node000002_Node000003" class="edge">
<title>Node2&#45;&gt;Node3</title>
<g id="a_edge2_Node000002_Node000003"><a xlink:title=" ">
<path fill="none" stroke="#63b8ff" stroke-width="2" d="M314.97,-58.38C307.43,-58.38 299.77,-58.38 292.45,-58.38"/>
<polygon fill="#63b8ff" stroke="#63b8ff" stroke-width="2" points="314.91,-61.88 324.91,-58.38 314.91,-54.88 314.91,-61.88"/>
</a>
</g>
</g>
<!-- Node4 -->
<g id="Node000004" class="node">
<title>Node4</title>
<g id="a_Node000004"><a xlink:href="../../dc/dc6/carsmenu_8c.html#a04e2543edc445ed8a4cbd29b3466a07d" target="_top" xlink:title="Wrapper around carChoose frees extracted car instanntly.">
<polygon fill="#fff0f0" stroke="red" points="162.25,-116.75 0,-116.75 0,-90 162.25,-90 162.25,-116.75"/>
<text text-anchor="middle" x="81.12" y="-97.55" font-family="Helvetica,sans-Serif" font-size="16.00">carChooseNoReturn</text>
</a>
</g>
</g>
<!-- Node3&#45;&gt;Node4 -->
<g id="edge3_Node000003_Node000004" class="edge">
<title>Node3&#45;&gt;Node4</title>
<g id="a_edge3_Node000003_Node000004"><a xlink:title=" ">
<path fill="none" stroke="#63b8ff" stroke-width="2" d="M185.36,-74.72C167.86,-79.58 148.86,-84.85 131.99,-89.53"/>
<polygon fill="#63b8ff" stroke="#63b8ff" stroke-width="2" points="187.09,-77.32 195.79,-71.27 185.22,-70.57 187.09,-77.32"/>
</a>
</g>
</g>
<!-- Node12 -->
<g id="Node000012" class="node">
<title>Node12</title>
<g id="a_Node000012"><a xlink:href="../../dc/dc6/carsmenu_8c.html#acf8ae724beca8714d7d114a7f2539895" target="_top" xlink:title="Edit car.">
<polygon fill="#fff0f0" stroke="red" points="114.25,-71.75 48,-71.75 48,-45 114.25,-45 114.25,-71.75"/>
<text text-anchor="middle" x="81.12" y="-52.55" font-family="Helvetica,sans-Serif" font-size="16.00">carEdit</text>
</a>
</g>
</g>
<!-- Node3&#45;&gt;Node12 -->
<g id="edge4_Node000003_Node000012" class="edge">
<title>Node3&#45;&gt;Node12</title>
<g id="a_edge4_Node000003_Node000012"><a xlink:title=" ">
<path fill="none" stroke="#63b8ff" stroke-width="2" d="M184.94,-58.38C161.22,-58.38 134.81,-58.38 114.7,-58.38"/>
<polygon fill="#63b8ff" stroke="#63b8ff" stroke-width="2" points="184.79,-61.88 194.79,-58.38 184.79,-54.88 184.79,-61.88"/>
</a>
</g>
</g>
<!-- Node13 -->
<g id="Node000013" class="node">
<title>Node13</title>
<g id="a_Node000013"><a xlink:href="../../dc/dc6/carsmenu_8c.html#a76be213354bbaa3d64a095bafa1ec8d2" target="_top" xlink:title="Removes a car.">
<polygon fill="#fff0f0" stroke="red" points="130.38,-26.75 31.88,-26.75 31.88,0 130.38,0 130.38,-26.75"/>
<text text-anchor="middle" x="81.12" y="-7.55" font-family="Helvetica,sans-Serif" font-size="16.00">carRemove</text>
</a>
</g>
</g>
<!-- Node3&#45;&gt;Node13 -->
<g id="edge5_Node000003_Node000013" class="edge">
<title>Node3&#45;&gt;Node13</title>
<g id="a_edge5_Node000003_Node000013"><a xlink:title=" ">
<path fill="none" stroke="#63b8ff" stroke-width="2" d="M185.39,-42.04C167.48,-37.07 148.01,-31.66 130.85,-26.9"/>
<polygon fill="#63b8ff" stroke="#63b8ff" stroke-width="2" points="185.22,-46.18 195.79,-45.48 187.09,-39.43 185.22,-46.18"/>
</a>
</g>
</g>
</g>
</svg>
