<?xml version="1.0" encoding="UTF-8" standalone="no"?>
<!DOCTYPE svg PUBLIC "-//W3C//DTD SVG 1.1//EN"
 "http://www.w3.org/Graphics/SVG/1.1/DTD/svg11.dtd">
<!-- Generated by graphviz version 8.0.5 (0)
 -->
<!-- Title: List Pages: 1 -->
<svg width="213pt" height="222pt"
 viewBox="0.00 0.00 212.75 221.50" xmlns="http://www.w3.org/2000/svg" xmlns:xlink="http://www.w3.org/1999/xlink">
<g id="graph0" class="graph" transform="scale(1 1) rotate(0) translate(4 217.5)">
<title>List</title>
<!-- Node1 -->
<g id="Node000001" class="node">
<title>Node1</title>
<g id="a_Node000001"><a xlink:title="Stores pointers to first and last elements of double linked list.">
<polygon fill="#999999" stroke="none" points="107,-70 13,-70 13,0 107,0 107,-70"/>
<text text-anchor="start" x="47.25" y="-50.8" font-family="Helvetica,sans-Serif" font-size="16.00">List</text>
<text text-anchor="start" x="17" y="-28.8" font-family="Helvetica,sans-Serif" font-size="16.00">+</text>
<text text-anchor="start" x="30" y="-28.8" font-family="Helvetica,sans-Serif" font-size="16.00">int m_size</text>
<text text-anchor="start" x="57.75" y="-6.8" font-family="Helvetica,sans-Serif" font-size="16.00"> </text>
<polygon fill="#666666" stroke="#666666" points="13,-46 13,-46 107,-46 107,-46 13,-46"/>
<polygon fill="#666666" stroke="#666666" points="13,-24 13,-24 28,-24 28,-24 13,-24"/>
<polygon fill="#666666" stroke="#666666" points="28,-24 28,-24 107,-24 107,-24 28,-24"/>
<polygon fill="none" stroke="#666666" points="13,0 13,-70 107,-70 107,0 13,0"/>
</a>
</g>
</g>
<!-- Node2 -->
<g id="Node000002" class="node">
<title>Node2</title>
<g id="a_Node000002"><a xlink:href="../../da/d23/list_8h.html#dd/d2d/structListNode" target="_top" xlink:title="Doubly linked list node.">
<polygon fill="white" stroke="none" points="120,-213.5 0,-213.5 0,-143.5 120,-143.5 120,-213.5"/>
<text text-anchor="start" x="28.12" y="-194.3" font-family="Helvetica,sans-Serif" font-size="16.00">ListNode</text>
<text text-anchor="start" x="4" y="-172.3" font-family="Helvetica,sans-Serif" font-size="16.00">+</text>
<text text-anchor="start" x="17" y="-172.3" font-family="Helvetica,sans-Serif" font-size="16.00">void * m_data</text>
<text text-anchor="start" x="57.75" y="-150.3" font-family="Helvetica,sans-Serif" font-size="16.00"> </text>
<polygon fill="#666666" stroke="#666666" points="0,-189.5 0,-189.5 120,-189.5 120,-189.5 0,-189.5"/>
<polygon fill="#666666" stroke="#666666" points="0,-167.5 0,-167.5 15,-167.5 15,-167.5 0,-167.5"/>
<polygon fill="#666666" stroke="#666666" points="15,-167.5 15,-167.5 120,-167.5 120,-167.5 15,-167.5"/>
<polygon fill="none" stroke="#666666" points="0,-143.5 0,-213.5 120,-213.5 120,-143.5 0,-143.5"/>
</a>
</g>
</g>
<!-- Node2&#45;&gt;Node1 -->
<g id="edge1_Node000001_Node000002" class="edge">
<title>Node2&#45;&gt;Node1</title>
<g id="a_edge1_Node000001_Node000002"><a xlink:title=" ">
<path fill="none" stroke="#63b8ff" stroke-width="2" d="M60,-143.61C60,-125.67 60,-103.34 60,-83.68"/>
<polygon fill="none" stroke="#63b8ff" stroke-width="2" points="60,-83.42 56,-77.42 60,-71.42 64,-77.42 60,-83.42"/>
</a>
</g>
<text text-anchor="middle" x="95.25" y="-110.3" font-family="Helvetica,sans-Serif" font-size="16.00" fill="grey"> +m_back</text>
<text text-anchor="middle" x="95.25" y="-91.55" font-family="Helvetica,sans-Serif" font-size="16.00" fill="grey">+m_front</text>
</g>
<!-- Node2&#45;&gt;Node2 -->
<g id="edge2_Node000002_Node000002" class="edge">
<title>Node2&#45;&gt;Node2</title>
<g id="a_edge2_Node000002_Node000002"><a xlink:title=" ">
<path fill="none" stroke="#63b8ff" stroke-width="2" d="M119.85,-191.16C130.53,-189.52 138,-185.3 138,-178.5 138,-175.1 136.13,-172.35 132.93,-170.24"/>
<polygon fill="none" stroke="#63b8ff" stroke-width="2" points="132.93,-170.24 125.97,-172.11 121.55,-166.41 128.52,-164.53 132.93,-170.24"/>
</a>
</g>
<text text-anchor="middle" x="171.38" y="-182.05" font-family="Helvetica,sans-Serif" font-size="16.00" fill="grey"> +m_next</text>
<text text-anchor="middle" x="171.38" y="-163.3" font-family="Helvetica,sans-Serif" font-size="16.00" fill="grey">+m_prev</text>
</g>
</g>
</svg>
