<?xml version="1.0" encoding="UTF-8" standalone="no"?>
<!DOCTYPE svg PUBLIC "-//W3C//DTD SVG 1.1//EN"
 "http://www.w3.org/Graphics/SVG/1.1/DTD/svg11.dtd">
<!-- Generated by graphviz version 8.0.5 (0)
 -->
<!-- Title: menuutil.h Pages: 1 -->
<svg width="154pt" height="160pt"
 viewBox="0.00 0.00 153.88 160.25" xmlns="http://www.w3.org/2000/svg" xmlns:xlink="http://www.w3.org/1999/xlink">
<g id="graph0" class="graph" transform="scale(1 1) rotate(0) translate(4 156.25)">
<title>menuutil.h</title>
<!-- Node1 -->
<g id="Node000001" class="node">
<title>Node1</title>
<g id="a_Node000001"><a xlink:title="Header file for menu operations.">
<polygon fill="#999999" stroke="#666666" points="123.5,-152.25 32.5,-152.25 32.5,-125.5 123.5,-125.5 123.5,-152.25"/>
<text text-anchor="middle" x="78" y="-133.05" font-family="Helvetica,sans-Serif" font-size="16.00">menuutil.h</text>
</a>
</g>
</g>
<!-- Node2 -->
<g id="Node000002" class="node">
<title>Node2</title>
<g id="a_Node000002"><a xlink:href="../../da/d23/list_8h.html" target="_top" xlink:title="Doubly linked list interface.">
<polygon fill="white" stroke="#666666" points="65.88,-89.5 16.12,-89.5 16.12,-62.75 65.88,-62.75 65.88,-89.5"/>
<text text-anchor="middle" x="41" y="-70.3" font-family="Helvetica,sans-Serif" font-size="16.00">list.h</text>
</a>
</g>
</g>
<!-- Node1&#45;&gt;Node2 -->
<g id="edge1_Node000001_Node000002" class="edge">
<title>Node1&#45;&gt;Node2</title>
<g id="a_edge1_Node000001_Node000002"><a xlink:title=" ">
<path fill="none" stroke="#63b8ff" stroke-width="2" d="M70.33,-125.29C66.02,-118.2 60.49,-109.12 55.39,-100.76"/>
<polygon fill="#63b8ff" stroke="#63b8ff" stroke-width="2" points="57.85,-98.42 49.66,-91.7 51.87,-102.06 57.85,-98.42"/>
</a>
</g>
</g>
<!-- Node4 -->
<g id="Node000004" class="node">
<title>Node4</title>
<g id="a_Node000004"><a xlink:title=" ">
<polygon fill="#e0e0e0" stroke="#999999" points="145.88,-89.5 84.12,-89.5 84.12,-62.75 145.88,-62.75 145.88,-89.5"/>
<text text-anchor="middle" x="115" y="-70.3" font-family="Helvetica,sans-Serif" font-size="16.00">form.h</text>
</a>
</g>
</g>
<!-- Node1&#45;&gt;Node4 -->
<g id="edge3_Node000001_Node000004" class="edge">
<title>Node1&#45;&gt;Node4</title>
<g id="a_edge3_Node000001_Node000004"><a xlink:title=" ">
<path fill="none" stroke="#63b8ff" stroke-width="2" d="M85.67,-125.29C89.98,-118.2 95.51,-109.12 100.61,-100.76"/>
<polygon fill="#63b8ff" stroke="#63b8ff" stroke-width="2" points="104.13,-102.06 106.34,-91.7 98.15,-98.42 104.13,-102.06"/>
</a>
</g>
</g>
<!-- Node3 -->
<g id="Node000003" class="node">
<title>Node3</title>
<g id="a_Node000003"><a xlink:title=" ">
<polygon fill="#e0e0e0" stroke="#999999" points="82,-26.75 0,-26.75 0,0 82,0 82,-26.75"/>
<text text-anchor="middle" x="41" y="-7.55" font-family="Helvetica,sans-Serif" font-size="16.00">stdbool.h</text>
</a>
</g>
</g>
<!-- Node2&#45;&gt;Node3 -->
<g id="edge2_Node000002_Node000003" class="edge">
<title>Node2&#45;&gt;Node3</title>
<g id="a_edge2_Node000002_Node000003"><a xlink:title=" ">
<path fill="none" stroke="#63b8ff" stroke-width="2" d="M41,-62.54C41,-55.94 41,-47.61 41,-39.75"/>
<polygon fill="#63b8ff" stroke="#63b8ff" stroke-width="2" points="44.5,-39.95 41,-29.95 37.5,-39.95 44.5,-39.95"/>
</a>
</g>
</g>
</g>
</svg>
