<?xml version="1.0" encoding="UTF-8" standalone="no"?>
<!DOCTYPE svg PUBLIC "-//W3C//DTD SVG 1.1//EN"
 "http://www.w3.org/Graphics/SVG/1.1/DTD/svg11.dtd">
<!-- Generated by graphviz version 8.0.5 (0)
 -->
<!-- Title: menuutil.h Pages: 1 -->
<!--zoomable 98 -->

<svg id="main" version="1.1" xmlns="http://www.w3.org/2000/svg" xmlns:xlink="http://www.w3.org/1999/xlink" xml:space="preserve" onload="init(evt)">
<style type="text/css"><![CDATA[
.node, .edge {opacity: 0.7;}
.node.selected, .edge.selected {opacity: 1;}
.edge:hover path { stroke: red; }
.edge:hover polygon { stroke: red; fill: red; }
]]></style>

<defs>
  <circle id="rim" cx="0" cy="0" r="7"/>
  <circle id="rim2" cx="0" cy="0" r="3.5"/>
  <g id="zoomPlus">
    <use xlink:href="#rim" fill="#404040"><set attributeName="fill" to="#808080" begin="zoomplus.mouseover" end="zoomplus.mouseout"/></use>
    <path d="M-4,0h8M0,-4v8" fill="none" stroke="white" stroke-width="1.5" pointer-events="none"/>
  </g>
  <g id="zoomMin">
    <use xlink:href="#rim" fill="#404040"><set attributeName="fill" to="#808080" begin="zoomminus.mouseover" end="zoomminus.mouseout"/></use>
    <path d="M-4,0h8" fill="none" stroke="white" stroke-width="1.5" pointer-events="none"/>
  </g>
  <g id="arrowUp" transform="translate(30 24)">
    <use xlink:href="#rim"/>
    <path pointer-events="none" fill="none" stroke="white" stroke-width="1.5" d="M0,-3.0v7 M-2.5,-0.5L0,-3.0L2.5,-0.5"/>
  </g>
  <g id="arrowRight" transform="rotate(90) translate(36 -43)">
    <use xlink:href="#rim"/>
    <path pointer-events="none" fill="none" stroke="white" stroke-width="1.5" d="M0,-3.0v7 M-2.5,-0.5L0,-3.0L2.5,-0.5"/>
  </g>
  <g id="arrowDown" transform="rotate(180) translate(-30 -48)">
    <use xlink:href="#rim"/>
    <path pointer-events="none" fill="none" stroke="white" stroke-width="1.5" d="M0,-3.0v7 M-2.5,-0.5L0,-3.0L2.5,-0.5"/>
  </g>
  <g id="arrowLeft" transform="rotate(270) translate(-36 17)">
    <use xlink:href="#rim"/>
    <path pointer-events="none" fill="none" stroke="white" stroke-width="1.5" d="M0,-3.0v7 M-2.5,-0.5L0,-3.0L2.5,-0.5"/>
  </g>
  <g id="resetDef">
    <use xlink:href="#rim2" fill="#404040"><set attributeName="fill" to="#808080" begin="reset.mouseover" end="reset.mouseout"/></use>
  </g>
</defs>
<script type="application/ecmascript">
var viewWidth = 1212;
var viewHeight = 98;
var sectionId = 'dynsection-1';
</script>
<script type="application/ecmascript" xlink:href="../../svg.min.js"/>
<svg id="graph" class="graph">
<g id="viewport">
<title>menuutil.h</title>
<!-- Node1 -->
<g id="Node000001" class="node">
<title>Node1</title>
<g id="a_Node000001"><a xlink:title="Header file for menu operations.">
<polygon fill="#999999" stroke="#666666" points="596.75,-89.5 505.75,-89.5 505.75,-62.75 596.75,-62.75 596.75,-89.5"/>
<text text-anchor="middle" x="551.25" y="-70.3" font-family="Helvetica,sans-Serif" font-size="16.00">menuutil.h</text>
</a>
</g>
</g>
<!-- Node2 -->
<g id="Node000002" class="node">
<title>Node2</title>
<g id="a_Node000002"><a xlink:href="../../d5/df2/car_8c.html" target="_top" xlink:title="Implements function to operate on client.">
<polygon fill="white" stroke="#666666" points="50.5,-26.75 0,-26.75 0,0 50.5,0 50.5,-26.75"/>
<text text-anchor="middle" x="25.25" y="-7.55" font-family="Helvetica,sans-Serif" font-size="16.00">car.c</text>
</a>
</g>
</g>
<!-- Node1&#45;&gt;Node2 -->
<g id="edge1_Node000001_Node000002" class="edge">
<title>Node1&#45;&gt;Node2</title>
<g id="a_edge1_Node000001_Node000002"><a xlink:title=" ">
<path fill="none" stroke="#63b8ff" stroke-width="2" d="M492.78,-74.1C399.84,-71.42 213.16,-61.74 59.25,-26.75 56.43,-26.11 53.53,-25.3 50.66,-24.4"/>
<polygon fill="#63b8ff" stroke="#63b8ff" stroke-width="2" points="492.44,-77.67 502.53,-74.44 492.63,-70.68 492.44,-77.67"/>
</a>
</g>
</g>
<!-- Node3 -->
<g id="Node000003" class="node">
<title>Node3</title>
<g id="a_Node000003"><a xlink:href="../../dc/dc6/carsmenu_8c.html" target="_top" xlink:title="Cars menu implementation.">
<polygon fill="white" stroke="#666666" points="168.25,-26.75 68.25,-26.75 68.25,0 168.25,0 168.25,-26.75"/>
<text text-anchor="middle" x="118.25" y="-7.55" font-family="Helvetica,sans-Serif" font-size="16.00">carsmenu.c</text>
</a>
</g>
</g>
<!-- Node1&#45;&gt;Node3 -->
<g id="edge2_Node000001_Node000003" class="edge">
<title>Node1&#45;&gt;Node3</title>
<g id="a_edge2_Node000001_Node000003"><a xlink:title=" ">
<path fill="none" stroke="#63b8ff" stroke-width="2" d="M492.64,-68.98C418.83,-60.91 288.23,-45.54 177.25,-26.75 174.46,-26.28 171.61,-25.77 168.73,-25.23"/>
<polygon fill="#63b8ff" stroke="#63b8ff" stroke-width="2" points="491.99,-72.75 502.31,-70.35 492.74,-65.79 491.99,-72.75"/>
</a>
</g>
</g>
<!-- Node4 -->
<g id="Node000004" class="node">
<title>Node4</title>
<g id="a_Node000004"><a xlink:href="../../dd/d93/client_8c.html" target="_top" xlink:title="Implements function to operate on client.">
<polygon fill="white" stroke="#666666" points="253.75,-26.75 186.75,-26.75 186.75,0 253.75,0 253.75,-26.75"/>
<text text-anchor="middle" x="220.25" y="-7.55" font-family="Helvetica,sans-Serif" font-size="16.00">client.c</text>
</a>
</g>
</g>
<!-- Node1&#45;&gt;Node4 -->
<g id="edge3_Node000001_Node000004" class="edge">
<title>Node1&#45;&gt;Node4</title>
<g id="a_edge3_Node000001_Node000004"><a xlink:title=" ">
<path fill="none" stroke="#63b8ff" stroke-width="2" d="M492.66,-67.43C433.98,-59.24 341.29,-44.94 262.25,-26.75 259.58,-26.14 256.84,-25.45 254.08,-24.72"/>
<polygon fill="#63b8ff" stroke="#63b8ff" stroke-width="2" points="492.98,-71.29 503.37,-69.19 493.94,-64.35 492.98,-71.29"/>
</a>
</g>
</g>
<!-- Node5 -->
<g id="Node000005" class="node">
<title>Node5</title>
<g id="a_Node000005"><a xlink:href="../../da/de9/clientsmenu_8c.html" target="_top" xlink:title="Clients menu implementation.">
<polygon fill="white" stroke="#666666" points="387.12,-26.75 271.38,-26.75 271.38,0 387.12,0 387.12,-26.75"/>
<text text-anchor="middle" x="329.25" y="-7.55" font-family="Helvetica,sans-Serif" font-size="16.00">clientsmenu.c</text>
</a>
</g>
</g>
<!-- Node1&#45;&gt;Node5 -->
<g id="edge4_Node000001_Node000005" class="edge">
<title>Node1&#45;&gt;Node5</title>
<g id="a_edge4_Node000001_Node000005"><a xlink:title=" ">
<path fill="none" stroke="#63b8ff" stroke-width="2" d="M492.79,-59.13C456.31,-49.14 409.98,-36.47 375.95,-27.16"/>
<polygon fill="#63b8ff" stroke="#63b8ff" stroke-width="2" points="492.68,-63.27 503.25,-62.54 494.53,-56.52 492.68,-63.27"/>
</a>
</g>
</g>
<!-- Node6 -->
<g id="Node000006" class="node">
<title>Node6</title>
<g id="a_Node000006"><a xlink:href="../../d3/df4/dbhandle_8c.html" target="_top" xlink:title="Database handling.">
<polygon fill="white" stroke="#666666" points="501,-26.75 405.5,-26.75 405.5,0 501,0 501,-26.75"/>
<text text-anchor="middle" x="453.25" y="-7.55" font-family="Helvetica,sans-Serif" font-size="16.00">dbhandle.c</text>
</a>
</g>
</g>
<!-- Node1&#45;&gt;Node6 -->
<g id="edge5_Node000001_Node000006" class="edge">
<title>Node1&#45;&gt;Node6</title>
<g id="a_edge5_Node000001_Node000006"><a xlink:title=" ">
<path fill="none" stroke="#63b8ff" stroke-width="2" d="M520.03,-55.77C504.94,-46.42 487.25,-35.45 473.87,-27.16"/>
<polygon fill="#63b8ff" stroke="#63b8ff" stroke-width="2" points="518.6,-59.24 528.94,-61.54 522.29,-53.29 518.6,-59.24"/>
</a>
</g>
</g>
<!-- Node7 -->
<g id="Node000007" class="node">
<title>Node7</title>
<g id="a_Node000007"><a xlink:href="../../d0/d29/main_8c.html" target="_top" xlink:title="Main file.">
<polygon fill="white" stroke="#666666" points="583.25,-26.75 519.25,-26.75 519.25,0 583.25,0 583.25,-26.75"/>
<text text-anchor="middle" x="551.25" y="-7.55" font-family="Helvetica,sans-Serif" font-size="16.00">main.c</text>
</a>
</g>
</g>
<!-- Node1&#45;&gt;Node7 -->
<g id="edge6_Node000001_Node000007" class="edge">
<title>Node1&#45;&gt;Node7</title>
<g id="a_edge6_Node000001_Node000007"><a xlink:title=" ">
<path fill="none" stroke="#63b8ff" stroke-width="2" d="M551.25,-49.73C551.25,-41.87 551.25,-33.54 551.25,-26.95"/>
<polygon fill="#63b8ff" stroke="#63b8ff" stroke-width="2" points="547.75,-49.54 551.25,-59.54 554.75,-49.54 547.75,-49.54"/>
</a>
</g>
</g>
<!-- Node8 -->
<g id="Node000008" class="node">
<title>Node8</title>
<g id="a_Node000008"><a xlink:href="../../d7/dba/menuutil_8c.html" target="_top" xlink:title="Menu displaying utilities.">
<polygon fill="white" stroke="#666666" points="691.38,-26.75 601.12,-26.75 601.12,0 691.38,0 691.38,-26.75"/>
<text text-anchor="middle" x="646.25" y="-7.55" font-family="Helvetica,sans-Serif" font-size="16.00">menuutil.c</text>
</a>
</g>
</g>
<!-- Node1&#45;&gt;Node8 -->
<g id="edge7_Node000001_Node000008" class="edge">
<title>Node1&#45;&gt;Node8</title>
<g id="a_edge7_Node000001_Node000008"><a xlink:title=" ">
<path fill="none" stroke="#63b8ff" stroke-width="2" d="M581.52,-55.77C596.14,-46.42 613.29,-35.45 626.26,-27.16"/>
<polygon fill="#63b8ff" stroke="#63b8ff" stroke-width="2" points="579.47,-53.2 572.93,-61.54 583.24,-59.1 579.47,-53.2"/>
</a>
</g>
</g>
<!-- Node9 -->
<g id="Node000009" class="node">
<title>Node9</title>
<g id="a_Node000009"><a xlink:href="../../de/dc9/mmenu_8c.html" target="_top" xlink:title="Menu implementation.">
<polygon fill="white" stroke="#666666" points="792.62,-26.75 709.88,-26.75 709.88,0 792.62,0 792.62,-26.75"/>
<text text-anchor="middle" x="751.25" y="-7.55" font-family="Helvetica,sans-Serif" font-size="16.00">mmenu.c</text>
</a>
</g>
</g>
<!-- Node1&#45;&gt;Node9 -->
<g id="edge8_Node000001_Node000009" class="edge">
<title>Node1&#45;&gt;Node9</title>
<g id="a_edge8_Node000001_Node000009"><a xlink:title=" ">
<path fill="none" stroke="#63b8ff" stroke-width="2" d="M605.27,-58.72C638,-48.78 679.12,-36.28 709.38,-27.09"/>
<polygon fill="#63b8ff" stroke="#63b8ff" stroke-width="2" points="603.73,-56.13 595.18,-62.39 605.76,-62.83 603.73,-56.13"/>
</a>
</g>
</g>
<!-- Node10 -->
<g id="Node000010" class="node">
<title>Node10</title>
<g id="a_Node000010"><a xlink:href="../../d6/dc5/rentalsmenu_8c.html" target="_top" xlink:title="Rentals menu implementation.">
<polygon fill="white" stroke="#666666" points="928.25,-26.75 810.25,-26.75 810.25,0 928.25,0 928.25,-26.75"/>
<text text-anchor="middle" x="869.25" y="-7.55" font-family="Helvetica,sans-Serif" font-size="16.00">rentalsmenu.c</text>
</a>
</g>
</g>
<!-- Node1&#45;&gt;Node10 -->
<g id="edge9_Node000001_Node000010" class="edge">
<title>Node1&#45;&gt;Node10</title>
<g id="a_edge9_Node000001_Node000010"><a xlink:title=" ">
<path fill="none" stroke="#63b8ff" stroke-width="2" d="M609.89,-63.92C666.78,-53.06 752.65,-36.65 809.81,-25.73"/>
<polygon fill="#63b8ff" stroke="#63b8ff" stroke-width="2" points="608.32,-61.04 599.15,-66.36 609.63,-67.92 608.32,-61.04"/>
</a>
</g>
</g>
<!-- Node11 -->
<g id="Node000011" class="node">
<title>Node11</title>
<g id="a_Node000011"><a xlink:href="../../d2/da6/testDbHandle_8c_source.html" target="_top" xlink:title=" ">
<polygon fill="white" stroke="#666666" points="1072.38,-26.75 946.12,-26.75 946.12,0 1072.38,0 1072.38,-26.75"/>
<text text-anchor="middle" x="1009.25" y="-7.55" font-family="Helvetica,sans-Serif" font-size="16.00">testDbHandle.c</text>
</a>
</g>
</g>
<!-- Node1&#45;&gt;Node11 -->
<g id="edge10_Node000001_Node000011" class="edge">
<title>Node1&#45;&gt;Node11</title>
<g id="a_edge10_Node000001_Node000011"><a xlink:title=" ">
<path fill="none" stroke="#63b8ff" stroke-width="2" d="M609.61,-68.65C685.3,-60.06 821.37,-43.96 937.25,-26.75 940.01,-26.34 942.83,-25.91 945.67,-25.46"/>
<polygon fill="#63b8ff" stroke="#63b8ff" stroke-width="2" points="609.64,-65.46 600.09,-70.06 610.42,-72.42 609.64,-65.46"/>
</a>
</g>
</g>
<!-- Node12 -->
<g id="Node000012" class="node">
<title>Node12</title>
<g id="a_Node000012"><a xlink:href="../../db/daf/testListView_8c_source.html" target="_top" xlink:title=" ">
<polygon fill="white" stroke="#666666" points="1204.38,-26.75 1090.12,-26.75 1090.12,0 1204.38,0 1204.38,-26.75"/>
<text text-anchor="middle" x="1147.25" y="-7.55" font-family="Helvetica,sans-Serif" font-size="16.00">testListView.c</text>
</a>
</g>
</g>
<!-- Node1&#45;&gt;Node12 -->
<g id="edge11_Node000001_Node000012" class="edge">
<title>Node1&#45;&gt;Node12</title>
<g id="a_edge11_Node000001_Node000012"><a xlink:title=" ">
<path fill="none" stroke="#63b8ff" stroke-width="2" d="M609.98,-71.58C707.96,-65.26 910.86,-50.45 1081.25,-26.75 1084.02,-26.36 1086.85,-25.94 1089.71,-25.49"/>
<polygon fill="#63b8ff" stroke="#63b8ff" stroke-width="2" points="609.9,-68.27 600.14,-72.4 610.35,-75.26 609.9,-68.27"/>
</a>
</g>
</g>
</g>
</svg>

<g id="navigator" transform="translate(0 0)" fill="#404254">
  <rect fill="#f2f5e9" fill-opacity="0.5" stroke="#606060" stroke-width=".5" x="0" y="0" width="60" height="60"/>
  <use id="zoomplus" xlink:href="#zoomPlus" x="17" y="9" onmousedown="handleZoom(evt,'in')"/>
  <use id="zoomminus" xlink:href="#zoomMin" x="42" y="9" onmousedown="handleZoom(evt,'out')"/>
  <use id="reset" xlink:href="#resetDef" x="30" y="36" onmousedown="handleReset()"/>
   <use id="arrowup" xlink:href="#arrowUp" x="0" y="0" onmousedown="handlePan(0,-1)"/>
  <use id="arrowright" xlink:href="#arrowRight" x="0" y="0" onmousedown="handlePan(1,0)"/>
  <use id="arrowdown" xlink:href="#arrowDown" x="0" y="0" onmousedown="handlePan(0,1)"/>
  <use id="arrowleft" xlink:href="#arrowLeft" x="0" y="0" onmousedown="handlePan(-1,0)"/>
</g>
<svg viewBox="0 0 15 15" width="100%" height="30px" preserveAspectRatio="xMaxYMin meet">
 <g id="arrow_out" transform="scale(0.3 0.3)">
  <a xlink:href="menuutil_8h__dep__incl_org.svg" target="_base">
   <rect id="button" ry="5" rx="5" y="6" x="6" height="38" width="38"
        fill="#f2f5e9" fill-opacity="0.5" stroke="#606060" stroke-width="1.0"/>
   <path id="arrow"
     d="M 11.500037,31.436501 C 11.940474,20.09759 22.043105,11.32322 32.158766,21.979434 L 37.068811,17.246167 C 37.068811,17.246167 37.088388,32 37.088388,32 L 22.160133,31.978069 C 22.160133,31.978069 26.997745,27.140456 26.997745,27.140456 C 18.528582,18.264221 13.291696,25.230495 11.500037,31.436501 z"
     style="fill:#404040;"/>
  </a>
 </g>
</svg>

<style type='text/css'>
<![CDATA[
[data-mouse-over-selected='false'] { opacity: 0.7; }
[data-mouse-over-selected='true']  { opacity: 1.0; }
]]>
</style>
<script type="application/ecmascript"><![CDATA[
document.addEventListener('DOMContentLoaded', (event) => {
  highlightEdges();
  highlightAdjacentNodes();
});
]]></script>
</svg>
