<?xml version="1.0" encoding="UTF-8" standalone="no"?>
<!DOCTYPE svg PUBLIC "-//W3C//DTD SVG 1.1//EN"
 "http://www.w3.org/Graphics/SVG/1.1/DTD/svg11.dtd">
<!-- Generated by graphviz version 8.0.5 (0)
 -->
<!-- Title: dbhandle.h Pages: 1 -->
<svg width="160pt" height="223pt"
 viewBox="0.00 0.00 159.75 223.00" xmlns="http://www.w3.org/2000/svg" xmlns:xlink="http://www.w3.org/1999/xlink">

<svg id="main" version="1.1" xmlns="http://www.w3.org/2000/svg" xmlns:xlink="http://www.w3.org/1999/xlink" xml:space="preserve" onload="init(evt)">
<style type="text/css"><![CDATA[
.node, .edge {opacity: 0.7;}
.node.selected, .edge.selected {opacity: 1;}
.edge:hover path { stroke: red; }
.edge:hover polygon { stroke: red; fill: red; }
]]></style>
<script type="application/ecmascript" xlink:href="../../svg.min.js"/>
<svg id="graph" class="graph">
<g id="graph0" class="graph" transform="scale(1 1) rotate(0) translate(4 219)">
<title>dbhandle.h</title>
<!-- Node1 -->
<g id="Node000001" class="node">
<title>Node1</title>
<g id="a_Node000001"><a xlink:title="Database operations interface.">
<polygon fill="#999999" stroke="#666666" points="151.75,-215 55.5,-215 55.5,-188.25 151.75,-188.25 151.75,-215"/>
<text text-anchor="middle" x="103.62" y="-195.8" font-family="Helvetica,sans-Serif" font-size="16.00">dbhandle.h</text>
</a>
</g>
</g>
<!-- Node2 -->
<g id="Node000002" class="node">
<title>Node2</title>
<g id="a_Node000002"><a xlink:href="../../db/d42/car_8h.html" target="_top" xlink:title="Interface for Car structure.">
<polygon fill="white" stroke="#666666" points="51.25,-152.25 0,-152.25 0,-125.5 51.25,-125.5 51.25,-152.25"/>
<text text-anchor="middle" x="25.62" y="-133.05" font-family="Helvetica,sans-Serif" font-size="16.00">car.h</text>
</a>
</g>
</g>
<!-- Node1&#45;&gt;Node2 -->
<g id="edge1_Node000001_Node000002" class="edge">
<title>Node1&#45;&gt;Node2</title>
<g id="a_edge1_Node000001_Node000002"><a xlink:title=" ">
<path fill="none" stroke="#63b8ff" stroke-width="2" d="M87.46,-188.04C77.28,-180.11 63.9,-169.68 52.18,-160.56"/>
<polygon fill="#63b8ff" stroke="#63b8ff" stroke-width="2" points="54.07,-157.04 44.03,-153.66 49.77,-162.56 54.07,-157.04"/>
</a>
</g>
</g>
<!-- Node4 -->
<g id="Node000004" class="node">
<title>Node4</title>
<g id="a_Node000004"><a xlink:title=" ">
<polygon fill="#e0e0e0" stroke="#999999" points="141.62,-26.75 59.62,-26.75 59.62,0 141.62,0 141.62,-26.75"/>
<text text-anchor="middle" x="100.62" y="-7.55" font-family="Helvetica,sans-Serif" font-size="16.00">stdbool.h</text>
</a>
</g>
</g>
<!-- Node1&#45;&gt;Node4 -->
<g id="edge8_Node000001_Node000004" class="edge">
<title>Node1&#45;&gt;Node4</title>
<g id="a_edge8_Node000001_Node000004"><a xlink:title=" ">
<path fill="none" stroke="#63b8ff" stroke-width="2" d="M119.53,-188.12C129.4,-179.29 141.19,-166.53 146.62,-152.25 150.85,-141.14 148.78,-137.19 146.62,-125.5 140.82,-94.09 125.53,-60.54 114.16,-38.62"/>
<polygon fill="#63b8ff" stroke="#63b8ff" stroke-width="2" points="116.83,-36.32 109.02,-29.16 110.66,-39.63 116.83,-36.32"/>
</a>
</g>
</g>
<!-- Node5 -->
<g id="Node000005" class="node">
<title>Node5</title>
<g id="a_Node000005"><a xlink:href="../../d8/de1/client_8h.html" target="_top" xlink:title="Interface for Client structure.">
<polygon fill="white" stroke="#666666" points="137.5,-152.25 69.75,-152.25 69.75,-125.5 137.5,-125.5 137.5,-152.25"/>
<text text-anchor="middle" x="103.62" y="-133.05" font-family="Helvetica,sans-Serif" font-size="16.00">client.h</text>
</a>
</g>
</g>
<!-- Node1&#45;&gt;Node5 -->
<g id="edge5_Node000001_Node000005" class="edge">
<title>Node1&#45;&gt;Node5</title>
<g id="a_edge5_Node000001_Node000005"><a xlink:title=" ">
<path fill="none" stroke="#63b8ff" stroke-width="2" d="M103.62,-188.04C103.62,-181.44 103.62,-173.11 103.62,-165.25"/>
<polygon fill="#63b8ff" stroke="#63b8ff" stroke-width="2" points="107.13,-165.45 103.62,-155.45 100.13,-165.45 107.13,-165.45"/>
</a>
</g>
</g>
<!-- Node3 -->
<g id="Node000003" class="node">
<title>Node3</title>
<g id="a_Node000003"><a xlink:href="../../da/d23/list_8h.html" target="_top" xlink:title="Doubly linked list interface.">
<polygon fill="white" stroke="#666666" points="99.5,-89.5 49.75,-89.5 49.75,-62.75 99.5,-62.75 99.5,-89.5"/>
<text text-anchor="middle" x="74.62" y="-70.3" font-family="Helvetica,sans-Serif" font-size="16.00">list.h</text>
</a>
</g>
</g>
<!-- Node2&#45;&gt;Node3 -->
<g id="edge2_Node000002_Node000003" class="edge">
<title>Node2&#45;&gt;Node3</title>
<g id="a_edge2_Node000002_Node000003"><a xlink:title=" ">
<path fill="none" stroke="#63b8ff" stroke-width="2" d="M35.78,-125.29C41.76,-117.88 49.5,-108.28 56.49,-99.61"/>
<polygon fill="#63b8ff" stroke="#63b8ff" stroke-width="2" points="59.93,-101.68 63.49,-91.7 54.48,-97.28 59.93,-101.68"/>
</a>
</g>
</g>
<!-- Node2&#45;&gt;Node4 -->
<g id="edge4_Node000002_Node000004" class="edge">
<title>Node2&#45;&gt;Node4</title>
<g id="a_edge4_Node000002_Node000004"><a xlink:title=" ">
<path fill="none" stroke="#63b8ff" stroke-width="2" d="M25.58,-125.24C26.08,-109.5 28.77,-82.32 40.62,-62.75 47.31,-51.71 57.48,-42.12 67.56,-34.45"/>
<polygon fill="#63b8ff" stroke="#63b8ff" stroke-width="2" points="69.72,-36.8 75.88,-28.18 65.69,-31.08 69.72,-36.8"/>
</a>
</g>
</g>
<!-- Node3&#45;&gt;Node4 -->
<g id="edge3_Node000003_Node000004" class="edge">
<title>Node3&#45;&gt;Node4</title>
<g id="a_edge3_Node000003_Node000004"><a xlink:title=" ">
<path fill="none" stroke="#63b8ff" stroke-width="2" d="M80.01,-62.54C82.94,-55.7 86.66,-46.99 90.14,-38.87"/>
<polygon fill="#63b8ff" stroke="#63b8ff" stroke-width="2" points="93.53,-39.52 94.24,-28.95 87.09,-36.76 93.53,-39.52"/>
</a>
</g>
</g>
<!-- Node5&#45;&gt;Node3 -->
<g id="edge6_Node000005_Node000003" class="edge">
<title>Node5&#45;&gt;Node3</title>
<g id="a_edge6_Node000005_Node000003"><a xlink:title=" ">
<path fill="none" stroke="#63b8ff" stroke-width="2" d="M97.62,-125.29C94.31,-118.36 90.1,-109.54 86.18,-101.34"/>
<polygon fill="#63b8ff" stroke="#63b8ff" stroke-width="2" points="89.09,-99.21 81.63,-91.7 82.78,-102.23 89.09,-99.21"/>
</a>
</g>
</g>
<!-- Node5&#45;&gt;Node4 -->
<g id="edge7_Node000005_Node000004" class="edge">
<title>Node5&#45;&gt;Node4</title>
<g id="a_edge7_Node000005_Node000004"><a xlink:title=" ">
<path fill="none" stroke="#63b8ff" stroke-width="2" d="M105.63,-125.11C107.71,-110.15 110.42,-84.64 108.62,-62.75 108.01,-55.21 106.85,-47.07 105.61,-39.67"/>
<polygon fill="#63b8ff" stroke="#63b8ff" stroke-width="2" points="108.54,-38.24 103.3,-29.04 101.66,-39.5 108.54,-38.24"/>
</a>
</g>
</g>
</g>
</svg>
</svg>

<style type='text/css'>
<![CDATA[
[data-mouse-over-selected='false'] { opacity: 0.7; }
[data-mouse-over-selected='true']  { opacity: 1.0; }
]]>
</style>
<script type="application/ecmascript"><![CDATA[
document.addEventListener('DOMContentLoaded', (event) => {
  highlightEdges();
  highlightAdjacentNodes();
});
]]></script>
</svg>
