<?xml version="1.0" encoding="UTF-8" standalone="no"?>
<!DOCTYPE svg PUBLIC "-//W3C//DTD SVG 1.1//EN"
 "http://www.w3.org/Graphics/SVG/1.1/DTD/svg11.dtd">
<!-- Generated by graphviz version 8.0.5 (0)
 -->
<!-- Title: carsmenu.c Pages: 1 -->
<!--zoomable 286 -->

<svg id="main" version="1.1" xmlns="http://www.w3.org/2000/svg" xmlns:xlink="http://www.w3.org/1999/xlink" xml:space="preserve" onload="init(evt)">
<style type="text/css"><![CDATA[
.node, .edge {opacity: 0.7;}
.node.selected, .edge.selected {opacity: 1;}
.edge:hover path { stroke: red; }
.edge:hover polygon { stroke: red; fill: red; }
]]></style>

<defs>
  <circle id="rim" cx="0" cy="0" r="7"/>
  <circle id="rim2" cx="0" cy="0" r="3.5"/>
  <g id="zoomPlus">
    <use xlink:href="#rim" fill="#404040"><set attributeName="fill" to="#808080" begin="zoomplus.mouseover" end="zoomplus.mouseout"/></use>
    <path d="M-4,0h8M0,-4v8" fill="none" stroke="white" stroke-width="1.5" pointer-events="none"/>
  </g>
  <g id="zoomMin">
    <use xlink:href="#rim" fill="#404040"><set attributeName="fill" to="#808080" begin="zoomminus.mouseover" end="zoomminus.mouseout"/></use>
    <path d="M-4,0h8" fill="none" stroke="white" stroke-width="1.5" pointer-events="none"/>
  </g>
  <g id="arrowUp" transform="translate(30 24)">
    <use xlink:href="#rim"/>
    <path pointer-events="none" fill="none" stroke="white" stroke-width="1.5" d="M0,-3.0v7 M-2.5,-0.5L0,-3.0L2.5,-0.5"/>
  </g>
  <g id="arrowRight" transform="rotate(90) translate(36 -43)">
    <use xlink:href="#rim"/>
    <path pointer-events="none" fill="none" stroke="white" stroke-width="1.5" d="M0,-3.0v7 M-2.5,-0.5L0,-3.0L2.5,-0.5"/>
  </g>
  <g id="arrowDown" transform="rotate(180) translate(-30 -48)">
    <use xlink:href="#rim"/>
    <path pointer-events="none" fill="none" stroke="white" stroke-width="1.5" d="M0,-3.0v7 M-2.5,-0.5L0,-3.0L2.5,-0.5"/>
  </g>
  <g id="arrowLeft" transform="rotate(270) translate(-36 17)">
    <use xlink:href="#rim"/>
    <path pointer-events="none" fill="none" stroke="white" stroke-width="1.5" d="M0,-3.0v7 M-2.5,-0.5L0,-3.0L2.5,-0.5"/>
  </g>
  <g id="resetDef">
    <use xlink:href="#rim2" fill="#404040"><set attributeName="fill" to="#808080" begin="reset.mouseover" end="reset.mouseout"/></use>
  </g>
</defs>
<script type="application/ecmascript">
var viewWidth = 987;
var viewHeight = 286;
var sectionId = 'dynsection-0';
</script>
<script type="application/ecmascript" xlink:href="../../svg.min.js"/>
<svg id="graph" class="graph">
<g id="viewport">
<title>carsmenu.c</title>
<!-- Node1 -->
<g id="Node000001" class="node">
<title>Node1</title>
<g id="a_Node000001"><a xlink:title="Cars menu implementation.">
<polygon fill="#999999" stroke="#666666" points="511.12,-277.75 411.12,-277.75 411.12,-251 511.12,-251 511.12,-277.75"/>
<text text-anchor="middle" x="461.12" y="-258.55" font-family="Helvetica,sans-Serif" font-size="16.00">carsmenu.c</text>
</a>
</g>
</g>
<!-- Node2 -->
<g id="Node000002" class="node">
<title>Node2</title>
<g id="a_Node000002"><a xlink:href="../../d6/ddc/carsmenu_8h.html" target="_top" xlink:title="Cars menu interface.">
<polygon fill="white" stroke="#666666" points="215.5,-215 114.75,-215 114.75,-188.25 215.5,-188.25 215.5,-215"/>
<text text-anchor="middle" x="165.12" y="-195.8" font-family="Helvetica,sans-Serif" font-size="16.00">carsmenu.h</text>
</a>
</g>
</g>
<!-- Node1&#45;&gt;Node2 -->
<g id="edge1_Node000001_Node000002" class="edge">
<title>Node1&#45;&gt;Node2</title>
<g id="a_edge1_Node000001_Node000002"><a xlink:title=" ">
<path fill="none" stroke="#63b8ff" stroke-width="2" d="M410.91,-253.07C360.52,-242.73 282.76,-226.77 228.22,-215.58"/>
<polygon fill="#63b8ff" stroke="#63b8ff" stroke-width="2" points="228.08,-211.56 217.58,-212.98 226.68,-218.42 228.08,-211.56"/>
</a>
</g>
</g>
<!-- Node3 -->
<g id="Node000003" class="node">
<title>Node3</title>
<g id="a_Node000003"><a xlink:href="../../db/d42/car_8h.html" target="_top" xlink:title="Interface for Car structure.">
<polygon fill="white" stroke="#666666" points="213.75,-152.25 162.5,-152.25 162.5,-125.5 213.75,-125.5 213.75,-152.25"/>
<text text-anchor="middle" x="188.12" y="-133.05" font-family="Helvetica,sans-Serif" font-size="16.00">car.h</text>
</a>
</g>
</g>
<!-- Node1&#45;&gt;Node3 -->
<g id="edge6_Node000001_Node000003" class="edge">
<title>Node1&#45;&gt;Node3</title>
<g id="a_edge6_Node000001_Node000003"><a xlink:title=" ">
<path fill="none" stroke="#63b8ff" stroke-width="2" d="M410.72,-258.02C369.96,-252.04 312.15,-239.73 267.12,-215 242.95,-201.72 220.69,-179.21 206.01,-162.28"/>
<polygon fill="#63b8ff" stroke="#63b8ff" stroke-width="2" points="208,-160.02 198.89,-154.6 202.63,-164.51 208,-160.02"/>
</a>
</g>
</g>
<!-- Node4 -->
<g id="Node000004" class="node">
<title>Node4</title>
<g id="a_Node000004"><a xlink:href="../../da/d23/list_8h.html" target="_top" xlink:title="Doubly linked list interface.">
<polygon fill="white" stroke="#666666" points="226,-89.5 176.25,-89.5 176.25,-62.75 226,-62.75 226,-89.5"/>
<text text-anchor="middle" x="201.12" y="-70.3" font-family="Helvetica,sans-Serif" font-size="16.00">list.h</text>
</a>
</g>
</g>
<!-- Node1&#45;&gt;Node4 -->
<g id="edge13_Node000001_Node000004" class="edge">
<title>Node1&#45;&gt;Node4</title>
<g id="a_edge13_Node000001_Node000004"><a xlink:title=" ">
<path fill="none" stroke="#63b8ff" stroke-width="2" d="M410.93,-256.93C377.13,-250.63 332.91,-238.4 300.12,-215 258.39,-185.2 227.65,-132.21 212.24,-101.32"/>
<polygon fill="#63b8ff" stroke="#63b8ff" stroke-width="2" points="215.25,-99.42 207.75,-91.93 208.94,-102.46 215.25,-99.42"/>
</a>
</g>
</g>
<!-- Node6 -->
<g id="Node000006" class="node">
<title>Node6</title>
<g id="a_Node000006"><a xlink:href="../../db/d9d/dbhandle_8h.html" target="_top" xlink:title="Database operations interface.">
<polygon fill="white" stroke="#666666" points="96.25,-215 0,-215 0,-188.25 96.25,-188.25 96.25,-215"/>
<text text-anchor="middle" x="48.12" y="-195.8" font-family="Helvetica,sans-Serif" font-size="16.00">dbhandle.h</text>
</a>
</g>
</g>
<!-- Node1&#45;&gt;Node6 -->
<g id="edge7_Node000001_Node000006" class="edge">
<title>Node1&#45;&gt;Node6</title>
<g id="a_edge7_Node000001_Node000006"><a xlink:title=" ">
<path fill="none" stroke="#63b8ff" stroke-width="2" d="M410.68,-257.7C344.18,-249.97 223.26,-234.99 109.28,-215.44"/>
<polygon fill="#63b8ff" stroke="#63b8ff" stroke-width="2" points="108.94,-211.49 98.49,-213.23 107.75,-218.38 108.94,-211.49"/>
</a>
</g>
</g>
<!-- Node8 -->
<g id="Node000008" class="node">
<title>Node8</title>
<g id="a_Node000008"><a xlink:href="../../de/d0e/menuutil_8h.html" target="_top" xlink:title="Header file for menu operations.">
<polygon fill="white" stroke="#666666" points="400.62,-215 309.62,-215 309.62,-188.25 400.62,-188.25 400.62,-215"/>
<text text-anchor="middle" x="355.12" y="-195.8" font-family="Helvetica,sans-Serif" font-size="16.00">menuutil.h</text>
</a>
</g>
</g>
<!-- Node1&#45;&gt;Node8 -->
<g id="edge14_Node000001_Node000008" class="edge">
<title>Node1&#45;&gt;Node8</title>
<g id="a_edge14_Node000001_Node000008"><a xlink:title=" ">
<path fill="none" stroke="#63b8ff" stroke-width="2" d="M438.9,-250.64C424.2,-242.22 404.67,-231.02 388.17,-221.56"/>
<polygon fill="#63b8ff" stroke="#63b8ff" stroke-width="2" points="389.73,-218.28 379.32,-216.34 386.25,-224.35 389.73,-218.28"/>
</a>
</g>
</g>
<!-- Node9 -->
<g id="Node000009" class="node">
<title>Node9</title>
<g id="a_Node000009"><a xlink:title=" ">
<polygon fill="#e0e0e0" stroke="#999999" points="443,-152.25 381.25,-152.25 381.25,-125.5 443,-125.5 443,-152.25"/>
<text text-anchor="middle" x="412.12" y="-133.05" font-family="Helvetica,sans-Serif" font-size="16.00">form.h</text>
</a>
</g>
</g>
<!-- Node1&#45;&gt;Node9 -->
<g id="edge18_Node000001_Node000009" class="edge">
<title>Node1&#45;&gt;Node9</title>
<g id="a_edge18_Node000001_Node000009"><a xlink:title=" ">
<path fill="none" stroke="#63b8ff" stroke-width="2" d="M456.07,-250.62C448.03,-230.38 432.22,-190.52 421.92,-164.55"/>
<polygon fill="#63b8ff" stroke="#63b8ff" stroke-width="2" points="425.17,-162.75 418.23,-154.74 418.66,-165.33 425.17,-162.75"/>
</a>
</g>
</g>
<!-- Node10 -->
<g id="Node000010" class="node">
<title>Node10</title>
<g id="a_Node000010"><a xlink:title=" ">
<polygon fill="#e0e0e0" stroke="#999999" points="531,-215 457.25,-215 457.25,-188.25 531,-188.25 531,-215"/>
<text text-anchor="middle" x="494.12" y="-195.8" font-family="Helvetica,sans-Serif" font-size="16.00">assert.h</text>
</a>
</g>
</g>
<!-- Node1&#45;&gt;Node10 -->
<g id="edge17_Node000001_Node000010" class="edge">
<title>Node1&#45;&gt;Node10</title>
<g id="a_edge17_Node000001_Node000010"><a xlink:title=" ">
<path fill="none" stroke="#63b8ff" stroke-width="2" d="M467.96,-250.79C471.77,-243.78 476.63,-234.83 481.13,-226.55"/>
<polygon fill="#63b8ff" stroke="#63b8ff" stroke-width="2" points="484.6,-227.65 486.3,-217.2 478.45,-224.31 484.6,-227.65"/>
</a>
</g>
</g>
<!-- Node11 -->
<g id="Node000011" class="node">
<title>Node11</title>
<g id="a_Node000011"><a xlink:title=" ">
<polygon fill="#e0e0e0" stroke="#999999" points="635.38,-215 548.88,-215 548.88,-188.25 635.38,-188.25 635.38,-215"/>
<text text-anchor="middle" x="592.12" y="-195.8" font-family="Helvetica,sans-Serif" font-size="16.00">ncurses.h</text>
</a>
</g>
</g>
<!-- Node1&#45;&gt;Node11 -->
<g id="edge19_Node000001_Node000011" class="edge">
<title>Node1&#45;&gt;Node11</title>
<g id="a_edge19_Node000001_Node000011"><a xlink:title=" ">
<path fill="none" stroke="#63b8ff" stroke-width="2" d="M488.59,-250.64C507.28,-241.97 532.29,-230.37 553.05,-220.75"/>
<polygon fill="#63b8ff" stroke="#63b8ff" stroke-width="2" points="555.1,-223.73 562.7,-216.34 552.15,-217.38 555.1,-223.73"/>
</a>
</g>
</g>
<!-- Node12 -->
<g id="Node000012" class="node">
<title>Node12</title>
<g id="a_Node000012"><a xlink:title=" ">
<polygon fill="#e0e0e0" stroke="#999999" points="722.75,-215 653.5,-215 653.5,-188.25 722.75,-188.25 722.75,-215"/>
<text text-anchor="middle" x="688.12" y="-195.8" font-family="Helvetica,sans-Serif" font-size="16.00">panel.h</text>
</a>
</g>
</g>
<!-- Node1&#45;&gt;Node12 -->
<g id="edge20_Node000001_Node000012" class="edge">
<title>Node1&#45;&gt;Node12</title>
<g id="a_edge20_Node000001_Node000012"><a xlink:title=" ">
<path fill="none" stroke="#63b8ff" stroke-width="2" d="M510.5,-250.55C544.55,-241.65 591.17,-229.37 640.76,-215.89"/>
<polygon fill="#63b8ff" stroke="#63b8ff" stroke-width="2" points="642.35,-218.54 651.07,-212.54 640.51,-211.79 642.35,-218.54"/>
</a>
</g>
</g>
<!-- Node13 -->
<g id="Node000013" class="node">
<title>Node13</title>
<g id="a_Node000013"><a xlink:title=" ">
<polygon fill="#e0e0e0" stroke="#999999" points="805.12,-215 741.12,-215 741.12,-188.25 805.12,-188.25 805.12,-215"/>
<text text-anchor="middle" x="773.12" y="-195.8" font-family="Helvetica,sans-Serif" font-size="16.00">stdio.h</text>
</a>
</g>
</g>
<!-- Node1&#45;&gt;Node13 -->
<g id="edge21_Node000001_Node000013" class="edge">
<title>Node1&#45;&gt;Node13</title>
<g id="a_edge21_Node000001_Node000013"><a xlink:title=" ">
<path fill="none" stroke="#63b8ff" stroke-width="2" d="M511.43,-256.19C563.45,-248.37 647.21,-234.66 728.5,-215.68"/>
<polygon fill="#63b8ff" stroke="#63b8ff" stroke-width="2" points="730.07,-218.42 738.99,-212.71 728.45,-211.61 730.07,-218.42"/>
</a>
</g>
</g>
<!-- Node14 -->
<g id="Node000014" class="node">
<title>Node14</title>
<g id="a_Node000014"><a xlink:title=" ">
<polygon fill="#e0e0e0" stroke="#999999" points="891,-215 823.25,-215 823.25,-188.25 891,-188.25 891,-215"/>
<text text-anchor="middle" x="857.12" y="-195.8" font-family="Helvetica,sans-Serif" font-size="16.00">stdlib.h</text>
</a>
</g>
</g>
<!-- Node1&#45;&gt;Node14 -->
<g id="edge22_Node000001_Node000014" class="edge">
<title>Node1&#45;&gt;Node14</title>
<g id="a_edge22_Node000001_Node000014"><a xlink:title=" ">
<path fill="none" stroke="#63b8ff" stroke-width="2" d="M511.5,-258.78C577.86,-252.22 698.35,-238.57 810.41,-215.56"/>
<polygon fill="#63b8ff" stroke="#63b8ff" stroke-width="2" points="811.9,-218.41 820.97,-212.94 810.46,-211.56 811.9,-218.41"/>
</a>
</g>
</g>
<!-- Node15 -->
<g id="Node000015" class="node">
<title>Node15</title>
<g id="a_Node000015"><a xlink:title=" ">
<polygon fill="#e0e0e0" stroke="#999999" points="978.75,-215 909.5,-215 909.5,-188.25 978.75,-188.25 978.75,-215"/>
<text text-anchor="middle" x="944.12" y="-195.8" font-family="Helvetica,sans-Serif" font-size="16.00">string.h</text>
</a>
</g>
</g>
<!-- Node1&#45;&gt;Node15 -->
<g id="edge23_Node000001_Node000015" class="edge">
<title>Node1&#45;&gt;Node15</title>
<g id="a_edge23_Node000001_Node000015"><a xlink:title=" ">
<path fill="none" stroke="#63b8ff" stroke-width="2" d="M511.57,-260.52C591.3,-255.42 751.47,-242.8 896.54,-215.44"/>
<polygon fill="#63b8ff" stroke="#63b8ff" stroke-width="2" points="898.03,-218.34 907.19,-213.01 896.7,-211.46 898.03,-218.34"/>
</a>
</g>
</g>
<!-- Node2&#45;&gt;Node3 -->
<g id="edge2_Node000002_Node000003" class="edge">
<title>Node2&#45;&gt;Node3</title>
<g id="a_edge2_Node000002_Node000003"><a xlink:title=" ">
<path fill="none" stroke="#63b8ff" stroke-width="2" d="M169.89,-188.04C172.48,-181.2 175.78,-172.49 178.85,-164.37"/>
<polygon fill="#63b8ff" stroke="#63b8ff" stroke-width="2" points="182.1,-165.04 182.37,-154.45 175.55,-162.56 182.1,-165.04"/>
</a>
</g>
</g>
<!-- Node3&#45;&gt;Node4 -->
<g id="edge3_Node000003_Node000004" class="edge">
<title>Node3&#45;&gt;Node4</title>
<g id="a_edge3_Node000003_Node000004"><a xlink:title=" ">
<path fill="none" stroke="#63b8ff" stroke-width="2" d="M190.82,-125.29C192.25,-118.61 194.06,-110.16 195.76,-102.21"/>
<polygon fill="#63b8ff" stroke="#63b8ff" stroke-width="2" points="199.76,-102.21 198.43,-91.7 192.92,-100.74 199.76,-102.21"/>
</a>
</g>
</g>
<!-- Node5 -->
<g id="Node000005" class="node">
<title>Node5</title>
<g id="a_Node000005"><a xlink:title=" ">
<polygon fill="#e0e0e0" stroke="#999999" points="170.12,-26.75 88.12,-26.75 88.12,0 170.12,0 170.12,-26.75"/>
<text text-anchor="middle" x="129.12" y="-7.55" font-family="Helvetica,sans-Serif" font-size="16.00">stdbool.h</text>
</a>
</g>
</g>
<!-- Node3&#45;&gt;Node5 -->
<g id="edge5_Node000003_Node000005" class="edge">
<title>Node3&#45;&gt;Node5</title>
<g id="a_edge5_Node000003_Node000005"><a xlink:title=" ">
<path fill="none" stroke="#63b8ff" stroke-width="2" d="M182.03,-125.12C172.32,-104.79 153.15,-64.66 140.75,-38.7"/>
<polygon fill="#63b8ff" stroke="#63b8ff" stroke-width="2" points="143.74,-36.76 136.27,-29.24 137.42,-39.77 143.74,-36.76"/>
</a>
</g>
</g>
<!-- Node4&#45;&gt;Node5 -->
<g id="edge4_Node000004_Node000005" class="edge">
<title>Node4&#45;&gt;Node5</title>
<g id="a_edge4_Node000004_Node000005"><a xlink:title=" ">
<path fill="none" stroke="#63b8ff" stroke-width="2" d="M186.21,-62.54C176.84,-54.64 164.54,-44.26 153.75,-35.16"/>
<polygon fill="#63b8ff" stroke="#63b8ff" stroke-width="2" points="155.92,-31.72 146.02,-27.95 151.41,-37.07 155.92,-31.72"/>
</a>
</g>
</g>
<!-- Node6&#45;&gt;Node3 -->
<g id="edge8_Node000006_Node000003" class="edge">
<title>Node6&#45;&gt;Node3</title>
<g id="a_edge8_Node000006_Node000003"><a xlink:title=" ">
<path fill="none" stroke="#63b8ff" stroke-width="2" d="M77.47,-187.89C98.68,-178.69 127.5,-166.18 150.41,-156.24"/>
<polygon fill="#63b8ff" stroke="#63b8ff" stroke-width="2" points="152.33,-159.35 160.12,-152.16 149.55,-152.93 152.33,-159.35"/>
</a>
</g>
</g>
<!-- Node6&#45;&gt;Node5 -->
<g id="edge12_Node000006_Node000005" class="edge">
<title>Node6&#45;&gt;Node5</title>
<g id="a_edge12_Node000006_Node000005"><a xlink:title=" ">
<path fill="none" stroke="#63b8ff" stroke-width="2" d="M50.31,-187.81C53.14,-172.6 58.73,-146.63 67.12,-125.5 79.72,-93.8 99.68,-59.91 113.53,-38.01"/>
<polygon fill="#63b8ff" stroke="#63b8ff" stroke-width="2" points="117.05,-39.47 119.52,-29.16 111.16,-35.68 117.05,-39.47"/>
</a>
</g>
</g>
<!-- Node7 -->
<g id="Node000007" class="node">
<title>Node7</title>
<g id="a_Node000007"><a xlink:href="../../d8/de1/client_8h.html" target="_top" xlink:title="Interface for Client structure.">
<polygon fill="white" stroke="#666666" points="144,-152.25 76.25,-152.25 76.25,-125.5 144,-125.5 144,-152.25"/>
<text text-anchor="middle" x="110.12" y="-133.05" font-family="Helvetica,sans-Serif" font-size="16.00">client.h</text>
</a>
</g>
</g>
<!-- Node6&#45;&gt;Node7 -->
<g id="edge9_Node000006_Node000007" class="edge">
<title>Node6&#45;&gt;Node7</title>
<g id="a_edge9_Node000006_Node000007"><a xlink:title=" ">
<path fill="none" stroke="#63b8ff" stroke-width="2" d="M60.97,-188.04C68.79,-180.38 78.98,-170.4 88.05,-161.5"/>
<polygon fill="#63b8ff" stroke="#63b8ff" stroke-width="2" points="90.6,-163.94 95.3,-154.45 85.7,-158.95 90.6,-163.94"/>
</a>
</g>
</g>
<!-- Node7&#45;&gt;Node4 -->
<g id="edge10_Node000007_Node000004" class="edge">
<title>Node7&#45;&gt;Node4</title>
<g id="a_edge10_Node000007_Node000004"><a xlink:title=" ">
<path fill="none" stroke="#63b8ff" stroke-width="2" d="M128.98,-125.29C141.22,-117.12 157.44,-106.29 171.39,-96.97"/>
<polygon fill="#63b8ff" stroke="#63b8ff" stroke-width="2" points="173.61,-99.37 179.98,-90.91 169.72,-93.55 173.61,-99.37"/>
</a>
</g>
</g>
<!-- Node7&#45;&gt;Node5 -->
<g id="edge11_Node000007_Node000005" class="edge">
<title>Node7&#45;&gt;Node5</title>
<g id="a_edge11_Node000007_Node000005"><a xlink:title=" ">
<path fill="none" stroke="#63b8ff" stroke-width="2" d="M112.09,-125.12C115.17,-105.06 121.22,-65.75 125.22,-39.77"/>
<polygon fill="#63b8ff" stroke="#63b8ff" stroke-width="2" points="129.08,-39.66 127.15,-29.24 122.17,-38.59 129.08,-39.66"/>
</a>
</g>
</g>
<!-- Node8&#45;&gt;Node4 -->
<g id="edge15_Node000008_Node000004" class="edge">
<title>Node8&#45;&gt;Node4</title>
<g id="a_edge15_Node000008_Node000004"><a xlink:title=" ">
<path fill="none" stroke="#63b8ff" stroke-width="2" d="M347.34,-187.82C337.01,-171.67 317.47,-143.79 295.12,-125.5 278.08,-111.55 256.36,-100.04 238.09,-91.76"/>
<polygon fill="#63b8ff" stroke="#63b8ff" stroke-width="2" points="238.95,-88.45 228.38,-87.67 236.16,-94.87 238.95,-88.45"/>
</a>
</g>
</g>
<!-- Node8&#45;&gt;Node9 -->
<g id="edge16_Node000008_Node000009" class="edge">
<title>Node8&#45;&gt;Node9</title>
<g id="a_edge16_Node000008_Node000009"><a xlink:title=" ">
<path fill="none" stroke="#63b8ff" stroke-width="2" d="M366.94,-188.04C374.04,-180.46 383.29,-170.61 391.56,-161.79"/>
<polygon fill="#63b8ff" stroke="#63b8ff" stroke-width="2" points="394.04,-164.13 398.33,-154.45 388.93,-159.34 394.04,-164.13"/>
</a>
</g>
</g>
</g>
</svg>

<g id="navigator" transform="translate(0 0)" fill="#404254">
  <rect fill="#f2f5e9" fill-opacity="0.5" stroke="#606060" stroke-width=".5" x="0" y="0" width="60" height="60"/>
  <use id="zoomplus" xlink:href="#zoomPlus" x="17" y="9" onmousedown="handleZoom(evt,'in')"/>
  <use id="zoomminus" xlink:href="#zoomMin" x="42" y="9" onmousedown="handleZoom(evt,'out')"/>
  <use id="reset" xlink:href="#resetDef" x="30" y="36" onmousedown="handleReset()"/>
   <use id="arrowup" xlink:href="#arrowUp" x="0" y="0" onmousedown="handlePan(0,-1)"/>
  <use id="arrowright" xlink:href="#arrowRight" x="0" y="0" onmousedown="handlePan(1,0)"/>
  <use id="arrowdown" xlink:href="#arrowDown" x="0" y="0" onmousedown="handlePan(0,1)"/>
  <use id="arrowleft" xlink:href="#arrowLeft" x="0" y="0" onmousedown="handlePan(-1,0)"/>
</g>
<svg viewBox="0 0 15 15" width="100%" height="30px" preserveAspectRatio="xMaxYMin meet">
 <g id="arrow_out" transform="scale(0.3 0.3)">
  <a xlink:href="carsmenu_8c__incl_org.svg" target="_base">
   <rect id="button" ry="5" rx="5" y="6" x="6" height="38" width="38"
        fill="#f2f5e9" fill-opacity="0.5" stroke="#606060" stroke-width="1.0"/>
   <path id="arrow"
     d="M 11.500037,31.436501 C 11.940474,20.09759 22.043105,11.32322 32.158766,21.979434 L 37.068811,17.246167 C 37.068811,17.246167 37.088388,32 37.088388,32 L 22.160133,31.978069 C 22.160133,31.978069 26.997745,27.140456 26.997745,27.140456 C 18.528582,18.264221 13.291696,25.230495 11.500037,31.436501 z"
     style="fill:#404040;"/>
  </a>
 </g>
</svg>

<style type='text/css'>
<![CDATA[
[data-mouse-over-selected='false'] { opacity: 0.7; }
[data-mouse-over-selected='true']  { opacity: 1.0; }
]]>
</style>
<script type="application/ecmascript"><![CDATA[
document.addEventListener('DOMContentLoaded', (event) => {
  highlightEdges();
  highlightAdjacentNodes();
});
]]></script>
</svg>
