<?xml version="1.0" encoding="UTF-8" standalone="no"?>
<!DOCTYPE svg PUBLIC "-//W3C//DTD SVG 1.1//EN"
 "http://www.w3.org/Graphics/SVG/1.1/DTD/svg11.dtd">
<!-- Generated by graphviz version 8.0.5 (0)
 -->
<!-- Title: mainMenu Pages: 1 -->
<svg width="650pt" height="395pt"
 viewBox="0.00 0.00 649.50 394.75" xmlns="http://www.w3.org/2000/svg" xmlns:xlink="http://www.w3.org/1999/xlink">
<g id="graph0" class="graph" transform="scale(1 1) rotate(0) translate(4 390.75)">
<title>mainMenu</title>
<!-- Node1 -->
<g id="Node000001" class="node">
<title>Node1</title>
<g id="a_Node000001"><a xlink:title="Invokes menu.">
<polygon fill="#999999" stroke="#666666" points="91.75,-185.75 0,-185.75 0,-159 91.75,-159 91.75,-185.75"/>
<text text-anchor="middle" x="45.88" y="-166.55" font-family="Helvetica,sans-Serif" font-size="16.00">mainMenu</text>
</a>
</g>
</g>
<!-- Node2 -->
<g id="Node000002" class="node">
<title>Node2</title>
<g id="a_Node000002"><a xlink:href="../../de/dc9/mmenu_8c.html#a315bc1f41a79da39147ec73e38cfc9e7" target="_top" xlink:title="Handles main menu.">
<polygon fill="white" stroke="#666666" points="286.25,-206.75 127.75,-206.75 127.75,-180 286.25,-180 286.25,-206.75"/>
<text text-anchor="middle" x="207" y="-187.55" font-family="Helvetica,sans-Serif" font-size="16.00">mainMenuSelection</text>
</a>
</g>
</g>
<!-- Node1&#45;&gt;Node2 -->
<g id="edge1_Node000001_Node000002" class="edge">
<title>Node1&#45;&gt;Node2</title>
<g id="a_edge1_Node000001_Node000002"><a xlink:title=" ">
<path fill="none" stroke="#63b8ff" stroke-width="2" d="M92.05,-178.34C99.2,-179.28 106.81,-180.28 114.57,-181.31"/>
<polygon fill="#63b8ff" stroke="#63b8ff" stroke-width="2" points="113.91,-185.15 124.28,-182.99 114.83,-178.21 113.91,-185.15"/>
</a>
</g>
</g>
<!-- Node3 -->
<g id="Node000003" class="node">
<title>Node3</title>
<g id="a_Node000003"><a xlink:href="../../dc/dc6/carsmenu_8c.html#a7adcbb9b8798811ec24e33760623ebc0" target="_top" xlink:title="Handles displaying of cars menu.">
<polygon fill="white" stroke="#666666" points="418.5,-292.75 331.25,-292.75 331.25,-266 418.5,-266 418.5,-292.75"/>
<text text-anchor="middle" x="374.88" y="-273.55" font-family="Helvetica,sans-Serif" font-size="16.00">carsMenu</text>
</a>
</g>
</g>
<!-- Node2&#45;&gt;Node3 -->
<g id="edge2_Node000002_Node000003" class="edge">
<title>Node2&#45;&gt;Node3</title>
<g id="a_edge2_Node000002_Node000003"><a xlink:title=" ">
<path fill="none" stroke="#63b8ff" stroke-width="2" d="M234.65,-207.19C262.1,-221.42 305.12,-243.73 336.07,-259.78"/>
<polygon fill="#63b8ff" stroke="#63b8ff" stroke-width="2" points="334.8,-263.1 345.29,-264.59 338.02,-256.88 334.8,-263.1"/>
</a>
</g>
</g>
<!-- Node47 -->
<g id="Node000047" class="node">
<title>Node47</title>
<g id="a_Node000047"><a xlink:href="../../d7/dba/menuutil_8c.html#a949419e66b27ac75475821fb7aba527d" target="_top" xlink:title="Handle all operation and functions for menu.">
<polygon fill="#fff0f0" stroke="red" points="604.75,-206.75 500.25,-206.75 500.25,-180 604.75,-180 604.75,-206.75"/>
<text text-anchor="middle" x="552.5" y="-187.55" font-family="Helvetica,sans-Serif" font-size="16.00">menuInvoke</text>
</a>
</g>
</g>
<!-- Node2&#45;&gt;Node47 -->
<g id="edge15_Node000002_Node000047" class="edge">
<title>Node2&#45;&gt;Node47</title>
<g id="a_edge15_Node000002_Node000047"><a xlink:title=" ">
<path fill="none" stroke="#63b8ff" stroke-width="2" d="M268.46,-207.24C285.74,-210.6 304.66,-213.7 322.25,-215.38 368.82,-219.82 380.9,-219.48 427.5,-215.38 447.06,-213.65 468.16,-210.43 487.3,-206.98"/>
<polygon fill="#63b8ff" stroke="#63b8ff" stroke-width="2" points="488.7,-209.9 497.89,-204.62 487.41,-203.02 488.7,-209.9"/>
</a>
</g>
</g>
<!-- Node50 -->
<g id="Node000050" class="node">
<title>Node50</title>
<g id="a_Node000050"><a xlink:href="../../da/de9/clientsmenu_8c.html#ad2a8354e045a2d4deb82f4b3b20ad5a4" target="_top" xlink:title="Handles displaying of clients menu.">
<polygon fill="white" stroke="#666666" points="426.38,-120.75 323.38,-120.75 323.38,-94 426.38,-94 426.38,-120.75"/>
<text text-anchor="middle" x="374.88" y="-101.55" font-family="Helvetica,sans-Serif" font-size="16.00">clientsMenu</text>
</a>
</g>
</g>
<!-- Node2&#45;&gt;Node50 -->
<g id="edge9_Node000002_Node000050" class="edge">
<title>Node2&#45;&gt;Node50</title>
<g id="a_edge9_Node000002_Node000050"><a xlink:title=" ">
<path fill="none" stroke="#63b8ff" stroke-width="2" d="M234.65,-179.56C262.1,-165.33 305.12,-143.02 336.07,-126.97"/>
<polygon fill="#63b8ff" stroke="#63b8ff" stroke-width="2" points="338.02,-129.87 345.29,-122.16 334.8,-123.65 338.02,-129.87"/>
</a>
</g>
</g>
<!-- Node71 -->
<g id="Node000071" class="node">
<title>Node71</title>
<g id="a_Node000071"><a xlink:href="../../d6/dc5/rentalsmenu_8c.html#a4cad208e714dfe28ce655b7853a3d5fd" target="_top" xlink:title="Handles Rentals Menu.">
<polygon fill="white" stroke="#666666" points="427.5,-206.75 322.25,-206.75 322.25,-180 427.5,-180 427.5,-206.75"/>
<text text-anchor="middle" x="374.88" y="-187.55" font-family="Helvetica,sans-Serif" font-size="16.00">rentalsMenu</text>
</a>
</g>
</g>
<!-- Node2&#45;&gt;Node71 -->
<g id="edge16_Node000002_Node000071" class="edge">
<title>Node2&#45;&gt;Node71</title>
<g id="a_edge16_Node000002_Node000071"><a xlink:title=" ">
<path fill="none" stroke="#63b8ff" stroke-width="2" d="M286.57,-193.38C294.2,-193.38 301.88,-193.38 309.35,-193.38"/>
<polygon fill="#63b8ff" stroke="#63b8ff" stroke-width="2" points="309.09,-196.88 319.09,-193.38 309.09,-189.88 309.09,-196.88"/>
</a>
</g>
</g>
<!-- Node4 -->
<g id="Node000004" class="node">
<title>Node4</title>
<g id="a_Node000004"><a xlink:href="../../dc/dc6/carsmenu_8c.html#a920be2aa6ca8626fdd965865d26f3fd4" target="_top" xlink:title="Function for adding a car.">
<polygon fill="#fff0f0" stroke="red" points="586.75,-386.75 518.25,-386.75 518.25,-360 586.75,-360 586.75,-386.75"/>
<text text-anchor="middle" x="552.5" y="-367.55" font-family="Helvetica,sans-Serif" font-size="16.00">addCar</text>
</a>
</g>
</g>
<!-- Node3&#45;&gt;Node4 -->
<g id="edge3_Node000003_Node000004" class="edge">
<title>Node3&#45;&gt;Node4</title>
<g id="a_edge3_Node000003_Node000004"><a xlink:title=" ">
<path fill="none" stroke="#63b8ff" stroke-width="2" d="M389.13,-293.23C405.24,-309.28 433.97,-335.44 463.5,-350.38 476.55,-356.98 491.68,-361.81 505.68,-365.3"/>
<polygon fill="#63b8ff" stroke="#63b8ff" stroke-width="2" points="505.59,-369.32 516.12,-368.13 507.14,-362.5 505.59,-369.32"/>
</a>
</g>
</g>
<!-- Node20 -->
<g id="Node000020" class="node">
<title>Node20</title>
<g id="a_Node000020"><a xlink:href="../../dc/dc6/carsmenu_8c.html#a04e2543edc445ed8a4cbd29b3466a07d" target="_top" xlink:title="Wrapper around carChoose frees extracted car instanntly.">
<polygon fill="#fff0f0" stroke="red" points="633.62,-341.75 471.38,-341.75 471.38,-315 633.62,-315 633.62,-341.75"/>
<text text-anchor="middle" x="552.5" y="-322.55" font-family="Helvetica,sans-Serif" font-size="16.00">carChooseNoReturn</text>
</a>
</g>
</g>
<!-- Node3&#45;&gt;Node20 -->
<g id="edge4_Node000003_Node000020" class="edge">
<title>Node3&#45;&gt;Node20</title>
<g id="a_edge4_Node000003_Node000020"><a xlink:title=" ">
<path fill="none" stroke="#63b8ff" stroke-width="2" d="M418.58,-292.35C432.84,-296.6 448.83,-301.28 463.5,-305.38 470.43,-307.31 477.68,-309.28 484.92,-311.22"/>
<polygon fill="#63b8ff" stroke="#63b8ff" stroke-width="2" points="484.88,-315.36 495.44,-314.54 486.67,-308.6 484.88,-315.36"/>
</a>
</g>
</g>
<!-- Node43 -->
<g id="Node000043" class="node">
<title>Node43</title>
<g id="a_Node000043"><a xlink:href="../../dc/dc6/carsmenu_8c.html#acf8ae724beca8714d7d114a7f2539895" target="_top" xlink:title="Edit car.">
<polygon fill="#fff0f0" stroke="red" points="585.62,-296.75 519.38,-296.75 519.38,-270 585.62,-270 585.62,-296.75"/>
<text text-anchor="middle" x="552.5" y="-277.55" font-family="Helvetica,sans-Serif" font-size="16.00">carEdit</text>
</a>
</g>
</g>
<!-- Node3&#45;&gt;Node43 -->
<g id="edge5_Node000003_Node000043" class="edge">
<title>Node3&#45;&gt;Node43</title>
<g id="a_edge5_Node000003_Node000043"><a xlink:title=" ">
<path fill="none" stroke="#63b8ff" stroke-width="2" d="M418.84,-280.35C445.25,-280.96 479.05,-281.72 505.93,-282.34"/>
<polygon fill="#63b8ff" stroke="#63b8ff" stroke-width="2" points="505.81,-285.9 515.89,-282.63 505.97,-278.91 505.81,-285.9"/>
</a>
</g>
</g>
<!-- Node45 -->
<g id="Node000045" class="node">
<title>Node45</title>
<g id="a_Node000045"><a xlink:href="../../dc/dc6/carsmenu_8c.html#a76be213354bbaa3d64a095bafa1ec8d2" target="_top" xlink:title="Removes a car.">
<polygon fill="#fff0f0" stroke="red" points="601.75,-251.75 503.25,-251.75 503.25,-225 601.75,-225 601.75,-251.75"/>
<text text-anchor="middle" x="552.5" y="-232.55" font-family="Helvetica,sans-Serif" font-size="16.00">carRemove</text>
</a>
</g>
</g>
<!-- Node3&#45;&gt;Node45 -->
<g id="edge6_Node000003_Node000045" class="edge">
<title>Node3&#45;&gt;Node45</title>
<g id="a_edge6_Node000003_Node000045"><a xlink:title=" ">
<path fill="none" stroke="#63b8ff" stroke-width="2" d="M418.84,-269.35C440.36,-264.32 466.79,-258.15 490.38,-252.64"/>
<polygon fill="#63b8ff" stroke="#63b8ff" stroke-width="2" points="491.84,-255.43 500.78,-249.75 490.25,-248.61 491.84,-255.43"/>
</a>
</g>
</g>
<!-- Node3&#45;&gt;Node47 -->
<g id="edge7_Node000003_Node000047" class="edge">
<title>Node3&#45;&gt;Node47</title>
<g id="a_edge7_Node000003_Node000047"><a xlink:title=" ">
<path fill="none" stroke="#63b8ff" stroke-width="2" d="M400.9,-265.61C409.55,-260.53 419.16,-254.5 427.5,-248.38 444.75,-235.7 444.62,-226.47 463.5,-216.38 471.08,-212.32 479.41,-208.95 487.84,-206.16"/>
<polygon fill="#63b8ff" stroke="#63b8ff" stroke-width="2" points="489.59,-208.69 498.17,-202.47 487.58,-201.98 489.59,-208.69"/>
</a>
</g>
</g>
<!-- Node47&#45;&gt;Node1 -->
<g id="edge8_Node000047_Node000001" class="edge">
<title>Node47&#45;&gt;Node1</title>
<g id="a_edge8_Node000047_Node000001"><a xlink:title=" ">
<path fill="none" stroke="#63b8ff" stroke-width="2" d="M499.89,-182.13C477.72,-177.84 451.46,-173.48 427.5,-171.38 313.55,-161.34 179.67,-165.34 104.91,-168.97"/>
<polygon fill="#63b8ff" stroke="#63b8ff" stroke-width="2" points="104.91,-165.62 95.1,-169.62 105.27,-172.61 104.91,-165.62"/>
</a>
</g>
</g>
<!-- Node50&#45;&gt;Node47 -->
<g id="edge14_Node000050_Node000047" class="edge">
<title>Node50&#45;&gt;Node47</title>
<g id="a_edge14_Node000050_Node000047"><a xlink:title=" ">
<path fill="none" stroke="#63b8ff" stroke-width="2" d="M400.9,-121.14C409.55,-126.22 419.16,-132.25 427.5,-138.38 444.75,-151.05 444.62,-160.28 463.5,-170.38 471.08,-174.43 479.41,-177.8 487.84,-180.59"/>
<polygon fill="#63b8ff" stroke="#63b8ff" stroke-width="2" points="487.58,-184.77 498.17,-184.28 489.59,-178.06 487.58,-184.77"/>
</a>
</g>
</g>
<!-- Node51 -->
<g id="Node000051" class="node">
<title>Node51</title>
<g id="a_Node000051"><a xlink:href="../../da/de9/clientsmenu_8c.html#a37a5ed3b8a63a9497f34682ce7db3126" target="_top" xlink:title="function for adding client;">
<polygon fill="#fff0f0" stroke="red" points="594.62,-161.75 510.38,-161.75 510.38,-135 594.62,-135 594.62,-161.75"/>
<text text-anchor="middle" x="552.5" y="-142.55" font-family="Helvetica,sans-Serif" font-size="16.00">addClient</text>
</a>
</g>
</g>
<!-- Node50&#45;&gt;Node51 -->
<g id="edge10_Node000050_Node000051" class="edge">
<title>Node50&#45;&gt;Node51</title>
<g id="a_edge10_Node000050_Node000051"><a xlink:title=" ">
<path fill="none" stroke="#63b8ff" stroke-width="2" d="M426.67,-119.23C448.88,-124.42 474.95,-130.5 497.51,-135.77"/>
<polygon fill="#63b8ff" stroke="#63b8ff" stroke-width="2" points="497.44,-139.82 507.98,-138.68 499.04,-133 497.44,-139.82"/>
</a>
</g>
</g>
<!-- Node59 -->
<g id="Node000059" class="node">
<title>Node59</title>
<g id="a_Node000059"><a xlink:href="../../da/de9/clientsmenu_8c.html#a1aa5fbc029a7e320bf6f6c3a2e6e27cc" target="_top" xlink:title="Wrapper around clientChoose frees extracted client instanntly.">
<polygon fill="#fff0f0" stroke="red" points="641.5,-116.75 463.5,-116.75 463.5,-90 641.5,-90 641.5,-116.75"/>
<text text-anchor="middle" x="552.5" y="-97.55" font-family="Helvetica,sans-Serif" font-size="16.00">clientChooseNoReturn</text>
</a>
</g>
</g>
<!-- Node50&#45;&gt;Node59 -->
<g id="edge11_Node000050_Node000059" class="edge">
<title>Node50&#45;&gt;Node59</title>
<g id="a_edge11_Node000050_Node000059"><a xlink:title=" ">
<path fill="none" stroke="#63b8ff" stroke-width="2" d="M426.67,-106.22C434.19,-106.05 442.14,-105.87 450.25,-105.68"/>
<polygon fill="#63b8ff" stroke="#63b8ff" stroke-width="2" points="450.17,-109.12 460.09,-105.39 450.01,-102.12 450.17,-109.12"/>
</a>
</g>
</g>
<!-- Node67 -->
<g id="Node000067" class="node">
<title>Node67</title>
<g id="a_Node000067"><a xlink:href="../../da/de9/clientsmenu_8c.html#a3785053dd7fa7ee54cb52674dadf5941" target="_top" xlink:title="Edit client.">
<polygon fill="#fff0f0" stroke="red" points="593.5,-71.75 511.5,-71.75 511.5,-45 593.5,-45 593.5,-71.75"/>
<text text-anchor="middle" x="552.5" y="-52.55" font-family="Helvetica,sans-Serif" font-size="16.00">clientEdit</text>
</a>
</g>
</g>
<!-- Node50&#45;&gt;Node67 -->
<g id="edge12_Node000050_Node000067" class="edge">
<title>Node50&#45;&gt;Node67</title>
<g id="a_edge12_Node000050_Node000067"><a xlink:title=" ">
<path fill="none" stroke="#63b8ff" stroke-width="2" d="M421.27,-93.6C434.83,-89.57 449.74,-85.21 463.5,-81.38 474.89,-78.2 487.15,-74.91 498.8,-71.85"/>
<polygon fill="#63b8ff" stroke="#63b8ff" stroke-width="2" points="500.33,-74.54 509.12,-68.63 498.56,-67.77 500.33,-74.54"/>
</a>
</g>
</g>
<!-- Node69 -->
<g id="Node000069" class="node">
<title>Node69</title>
<g id="a_Node000069"><a xlink:href="../../da/de9/clientsmenu_8c.html#ae81aa78f6e32fdd87e554ba85c063111" target="_top" xlink:title="Remove client.">
<polygon fill="#fff0f0" stroke="red" points="609.62,-26.75 495.38,-26.75 495.38,0 609.62,0 609.62,-26.75"/>
<text text-anchor="middle" x="552.5" y="-7.55" font-family="Helvetica,sans-Serif" font-size="16.00">clientRemove</text>
</a>
</g>
</g>
<!-- Node50&#45;&gt;Node69 -->
<g id="edge13_Node000050_Node000069" class="edge">
<title>Node50&#45;&gt;Node69</title>
<g id="a_edge13_Node000050_Node000069"><a xlink:title=" ">
<path fill="none" stroke="#63b8ff" stroke-width="2" d="M389.13,-93.52C405.24,-77.47 433.97,-51.31 463.5,-36.38 469.66,-33.26 476.29,-30.53 483.05,-28.16"/>
<polygon fill="#63b8ff" stroke="#63b8ff" stroke-width="2" points="484.8,-30.63 493.26,-24.25 482.67,-23.96 484.8,-30.63"/>
</a>
</g>
</g>
<!-- Node71&#45;&gt;Node47 -->
<g id="edge17_Node000071_Node000047" class="edge">
<title>Node71&#45;&gt;Node47</title>
<g id="a_edge17_Node000071_Node000047"><a xlink:title=" ">
<path fill="none" stroke="#63b8ff" stroke-width="2" d="M427.62,-193.38C446.2,-193.38 467.4,-193.38 486.94,-193.38"/>
<polygon fill="#63b8ff" stroke="#63b8ff" stroke-width="2" points="486.82,-196.88 496.82,-193.38 486.82,-189.88 486.82,-196.88"/>
</a>
</g>
</g>
</g>
</svg>
