<?xml version="1.0" encoding="UTF-8" standalone="no"?>
<!DOCTYPE svg PUBLIC "-//W3C//DTD SVG 1.1//EN"
 "http://www.w3.org/Graphics/SVG/1.1/DTD/svg11.dtd">
<!-- Generated by graphviz version 8.0.5 (0)
 -->
<!-- Title: printWindowBoarders Pages: 1 -->
<svg width="773pt" height="633pt"
 viewBox="0.00 0.00 773.25 632.75" xmlns="http://www.w3.org/2000/svg" xmlns:xlink="http://www.w3.org/1999/xlink">
<g id="graph0" class="graph" transform="scale(1 1) rotate(0) translate(4 628.75)">
<title>printWindowBoarders</title>
<!-- Node1 -->
<g id="Node000001" class="node">
<title>Node1</title>
<g id="a_Node000001"><a xlink:title="Print boarders of window.">
<polygon fill="#999999" stroke="#666666" points="765.25,-216.75 595.5,-216.75 595.5,-190 765.25,-190 765.25,-216.75"/>
<text text-anchor="middle" x="680.38" y="-197.55" font-family="Helvetica,sans-Serif" font-size="16.00">printWindowBoarders</text>
</a>
</g>
</g>
<!-- Node2 -->
<g id="Node000002" class="node">
<title>Node2</title>
<g id="a_Node000002"><a xlink:href="../../d7/dba/menuutil_8c.html#af8f262005a4975cc6ccc3423d939f910" target="_top" xlink:title="Put form on screen in nice looking form.">
<polygon fill="white" stroke="#666666" points="521.62,-579.75 425.38,-579.75 425.38,-553 521.62,-553 521.62,-579.75"/>
<text text-anchor="middle" x="473.5" y="-560.55" font-family="Helvetica,sans-Serif" font-size="16.00">formInvoke</text>
</a>
</g>
</g>
<!-- Node1&#45;&gt;Node2 -->
<g id="edge1_Node000001_Node000002" class="edge">
<title>Node1&#45;&gt;Node2</title>
<g id="a_edge1_Node000001_Node000002"><a xlink:title=" ">
<path fill="none" stroke="#63b8ff" stroke-width="2" d="M665.23,-228.44C625.35,-299.1 512.92,-498.31 482.29,-552.57"/>
<polygon fill="#63b8ff" stroke="#63b8ff" stroke-width="2" points="668.73,-229.59 670.59,-219.16 662.63,-226.15 668.73,-229.59"/>
</a>
</g>
</g>
<!-- Node16 -->
<g id="Node000016" class="node">
<title>Node16</title>
<g id="a_Node000016"><a xlink:href="../../d7/dba/menuutil_8c.html#aca301edf9d04aa391571851b148355ba" target="_top" xlink:title="List Viewer for lists.">
<polygon fill="white" stroke="#666666" points="532.88,-151.75 414.12,-151.75 414.12,-125 532.88,-125 532.88,-151.75"/>
<text text-anchor="middle" x="473.5" y="-132.55" font-family="Helvetica,sans-Serif" font-size="16.00">listViewInvoke</text>
</a>
</g>
</g>
<!-- Node1&#45;&gt;Node16 -->
<g id="edge6_Node000001_Node000016" class="edge">
<title>Node1&#45;&gt;Node16</title>
<g id="a_edge6_Node000001_Node000016"><a xlink:title=" ">
<path fill="none" stroke="#63b8ff" stroke-width="2" d="M623.41,-185.62C590.26,-175.1 548.86,-161.97 518.13,-152.22"/>
<polygon fill="#63b8ff" stroke="#63b8ff" stroke-width="2" points="623.09,-189.82 633.68,-189.51 625.2,-183.15 623.09,-189.82"/>
</a>
</g>
</g>
<!-- Node9 -->
<g id="Node000009" class="node">
<title>Node9</title>
<g id="a_Node000009"><a xlink:href="../../d7/dba/menuutil_8c.html#a949419e66b27ac75475821fb7aba527d" target="_top" xlink:title="Handle all operation and functions for menu.">
<polygon fill="#fff0f0" stroke="red" points="525.75,-106.75 421.25,-106.75 421.25,-80 525.75,-80 525.75,-106.75"/>
<text text-anchor="middle" x="473.5" y="-87.55" font-family="Helvetica,sans-Serif" font-size="16.00">menuInvoke</text>
</a>
</g>
</g>
<!-- Node1&#45;&gt;Node9 -->
<g id="edge11_Node000001_Node000009" class="edge">
<title>Node1&#45;&gt;Node9</title>
<g id="a_edge11_Node000001_Node000009"><a xlink:title=" ">
<path fill="none" stroke="#63b8ff" stroke-width="2" d="M654.63,-181.22C631.52,-161.6 595.31,-133.5 559.5,-116.38 549.02,-111.36 537.27,-107.3 525.93,-104.06"/>
<polygon fill="#63b8ff" stroke="#63b8ff" stroke-width="2" points="652.42,-184.67 662.27,-188.57 657,-179.38 652.42,-184.67"/>
</a>
</g>
</g>
<!-- Node23 -->
<g id="Node000023" class="node">
<title>Node23</title>
<g id="a_Node000023"><a xlink:href="../../d7/dba/menuutil_8c.html#ae6ed898f3726361b1edde3f8707f0260" target="_top" xlink:title="Displays message box on the screen with title and message.">
<polygon fill="#fff0f0" stroke="red" points="559.5,-259.75 387.5,-259.75 387.5,-233 559.5,-233 559.5,-259.75"/>
<text text-anchor="middle" x="473.5" y="-240.55" font-family="Helvetica,sans-Serif" font-size="16.00">menuUtilMessagebox</text>
</a>
</g>
</g>
<!-- Node1&#45;&gt;Node23 -->
<g id="edge12_Node000001_Node000023" class="edge">
<title>Node1&#45;&gt;Node23</title>
<g id="a_edge12_Node000001_Node000023"><a xlink:title=" ">
<path fill="none" stroke="#63b8ff" stroke-width="2" d="M600.85,-219.86C580.87,-224.05 559.6,-228.51 540.33,-232.56"/>
<polygon fill="#63b8ff" stroke="#63b8ff" stroke-width="2" points="602.36,-222.7 611.42,-217.22 600.92,-215.85 602.36,-222.7"/>
</a>
</g>
</g>
<!-- Node3 -->
<g id="Node000003" class="node">
<title>Node3</title>
<g id="a_Node000003"><a xlink:href="../../dc/dc6/carsmenu_8c.html#a30a34923bcd0082000de90700343bd84" target="_top" xlink:title="Function for editing car.">
<polygon fill="#fff0f0" stroke="red" points="302.75,-624.75 199,-624.75 199,-598 302.75,-598 302.75,-624.75"/>
<text text-anchor="middle" x="250.88" y="-605.55" font-family="Helvetica,sans-Serif" font-size="16.00">carFormEdit</text>
</a>
</g>
</g>
<!-- Node2&#45;&gt;Node3 -->
<g id="edge2_Node000002_Node000003" class="edge">
<title>Node2&#45;&gt;Node3</title>
<g id="a_edge2_Node000002_Node000003"><a xlink:title=" ">
<path fill="none" stroke="#63b8ff" stroke-width="2" d="M412.24,-578.67C378.09,-585.63 335.81,-594.26 303.24,-600.9"/>
<polygon fill="#63b8ff" stroke="#63b8ff" stroke-width="2" points="413.8,-581.51 422.9,-576.08 412.4,-574.65 413.8,-581.51"/>
</a>
</g>
</g>
<!-- Node13 -->
<g id="Node000013" class="node">
<title>Node13</title>
<g id="a_Node000013"><a xlink:href="../../da/de9/clientsmenu_8c.html#a6edce5784156f2643efd7ccc086716e3" target="_top" xlink:title="Function for editing client.">
<polygon fill="#fff0f0" stroke="red" points="310.62,-579.75 191.12,-579.75 191.12,-553 310.62,-553 310.62,-579.75"/>
<text text-anchor="middle" x="250.88" y="-560.55" font-family="Helvetica,sans-Serif" font-size="16.00">clientFormEdit</text>
</a>
</g>
</g>
<!-- Node2&#45;&gt;Node13 -->
<g id="edge4_Node000002_Node000013" class="edge">
<title>Node2&#45;&gt;Node13</title>
<g id="a_edge4_Node000002_Node000013"><a xlink:title=" ">
<path fill="none" stroke="#63b8ff" stroke-width="2" d="M412.28,-566.38C380.7,-566.38 342.18,-566.38 310.79,-566.38"/>
<polygon fill="#63b8ff" stroke="#63b8ff" stroke-width="2" points="411.9,-569.88 421.9,-566.38 411.9,-562.88 411.9,-569.88"/>
</a>
</g>
</g>
<!-- Node4 -->
<g id="Node000004" class="node">
<title>Node4</title>
<g id="a_Node000004"><a xlink:href="../../dc/dc6/carsmenu_8c.html#a920be2aa6ca8626fdd965865d26f3fd4" target="_top" xlink:title="Function for adding a car.">
<polygon fill="#fff0f0" stroke="red" points="91.38,-538.75 22.88,-538.75 22.88,-512 91.38,-512 91.38,-538.75"/>
<text text-anchor="middle" x="57.12" y="-519.55" font-family="Helvetica,sans-Serif" font-size="16.00">addCar</text>
</a>
</g>
</g>
<!-- Node3&#45;&gt;Node4 -->
<g id="edge3_Node000003_Node000004" class="edge">
<title>Node3&#45;&gt;Node4</title>
<g id="a_edge3_Node000003_Node000004"><a xlink:title=" ">
<path fill="none" stroke="#63b8ff" stroke-width="2" d="M186.03,-600.37C173.88,-597.24 161.47,-593.3 150.25,-588.38 121.15,-575.61 91.53,-553.35 73.99,-538.99"/>
<polygon fill="#63b8ff" stroke="#63b8ff" stroke-width="2" points="185.99,-604.43 196.53,-603.34 187.61,-597.62 185.99,-604.43"/>
</a>
</g>
</g>
<!-- Node14 -->
<g id="Node000014" class="node">
<title>Node14</title>
<g id="a_Node000014"><a xlink:href="../../da/de9/clientsmenu_8c.html#a37a5ed3b8a63a9497f34682ce7db3126" target="_top" xlink:title="function for adding client;">
<polygon fill="#fff0f0" stroke="red" points="99.25,-407.75 15,-407.75 15,-381 99.25,-381 99.25,-407.75"/>
<text text-anchor="middle" x="57.12" y="-388.55" font-family="Helvetica,sans-Serif" font-size="16.00">addClient</text>
</a>
</g>
</g>
<!-- Node13&#45;&gt;Node14 -->
<g id="edge5_Node000013_Node000014" class="edge">
<title>Node13&#45;&gt;Node14</title>
<g id="a_edge5_Node000013_Node000014"><a xlink:title=" ">
<path fill="none" stroke="#63b8ff" stroke-width="2" d="M210.16,-546.55C191.02,-536.01 168.35,-522 150.25,-506.38 114.81,-475.77 82.23,-430.51 67.07,-408.05"/>
<polygon fill="#63b8ff" stroke="#63b8ff" stroke-width="2" points="209.08,-550.02 219.55,-551.65 212.39,-543.85 209.08,-550.02"/>
</a>
</g>
</g>
<!-- Node17 -->
<g id="Node000017" class="node">
<title>Node17</title>
<g id="a_Node000017"><a xlink:href="../../dc/dc6/carsmenu_8c.html#ad451b82b7f3d31d1bb3fc4c210941579" target="_top" xlink:title="Invokes the listView of cars.">
<polygon fill="#fff0f0" stroke="red" points="297.88,-26.75 203.88,-26.75 203.88,0 297.88,0 297.88,-26.75"/>
<text text-anchor="middle" x="250.88" y="-7.55" font-family="Helvetica,sans-Serif" font-size="16.00">carChoose</text>
</a>
</g>
</g>
<!-- Node16&#45;&gt;Node17 -->
<g id="edge7_Node000016_Node000017" class="edge">
<title>Node16&#45;&gt;Node17</title>
<g id="a_edge7_Node000016_Node000017"><a xlink:title=" ">
<path fill="none" stroke="#63b8ff" stroke-width="2" d="M402.1,-124.74C396.87,-122.14 391.92,-119.05 387.5,-115.38 359.07,-91.73 379.92,-64.02 351.5,-40.38 336.62,-28 316.57,-21.26 298.35,-17.6"/>
<polygon fill="#63b8ff" stroke="#63b8ff" stroke-width="2" points="401.34,-128.05 411.92,-128.68 404.04,-121.59 401.34,-128.05"/>
</a>
</g>
</g>
<!-- Node20 -->
<g id="Node000020" class="node">
<title>Node20</title>
<g id="a_Node000020"><a xlink:href="../../da/de9/clientsmenu_8c.html#a1d711b31a5a18af01cdd582e537ff921" target="_top" xlink:title="Invokes ListView of clients.">
<polygon fill="#fff0f0" stroke="red" points="305.75,-108.75 196,-108.75 196,-82 305.75,-82 305.75,-108.75"/>
<text text-anchor="middle" x="250.88" y="-89.55" font-family="Helvetica,sans-Serif" font-size="16.00">clientChoose</text>
</a>
</g>
</g>
<!-- Node16&#45;&gt;Node20 -->
<g id="edge9_Node000016_Node000020" class="edge">
<title>Node16&#45;&gt;Node20</title>
<g id="a_edge9_Node000016_Node000020"><a xlink:title=" ">
<path fill="none" stroke="#63b8ff" stroke-width="2" d="M401.19,-124.48C370.28,-118.45 334.69,-111.52 306.01,-105.93"/>
<polygon fill="#63b8ff" stroke="#63b8ff" stroke-width="2" points="401.18,-128.43 411.67,-126.91 402.52,-121.56 401.18,-128.43"/>
</a>
</g>
</g>
<!-- Node19 -->
<g id="Node000019" class="node">
<title>Node19</title>
<g id="a_Node000019"><a xlink:href="../../dc/dc6/carsmenu_8c.html#a76be213354bbaa3d64a095bafa1ec8d2" target="_top" xlink:title="Removes a car.">
<polygon fill="#fff0f0" stroke="red" points="106.38,-67.75 7.88,-67.75 7.88,-41 106.38,-41 106.38,-67.75"/>
<text text-anchor="middle" x="57.12" y="-48.55" font-family="Helvetica,sans-Serif" font-size="16.00">carRemove</text>
</a>
</g>
</g>
<!-- Node17&#45;&gt;Node19 -->
<g id="edge8_Node000017_Node000019" class="edge">
<title>Node17&#45;&gt;Node19</title>
<g id="a_edge8_Node000017_Node000019"><a xlink:title=" ">
<path fill="none" stroke="#63b8ff" stroke-width="2" d="M191.02,-25.96C164.03,-31.73 132.41,-38.49 106.79,-43.97"/>
<polygon fill="#63b8ff" stroke="#63b8ff" stroke-width="2" points="192.41,-28.81 201.46,-23.3 190.95,-21.97 192.41,-28.81"/>
</a>
</g>
</g>
<!-- Node22 -->
<g id="Node000022" class="node">
<title>Node22</title>
<g id="a_Node000022"><a xlink:href="../../da/de9/clientsmenu_8c.html#ae81aa78f6e32fdd87e554ba85c063111" target="_top" xlink:title="Remove client.">
<polygon fill="#fff0f0" stroke="red" points="114.25,-198.75 0,-198.75 0,-172 114.25,-172 114.25,-198.75"/>
<text text-anchor="middle" x="57.12" y="-179.55" font-family="Helvetica,sans-Serif" font-size="16.00">clientRemove</text>
</a>
</g>
</g>
<!-- Node20&#45;&gt;Node22 -->
<g id="edge10_Node000020_Node000022" class="edge">
<title>Node20&#45;&gt;Node22</title>
<g id="a_edge10_Node000020_Node000022"><a xlink:title=" ">
<path fill="none" stroke="#63b8ff" stroke-width="2" d="M183.03,-106.89C171.83,-109.92 160.52,-113.69 150.25,-118.38 120.2,-132.08 90.15,-156.41 72.89,-171.68"/>
<polygon fill="#63b8ff" stroke="#63b8ff" stroke-width="2" points="184.71,-109.58 193.58,-103.78 183.03,-102.79 184.71,-109.58"/>
</a>
</g>
</g>
<!-- Node23&#45;&gt;Node4 -->
<g id="edge13_Node000023_Node000004" class="edge">
<title>Node23&#45;&gt;Node4</title>
<g id="a_edge13_Node000023_Node000004"><a xlink:title=" ">
<path fill="none" stroke="#63b8ff" stroke-width="2" d="M469.01,-273.08C460.31,-327.58 432.23,-451.15 351.5,-506.38 310.16,-534.65 159.79,-530.74 91.85,-527.37"/>
<polygon fill="#63b8ff" stroke="#63b8ff" stroke-width="2" points="472.91,-272.62 470.9,-262.22 465.98,-271.6 472.91,-272.62"/>
</a>
</g>
</g>
<!-- Node23&#45;&gt;Node14 -->
<g id="edge14_Node000023_Node000014" class="edge">
<title>Node23&#45;&gt;Node14</title>
<g id="a_edge14_Node000023_Node000014"><a xlink:title=" ">
<path fill="none" stroke="#63b8ff" stroke-width="2" d="M448.61,-268.78C425.54,-289.11 388.72,-318.3 351.5,-334.38 267.94,-370.47 239.27,-353.35 150.25,-372.38 133.53,-375.95 115.19,-380.25 99.3,-384.1"/>
<polygon fill="#63b8ff" stroke="#63b8ff" stroke-width="2" points="451.1,-271.43 456.19,-262.14 446.42,-266.23 451.1,-271.43"/>
</a>
</g>
</g>
<!-- Node23&#45;&gt;Node17 -->
<g id="edge15_Node000023_Node000017" class="edge">
<title>Node23&#45;&gt;Node17</title>
<g id="a_edge15_Node000023_Node000017"><a xlink:title=" ">
<path fill="none" stroke="#63b8ff" stroke-width="2" d="M444.29,-224.19C425.74,-208.24 402.25,-185.24 387.5,-160.38 359.09,-112.49 391.4,-79.22 351.5,-40.38 337.38,-26.62 317,-19.71 298.34,-16.29"/>
<polygon fill="#63b8ff" stroke="#63b8ff" stroke-width="2" points="442.34,-227.79 452.26,-231.51 446.82,-222.42 442.34,-227.79"/>
</a>
</g>
</g>
<!-- Node23&#45;&gt;Node19 -->
<g id="edge16_Node000023_Node000019" class="edge">
<title>Node23&#45;&gt;Node19</title>
<g id="a_edge16_Node000023_Node000019"><a xlink:title=" ">
<path fill="none" stroke="#63b8ff" stroke-width="2" d="M445.74,-224.28C427.45,-208.09 403.68,-184.76 387.5,-160.38 364.36,-125.51 385.52,-97.74 351.5,-73.38 313.53,-46.18 179.93,-48.16 106.82,-51.49"/>
<polygon fill="#63b8ff" stroke="#63b8ff" stroke-width="2" points="443.66,-227.84 453.51,-231.73 448.23,-222.54 443.66,-227.84"/>
</a>
</g>
</g>
<!-- Node23&#45;&gt;Node20 -->
<g id="edge17_Node000023_Node000020" class="edge">
<title>Node23&#45;&gt;Node20</title>
<g id="a_edge17_Node000023_Node000020"><a xlink:title=" ">
<path fill="none" stroke="#63b8ff" stroke-width="2" d="M449.48,-223.97C432.12,-206.86 407.89,-182.53 387.5,-160.38 370.85,-142.29 372.53,-131.11 351.5,-118.38 337.91,-110.15 321.65,-104.86 306.24,-101.46"/>
<polygon fill="#63b8ff" stroke="#63b8ff" stroke-width="2" points="446.76,-226.16 456.35,-230.67 451.66,-221.17 446.76,-226.16"/>
</a>
</g>
</g>
<!-- Node23&#45;&gt;Node22 -->
<g id="edge18_Node000023_Node000022" class="edge">
<title>Node23&#45;&gt;Node22</title>
<g id="a_edge18_Node000023_Node000022"><a xlink:title=" ">
<path fill="none" stroke="#63b8ff" stroke-width="2" d="M374.37,-237.43C310.3,-230.87 224.98,-220.77 150.25,-207.38 137.63,-205.11 124.14,-202.18 111.49,-199.21"/>
<polygon fill="#63b8ff" stroke="#63b8ff" stroke-width="2" points="373.99,-241.21 384.3,-238.74 374.7,-234.25 373.99,-241.21"/>
</a>
</g>
</g>
<!-- Node24 -->
<g id="Node000024" class="node">
<title>Node24</title>
<g id="a_Node000024"><a xlink:href="../../d3/df4/dbhandle_8c.html#a4bfe377ba6dd3a7e3024c825de1485dd" target="_top" xlink:title="Remove clinet from database.">
<polygon fill="white" stroke="#666666" points="339.5,-198.75 162.25,-198.75 162.25,-172 339.5,-172 339.5,-198.75"/>
<text text-anchor="middle" x="250.88" y="-179.55" font-family="Helvetica,sans-Serif" font-size="16.00">dbHandlClientRemove</text>
</a>
</g>
</g>
<!-- Node23&#45;&gt;Node24 -->
<g id="edge19_Node000023_Node000024" class="edge">
<title>Node23&#45;&gt;Node24</title>
<g id="a_edge19_Node000023_Node000024"><a xlink:title=" ">
<path fill="none" stroke="#63b8ff" stroke-width="2" d="M411.41,-229.09C392.24,-223.7 371,-217.76 351.5,-212.38 335.87,-208.06 318.84,-203.42 303.35,-199.23"/>
<polygon fill="#63b8ff" stroke="#63b8ff" stroke-width="2" points="411.09,-233.2 421.66,-232.54 412.99,-226.46 411.09,-233.2"/>
</a>
</g>
</g>
<!-- Node25 -->
<g id="Node000025" class="node">
<title>Node25</title>
<g id="a_Node000025"><a xlink:href="../../d3/df4/dbhandle_8c.html#ae62043f5776328dcdc74dc9f29c4e2c6" target="_top" xlink:title="Insert a car into the database.">
<polygon fill="white" stroke="#666666" points="326.38,-497.75 175.38,-497.75 175.38,-471 326.38,-471 326.38,-497.75"/>
<text text-anchor="middle" x="250.88" y="-478.55" font-family="Helvetica,sans-Serif" font-size="16.00">dbHandleCarInsert</text>
</a>
</g>
</g>
<!-- Node23&#45;&gt;Node25 -->
<g id="edge21_Node000023_Node000025" class="edge">
<title>Node23&#45;&gt;Node25</title>
<g id="a_edge21_Node000023_Node000025"><a xlink:title=" ">
<path fill="none" stroke="#63b8ff" stroke-width="2" d="M465.47,-272.29C451.68,-317.98 416.59,-412.66 351.5,-461.38 344.11,-466.91 335.61,-471.14 326.76,-474.37"/>
<polygon fill="#63b8ff" stroke="#63b8ff" stroke-width="2" points="469.6,-272.61 469.01,-262.03 462.87,-270.67 469.6,-272.61"/>
</a>
</g>
</g>
<!-- Node26 -->
<g id="Node000026" class="node">
<title>Node26</title>
<g id="a_Node000026"><a xlink:href="../../d3/df4/dbhandle_8c.html#a230344c970b882095a893674614099c4" target="_top" xlink:title="Remove a car from the database.">
<polygon fill="white" stroke="#666666" points="336.12,-153.75 165.62,-153.75 165.62,-127 336.12,-127 336.12,-153.75"/>
<text text-anchor="middle" x="250.88" y="-134.55" font-family="Helvetica,sans-Serif" font-size="16.00">dbHandleCarRemove</text>
</a>
</g>
</g>
<!-- Node23&#45;&gt;Node26 -->
<g id="edge23_Node000023_Node000026" class="edge">
<title>Node23&#45;&gt;Node26</title>
<g id="a_edge23_Node000023_Node000026"><a xlink:title=" ">
<path fill="none" stroke="#63b8ff" stroke-width="2" d="M447.05,-224.68C423.67,-205.81 387.3,-179.11 351.5,-163.38 343.46,-159.84 334.8,-156.81 326.06,-154.23"/>
<polygon fill="#63b8ff" stroke="#63b8ff" stroke-width="2" points="444.89,-228.07 454.84,-231.72 449.34,-222.67 444.89,-228.07"/>
</a>
</g>
</g>
<!-- Node27 -->
<g id="Node000027" class="node">
<title>Node27</title>
<g id="a_Node000027"><a xlink:href="../../d3/df4/dbhandle_8c.html#a127bbad9ae9228590e2a7eb06a085321" target="_top" xlink:title="Update a car in the database.">
<polygon fill="#fff0f0" stroke="red" points="332,-452.75 169.75,-452.75 169.75,-426 332,-426 332,-452.75"/>
<text text-anchor="middle" x="250.88" y="-433.55" font-family="Helvetica,sans-Serif" font-size="16.00">dbHandleCarUpdate</text>
</a>
</g>
</g>
<!-- Node23&#45;&gt;Node27 -->
<g id="edge25_Node000023_Node000027" class="edge">
<title>Node23&#45;&gt;Node27</title>
<g id="a_edge25_Node000023_Node000027"><a xlink:title=" ">
<path fill="none" stroke="#63b8ff" stroke-width="2" d="M461.86,-271.35C444.5,-308.96 406.42,-379.64 351.5,-416.38 345.6,-420.32 339.11,-423.6 332.36,-426.32"/>
<polygon fill="#63b8ff" stroke="#63b8ff" stroke-width="2" points="465.07,-272.52 465.95,-261.96 458.67,-269.66 465.07,-272.52"/>
</a>
</g>
</g>
<!-- Node28 -->
<g id="Node000028" class="node">
<title>Node28</title>
<g id="a_Node000028"><a xlink:href="../../d3/df4/dbhandle_8c.html#a10cc2cd742cf382f48c04428af09189f" target="_top" xlink:title="Insert client into db.">
<polygon fill="white" stroke="#666666" points="334.25,-407.75 167.5,-407.75 167.5,-381 334.25,-381 334.25,-407.75"/>
<text text-anchor="middle" x="250.88" y="-388.55" font-family="Helvetica,sans-Serif" font-size="16.00">dbHandleClientInsert</text>
</a>
</g>
</g>
<!-- Node23&#45;&gt;Node28 -->
<g id="edge26_Node000023_Node000028" class="edge">
<title>Node23&#45;&gt;Node28</title>
<g id="a_edge26_Node000023_Node000028"><a xlink:title=" ">
<path fill="none" stroke="#63b8ff" stroke-width="2" d="M455.03,-270.2C433.65,-297.67 394.88,-342.25 351.5,-367.38 342.27,-372.72 331.95,-377.04 321.55,-380.52"/>
<polygon fill="#63b8ff" stroke="#63b8ff" stroke-width="2" points="458.58,-272 461.85,-261.92 453.01,-267.76 458.58,-272"/>
</a>
</g>
</g>
<!-- Node29 -->
<g id="Node000029" class="node">
<title>Node29</title>
<g id="a_Node000029"><a xlink:href="../../d3/df4/dbhandle_8c.html#aaa0d1881c99c82d3e6dbf0965ae779fa" target="_top" xlink:title="Update Client in database.">
<polygon fill="#fff0f0" stroke="red" points="339.88,-325.75 161.88,-325.75 161.88,-299 339.88,-299 339.88,-325.75"/>
<text text-anchor="middle" x="250.88" y="-306.55" font-family="Helvetica,sans-Serif" font-size="16.00">dbHandleClientUpdate</text>
</a>
</g>
</g>
<!-- Node23&#45;&gt;Node29 -->
<g id="edge28_Node000023_Node000029" class="edge">
<title>Node23&#45;&gt;Node29</title>
<g id="a_edge28_Node000023_Node000029"><a xlink:title=" ">
<path fill="none" stroke="#63b8ff" stroke-width="2" d="M425,-264.67C402.86,-272.84 376.03,-282.21 351.5,-289.38 340.34,-292.63 328.37,-295.73 316.73,-298.54"/>
<polygon fill="#63b8ff" stroke="#63b8ff" stroke-width="2" points="426.97,-267.93 435.11,-261.16 424.52,-261.37 426.97,-267.93"/>
</a>
</g>
</g>
<!-- Node30 -->
<g id="Node000030" class="node">
<title>Node30</title>
<g id="a_Node000030"><a xlink:href="../../d3/df4/dbhandle_8c.html#a93d9b43b32495dc8630963c174aeba05" target="_top" xlink:title="Given query and callback function create List based on the query.">
<polygon fill="#fff0f0" stroke="red" points="351.5,-280.75 150.25,-280.75 150.25,-254 351.5,-254 351.5,-280.75"/>
<text text-anchor="middle" x="250.88" y="-261.55" font-family="Helvetica,sans-Serif" font-size="16.00">dbHandleGetResultAsList</text>
</a>
</g>
</g>
<!-- Node23&#45;&gt;Node30 -->
<g id="edge29_Node000023_Node000030" class="edge">
<title>Node23&#45;&gt;Node30</title>
<g id="a_edge29_Node000023_Node000030"><a xlink:title=" ">
<path fill="none" stroke="#63b8ff" stroke-width="2" d="M374.52,-255.7C366.93,-256.42 359.26,-257.15 351.66,-257.88"/>
<polygon fill="#63b8ff" stroke="#63b8ff" stroke-width="2" points="374.58,-258.93 384.2,-254.49 373.91,-251.96 374.58,-258.93"/>
</a>
</g>
</g>
<!-- Node24&#45;&gt;Node22 -->
<g id="edge20_Node000024_Node000022" class="edge">
<title>Node24&#45;&gt;Node22</title>
<g id="a_edge20_Node000024_Node000022"><a xlink:title=" ">
<path fill="none" stroke="#63b8ff" stroke-width="2" d="M149.04,-185.38C137.23,-185.38 125.53,-185.38 114.64,-185.38"/>
<polygon fill="#63b8ff" stroke="#63b8ff" stroke-width="2" points="148.86,-188.88 158.86,-185.38 148.86,-181.88 148.86,-188.88"/>
</a>
</g>
</g>
<!-- Node25&#45;&gt;Node4 -->
<g id="edge22_Node000025_Node000004" class="edge">
<title>Node25&#45;&gt;Node4</title>
<g id="a_edge22_Node000025_Node000004"><a xlink:title=" ">
<path fill="none" stroke="#63b8ff" stroke-width="2" d="M172.52,-500.91C144.46,-506.92 114.19,-513.39 91.84,-518.17"/>
<polygon fill="#63b8ff" stroke="#63b8ff" stroke-width="2" points="174.18,-503.71 183.22,-498.2 172.71,-496.87 174.18,-503.71"/>
</a>
</g>
</g>
<!-- Node26&#45;&gt;Node19 -->
<g id="edge24_Node000026_Node000019" class="edge">
<title>Node26&#45;&gt;Node19</title>
<g id="a_edge24_Node000026_Node000019"><a xlink:title=" ">
<path fill="none" stroke="#63b8ff" stroke-width="2" d="M163.51,-122.58C158.97,-120.98 154.52,-119.25 150.25,-117.38 121.15,-104.61 91.53,-82.35 73.99,-67.99"/>
<polygon fill="#63b8ff" stroke="#63b8ff" stroke-width="2" points="163.1,-126.77 173.69,-126.51 165.25,-120.11 163.1,-126.77"/>
</a>
</g>
</g>
<!-- Node28&#45;&gt;Node14 -->
<g id="edge27_Node000028_Node000014" class="edge">
<title>Node28&#45;&gt;Node14</title>
<g id="a_edge27_Node000028_Node000014"><a xlink:title=" ">
<path fill="none" stroke="#63b8ff" stroke-width="2" d="M154.25,-394.38C135.06,-394.38 115.85,-394.38 99.71,-394.38"/>
<polygon fill="#63b8ff" stroke="#63b8ff" stroke-width="2" points="154.16,-397.88 164.16,-394.38 154.16,-390.88 154.16,-397.88"/>
</a>
</g>
</g>
</g>
</svg>
