<?xml version="1.0" encoding="UTF-8" standalone="no"?>
<!DOCTYPE svg PUBLIC "-//W3C//DTD SVG 1.1//EN"
 "http://www.w3.org/Graphics/SVG/1.1/DTD/svg11.dtd">
<!-- Generated by graphviz version 8.0.5 (0)
 -->
<!-- Title: mainMenu Pages: 1 -->
<svg width="576pt" height="179pt"
 viewBox="0.00 0.00 576.00 179.24" xmlns="http://www.w3.org/2000/svg" xmlns:xlink="http://www.w3.org/1999/xlink">
<g id="graph0" class="graph" transform="scale(1 1) rotate(0) translate(4 175.24)">
<title>mainMenu</title>
<!-- Node1 -->
<g id="Node000001" class="node">
<title>Node1</title>
<g id="a_Node000001"><a xlink:title="Invokes menu.">
<polygon fill="#999999" stroke="#666666" points="568,-89.24 476.25,-89.24 476.25,-62.49 568,-62.49 568,-89.24"/>
<text text-anchor="middle" x="522.12" y="-70.04" font-family="Helvetica,sans-Serif" font-size="16.00">mainMenu</text>
</a>
</g>
</g>
<!-- Node2 -->
<g id="Node000002" class="node">
<title>Node2</title>
<g id="a_Node000002"><a xlink:href="../../d0/d29/main_8c.html#ae66f6b31b5ad750f1fe042a706a4e3d4" target="_top" xlink:title="main.">
<polygon fill="white" stroke="#666666" points="413.62,-134.24 362.38,-134.24 362.38,-107.49 413.62,-107.49 413.62,-134.24"/>
<text text-anchor="middle" x="388" y="-115.04" font-family="Helvetica,sans-Serif" font-size="16.00">main</text>
</a>
</g>
</g>
<!-- Node1&#45;&gt;Node2 -->
<g id="edge1_Node000001_Node000002" class="edge">
<title>Node1&#45;&gt;Node2</title>
<g id="a_edge1_Node000001_Node000002"><a xlink:title=" ">
<path fill="none" stroke="#63b8ff" stroke-width="2" d="M468.37,-93.83C449.62,-100.22 429.38,-107.11 414.03,-112.34"/>
<polygon fill="#63b8ff" stroke="#63b8ff" stroke-width="2" points="470.07,-96.27 478.41,-89.73 467.81,-89.64 470.07,-96.27"/>
</a>
</g>
</g>
<!-- Node3 -->
<g id="Node000003" class="node">
<title>Node3</title>
<g id="a_Node000003"><a xlink:href="../../d7/dba/menuutil_8c.html#a949419e66b27ac75475821fb7aba527d" target="_top" xlink:title="Handle all operation and functions for menu.">
<polygon fill="white" stroke="#666666" points="440.25,-89.24 335.75,-89.24 335.75,-62.49 440.25,-62.49 440.25,-89.24"/>
<text text-anchor="middle" x="388" y="-70.04" font-family="Helvetica,sans-Serif" font-size="16.00">menuInvoke</text>
</a>
</g>
</g>
<!-- Node1&#45;&gt;Node3 -->
<g id="edge2_Node000001_Node000003" class="edge">
<title>Node1&#45;&gt;Node3</title>
<g id="a_edge2_Node000001_Node000003"><a xlink:title=" ">
<path fill="none" stroke="#63b8ff" stroke-width="2" d="M463.21,-75.86C455.72,-75.86 448.09,-75.86 440.72,-75.86"/>
<polygon fill="#63b8ff" stroke="#63b8ff" stroke-width="2" points="463.02,-79.36 473.02,-75.86 463.02,-72.36 463.02,-79.36"/>
</a>
</g>
</g>
<!-- Node4 -->
<g id="Node000004" class="node">
<title>Node4</title>
<g id="a_Node000004"><a xlink:href="../../dc/dc6/carsmenu_8c.html#a7adcbb9b8798811ec24e33760623ebc0" target="_top" xlink:title="Handles displaying of cars menu.">
<polygon fill="white" stroke="#666666" points="290.75,-171.24 203.5,-171.24 203.5,-144.49 290.75,-144.49 290.75,-171.24"/>
<text text-anchor="middle" x="247.12" y="-152.04" font-family="Helvetica,sans-Serif" font-size="16.00">carsMenu</text>
</a>
</g>
</g>
<!-- Node3&#45;&gt;Node4 -->
<g id="edge3_Node000003_Node000004" class="edge">
<title>Node3&#45;&gt;Node4</title>
<g id="a_edge3_Node000003_Node000004"><a xlink:title=" ">
<path fill="none" stroke="#63b8ff" stroke-width="2" d="M340.99,-95.66C339.2,-96.7 337.44,-97.77 335.75,-98.86 317.78,-110.49 317.37,-118.7 299.75,-130.86 292.84,-135.63 284.99,-140.15 277.52,-144.07"/>
<polygon fill="#63b8ff" stroke="#63b8ff" stroke-width="2" points="343.12,-98.44 350.33,-90.68 339.85,-92.25 343.12,-98.44"/>
</a>
</g>
</g>
<!-- Node5 -->
<g id="Node000005" class="node">
<title>Node5</title>
<g id="a_Node000005"><a xlink:href="../../de/dc9/mmenu_8c.html#a315bc1f41a79da39147ec73e38cfc9e7" target="_top" xlink:title="Handles main menu.">
<polygon fill="white" stroke="#666666" points="158.5,-89.24 0,-89.24 0,-62.49 158.5,-62.49 158.5,-89.24"/>
<text text-anchor="middle" x="79.25" y="-70.04" font-family="Helvetica,sans-Serif" font-size="16.00">mainMenuSelection</text>
</a>
</g>
</g>
<!-- Node3&#45;&gt;Node5 -->
<g id="edge8_Node000003_Node000005" class="edge">
<title>Node3&#45;&gt;Node5</title>
<g id="a_edge8_Node000003_Node000005"><a xlink:title=" ">
<path fill="none" stroke="#63b8ff" stroke-width="2" d="M328.8,-92.65C319.17,-94.81 309.24,-96.69 299.75,-97.86 253.33,-103.62 241.07,-102.31 194.5,-97.86 176.91,-96.18 157.99,-93.08 140.71,-89.73"/>
<polygon fill="#63b8ff" stroke="#63b8ff" stroke-width="2" points="330.31,-95.4 339.22,-89.66 328.68,-88.6 330.31,-95.4"/>
</a>
</g>
</g>
<!-- Node6 -->
<g id="Node000006" class="node">
<title>Node6</title>
<g id="a_Node000006"><a xlink:href="../../da/de9/clientsmenu_8c.html#ad2a8354e045a2d4deb82f4b3b20ad5a4" target="_top" xlink:title="Handles displaying of clients menu.">
<polygon fill="white" stroke="#666666" points="298.62,-89.24 195.62,-89.24 195.62,-62.49 298.62,-62.49 298.62,-89.24"/>
<text text-anchor="middle" x="247.12" y="-70.04" font-family="Helvetica,sans-Serif" font-size="16.00">clientsMenu</text>
</a>
</g>
</g>
<!-- Node3&#45;&gt;Node6 -->
<g id="edge6_Node000003_Node000006" class="edge">
<title>Node3&#45;&gt;Node6</title>
<g id="a_edge6_Node000003_Node000006"><a xlink:title=" ">
<path fill="none" stroke="#63b8ff" stroke-width="2" d="M322.55,-75.86C314.64,-75.86 306.63,-75.86 298.96,-75.86"/>
<polygon fill="#63b8ff" stroke="#63b8ff" stroke-width="2" points="322.29,-79.36 332.29,-75.86 322.29,-72.36 322.29,-79.36"/>
</a>
</g>
</g>
<!-- Node7 -->
<g id="Node000007" class="node">
<title>Node7</title>
<g id="a_Node000007"><a xlink:href="../../d6/dc5/rentalsmenu_8c.html#a4cad208e714dfe28ce655b7853a3d5fd" target="_top" xlink:title="Handles Rentals Menu.">
<polygon fill="white" stroke="#666666" points="299.75,-44.24 194.5,-44.24 194.5,-17.49 299.75,-17.49 299.75,-44.24"/>
<text text-anchor="middle" x="247.12" y="-25.04" font-family="Helvetica,sans-Serif" font-size="16.00">rentalsMenu</text>
</a>
</g>
</g>
<!-- Node3&#45;&gt;Node7 -->
<g id="edge9_Node000003_Node000007" class="edge">
<title>Node3&#45;&gt;Node7</title>
<g id="a_edge9_Node000003_Node000007"><a xlink:title=" ">
<path fill="none" stroke="#63b8ff" stroke-width="2" d="M331.86,-57.99C318.11,-53.54 303.57,-48.83 290.55,-44.61"/>
<polygon fill="#63b8ff" stroke="#63b8ff" stroke-width="2" points="331.61,-62.24 342.2,-61.99 333.77,-55.58 331.61,-62.24"/>
</a>
</g>
</g>
<!-- Node4&#45;&gt;Node5 -->
<g id="edge4_Node000004_Node000005" class="edge">
<title>Node4&#45;&gt;Node5</title>
<g id="a_edge4_Node000004_Node000005"><a xlink:title=" ">
<path fill="none" stroke="#63b8ff" stroke-width="2" d="M206.9,-138.47C176.51,-123.45 135.17,-103.01 108.1,-89.63"/>
<polygon fill="#63b8ff" stroke="#63b8ff" stroke-width="2" points="205.85,-141.84 216.36,-143.14 208.95,-135.57 205.85,-141.84"/>
</a>
</g>
</g>
<!-- Node5&#45;&gt;Node1 -->
<g id="edge5_Node000005_Node000001" class="edge">
<title>Node5&#45;&gt;Node1</title>
<g id="a_edge5_Node000005_Node000001"><a xlink:title=" ">
<path fill="none" stroke="#63b8ff" stroke-width="2" d="M107.33,-54.35C129.37,-38.3 162.04,-17.68 194.5,-8.86 304.55,21.03 438.65,-34.76 494.61,-62.06"/>
<polygon fill="#63b8ff" stroke="#63b8ff" stroke-width="2" points="105.02,-52.21 99.12,-61.02 109.22,-57.81 105.02,-52.21"/>
</a>
</g>
</g>
<!-- Node6&#45;&gt;Node5 -->
<g id="edge7_Node000006_Node000005" class="edge">
<title>Node6&#45;&gt;Node5</title>
<g id="a_edge7_Node000006_Node000005"><a xlink:title=" ">
<path fill="none" stroke="#63b8ff" stroke-width="2" d="M182.59,-75.86C174.78,-75.86 166.72,-75.86 158.72,-75.86"/>
<polygon fill="#63b8ff" stroke="#63b8ff" stroke-width="2" points="182.46,-79.36 192.46,-75.86 182.46,-72.36 182.46,-79.36"/>
</a>
</g>
</g>
<!-- Node7&#45;&gt;Node5 -->
<g id="edge10_Node000007_Node000005" class="edge">
<title>Node7&#45;&gt;Node5</title>
<g id="a_edge10_Node000007_Node000005"><a xlink:title=" ">
<path fill="none" stroke="#63b8ff" stroke-width="2" d="M182.83,-48.03C165.75,-52.67 147.5,-57.62 131.2,-62.04"/>
<polygon fill="#63b8ff" stroke="#63b8ff" stroke-width="2" points="184.27,-50.73 193,-44.73 182.44,-43.97 184.27,-50.73"/>
</a>
</g>
</g>
</g>
</svg>
