<?xml version="1.0" encoding="UTF-8" standalone="no"?>
<!DOCTYPE svg PUBLIC "-//W3C//DTD SVG 1.1//EN"
 "http://www.w3.org/Graphics/SVG/1.1/DTD/svg11.dtd">
<!-- Generated by graphviz version 8.0.5 (0)
 -->
<!-- Title: list.h Pages: 1 -->
<!--zoomable 223 -->

<svg id="main" version="1.1" xmlns="http://www.w3.org/2000/svg" xmlns:xlink="http://www.w3.org/1999/xlink" xml:space="preserve" onload="init(evt)">
<style type="text/css"><![CDATA[
.node, .edge {opacity: 0.7;}
.node.selected, .edge.selected {opacity: 1;}
.edge:hover path { stroke: red; }
.edge:hover polygon { stroke: red; fill: red; }
]]></style>

<defs>
  <circle id="rim" cx="0" cy="0" r="7"/>
  <circle id="rim2" cx="0" cy="0" r="3.5"/>
  <g id="zoomPlus">
    <use xlink:href="#rim" fill="#404040"><set attributeName="fill" to="#808080" begin="zoomplus.mouseover" end="zoomplus.mouseout"/></use>
    <path d="M-4,0h8M0,-4v8" fill="none" stroke="white" stroke-width="1.5" pointer-events="none"/>
  </g>
  <g id="zoomMin">
    <use xlink:href="#rim" fill="#404040"><set attributeName="fill" to="#808080" begin="zoomminus.mouseover" end="zoomminus.mouseout"/></use>
    <path d="M-4,0h8" fill="none" stroke="white" stroke-width="1.5" pointer-events="none"/>
  </g>
  <g id="arrowUp" transform="translate(30 24)">
    <use xlink:href="#rim"/>
    <path pointer-events="none" fill="none" stroke="white" stroke-width="1.5" d="M0,-3.0v7 M-2.5,-0.5L0,-3.0L2.5,-0.5"/>
  </g>
  <g id="arrowRight" transform="rotate(90) translate(36 -43)">
    <use xlink:href="#rim"/>
    <path pointer-events="none" fill="none" stroke="white" stroke-width="1.5" d="M0,-3.0v7 M-2.5,-0.5L0,-3.0L2.5,-0.5"/>
  </g>
  <g id="arrowDown" transform="rotate(180) translate(-30 -48)">
    <use xlink:href="#rim"/>
    <path pointer-events="none" fill="none" stroke="white" stroke-width="1.5" d="M0,-3.0v7 M-2.5,-0.5L0,-3.0L2.5,-0.5"/>
  </g>
  <g id="arrowLeft" transform="rotate(270) translate(-36 17)">
    <use xlink:href="#rim"/>
    <path pointer-events="none" fill="none" stroke="white" stroke-width="1.5" d="M0,-3.0v7 M-2.5,-0.5L0,-3.0L2.5,-0.5"/>
  </g>
  <g id="resetDef">
    <use xlink:href="#rim2" fill="#404040"><set attributeName="fill" to="#808080" begin="reset.mouseover" end="reset.mouseout"/></use>
  </g>
</defs>
<script type="application/ecmascript">
var viewWidth = 1223;
var viewHeight = 223;
var sectionId = 'dynsection-1';
</script>
<script type="application/ecmascript" xlink:href="../../svg.min.js"/>
<svg id="graph" class="graph">
<g id="viewport">
<title>list.h</title>
<!-- Node1 -->
<g id="Node000001" class="node">
<title>Node1</title>
<g id="a_Node000001"><a xlink:title="Doubly linked list interface.">
<polygon fill="#999999" stroke="#666666" points="750.12,-215 700.38,-215 700.38,-188.25 750.12,-188.25 750.12,-215"/>
<text text-anchor="middle" x="725.25" y="-195.8" font-family="Helvetica,sans-Serif" font-size="16.00">list.h</text>
</a>
</g>
</g>
<!-- Node2 -->
<g id="Node000002" class="node">
<title>Node2</title>
<g id="a_Node000002"><a xlink:href="../../d5/df2/car_8c.html" target="_top" xlink:title="Implements function to operate on client.">
<polygon fill="white" stroke="#666666" points="50.5,-26.75 0,-26.75 0,0 50.5,0 50.5,-26.75"/>
<text text-anchor="middle" x="25.25" y="-7.55" font-family="Helvetica,sans-Serif" font-size="16.00">car.c</text>
</a>
</g>
</g>
<!-- Node1&#45;&gt;Node2 -->
<g id="edge1_Node000001_Node000002" class="edge">
<title>Node1&#45;&gt;Node2</title>
<g id="a_edge1_Node000001_Node000002"><a xlink:title=" ">
<path fill="none" stroke="#63b8ff" stroke-width="2" d="M687.34,-200.46C553.01,-199.52 105.25,-193.3 57.25,-152.25 20.09,-120.47 21.36,-54.78 23.78,-27.11"/>
<polygon fill="#63b8ff" stroke="#63b8ff" stroke-width="2" points="687.02,-203.97 697.04,-200.54 687.06,-196.97 687.02,-203.97"/>
</a>
</g>
</g>
<!-- Node3 -->
<g id="Node000003" class="node">
<title>Node3</title>
<g id="a_Node000003"><a xlink:href="../../db/d42/car_8h.html" target="_top" xlink:title="Interface for Car structure.">
<polygon fill="white" stroke="#666666" points="146.88,-152.25 95.62,-152.25 95.62,-125.5 146.88,-125.5 146.88,-152.25"/>
<text text-anchor="middle" x="121.25" y="-133.05" font-family="Helvetica,sans-Serif" font-size="16.00">car.h</text>
</a>
</g>
</g>
<!-- Node1&#45;&gt;Node3 -->
<g id="edge2_Node000001_Node000003" class="edge">
<title>Node1&#45;&gt;Node3</title>
<g id="a_edge2_Node000001_Node000003"><a xlink:title=" ">
<path fill="none" stroke="#63b8ff" stroke-width="2" d="M687.12,-197.25C603.33,-189.76 396.86,-170.95 224.25,-152.25 197.93,-149.4 167.87,-145.74 147.05,-143.14"/>
<polygon fill="#63b8ff" stroke="#63b8ff" stroke-width="2" points="686.67,-200.99 696.94,-198.39 687.29,-194.02 686.67,-200.99"/>
</a>
</g>
</g>
<!-- Node4 -->
<g id="Node000004" class="node">
<title>Node4</title>
<g id="a_Node000004"><a xlink:href="../../dc/dc6/carsmenu_8c.html" target="_top" xlink:title="Cars menu implementation.">
<polygon fill="white" stroke="#666666" points="179.25,-26.75 79.25,-26.75 79.25,0 179.25,0 179.25,-26.75"/>
<text text-anchor="middle" x="129.25" y="-7.55" font-family="Helvetica,sans-Serif" font-size="16.00">carsmenu.c</text>
</a>
</g>
</g>
<!-- Node1&#45;&gt;Node4 -->
<g id="edge18_Node000001_Node000004" class="edge">
<title>Node1&#45;&gt;Node4</title>
<g id="a_edge18_Node000001_Node000004"><a xlink:title=" ">
<path fill="none" stroke="#63b8ff" stroke-width="2" d="M687.49,-200.07C557.64,-197.84 134.74,-187.88 86.25,-152.25 52.97,-127.8 42.32,-99.45 61.25,-62.75 69.42,-46.91 85.44,-35.13 99.87,-27.15"/>
<polygon fill="#63b8ff" stroke="#63b8ff" stroke-width="2" points="687.09,-203.61 697.15,-200.28 687.21,-196.61 687.09,-203.61"/>
</a>
</g>
</g>
<!-- Node6 -->
<g id="Node000006" class="node">
<title>Node6</title>
<g id="a_Node000006"><a xlink:href="../../d3/df4/dbhandle_8c.html" target="_top" xlink:title="Database handling.">
<polygon fill="white" stroke="#666666" points="293,-26.75 197.5,-26.75 197.5,0 293,0 293,-26.75"/>
<text text-anchor="middle" x="245.25" y="-7.55" font-family="Helvetica,sans-Serif" font-size="16.00">dbhandle.c</text>
</a>
</g>
</g>
<!-- Node1&#45;&gt;Node6 -->
<g id="edge33_Node000001_Node000006" class="edge">
<title>Node1&#45;&gt;Node6</title>
<g id="a_edge33_Node000001_Node000006"><a xlink:title=" ">
<path fill="none" stroke="#63b8ff" stroke-width="2" d="M687.29,-196.37C588.55,-184.56 327.16,-148.31 266.25,-89.5 249.2,-73.04 245.65,-43.98 245.11,-27.23"/>
<polygon fill="#63b8ff" stroke="#63b8ff" stroke-width="2" points="686.76,-200.18 697.1,-197.87 687.58,-193.23 686.76,-200.18"/>
</a>
</g>
</g>
<!-- Node9 -->
<g id="Node000009" class="node">
<title>Node9</title>
<g id="a_Node000009"><a xlink:href="../../dd/d93/client_8c.html" target="_top" xlink:title="Implements function to operate on client.">
<polygon fill="white" stroke="#666666" points="974.75,-26.75 907.75,-26.75 907.75,0 974.75,0 974.75,-26.75"/>
<text text-anchor="middle" x="941.25" y="-7.55" font-family="Helvetica,sans-Serif" font-size="16.00">client.c</text>
</a>
</g>
</g>
<!-- Node1&#45;&gt;Node9 -->
<g id="edge19_Node000001_Node000009" class="edge">
<title>Node1&#45;&gt;Node9</title>
<g id="a_edge19_Node000001_Node000009"><a xlink:title=" ">
<path fill="none" stroke="#63b8ff" stroke-width="2" d="M762.13,-185.23C779.99,-176.86 801.21,-165.5 818.25,-152.25 867.88,-113.65 913.61,-53.34 932.33,-27.19"/>
<polygon fill="#63b8ff" stroke="#63b8ff" stroke-width="2" points="760.06,-182.23 752.39,-189.54 762.94,-188.61 760.06,-182.23"/>
</a>
</g>
</g>
<!-- Node10 -->
<g id="Node000010" class="node">
<title>Node10</title>
<g id="a_Node000010"><a xlink:href="../../da/de9/clientsmenu_8c.html" target="_top" xlink:title="Clients menu implementation.">
<polygon fill="white" stroke="#666666" points="527.12,-26.75 411.38,-26.75 411.38,0 527.12,0 527.12,-26.75"/>
<text text-anchor="middle" x="469.25" y="-7.55" font-family="Helvetica,sans-Serif" font-size="16.00">clientsmenu.c</text>
</a>
</g>
</g>
<!-- Node1&#45;&gt;Node10 -->
<g id="edge32_Node000001_Node000010" class="edge">
<title>Node1&#45;&gt;Node10</title>
<g id="a_edge32_Node000001_Node000010"><a xlink:title=" ">
<path fill="none" stroke="#63b8ff" stroke-width="2" d="M718.07,-175.93C707.75,-144.85 685.72,-91.99 648.25,-62.75 629.41,-48.04 572.19,-34.12 527.47,-25.02"/>
<polygon fill="#63b8ff" stroke="#63b8ff" stroke-width="2" points="715.57,-177.66 721.89,-186.16 722.25,-175.57 715.57,-177.66"/>
</a>
</g>
</g>
<!-- Node12 -->
<g id="Node000012" class="node">
<title>Node12</title>
<g id="a_Node000012"><a xlink:href="../../d2/da6/testDbHandle_8c_source.html" target="_top" xlink:title=" ">
<polygon fill="white" stroke="#666666" points="889.38,-26.75 763.12,-26.75 763.12,0 889.38,0 889.38,-26.75"/>
<text text-anchor="middle" x="826.25" y="-7.55" font-family="Helvetica,sans-Serif" font-size="16.00">testDbHandle.c</text>
</a>
</g>
</g>
<!-- Node1&#45;&gt;Node12 -->
<g id="edge48_Node000001_Node000012" class="edge">
<title>Node1&#45;&gt;Node12</title>
<g id="a_edge48_Node000001_Node000012"><a xlink:title=" ">
<path fill="none" stroke="#63b8ff" stroke-width="2" d="M756.06,-180.5C782.95,-160.92 820.12,-128.47 836.25,-89.5 844.8,-68.83 837.59,-42.49 831.77,-27.12"/>
<polygon fill="#63b8ff" stroke="#63b8ff" stroke-width="2" points="753.79,-178.23 747.62,-186.84 757.81,-183.96 753.79,-178.23"/>
</a>
</g>
</g>
<!-- Node13 -->
<g id="Node000013" class="node">
<title>Node13</title>
<g id="a_Node000013"><a xlink:href="../../d8/de1/client_8h.html" target="_top" xlink:title="Interface for Client structure.">
<polygon fill="white" stroke="#666666" points="640.12,-152.25 572.38,-152.25 572.38,-125.5 640.12,-125.5 640.12,-152.25"/>
<text text-anchor="middle" x="606.25" y="-133.05" font-family="Helvetica,sans-Serif" font-size="16.00">client.h</text>
</a>
</g>
</g>
<!-- Node1&#45;&gt;Node13 -->
<g id="edge20_Node000001_Node000013" class="edge">
<title>Node1&#45;&gt;Node13</title>
<g id="a_edge20_Node000001_Node000013"><a xlink:title=" ">
<path fill="none" stroke="#63b8ff" stroke-width="2" d="M688.92,-182.08C670.22,-172.53 647.9,-161.14 631.16,-152.59"/>
<polygon fill="#63b8ff" stroke="#63b8ff" stroke-width="2" points="687.81,-185.46 698.3,-186.89 690.99,-179.23 687.81,-185.46"/>
</a>
</g>
</g>
<!-- Node16 -->
<g id="Node000016" class="node">
<title>Node16</title>
<g id="a_Node000016"><a xlink:href="../../d7/d40/list_8c.html" target="_top" xlink:title="Doubly linked list implementation.">
<polygon fill="white" stroke="#666666" points="1103.75,-152.25 1054.75,-152.25 1054.75,-125.5 1103.75,-125.5 1103.75,-152.25"/>
<text text-anchor="middle" x="1079.25" y="-133.05" font-family="Helvetica,sans-Serif" font-size="16.00">list.c</text>
</a>
</g>
</g>
<!-- Node1&#45;&gt;Node16 -->
<g id="edge34_Node000001_Node000016" class="edge">
<title>Node1&#45;&gt;Node16</title>
<g id="a_edge34_Node000001_Node000016"><a xlink:title=" ">
<path fill="none" stroke="#63b8ff" stroke-width="2" d="M763.21,-196.72C822.76,-190.16 941.54,-175.34 1040.25,-152.25 1044.95,-151.15 1049.91,-149.76 1054.65,-148.31"/>
<polygon fill="#63b8ff" stroke="#63b8ff" stroke-width="2" points="762.98,-193.55 753.41,-198.1 763.73,-200.51 762.98,-193.55"/>
</a>
</g>
</g>
<!-- Node17 -->
<g id="Node000017" class="node">
<title>Node17</title>
<g id="a_Node000017"><a xlink:href="../../d7/dba/menuutil_8c.html" target="_top" xlink:title="Menu displaying utilities.">
<polygon fill="white" stroke="#666666" points="1083.38,-26.75 993.12,-26.75 993.12,0 1083.38,0 1083.38,-26.75"/>
<text text-anchor="middle" x="1038.25" y="-7.55" font-family="Helvetica,sans-Serif" font-size="16.00">menuutil.c</text>
</a>
</g>
</g>
<!-- Node1&#45;&gt;Node17 -->
<g id="edge35_Node000001_Node000017" class="edge">
<title>Node1&#45;&gt;Node17</title>
<g id="a_edge35_Node000001_Node000017"><a xlink:title=" ">
<path fill="none" stroke="#63b8ff" stroke-width="2" d="M762.49,-188.57C787.22,-179.91 820.03,-167.17 847.25,-152.25 917.54,-113.72 992.16,-53.37 1023.28,-27.2"/>
<polygon fill="#63b8ff" stroke="#63b8ff" stroke-width="2" points="760.7,-186.17 752.36,-192.71 762.96,-192.79 760.7,-186.17"/>
</a>
</g>
</g>
<!-- Node18 -->
<g id="Node000018" class="node">
<title>Node18</title>
<g id="a_Node000018"><a xlink:href="../../de/d0e/menuutil_8h.html" target="_top" xlink:title="Header file for menu operations.">
<polygon fill="white" stroke="#666666" points="807.75,-89.5 716.75,-89.5 716.75,-62.75 807.75,-62.75 807.75,-89.5"/>
<text text-anchor="middle" x="762.25" y="-70.3" font-family="Helvetica,sans-Serif" font-size="16.00">menuutil.h</text>
</a>
</g>
</g>
<!-- Node1&#45;&gt;Node18 -->
<g id="edge36_Node000001_Node000018" class="edge">
<title>Node1&#45;&gt;Node18</title>
<g id="a_edge36_Node000001_Node000018"><a xlink:title=" ">
<path fill="none" stroke="#63b8ff" stroke-width="2" d="M732.71,-175.74C740.47,-149.82 752.34,-110.22 758.4,-89.99"/>
<polygon fill="#63b8ff" stroke="#63b8ff" stroke-width="2" points="728.59,-175.29 729.07,-185.87 735.29,-177.3 728.59,-175.29"/>
</a>
</g>
</g>
<!-- Node20 -->
<g id="Node000020" class="node">
<title>Node20</title>
<g id="a_Node000020"><a xlink:href="../../db/daf/testListView_8c_source.html" target="_top" xlink:title=" ">
<polygon fill="white" stroke="#666666" points="1215.38,-26.75 1101.12,-26.75 1101.12,0 1215.38,0 1215.38,-26.75"/>
<text text-anchor="middle" x="1158.25" y="-7.55" font-family="Helvetica,sans-Serif" font-size="16.00">testListView.c</text>
</a>
</g>
</g>
<!-- Node1&#45;&gt;Node20 -->
<g id="edge49_Node000001_Node000020" class="edge">
<title>Node1&#45;&gt;Node20</title>
<g id="a_edge49_Node000001_Node000020"><a xlink:title=" ">
<path fill="none" stroke="#63b8ff" stroke-width="2" d="M763.06,-190.97C795.46,-182.24 843.11,-168.33 883.25,-152.25 980.43,-113.33 1090,-53.19 1136.03,-27.13"/>
<polygon fill="#63b8ff" stroke="#63b8ff" stroke-width="2" points="761.37,-188.33 752.6,-194.27 763.16,-195.09 761.37,-188.33"/>
</a>
</g>
</g>
<!-- Node3&#45;&gt;Node2 -->
<g id="edge3_Node000003_Node000002" class="edge">
<title>Node3&#45;&gt;Node2</title>
<g id="a_edge3_Node000003_Node000002"><a xlink:title=" ">
<path fill="none" stroke="#63b8ff" stroke-width="2" d="M90.87,-117.61C80.57,-109.71 69.57,-100.01 61.25,-89.5 45.81,-70 34.87,-42.79 29.35,-27.03"/>
<polygon fill="#63b8ff" stroke="#63b8ff" stroke-width="2" points="89.08,-121.09 99.22,-124.16 93.21,-115.44 89.08,-121.09"/>
</a>
</g>
</g>
<!-- Node3&#45;&gt;Node4 -->
<g id="edge4_Node000003_Node000004" class="edge">
<title>Node3&#45;&gt;Node4</title>
<g id="a_edge4_Node000003_Node000004"><a xlink:title=" ">
<path fill="none" stroke="#63b8ff" stroke-width="2" d="M89.96,-117.01C81.28,-109.47 72.95,-100.15 68.25,-89.5 63.45,-78.62 63.08,-73.45 68.25,-62.75 75.72,-47.29 90.79,-35.27 104.08,-27.07"/>
<polygon fill="#63b8ff" stroke="#63b8ff" stroke-width="2" points="88.1,-120.58 98.12,-124.02 92.44,-115.08 88.1,-120.58"/>
</a>
</g>
</g>
<!-- Node5 -->
<g id="Node000005" class="node">
<title>Node5</title>
<g id="a_Node000005"><a xlink:href="../../d6/ddc/carsmenu_8h.html" target="_top" xlink:title="Cars menu interface.">
<polygon fill="white" stroke="#666666" points="210.62,-89.5 109.88,-89.5 109.88,-62.75 210.62,-62.75 210.62,-89.5"/>
<text text-anchor="middle" x="160.25" y="-70.3" font-family="Helvetica,sans-Serif" font-size="16.00">carsmenu.h</text>
</a>
</g>
</g>
<!-- Node3&#45;&gt;Node5 -->
<g id="edge5_Node000003_Node000005" class="edge">
<title>Node3&#45;&gt;Node5</title>
<g id="a_edge5_Node000003_Node000005"><a xlink:title=" ">
<path fill="none" stroke="#63b8ff" stroke-width="2" d="M136.25,-114.51C141.67,-106.07 147.58,-96.86 152.18,-89.7"/>
<polygon fill="#63b8ff" stroke="#63b8ff" stroke-width="2" points="132.79,-112.98 130.33,-123.29 138.68,-116.76 132.79,-112.98"/>
</a>
</g>
</g>
<!-- Node3&#45;&gt;Node6 -->
<g id="edge9_Node000003_Node000006" class="edge">
<title>Node3&#45;&gt;Node6</title>
<g id="a_edge9_Node000003_Node000006"><a xlink:title=" ">
<path fill="none" stroke="#63b8ff" stroke-width="2" d="M105.32,-114.02C96.95,-98.24 90.45,-77.77 101.25,-62.75 107.22,-54.45 158.75,-38.47 198.48,-27.15"/>
<polygon fill="#63b8ff" stroke="#63b8ff" stroke-width="2" points="102.72,-116.19 110.83,-123.01 108.74,-112.62 102.72,-116.19"/>
</a>
</g>
</g>
<!-- Node8 -->
<g id="Node000008" class="node">
<title>Node8</title>
<g id="a_Node000008"><a xlink:href="../../db/d9d/dbhandle_8h.html" target="_top" xlink:title="Database operations interface.">
<polygon fill="white" stroke="#666666" points="400.38,-89.5 304.12,-89.5 304.12,-62.75 400.38,-62.75 400.38,-89.5"/>
<text text-anchor="middle" x="352.25" y="-70.3" font-family="Helvetica,sans-Serif" font-size="16.00">dbhandle.h</text>
</a>
</g>
</g>
<!-- Node3&#45;&gt;Node8 -->
<g id="edge10_Node000003_Node000008" class="edge">
<title>Node3&#45;&gt;Node8</title>
<g id="a_edge10_Node000003_Node000008"><a xlink:title=" ">
<path fill="none" stroke="#63b8ff" stroke-width="2" d="M159.8,-127.74C199.35,-117.34 260.96,-101.13 303.78,-89.87"/>
<polygon fill="#63b8ff" stroke="#63b8ff" stroke-width="2" points="158.08,-125.1 149.3,-131.02 159.86,-131.87 158.08,-125.1"/>
</a>
</g>
</g>
<!-- Node5&#45;&gt;Node4 -->
<g id="edge6_Node000005_Node000004" class="edge">
<title>Node5&#45;&gt;Node4</title>
<g id="a_edge6_Node000005_Node000004"><a xlink:title=" ">
<path fill="none" stroke="#63b8ff" stroke-width="2" d="M148.03,-51.19C143.81,-42.9 139.24,-33.95 135.66,-26.95"/>
<polygon fill="#63b8ff" stroke="#63b8ff" stroke-width="2" points="145.16,-53.22 152.83,-60.54 151.4,-50.04 145.16,-53.22"/>
</a>
</g>
</g>
<!-- Node5&#45;&gt;Node6 -->
<g id="edge7_Node000005_Node000006" class="edge">
<title>Node5&#45;&gt;Node6</title>
<g id="a_edge7_Node000005_Node000006"><a xlink:title=" ">
<path fill="none" stroke="#63b8ff" stroke-width="2" d="M188.1,-55.22C201.02,-45.99 215.99,-35.29 227.37,-27.16"/>
<polygon fill="#63b8ff" stroke="#63b8ff" stroke-width="2" points="185.96,-52.88 179.86,-61.54 190.03,-58.57 185.96,-52.88"/>
</a>
</g>
</g>
<!-- Node7 -->
<g id="Node000007" class="node">
<title>Node7</title>
<g id="a_Node000007"><a xlink:href="../../de/dc9/mmenu_8c.html" target="_top" xlink:title="Menu implementation.">
<polygon fill="white" stroke="#666666" points="393.62,-26.75 310.88,-26.75 310.88,0 393.62,0 393.62,-26.75"/>
<text text-anchor="middle" x="352.25" y="-7.55" font-family="Helvetica,sans-Serif" font-size="16.00">mmenu.c</text>
</a>
</g>
</g>
<!-- Node5&#45;&gt;Node7 -->
<g id="edge8_Node000005_Node000007" class="edge">
<title>Node5&#45;&gt;Node7</title>
<g id="a_edge8_Node000005_Node000007"><a xlink:title=" ">
<path fill="none" stroke="#63b8ff" stroke-width="2" d="M212.48,-58.6C243.72,-48.71 282.83,-36.34 311.72,-27.2"/>
<polygon fill="#63b8ff" stroke="#63b8ff" stroke-width="2" points="210.98,-56.04 202.5,-62.39 213.09,-62.71 210.98,-56.04"/>
</a>
</g>
</g>
<!-- Node8&#45;&gt;Node2 -->
<g id="edge11_Node000008_Node000002" class="edge">
<title>Node8&#45;&gt;Node2</title>
<g id="a_edge11_Node000008_Node000002"><a xlink:title=" ">
<path fill="none" stroke="#63b8ff" stroke-width="2" d="M290.99,-66.4C233.64,-57.81 145.71,-43.55 70.25,-26.75 63.92,-25.34 57.16,-23.6 50.84,-21.88"/>
<polygon fill="#63b8ff" stroke="#63b8ff" stroke-width="2" points="291.41,-70.29 301.82,-68.3 292.44,-63.37 291.41,-70.29"/>
</a>
</g>
</g>
<!-- Node8&#45;&gt;Node4 -->
<g id="edge12_Node000008_Node000004" class="edge">
<title>Node8&#45;&gt;Node4</title>
<g id="a_edge12_Node000008_Node000004"><a xlink:title=" ">
<path fill="none" stroke="#63b8ff" stroke-width="2" d="M292.75,-58.92C256.24,-48.97 210.14,-36.41 176.21,-27.17"/>
<polygon fill="#63b8ff" stroke="#63b8ff" stroke-width="2" points="292.66,-63.06 303.23,-62.32 294.5,-56.31 292.66,-63.06"/>
</a>
</g>
</g>
<!-- Node8&#45;&gt;Node6 -->
<g id="edge15_Node000008_Node000006" class="edge">
<title>Node8&#45;&gt;Node6</title>
<g id="a_edge15_Node000008_Node000006"><a xlink:title=" ">
<path fill="none" stroke="#63b8ff" stroke-width="2" d="M318.87,-56.17C302.2,-46.71 282.48,-35.51 267.65,-27.09"/>
<polygon fill="#63b8ff" stroke="#63b8ff" stroke-width="2" points="317.4,-59.5 327.82,-61.39 320.85,-53.41 317.4,-59.5"/>
</a>
</g>
</g>
<!-- Node8&#45;&gt;Node9 -->
<g id="edge13_Node000008_Node000009" class="edge">
<title>Node8&#45;&gt;Node9</title>
<g id="a_edge13_Node000008_Node000009"><a xlink:title=" ">
<path fill="none" stroke="#63b8ff" stroke-width="2" d="M413.31,-62.34C627.22,-32.81 687.81,-64.36 898.25,-26.75 901.31,-26.2 904.46,-25.53 907.6,-24.77"/>
<polygon fill="#63b8ff" stroke="#63b8ff" stroke-width="2" points="412.09,-59.26 402.68,-64.13 413.07,-66.19 412.09,-59.26"/>
</a>
</g>
</g>
<!-- Node8&#45;&gt;Node10 -->
<g id="edge14_Node000008_Node000010" class="edge">
<title>Node8&#45;&gt;Node10</title>
<g id="a_edge14_Node000008_Node000010"><a xlink:title=" ">
<path fill="none" stroke="#63b8ff" stroke-width="2" d="M388.23,-56.44C406.56,-46.92 428.38,-35.59 444.76,-27.09"/>
<polygon fill="#63b8ff" stroke="#63b8ff" stroke-width="2" points="386.04,-53.68 378.78,-61.39 389.26,-59.89 386.04,-53.68"/>
</a>
</g>
</g>
<!-- Node11 -->
<g id="Node000011" class="node">
<title>Node11</title>
<g id="a_Node000011"><a xlink:href="../../d0/d29/main_8c.html" target="_top" xlink:title="Main file.">
<polygon fill="white" stroke="#666666" points="609.25,-26.75 545.25,-26.75 545.25,0 609.25,0 609.25,-26.75"/>
<text text-anchor="middle" x="577.25" y="-7.55" font-family="Helvetica,sans-Serif" font-size="16.00">main.c</text>
</a>
</g>
</g>
<!-- Node8&#45;&gt;Node11 -->
<g id="edge16_Node000008_Node000011" class="edge">
<title>Node8&#45;&gt;Node11</title>
<g id="a_edge16_Node000008_Node000011"><a xlink:title=" ">
<path fill="none" stroke="#63b8ff" stroke-width="2" d="M413.05,-59.73C448.98,-50.48 495.3,-38.31 536.25,-26.75 539.11,-25.94 542.08,-25.08 545.05,-24.21"/>
<polygon fill="#63b8ff" stroke="#63b8ff" stroke-width="2" points="411.62,-56.99 402.81,-62.87 413.36,-63.77 411.62,-56.99"/>
</a>
</g>
</g>
<!-- Node8&#45;&gt;Node12 -->
<g id="edge17_Node000008_Node000012" class="edge">
<title>Node8&#45;&gt;Node12</title>
<g id="a_edge17_Node000008_Node000012"><a xlink:title=" ">
<path fill="none" stroke="#63b8ff" stroke-width="2" d="M413.16,-62.26C563.66,-38.84 605.56,-47.26 754.25,-26.75 757.01,-26.37 759.83,-25.96 762.68,-25.54"/>
<polygon fill="#63b8ff" stroke="#63b8ff" stroke-width="2" points="412.02,-59.21 402.69,-64.23 413.12,-66.12 412.02,-59.21"/>
</a>
</g>
</g>
<!-- Node13&#45;&gt;Node6 -->
<g id="edge28_Node000013_Node000006" class="edge">
<title>Node13&#45;&gt;Node6</title>
<g id="a_edge28_Node000013_Node000006"><a xlink:title=" ">
<path fill="none" stroke="#63b8ff" stroke-width="2" d="M559.19,-135.17C483.33,-130.05 338.13,-116.92 295.25,-89.5 271.89,-74.56 256.93,-44.37 249.92,-27.15"/>
<polygon fill="#63b8ff" stroke="#63b8ff" stroke-width="2" points="558.87,-138.85 569.07,-136.01 559.32,-131.86 558.87,-138.85"/>
</a>
</g>
</g>
<!-- Node13&#45;&gt;Node8 -->
<g id="edge29_Node000013_Node000008" class="edge">
<title>Node13&#45;&gt;Node8</title>
<g id="a_edge29_Node000013_Node000008"><a xlink:title=" ">
<path fill="none" stroke="#63b8ff" stroke-width="2" d="M559.63,-126.73C514.52,-115.94 446.43,-99.65 400.7,-88.71"/>
<polygon fill="#63b8ff" stroke="#63b8ff" stroke-width="2" points="559.45,-130.76 569.99,-129.68 561.08,-123.95 559.45,-130.76"/>
</a>
</g>
</g>
<!-- Node13&#45;&gt;Node9 -->
<g id="edge21_Node000013_Node000009" class="edge">
<title>Node13&#45;&gt;Node9</title>
<g id="a_edge21_Node000013_Node000009"><a xlink:title=" ">
<path fill="none" stroke="#63b8ff" stroke-width="2" d="M653.03,-133.74C700.76,-128.24 776.16,-115.92 836.25,-89.5 872.36,-73.62 908.45,-44.07 927.48,-27.15"/>
<polygon fill="#63b8ff" stroke="#63b8ff" stroke-width="2" points="652.9,-130.56 643.33,-135.12 653.65,-137.52 652.9,-130.56"/>
</a>
</g>
</g>
<!-- Node13&#45;&gt;Node10 -->
<g id="edge22_Node000013_Node000010" class="edge">
<title>Node13&#45;&gt;Node10</title>
<g id="a_edge22_Node000013_Node000010"><a xlink:title=" ">
<path fill="none" stroke="#63b8ff" stroke-width="2" d="M624.42,-114.54C634.38,-98.73 642.62,-78.01 631.25,-62.75 624.54,-53.75 567.99,-38.23 523.56,-27.19"/>
<polygon fill="#63b8ff" stroke="#63b8ff" stroke-width="2" points="620.96,-112.83 618.12,-123.04 626.7,-116.83 620.96,-112.83"/>
</a>
</g>
</g>
<!-- Node13&#45;&gt;Node12 -->
<g id="edge31_Node000013_Node000012" class="edge">
<title>Node13&#45;&gt;Node12</title>
<g id="a_edge31_Node000013_Node000012"><a xlink:title=" ">
<path fill="none" stroke="#63b8ff" stroke-width="2" d="M652.95,-133.27C707.98,-126.84 794.69,-113.19 816.25,-89.5 831.75,-72.47 830.73,-43.62 828.53,-27.06"/>
<polygon fill="#63b8ff" stroke="#63b8ff" stroke-width="2" points="652.92,-130.09 643.37,-134.68 653.7,-137.05 652.92,-130.09"/>
</a>
</g>
</g>
<!-- Node14 -->
<g id="Node000014" class="node">
<title>Node14</title>
<g id="a_Node000014"><a xlink:href="../../d6/d4a/clientsmenu_8h.html" target="_top" xlink:title="Clients menu interface.">
<polygon fill="white" stroke="#666666" points="534.5,-89.5 418,-89.5 418,-62.75 534.5,-62.75 534.5,-89.5"/>
<text text-anchor="middle" x="476.25" y="-70.3" font-family="Helvetica,sans-Serif" font-size="16.00">clientsmenu.h</text>
</a>
</g>
</g>
<!-- Node13&#45;&gt;Node14 -->
<g id="edge23_Node000013_Node000014" class="edge">
<title>Node13&#45;&gt;Node14</title>
<g id="a_edge23_Node000013_Node000014"><a xlink:title=" ">
<path fill="none" stroke="#63b8ff" stroke-width="2" d="M567.43,-119.73C546.83,-110.11 522.01,-98.51 503.47,-89.84"/>
<polygon fill="#63b8ff" stroke="#63b8ff" stroke-width="2" points="566.46,-123.08 577,-124.14 569.42,-116.74 566.46,-123.08"/>
</a>
</g>
</g>
<!-- Node15 -->
<g id="Node000015" class="node">
<title>Node15</title>
<g id="a_Node000015"><a xlink:href="../../d5/d43/rental_8h_source.html" target="_top" xlink:title=" ">
<polygon fill="white" stroke="#666666" points="622.25,-89.5 552.25,-89.5 552.25,-62.75 622.25,-62.75 622.25,-89.5"/>
<text text-anchor="middle" x="587.25" y="-70.3" font-family="Helvetica,sans-Serif" font-size="16.00">rental.h</text>
</a>
</g>
</g>
<!-- Node13&#45;&gt;Node15 -->
<g id="edge30_Node000013_Node000015" class="edge">
<title>Node13&#45;&gt;Node15</title>
<g id="a_edge30_Node000013_Node000015"><a xlink:title=" ">
<path fill="none" stroke="#63b8ff" stroke-width="2" d="M598.49,-113.07C595.98,-105.03 593.3,-96.45 591.18,-89.7"/>
<polygon fill="#63b8ff" stroke="#63b8ff" stroke-width="2" points="595.99,-114.79 602.31,-123.29 602.67,-112.7 595.99,-114.79"/>
</a>
</g>
</g>
<!-- Node14&#45;&gt;Node6 -->
<g id="edge25_Node000014_Node000006" class="edge">
<title>Node14&#45;&gt;Node6</title>
<g id="a_edge25_Node000014_Node000006"><a xlink:title=" ">
<path fill="none" stroke="#63b8ff" stroke-width="2" d="M415.07,-59.03C377.03,-49.03 328.82,-36.35 293.49,-27.06"/>
<polygon fill="#63b8ff" stroke="#63b8ff" stroke-width="2" points="414.98,-63.16 425.54,-62.32 416.76,-56.39 414.98,-63.16"/>
</a>
</g>
</g>
<!-- Node14&#45;&gt;Node7 -->
<g id="edge26_Node000014_Node000007" class="edge">
<title>Node14&#45;&gt;Node7</title>
<g id="a_edge26_Node000014_Node000007"><a xlink:title=" ">
<path fill="none" stroke="#63b8ff" stroke-width="2" d="M438.67,-56.71C419.13,-47.14 395.73,-35.68 378.21,-27.09"/>
<polygon fill="#63b8ff" stroke="#63b8ff" stroke-width="2" points="437.74,-60.13 448.26,-61.39 440.82,-53.85 437.74,-60.13"/>
</a>
</g>
</g>
<!-- Node14&#45;&gt;Node10 -->
<g id="edge24_Node000014_Node000010" class="edge">
<title>Node14&#45;&gt;Node10</title>
<g id="a_edge24_Node000014_Node000010"><a xlink:title=" ">
<path fill="none" stroke="#63b8ff" stroke-width="2" d="M473.32,-49.73C472.42,-41.87 471.46,-33.54 470.7,-26.95"/>
<polygon fill="#63b8ff" stroke="#63b8ff" stroke-width="2" points="470.18,-50 474.8,-59.54 477.13,-49.2 470.18,-50"/>
</a>
</g>
</g>
<!-- Node14&#45;&gt;Node12 -->
<g id="edge27_Node000014_Node000012" class="edge">
<title>Node14&#45;&gt;Node12</title>
<g id="a_edge27_Node000014_Node000012"><a xlink:title=" ">
<path fill="none" stroke="#63b8ff" stroke-width="2" d="M547.46,-62.02C639.07,-45.8 664.51,-42.12 754.25,-26.75 757,-26.28 759.81,-25.8 762.65,-25.31"/>
<polygon fill="#63b8ff" stroke="#63b8ff" stroke-width="2" points="545.94,-59.09 536.71,-64.28 547.16,-65.98 545.94,-59.09"/>
</a>
</g>
</g>
<!-- Node18&#45;&gt;Node2 -->
<g id="edge37_Node000018_Node000002" class="edge">
<title>Node18&#45;&gt;Node2</title>
<g id="a_edge37_Node000018_Node000002"><a xlink:title=" ">
<path fill="none" stroke="#63b8ff" stroke-width="2" d="M703.64,-69.21C681.03,-67.03 654.95,-64.63 631.25,-62.75 382.19,-43 316.65,-68.09 70.25,-26.75 63.86,-25.68 57.07,-24.07 50.75,-22.36"/>
<polygon fill="#63b8ff" stroke="#63b8ff" stroke-width="2" points="703.21,-72.98 713.51,-70.46 703.89,-66.01 703.21,-72.98"/>
</a>
</g>
</g>
<!-- Node18&#45;&gt;Node4 -->
<g id="edge38_Node000018_Node000004" class="edge">
<title>Node18&#45;&gt;Node4</title>
<g id="a_edge38_Node000018_Node000004"><a xlink:title=" ">
<path fill="none" stroke="#63b8ff" stroke-width="2" d="M703.62,-69.42C681.01,-67.27 654.93,-64.83 631.25,-62.75 434.47,-45.46 383.75,-55.08 188.25,-26.75 185.45,-26.34 182.59,-25.89 179.71,-25.39"/>
<polygon fill="#63b8ff" stroke="#63b8ff" stroke-width="2" points="703.2,-73.18 713.49,-70.65 703.87,-66.22 703.2,-73.18"/>
</a>
</g>
</g>
<!-- Node18&#45;&gt;Node6 -->
<g id="edge41_Node000018_Node000006" class="edge">
<title>Node18&#45;&gt;Node6</title>
<g id="a_edge41_Node000018_Node000006"><a xlink:title=" ">
<path fill="none" stroke="#63b8ff" stroke-width="2" d="M703.75,-69.33C588.75,-57.9 340.99,-32.97 302.25,-26.75 299.35,-26.28 296.38,-25.77 293.38,-25.21"/>
<polygon fill="#63b8ff" stroke="#63b8ff" stroke-width="2" points="703.14,-73.09 713.44,-70.59 703.83,-66.12 703.14,-73.09"/>
</a>
</g>
</g>
<!-- Node18&#45;&gt;Node7 -->
<g id="edge44_Node000018_Node000007" class="edge">
<title>Node18&#45;&gt;Node7</title>
<g id="a_edge44_Node000018_Node000007"><a xlink:title=" ">
<path fill="none" stroke="#63b8ff" stroke-width="2" d="M703.82,-69.26C632.34,-61.62 507.81,-46.84 402.25,-26.75 399.53,-26.23 396.73,-25.66 393.92,-25.05"/>
<polygon fill="#63b8ff" stroke="#63b8ff" stroke-width="2" points="703.22,-73.03 713.53,-70.6 703.95,-66.07 703.22,-73.03"/>
</a>
</g>
</g>
<!-- Node18&#45;&gt;Node9 -->
<g id="edge39_Node000018_Node000009" class="edge">
<title>Node18&#45;&gt;Node9</title>
<g id="a_edge39_Node000018_Node000009"><a xlink:title=" ">
<path fill="none" stroke="#63b8ff" stroke-width="2" d="M811.86,-58.29C842.28,-47.96 880.43,-35.02 907.4,-25.86"/>
<polygon fill="#63b8ff" stroke="#63b8ff" stroke-width="2" points="810.12,-55.86 801.77,-62.39 812.37,-62.49 810.12,-55.86"/>
</a>
</g>
</g>
<!-- Node18&#45;&gt;Node10 -->
<g id="edge40_Node000018_Node000010" class="edge">
<title>Node18&#45;&gt;Node10</title>
<g id="a_edge40_Node000018_Node000010"><a xlink:title=" ">
<path fill="none" stroke="#63b8ff" stroke-width="2" d="M703.98,-63.04C652.81,-52.43 578.76,-37.08 527.58,-26.47"/>
<polygon fill="#63b8ff" stroke="#63b8ff" stroke-width="2" points="703.97,-67.03 714.47,-65.63 705.39,-60.18 703.97,-67.03"/>
</a>
</g>
</g>
<!-- Node18&#45;&gt;Node11 -->
<g id="edge42_Node000018_Node000011" class="edge">
<title>Node18&#45;&gt;Node11</title>
<g id="a_edge42_Node000018_Node000011"><a xlink:title=" ">
<path fill="none" stroke="#63b8ff" stroke-width="2" d="M711.46,-58.45C678.91,-47.76 637.63,-34.2 609.51,-24.97"/>
<polygon fill="#63b8ff" stroke="#63b8ff" stroke-width="2" points="710.88,-62.6 721.47,-62.39 713.06,-55.94 710.88,-62.6"/>
</a>
</g>
</g>
<!-- Node18&#45;&gt;Node12 -->
<g id="edge46_Node000018_Node000012" class="edge">
<title>Node18&#45;&gt;Node12</title>
<g id="a_edge46_Node000018_Node000012"><a xlink:title=" ">
<path fill="none" stroke="#63b8ff" stroke-width="2" d="M784.76,-53.76C794.2,-44.8 804.86,-34.68 813.01,-26.95"/>
<polygon fill="#63b8ff" stroke="#63b8ff" stroke-width="2" points="782.35,-51.11 777.51,-60.54 787.17,-56.19 782.35,-51.11"/>
</a>
</g>
</g>
<!-- Node18&#45;&gt;Node17 -->
<g id="edge43_Node000018_Node000017" class="edge">
<title>Node18&#45;&gt;Node17</title>
<g id="a_edge43_Node000018_Node000017"><a xlink:title=" ">
<path fill="none" stroke="#63b8ff" stroke-width="2" d="M820.9,-62.52C865.67,-52.86 928.89,-39.12 984.25,-26.75 987.07,-26.12 989.96,-25.47 992.88,-24.81"/>
<polygon fill="#63b8ff" stroke="#63b8ff" stroke-width="2" points="819.24,-59.73 810.2,-65.26 820.71,-66.58 819.24,-59.73"/>
</a>
</g>
</g>
<!-- Node19 -->
<g id="Node000019" class="node">
<title>Node19</title>
<g id="a_Node000019"><a xlink:href="../../d6/dc5/rentalsmenu_8c.html" target="_top" xlink:title="Rentals menu implementation.">
<polygon fill="white" stroke="#666666" points="745.25,-26.75 627.25,-26.75 627.25,0 745.25,0 745.25,-26.75"/>
<text text-anchor="middle" x="686.25" y="-7.55" font-family="Helvetica,sans-Serif" font-size="16.00">rentalsmenu.c</text>
</a>
</g>
</g>
<!-- Node18&#45;&gt;Node19 -->
<g id="edge45_Node000018_Node000019" class="edge">
<title>Node18&#45;&gt;Node19</title>
<g id="a_edge45_Node000018_Node000019"><a xlink:title=" ">
<path fill="none" stroke="#63b8ff" stroke-width="2" d="M736.65,-54.66C725.26,-45.56 712.21,-35.12 702.24,-27.16"/>
<polygon fill="#63b8ff" stroke="#63b8ff" stroke-width="2" points="734.51,-58.03 744.5,-61.54 738.88,-52.56 734.51,-58.03"/>
</a>
</g>
</g>
<!-- Node18&#45;&gt;Node20 -->
<g id="edge47_Node000018_Node000020" class="edge">
<title>Node18&#45;&gt;Node20</title>
<g id="a_edge47_Node000018_Node000020"><a xlink:title=" ">
<path fill="none" stroke="#63b8ff" stroke-width="2" d="M820.57,-67.29C886.6,-58.25 997.34,-42.6 1092.25,-26.75 1095.01,-26.29 1097.83,-25.81 1100.68,-25.31"/>
<polygon fill="#63b8ff" stroke="#63b8ff" stroke-width="2" points="819.42,-64.19 809.98,-69.01 820.36,-71.12 819.42,-64.19"/>
</a>
</g>
</g>
</g>
</svg>

<g id="navigator" transform="translate(0 0)" fill="#404254">
  <rect fill="#f2f5e9" fill-opacity="0.5" stroke="#606060" stroke-width=".5" x="0" y="0" width="60" height="60"/>
  <use id="zoomplus" xlink:href="#zoomPlus" x="17" y="9" onmousedown="handleZoom(evt,'in')"/>
  <use id="zoomminus" xlink:href="#zoomMin" x="42" y="9" onmousedown="handleZoom(evt,'out')"/>
  <use id="reset" xlink:href="#resetDef" x="30" y="36" onmousedown="handleReset()"/>
   <use id="arrowup" xlink:href="#arrowUp" x="0" y="0" onmousedown="handlePan(0,-1)"/>
  <use id="arrowright" xlink:href="#arrowRight" x="0" y="0" onmousedown="handlePan(1,0)"/>
  <use id="arrowdown" xlink:href="#arrowDown" x="0" y="0" onmousedown="handlePan(0,1)"/>
  <use id="arrowleft" xlink:href="#arrowLeft" x="0" y="0" onmousedown="handlePan(-1,0)"/>
</g>
<svg viewBox="0 0 15 15" width="100%" height="30px" preserveAspectRatio="xMaxYMin meet">
 <g id="arrow_out" transform="scale(0.3 0.3)">
  <a xlink:href="list_8h__dep__incl_org.svg" target="_base">
   <rect id="button" ry="5" rx="5" y="6" x="6" height="38" width="38"
        fill="#f2f5e9" fill-opacity="0.5" stroke="#606060" stroke-width="1.0"/>
   <path id="arrow"
     d="M 11.500037,31.436501 C 11.940474,20.09759 22.043105,11.32322 32.158766,21.979434 L 37.068811,17.246167 C 37.068811,17.246167 37.088388,32 37.088388,32 L 22.160133,31.978069 C 22.160133,31.978069 26.997745,27.140456 26.997745,27.140456 C 18.528582,18.264221 13.291696,25.230495 11.500037,31.436501 z"
     style="fill:#404040;"/>
  </a>
 </g>
</svg>

<style type='text/css'>
<![CDATA[
[data-mouse-over-selected='false'] { opacity: 0.7; }
[data-mouse-over-selected='true']  { opacity: 1.0; }
]]>
</style>
<script type="application/ecmascript"><![CDATA[
document.addEventListener('DOMContentLoaded', (event) => {
  highlightEdges();
  highlightAdjacentNodes();
});
]]></script>
</svg>
