<?xml version="1.0" encoding="UTF-8" standalone="no"?>
<!DOCTYPE svg PUBLIC "-//W3C//DTD SVG 1.1//EN"
 "http://www.w3.org/Graphics/SVG/1.1/DTD/svg11.dtd">
<!-- Generated by graphviz version 8.0.5 (0)
 -->
<!-- Title: dbhandle.c Pages: 1 -->
<svg width="1143pt" height="286pt"
 viewBox="0.00 0.00 1142.75 285.75" xmlns="http://www.w3.org/2000/svg" xmlns:xlink="http://www.w3.org/1999/xlink">
<g id="graph0" class="graph" transform="scale(1 1) rotate(0) translate(4 281.75)">
<title>dbhandle.c</title>
<!-- Node1 -->
<g id="Node000001" class="node">
<title>Node1</title>
<g id="a_Node000001"><a xlink:title="Database handling.">
<polygon fill="#999999" stroke="#666666" points="543.88,-277.75 448.38,-277.75 448.38,-251 543.88,-251 543.88,-277.75"/>
<text text-anchor="middle" x="496.13" y="-258.55" font-family="Helvetica,sans-Serif" font-size="16.00">dbhandle.c</text>
</a>
</g>
</g>
<!-- Node2 -->
<g id="Node000002" class="node">
<title>Node2</title>
<g id="a_Node000002"><a xlink:href="../../db/d9d/dbhandle_8h.html" target="_top" xlink:title="Database operations interface.">
<polygon fill="white" stroke="#666666" points="277.25,-215 181,-215 181,-188.25 277.25,-188.25 277.25,-215"/>
<text text-anchor="middle" x="229.13" y="-195.8" font-family="Helvetica,sans-Serif" font-size="16.00">dbhandle.h</text>
</a>
</g>
</g>
<!-- Node1&#45;&gt;Node2 -->
<g id="edge1_Node000001_Node000002" class="edge">
<title>Node1&#45;&gt;Node2</title>
<g id="a_edge1_Node000001_Node000002"><a xlink:title=" ">
<path fill="none" stroke="#63b8ff" stroke-width="2" d="M448.08,-252.44C403.84,-242.38 338,-227.4 290.08,-216.49"/>
<polygon fill="#63b8ff" stroke="#63b8ff" stroke-width="2" points="290.21,-212.48 279.69,-213.67 288.66,-219.3 290.21,-212.48"/>
</a>
</g>
</g>
<!-- Node3 -->
<g id="Node000003" class="node">
<title>Node3</title>
<g id="a_Node000003"><a xlink:href="../../db/d42/car_8h.html" target="_top" xlink:title="Interface for Car structure.">
<polygon fill="white" stroke="#666666" points="201.75,-152.25 150.5,-152.25 150.5,-125.5 201.75,-125.5 201.75,-152.25"/>
<text text-anchor="middle" x="176.13" y="-133.05" font-family="Helvetica,sans-Serif" font-size="16.00">car.h</text>
</a>
</g>
</g>
<!-- Node1&#45;&gt;Node3 -->
<g id="edge16_Node000001_Node000003" class="edge">
<title>Node1&#45;&gt;Node3</title>
<g id="a_edge16_Node000001_Node000003"><a xlink:title=" ">
<path fill="none" stroke="#63b8ff" stroke-width="2" d="M448.05,-263.53C366.67,-262.66 207.17,-255.66 172.13,-215 160.47,-201.47 162.4,-180.97 166.74,-164.8"/>
<polygon fill="#63b8ff" stroke="#63b8ff" stroke-width="2" points="170.97,-165.07 170.7,-154.48 164.31,-162.93 170.97,-165.07"/>
</a>
</g>
</g>
<!-- Node4 -->
<g id="Node000004" class="node">
<title>Node4</title>
<g id="a_Node000004"><a xlink:href="../../da/d23/list_8h.html" target="_top" xlink:title="Doubly linked list interface.">
<polygon fill="white" stroke="#666666" points="376,-89.5 326.25,-89.5 326.25,-62.75 376,-62.75 376,-89.5"/>
<text text-anchor="middle" x="351.13" y="-70.3" font-family="Helvetica,sans-Serif" font-size="16.00">list.h</text>
</a>
</g>
</g>
<!-- Node1&#45;&gt;Node4 -->
<g id="edge14_Node000001_Node000004" class="edge">
<title>Node1&#45;&gt;Node4</title>
<g id="a_edge14_Node000001_Node000004"><a xlink:title=" ">
<path fill="none" stroke="#63b8ff" stroke-width="2" d="M486.16,-250.57C461.88,-219.39 399.43,-139.17 368.71,-99.71"/>
<polygon fill="#63b8ff" stroke="#63b8ff" stroke-width="2" points="370.69,-97.27 361.78,-91.53 365.16,-101.57 370.69,-97.27"/>
</a>
</g>
</g>
<!-- Node5 -->
<g id="Node000005" class="node">
<title>Node5</title>
<g id="a_Node000005"><a xlink:title=" ">
<polygon fill="#e0e0e0" stroke="#999999" points="271.13,-26.75 189.13,-26.75 189.13,0 271.13,0 271.13,-26.75"/>
<text text-anchor="middle" x="230.13" y="-7.55" font-family="Helvetica,sans-Serif" font-size="16.00">stdbool.h</text>
</a>
</g>
</g>
<!-- Node1&#45;&gt;Node5 -->
<g id="edge23_Node000001_Node000005" class="edge">
<title>Node1&#45;&gt;Node5</title>
<g id="a_edge23_Node000001_Node000005"><a xlink:title=" ">
<path fill="none" stroke="#63b8ff" stroke-width="2" d="M447.88,-262.11C331.87,-258.56 44.74,-246.64 16.13,-215 -49.5,-142.42 103.93,-65.78 184.57,-32.05"/>
<polygon fill="#63b8ff" stroke="#63b8ff" stroke-width="2" points="186.45,-35.24 194.37,-28.2 183.79,-28.77 186.45,-35.24"/>
</a>
</g>
</g>
<!-- Node6 -->
<g id="Node000006" class="node">
<title>Node6</title>
<g id="a_Node000006"><a xlink:href="../../d8/de1/client_8h.html" target="_top" xlink:title="Interface for Client structure.">
<polygon fill="white" stroke="#666666" points="499,-152.25 431.25,-152.25 431.25,-125.5 499,-125.5 499,-152.25"/>
<text text-anchor="middle" x="465.13" y="-133.05" font-family="Helvetica,sans-Serif" font-size="16.00">client.h</text>
</a>
</g>
</g>
<!-- Node1&#45;&gt;Node6 -->
<g id="edge17_Node000001_Node000006" class="edge">
<title>Node1&#45;&gt;Node6</title>
<g id="a_edge17_Node000001_Node000006"><a xlink:title=" ">
<path fill="none" stroke="#63b8ff" stroke-width="2" d="M488.25,-250.76C482.75,-241.29 475.76,-227.81 472.13,-215 467.54,-198.86 465.79,-180.07 465.19,-165.32"/>
<polygon fill="#63b8ff" stroke="#63b8ff" stroke-width="2" points="468.63,-165.55 464.91,-155.63 461.63,-165.7 468.63,-165.55"/>
</a>
</g>
</g>
<!-- Node7 -->
<g id="Node000007" class="node">
<title>Node7</title>
<g id="a_Node000007"><a xlink:href="../../d6/d4a/clientsmenu_8h.html" target="_top" xlink:title="Clients menu interface.">
<polygon fill="white" stroke="#666666" points="597.38,-215 480.88,-215 480.88,-188.25 597.38,-188.25 597.38,-215"/>
<text text-anchor="middle" x="539.13" y="-195.8" font-family="Helvetica,sans-Serif" font-size="16.00">clientsmenu.h</text>
</a>
</g>
</g>
<!-- Node1&#45;&gt;Node7 -->
<g id="edge10_Node000001_Node000007" class="edge">
<title>Node1&#45;&gt;Node7</title>
<g id="a_edge10_Node000001_Node000007"><a xlink:title=" ">
<path fill="none" stroke="#63b8ff" stroke-width="2" d="M505.04,-250.79C510.17,-243.54 516.78,-234.2 522.81,-225.68"/>
<polygon fill="#63b8ff" stroke="#63b8ff" stroke-width="2" points="526.31,-227.38 529.23,-217.2 520.59,-223.34 526.31,-227.38"/>
</a>
</g>
</g>
<!-- Node8 -->
<g id="Node000008" class="node">
<title>Node8</title>
<g id="a_Node000008"><a xlink:href="../../d6/ddc/carsmenu_8h.html" target="_top" xlink:title="Cars menu interface.">
<polygon fill="white" stroke="#666666" points="125.5,-215 24.75,-215 24.75,-188.25 125.5,-188.25 125.5,-215"/>
<text text-anchor="middle" x="75.13" y="-195.8" font-family="Helvetica,sans-Serif" font-size="16.00">carsmenu.h</text>
</a>
</g>
</g>
<!-- Node1&#45;&gt;Node8 -->
<g id="edge12_Node000001_Node000008" class="edge">
<title>Node1&#45;&gt;Node8</title>
<g id="a_edge12_Node000001_Node000008"><a xlink:title=" ">
<path fill="none" stroke="#63b8ff" stroke-width="2" d="M448.07,-257.74C379.4,-249.48 249.29,-233.1 139.13,-215 138.86,-214.96 138.58,-214.91 138.31,-214.87"/>
<polygon fill="#63b8ff" stroke="#63b8ff" stroke-width="2" points="138.19,-210.94 127.74,-212.68 136.99,-217.84 138.19,-210.94"/>
</a>
</g>
</g>
<!-- Node9 -->
<g id="Node000009" class="node">
<title>Node9</title>
<g id="a_Node000009"><a xlink:title=" ">
<polygon fill="#e0e0e0" stroke="#999999" points="689,-215 615.25,-215 615.25,-188.25 689,-188.25 689,-215"/>
<text text-anchor="middle" x="652.13" y="-195.8" font-family="Helvetica,sans-Serif" font-size="16.00">assert.h</text>
</a>
</g>
</g>
<!-- Node1&#45;&gt;Node9 -->
<g id="edge15_Node000001_Node000009" class="edge">
<title>Node1&#45;&gt;Node9</title>
<g id="a_edge15_Node000001_Node000009"><a xlink:title=" ">
<path fill="none" stroke="#63b8ff" stroke-width="2" d="M528.83,-250.64C551.63,-241.76 582.34,-229.8 607.41,-220.04"/>
<polygon fill="#63b8ff" stroke="#63b8ff" stroke-width="2" points="609.15,-223.34 617.2,-216.45 606.61,-216.82 609.15,-223.34"/>
</a>
</g>
</g>
<!-- Node10 -->
<g id="Node000010" class="node">
<title>Node10</title>
<g id="a_Node000010"><a xlink:title=" ">
<polygon fill="#e0e0e0" stroke="#999999" points="784.88,-215 707.38,-215 707.38,-188.25 784.88,-188.25 784.88,-215"/>
<text text-anchor="middle" x="746.13" y="-195.8" font-family="Helvetica,sans-Serif" font-size="16.00">curses.h</text>
</a>
</g>
</g>
<!-- Node1&#45;&gt;Node10 -->
<g id="edge18_Node000001_Node000010" class="edge">
<title>Node1&#45;&gt;Node10</title>
<g id="a_edge18_Node000001_Node000010"><a xlink:title=" ">
<path fill="none" stroke="#63b8ff" stroke-width="2" d="M544.34,-252.07C582.5,-243.08 637.48,-229.99 694.52,-215.87"/>
<polygon fill="#63b8ff" stroke="#63b8ff" stroke-width="2" points="696.25,-218.55 705.11,-212.74 694.56,-211.76 696.25,-218.55"/>
</a>
</g>
</g>
<!-- Node11 -->
<g id="Node000011" class="node">
<title>Node11</title>
<g id="a_Node000011"><a xlink:href="../../de/d0e/menuutil_8h.html" target="_top" xlink:title="Header file for menu operations.">
<polygon fill="white" stroke="#666666" points="386.63,-215 295.63,-215 295.63,-188.25 386.63,-188.25 386.63,-215"/>
<text text-anchor="middle" x="341.13" y="-195.8" font-family="Helvetica,sans-Serif" font-size="16.00">menuutil.h</text>
</a>
</g>
</g>
<!-- Node1&#45;&gt;Node11 -->
<g id="edge19_Node000001_Node000011" class="edge">
<title>Node1&#45;&gt;Node11</title>
<g id="a_edge19_Node000001_Node000011"><a xlink:title=" ">
<path fill="none" stroke="#63b8ff" stroke-width="2" d="M463.63,-250.64C441.08,-241.8 410.74,-229.91 385.9,-220.17"/>
<polygon fill="#63b8ff" stroke="#63b8ff" stroke-width="2" points="386.43,-216.84 375.84,-216.45 383.88,-223.36 386.43,-216.84"/>
</a>
</g>
</g>
<!-- Node13 -->
<g id="Node000013" class="node">
<title>Node13</title>
<g id="a_Node000013"><a xlink:title=" ">
<polygon fill="#e0e0e0" stroke="#999999" points="879.5,-215 802.75,-215 802.75,-188.25 879.5,-188.25 879.5,-215"/>
<text text-anchor="middle" x="841.13" y="-195.8" font-family="Helvetica,sans-Serif" font-size="16.00">sqlite3.h</text>
</a>
</g>
</g>
<!-- Node1&#45;&gt;Node13 -->
<g id="edge22_Node000001_Node000013" class="edge">
<title>Node1&#45;&gt;Node13</title>
<g id="a_edge22_Node000001_Node000013"><a xlink:title=" ">
<path fill="none" stroke="#63b8ff" stroke-width="2" d="M544.13,-257.04C600.65,-249.26 697.59,-234.92 789.79,-215.79"/>
<polygon fill="#63b8ff" stroke="#63b8ff" stroke-width="2" points="791.4,-218.6 800.47,-213.12 789.96,-211.75 791.4,-218.6"/>
</a>
</g>
</g>
<!-- Node14 -->
<g id="Node000014" class="node">
<title>Node14</title>
<g id="a_Node000014"><a xlink:title=" ">
<polygon fill="#e0e0e0" stroke="#999999" points="961.13,-215 897.13,-215 897.13,-188.25 961.13,-188.25 961.13,-215"/>
<text text-anchor="middle" x="929.13" y="-195.8" font-family="Helvetica,sans-Serif" font-size="16.00">stdio.h</text>
</a>
</g>
</g>
<!-- Node1&#45;&gt;Node14 -->
<g id="edge24_Node000001_Node000014" class="edge">
<title>Node1&#45;&gt;Node14</title>
<g id="a_edge24_Node000001_Node000014"><a xlink:title=" ">
<path fill="none" stroke="#63b8ff" stroke-width="2" d="M544.23,-260.09C616.27,-254.6 756.56,-241.68 884.67,-215.46"/>
<polygon fill="#63b8ff" stroke="#63b8ff" stroke-width="2" points="885.96,-218.35 895.03,-212.88 884.53,-211.49 885.96,-218.35"/>
</a>
</g>
</g>
<!-- Node15 -->
<g id="Node000015" class="node">
<title>Node15</title>
<g id="a_Node000015"><a xlink:title=" ">
<polygon fill="#e0e0e0" stroke="#999999" points="1047,-215 979.25,-215 979.25,-188.25 1047,-188.25 1047,-215"/>
<text text-anchor="middle" x="1013.13" y="-195.8" font-family="Helvetica,sans-Serif" font-size="16.00">stdlib.h</text>
</a>
</g>
</g>
<!-- Node1&#45;&gt;Node15 -->
<g id="edge25_Node000001_Node000015" class="edge">
<title>Node1&#45;&gt;Node15</title>
<g id="a_edge25_Node000001_Node000015"><a xlink:title=" ">
<path fill="none" stroke="#63b8ff" stroke-width="2" d="M544.31,-261.3C628.26,-257.07 806.85,-245.37 966.55,-215.42"/>
<polygon fill="#63b8ff" stroke="#63b8ff" stroke-width="2" points="967.83,-218.36 976.99,-213.04 966.51,-211.48 967.83,-218.36"/>
</a>
</g>
</g>
<!-- Node16 -->
<g id="Node000016" class="node">
<title>Node16</title>
<g id="a_Node000016"><a xlink:title=" ">
<polygon fill="#e0e0e0" stroke="#999999" points="1134.75,-215 1065.5,-215 1065.5,-188.25 1134.75,-188.25 1134.75,-215"/>
<text text-anchor="middle" x="1100.13" y="-195.8" font-family="Helvetica,sans-Serif" font-size="16.00">string.h</text>
</a>
</g>
</g>
<!-- Node1&#45;&gt;Node16 -->
<g id="edge26_Node000001_Node000016" class="edge">
<title>Node1&#45;&gt;Node16</title>
<g id="a_edge26_Node000001_Node000016"><a xlink:title=" ">
<path fill="none" stroke="#63b8ff" stroke-width="2" d="M544.1,-262.26C639.32,-259.41 858.97,-249.58 1052.49,-215.38"/>
<polygon fill="#63b8ff" stroke="#63b8ff" stroke-width="2" points="1053.98,-218.3 1063.2,-213.09 1052.74,-211.42 1053.98,-218.3"/>
</a>
</g>
</g>
<!-- Node2&#45;&gt;Node3 -->
<g id="edge2_Node000002_Node000003" class="edge">
<title>Node2&#45;&gt;Node3</title>
<g id="a_edge2_Node000002_Node000003"><a xlink:title=" ">
<path fill="none" stroke="#63b8ff" stroke-width="2" d="M218.15,-188.04C211.61,-180.54 203.12,-170.82 195.49,-162.07"/>
<polygon fill="#63b8ff" stroke="#63b8ff" stroke-width="2" points="197.31,-159.68 188.09,-154.45 192.03,-164.28 197.31,-159.68"/>
</a>
</g>
</g>
<!-- Node2&#45;&gt;Node5 -->
<g id="edge9_Node000002_Node000005" class="edge">
<title>Node2&#45;&gt;Node5</title>
<g id="a_edge9_Node000002_Node000005"><a xlink:title=" ">
<path fill="none" stroke="#63b8ff" stroke-width="2" d="M229.2,-187.82C229.36,-157.31 229.78,-79.83 229.99,-39.55"/>
<polygon fill="#63b8ff" stroke="#63b8ff" stroke-width="2" points="233.51,-39.79 230.06,-29.78 226.51,-39.76 233.51,-39.79"/>
</a>
</g>
</g>
<!-- Node2&#45;&gt;Node6 -->
<g id="edge6_Node000002_Node000006" class="edge">
<title>Node2&#45;&gt;Node6</title>
<g id="a_edge6_Node000002_Node000006"><a xlink:title=" ">
<path fill="none" stroke="#63b8ff" stroke-width="2" d="M277.74,-188.11C319.02,-177.49 377.86,-162.34 418.54,-151.87"/>
<polygon fill="#63b8ff" stroke="#63b8ff" stroke-width="2" points="420.26,-154.52 429.07,-148.64 418.51,-147.75 420.26,-154.52"/>
</a>
</g>
</g>
<!-- Node3&#45;&gt;Node4 -->
<g id="edge3_Node000003_Node000004" class="edge">
<title>Node3&#45;&gt;Node4</title>
<g id="a_edge3_Node000003_Node000004"><a xlink:title=" ">
<path fill="none" stroke="#63b8ff" stroke-width="2" d="M201.95,-128.91C231.46,-118.67 280,-101.82 313.67,-90.13"/>
<polygon fill="#63b8ff" stroke="#63b8ff" stroke-width="2" points="315.47,-92.51 323.77,-85.93 313.17,-85.9 315.47,-92.51"/>
</a>
</g>
</g>
<!-- Node3&#45;&gt;Node5 -->
<g id="edge5_Node000003_Node000005" class="edge">
<title>Node3&#45;&gt;Node5</title>
<g id="a_edge5_Node000003_Node000005"><a xlink:title=" ">
<path fill="none" stroke="#63b8ff" stroke-width="2" d="M181.7,-125.12C190.55,-104.88 207.98,-65.02 219.34,-39.05"/>
<polygon fill="#63b8ff" stroke="#63b8ff" stroke-width="2" points="222.7,-39.81 223.5,-29.24 216.29,-37 222.7,-39.81"/>
</a>
</g>
</g>
<!-- Node4&#45;&gt;Node5 -->
<g id="edge4_Node000004_Node000005" class="edge">
<title>Node4&#45;&gt;Node5</title>
<g id="a_edge4_Node000004_Node000005"><a xlink:title=" ">
<path fill="none" stroke="#63b8ff" stroke-width="2" d="M325.76,-62.39C308.74,-53.84 286.04,-42.45 267.03,-32.9"/>
<polygon fill="#63b8ff" stroke="#63b8ff" stroke-width="2" points="267.97,-29.45 257.46,-28.09 264.83,-35.71 267.97,-29.45"/>
</a>
</g>
</g>
<!-- Node6&#45;&gt;Node4 -->
<g id="edge7_Node000006_Node000004" class="edge">
<title>Node6&#45;&gt;Node4</title>
<g id="a_edge7_Node000006_Node000004"><a xlink:title=" ">
<path fill="none" stroke="#63b8ff" stroke-width="2" d="M441.23,-125.14C425.34,-116.68 404.21,-105.41 386.41,-95.92"/>
<polygon fill="#63b8ff" stroke="#63b8ff" stroke-width="2" points="387.47,-92.46 376.99,-90.84 384.17,-98.64 387.47,-92.46"/>
</a>
</g>
</g>
<!-- Node6&#45;&gt;Node5 -->
<g id="edge8_Node000006_Node000005" class="edge">
<title>Node6&#45;&gt;Node5</title>
<g id="a_edge8_Node000006_Node000005"><a xlink:title=" ">
<path fill="none" stroke="#63b8ff" stroke-width="2" d="M454.82,-125.12C440.73,-108.49 413.92,-79.56 385.13,-62.75 353.78,-44.46 314.75,-32.33 283.7,-24.79"/>
<polygon fill="#63b8ff" stroke="#63b8ff" stroke-width="2" points="283.9,-20.78 273.36,-21.93 282.32,-27.6 283.9,-20.78"/>
</a>
</g>
</g>
<!-- Node7&#45;&gt;Node6 -->
<g id="edge11_Node000007_Node000006" class="edge">
<title>Node7&#45;&gt;Node6</title>
<g id="a_edge11_Node000007_Node000006"><a xlink:title=" ">
<path fill="none" stroke="#63b8ff" stroke-width="2" d="M523.79,-188.04C514.23,-180.19 501.69,-169.89 490.66,-160.84"/>
<polygon fill="#63b8ff" stroke="#63b8ff" stroke-width="2" points="492.64,-157.3 482.7,-153.66 488.2,-162.71 492.64,-157.3"/>
</a>
</g>
</g>
<!-- Node8&#45;&gt;Node3 -->
<g id="edge13_Node000008_Node000003" class="edge">
<title>Node8&#45;&gt;Node3</title>
<g id="a_edge13_Node000008_Node000003"><a xlink:title=" ">
<path fill="none" stroke="#63b8ff" stroke-width="2" d="M96.05,-188.04C109.91,-179.7 128.35,-168.61 144.04,-159.17"/>
<polygon fill="#63b8ff" stroke="#63b8ff" stroke-width="2" points="146.11,-161.81 152.88,-153.66 142.51,-155.81 146.11,-161.81"/>
</a>
</g>
</g>
<!-- Node11&#45;&gt;Node4 -->
<g id="edge20_Node000011_Node000004" class="edge">
<title>Node11&#45;&gt;Node4</title>
<g id="a_edge20_Node000011_Node000004"><a xlink:title=" ">
<path fill="none" stroke="#63b8ff" stroke-width="2" d="M342.16,-187.87C343.78,-167.91 346.94,-128.86 349.04,-102.88"/>
<polygon fill="#63b8ff" stroke="#63b8ff" stroke-width="2" points="352.77,-103.24 350.09,-92.99 345.79,-102.68 352.77,-103.24"/>
</a>
</g>
</g>
<!-- Node12 -->
<g id="Node000012" class="node">
<title>Node12</title>
<g id="a_Node000012"><a xlink:title=" ">
<polygon fill="#e0e0e0" stroke="#999999" points="323,-152.25 261.25,-152.25 261.25,-125.5 323,-125.5 323,-152.25"/>
<text text-anchor="middle" x="292.13" y="-133.05" font-family="Helvetica,sans-Serif" font-size="16.00">form.h</text>
</a>
</g>
</g>
<!-- Node11&#45;&gt;Node12 -->
<g id="edge21_Node000011_Node000012" class="edge">
<title>Node11&#45;&gt;Node12</title>
<g id="a_edge21_Node000011_Node000012"><a xlink:title=" ">
<path fill="none" stroke="#63b8ff" stroke-width="2" d="M330.97,-188.04C325,-180.63 317.26,-171.03 310.26,-162.36"/>
<polygon fill="#63b8ff" stroke="#63b8ff" stroke-width="2" points="312.27,-160.03 303.27,-154.45 306.82,-164.43 312.27,-160.03"/>
</a>
</g>
</g>
</g>
</svg>
