<?xml version="1.0" encoding="UTF-8" standalone="no"?>
<!DOCTYPE svg PUBLIC "-//W3C//DTD SVG 1.1//EN"
 "http://www.w3.org/Graphics/SVG/1.1/DTD/svg11.dtd">
<!-- Generated by graphviz version 8.0.5 (0)
 -->
<!-- Title: listViewFreeMenu Pages: 1 -->
<svg width="667pt" height="260pt"
 viewBox="0.00 0.00 666.75 259.75" xmlns="http://www.w3.org/2000/svg" xmlns:xlink="http://www.w3.org/1999/xlink">
<g id="graph0" class="graph" transform="scale(1 1) rotate(0) translate(4 255.75)">
<title>listViewFreeMenu</title>
<!-- Node1 -->
<g id="Node000001" class="node">
<title>Node1</title>
<g id="a_Node000001"><a xlink:title="frees memory used by listView internal Menu">
<polygon fill="#999999" stroke="#666666" points="658.75,-127.75 514.5,-127.75 514.5,-101 658.75,-101 658.75,-127.75"/>
<text text-anchor="middle" x="586.62" y="-108.55" font-family="Helvetica,sans-Serif" font-size="16.00">listViewFreeMenu</text>
</a>
</g>
</g>
<!-- Node2 -->
<g id="Node000002" class="node">
<title>Node2</title>
<g id="a_Node000002"><a xlink:href="../../d7/dba/menuutil_8c.html#aca301edf9d04aa391571851b148355ba" target="_top" xlink:title="List Viewer for lists.">
<polygon fill="white" stroke="#666666" points="478.5,-127.75 359.75,-127.75 359.75,-101 478.5,-101 478.5,-127.75"/>
<text text-anchor="middle" x="419.12" y="-108.55" font-family="Helvetica,sans-Serif" font-size="16.00">listViewInvoke</text>
</a>
</g>
</g>
<!-- Node1&#45;&gt;Node2 -->
<g id="edge1_Node000001_Node000002" class="edge">
<title>Node1&#45;&gt;Node2</title>
<g id="a_edge1_Node000001_Node000002"><a xlink:title=" ">
<path fill="none" stroke="#63b8ff" stroke-width="2" d="M501.55,-114.38C493.85,-114.38 486.17,-114.38 478.77,-114.38"/>
<polygon fill="#63b8ff" stroke="#63b8ff" stroke-width="2" points="501.48,-117.88 511.48,-114.38 501.48,-110.88 501.48,-117.88"/>
</a>
</g>
</g>
<!-- Node3 -->
<g id="Node000003" class="node">
<title>Node3</title>
<g id="a_Node000003"><a xlink:href="../../dc/dc6/carsmenu_8c.html#ad451b82b7f3d31d1bb3fc4c210941579" target="_top" xlink:title="Invokes the listView of cars.">
<polygon fill="white" stroke="#666666" points="315.88,-172.75 221.88,-172.75 221.88,-146 315.88,-146 315.88,-172.75"/>
<text text-anchor="middle" x="268.88" y="-153.55" font-family="Helvetica,sans-Serif" font-size="16.00">carChoose</text>
</a>
</g>
</g>
<!-- Node2&#45;&gt;Node3 -->
<g id="edge2_Node000002_Node000003" class="edge">
<title>Node2&#45;&gt;Node3</title>
<g id="a_edge2_Node000002_Node000003"><a xlink:title=" ">
<path fill="none" stroke="#63b8ff" stroke-width="2" d="M360.22,-131.95C345.35,-136.47 329.56,-141.26 315.41,-145.55"/>
<polygon fill="#63b8ff" stroke="#63b8ff" stroke-width="2" points="361.88,-134.5 370.44,-128.24 359.85,-127.8 361.88,-134.5"/>
</a>
</g>
</g>
<!-- Node14 -->
<g id="Node000014" class="node">
<title>Node14</title>
<g id="a_Node000014"><a xlink:href="../../da/de9/clientsmenu_8c.html#a1d711b31a5a18af01cdd582e537ff921" target="_top" xlink:title="Invokes ListView of clients.">
<polygon fill="white" stroke="#666666" points="323.75,-105.75 214,-105.75 214,-79 323.75,-79 323.75,-105.75"/>
<text text-anchor="middle" x="268.88" y="-86.55" font-family="Helvetica,sans-Serif" font-size="16.00">clientChoose</text>
</a>
</g>
</g>
<!-- Node2&#45;&gt;Node14 -->
<g id="edge6_Node000002_Node000014" class="edge">
<title>Node2&#45;&gt;Node14</title>
<g id="a_edge6_Node000002_Node000014"><a xlink:title=" ">
<path fill="none" stroke="#63b8ff" stroke-width="2" d="M346.82,-103.79C339.2,-102.66 331.55,-101.53 324.18,-100.43"/>
<polygon fill="#63b8ff" stroke="#63b8ff" stroke-width="2" points="347.13,-107.67 357.53,-105.68 348.15,-100.75 347.13,-107.67"/>
</a>
</g>
</g>
<!-- Node4 -->
<g id="Node000004" class="node">
<title>Node4</title>
<g id="a_Node000004"><a xlink:href="../../dc/dc6/carsmenu_8c.html#a04e2543edc445ed8a4cbd29b3466a07d" target="_top" xlink:title="Wrapper around carChoose frees extracted car instanntly.">
<polygon fill="#fff0f0" stroke="red" points="170.12,-251.75 7.88,-251.75 7.88,-225 170.12,-225 170.12,-251.75"/>
<text text-anchor="middle" x="89" y="-232.55" font-family="Helvetica,sans-Serif" font-size="16.00">carChooseNoReturn</text>
</a>
</g>
</g>
<!-- Node3&#45;&gt;Node4 -->
<g id="edge3_Node000003_Node000004" class="edge">
<title>Node3&#45;&gt;Node4</title>
<g id="a_edge3_Node000003_Node000004"><a xlink:title=" ">
<path fill="none" stroke="#63b8ff" stroke-width="2" d="M239.14,-180.41C222.07,-192.08 199.61,-206.07 178,-215.38 169.88,-218.87 161.1,-221.94 152.34,-224.6"/>
<polygon fill="#63b8ff" stroke="#63b8ff" stroke-width="2" points="241.32,-182.75 247.51,-174.14 237.31,-177.01 241.32,-182.75"/>
</a>
</g>
</g>
<!-- Node12 -->
<g id="Node000012" class="node">
<title>Node12</title>
<g id="a_Node000012"><a xlink:href="../../dc/dc6/carsmenu_8c.html#acf8ae724beca8714d7d114a7f2539895" target="_top" xlink:title="Edit car.">
<polygon fill="#fff0f0" stroke="red" points="122.12,-206.75 55.88,-206.75 55.88,-180 122.12,-180 122.12,-206.75"/>
<text text-anchor="middle" x="89" y="-187.55" font-family="Helvetica,sans-Serif" font-size="16.00">carEdit</text>
</a>
</g>
</g>
<!-- Node3&#45;&gt;Node12 -->
<g id="edge4_Node000003_Node000012" class="edge">
<title>Node3&#45;&gt;Node12</title>
<g id="a_edge4_Node000003_Node000012"><a xlink:title=" ">
<path fill="none" stroke="#63b8ff" stroke-width="2" d="M209.17,-170.6C180.36,-176.1 146.74,-182.53 122.57,-187.15"/>
<polygon fill="#63b8ff" stroke="#63b8ff" stroke-width="2" points="210.44,-173.53 219.6,-168.22 209.13,-166.66 210.44,-173.53"/>
</a>
</g>
</g>
<!-- Node13 -->
<g id="Node000013" class="node">
<title>Node13</title>
<g id="a_Node000013"><a xlink:href="../../dc/dc6/carsmenu_8c.html#a76be213354bbaa3d64a095bafa1ec8d2" target="_top" xlink:title="Removes a car.">
<polygon fill="#fff0f0" stroke="red" points="138.25,-161.75 39.75,-161.75 39.75,-135 138.25,-135 138.25,-161.75"/>
<text text-anchor="middle" x="89" y="-142.55" font-family="Helvetica,sans-Serif" font-size="16.00">carRemove</text>
</a>
</g>
</g>
<!-- Node3&#45;&gt;Node13 -->
<g id="edge5_Node000003_Node000013" class="edge">
<title>Node3&#45;&gt;Node13</title>
<g id="a_edge5_Node000003_Node000013"><a xlink:title=" ">
<path fill="none" stroke="#63b8ff" stroke-width="2" d="M208.92,-155.73C186.08,-154.32 160.26,-152.72 138.52,-151.38"/>
<polygon fill="#63b8ff" stroke="#63b8ff" stroke-width="2" points="208.41,-159.39 218.6,-156.51 208.84,-152.4 208.41,-159.39"/>
</a>
</g>
</g>
<!-- Node15 -->
<g id="Node000015" class="node">
<title>Node15</title>
<g id="a_Node000015"><a xlink:href="../../da/de9/clientsmenu_8c.html#a1aa5fbc029a7e320bf6f6c3a2e6e27cc" target="_top" xlink:title="Wrapper around clientChoose frees extracted client instanntly.">
<polygon fill="#fff0f0" stroke="red" points="178,-116.75 0,-116.75 0,-90 178,-90 178,-116.75"/>
<text text-anchor="middle" x="89" y="-97.55" font-family="Helvetica,sans-Serif" font-size="16.00">clientChooseNoReturn</text>
</a>
</g>
</g>
<!-- Node14&#45;&gt;Node15 -->
<g id="edge7_Node000014_Node000015" class="edge">
<title>Node14&#45;&gt;Node15</title>
<g id="a_edge7_Node000014_Node000015"><a xlink:title=" ">
<path fill="none" stroke="#63b8ff" stroke-width="2" d="M200.7,-96.53C193.41,-96.98 185.92,-97.44 178.43,-97.91"/>
<polygon fill="#63b8ff" stroke="#63b8ff" stroke-width="2" points="200.78,-99.85 210.54,-95.74 200.34,-92.86 200.78,-99.85"/>
</a>
</g>
</g>
<!-- Node16 -->
<g id="Node000016" class="node">
<title>Node16</title>
<g id="a_Node000016"><a xlink:href="../../da/de9/clientsmenu_8c.html#a3785053dd7fa7ee54cb52674dadf5941" target="_top" xlink:title="Edit client.">
<polygon fill="#fff0f0" stroke="red" points="130,-71.75 48,-71.75 48,-45 130,-45 130,-71.75"/>
<text text-anchor="middle" x="89" y="-52.55" font-family="Helvetica,sans-Serif" font-size="16.00">clientEdit</text>
</a>
</g>
</g>
<!-- Node14&#45;&gt;Node16 -->
<g id="edge8_Node000014_Node000016" class="edge">
<title>Node14&#45;&gt;Node16</title>
<g id="a_edge8_Node000014_Node000016"><a xlink:title=" ">
<path fill="none" stroke="#63b8ff" stroke-width="2" d="M201,-79.59C177.27,-75.06 151.3,-70.09 130.45,-66.11"/>
<polygon fill="#63b8ff" stroke="#63b8ff" stroke-width="2" points="201.06,-83.55 211.54,-81.99 202.38,-76.67 201.06,-83.55"/>
</a>
</g>
</g>
<!-- Node17 -->
<g id="Node000017" class="node">
<title>Node17</title>
<g id="a_Node000017"><a xlink:href="../../da/de9/clientsmenu_8c.html#ae81aa78f6e32fdd87e554ba85c063111" target="_top" xlink:title="Remove client.">
<polygon fill="#fff0f0" stroke="red" points="146.12,-26.75 31.88,-26.75 31.88,0 146.12,0 146.12,-26.75"/>
<text text-anchor="middle" x="89" y="-7.55" font-family="Helvetica,sans-Serif" font-size="16.00">clientRemove</text>
</a>
</g>
</g>
<!-- Node14&#45;&gt;Node17 -->
<g id="edge9_Node000014_Node000017" class="edge">
<title>Node14&#45;&gt;Node17</title>
<g id="a_edge9_Node000014_Node000017"><a xlink:title=" ">
<path fill="none" stroke="#63b8ff" stroke-width="2" d="M239.14,-71.34C222.07,-59.67 199.61,-45.68 178,-36.38 167.99,-32.07 156.99,-28.41 146.25,-25.37"/>
<polygon fill="#63b8ff" stroke="#63b8ff" stroke-width="2" points="237.31,-74.74 247.51,-77.61 241.32,-69 237.31,-74.74"/>
</a>
</g>
</g>
</g>
</svg>
