<?xml version="1.0" encoding="UTF-8" standalone="no"?>
<!DOCTYPE svg PUBLIC "-//W3C//DTD SVG 1.1//EN"
 "http://www.w3.org/Graphics/SVG/1.1/DTD/svg11.dtd">
<!-- Generated by graphviz version 8.0.5 (0)
 -->
<!-- Title: formFree Pages: 1 -->
<svg width="504pt" height="170pt"
 viewBox="0.00 0.00 504.00 169.75" xmlns="http://www.w3.org/2000/svg" xmlns:xlink="http://www.w3.org/1999/xlink">
<g id="graph0" class="graph" transform="scale(1 1) rotate(0) translate(4 165.75)">
<title>formFree</title>
<!-- Node1 -->
<g id="Node000001" class="node">
<title>Node1</title>
<g id="a_Node000001"><a xlink:title="Frees memory used for form, and it&#39;s fields.">
<polygon fill="#999999" stroke="#666666" points="496,-93.75 414.75,-93.75 414.75,-67 496,-67 496,-93.75"/>
<text text-anchor="middle" x="455.38" y="-74.55" font-family="Helvetica,sans-Serif" font-size="16.00">formFree</text>
</a>
</g>
</g>
<!-- Node2 -->
<g id="Node000002" class="node">
<title>Node2</title>
<g id="a_Node000002"><a xlink:href="../../dc/dc6/carsmenu_8c.html#a30a34923bcd0082000de90700343bd84" target="_top" xlink:title="Function for editing car.">
<polygon fill="white" stroke="#666666" points="370.88,-116.75 267.12,-116.75 267.12,-90 370.88,-90 370.88,-116.75"/>
<text text-anchor="middle" x="319" y="-97.55" font-family="Helvetica,sans-Serif" font-size="16.00">carFormEdit</text>
</a>
</g>
</g>
<!-- Node1&#45;&gt;Node2 -->
<g id="edge1_Node000001_Node000002" class="edge">
<title>Node1&#45;&gt;Node2</title>
<g id="a_edge1_Node000001_Node000002"><a xlink:title=" ">
<path fill="none" stroke="#63b8ff" stroke-width="2" d="M401.89,-89.36C391.75,-91.09 381.13,-92.91 371.03,-94.64"/>
<polygon fill="#63b8ff" stroke="#63b8ff" stroke-width="2" points="403.16,-92.35 412.42,-87.21 401.97,-85.45 403.16,-92.35"/>
</a>
</g>
</g>
<!-- Node12 -->
<g id="Node000012" class="node">
<title>Node12</title>
<g id="a_Node000012"><a xlink:href="../../da/de9/clientsmenu_8c.html#a6edce5784156f2643efd7ccc086716e3" target="_top" xlink:title="Function for editing client.">
<polygon fill="white" stroke="#666666" points="378.75,-71.75 259.25,-71.75 259.25,-45 378.75,-45 378.75,-71.75"/>
<text text-anchor="middle" x="319" y="-52.55" font-family="Helvetica,sans-Serif" font-size="16.00">clientFormEdit</text>
</a>
</g>
</g>
<!-- Node1&#45;&gt;Node12 -->
<g id="edge6_Node000001_Node000012" class="edge">
<title>Node1&#45;&gt;Node12</title>
<g id="a_edge6_Node000001_Node000012"><a xlink:title=" ">
<path fill="none" stroke="#63b8ff" stroke-width="2" d="M401.83,-71.77C394.41,-70.56 386.74,-69.3 379.2,-68.07"/>
<polygon fill="#63b8ff" stroke="#63b8ff" stroke-width="2" points="401.99,-75.67 412.42,-73.83 403.12,-68.76 401.99,-75.67"/>
</a>
</g>
</g>
<!-- Node3 -->
<g id="Node000003" class="node">
<title>Node3</title>
<g id="a_Node000003"><a xlink:href="../../dc/dc6/carsmenu_8c.html#a920be2aa6ca8626fdd965865d26f3fd4" target="_top" xlink:title="Function for adding a car.">
<polygon fill="white" stroke="#666666" points="215.38,-161.75 146.88,-161.75 146.88,-135 215.38,-135 215.38,-161.75"/>
<text text-anchor="middle" x="181.12" y="-142.55" font-family="Helvetica,sans-Serif" font-size="16.00">addCar</text>
</a>
</g>
</g>
<!-- Node2&#45;&gt;Node3 -->
<g id="edge2_Node000002_Node000003" class="edge">
<title>Node2&#45;&gt;Node3</title>
<g id="a_edge2_Node000002_Node000003"><a xlink:title=" ">
<path fill="none" stroke="#63b8ff" stroke-width="2" d="M263.89,-121.29C247.53,-126.71 230.05,-132.5 215.46,-137.33"/>
<polygon fill="#63b8ff" stroke="#63b8ff" stroke-width="2" points="265.73,-123.71 274.12,-117.24 263.53,-117.07 265.73,-123.71"/>
</a>
</g>
</g>
<!-- Node11 -->
<g id="Node000011" class="node">
<title>Node11</title>
<g id="a_Node000011"><a xlink:href="../../dc/dc6/carsmenu_8c.html#acf8ae724beca8714d7d114a7f2539895" target="_top" xlink:title="Edit car.">
<polygon fill="white" stroke="#666666" points="214.25,-116.75 148,-116.75 148,-90 214.25,-90 214.25,-116.75"/>
<text text-anchor="middle" x="181.12" y="-97.55" font-family="Helvetica,sans-Serif" font-size="16.00">carEdit</text>
</a>
</g>
</g>
<!-- Node2&#45;&gt;Node11 -->
<g id="edge4_Node000002_Node000011" class="edge">
<title>Node2&#45;&gt;Node11</title>
<g id="a_edge4_Node000002_Node000011"><a xlink:title=" ">
<path fill="none" stroke="#63b8ff" stroke-width="2" d="M253.76,-103.38C240.2,-103.38 226.44,-103.38 214.66,-103.38"/>
<polygon fill="#63b8ff" stroke="#63b8ff" stroke-width="2" points="253.63,-106.88 263.63,-103.38 253.63,-99.88 253.63,-106.88"/>
</a>
</g>
</g>
<!-- Node4 -->
<g id="Node000004" class="node">
<title>Node4</title>
<g id="a_Node000004"><a xlink:href="../../dc/dc6/carsmenu_8c.html#a7adcbb9b8798811ec24e33760623ebc0" target="_top" xlink:title="Handles displaying of cars menu.">
<polygon fill="#fff0f0" stroke="red" points="95.12,-127.75 7.88,-127.75 7.88,-101 95.12,-101 95.12,-127.75"/>
<text text-anchor="middle" x="51.5" y="-108.55" font-family="Helvetica,sans-Serif" font-size="16.00">carsMenu</text>
</a>
</g>
</g>
<!-- Node3&#45;&gt;Node4 -->
<g id="edge3_Node000003_Node000004" class="edge">
<title>Node3&#45;&gt;Node4</title>
<g id="a_edge3_Node000003_Node000004"><a xlink:title=" ">
<path fill="none" stroke="#63b8ff" stroke-width="2" d="M134.34,-136.18C121.66,-132.8 107.94,-129.15 95.43,-125.81"/>
<polygon fill="#63b8ff" stroke="#63b8ff" stroke-width="2" points="134.03,-140.25 144.59,-139.44 135.83,-133.49 134.03,-140.25"/>
</a>
</g>
</g>
<!-- Node11&#45;&gt;Node4 -->
<g id="edge5_Node000011_Node000004" class="edge">
<title>Node11&#45;&gt;Node4</title>
<g id="a_edge5_Node000011_Node000004"><a xlink:title=" ">
<path fill="none" stroke="#63b8ff" stroke-width="2" d="M134.78,-107.28C122.03,-108.38 108.2,-109.57 95.58,-110.66"/>
<polygon fill="#63b8ff" stroke="#63b8ff" stroke-width="2" points="134.93,-110.53 144.59,-106.18 134.33,-103.55 134.93,-110.53"/>
</a>
</g>
</g>
<!-- Node13 -->
<g id="Node000013" class="node">
<title>Node13</title>
<g id="a_Node000013"><a xlink:href="../../da/de9/clientsmenu_8c.html#a37a5ed3b8a63a9497f34682ce7db3126" target="_top" xlink:title="function for adding client;">
<polygon fill="white" stroke="#666666" points="223.25,-71.75 139,-71.75 139,-45 223.25,-45 223.25,-71.75"/>
<text text-anchor="middle" x="181.12" y="-52.55" font-family="Helvetica,sans-Serif" font-size="16.00">addClient</text>
</a>
</g>
</g>
<!-- Node12&#45;&gt;Node13 -->
<g id="edge7_Node000012_Node000013" class="edge">
<title>Node12&#45;&gt;Node13</title>
<g id="a_edge7_Node000012_Node000013"><a xlink:title=" ">
<path fill="none" stroke="#63b8ff" stroke-width="2" d="M245.93,-58.38C238.28,-58.38 230.7,-58.38 223.58,-58.38"/>
<polygon fill="#63b8ff" stroke="#63b8ff" stroke-width="2" points="245.8,-61.88 255.8,-58.38 245.8,-54.88 245.8,-61.88"/>
</a>
</g>
</g>
<!-- Node14 -->
<g id="Node000014" class="node">
<title>Node14</title>
<g id="a_Node000014"><a xlink:href="../../da/de9/clientsmenu_8c.html#a3785053dd7fa7ee54cb52674dadf5941" target="_top" xlink:title="Edit client.">
<polygon fill="white" stroke="#666666" points="222.12,-26.75 140.12,-26.75 140.12,0 222.12,0 222.12,-26.75"/>
<text text-anchor="middle" x="181.12" y="-7.55" font-family="Helvetica,sans-Serif" font-size="16.00">clientEdit</text>
</a>
</g>
</g>
<!-- Node12&#45;&gt;Node14 -->
<g id="edge9_Node000012_Node000014" class="edge">
<title>Node12&#45;&gt;Node14</title>
<g id="a_edge9_Node000012_Node000014"><a xlink:title=" ">
<path fill="none" stroke="#63b8ff" stroke-width="2" d="M264.13,-40.53C250.16,-35.91 235.36,-31.01 222.23,-26.66"/>
<polygon fill="#63b8ff" stroke="#63b8ff" stroke-width="2" points="263.53,-44.68 274.12,-44.51 265.73,-38.04 263.53,-44.68"/>
</a>
</g>
</g>
<!-- Node9 -->
<g id="Node000009" class="node">
<title>Node9</title>
<g id="a_Node000009"><a xlink:href="../../da/de9/clientsmenu_8c.html#ad2a8354e045a2d4deb82f4b3b20ad5a4" target="_top" xlink:title="Handles displaying of clients menu.">
<polygon fill="#fff0f0" stroke="red" points="103,-60.75 0,-60.75 0,-34 103,-34 103,-60.75"/>
<text text-anchor="middle" x="51.5" y="-41.55" font-family="Helvetica,sans-Serif" font-size="16.00">clientsMenu</text>
</a>
</g>
</g>
<!-- Node13&#45;&gt;Node9 -->
<g id="edge8_Node000013_Node000009" class="edge">
<title>Node13&#45;&gt;Node9</title>
<g id="a_edge8_Node000013_Node000009"><a xlink:title=" ">
<path fill="none" stroke="#63b8ff" stroke-width="2" d="M125.83,-53.7C118.29,-53.05 110.56,-52.38 103.09,-51.74"/>
<polygon fill="#63b8ff" stroke="#63b8ff" stroke-width="2" points="125.43,-57.43 135.69,-54.8 126.03,-50.46 125.43,-57.43"/>
</a>
</g>
</g>
<!-- Node14&#45;&gt;Node9 -->
<g id="edge10_Node000014_Node000009" class="edge">
<title>Node14&#45;&gt;Node9</title>
<g id="a_edge10_Node000014_Node000009"><a xlink:title=" ">
<path fill="none" stroke="#63b8ff" stroke-width="2" d="M127.21,-27.47C119.34,-29.57 111.23,-31.73 103.4,-33.82"/>
<polygon fill="#63b8ff" stroke="#63b8ff" stroke-width="2" points="128.98,-30.09 137.74,-24.13 127.18,-23.33 128.98,-30.09"/>
</a>
</g>
</g>
</g>
</svg>
