<?xml version="1.0" encoding="UTF-8" standalone="no"?>
<!DOCTYPE svg PUBLIC "-//W3C//DTD SVG 1.1//EN"
 "http://www.w3.org/Graphics/SVG/1.1/DTD/svg11.dtd">
<!-- Generated by graphviz version 8.0.5 (0)
 -->
<!-- Title: formHandleIteraction Pages: 1 -->
<svg width="582pt" height="170pt"
 viewBox="0.00 0.00 582.00 169.75" xmlns="http://www.w3.org/2000/svg" xmlns:xlink="http://www.w3.org/1999/xlink">
<g id="graph0" class="graph" transform="scale(1 1) rotate(0) translate(4 165.75)">
<title>formHandleIteraction</title>
<!-- Node1 -->
<g id="Node000001" class="node">
<title>Node1</title>
<g id="a_Node000001"><a xlink:title="Manages input in the form.">
<polygon fill="#999999" stroke="#666666" points="574,-93.75 408,-93.75 408,-67 574,-67 574,-93.75"/>
<text text-anchor="middle" x="491" y="-74.55" font-family="Helvetica,sans-Serif" font-size="16.00">formHandleIteraction</text>
</a>
</g>
</g>
<!-- Node2 -->
<g id="Node000002" class="node">
<title>Node2</title>
<g id="a_Node000002"><a xlink:href="../../d7/dba/menuutil_8c.html#af8f262005a4975cc6ccc3423d939f910" target="_top" xlink:title="Put form on screen in nice looking form.">
<polygon fill="white" stroke="#666666" points="372,-93.75 275.75,-93.75 275.75,-67 372,-67 372,-93.75"/>
<text text-anchor="middle" x="323.88" y="-74.55" font-family="Helvetica,sans-Serif" font-size="16.00">formInvoke</text>
</a>
</g>
</g>
<!-- Node1&#45;&gt;Node2 -->
<g id="edge1_Node000001_Node000002" class="edge">
<title>Node1&#45;&gt;Node2</title>
<g id="a_edge1_Node000001_Node000002"><a xlink:title=" ">
<path fill="none" stroke="#63b8ff" stroke-width="2" d="M394.99,-80.38C387.09,-80.38 379.35,-80.38 372.06,-80.38"/>
<polygon fill="#63b8ff" stroke="#63b8ff" stroke-width="2" points="394.92,-83.88 404.92,-80.38 394.92,-76.88 394.92,-83.88"/>
</a>
</g>
</g>
<!-- Node3 -->
<g id="Node000003" class="node">
<title>Node3</title>
<g id="a_Node000003"><a xlink:href="../../dc/dc6/carsmenu_8c.html#a30a34923bcd0082000de90700343bd84" target="_top" xlink:title="Function for editing car.">
<polygon fill="white" stroke="#666666" points="231.88,-116.75 128.12,-116.75 128.12,-90 231.88,-90 231.88,-116.75"/>
<text text-anchor="middle" x="180" y="-97.55" font-family="Helvetica,sans-Serif" font-size="16.00">carFormEdit</text>
</a>
</g>
</g>
<!-- Node2&#45;&gt;Node3 -->
<g id="edge2_Node000002_Node000003" class="edge">
<title>Node2&#45;&gt;Node3</title>
<g id="a_edge2_Node000002_Node000003"><a xlink:title=" ">
<path fill="none" stroke="#63b8ff" stroke-width="2" d="M262.84,-90.11C252.55,-91.78 241.95,-93.49 231.94,-95.12"/>
<polygon fill="#63b8ff" stroke="#63b8ff" stroke-width="2" points="264.32,-93.09 273.63,-88.03 263.2,-86.18 264.32,-93.09"/>
</a>
</g>
</g>
<!-- Node13 -->
<g id="Node000013" class="node">
<title>Node13</title>
<g id="a_Node000013"><a xlink:href="../../da/de9/clientsmenu_8c.html#a6edce5784156f2643efd7ccc086716e3" target="_top" xlink:title="Function for editing client.">
<polygon fill="white" stroke="#666666" points="239.75,-71.75 120.25,-71.75 120.25,-45 239.75,-45 239.75,-71.75"/>
<text text-anchor="middle" x="180" y="-52.55" font-family="Helvetica,sans-Serif" font-size="16.00">clientFormEdit</text>
</a>
</g>
</g>
<!-- Node2&#45;&gt;Node13 -->
<g id="edge5_Node000002_Node000013" class="edge">
<title>Node2&#45;&gt;Node13</title>
<g id="a_edge5_Node000002_Node000013"><a xlink:title=" ">
<path fill="none" stroke="#63b8ff" stroke-width="2" d="M262.81,-71.06C255.31,-69.9 247.64,-68.71 240.15,-67.55"/>
<polygon fill="#63b8ff" stroke="#63b8ff" stroke-width="2" points="263.21,-74.98 273.63,-73.05 264.29,-68.06 263.21,-74.98"/>
</a>
</g>
</g>
<!-- Node4 -->
<g id="Node000004" class="node">
<title>Node4</title>
<g id="a_Node000004"><a xlink:href="../../dc/dc6/carsmenu_8c.html#a920be2aa6ca8626fdd965865d26f3fd4" target="_top" xlink:title="Function for adding a car.">
<polygon fill="#fff0f0" stroke="red" points="76.38,-161.75 7.88,-161.75 7.88,-135 76.38,-135 76.38,-161.75"/>
<text text-anchor="middle" x="42.12" y="-142.55" font-family="Helvetica,sans-Serif" font-size="16.00">addCar</text>
</a>
</g>
</g>
<!-- Node3&#45;&gt;Node4 -->
<g id="edge3_Node000003_Node000004" class="edge">
<title>Node3&#45;&gt;Node4</title>
<g id="a_edge3_Node000003_Node000004"><a xlink:title=" ">
<path fill="none" stroke="#63b8ff" stroke-width="2" d="M124.89,-121.29C108.53,-126.71 91.05,-132.5 76.46,-137.33"/>
<polygon fill="#63b8ff" stroke="#63b8ff" stroke-width="2" points="126.73,-123.71 135.12,-117.24 124.53,-117.07 126.73,-123.71"/>
</a>
</g>
</g>
<!-- Node12 -->
<g id="Node000012" class="node">
<title>Node12</title>
<g id="a_Node000012"><a xlink:href="../../dc/dc6/carsmenu_8c.html#acf8ae724beca8714d7d114a7f2539895" target="_top" xlink:title="Edit car.">
<polygon fill="#fff0f0" stroke="red" points="75.25,-116.75 9,-116.75 9,-90 75.25,-90 75.25,-116.75"/>
<text text-anchor="middle" x="42.12" y="-97.55" font-family="Helvetica,sans-Serif" font-size="16.00">carEdit</text>
</a>
</g>
</g>
<!-- Node3&#45;&gt;Node12 -->
<g id="edge4_Node000003_Node000012" class="edge">
<title>Node3&#45;&gt;Node12</title>
<g id="a_edge4_Node000003_Node000012"><a xlink:title=" ">
<path fill="none" stroke="#63b8ff" stroke-width="2" d="M114.76,-103.38C101.2,-103.38 87.44,-103.38 75.66,-103.38"/>
<polygon fill="#63b8ff" stroke="#63b8ff" stroke-width="2" points="114.63,-106.88 124.63,-103.38 114.63,-99.88 114.63,-106.88"/>
</a>
</g>
</g>
<!-- Node14 -->
<g id="Node000014" class="node">
<title>Node14</title>
<g id="a_Node000014"><a xlink:href="../../da/de9/clientsmenu_8c.html#a37a5ed3b8a63a9497f34682ce7db3126" target="_top" xlink:title="function for adding client;">
<polygon fill="#fff0f0" stroke="red" points="84.25,-71.75 0,-71.75 0,-45 84.25,-45 84.25,-71.75"/>
<text text-anchor="middle" x="42.12" y="-52.55" font-family="Helvetica,sans-Serif" font-size="16.00">addClient</text>
</a>
</g>
</g>
<!-- Node13&#45;&gt;Node14 -->
<g id="edge6_Node000013_Node000014" class="edge">
<title>Node13&#45;&gt;Node14</title>
<g id="a_edge6_Node000013_Node000014"><a xlink:title=" ">
<path fill="none" stroke="#63b8ff" stroke-width="2" d="M106.93,-58.38C99.28,-58.38 91.7,-58.38 84.58,-58.38"/>
<polygon fill="#63b8ff" stroke="#63b8ff" stroke-width="2" points="106.8,-61.88 116.8,-58.38 106.8,-54.88 106.8,-61.88"/>
</a>
</g>
</g>
<!-- Node15 -->
<g id="Node000015" class="node">
<title>Node15</title>
<g id="a_Node000015"><a xlink:href="../../da/de9/clientsmenu_8c.html#a3785053dd7fa7ee54cb52674dadf5941" target="_top" xlink:title="Edit client.">
<polygon fill="#fff0f0" stroke="red" points="83.12,-26.75 1.12,-26.75 1.12,0 83.12,0 83.12,-26.75"/>
<text text-anchor="middle" x="42.12" y="-7.55" font-family="Helvetica,sans-Serif" font-size="16.00">clientEdit</text>
</a>
</g>
</g>
<!-- Node13&#45;&gt;Node15 -->
<g id="edge7_Node000013_Node000015" class="edge">
<title>Node13&#45;&gt;Node15</title>
<g id="a_edge7_Node000013_Node000015"><a xlink:title=" ">
<path fill="none" stroke="#63b8ff" stroke-width="2" d="M125.13,-40.53C111.16,-35.91 96.36,-31.01 83.23,-26.66"/>
<polygon fill="#63b8ff" stroke="#63b8ff" stroke-width="2" points="124.53,-44.68 135.12,-44.51 126.73,-38.04 124.53,-44.68"/>
</a>
</g>
</g>
</g>
</svg>
