<?xml version="1.0" encoding="UTF-8" standalone="no"?>
<!DOCTYPE svg PUBLIC "-//W3C//DTD SVG 1.1//EN"
 "http://www.w3.org/Graphics/SVG/1.1/DTD/svg11.dtd">
<!-- Generated by graphviz version 8.0.5 (0)
 -->
<!-- Title: menuUtilMessagebox Pages: 1 -->
<!--zoomable 589 -->

<svg id="main" version="1.1" xmlns="http://www.w3.org/2000/svg" xmlns:xlink="http://www.w3.org/1999/xlink" xml:space="preserve" onload="init(evt)">
<style type="text/css"><![CDATA[
.node, .edge {opacity: 0.7;}
.node.selected, .edge.selected {opacity: 1;}
.edge:hover path { stroke: red; }
.edge:hover polygon { stroke: red; fill: red; }
]]></style>

<defs>
  <circle id="rim" cx="0" cy="0" r="7"/>
  <circle id="rim2" cx="0" cy="0" r="3.5"/>
  <g id="zoomPlus">
    <use xlink:href="#rim" fill="#404040"><set attributeName="fill" to="#808080" begin="zoomplus.mouseover" end="zoomplus.mouseout"/></use>
    <path d="M-4,0h8M0,-4v8" fill="none" stroke="white" stroke-width="1.5" pointer-events="none"/>
  </g>
  <g id="zoomMin">
    <use xlink:href="#rim" fill="#404040"><set attributeName="fill" to="#808080" begin="zoomminus.mouseover" end="zoomminus.mouseout"/></use>
    <path d="M-4,0h8" fill="none" stroke="white" stroke-width="1.5" pointer-events="none"/>
  </g>
  <g id="arrowUp" transform="translate(30 24)">
    <use xlink:href="#rim"/>
    <path pointer-events="none" fill="none" stroke="white" stroke-width="1.5" d="M0,-3.0v7 M-2.5,-0.5L0,-3.0L2.5,-0.5"/>
  </g>
  <g id="arrowRight" transform="rotate(90) translate(36 -43)">
    <use xlink:href="#rim"/>
    <path pointer-events="none" fill="none" stroke="white" stroke-width="1.5" d="M0,-3.0v7 M-2.5,-0.5L0,-3.0L2.5,-0.5"/>
  </g>
  <g id="arrowDown" transform="rotate(180) translate(-30 -48)">
    <use xlink:href="#rim"/>
    <path pointer-events="none" fill="none" stroke="white" stroke-width="1.5" d="M0,-3.0v7 M-2.5,-0.5L0,-3.0L2.5,-0.5"/>
  </g>
  <g id="arrowLeft" transform="rotate(270) translate(-36 17)">
    <use xlink:href="#rim"/>
    <path pointer-events="none" fill="none" stroke="white" stroke-width="1.5" d="M0,-3.0v7 M-2.5,-0.5L0,-3.0L2.5,-0.5"/>
  </g>
  <g id="resetDef">
    <use xlink:href="#rim2" fill="#404040"><set attributeName="fill" to="#808080" begin="reset.mouseover" end="reset.mouseout"/></use>
  </g>
</defs>
<script type="application/ecmascript">
var viewWidth = 770;
var viewHeight = 589;
var sectionId = 'dynsection-22';
</script>
<script type="application/ecmascript" xlink:href="../../svg.min.js"/>
<svg id="graph" class="graph">
<g id="viewport">
<title>menuUtilMessagebox</title>
<!-- Node1 -->
<g id="Node000001" class="node">
<title>Node1</title>
<g id="a_Node000001"><a xlink:title="Displays message box on the screen with title and message.">
<polygon fill="#999999" stroke="#666666" points="762.25,-308.75 590.25,-308.75 590.25,-282 762.25,-282 762.25,-308.75"/>
<text text-anchor="middle" x="676.25" y="-289.55" font-family="Helvetica,sans-Serif" font-size="16.00">menuUtilMessagebox</text>
</a>
</g>
</g>
<!-- Node2 -->
<g id="Node000002" class="node">
<title>Node2</title>
<g id="a_Node000002"><a xlink:href="../../dc/dc6/carsmenu_8c.html#a920be2aa6ca8626fdd965865d26f3fd4" target="_top" xlink:title="Function for adding a car.">
<polygon fill="white" stroke="#666666" points="262.25,-407.75 193.75,-407.75 193.75,-381 262.25,-381 262.25,-407.75"/>
<text text-anchor="middle" x="228" y="-388.55" font-family="Helvetica,sans-Serif" font-size="16.00">addCar</text>
</a>
</g>
</g>
<!-- Node1&#45;&gt;Node2 -->
<g id="edge1_Node000001_Node000002" class="edge">
<title>Node1&#45;&gt;Node2</title>
<g id="a_edge1_Node000001_Node000002"><a xlink:title=" ">
<path fill="none" stroke="#63b8ff" stroke-width="2" d="M652,-317.58C629.15,-337.84 592.27,-366.5 554.25,-379.38 452.52,-413.82 322.63,-405.4 262.42,-398.77"/>
<polygon fill="#63b8ff" stroke="#63b8ff" stroke-width="2" points="654.43,-320.28 659.47,-310.96 649.72,-315.11 654.43,-320.28"/>
</a>
</g>
</g>
<!-- Node10 -->
<g id="Node000010" class="node">
<title>Node10</title>
<g id="a_Node000010"><a xlink:href="../../da/de9/clientsmenu_8c.html#a37a5ed3b8a63a9497f34682ce7db3126" target="_top" xlink:title="function for adding client;">
<polygon fill="white" stroke="#666666" points="270.12,-290.75 185.88,-290.75 185.88,-264 270.12,-264 270.12,-290.75"/>
<text text-anchor="middle" x="228" y="-271.55" font-family="Helvetica,sans-Serif" font-size="16.00">addClient</text>
</a>
</g>
</g>
<!-- Node1&#45;&gt;Node10 -->
<g id="edge3_Node000001_Node000010" class="edge">
<title>Node1&#45;&gt;Node10</title>
<g id="a_edge3_Node000001_Node000010"><a xlink:title=" ">
<path fill="none" stroke="#63b8ff" stroke-width="2" d="M577.05,-300.36C513.13,-302.53 428,-303.38 353,-297.38 325.29,-295.15 294.42,-290.18 270.42,-285.76"/>
<polygon fill="#63b8ff" stroke="#63b8ff" stroke-width="2" points="577.09,-303.75 586.95,-299.9 576.83,-296.76 577.09,-303.75"/>
</a>
</g>
</g>
<!-- Node11 -->
<g id="Node000011" class="node">
<title>Node11</title>
<g id="a_Node000011"><a xlink:href="../../dc/dc6/carsmenu_8c.html#ad451b82b7f3d31d1bb3fc4c210941579" target="_top" xlink:title="Invokes the listView of cars.">
<polygon fill="white" stroke="#666666" points="500.62,-497.75 406.62,-497.75 406.62,-471 500.62,-471 500.62,-497.75"/>
<text text-anchor="middle" x="453.62" y="-478.55" font-family="Helvetica,sans-Serif" font-size="16.00">carChoose</text>
</a>
</g>
</g>
<!-- Node1&#45;&gt;Node11 -->
<g id="edge5_Node000001_Node000011" class="edge">
<title>Node1&#45;&gt;Node11</title>
<g id="a_edge5_Node000001_Node000011"><a xlink:title=" ">
<path fill="none" stroke="#63b8ff" stroke-width="2" d="M663.96,-320.79C646.16,-357.77 608.01,-425.85 554.25,-461.38 538.55,-471.75 518.77,-477.47 500.98,-480.62"/>
<polygon fill="#63b8ff" stroke="#63b8ff" stroke-width="2" points="667.35,-321.66 668.39,-311.12 661,-318.7 667.35,-321.66"/>
</a>
</g>
</g>
<!-- Node14 -->
<g id="Node000014" class="node">
<title>Node14</title>
<g id="a_Node000014"><a xlink:href="../../dc/dc6/carsmenu_8c.html#a76be213354bbaa3d64a095bafa1ec8d2" target="_top" xlink:title="Removes a car.">
<polygon fill="white" stroke="#666666" points="277.25,-542.75 178.75,-542.75 178.75,-516 277.25,-516 277.25,-542.75"/>
<text text-anchor="middle" x="228" y="-523.55" font-family="Helvetica,sans-Serif" font-size="16.00">carRemove</text>
</a>
</g>
</g>
<!-- Node1&#45;&gt;Node14 -->
<g id="edge12_Node000001_Node000014" class="edge">
<title>Node1&#45;&gt;Node14</title>
<g id="a_edge12_Node000001_Node000014"><a xlink:title=" ">
<path fill="none" stroke="#63b8ff" stroke-width="2" d="M671.9,-322.1C663.46,-376.59 635.83,-499.7 554.25,-551.38 461.73,-609.98 323.25,-567.42 261.15,-543.15"/>
<polygon fill="#63b8ff" stroke="#63b8ff" stroke-width="2" points="675.78,-321.63 673.72,-311.24 668.85,-320.65 675.78,-321.63"/>
</a>
</g>
</g>
<!-- Node15 -->
<g id="Node000015" class="node">
<title>Node15</title>
<g id="a_Node000015"><a xlink:href="../../da/de9/clientsmenu_8c.html#a1d711b31a5a18af01cdd582e537ff921" target="_top" xlink:title="Invokes ListView of clients.">
<polygon fill="#fff0f0" stroke="red" points="508.5,-243.75 398.75,-243.75 398.75,-217 508.5,-217 508.5,-243.75"/>
<text text-anchor="middle" x="453.62" y="-224.55" font-family="Helvetica,sans-Serif" font-size="16.00">clientChoose</text>
</a>
</g>
</g>
<!-- Node1&#45;&gt;Node15 -->
<g id="edge13_Node000001_Node000015" class="edge">
<title>Node1&#45;&gt;Node15</title>
<g id="a_edge13_Node000001_Node000015"><a xlink:title=" ">
<path fill="none" stroke="#63b8ff" stroke-width="2" d="M626.74,-277.2C604.78,-269.32 578.39,-260.33 554.25,-253.38 539.67,-249.17 523.71,-245.21 508.93,-241.8"/>
<polygon fill="#63b8ff" stroke="#63b8ff" stroke-width="2" points="626.18,-280.45 636.78,-280.57 628.57,-273.87 626.18,-280.45"/>
</a>
</g>
</g>
<!-- Node18 -->
<g id="Node000018" class="node">
<title>Node18</title>
<g id="a_Node000018"><a xlink:href="../../da/de9/clientsmenu_8c.html#ae81aa78f6e32fdd87e554ba85c063111" target="_top" xlink:title="Remove client.">
<polygon fill="white" stroke="#666666" points="285.12,-200.75 170.88,-200.75 170.88,-174 285.12,-174 285.12,-200.75"/>
<text text-anchor="middle" x="228" y="-181.55" font-family="Helvetica,sans-Serif" font-size="16.00">clientRemove</text>
</a>
</g>
</g>
<!-- Node1&#45;&gt;Node18 -->
<g id="edge18_Node000001_Node000018" class="edge">
<title>Node1&#45;&gt;Node18</title>
<g id="a_edge18_Node000001_Node000018"><a xlink:title=" ">
<path fill="none" stroke="#63b8ff" stroke-width="2" d="M652.48,-272.88C629.73,-252 592.69,-222.14 554.25,-208.38 464.49,-176.23 351.98,-177.3 285.56,-181.79"/>
<polygon fill="#63b8ff" stroke="#63b8ff" stroke-width="2" points="650.2,-275.43 659.88,-279.75 655,-270.34 650.2,-275.43"/>
</a>
</g>
</g>
<!-- Node19 -->
<g id="Node000019" class="node">
<title>Node19</title>
<g id="a_Node000019"><a xlink:href="../../d3/df4/dbhandle_8c.html#a4bfe377ba6dd3a7e3024c825de1485dd" target="_top" xlink:title="Remove clinet from database.">
<polygon fill="white" stroke="#666666" points="542.25,-161.75 365,-161.75 365,-135 542.25,-135 542.25,-161.75"/>
<text text-anchor="middle" x="453.62" y="-142.55" font-family="Helvetica,sans-Serif" font-size="16.00">dbHandlClientRemove</text>
</a>
</g>
</g>
<!-- Node1&#45;&gt;Node19 -->
<g id="edge19_Node000001_Node000019" class="edge">
<title>Node1&#45;&gt;Node19</title>
<g id="a_edge19_Node000001_Node000019"><a xlink:title=" ">
<path fill="none" stroke="#63b8ff" stroke-width="2" d="M657.4,-271.32C635.91,-244.05 597.28,-200.18 554.25,-175.38 544.94,-170.01 534.51,-165.67 524.02,-162.18"/>
<polygon fill="#63b8ff" stroke="#63b8ff" stroke-width="2" points="655.4,-273.76 664.28,-279.55 660.95,-269.49 655.4,-273.76"/>
</a>
</g>
</g>
<!-- Node20 -->
<g id="Node000020" class="node">
<title>Node20</title>
<g id="a_Node000020"><a xlink:href="../../d3/df4/dbhandle_8c.html#ae62043f5776328dcdc74dc9f29c4e2c6" target="_top" xlink:title="Insert a car into the database.">
<polygon fill="white" stroke="#666666" points="529.12,-370.75 378.12,-370.75 378.12,-344 529.12,-344 529.12,-370.75"/>
<text text-anchor="middle" x="453.62" y="-351.55" font-family="Helvetica,sans-Serif" font-size="16.00">dbHandleCarInsert</text>
</a>
</g>
</g>
<!-- Node1&#45;&gt;Node20 -->
<g id="edge21_Node000001_Node000020" class="edge">
<title>Node1&#45;&gt;Node20</title>
<g id="a_edge21_Node000001_Node000020"><a xlink:title=" ">
<path fill="none" stroke="#63b8ff" stroke-width="2" d="M615.71,-312.82C596.15,-318.49 574.29,-324.76 554.25,-330.38 538.72,-334.73 521.8,-339.35 506.38,-343.53"/>
<polygon fill="#63b8ff" stroke="#63b8ff" stroke-width="2" points="617.56,-315.34 626.18,-309.19 615.6,-308.62 617.56,-315.34"/>
</a>
</g>
</g>
<!-- Node21 -->
<g id="Node000021" class="node">
<title>Node21</title>
<g id="a_Node000021"><a xlink:href="../../d3/df4/dbhandle_8c.html#a230344c970b882095a893674614099c4" target="_top" xlink:title="Remove a car from the database.">
<polygon fill="white" stroke="#666666" points="538.88,-542.75 368.38,-542.75 368.38,-516 538.88,-516 538.88,-542.75"/>
<text text-anchor="middle" x="453.62" y="-523.55" font-family="Helvetica,sans-Serif" font-size="16.00">dbHandleCarRemove</text>
</a>
</g>
</g>
<!-- Node1&#45;&gt;Node21 -->
<g id="edge23_Node000001_Node000021" class="edge">
<title>Node1&#45;&gt;Node21</title>
<g id="a_edge23_Node000001_Node000021"><a xlink:title=" ">
<path fill="none" stroke="#63b8ff" stroke-width="2" d="M667.88,-321.43C653.73,-366.52 618.32,-458.82 554.25,-506.38 549.4,-509.97 544.09,-513.02 538.51,-515.6"/>
<polygon fill="#63b8ff" stroke="#63b8ff" stroke-width="2" points="672.08,-321.64 671.6,-311.05 665.37,-319.62 672.08,-321.64"/>
</a>
</g>
</g>
<!-- Node22 -->
<g id="Node000022" class="node">
<title>Node22</title>
<g id="a_Node000022"><a xlink:href="../../d3/df4/dbhandle_8c.html#a127bbad9ae9228590e2a7eb06a085321" target="_top" xlink:title="Update a car in the database.">
<polygon fill="white" stroke="#666666" points="534.75,-452.75 372.5,-452.75 372.5,-426 534.75,-426 534.75,-452.75"/>
<text text-anchor="middle" x="453.62" y="-433.55" font-family="Helvetica,sans-Serif" font-size="16.00">dbHandleCarUpdate</text>
</a>
</g>
</g>
<!-- Node1&#45;&gt;Node22 -->
<g id="edge25_Node000001_Node000022" class="edge">
<title>Node1&#45;&gt;Node22</title>
<g id="a_edge25_Node000001_Node000022"><a xlink:title=" ">
<path fill="none" stroke="#63b8ff" stroke-width="2" d="M656.93,-319.23C635.24,-345.83 596.68,-388.27 554.25,-412.38 544.82,-417.73 534.29,-422.06 523.69,-425.56"/>
<polygon fill="#63b8ff" stroke="#63b8ff" stroke-width="2" points="660.4,-321.23 663.9,-311.23 654.93,-316.87 660.4,-321.23"/>
</a>
</g>
</g>
<!-- Node23 -->
<g id="Node000023" class="node">
<title>Node23</title>
<g id="a_Node000023"><a xlink:href="../../d3/df4/dbhandle_8c.html#a10cc2cd742cf382f48c04428af09189f" target="_top" xlink:title="Insert client into db.">
<polygon fill="white" stroke="#666666" points="537,-288.75 370.25,-288.75 370.25,-262 537,-262 537,-288.75"/>
<text text-anchor="middle" x="453.62" y="-269.55" font-family="Helvetica,sans-Serif" font-size="16.00">dbHandleClientInsert</text>
</a>
</g>
</g>
<!-- Node1&#45;&gt;Node23 -->
<g id="edge27_Node000001_Node000023" class="edge">
<title>Node1&#45;&gt;Node23</title>
<g id="a_edge27_Node000001_Node000023"><a xlink:title=" ">
<path fill="none" stroke="#63b8ff" stroke-width="2" d="M577.23,-286.49C563.85,-285.28 550.22,-284.04 537.16,-282.86"/>
<polygon fill="#63b8ff" stroke="#63b8ff" stroke-width="2" points="576.68,-290.23 586.95,-287.64 577.31,-283.25 576.68,-290.23"/>
</a>
</g>
</g>
<!-- Node24 -->
<g id="Node000024" class="node">
<title>Node24</title>
<g id="a_Node000024"><a xlink:href="../../d3/df4/dbhandle_8c.html#aaa0d1881c99c82d3e6dbf0965ae779fa" target="_top" xlink:title="Update Client in database.">
<polygon fill="#fff0f0" stroke="red" points="542.62,-116.75 364.62,-116.75 364.62,-90 542.62,-90 542.62,-116.75"/>
<text text-anchor="middle" x="453.62" y="-97.55" font-family="Helvetica,sans-Serif" font-size="16.00">dbHandleClientUpdate</text>
</a>
</g>
</g>
<!-- Node1&#45;&gt;Node24 -->
<g id="edge29_Node000001_Node000024" class="edge">
<title>Node1&#45;&gt;Node24</title>
<g id="a_edge29_Node000001_Node000024"><a xlink:title=" ">
<path fill="none" stroke="#63b8ff" stroke-width="2" d="M664.34,-270.06C646.82,-232.54 608.77,-162.73 554.25,-126.38 548.86,-122.78 542.98,-119.74 536.86,-117.18"/>
<polygon fill="#63b8ff" stroke="#63b8ff" stroke-width="2" points="661.37,-272.2 668.68,-279.87 667.75,-269.32 661.37,-272.2"/>
</a>
</g>
</g>
<!-- Node25 -->
<g id="Node000025" class="node">
<title>Node25</title>
<g id="a_Node000025"><a xlink:href="../../d3/df4/dbhandle_8c.html#a93d9b43b32495dc8630963c174aeba05" target="_top" xlink:title="Given query and callback function create List based on the query.">
<polygon fill="#fff0f0" stroke="red" points="554.25,-71.75 353,-71.75 353,-45 554.25,-45 554.25,-71.75"/>
<text text-anchor="middle" x="453.62" y="-52.55" font-family="Helvetica,sans-Serif" font-size="16.00">dbHandleGetResultAsList</text>
</a>
</g>
</g>
<!-- Node1&#45;&gt;Node25 -->
<g id="edge30_Node000001_Node000025" class="edge">
<title>Node1&#45;&gt;Node25</title>
<g id="a_edge30_Node000001_Node000025"><a xlink:title=" ">
<path fill="none" stroke="#63b8ff" stroke-width="2" d="M668.08,-269.25C654.16,-223.64 619,-129.74 554.25,-81.38 549.41,-77.76 544.11,-74.71 538.54,-72.12"/>
<polygon fill="#63b8ff" stroke="#63b8ff" stroke-width="2" points="665.5,-270.89 671.66,-279.51 672.22,-268.93 665.5,-270.89"/>
</a>
</g>
</g>
<!-- Node6 -->
<g id="Node000006" class="node">
<title>Node6</title>
<g id="a_Node000006"><a xlink:href="../../d0/d29/main_8c.html#ae66f6b31b5ad750f1fe042a706a4e3d4" target="_top" xlink:title="main.">
<polygon fill="white" stroke="#666666" points="479.25,-26.75 428,-26.75 428,0 479.25,0 479.25,-26.75"/>
<text text-anchor="middle" x="453.62" y="-7.55" font-family="Helvetica,sans-Serif" font-size="16.00">main</text>
</a>
</g>
</g>
<!-- Node1&#45;&gt;Node6 -->
<g id="edge31_Node000001_Node000006" class="edge">
<title>Node1&#45;&gt;Node6</title>
<g id="a_edge31_Node000001_Node000006"><a xlink:title=" ">
<path fill="none" stroke="#63b8ff" stroke-width="2" d="M670.81,-269.06C660.48,-216.3 629.69,-97.42 554.25,-36.38 533,-19.18 501.26,-14.35 479.35,-13.23"/>
<polygon fill="#63b8ff" stroke="#63b8ff" stroke-width="2" points="667.86,-270.34 673.11,-279.54 674.74,-269.07 667.86,-270.34"/>
</a>
</g>
</g>
<!-- Node3 -->
<g id="Node000003" class="node">
<title>Node3</title>
<g id="a_Node000003"><a xlink:href="../../dc/dc6/carsmenu_8c.html#a7adcbb9b8798811ec24e33760623ebc0" target="_top" xlink:title="Handles displaying of cars menu.">
<polygon fill="#fff0f0" stroke="red" points="95.12,-474.75 7.88,-474.75 7.88,-448 95.12,-448 95.12,-474.75"/>
<text text-anchor="middle" x="51.5" y="-455.55" font-family="Helvetica,sans-Serif" font-size="16.00">carsMenu</text>
</a>
</g>
</g>
<!-- Node2&#45;&gt;Node3 -->
<g id="edge2_Node000002_Node000003" class="edge">
<title>Node2&#45;&gt;Node3</title>
<g id="a_edge2_Node000002_Node000003"><a xlink:title=" ">
<path fill="none" stroke="#63b8ff" stroke-width="2" d="M181.24,-404.35C167.47,-407.88 152.45,-412.27 139,-417.38 116.95,-425.75 93.15,-438.13 76.1,-447.62"/>
<polygon fill="#63b8ff" stroke="#63b8ff" stroke-width="2" points="182.58,-407.13 191.46,-401.35 180.91,-400.34 182.58,-407.13"/>
</a>
</g>
</g>
<!-- Node8 -->
<g id="Node000008" class="node">
<title>Node8</title>
<g id="a_Node000008"><a xlink:href="../../da/de9/clientsmenu_8c.html#ad2a8354e045a2d4deb82f4b3b20ad5a4" target="_top" xlink:title="Handles displaying of clients menu.">
<polygon fill="#fff0f0" stroke="red" points="103,-245.75 0,-245.75 0,-219 103,-219 103,-245.75"/>
<text text-anchor="middle" x="51.5" y="-226.55" font-family="Helvetica,sans-Serif" font-size="16.00">clientsMenu</text>
</a>
</g>
</g>
<!-- Node10&#45;&gt;Node8 -->
<g id="edge4_Node000010_Node000008" class="edge">
<title>Node10&#45;&gt;Node8</title>
<g id="a_edge4_Node000010_Node000008"><a xlink:title=" ">
<path fill="none" stroke="#63b8ff" stroke-width="2" d="M173.3,-263.53C150.99,-257.77 125.21,-251.13 103.22,-245.45"/>
<polygon fill="#63b8ff" stroke="#63b8ff" stroke-width="2" points="173.09,-267.6 183.65,-266.71 174.84,-260.82 173.09,-267.6"/>
</a>
</g>
</g>
<!-- Node12 -->
<g id="Node000012" class="node">
<title>Node12</title>
<g id="a_Node000012"><a xlink:href="../../dc/dc6/carsmenu_8c.html#a04e2543edc445ed8a4cbd29b3466a07d" target="_top" xlink:title="Wrapper around carChoose frees extracted car instanntly.">
<polygon fill="white" stroke="#666666" points="309.12,-497.75 146.88,-497.75 146.88,-471 309.12,-471 309.12,-497.75"/>
<text text-anchor="middle" x="228" y="-478.55" font-family="Helvetica,sans-Serif" font-size="16.00">carChooseNoReturn</text>
</a>
</g>
</g>
<!-- Node11&#45;&gt;Node12 -->
<g id="edge6_Node000011_Node000012" class="edge">
<title>Node11&#45;&gt;Node12</title>
<g id="a_edge6_Node000011_Node000012"><a xlink:title=" ">
<path fill="none" stroke="#63b8ff" stroke-width="2" d="M393.29,-484.38C367.53,-484.38 336.95,-484.38 309.2,-484.38"/>
<polygon fill="#63b8ff" stroke="#63b8ff" stroke-width="2" points="393.29,-487.88 403.29,-484.38 393.29,-480.88 393.29,-487.88"/>
</a>
</g>
</g>
<!-- Node13 -->
<g id="Node000013" class="node">
<title>Node13</title>
<g id="a_Node000013"><a xlink:href="../../dc/dc6/carsmenu_8c.html#acf8ae724beca8714d7d114a7f2539895" target="_top" xlink:title="Edit car.">
<polygon fill="white" stroke="#666666" points="261.12,-452.75 194.88,-452.75 194.88,-426 261.12,-426 261.12,-452.75"/>
<text text-anchor="middle" x="228" y="-433.55" font-family="Helvetica,sans-Serif" font-size="16.00">carEdit</text>
</a>
</g>
</g>
<!-- Node11&#45;&gt;Node13 -->
<g id="edge8_Node000011_Node000013" class="edge">
<title>Node11&#45;&gt;Node13</title>
<g id="a_edge8_Node000011_Node000013"><a xlink:title=" ">
<path fill="none" stroke="#63b8ff" stroke-width="2" d="M393.63,-472.5C351.38,-464 296.06,-452.87 261.53,-445.92"/>
<polygon fill="#63b8ff" stroke="#63b8ff" stroke-width="2" points="393.8,-476.51 404.29,-475.05 395.18,-469.65 393.8,-476.51"/>
</a>
</g>
</g>
<!-- Node11&#45;&gt;Node14 -->
<g id="edge10_Node000011_Node000014" class="edge">
<title>Node11&#45;&gt;Node14</title>
<g id="a_edge10_Node000011_Node000014"><a xlink:title=" ">
<path fill="none" stroke="#63b8ff" stroke-width="2" d="M393.91,-496.19C357.69,-503.48 311.77,-512.72 277.6,-519.6"/>
<polygon fill="#63b8ff" stroke="#63b8ff" stroke-width="2" points="395.18,-499.1 404.29,-493.7 393.8,-492.24 395.18,-499.1"/>
</a>
</g>
</g>
<!-- Node12&#45;&gt;Node3 -->
<g id="edge7_Node000012_Node000003" class="edge">
<title>Node12&#45;&gt;Node3</title>
<g id="a_edge7_Node000012_Node000003"><a xlink:title=" ">
<path fill="none" stroke="#63b8ff" stroke-width="2" d="M133.52,-472.05C120.12,-470.29 106.91,-468.55 95.18,-467"/>
<polygon fill="#63b8ff" stroke="#63b8ff" stroke-width="2" points="133.02,-475.91 143.39,-473.75 133.93,-468.97 133.02,-475.91"/>
</a>
</g>
</g>
<!-- Node13&#45;&gt;Node3 -->
<g id="edge9_Node000013_Node000003" class="edge">
<title>Node13&#45;&gt;Node3</title>
<g id="a_edge9_Node000013_Node000003"><a xlink:title=" ">
<path fill="none" stroke="#63b8ff" stroke-width="2" d="M181.77,-445.08C155.2,-448.43 121.8,-452.64 95.61,-455.94"/>
<polygon fill="#63b8ff" stroke="#63b8ff" stroke-width="2" points="182.1,-448.18 191.59,-443.46 181.23,-441.24 182.1,-448.18"/>
</a>
</g>
</g>
<!-- Node14&#45;&gt;Node3 -->
<g id="edge11_Node000014_Node000003" class="edge">
<title>Node14&#45;&gt;Node3</title>
<g id="a_edge11_Node000014_Node000003"><a xlink:title=" ">
<path fill="none" stroke="#63b8ff" stroke-width="2" d="M166.05,-515.35C156.88,-512.69 147.61,-509.69 139,-506.38 116.57,-497.73 92.41,-484.83 75.34,-475.06"/>
<polygon fill="#63b8ff" stroke="#63b8ff" stroke-width="2" points="165.86,-519.48 176.43,-518.76 167.71,-512.73 165.86,-519.48"/>
</a>
</g>
</g>
<!-- Node16 -->
<g id="Node000016" class="node">
<title>Node16</title>
<g id="a_Node000016"><a xlink:href="../../da/de9/clientsmenu_8c.html#a1aa5fbc029a7e320bf6f6c3a2e6e27cc" target="_top" xlink:title="Wrapper around clientChoose frees extracted client instanntly.">
<polygon fill="white" stroke="#666666" points="317,-245.75 139,-245.75 139,-219 317,-219 317,-245.75"/>
<text text-anchor="middle" x="228" y="-226.55" font-family="Helvetica,sans-Serif" font-size="16.00">clientChooseNoReturn</text>
</a>
</g>
</g>
<!-- Node15&#45;&gt;Node16 -->
<g id="edge14_Node000015_Node000016" class="edge">
<title>Node15&#45;&gt;Node16</title>
<g id="a_edge14_Node000015_Node000016"><a xlink:title=" ">
<path fill="none" stroke="#63b8ff" stroke-width="2" d="M385.79,-230.97C364.21,-231.17 339.95,-231.38 317.09,-231.59"/>
<polygon fill="#63b8ff" stroke="#63b8ff" stroke-width="2" points="385.52,-234.45 395.49,-230.86 385.46,-227.45 385.52,-234.45"/>
</a>
</g>
</g>
<!-- Node15&#45;&gt;Node18 -->
<g id="edge16_Node000015_Node000018" class="edge">
<title>Node15&#45;&gt;Node18</title>
<g id="a_edge16_Node000015_Node000018"><a xlink:title=" ">
<path fill="none" stroke="#63b8ff" stroke-width="2" d="M386.07,-217.58C354.01,-211.41 315.97,-204.1 285.36,-198.21"/>
<polygon fill="#63b8ff" stroke="#63b8ff" stroke-width="2" points="386.01,-221.51 396.49,-219.97 387.33,-214.64 386.01,-221.51"/>
</a>
</g>
</g>
<!-- Node16&#45;&gt;Node8 -->
<g id="edge15_Node000016_Node000008" class="edge">
<title>Node16&#45;&gt;Node8</title>
<g id="a_edge15_Node000016_Node000008"><a xlink:title=" ">
<path fill="none" stroke="#63b8ff" stroke-width="2" d="M125.94,-232.38C118.13,-232.38 110.48,-232.38 103.24,-232.38"/>
<polygon fill="#63b8ff" stroke="#63b8ff" stroke-width="2" points="125.73,-235.88 135.73,-232.38 125.73,-228.88 125.73,-235.88"/>
</a>
</g>
</g>
<!-- Node18&#45;&gt;Node8 -->
<g id="edge17_Node000018_Node000008" class="edge">
<title>Node18&#45;&gt;Node8</title>
<g id="a_edge17_Node000018_Node000008"><a xlink:title=" ">
<path fill="none" stroke="#63b8ff" stroke-width="2" d="M160.67,-204.48C141.7,-209.37 121.32,-214.63 103.42,-219.24"/>
<polygon fill="#63b8ff" stroke="#63b8ff" stroke-width="2" points="162.41,-207.13 171.22,-201.24 160.66,-200.35 162.41,-207.13"/>
</a>
</g>
</g>
<!-- Node19&#45;&gt;Node18 -->
<g id="edge20_Node000019_Node000018" class="edge">
<title>Node19&#45;&gt;Node18</title>
<g id="a_edge20_Node000019_Node000018"><a xlink:title=" ">
<path fill="none" stroke="#63b8ff" stroke-width="2" d="M360.41,-164.46C334.97,-168.89 308.14,-173.57 285.4,-177.54"/>
<polygon fill="#63b8ff" stroke="#63b8ff" stroke-width="2" points="361.9,-167.4 371.15,-162.23 360.7,-160.5 361.9,-167.4"/>
</a>
</g>
</g>
<!-- Node20&#45;&gt;Node2 -->
<g id="edge22_Node000020_Node000002" class="edge">
<title>Node20&#45;&gt;Node2</title>
<g id="a_edge22_Node000020_Node000002"><a xlink:title=" ">
<path fill="none" stroke="#63b8ff" stroke-width="2" d="M365.32,-371.82C329.39,-377.76 289.91,-384.3 262.73,-388.79"/>
<polygon fill="#63b8ff" stroke="#63b8ff" stroke-width="2" points="366.56,-374.83 375.85,-369.75 365.41,-367.93 366.56,-374.83"/>
</a>
</g>
</g>
<!-- Node21&#45;&gt;Node14 -->
<g id="edge24_Node000021_Node000014" class="edge">
<title>Node21&#45;&gt;Node14</title>
<g id="a_edge24_Node000021_Node000014"><a xlink:title=" ">
<path fill="none" stroke="#63b8ff" stroke-width="2" d="M355.41,-529.38C328.52,-529.38 300.48,-529.38 277.65,-529.38"/>
<polygon fill="#63b8ff" stroke="#63b8ff" stroke-width="2" points="355.08,-532.88 365.08,-529.38 355.08,-525.88 355.08,-532.88"/>
</a>
</g>
</g>
<!-- Node22&#45;&gt;Node13 -->
<g id="edge26_Node000022_Node000013" class="edge">
<title>Node22&#45;&gt;Node13</title>
<g id="a_edge26_Node000022_Node000013"><a xlink:title=" ">
<path fill="none" stroke="#63b8ff" stroke-width="2" d="M359.51,-439.38C324.67,-439.38 287.34,-439.38 261.57,-439.38"/>
<polygon fill="#63b8ff" stroke="#63b8ff" stroke-width="2" points="359.21,-442.88 369.21,-439.38 359.21,-435.88 359.21,-442.88"/>
</a>
</g>
</g>
<!-- Node23&#45;&gt;Node10 -->
<g id="edge28_Node000023_Node000010" class="edge">
<title>Node23&#45;&gt;Node10</title>
<g id="a_edge28_Node000023_Node000010"><a xlink:title=" ">
<path fill="none" stroke="#63b8ff" stroke-width="2" d="M357.15,-276.23C326.88,-276.5 294.99,-276.78 270.59,-277"/>
<polygon fill="#63b8ff" stroke="#63b8ff" stroke-width="2" points="357.02,-279.7 366.99,-276.11 356.96,-272.7 357.02,-279.7"/>
</a>
</g>
</g>
</g>
</svg>

<g id="navigator" transform="translate(0 0)" fill="#404254">
  <rect fill="#f2f5e9" fill-opacity="0.5" stroke="#606060" stroke-width=".5" x="0" y="0" width="60" height="60"/>
  <use id="zoomplus" xlink:href="#zoomPlus" x="17" y="9" onmousedown="handleZoom(evt,'in')"/>
  <use id="zoomminus" xlink:href="#zoomMin" x="42" y="9" onmousedown="handleZoom(evt,'out')"/>
  <use id="reset" xlink:href="#resetDef" x="30" y="36" onmousedown="handleReset()"/>
   <use id="arrowup" xlink:href="#arrowUp" x="0" y="0" onmousedown="handlePan(0,-1)"/>
  <use id="arrowright" xlink:href="#arrowRight" x="0" y="0" onmousedown="handlePan(1,0)"/>
  <use id="arrowdown" xlink:href="#arrowDown" x="0" y="0" onmousedown="handlePan(0,1)"/>
  <use id="arrowleft" xlink:href="#arrowLeft" x="0" y="0" onmousedown="handlePan(-1,0)"/>
</g>
<svg viewBox="0 0 15 15" width="100%" height="30px" preserveAspectRatio="xMaxYMin meet">
 <g id="arrow_out" transform="scale(0.3 0.3)">
  <a xlink:href="menuutil_8c_ae6ed898f3726361b1edde3f8707f0260_icgraph_org.svg" target="_base">
   <rect id="button" ry="5" rx="5" y="6" x="6" height="38" width="38"
        fill="#f2f5e9" fill-opacity="0.5" stroke="#606060" stroke-width="1.0"/>
   <path id="arrow"
     d="M 11.500037,31.436501 C 11.940474,20.09759 22.043105,11.32322 32.158766,21.979434 L 37.068811,17.246167 C 37.068811,17.246167 37.088388,32 37.088388,32 L 22.160133,31.978069 C 22.160133,31.978069 26.997745,27.140456 26.997745,27.140456 C 18.528582,18.264221 13.291696,25.230495 11.500037,31.436501 z"
     style="fill:#404040;"/>
  </a>
 </g>
</svg>

<style type='text/css'>
<![CDATA[
[data-mouse-over-selected='false'] { opacity: 0.7; }
[data-mouse-over-selected='true']  { opacity: 1.0; }
]]>
</style>
<script type="application/ecmascript"><![CDATA[
document.addEventListener('DOMContentLoaded', (event) => {
  highlightEdges();
  highlightAdjacentNodes();
});
]]></script>
</svg>
