<?xml version="1.0" encoding="UTF-8" standalone="no"?>
<!DOCTYPE svg PUBLIC "-//W3C//DTD SVG 1.1//EN"
 "http://www.w3.org/Graphics/SVG/1.1/DTD/svg11.dtd">
<!-- Generated by graphviz version 8.0.5 (0)
 -->
<!-- Title: menuHandleIteraction Pages: 1 -->
<svg width="659pt" height="162pt"
 viewBox="0.00 0.00 658.50 161.75" xmlns="http://www.w3.org/2000/svg" xmlns:xlink="http://www.w3.org/1999/xlink">
<g id="graph0" class="graph" transform="scale(1 1) rotate(0) translate(4 157.75)">
<title>menuHandleIteraction</title>
<!-- Node1 -->
<g id="Node000001" class="node">
<title>Node1</title>
<g id="a_Node000001"><a xlink:title="Control menu navigation and invoke option that we chose.">
<polygon fill="#999999" stroke="#666666" points="650.5,-91.75 476.25,-91.75 476.25,-65 650.5,-65 650.5,-91.75"/>
<text text-anchor="middle" x="563.38" y="-72.55" font-family="Helvetica,sans-Serif" font-size="16.00">menuHandleIteraction</text>
</a>
</g>
</g>
<!-- Node2 -->
<g id="Node000002" class="node">
<title>Node2</title>
<g id="a_Node000002"><a xlink:href="../../d7/dba/menuutil_8c.html#a949419e66b27ac75475821fb7aba527d" target="_top" xlink:title="Handle all operation and functions for menu.">
<polygon fill="white" stroke="#666666" points="440.25,-91.75 335.75,-91.75 335.75,-65 440.25,-65 440.25,-91.75"/>
<text text-anchor="middle" x="388" y="-72.55" font-family="Helvetica,sans-Serif" font-size="16.00">menuInvoke</text>
</a>
</g>
</g>
<!-- Node1&#45;&gt;Node2 -->
<g id="edge1_Node000001_Node000002" class="edge">
<title>Node1&#45;&gt;Node2</title>
<g id="a_edge1_Node000001_Node000002"><a xlink:title=" ">
<path fill="none" stroke="#63b8ff" stroke-width="2" d="M463,-78.38C455.35,-78.38 447.85,-78.38 440.72,-78.38"/>
<polygon fill="#63b8ff" stroke="#63b8ff" stroke-width="2" points="462.94,-81.88 472.94,-78.38 462.94,-74.88 462.94,-81.88"/>
</a>
</g>
</g>
<!-- Node3 -->
<g id="Node000003" class="node">
<title>Node3</title>
<g id="a_Node000003"><a xlink:href="../../dc/dc6/carsmenu_8c.html#a7adcbb9b8798811ec24e33760623ebc0" target="_top" xlink:title="Handles displaying of cars menu.">
<polygon fill="white" stroke="#666666" points="290.75,-153.75 203.5,-153.75 203.5,-127 290.75,-127 290.75,-153.75"/>
<text text-anchor="middle" x="247.12" y="-134.55" font-family="Helvetica,sans-Serif" font-size="16.00">carsMenu</text>
</a>
</g>
</g>
<!-- Node2&#45;&gt;Node3 -->
<g id="edge2_Node000002_Node000003" class="edge">
<title>Node2&#45;&gt;Node3</title>
<g id="a_edge2_Node000002_Node000003"><a xlink:title=" ">
<path fill="none" stroke="#63b8ff" stroke-width="2" d="M344.55,-97.33C323.35,-106.79 298.17,-118.03 278.86,-126.65"/>
<polygon fill="#63b8ff" stroke="#63b8ff" stroke-width="2" points="346.47,-100.41 354.18,-93.13 343.62,-94.02 346.47,-100.41"/>
</a>
</g>
</g>
<!-- Node4 -->
<g id="Node000004" class="node">
<title>Node4</title>
<g id="a_Node000004"><a xlink:href="../../de/dc9/mmenu_8c.html#a315bc1f41a79da39147ec73e38cfc9e7" target="_top" xlink:title="Handles main menu.">
<polygon fill="#fff0f0" stroke="red" points="158.5,-91.75 0,-91.75 0,-65 158.5,-65 158.5,-91.75"/>
<text text-anchor="middle" x="79.25" y="-72.55" font-family="Helvetica,sans-Serif" font-size="16.00">mainMenuSelection</text>
</a>
</g>
</g>
<!-- Node2&#45;&gt;Node4 -->
<g id="edge6_Node000002_Node000004" class="edge">
<title>Node2&#45;&gt;Node4</title>
<g id="a_edge6_Node000002_Node000004"><a xlink:title=" ">
<path fill="none" stroke="#63b8ff" stroke-width="2" d="M322.53,-80.02C314.85,-80.17 307.13,-80.29 299.75,-80.38 252.98,-80.91 241.28,-80.78 194.5,-80.38 182.99,-80.27 170.84,-80.12 158.92,-79.93"/>
<polygon fill="#63b8ff" stroke="#63b8ff" stroke-width="2" points="322.41,-83.46 332.33,-79.76 322.26,-76.46 322.41,-83.46"/>
</a>
</g>
</g>
<!-- Node7 -->
<g id="Node000007" class="node">
<title>Node7</title>
<g id="a_Node000007"><a xlink:href="../../da/de9/clientsmenu_8c.html#ad2a8354e045a2d4deb82f4b3b20ad5a4" target="_top" xlink:title="Handles displaying of clients menu.">
<polygon fill="white" stroke="#666666" points="298.62,-71.75 195.62,-71.75 195.62,-45 298.62,-45 298.62,-71.75"/>
<text text-anchor="middle" x="247.12" y="-52.55" font-family="Helvetica,sans-Serif" font-size="16.00">clientsMenu</text>
</a>
</g>
</g>
<!-- Node2&#45;&gt;Node7 -->
<g id="edge4_Node000002_Node000007" class="edge">
<title>Node2&#45;&gt;Node7</title>
<g id="a_edge4_Node000002_Node000007"><a xlink:title=" ">
<path fill="none" stroke="#63b8ff" stroke-width="2" d="M322.55,-69.09C314.64,-67.95 306.63,-66.8 298.96,-65.7"/>
<polygon fill="#63b8ff" stroke="#63b8ff" stroke-width="2" points="322.89,-72.97 333.29,-70.93 323.89,-66.04 322.89,-72.97"/>
</a>
</g>
</g>
<!-- Node8 -->
<g id="Node000008" class="node">
<title>Node8</title>
<g id="a_Node000008"><a xlink:href="../../d6/dc5/rentalsmenu_8c.html#a4cad208e714dfe28ce655b7853a3d5fd" target="_top" xlink:title="Handles Rentals Menu.">
<polygon fill="white" stroke="#666666" points="299.75,-26.75 194.5,-26.75 194.5,0 299.75,0 299.75,-26.75"/>
<text text-anchor="middle" x="247.12" y="-7.55" font-family="Helvetica,sans-Serif" font-size="16.00">rentalsMenu</text>
</a>
</g>
</g>
<!-- Node2&#45;&gt;Node8 -->
<g id="edge7_Node000002_Node000008" class="edge">
<title>Node2&#45;&gt;Node8</title>
<g id="a_edge7_Node000002_Node000008"><a xlink:title=" ">
<path fill="none" stroke="#63b8ff" stroke-width="2" d="M347.41,-59.01C332.51,-51.81 315.4,-43.62 299.75,-36.38 293.25,-33.36 286.26,-30.2 279.59,-27.21"/>
<polygon fill="#63b8ff" stroke="#63b8ff" stroke-width="2" points="346.28,-62.33 356.81,-63.54 349.34,-56.03 346.28,-62.33"/>
</a>
</g>
</g>
<!-- Node3&#45;&gt;Node4 -->
<g id="edge3_Node000003_Node000004" class="edge">
<title>Node3&#45;&gt;Node4</title>
<g id="a_edge3_Node000003_Node000004"><a xlink:title=" ">
<path fill="none" stroke="#63b8ff" stroke-width="2" d="M197.23,-122.1C171.64,-112.53 140.82,-101.02 117.25,-92.2"/>
<polygon fill="#63b8ff" stroke="#63b8ff" stroke-width="2" points="196.72,-125.39 207.31,-125.62 199.17,-118.84 196.72,-125.39"/>
</a>
</g>
</g>
<!-- Node7&#45;&gt;Node4 -->
<g id="edge5_Node000007_Node000004" class="edge">
<title>Node7&#45;&gt;Node4</title>
<g id="a_edge5_Node000007_Node000004"><a xlink:title=" ">
<path fill="none" stroke="#63b8ff" stroke-width="2" d="M182.59,-66.04C174.78,-66.98 166.72,-67.95 158.72,-68.91"/>
<polygon fill="#63b8ff" stroke="#63b8ff" stroke-width="2" points="182.95,-69.16 192.46,-64.48 182.11,-62.21 182.95,-69.16"/>
</a>
</g>
</g>
<!-- Node8&#45;&gt;Node4 -->
<g id="edge8_Node000008_Node000004" class="edge">
<title>Node8&#45;&gt;Node4</title>
<g id="a_edge8_Node000008_Node000004"><a xlink:title=" ">
<path fill="none" stroke="#63b8ff" stroke-width="2" d="M199.19,-31.77C172.56,-42.2 139.78,-55.05 115.38,-64.61"/>
<polygon fill="#63b8ff" stroke="#63b8ff" stroke-width="2" points="200.91,-35.07 208.95,-28.16 198.36,-28.55 200.91,-35.07"/>
</a>
</g>
</g>
</g>
</svg>
