<?xml version="1.0" encoding="UTF-8" standalone="no"?>
<!DOCTYPE svg PUBLIC "-//W3C//DTD SVG 1.1//EN"
 "http://www.w3.org/Graphics/SVG/1.1/DTD/svg11.dtd">
<!-- Generated by graphviz version 8.0.5 (0)
 -->
<!-- Title: max Pages: 1 -->
<!--zoomable 678 -->

<svg id="main" version="1.1" xmlns="http://www.w3.org/2000/svg" xmlns:xlink="http://www.w3.org/1999/xlink" xml:space="preserve" onload="init(evt)">
<style type="text/css"><![CDATA[
.node, .edge {opacity: 0.7;}
.node.selected, .edge.selected {opacity: 1;}
.edge:hover path { stroke: red; }
.edge:hover polygon { stroke: red; fill: red; }
]]></style>

<defs>
  <circle id="rim" cx="0" cy="0" r="7"/>
  <circle id="rim2" cx="0" cy="0" r="3.5"/>
  <g id="zoomPlus">
    <use xlink:href="#rim" fill="#404040"><set attributeName="fill" to="#808080" begin="zoomplus.mouseover" end="zoomplus.mouseout"/></use>
    <path d="M-4,0h8M0,-4v8" fill="none" stroke="white" stroke-width="1.5" pointer-events="none"/>
  </g>
  <g id="zoomMin">
    <use xlink:href="#rim" fill="#404040"><set attributeName="fill" to="#808080" begin="zoomminus.mouseover" end="zoomminus.mouseout"/></use>
    <path d="M-4,0h8" fill="none" stroke="white" stroke-width="1.5" pointer-events="none"/>
  </g>
  <g id="arrowUp" transform="translate(30 24)">
    <use xlink:href="#rim"/>
    <path pointer-events="none" fill="none" stroke="white" stroke-width="1.5" d="M0,-3.0v7 M-2.5,-0.5L0,-3.0L2.5,-0.5"/>
  </g>
  <g id="arrowRight" transform="rotate(90) translate(36 -43)">
    <use xlink:href="#rim"/>
    <path pointer-events="none" fill="none" stroke="white" stroke-width="1.5" d="M0,-3.0v7 M-2.5,-0.5L0,-3.0L2.5,-0.5"/>
  </g>
  <g id="arrowDown" transform="rotate(180) translate(-30 -48)">
    <use xlink:href="#rim"/>
    <path pointer-events="none" fill="none" stroke="white" stroke-width="1.5" d="M0,-3.0v7 M-2.5,-0.5L0,-3.0L2.5,-0.5"/>
  </g>
  <g id="arrowLeft" transform="rotate(270) translate(-36 17)">
    <use xlink:href="#rim"/>
    <path pointer-events="none" fill="none" stroke="white" stroke-width="1.5" d="M0,-3.0v7 M-2.5,-0.5L0,-3.0L2.5,-0.5"/>
  </g>
  <g id="resetDef">
    <use xlink:href="#rim2" fill="#404040"><set attributeName="fill" to="#808080" begin="reset.mouseover" end="reset.mouseout"/></use>
  </g>
</defs>
<script type="application/ecmascript">
var viewWidth = 650;
var viewHeight = 678;
var sectionId = 'dynsection-17';
</script>
<script type="application/ecmascript" xlink:href="../../svg.min.js"/>
<svg id="graph" class="graph">
<g id="viewport">
<title>max</title>
<!-- Node1 -->
<g id="Node000001" class="node">
<title>Node1</title>
<g id="a_Node000001"><a xlink:title="Add basic functionality to the shitty language which C is.">
<polygon fill="#999999" stroke="#666666" points="642.25,-433.75 595.5,-433.75 595.5,-407 642.25,-407 642.25,-433.75"/>
<text text-anchor="middle" x="618.88" y="-414.55" font-family="Helvetica,sans-Serif" font-size="16.00">max</text>
</a>
</g>
</g>
<!-- Node2 -->
<g id="Node000002" class="node">
<title>Node2</title>
<g id="a_Node000002"><a xlink:href="../../d7/dba/menuutil_8c.html#af8f262005a4975cc6ccc3423d939f910" target="_top" xlink:title="Put form on screen in nice looking form.">
<polygon fill="white" stroke="#666666" points="521.62,-542.75 425.38,-542.75 425.38,-516 521.62,-516 521.62,-542.75"/>
<text text-anchor="middle" x="473.5" y="-523.55" font-family="Helvetica,sans-Serif" font-size="16.00">formInvoke</text>
</a>
</g>
</g>
<!-- Node1&#45;&gt;Node2 -->
<g id="edge1_Node000001_Node000002" class="edge">
<title>Node1&#45;&gt;Node2</title>
<g id="a_edge1_Node000001_Node000002"><a xlink:title=" ">
<path fill="none" stroke="#63b8ff" stroke-width="2" d="M589.47,-441.97C560.64,-463.89 516.89,-497.15 492.51,-515.68"/>
<polygon fill="#63b8ff" stroke="#63b8ff" stroke-width="2" points="591.87,-444.02 597.72,-435.18 587.64,-438.45 591.87,-444.02"/>
</a>
</g>
</g>
<!-- Node16 -->
<g id="Node000016" class="node">
<title>Node16</title>
<g id="a_Node000016"><a xlink:href="../../d7/dba/menuutil_8c.html#ae6ed898f3726361b1edde3f8707f0260" target="_top" xlink:title="Displays message box on the screen with title and message.">
<polygon fill="white" stroke="#666666" points="559.5,-325.75 387.5,-325.75 387.5,-299 559.5,-299 559.5,-325.75"/>
<text text-anchor="middle" x="473.5" y="-306.55" font-family="Helvetica,sans-Serif" font-size="16.00">menuUtilMessagebox</text>
</a>
</g>
</g>
<!-- Node1&#45;&gt;Node16 -->
<g id="edge7_Node000001_Node000016" class="edge">
<title>Node1&#45;&gt;Node16</title>
<g id="a_edge7_Node000001_Node000016"><a xlink:title=" ">
<path fill="none" stroke="#63b8ff" stroke-width="2" d="M589.47,-398.98C560.64,-377.26 516.89,-344.3 492.51,-325.94"/>
<polygon fill="#63b8ff" stroke="#63b8ff" stroke-width="2" points="587.62,-402.48 597.72,-405.7 591.83,-396.88 587.62,-402.48"/>
</a>
</g>
</g>
<!-- Node3 -->
<g id="Node000003" class="node">
<title>Node3</title>
<g id="a_Node000003"><a xlink:href="../../dc/dc6/carsmenu_8c.html#a30a34923bcd0082000de90700343bd84" target="_top" xlink:title="Function for editing car.">
<polygon fill="white" stroke="#666666" points="302.75,-669.75 199,-669.75 199,-643 302.75,-643 302.75,-669.75"/>
<text text-anchor="middle" x="250.88" y="-650.55" font-family="Helvetica,sans-Serif" font-size="16.00">carFormEdit</text>
</a>
</g>
</g>
<!-- Node2&#45;&gt;Node3 -->
<g id="edge2_Node000002_Node000003" class="edge">
<title>Node2&#45;&gt;Node3</title>
<g id="a_edge2_Node000002_Node000003"><a xlink:title=" ">
<path fill="none" stroke="#63b8ff" stroke-width="2" d="M450.67,-552.44C427.94,-575.16 390.29,-609.29 351.5,-629.38 336.54,-637.12 319.13,-642.82 303.1,-646.93"/>
<polygon fill="#63b8ff" stroke="#63b8ff" stroke-width="2" points="453.24,-554.78 457.74,-545.19 448.24,-549.88 453.24,-554.78"/>
</a>
</g>
</g>
<!-- Node13 -->
<g id="Node000013" class="node">
<title>Node13</title>
<g id="a_Node000013"><a xlink:href="../../da/de9/clientsmenu_8c.html#a6edce5784156f2643efd7ccc086716e3" target="_top" xlink:title="Function for editing client.">
<polygon fill="#fff0f0" stroke="red" points="310.62,-542.75 191.12,-542.75 191.12,-516 310.62,-516 310.62,-542.75"/>
<text text-anchor="middle" x="250.88" y="-523.55" font-family="Helvetica,sans-Serif" font-size="16.00">clientFormEdit</text>
</a>
</g>
</g>
<!-- Node2&#45;&gt;Node13 -->
<g id="edge5_Node000002_Node000013" class="edge">
<title>Node2&#45;&gt;Node13</title>
<g id="a_edge5_Node000002_Node000013"><a xlink:title=" ">
<path fill="none" stroke="#63b8ff" stroke-width="2" d="M412.28,-529.38C380.7,-529.38 342.18,-529.38 310.79,-529.38"/>
<polygon fill="#63b8ff" stroke="#63b8ff" stroke-width="2" points="411.9,-532.88 421.9,-529.38 411.9,-525.88 411.9,-532.88"/>
</a>
</g>
</g>
<!-- Node4 -->
<g id="Node000004" class="node">
<title>Node4</title>
<g id="a_Node000004"><a xlink:href="../../dc/dc6/carsmenu_8c.html#a920be2aa6ca8626fdd965865d26f3fd4" target="_top" xlink:title="Function for adding a car.">
<polygon fill="#fff0f0" stroke="red" points="91.38,-628.75 22.88,-628.75 22.88,-602 91.38,-602 91.38,-628.75"/>
<text text-anchor="middle" x="57.12" y="-609.55" font-family="Helvetica,sans-Serif" font-size="16.00">addCar</text>
</a>
</g>
</g>
<!-- Node3&#45;&gt;Node4 -->
<g id="edge3_Node000003_Node000004" class="edge">
<title>Node3&#45;&gt;Node4</title>
<g id="a_edge3_Node000003_Node000004"><a xlink:title=" ">
<path fill="none" stroke="#63b8ff" stroke-width="2" d="M186.45,-642.81C154.77,-636.04 117.73,-628.12 91.61,-622.53"/>
<polygon fill="#63b8ff" stroke="#63b8ff" stroke-width="2" points="186.23,-646.77 196.74,-645.44 187.69,-639.93 186.23,-646.77"/>
</a>
</g>
</g>
<!-- Node12 -->
<g id="Node000012" class="node">
<title>Node12</title>
<g id="a_Node000012"><a xlink:href="../../dc/dc6/carsmenu_8c.html#acf8ae724beca8714d7d114a7f2539895" target="_top" xlink:title="Edit car.">
<polygon fill="#fff0f0" stroke="red" points="90.25,-325.75 24,-325.75 24,-299 90.25,-299 90.25,-325.75"/>
<text text-anchor="middle" x="57.12" y="-306.55" font-family="Helvetica,sans-Serif" font-size="16.00">carEdit</text>
</a>
</g>
</g>
<!-- Node3&#45;&gt;Node12 -->
<g id="edge4_Node000003_Node000012" class="edge">
<title>Node3&#45;&gt;Node12</title>
<g id="a_edge4_Node000003_Node000012"><a xlink:title=" ">
<path fill="none" stroke="#63b8ff" stroke-width="2" d="M202.11,-637.03C183.52,-627.33 163.53,-613.87 150.25,-596.38 113.99,-548.63 132.53,-523.47 114.25,-466.38 97.42,-413.8 73.87,-352.47 63.44,-325.85"/>
<polygon fill="#63b8ff" stroke="#63b8ff" stroke-width="2" points="201.22,-640.47 211.74,-641.72 204.3,-634.18 201.22,-640.47"/>
</a>
</g>
</g>
<!-- Node14 -->
<g id="Node000014" class="node">
<title>Node14</title>
<g id="a_Node000014"><a xlink:href="../../da/de9/clientsmenu_8c.html#a37a5ed3b8a63a9497f34682ce7db3126" target="_top" xlink:title="function for adding client;">
<polygon fill="#fff0f0" stroke="red" points="99.25,-501.75 15,-501.75 15,-475 99.25,-475 99.25,-501.75"/>
<text text-anchor="middle" x="57.12" y="-482.55" font-family="Helvetica,sans-Serif" font-size="16.00">addClient</text>
</a>
</g>
</g>
<!-- Node13&#45;&gt;Node14 -->
<g id="edge6_Node000013_Node000014" class="edge">
<title>Node13&#45;&gt;Node14</title>
<g id="a_edge6_Node000013_Node000014"><a xlink:title=" ">
<path fill="none" stroke="#63b8ff" stroke-width="2" d="M178.41,-514.09C151.88,-508.42 122.68,-502.18 99.7,-497.26"/>
<polygon fill="#63b8ff" stroke="#63b8ff" stroke-width="2" points="178.27,-518.07 188.78,-516.74 179.73,-511.23 178.27,-518.07"/>
</a>
</g>
</g>
<!-- Node16&#45;&gt;Node4 -->
<g id="edge8_Node000016_Node000004" class="edge">
<title>Node16&#45;&gt;Node4</title>
<g id="a_edge8_Node000016_Node000004"><a xlink:title=" ">
<path fill="none" stroke="#63b8ff" stroke-width="2" d="M461.23,-337.65C444.74,-374.74 413.22,-446.16 387.5,-507.38 370.97,-546.71 386.09,-571.39 351.5,-596.38 310.85,-625.74 159.75,-621.22 91.71,-617.53"/>
<polygon fill="#63b8ff" stroke="#63b8ff" stroke-width="2" points="464.53,-338.59 465.4,-328.03 458.13,-335.75 464.53,-338.59"/>
</a>
</g>
</g>
<!-- Node16&#45;&gt;Node14 -->
<g id="edge9_Node000016_Node000014" class="edge">
<title>Node16&#45;&gt;Node14</title>
<g id="a_edge9_Node000016_Node000014"><a xlink:title=" ">
<path fill="none" stroke="#63b8ff" stroke-width="2" d="M461.5,-337.55C444.07,-373.96 406.38,-440.14 351.5,-469.38 270.64,-512.45 158.94,-504.46 99.4,-495.84"/>
<polygon fill="#63b8ff" stroke="#63b8ff" stroke-width="2" points="464.8,-338.57 465.81,-328.02 458.44,-335.64 464.8,-338.57"/>
</a>
</g>
</g>
<!-- Node17 -->
<g id="Node000017" class="node">
<title>Node17</title>
<g id="a_Node000017"><a xlink:href="../../dc/dc6/carsmenu_8c.html#ad451b82b7f3d31d1bb3fc4c210941579" target="_top" xlink:title="Invokes the listView of cars.">
<polygon fill="#fff0f0" stroke="red" points="297.88,-235.75 203.88,-235.75 203.88,-209 297.88,-209 297.88,-235.75"/>
<text text-anchor="middle" x="250.88" y="-216.55" font-family="Helvetica,sans-Serif" font-size="16.00">carChoose</text>
</a>
</g>
</g>
<!-- Node16&#45;&gt;Node17 -->
<g id="edge10_Node000016_Node000017" class="edge">
<title>Node16&#45;&gt;Node17</title>
<g id="a_edge10_Node000016_Node000017"><a xlink:title=" ">
<path fill="none" stroke="#63b8ff" stroke-width="2" d="M441.15,-291.82C417.39,-277.04 383.48,-257.64 351.5,-245.38 334.6,-238.89 315.35,-233.92 298.3,-230.29"/>
<polygon fill="#63b8ff" stroke="#63b8ff" stroke-width="2" points="439.63,-295.26 449.95,-297.65 443.37,-289.34 439.63,-295.26"/>
</a>
</g>
</g>
<!-- Node19 -->
<g id="Node000019" class="node">
<title>Node19</title>
<g id="a_Node000019"><a xlink:href="../../dc/dc6/carsmenu_8c.html#a76be213354bbaa3d64a095bafa1ec8d2" target="_top" xlink:title="Removes a car.">
<polygon fill="#fff0f0" stroke="red" points="106.38,-194.75 7.88,-194.75 7.88,-168 106.38,-168 106.38,-194.75"/>
<text text-anchor="middle" x="57.12" y="-175.55" font-family="Helvetica,sans-Serif" font-size="16.00">carRemove</text>
</a>
</g>
</g>
<!-- Node16&#45;&gt;Node19 -->
<g id="edge13_Node000016_Node000019" class="edge">
<title>Node16&#45;&gt;Node19</title>
<g id="a_edge13_Node000016_Node000019"><a xlink:title=" ">
<path fill="none" stroke="#63b8ff" stroke-width="2" d="M455.05,-288.44C433.93,-261.59 395.65,-219.34 351.5,-200.38 271.07,-165.83 166.74,-169.04 106.63,-174.93"/>
<polygon fill="#63b8ff" stroke="#63b8ff" stroke-width="2" points="452.92,-290.73 461.77,-296.55 458.49,-286.48 452.92,-290.73"/>
</a>
</g>
</g>
<!-- Node20 -->
<g id="Node000020" class="node">
<title>Node20</title>
<g id="a_Node000020"><a xlink:href="../../da/de9/clientsmenu_8c.html#a1d711b31a5a18af01cdd582e537ff921" target="_top" xlink:title="Invokes ListView of clients.">
<polygon fill="#fff0f0" stroke="red" points="305.75,-71.75 196,-71.75 196,-45 305.75,-45 305.75,-71.75"/>
<text text-anchor="middle" x="250.88" y="-52.55" font-family="Helvetica,sans-Serif" font-size="16.00">clientChoose</text>
</a>
</g>
</g>
<!-- Node16&#45;&gt;Node20 -->
<g id="edge14_Node000016_Node000020" class="edge">
<title>Node16&#45;&gt;Node20</title>
<g id="a_edge14_Node000016_Node000020"><a xlink:title=" ">
<path fill="none" stroke="#63b8ff" stroke-width="2" d="M465.99,-286.28C452.78,-238.87 418.25,-138.57 351.5,-85.38 338.54,-75.04 321.93,-68.65 306.02,-64.71"/>
<polygon fill="#63b8ff" stroke="#63b8ff" stroke-width="2" points="463.33,-287.92 469.29,-296.68 470.1,-286.12 463.33,-287.92"/>
</a>
</g>
</g>
<!-- Node22 -->
<g id="Node000022" class="node">
<title>Node22</title>
<g id="a_Node000022"><a xlink:href="../../da/de9/clientsmenu_8c.html#ae81aa78f6e32fdd87e554ba85c063111" target="_top" xlink:title="Remove client.">
<polygon fill="#fff0f0" stroke="red" points="114.25,-71.75 0,-71.75 0,-45 114.25,-45 114.25,-71.75"/>
<text text-anchor="middle" x="57.12" y="-52.55" font-family="Helvetica,sans-Serif" font-size="16.00">clientRemove</text>
</a>
</g>
</g>
<!-- Node16&#45;&gt;Node22 -->
<g id="edge16_Node000016_Node000022" class="edge">
<title>Node16&#45;&gt;Node22</title>
<g id="a_edge16_Node000016_Node000022"><a xlink:title=" ">
<path fill="none" stroke="#63b8ff" stroke-width="2" d="M464.06,-286.37C448.83,-243.88 412.55,-160.13 351.5,-118.38 276.37,-66.99 239.27,-99.4 150.25,-80.38 138.51,-77.87 125.98,-75 114.05,-72.18"/>
<polygon fill="#63b8ff" stroke="#63b8ff" stroke-width="2" points="461.71,-288.29 468.27,-296.61 468.33,-286.02 461.71,-288.29"/>
</a>
</g>
</g>
<!-- Node23 -->
<g id="Node000023" class="node">
<title>Node23</title>
<g id="a_Node000023"><a xlink:href="../../d3/df4/dbhandle_8c.html#a4bfe377ba6dd3a7e3024c825de1485dd" target="_top" xlink:title="Remove clinet from database.">
<polygon fill="white" stroke="#666666" points="339.5,-26.75 162.25,-26.75 162.25,0 339.5,0 339.5,-26.75"/>
<text text-anchor="middle" x="250.88" y="-7.55" font-family="Helvetica,sans-Serif" font-size="16.00">dbHandlClientRemove</text>
</a>
</g>
</g>
<!-- Node16&#45;&gt;Node23 -->
<g id="edge17_Node000016_Node000023" class="edge">
<title>Node16&#45;&gt;Node23</title>
<g id="a_edge17_Node000016_Node000023"><a xlink:title=" ">
<path fill="none" stroke="#63b8ff" stroke-width="2" d="M468.87,-285.91C459.82,-230.56 430.97,-102.27 351.5,-36.38 347.13,-32.75 342.29,-29.67 337.18,-27.06"/>
<polygon fill="#63b8ff" stroke="#63b8ff" stroke-width="2" points="465.84,-287.25 470.8,-296.61 472.76,-286.2 465.84,-287.25"/>
</a>
</g>
</g>
<!-- Node24 -->
<g id="Node000024" class="node">
<title>Node24</title>
<g id="a_Node000024"><a xlink:href="../../d3/df4/dbhandle_8c.html#ae62043f5776328dcdc74dc9f29c4e2c6" target="_top" xlink:title="Insert a car into the database.">
<polygon fill="white" stroke="#666666" points="326.38,-587.75 175.38,-587.75 175.38,-561 326.38,-561 326.38,-587.75"/>
<text text-anchor="middle" x="250.88" y="-568.55" font-family="Helvetica,sans-Serif" font-size="16.00">dbHandleCarInsert</text>
</a>
</g>
</g>
<!-- Node16&#45;&gt;Node24 -->
<g id="edge19_Node000016_Node000024" class="edge">
<title>Node16&#45;&gt;Node24</title>
<g id="a_edge19_Node000016_Node000024"><a xlink:title=" ">
<path fill="none" stroke="#63b8ff" stroke-width="2" d="M462.76,-337.98C441.11,-393.59 388.02,-522.77 351.5,-551.38 344.16,-557.12 335.65,-561.48 326.74,-564.77"/>
<polygon fill="#63b8ff" stroke="#63b8ff" stroke-width="2" points="466,-338.7 466.33,-328.11 459.47,-336.18 466,-338.7"/>
</a>
</g>
</g>
<!-- Node25 -->
<g id="Node000025" class="node">
<title>Node25</title>
<g id="a_Node000025"><a xlink:href="../../d3/df4/dbhandle_8c.html#a230344c970b882095a893674614099c4" target="_top" xlink:title="Remove a car from the database.">
<polygon fill="white" stroke="#666666" points="336.12,-153.75 165.62,-153.75 165.62,-127 336.12,-127 336.12,-153.75"/>
<text text-anchor="middle" x="250.88" y="-134.55" font-family="Helvetica,sans-Serif" font-size="16.00">dbHandleCarRemove</text>
</a>
</g>
</g>
<!-- Node16&#45;&gt;Node25 -->
<g id="edge21_Node000016_Node000025" class="edge">
<title>Node16&#45;&gt;Node25</title>
<g id="a_edge21_Node000016_Node000025"><a xlink:title=" ">
<path fill="none" stroke="#63b8ff" stroke-width="2" d="M458.52,-287.63C438.86,-255.1 399.96,-198.44 351.5,-167.38 343.13,-162.01 333.7,-157.7 324.07,-154.24"/>
<polygon fill="#63b8ff" stroke="#63b8ff" stroke-width="2" points="456.01,-289.97 464.1,-296.81 462.05,-286.42 456.01,-289.97"/>
</a>
</g>
</g>
<!-- Node26 -->
<g id="Node000026" class="node">
<title>Node26</title>
<g id="a_Node000026"><a xlink:href="../../d3/df4/dbhandle_8c.html#a127bbad9ae9228590e2a7eb06a085321" target="_top" xlink:title="Update a car in the database.">
<polygon fill="white" stroke="#666666" points="332,-325.75 169.75,-325.75 169.75,-299 332,-299 332,-325.75"/>
<text text-anchor="middle" x="250.88" y="-306.55" font-family="Helvetica,sans-Serif" font-size="16.00">dbHandleCarUpdate</text>
</a>
</g>
</g>
<!-- Node16&#45;&gt;Node26 -->
<g id="edge23_Node000016_Node000026" class="edge">
<title>Node16&#45;&gt;Node26</title>
<g id="a_edge23_Node000016_Node000026"><a xlink:title=" ">
<path fill="none" stroke="#63b8ff" stroke-width="2" d="M374.37,-312.38C360.28,-312.38 345.93,-312.38 332.24,-312.38"/>
<polygon fill="#63b8ff" stroke="#63b8ff" stroke-width="2" points="374.2,-315.88 384.2,-312.38 374.2,-308.88 374.2,-315.88"/>
</a>
</g>
</g>
<!-- Node27 -->
<g id="Node000027" class="node">
<title>Node27</title>
<g id="a_Node000027"><a xlink:href="../../d3/df4/dbhandle_8c.html#a10cc2cd742cf382f48c04428af09189f" target="_top" xlink:title="Insert client into db.">
<polygon fill="white" stroke="#666666" points="334.25,-460.75 167.5,-460.75 167.5,-434 334.25,-434 334.25,-460.75"/>
<text text-anchor="middle" x="250.88" y="-441.55" font-family="Helvetica,sans-Serif" font-size="16.00">dbHandleClientInsert</text>
</a>
</g>
</g>
<!-- Node16&#45;&gt;Node27 -->
<g id="edge25_Node000016_Node000027" class="edge">
<title>Node16&#45;&gt;Node27</title>
<g id="a_edge25_Node000016_Node000027"><a xlink:title=" ">
<path fill="none" stroke="#63b8ff" stroke-width="2" d="M453.77,-335.87C431.96,-361.6 393.53,-402.13 351.5,-424.38 344.75,-427.95 337.46,-430.97 330,-433.52"/>
<polygon fill="#63b8ff" stroke="#63b8ff" stroke-width="2" points="457.12,-338.11 460.8,-328.17 451.73,-333.64 457.12,-338.11"/>
</a>
</g>
</g>
<!-- Node28 -->
<g id="Node000028" class="node">
<title>Node28</title>
<g id="a_Node000028"><a xlink:href="../../d3/df4/dbhandle_8c.html#aaa0d1881c99c82d3e6dbf0965ae779fa" target="_top" xlink:title="Update Client in database.">
<polygon fill="#fff0f0" stroke="red" points="339.88,-415.75 161.88,-415.75 161.88,-389 339.88,-389 339.88,-415.75"/>
<text text-anchor="middle" x="250.88" y="-396.55" font-family="Helvetica,sans-Serif" font-size="16.00">dbHandleClientUpdate</text>
</a>
</g>
</g>
<!-- Node16&#45;&gt;Node28 -->
<g id="edge27_Node000016_Node000028" class="edge">
<title>Node16&#45;&gt;Node28</title>
<g id="a_edge27_Node000016_Node000028"><a xlink:title=" ">
<path fill="none" stroke="#63b8ff" stroke-width="2" d="M441.15,-332.93C417.39,-347.71 383.48,-367.11 351.5,-379.38 342.38,-382.87 332.59,-385.93 322.82,-388.57"/>
<polygon fill="#63b8ff" stroke="#63b8ff" stroke-width="2" points="443.37,-335.41 449.95,-327.1 439.63,-329.49 443.37,-335.41"/>
</a>
</g>
</g>
<!-- Node29 -->
<g id="Node000029" class="node">
<title>Node29</title>
<g id="a_Node000029"><a xlink:href="../../d3/df4/dbhandle_8c.html#a93d9b43b32495dc8630963c174aeba05" target="_top" xlink:title="Given query and callback function create List based on the query.">
<polygon fill="#fff0f0" stroke="red" points="351.5,-370.75 150.25,-370.75 150.25,-344 351.5,-344 351.5,-370.75"/>
<text text-anchor="middle" x="250.88" y="-351.55" font-family="Helvetica,sans-Serif" font-size="16.00">dbHandleGetResultAsList</text>
</a>
</g>
</g>
<!-- Node16&#45;&gt;Node29 -->
<g id="edge28_Node000016_Node000029" class="edge">
<title>Node16&#45;&gt;Node29</title>
<g id="a_edge28_Node000016_Node000029"><a xlink:title=" ">
<path fill="none" stroke="#63b8ff" stroke-width="2" d="M391.93,-328.81C368.2,-333.65 342.49,-338.89 319.65,-343.55"/>
<polygon fill="#63b8ff" stroke="#63b8ff" stroke-width="2" points="393.41,-331.67 402.5,-326.24 392.01,-324.81 393.41,-331.67"/>
</a>
</g>
</g>
<!-- Node8 -->
<g id="Node000008" class="node">
<title>Node8</title>
<g id="a_Node000008"><a xlink:href="../../d0/d29/main_8c.html#ae66f6b31b5ad750f1fe042a706a4e3d4" target="_top" xlink:title="main.">
<polygon fill="white" stroke="#666666" points="276.5,-280.75 225.25,-280.75 225.25,-254 276.5,-254 276.5,-280.75"/>
<text text-anchor="middle" x="250.88" y="-261.55" font-family="Helvetica,sans-Serif" font-size="16.00">main</text>
</a>
</g>
</g>
<!-- Node16&#45;&gt;Node8 -->
<g id="edge29_Node000016_Node000008" class="edge">
<title>Node16&#45;&gt;Node8</title>
<g id="a_edge29_Node000016_Node000008"><a xlink:title=" ">
<path fill="none" stroke="#63b8ff" stroke-width="2" d="M391.82,-295.92C351.16,-287.63 304.7,-278.15 276.86,-272.47"/>
<polygon fill="#63b8ff" stroke="#63b8ff" stroke-width="2" points="392.01,-299.94 402.5,-298.51 393.41,-293.08 392.01,-299.94"/>
</a>
</g>
</g>
<!-- Node17&#45;&gt;Node12 -->
<g id="edge11_Node000017_Node000012" class="edge">
<title>Node17&#45;&gt;Node12</title>
<g id="a_edge11_Node000017_Node000012"><a xlink:title=" ">
<path fill="none" stroke="#63b8ff" stroke-width="2" d="M191.08,-231.83C177.33,-235.15 162.99,-239.57 150.25,-245.38 120.2,-259.08 90.15,-283.41 72.89,-298.68"/>
<polygon fill="#63b8ff" stroke="#63b8ff" stroke-width="2" points="192.48,-234.66 201.48,-229.07 190.96,-227.83 192.48,-234.66"/>
</a>
</g>
</g>
<!-- Node17&#45;&gt;Node19 -->
<g id="edge12_Node000017_Node000019" class="edge">
<title>Node17&#45;&gt;Node19</title>
<g id="a_edge12_Node000017_Node000019"><a xlink:title=" ">
<path fill="none" stroke="#63b8ff" stroke-width="2" d="M191.02,-209.79C164.03,-204.02 132.41,-197.26 106.79,-191.78"/>
<polygon fill="#63b8ff" stroke="#63b8ff" stroke-width="2" points="190.95,-213.78 201.46,-212.45 192.41,-206.94 190.95,-213.78"/>
</a>
</g>
</g>
<!-- Node20&#45;&gt;Node22 -->
<g id="edge15_Node000020_Node000022" class="edge">
<title>Node20&#45;&gt;Node22</title>
<g id="a_edge15_Node000020_Node000022"><a xlink:title=" ">
<path fill="none" stroke="#63b8ff" stroke-width="2" d="M182.86,-58.38C160.55,-58.38 135.93,-58.38 114.51,-58.38"/>
<polygon fill="#63b8ff" stroke="#63b8ff" stroke-width="2" points="182.7,-61.88 192.7,-58.38 182.7,-54.88 182.7,-61.88"/>
</a>
</g>
</g>
<!-- Node23&#45;&gt;Node22 -->
<g id="edge18_Node000023_Node000022" class="edge">
<title>Node23&#45;&gt;Node22</title>
<g id="a_edge18_Node000023_Node000022"><a xlink:title=" ">
<path fill="none" stroke="#63b8ff" stroke-width="2" d="M176.93,-30.15C167.94,-32.24 158.88,-34.35 150.25,-36.38 138.72,-39.08 126.39,-42.01 114.62,-44.81"/>
<polygon fill="#63b8ff" stroke="#63b8ff" stroke-width="2" points="178.58,-32.9 187.54,-27.23 177,-26.08 178.58,-32.9"/>
</a>
</g>
</g>
<!-- Node24&#45;&gt;Node4 -->
<g id="edge20_Node000024_Node000004" class="edge">
<title>Node24&#45;&gt;Node4</title>
<g id="a_edge20_Node000024_Node000004"><a xlink:title=" ">
<path fill="none" stroke="#63b8ff" stroke-width="2" d="M172.52,-590.91C144.46,-596.92 114.19,-603.39 91.84,-608.17"/>
<polygon fill="#63b8ff" stroke="#63b8ff" stroke-width="2" points="174.18,-593.71 183.22,-588.2 172.71,-586.87 174.18,-593.71"/>
</a>
</g>
</g>
<!-- Node25&#45;&gt;Node19 -->
<g id="edge22_Node000025_Node000019" class="edge">
<title>Node25&#45;&gt;Node19</title>
<g id="a_edge22_Node000025_Node000019"><a xlink:title=" ">
<path fill="none" stroke="#63b8ff" stroke-width="2" d="M172.67,-156.88C150.41,-161.64 126.74,-166.7 106.74,-170.98"/>
<polygon fill="#63b8ff" stroke="#63b8ff" stroke-width="2" points="174.18,-159.71 183.22,-154.2 172.71,-152.87 174.18,-159.71"/>
</a>
</g>
</g>
<!-- Node26&#45;&gt;Node12 -->
<g id="edge24_Node000026_Node000012" class="edge">
<title>Node26&#45;&gt;Node12</title>
<g id="a_edge24_Node000026_Node000012"><a xlink:title=" ">
<path fill="none" stroke="#63b8ff" stroke-width="2" d="M156.65,-312.38C132.93,-312.38 108.99,-312.38 90.65,-312.38"/>
<polygon fill="#63b8ff" stroke="#63b8ff" stroke-width="2" points="156.39,-315.88 166.39,-312.38 156.39,-308.88 156.39,-315.88"/>
</a>
</g>
</g>
<!-- Node27&#45;&gt;Node14 -->
<g id="edge26_Node000027_Node000014" class="edge">
<title>Node27&#45;&gt;Node14</title>
<g id="a_edge26_Node000027_Node000014"><a xlink:title=" ">
<path fill="none" stroke="#63b8ff" stroke-width="2" d="M172.75,-463.87C147.76,-469.21 121.01,-474.93 99.64,-479.5"/>
<polygon fill="#63b8ff" stroke="#63b8ff" stroke-width="2" points="174.18,-466.71 183.22,-461.2 172.71,-459.87 174.18,-466.71"/>
</a>
</g>
</g>
</g>
</svg>

<g id="navigator" transform="translate(0 0)" fill="#404254">
  <rect fill="#f2f5e9" fill-opacity="0.5" stroke="#606060" stroke-width=".5" x="0" y="0" width="60" height="60"/>
  <use id="zoomplus" xlink:href="#zoomPlus" x="17" y="9" onmousedown="handleZoom(evt,'in')"/>
  <use id="zoomminus" xlink:href="#zoomMin" x="42" y="9" onmousedown="handleZoom(evt,'out')"/>
  <use id="reset" xlink:href="#resetDef" x="30" y="36" onmousedown="handleReset()"/>
   <use id="arrowup" xlink:href="#arrowUp" x="0" y="0" onmousedown="handlePan(0,-1)"/>
  <use id="arrowright" xlink:href="#arrowRight" x="0" y="0" onmousedown="handlePan(1,0)"/>
  <use id="arrowdown" xlink:href="#arrowDown" x="0" y="0" onmousedown="handlePan(0,1)"/>
  <use id="arrowleft" xlink:href="#arrowLeft" x="0" y="0" onmousedown="handlePan(-1,0)"/>
</g>
<svg viewBox="0 0 15 15" width="100%" height="30px" preserveAspectRatio="xMaxYMin meet">
 <g id="arrow_out" transform="scale(0.3 0.3)">
  <a xlink:href="menuutil_8c_a9941ed217da0309cd9453bdb776d5c51_icgraph_org.svg" target="_base">
   <rect id="button" ry="5" rx="5" y="6" x="6" height="38" width="38"
        fill="#f2f5e9" fill-opacity="0.5" stroke="#606060" stroke-width="1.0"/>
   <path id="arrow"
     d="M 11.500037,31.436501 C 11.940474,20.09759 22.043105,11.32322 32.158766,21.979434 L 37.068811,17.246167 C 37.068811,17.246167 37.088388,32 37.088388,32 L 22.160133,31.978069 C 22.160133,31.978069 26.997745,27.140456 26.997745,27.140456 C 18.528582,18.264221 13.291696,25.230495 11.500037,31.436501 z"
     style="fill:#404040;"/>
  </a>
 </g>
</svg>

<style type='text/css'>
<![CDATA[
[data-mouse-over-selected='false'] { opacity: 0.7; }
[data-mouse-over-selected='true']  { opacity: 1.0; }
]]>
</style>
<script type="application/ecmascript"><![CDATA[
document.addEventListener('DOMContentLoaded', (event) => {
  highlightEdges();
  highlightAdjacentNodes();
});
]]></script>
</svg>
