<?xml version="1.0" encoding="UTF-8" standalone="no"?>
<!DOCTYPE svg PUBLIC "-//W3C//DTD SVG 1.1//EN"
 "http://www.w3.org/Graphics/SVG/1.1/DTD/svg11.dtd">
<!-- Generated by graphviz version 8.0.5 (0)
 -->
<!-- Title: listViewFreeList Pages: 1 -->
<svg width="503pt" height="162pt"
 viewBox="0.00 0.00 503.00 161.75" xmlns="http://www.w3.org/2000/svg" xmlns:xlink="http://www.w3.org/1999/xlink">
<g id="graph0" class="graph" transform="scale(1 1) rotate(0) translate(4 157.75)">
<title>listViewFreeList</title>
<!-- Node1 -->
<g id="Node000001" class="node">
<title>Node1</title>
<g id="a_Node000001"><a xlink:title="frees internal List of listView.">
<polygon fill="#999999" stroke="#666666" points="129.25,-87.75 0,-87.75 0,-61 129.25,-61 129.25,-87.75"/>
<text text-anchor="middle" x="64.62" y="-68.55" font-family="Helvetica,sans-Serif" font-size="16.00">listViewFreeList</text>
</a>
</g>
</g>
<!-- Node2 -->
<g id="Node000002" class="node">
<title>Node2</title>
<g id="a_Node000002"><a xlink:href="../../d7/d40/list_8c.html#afa2a7a1a43bfe8cfafd663b2739b0e2e" target="_top" xlink:title="Removes ListNode from List.">
<polygon fill="white" stroke="#666666" points="286.25,-108.75 165.25,-108.75 165.25,-82 286.25,-82 286.25,-108.75"/>
<text text-anchor="middle" x="225.75" y="-89.55" font-family="Helvetica,sans-Serif" font-size="16.00">listDeleteNode</text>
</a>
</g>
</g>
<!-- Node1&#45;&gt;Node2 -->
<g id="edge1_Node000001_Node000002" class="edge">
<title>Node1&#45;&gt;Node2</title>
<g id="a_edge1_Node000001_Node000002"><a xlink:title=" ">
<path fill="none" stroke="#63b8ff" stroke-width="2" d="M129.43,-82.8C136.91,-83.78 144.58,-84.79 152.17,-85.8"/>
<polygon fill="#63b8ff" stroke="#63b8ff" stroke-width="2" points="151.43,-89.63 161.8,-87.46 152.35,-82.69 151.43,-89.63"/>
</a>
</g>
</g>
<!-- Node4 -->
<g id="Node000004" class="node">
<title>Node4</title>
<g id="a_Node000004"><a xlink:href="../../d7/d40/list_8c.html#a8b8c4f6480771a17429d8e50c200d162" target="_top" xlink:title="Returns pointer to the last element of list.">
<polygon fill="white" stroke="#666666" points="457.88,-153.75 359.38,-153.75 359.38,-127 457.88,-127 457.88,-153.75"/>
<text text-anchor="middle" x="408.62" y="-134.55" font-family="Helvetica,sans-Serif" font-size="16.00">listGetBack</text>
</a>
</g>
</g>
<!-- Node1&#45;&gt;Node4 -->
<g id="edge5_Node000001_Node000004" class="edge">
<title>Node1&#45;&gt;Node4</title>
<g id="a_edge5_Node000001_Node000004"><a xlink:title=" ">
<path fill="none" stroke="#63b8ff" stroke-width="2" d="M91.47,-88.2C111.13,-98.05 139.16,-110.68 165.25,-117.38 225.57,-132.84 296.74,-138.13 346.29,-139.82"/>
<polygon fill="#63b8ff" stroke="#63b8ff" stroke-width="2" points="345.94,-143.4 356.04,-140.2 346.14,-136.4 345.94,-143.4"/>
</a>
</g>
</g>
<!-- Node5 -->
<g id="Node000005" class="node">
<title>Node5</title>
<g id="a_Node000005"><a xlink:href="../../d7/d40/list_8c.html#a81da6612d4d712db1debb1555b18db54" target="_top" xlink:title="Returns pointer to the first element of list.">
<polygon fill="white" stroke="#666666" points="458.62,-63.75 358.62,-63.75 358.62,-37 458.62,-37 458.62,-63.75"/>
<text text-anchor="middle" x="408.62" y="-44.55" font-family="Helvetica,sans-Serif" font-size="16.00">listGetFront</text>
</a>
</g>
</g>
<!-- Node1&#45;&gt;Node5 -->
<g id="edge6_Node000001_Node000005" class="edge">
<title>Node1&#45;&gt;Node5</title>
<g id="a_edge6_Node000001_Node000005"><a xlink:title=" ">
<path fill="none" stroke="#63b8ff" stroke-width="2" d="M129.55,-69.89C191.24,-65.56 284.04,-59.05 345.22,-54.75"/>
<polygon fill="#63b8ff" stroke="#63b8ff" stroke-width="2" points="345.42,-58.04 355.15,-53.85 344.93,-51.06 345.42,-58.04"/>
</a>
</g>
</g>
<!-- Node6 -->
<g id="Node000006" class="node">
<title>Node6</title>
<g id="a_Node000006"><a xlink:href="../../d7/d40/list_8c.html#a0837532833bd96d83104386c1aa69c10" target="_top" xlink:title="How many elements are there in List.">
<polygon fill="white" stroke="#666666" points="259.62,-26.75 191.88,-26.75 191.88,0 259.62,0 259.62,-26.75"/>
<text text-anchor="middle" x="225.75" y="-7.55" font-family="Helvetica,sans-Serif" font-size="16.00">listSize</text>
</a>
</g>
</g>
<!-- Node1&#45;&gt;Node6 -->
<g id="edge7_Node000001_Node000006" class="edge">
<title>Node1&#45;&gt;Node6</title>
<g id="a_edge7_Node000001_Node000006"><a xlink:title=" ">
<path fill="none" stroke="#63b8ff" stroke-width="2" d="M101.73,-60.53C124.8,-51.69 154.88,-40.16 179.53,-30.71"/>
<polygon fill="#63b8ff" stroke="#63b8ff" stroke-width="2" points="181.41,-33.97 189.5,-27.12 178.91,-27.43 181.41,-33.97"/>
</a>
</g>
</g>
<!-- Node3 -->
<g id="Node000003" class="node">
<title>Node3</title>
<g id="a_Node000003"><a xlink:href="../../d7/d40/list_8c.html#a625985389d2bf8d34673ba60958f7b86" target="_top" xlink:title="Free memory taken by ListNode.">
<polygon fill="white" stroke="#666666" points="495,-108.75 322.25,-108.75 322.25,-82 495,-82 495,-108.75"/>
<text text-anchor="middle" x="408.62" y="-89.55" font-family="Helvetica,sans-Serif" font-size="16.00">listDealocateListNode</text>
</a>
</g>
</g>
<!-- Node2&#45;&gt;Node3 -->
<g id="edge2_Node000002_Node000003" class="edge">
<title>Node2&#45;&gt;Node3</title>
<g id="a_edge2_Node000002_Node000003"><a xlink:title=" ">
<path fill="none" stroke="#63b8ff" stroke-width="2" d="M286.73,-95.38C293.97,-95.38 301.52,-95.38 309.13,-95.38"/>
<polygon fill="#63b8ff" stroke="#63b8ff" stroke-width="2" points="308.99,-98.88 318.99,-95.38 308.99,-91.88 308.99,-98.88"/>
</a>
</g>
</g>
<!-- Node2&#45;&gt;Node4 -->
<g id="edge3_Node000002_Node000004" class="edge">
<title>Node2&#45;&gt;Node4</title>
<g id="a_edge3_Node000002_Node000004"><a xlink:title=" ">
<path fill="none" stroke="#63b8ff" stroke-width="2" d="M282.49,-109.24C302.78,-114.29 325.81,-120.02 346.54,-125.18"/>
<polygon fill="#63b8ff" stroke="#63b8ff" stroke-width="2" points="346.55,-129.28 357.1,-128.3 348.24,-122.49 346.55,-129.28"/>
</a>
</g>
</g>
<!-- Node2&#45;&gt;Node5 -->
<g id="edge4_Node000002_Node000005" class="edge">
<title>Node2&#45;&gt;Node5</title>
<g id="a_edge4_Node000002_Node000005"><a xlink:title=" ">
<path fill="none" stroke="#63b8ff" stroke-width="2" d="M282.49,-81.51C302.52,-76.52 325.23,-70.87 345.75,-65.77"/>
<polygon fill="#63b8ff" stroke="#63b8ff" stroke-width="2" points="347.34,-68.48 356.2,-62.67 345.65,-61.69 347.34,-68.48"/>
</a>
</g>
</g>
</g>
</svg>
