<?xml version="1.0" encoding="UTF-8" standalone="no"?>
<!DOCTYPE svg PUBLIC "-//W3C//DTD SVG 1.1//EN"
 "http://www.w3.org/Graphics/SVG/1.1/DTD/svg11.dtd">
<!-- Generated by graphviz version 8.0.5 (0)
 -->
<!-- Title: menuutil.c Pages: 1 -->
<!--zoomable 223 -->

<svg id="main" version="1.1" xmlns="http://www.w3.org/2000/svg" xmlns:xlink="http://www.w3.org/1999/xlink" xml:space="preserve" onload="init(evt)">
<style type="text/css"><![CDATA[
.node, .edge {opacity: 0.7;}
.node.selected, .edge.selected {opacity: 1;}
.edge:hover path { stroke: red; }
.edge:hover polygon { stroke: red; fill: red; }
]]></style>

<defs>
  <circle id="rim" cx="0" cy="0" r="7"/>
  <circle id="rim2" cx="0" cy="0" r="3.5"/>
  <g id="zoomPlus">
    <use xlink:href="#rim" fill="#404040"><set attributeName="fill" to="#808080" begin="zoomplus.mouseover" end="zoomplus.mouseout"/></use>
    <path d="M-4,0h8M0,-4v8" fill="none" stroke="white" stroke-width="1.5" pointer-events="none"/>
  </g>
  <g id="zoomMin">
    <use xlink:href="#rim" fill="#404040"><set attributeName="fill" to="#808080" begin="zoomminus.mouseover" end="zoomminus.mouseout"/></use>
    <path d="M-4,0h8" fill="none" stroke="white" stroke-width="1.5" pointer-events="none"/>
  </g>
  <g id="arrowUp" transform="translate(30 24)">
    <use xlink:href="#rim"/>
    <path pointer-events="none" fill="none" stroke="white" stroke-width="1.5" d="M0,-3.0v7 M-2.5,-0.5L0,-3.0L2.5,-0.5"/>
  </g>
  <g id="arrowRight" transform="rotate(90) translate(36 -43)">
    <use xlink:href="#rim"/>
    <path pointer-events="none" fill="none" stroke="white" stroke-width="1.5" d="M0,-3.0v7 M-2.5,-0.5L0,-3.0L2.5,-0.5"/>
  </g>
  <g id="arrowDown" transform="rotate(180) translate(-30 -48)">
    <use xlink:href="#rim"/>
    <path pointer-events="none" fill="none" stroke="white" stroke-width="1.5" d="M0,-3.0v7 M-2.5,-0.5L0,-3.0L2.5,-0.5"/>
  </g>
  <g id="arrowLeft" transform="rotate(270) translate(-36 17)">
    <use xlink:href="#rim"/>
    <path pointer-events="none" fill="none" stroke="white" stroke-width="1.5" d="M0,-3.0v7 M-2.5,-0.5L0,-3.0L2.5,-0.5"/>
  </g>
  <g id="resetDef">
    <use xlink:href="#rim2" fill="#404040"><set attributeName="fill" to="#808080" begin="reset.mouseover" end="reset.mouseout"/></use>
  </g>
</defs>
<script type="application/ecmascript">
var viewWidth = 967;
var viewHeight = 223;
var sectionId = 'dynsection-0';
</script>
<script type="application/ecmascript" xlink:href="../../svg.min.js"/>
<svg id="graph" class="graph">
<g id="viewport">
<title>menuutil.c</title>
<!-- Node1 -->
<g id="Node000001" class="node">
<title>Node1</title>
<g id="a_Node000001"><a xlink:title="Menu displaying utilities.">
<polygon fill="#999999" stroke="#666666" points="435.39,-215 345.14,-215 345.14,-188.25 435.39,-188.25 435.39,-215"/>
<text text-anchor="middle" x="390.27" y="-195.8" font-family="Helvetica,sans-Serif" font-size="16.00">menuutil.c</text>
</a>
</g>
</g>
<!-- Node2 -->
<g id="Node000002" class="node">
<title>Node2</title>
<g id="a_Node000002"><a xlink:href="../../de/d0e/menuutil_8h.html" target="_top" xlink:title="Header file for menu operations.">
<polygon fill="white" stroke="#666666" points="106.77,-152.25 15.77,-152.25 15.77,-125.5 106.77,-125.5 106.77,-152.25"/>
<text text-anchor="middle" x="61.27" y="-133.05" font-family="Helvetica,sans-Serif" font-size="16.00">menuutil.h</text>
</a>
</g>
</g>
<!-- Node1&#45;&gt;Node2 -->
<g id="edge1_Node000001_Node000002" class="edge">
<title>Node1&#45;&gt;Node2</title>
<g id="a_edge1_Node000001_Node000002"><a xlink:title=" ">
<path fill="none" stroke="#63b8ff" stroke-width="2" d="M344.99,-192.84C291.47,-183.57 199.77,-167.4 121.27,-152.25 120.69,-152.14 120.11,-152.03 119.53,-151.91"/>
<polygon fill="#63b8ff" stroke="#63b8ff" stroke-width="2" points="119.59,-147.96 109.1,-149.45 118.23,-154.83 119.59,-147.96"/>
</a>
</g>
</g>
<!-- Node3 -->
<g id="Node000003" class="node">
<title>Node3</title>
<g id="a_Node000003"><a xlink:href="../../da/d23/list_8h.html" target="_top" xlink:title="Doubly linked list interface.">
<polygon fill="white" stroke="#666666" points="65.14,-89.5 15.39,-89.5 15.39,-62.75 65.14,-62.75 65.14,-89.5"/>
<text text-anchor="middle" x="40.27" y="-70.3" font-family="Helvetica,sans-Serif" font-size="16.00">list.h</text>
</a>
</g>
</g>
<!-- Node1&#45;&gt;Node3 -->
<g id="edge5_Node000001_Node000003" class="edge">
<title>Node1&#45;&gt;Node3</title>
<g id="a_edge5_Node000001_Node000003"><a xlink:title=" ">
<path fill="none" stroke="#63b8ff" stroke-width="2" d="M344.92,-198.23C248.15,-192.65 28.38,-177.32 6.27,-152.25 -7.17,-137.01 4.74,-115.58 18.02,-99.51"/>
<polygon fill="#63b8ff" stroke="#63b8ff" stroke-width="2" points="20.62,-101.62 24.7,-91.84 15.41,-96.94 20.62,-101.62"/>
</a>
</g>
</g>
<!-- Node4 -->
<g id="Node000004" class="node">
<title>Node4</title>
<g id="a_Node000004"><a xlink:title=" ">
<polygon fill="#e0e0e0" stroke="#999999" points="147.27,-26.75 65.27,-26.75 65.27,0 147.27,0 147.27,-26.75"/>
<text text-anchor="middle" x="106.27" y="-7.55" font-family="Helvetica,sans-Serif" font-size="16.00">stdbool.h</text>
</a>
</g>
</g>
<!-- Node1&#45;&gt;Node4 -->
<g id="edge13_Node000001_Node000004" class="edge">
<title>Node1&#45;&gt;Node4</title>
<g id="a_edge13_Node000001_Node000004"><a xlink:title=" ">
<path fill="none" stroke="#63b8ff" stroke-width="2" d="M344.99,-200.75C301.13,-198.52 235.14,-188.69 192.27,-152.25 159.34,-124.26 178.36,-98.62 154.27,-62.75 147.79,-53.11 139.23,-43.76 131.13,-35.89"/>
<polygon fill="#63b8ff" stroke="#63b8ff" stroke-width="2" points="133.37,-33.33 123.66,-29.1 128.61,-38.46 133.37,-33.33"/>
</a>
</g>
</g>
<!-- Node5 -->
<g id="Node000005" class="node">
<title>Node5</title>
<g id="a_Node000005"><a xlink:title=" ">
<polygon fill="#e0e0e0" stroke="#999999" points="145.14,-89.5 83.39,-89.5 83.39,-62.75 145.14,-62.75 145.14,-89.5"/>
<text text-anchor="middle" x="114.27" y="-70.3" font-family="Helvetica,sans-Serif" font-size="16.00">form.h</text>
</a>
</g>
</g>
<!-- Node1&#45;&gt;Node5 -->
<g id="edge8_Node000001_Node000005" class="edge">
<title>Node1&#45;&gt;Node5</title>
<g id="a_edge8_Node000001_Node000005"><a xlink:title=" ">
<path fill="none" stroke="#63b8ff" stroke-width="2" d="M344.8,-195.47C286.25,-188.1 188.55,-173.11 159.27,-152.25 141.8,-139.81 129.92,-118.27 122.77,-101.44"/>
<polygon fill="#63b8ff" stroke="#63b8ff" stroke-width="2" points="126.1,-99.77 119.21,-91.71 119.57,-102.3 126.1,-99.77"/>
</a>
</g>
</g>
<!-- Node6 -->
<g id="Node000006" class="node">
<title>Node6</title>
<g id="a_Node000006"><a xlink:title=" ">
<polygon fill="#e0e0e0" stroke="#999999" points="275.14,-152.25 201.39,-152.25 201.39,-125.5 275.14,-125.5 275.14,-152.25"/>
<text text-anchor="middle" x="238.27" y="-133.05" font-family="Helvetica,sans-Serif" font-size="16.00">assert.h</text>
</a>
</g>
</g>
<!-- Node1&#45;&gt;Node6 -->
<g id="edge6_Node000001_Node000006" class="edge">
<title>Node1&#45;&gt;Node6</title>
<g id="a_edge6_Node000001_Node000006"><a xlink:title=" ">
<path fill="none" stroke="#63b8ff" stroke-width="2" d="M358.4,-187.89C336.28,-179.05 306.53,-167.16 282.17,-157.42"/>
<polygon fill="#63b8ff" stroke="#63b8ff" stroke-width="2" points="282.93,-154.16 272.35,-153.7 280.34,-160.66 282.93,-154.16"/>
</a>
</g>
</g>
<!-- Node7 -->
<g id="Node000007" class="node">
<title>Node7</title>
<g id="a_Node000007"><a xlink:title=" ">
<polygon fill="#e0e0e0" stroke="#999999" points="339.64,-152.25 292.89,-152.25 292.89,-125.5 339.64,-125.5 339.64,-152.25"/>
<text text-anchor="middle" x="316.27" y="-133.05" font-family="Helvetica,sans-Serif" font-size="16.00">eti.h</text>
</a>
</g>
</g>
<!-- Node1&#45;&gt;Node7 -->
<g id="edge7_Node000001_Node000007" class="edge">
<title>Node1&#45;&gt;Node7</title>
<g id="a_edge7_Node000001_Node000007"><a xlink:title=" ">
<path fill="none" stroke="#63b8ff" stroke-width="2" d="M374.93,-188.04C365.37,-180.19 352.83,-169.89 341.8,-160.84"/>
<polygon fill="#63b8ff" stroke="#63b8ff" stroke-width="2" points="343.78,-157.3 333.83,-153.66 339.34,-162.71 343.78,-157.3"/>
</a>
</g>
</g>
<!-- Node8 -->
<g id="Node000008" class="node">
<title>Node8</title>
<g id="a_Node000008"><a xlink:title=" ">
<polygon fill="#e0e0e0" stroke="#999999" points="423.02,-152.25 357.52,-152.25 357.52,-125.5 423.02,-125.5 423.02,-152.25"/>
<text text-anchor="middle" x="390.27" y="-133.05" font-family="Helvetica,sans-Serif" font-size="16.00">math.h</text>
</a>
</g>
</g>
<!-- Node1&#45;&gt;Node8 -->
<g id="edge9_Node000001_Node000008" class="edge">
<title>Node1&#45;&gt;Node8</title>
<g id="a_edge9_Node000001_Node000008"><a xlink:title=" ">
<path fill="none" stroke="#63b8ff" stroke-width="2" d="M390.27,-188.04C390.27,-181.44 390.27,-173.11 390.27,-165.25"/>
<polygon fill="#63b8ff" stroke="#63b8ff" stroke-width="2" points="393.77,-165.45 390.27,-155.45 386.77,-165.45 393.77,-165.45"/>
</a>
</g>
</g>
<!-- Node9 -->
<g id="Node000009" class="node">
<title>Node9</title>
<g id="a_Node000009"><a xlink:title=" ">
<polygon fill="#e0e0e0" stroke="#999999" points="511.27,-152.25 441.27,-152.25 441.27,-125.5 511.27,-125.5 511.27,-152.25"/>
<text text-anchor="middle" x="476.27" y="-133.05" font-family="Helvetica,sans-Serif" font-size="16.00">menu.h</text>
</a>
</g>
</g>
<!-- Node1&#45;&gt;Node9 -->
<g id="edge10_Node000001_Node000009" class="edge">
<title>Node1&#45;&gt;Node9</title>
<g id="a_edge10_Node000001_Node000009"><a xlink:title=" ">
<path fill="none" stroke="#63b8ff" stroke-width="2" d="M408.09,-188.04C419.54,-179.95 434.67,-169.26 447.77,-160"/>
<polygon fill="#63b8ff" stroke="#63b8ff" stroke-width="2" points="450.03,-162.28 456.17,-153.66 445.99,-156.57 450.03,-162.28"/>
</a>
</g>
</g>
<!-- Node10 -->
<g id="Node000010" class="node">
<title>Node10</title>
<g id="a_Node000010"><a xlink:title=" ">
<polygon fill="#e0e0e0" stroke="#999999" points="615.52,-152.25 529.02,-152.25 529.02,-125.5 615.52,-125.5 615.52,-152.25"/>
<text text-anchor="middle" x="572.27" y="-133.05" font-family="Helvetica,sans-Serif" font-size="16.00">ncurses.h</text>
</a>
</g>
</g>
<!-- Node1&#45;&gt;Node10 -->
<g id="edge11_Node000001_Node000010" class="edge">
<title>Node1&#45;&gt;Node10</title>
<g id="a_edge11_Node000001_Node000010"><a xlink:title=" ">
<path fill="none" stroke="#63b8ff" stroke-width="2" d="M428.42,-187.89C455.51,-178.85 492.16,-166.62 521.68,-156.76"/>
<polygon fill="#63b8ff" stroke="#63b8ff" stroke-width="2" points="523.47,-159.18 531.85,-152.7 521.26,-152.54 523.47,-159.18"/>
</a>
</g>
</g>
<!-- Node11 -->
<g id="Node000011" class="node">
<title>Node11</title>
<g id="a_Node000011"><a xlink:title=" ">
<polygon fill="#e0e0e0" stroke="#999999" points="702.89,-152.25 633.64,-152.25 633.64,-125.5 702.89,-125.5 702.89,-152.25"/>
<text text-anchor="middle" x="668.27" y="-133.05" font-family="Helvetica,sans-Serif" font-size="16.00">panel.h</text>
</a>
</g>
</g>
<!-- Node1&#45;&gt;Node11 -->
<g id="edge12_Node000001_Node000011" class="edge">
<title>Node1&#45;&gt;Node11</title>
<g id="a_edge12_Node000001_Node000011"><a xlink:title=" ">
<path fill="none" stroke="#63b8ff" stroke-width="2" d="M435.77,-192.2C480.4,-183.72 550.65,-169.8 620.66,-153.01"/>
<polygon fill="#63b8ff" stroke="#63b8ff" stroke-width="2" points="622.37,-155.72 631.26,-149.96 620.72,-148.91 622.37,-155.72"/>
</a>
</g>
</g>
<!-- Node12 -->
<g id="Node000012" class="node">
<title>Node12</title>
<g id="a_Node000012"><a xlink:title=" ">
<polygon fill="#e0e0e0" stroke="#999999" points="785.27,-152.25 721.27,-152.25 721.27,-125.5 785.27,-125.5 785.27,-152.25"/>
<text text-anchor="middle" x="753.27" y="-133.05" font-family="Helvetica,sans-Serif" font-size="16.00">stdio.h</text>
</a>
</g>
</g>
<!-- Node1&#45;&gt;Node12 -->
<g id="edge14_Node000001_Node000012" class="edge">
<title>Node1&#45;&gt;Node12</title>
<g id="a_edge14_Node000001_Node000012"><a xlink:title=" ">
<path fill="none" stroke="#63b8ff" stroke-width="2" d="M435.71,-195.89C495.97,-189.15 605.77,-175.3 708.65,-152.83"/>
<polygon fill="#63b8ff" stroke="#63b8ff" stroke-width="2" points="710.15,-155.63 719.15,-150.04 708.63,-148.8 710.15,-155.63"/>
</a>
</g>
</g>
<!-- Node13 -->
<g id="Node000013" class="node">
<title>Node13</title>
<g id="a_Node000013"><a xlink:title=" ">
<polygon fill="#e0e0e0" stroke="#999999" points="871.14,-152.25 803.39,-152.25 803.39,-125.5 871.14,-125.5 871.14,-152.25"/>
<text text-anchor="middle" x="837.27" y="-133.05" font-family="Helvetica,sans-Serif" font-size="16.00">stdlib.h</text>
</a>
</g>
</g>
<!-- Node1&#45;&gt;Node13 -->
<g id="edge15_Node000001_Node000013" class="edge">
<title>Node1&#45;&gt;Node13</title>
<g id="a_edge15_Node000001_Node000013"><a xlink:title=" ">
<path fill="none" stroke="#63b8ff" stroke-width="2" d="M435.78,-197.58C508.71,-192.17 656.37,-179.1 790.59,-152.75"/>
<polygon fill="#63b8ff" stroke="#63b8ff" stroke-width="2" points="792,-155.63 801.12,-150.24 790.63,-148.77 792,-155.63"/>
</a>
</g>
</g>
<!-- Node14 -->
<g id="Node000014" class="node">
<title>Node14</title>
<g id="a_Node000014"><a xlink:title=" ">
<polygon fill="#e0e0e0" stroke="#999999" points="958.89,-152.25 889.64,-152.25 889.64,-125.5 958.89,-125.5 958.89,-152.25"/>
<text text-anchor="middle" x="924.27" y="-133.05" font-family="Helvetica,sans-Serif" font-size="16.00">string.h</text>
</a>
</g>
</g>
<!-- Node1&#45;&gt;Node14 -->
<g id="edge16_Node000001_Node000014" class="edge">
<title>Node1&#45;&gt;Node14</title>
<g id="a_edge16_Node000001_Node000014"><a xlink:title=" ">
<path fill="none" stroke="#63b8ff" stroke-width="2" d="M435.57,-198.81C520.35,-194.85 708.85,-183.35 876.77,-152.64"/>
<polygon fill="#63b8ff" stroke="#63b8ff" stroke-width="2" points="878.14,-155.57 887.33,-150.3 876.86,-148.69 878.14,-155.57"/>
</a>
</g>
</g>
<!-- Node2&#45;&gt;Node3 -->
<g id="edge2_Node000002_Node000003" class="edge">
<title>Node2&#45;&gt;Node3</title>
<g id="a_edge2_Node000002_Node000003"><a xlink:title=" ">
<path fill="none" stroke="#63b8ff" stroke-width="2" d="M56.92,-125.29C54.58,-118.53 51.61,-109.95 48.84,-101.92"/>
<polygon fill="#63b8ff" stroke="#63b8ff" stroke-width="2" points="51.19,-100 44.61,-91.7 44.57,-102.29 51.19,-100"/>
</a>
</g>
</g>
<!-- Node2&#45;&gt;Node5 -->
<g id="edge4_Node000002_Node000005" class="edge">
<title>Node2&#45;&gt;Node5</title>
<g id="a_edge4_Node000002_Node000005"><a xlink:title=" ">
<path fill="none" stroke="#63b8ff" stroke-width="2" d="M72.25,-125.29C78.79,-117.79 87.27,-108.07 94.9,-99.32"/>
<polygon fill="#63b8ff" stroke="#63b8ff" stroke-width="2" points="98.36,-101.53 102.3,-91.7 93.09,-96.93 98.36,-101.53"/>
</a>
</g>
</g>
<!-- Node3&#45;&gt;Node4 -->
<g id="edge3_Node000003_Node000004" class="edge">
<title>Node3&#45;&gt;Node4</title>
<g id="a_edge3_Node000003_Node000004"><a xlink:title=" ">
<path fill="none" stroke="#63b8ff" stroke-width="2" d="M53.94,-62.54C62.35,-54.8 73.34,-44.68 83.08,-35.72"/>
<polygon fill="#63b8ff" stroke="#63b8ff" stroke-width="2" points="85.62,-38.29 90.61,-28.95 80.88,-33.14 85.62,-38.29"/>
</a>
</g>
</g>
</g>
</svg>

<g id="navigator" transform="translate(0 0)" fill="#404254">
  <rect fill="#f2f5e9" fill-opacity="0.5" stroke="#606060" stroke-width=".5" x="0" y="0" width="60" height="60"/>
  <use id="zoomplus" xlink:href="#zoomPlus" x="17" y="9" onmousedown="handleZoom(evt,'in')"/>
  <use id="zoomminus" xlink:href="#zoomMin" x="42" y="9" onmousedown="handleZoom(evt,'out')"/>
  <use id="reset" xlink:href="#resetDef" x="30" y="36" onmousedown="handleReset()"/>
   <use id="arrowup" xlink:href="#arrowUp" x="0" y="0" onmousedown="handlePan(0,-1)"/>
  <use id="arrowright" xlink:href="#arrowRight" x="0" y="0" onmousedown="handlePan(1,0)"/>
  <use id="arrowdown" xlink:href="#arrowDown" x="0" y="0" onmousedown="handlePan(0,1)"/>
  <use id="arrowleft" xlink:href="#arrowLeft" x="0" y="0" onmousedown="handlePan(-1,0)"/>
</g>
<svg viewBox="0 0 15 15" width="100%" height="30px" preserveAspectRatio="xMaxYMin meet">
 <g id="arrow_out" transform="scale(0.3 0.3)">
  <a xlink:href="menuutil_8c__incl_org.svg" target="_base">
   <rect id="button" ry="5" rx="5" y="6" x="6" height="38" width="38"
        fill="#f2f5e9" fill-opacity="0.5" stroke="#606060" stroke-width="1.0"/>
   <path id="arrow"
     d="M 11.500037,31.436501 C 11.940474,20.09759 22.043105,11.32322 32.158766,21.979434 L 37.068811,17.246167 C 37.068811,17.246167 37.088388,32 37.088388,32 L 22.160133,31.978069 C 22.160133,31.978069 26.997745,27.140456 26.997745,27.140456 C 18.528582,18.264221 13.291696,25.230495 11.500037,31.436501 z"
     style="fill:#404040;"/>
  </a>
 </g>
</svg>

<style type='text/css'>
<![CDATA[
[data-mouse-over-selected='false'] { opacity: 0.7; }
[data-mouse-over-selected='true']  { opacity: 1.0; }
]]>
</style>
<script type="application/ecmascript"><![CDATA[
document.addEventListener('DOMContentLoaded', (event) => {
  highlightEdges();
  highlightAdjacentNodes();
});
]]></script>
</svg>
