<?xml version="1.0" encoding="UTF-8" standalone="no"?>
<!DOCTYPE svg PUBLIC "-//W3C//DTD SVG 1.1//EN"
 "http://www.w3.org/Graphics/SVG/1.1/DTD/svg11.dtd">
<!-- Generated by graphviz version 8.0.5 (0)
 -->
<!-- Title: menuInvoke Pages: 1 -->
<!--zoomable 320 -->

<svg id="main" version="1.1" xmlns="http://www.w3.org/2000/svg" xmlns:xlink="http://www.w3.org/1999/xlink" xml:space="preserve" onload="init(evt)">
<style type="text/css"><![CDATA[
.node, .edge {opacity: 0.7;}
.node.selected, .edge.selected {opacity: 1;}
.edge:hover path { stroke: red; }
.edge:hover polygon { stroke: red; fill: red; }
]]></style>

<defs>
  <circle id="rim" cx="0" cy="0" r="7"/>
  <circle id="rim2" cx="0" cy="0" r="3.5"/>
  <g id="zoomPlus">
    <use xlink:href="#rim" fill="#404040"><set attributeName="fill" to="#808080" begin="zoomplus.mouseover" end="zoomplus.mouseout"/></use>
    <path d="M-4,0h8M0,-4v8" fill="none" stroke="white" stroke-width="1.5" pointer-events="none"/>
  </g>
  <g id="zoomMin">
    <use xlink:href="#rim" fill="#404040"><set attributeName="fill" to="#808080" begin="zoomminus.mouseover" end="zoomminus.mouseout"/></use>
    <path d="M-4,0h8" fill="none" stroke="white" stroke-width="1.5" pointer-events="none"/>
  </g>
  <g id="arrowUp" transform="translate(30 24)">
    <use xlink:href="#rim"/>
    <path pointer-events="none" fill="none" stroke="white" stroke-width="1.5" d="M0,-3.0v7 M-2.5,-0.5L0,-3.0L2.5,-0.5"/>
  </g>
  <g id="arrowRight" transform="rotate(90) translate(36 -43)">
    <use xlink:href="#rim"/>
    <path pointer-events="none" fill="none" stroke="white" stroke-width="1.5" d="M0,-3.0v7 M-2.5,-0.5L0,-3.0L2.5,-0.5"/>
  </g>
  <g id="arrowDown" transform="rotate(180) translate(-30 -48)">
    <use xlink:href="#rim"/>
    <path pointer-events="none" fill="none" stroke="white" stroke-width="1.5" d="M0,-3.0v7 M-2.5,-0.5L0,-3.0L2.5,-0.5"/>
  </g>
  <g id="arrowLeft" transform="rotate(270) translate(-36 17)">
    <use xlink:href="#rim"/>
    <path pointer-events="none" fill="none" stroke="white" stroke-width="1.5" d="M0,-3.0v7 M-2.5,-0.5L0,-3.0L2.5,-0.5"/>
  </g>
  <g id="resetDef">
    <use xlink:href="#rim2" fill="#404040"><set attributeName="fill" to="#808080" begin="reset.mouseover" end="reset.mouseout"/></use>
  </g>
</defs>
<script type="application/ecmascript">
var viewWidth = 688;
var viewHeight = 320;
var sectionId = 'dynsection-9';
</script>
<script type="application/ecmascript" xlink:href="../../svg.min.js"/>
<svg id="graph" class="graph">
<g id="viewport">
<title>menuInvoke</title>
<!-- Node1 -->
<g id="Node000001" class="node">
<title>Node1</title>
<g id="a_Node000001"><a xlink:title="amount of columns of the form field.">
<polygon fill="#999999" stroke="#666666" points="104.5,-169.75 0,-169.75 0,-143 104.5,-143 104.5,-169.75"/>
<text text-anchor="middle" x="52.25" y="-150.55" font-family="Helvetica,sans-Serif" font-size="16.00">menuInvoke</text>
</a>
</g>
</g>
<!-- Node2 -->
<g id="Node000002" class="node">
<title>Node2</title>
<g id="a_Node000002"><a xlink:href="../../d7/dba/menuutil_8c.html#acef3bbabe9293534ee600e9b89eda07b" target="_top" xlink:title="Calculate minimum window width.">
<polygon fill="white" stroke="#666666" points="287.38,-311.75 167.88,-311.75 167.88,-285 287.38,-285 287.38,-311.75"/>
<text text-anchor="middle" x="227.62" y="-292.55" font-family="Helvetica,sans-Serif" font-size="16.00">computeWidth</text>
</a>
</g>
</g>
<!-- Node1&#45;&gt;Node2 -->
<g id="edge1_Node000001_Node000002" class="edge">
<title>Node1&#45;&gt;Node2</title>
<g id="a_edge1_Node000001_Node000002"><a xlink:title=" ">
<path fill="none" stroke="#63b8ff" stroke-width="2" d="M59.89,-169.9C72.35,-193.91 101.55,-243.99 140.5,-271.38 145.37,-274.8 150.69,-277.8 156.23,-280.43"/>
<polygon fill="#63b8ff" stroke="#63b8ff" stroke-width="2" points="155.23,-283.66 165.8,-284.33 157.95,-277.21 155.23,-283.66"/>
</a>
</g>
</g>
<!-- Node4 -->
<g id="Node000004" class="node">
<title>Node4</title>
<g id="a_Node000004"><a xlink:href="../../de/dc9/mmenu_8c.html#a29c2128f12316ca1ce77fd1d686f6ec7" target="_top" xlink:title="Invokes menu.">
<polygon fill="white" stroke="#666666" points="273.5,-229.75 181.75,-229.75 181.75,-203 273.5,-203 273.5,-229.75"/>
<text text-anchor="middle" x="227.62" y="-210.55" font-family="Helvetica,sans-Serif" font-size="16.00">mainMenu</text>
</a>
</g>
</g>
<!-- Node1&#45;&gt;Node4 -->
<g id="edge3_Node000001_Node000004" class="edge">
<title>Node1&#45;&gt;Node4</title>
<g id="a_edge3_Node000001_Node000004"><a xlink:title=" ">
<path fill="none" stroke="#63b8ff" stroke-width="2" d="M88.32,-170.17C104.18,-176.27 123.2,-183.4 140.5,-189.38 149.67,-192.54 159.43,-195.76 168.97,-198.81"/>
<polygon fill="#63b8ff" stroke="#63b8ff" stroke-width="2" points="168.73,-203.03 179.32,-202.71 170.84,-196.36 168.73,-203.03"/>
</a>
</g>
</g>
<!-- Node71 -->
<g id="Node000071" class="node">
<title>Node71</title>
<g id="a_Node000071"><a xlink:href="../../d7/dba/menuutil_8c.html#ae9bbf0350539ebe186df7d627930ca51" target="_top" xlink:title="Control menu navigation and invoke option that we chose.">
<polygon fill="white" stroke="#666666" points="314.75,-71.75 140.5,-71.75 140.5,-45 314.75,-45 314.75,-71.75"/>
<text text-anchor="middle" x="227.62" y="-52.55" font-family="Helvetica,sans-Serif" font-size="16.00">menuHandleIteraction</text>
</a>
</g>
</g>
<!-- Node1&#45;&gt;Node71 -->
<g id="edge12_Node000001_Node000071" class="edge">
<title>Node1&#45;&gt;Node71</title>
<g id="a_edge12_Node000001_Node000071"><a xlink:title=" ">
<path fill="none" stroke="#63b8ff" stroke-width="2" d="M66.56,-142.76C82.72,-126.94 111.43,-101.01 140.5,-85.38 146.54,-82.13 153.03,-79.2 159.64,-76.58"/>
<polygon fill="#63b8ff" stroke="#63b8ff" stroke-width="2" points="161.41,-79.93 169.6,-73.19 159,-73.35 161.41,-79.93"/>
</a>
</g>
</g>
<!-- Node15 -->
<g id="Node000015" class="node">
<title>Node15</title>
<g id="a_Node000015"><a xlink:href="../../d7/dba/menuutil_8c.html#a14ca6bd9893f550a2051ca6cd5a689ac" target="_top" xlink:title="Print boarders of window.">
<polygon fill="white" stroke="#666666" points="312.5,-26.75 142.75,-26.75 142.75,0 312.5,0 312.5,-26.75"/>
<text text-anchor="middle" x="227.62" y="-7.55" font-family="Helvetica,sans-Serif" font-size="16.00">printWindowBoarders</text>
</a>
</g>
</g>
<!-- Node1&#45;&gt;Node15 -->
<g id="edge13_Node000001_Node000015" class="edge">
<title>Node1&#45;&gt;Node15</title>
<g id="a_edge13_Node000001_Node000015"><a xlink:title=" ">
<path fill="none" stroke="#63b8ff" stroke-width="2" d="M59.24,-142.87C71.03,-117.87 99.73,-64.36 140.5,-36.38 142.3,-35.14 144.16,-33.97 146.07,-32.87"/>
<polygon fill="#63b8ff" stroke="#63b8ff" stroke-width="2" points="148.09,-35.78 155.49,-28.2 144.98,-29.51 148.09,-35.78"/>
</a>
</g>
</g>
<!-- Node3 -->
<g id="Node000003" class="node">
<title>Node3</title>
<g id="a_Node000003"><a xlink:href="../../d7/dba/menuutil_8c.html#ac6b71fcc47a9cdec8ac08b98e754239c" target="_top" xlink:title="Get length of longest string in array of strings.">
<polygon fill="white" stroke="#666666" points="538.5,-311.75 350.75,-311.75 350.75,-285 538.5,-285 538.5,-311.75"/>
<text text-anchor="middle" x="444.62" y="-292.55" font-family="Helvetica,sans-Serif" font-size="16.00">getLongestStringLength</text>
</a>
</g>
</g>
<!-- Node2&#45;&gt;Node3 -->
<g id="edge2_Node000002_Node000003" class="edge">
<title>Node2&#45;&gt;Node3</title>
<g id="a_edge2_Node000002_Node000003"><a xlink:title=" ">
<path fill="none" stroke="#63b8ff" stroke-width="2" d="M287.66,-298.38C303.19,-298.38 320.42,-298.38 337.61,-298.38"/>
<polygon fill="#63b8ff" stroke="#63b8ff" stroke-width="2" points="337.4,-301.88 347.4,-298.38 337.4,-294.88 337.4,-301.88"/>
</a>
</g>
</g>
<!-- Node5 -->
<g id="Node000005" class="node">
<title>Node5</title>
<g id="a_Node000005"><a xlink:href="../../de/dc9/mmenu_8c.html#a315bc1f41a79da39147ec73e38cfc9e7" target="_top" xlink:title="Handles main menu.">
<polygon fill="white" stroke="#666666" points="523.88,-191.75 365.38,-191.75 365.38,-165 523.88,-165 523.88,-191.75"/>
<text text-anchor="middle" x="444.62" y="-172.55" font-family="Helvetica,sans-Serif" font-size="16.00">mainMenuSelection</text>
</a>
</g>
</g>
<!-- Node4&#45;&gt;Node5 -->
<g id="edge4_Node000004_Node000005" class="edge">
<title>Node4&#45;&gt;Node5</title>
<g id="a_edge4_Node000004_Node000005"><a xlink:title=" ">
<path fill="none" stroke="#63b8ff" stroke-width="2" d="M273.96,-208.36C296.82,-204.32 325.41,-199.27 352.56,-194.47"/>
<polygon fill="#63b8ff" stroke="#63b8ff" stroke-width="2" points="354.09,-197.4 363.32,-192.21 352.87,-190.51 354.09,-197.4"/>
</a>
</g>
</g>
<!-- Node5&#45;&gt;Node1 -->
<g id="edge9_Node000005_Node000001" class="edge">
<title>Node5&#45;&gt;Node1</title>
<g id="a_edge9_Node000005_Node000001"><a xlink:title=" ">
<path fill="none" stroke="#63b8ff" stroke-width="2" d="M365.06,-173.95C292.19,-169.84 185.09,-163.81 117.29,-159.98"/>
<polygon fill="#63b8ff" stroke="#63b8ff" stroke-width="2" points="117.87,-156.34 107.69,-159.27 117.47,-163.33 117.87,-156.34"/>
</a>
</g>
</g>
<!-- Node6 -->
<g id="Node000006" class="node">
<title>Node6</title>
<g id="a_Node000006"><a xlink:href="../../dc/dc6/carsmenu_8c.html#a7adcbb9b8798811ec24e33760623ebc0" target="_top" xlink:title="Handles displaying of cars menu.">
<polygon fill="#fff0f0" stroke="red" points="670.75,-248.75 583.5,-248.75 583.5,-222 670.75,-222 670.75,-248.75"/>
<text text-anchor="middle" x="627.12" y="-229.55" font-family="Helvetica,sans-Serif" font-size="16.00">carsMenu</text>
</a>
</g>
</g>
<!-- Node5&#45;&gt;Node6 -->
<g id="edge5_Node000005_Node000006" class="edge">
<title>Node5&#45;&gt;Node6</title>
<g id="a_edge5_Node000005_Node000006"><a xlink:title=" ">
<path fill="none" stroke="#63b8ff" stroke-width="2" d="M489.32,-192.17C513.91,-199.94 544.85,-209.71 571.08,-217.99"/>
<polygon fill="#63b8ff" stroke="#63b8ff" stroke-width="2" points="570.56,-222.13 581.15,-221.8 572.66,-215.45 570.56,-222.13"/>
</a>
</g>
</g>
<!-- Node49 -->
<g id="Node000049" class="node">
<title>Node49</title>
<g id="a_Node000049"><a xlink:href="../../da/de9/clientsmenu_8c.html#ad2a8354e045a2d4deb82f4b3b20ad5a4" target="_top" xlink:title="Handles displaying of clients menu.">
<polygon fill="#fff0f0" stroke="red" points="678.62,-182.75 575.62,-182.75 575.62,-156 678.62,-156 678.62,-182.75"/>
<text text-anchor="middle" x="627.12" y="-163.55" font-family="Helvetica,sans-Serif" font-size="16.00">clientsMenu</text>
</a>
</g>
</g>
<!-- Node5&#45;&gt;Node49 -->
<g id="edge7_Node000005_Node000049" class="edge">
<title>Node5&#45;&gt;Node49</title>
<g id="a_edge7_Node000005_Node000049"><a xlink:title=" ">
<path fill="none" stroke="#63b8ff" stroke-width="2" d="M524.27,-174.45C537.1,-173.81 550.25,-173.16 562.66,-172.54"/>
<polygon fill="#63b8ff" stroke="#63b8ff" stroke-width="2" points="562.47,-175.9 572.28,-171.91 562.12,-168.91 562.47,-175.9"/>
</a>
</g>
</g>
<!-- Node70 -->
<g id="Node000070" class="node">
<title>Node70</title>
<g id="a_Node000070"><a xlink:href="../../d6/dc5/rentalsmenu_8c.html#a4cad208e714dfe28ce655b7853a3d5fd" target="_top" xlink:title="Handles Rentals Menu.">
<polygon fill="white" stroke="#666666" points="679.75,-129.75 574.5,-129.75 574.5,-103 679.75,-103 679.75,-129.75"/>
<text text-anchor="middle" x="627.12" y="-110.55" font-family="Helvetica,sans-Serif" font-size="16.00">rentalsMenu</text>
</a>
</g>
</g>
<!-- Node5&#45;&gt;Node70 -->
<g id="edge10_Node000005_Node000070" class="edge">
<title>Node5&#45;&gt;Node70</title>
<g id="a_edge10_Node000005_Node000070"><a xlink:title=" ">
<path fill="none" stroke="#63b8ff" stroke-width="2" d="M485.68,-164.62C511.65,-155.7 545.74,-143.99 573.83,-134.34"/>
<polygon fill="#63b8ff" stroke="#63b8ff" stroke-width="2" points="575.55,-136.76 583.87,-130.2 573.27,-130.14 575.55,-136.76"/>
</a>
</g>
</g>
<!-- Node6&#45;&gt;Node1 -->
<g id="edge6_Node000006_Node000001" class="edge">
<title>Node6&#45;&gt;Node1</title>
<g id="a_edge6_Node000006_Node000001"><a xlink:title=" ">
<path fill="none" stroke="#63b8ff" stroke-width="2" d="M583.25,-245.97C496.14,-265.32 293.74,-299.08 140.5,-238.38 111.15,-226.75 85.91,-200.06 70.24,-180.27"/>
<polygon fill="#63b8ff" stroke="#63b8ff" stroke-width="2" points="72.39,-177.98 63.56,-172.12 66.81,-182.21 72.39,-177.98"/>
</a>
</g>
</g>
<!-- Node49&#45;&gt;Node1 -->
<g id="edge8_Node000049_Node000001" class="edge">
<title>Node49&#45;&gt;Node1</title>
<g id="a_edge8_Node000049_Node000001"><a xlink:title=" ">
<path fill="none" stroke="#63b8ff" stroke-width="2" d="M575.3,-160.54C563.27,-158.81 550.46,-157.26 538.5,-156.38 388,-145.27 210.53,-149.71 117.52,-153.37"/>
<polygon fill="#63b8ff" stroke="#63b8ff" stroke-width="2" points="117.54,-149.99 107.69,-153.89 117.83,-156.98 117.54,-149.99"/>
</a>
</g>
</g>
<!-- Node70&#45;&gt;Node1 -->
<g id="edge11_Node000070_Node000001" class="edge">
<title>Node70&#45;&gt;Node1</title>
<g id="a_edge11_Node000070_Node000001"><a xlink:title=" ">
<path fill="none" stroke="#63b8ff" stroke-width="2" d="M574.27,-118.02C485.35,-121.14 298.1,-129.02 140.5,-144.38 133.09,-145.1 125.34,-145.98 117.66,-146.93"/>
<polygon fill="#63b8ff" stroke="#63b8ff" stroke-width="2" points="117.31,-143.84 107.84,-148.59 118.21,-150.78 117.31,-143.84"/>
</a>
</g>
</g>
</g>
</svg>

<g id="navigator" transform="translate(0 0)" fill="#404254">
  <rect fill="#f2f5e9" fill-opacity="0.5" stroke="#606060" stroke-width=".5" x="0" y="0" width="60" height="60"/>
  <use id="zoomplus" xlink:href="#zoomPlus" x="17" y="9" onmousedown="handleZoom(evt,'in')"/>
  <use id="zoomminus" xlink:href="#zoomMin" x="42" y="9" onmousedown="handleZoom(evt,'out')"/>
  <use id="reset" xlink:href="#resetDef" x="30" y="36" onmousedown="handleReset()"/>
   <use id="arrowup" xlink:href="#arrowUp" x="0" y="0" onmousedown="handlePan(0,-1)"/>
  <use id="arrowright" xlink:href="#arrowRight" x="0" y="0" onmousedown="handlePan(1,0)"/>
  <use id="arrowdown" xlink:href="#arrowDown" x="0" y="0" onmousedown="handlePan(0,1)"/>
  <use id="arrowleft" xlink:href="#arrowLeft" x="0" y="0" onmousedown="handlePan(-1,0)"/>
</g>
<svg viewBox="0 0 15 15" width="100%" height="30px" preserveAspectRatio="xMaxYMin meet">
 <g id="arrow_out" transform="scale(0.3 0.3)">
  <a xlink:href="menuutil_8h_a949419e66b27ac75475821fb7aba527d_cgraph_org.svg" target="_base">
   <rect id="button" ry="5" rx="5" y="6" x="6" height="38" width="38"
        fill="#f2f5e9" fill-opacity="0.5" stroke="#606060" stroke-width="1.0"/>
   <path id="arrow"
     d="M 11.500037,31.436501 C 11.940474,20.09759 22.043105,11.32322 32.158766,21.979434 L 37.068811,17.246167 C 37.068811,17.246167 37.088388,32 37.088388,32 L 22.160133,31.978069 C 22.160133,31.978069 26.997745,27.140456 26.997745,27.140456 C 18.528582,18.264221 13.291696,25.230495 11.500037,31.436501 z"
     style="fill:#404040;"/>
  </a>
 </g>
</svg>

<style type='text/css'>
<![CDATA[
[data-mouse-over-selected='false'] { opacity: 0.7; }
[data-mouse-over-selected='true']  { opacity: 1.0; }
]]>
</style>
<script type="application/ecmascript"><![CDATA[
document.addEventListener('DOMContentLoaded', (event) => {
  highlightEdges();
  highlightAdjacentNodes();
});
]]></script>
</svg>
