<?xml version="1.0" encoding="UTF-8" standalone="no"?>
<!DOCTYPE svg PUBLIC "-//W3C//DTD SVG 1.1//EN"
 "http://www.w3.org/Graphics/SVG/1.1/DTD/svg11.dtd">
<!-- Generated by graphviz version 8.0.5 (0)
 -->
<!-- Title: listViewInvoke Pages: 1 -->
<svg width="626pt" height="260pt"
 viewBox="0.00 0.00 625.50 259.75" xmlns="http://www.w3.org/2000/svg" xmlns:xlink="http://www.w3.org/1999/xlink">
<g id="graph0" class="graph" transform="scale(1 1) rotate(0) translate(4 255.75)">
<title>listViewInvoke</title>
<!-- Node1 -->
<g id="Node000001" class="node">
<title>Node1</title>
<g id="a_Node000001"><a xlink:title="List Viewer for lists.">
<polygon fill="#999999" stroke="#666666" points="617.5,-127.75 498.75,-127.75 498.75,-101 617.5,-101 617.5,-127.75"/>
<text text-anchor="middle" x="558.12" y="-108.55" font-family="Helvetica,sans-Serif" font-size="16.00">listViewInvoke</text>
</a>
</g>
</g>
<!-- Node2 -->
<g id="Node000002" class="node">
<title>Node2</title>
<g id="a_Node000002"><a xlink:href="../../dc/dc6/carsmenu_8c.html#ad451b82b7f3d31d1bb3fc4c210941579" target="_top" xlink:title="Invokes the listView of cars.">
<polygon fill="white" stroke="#666666" points="454.88,-172.75 360.88,-172.75 360.88,-146 454.88,-146 454.88,-172.75"/>
<text text-anchor="middle" x="407.88" y="-153.55" font-family="Helvetica,sans-Serif" font-size="16.00">carChoose</text>
</a>
</g>
</g>
<!-- Node1&#45;&gt;Node2 -->
<g id="edge1_Node000001_Node000002" class="edge">
<title>Node1&#45;&gt;Node2</title>
<g id="a_edge1_Node000001_Node000002"><a xlink:title=" ">
<path fill="none" stroke="#63b8ff" stroke-width="2" d="M499.22,-131.95C484.35,-136.47 468.56,-141.26 454.41,-145.55"/>
<polygon fill="#63b8ff" stroke="#63b8ff" stroke-width="2" points="500.88,-134.5 509.44,-128.24 498.85,-127.8 500.88,-134.5"/>
</a>
</g>
</g>
<!-- Node13 -->
<g id="Node000013" class="node">
<title>Node13</title>
<g id="a_Node000013"><a xlink:href="../../da/de9/clientsmenu_8c.html#a1d711b31a5a18af01cdd582e537ff921" target="_top" xlink:title="Invokes ListView of clients.">
<polygon fill="white" stroke="#666666" points="462.75,-105.75 353,-105.75 353,-79 462.75,-79 462.75,-105.75"/>
<text text-anchor="middle" x="407.88" y="-86.55" font-family="Helvetica,sans-Serif" font-size="16.00">clientChoose</text>
</a>
</g>
</g>
<!-- Node1&#45;&gt;Node13 -->
<g id="edge8_Node000001_Node000013" class="edge">
<title>Node1&#45;&gt;Node13</title>
<g id="a_edge8_Node000001_Node000013"><a xlink:title=" ">
<path fill="none" stroke="#63b8ff" stroke-width="2" d="M485.82,-103.79C478.2,-102.66 470.55,-101.53 463.18,-100.43"/>
<polygon fill="#63b8ff" stroke="#63b8ff" stroke-width="2" points="486.13,-107.67 496.53,-105.68 487.15,-100.75 486.13,-107.67"/>
</a>
</g>
</g>
<!-- Node3 -->
<g id="Node000003" class="node">
<title>Node3</title>
<g id="a_Node000003"><a xlink:href="../../dc/dc6/carsmenu_8c.html#a04e2543edc445ed8a4cbd29b3466a07d" target="_top" xlink:title="Wrapper around carChoose frees extracted car instanntly.">
<polygon fill="white" stroke="#666666" points="309.12,-251.75 146.88,-251.75 146.88,-225 309.12,-225 309.12,-251.75"/>
<text text-anchor="middle" x="228" y="-232.55" font-family="Helvetica,sans-Serif" font-size="16.00">carChooseNoReturn</text>
</a>
</g>
</g>
<!-- Node2&#45;&gt;Node3 -->
<g id="edge2_Node000002_Node000003" class="edge">
<title>Node2&#45;&gt;Node3</title>
<g id="a_edge2_Node000002_Node000003"><a xlink:title=" ">
<path fill="none" stroke="#63b8ff" stroke-width="2" d="M378.14,-180.41C361.07,-192.08 338.61,-206.07 317,-215.38 308.88,-218.87 300.1,-221.94 291.34,-224.6"/>
<polygon fill="#63b8ff" stroke="#63b8ff" stroke-width="2" points="380.32,-182.75 386.51,-174.14 376.31,-177.01 380.32,-182.75"/>
</a>
</g>
</g>
<!-- Node11 -->
<g id="Node000011" class="node">
<title>Node11</title>
<g id="a_Node000011"><a xlink:href="../../dc/dc6/carsmenu_8c.html#acf8ae724beca8714d7d114a7f2539895" target="_top" xlink:title="Edit car.">
<polygon fill="white" stroke="#666666" points="261.12,-206.75 194.88,-206.75 194.88,-180 261.12,-180 261.12,-206.75"/>
<text text-anchor="middle" x="228" y="-187.55" font-family="Helvetica,sans-Serif" font-size="16.00">carEdit</text>
</a>
</g>
</g>
<!-- Node2&#45;&gt;Node11 -->
<g id="edge4_Node000002_Node000011" class="edge">
<title>Node2&#45;&gt;Node11</title>
<g id="a_edge4_Node000002_Node000011"><a xlink:title=" ">
<path fill="none" stroke="#63b8ff" stroke-width="2" d="M348.17,-170.6C319.36,-176.1 285.74,-182.53 261.57,-187.15"/>
<polygon fill="#63b8ff" stroke="#63b8ff" stroke-width="2" points="349.44,-173.53 358.6,-168.22 348.13,-166.66 349.44,-173.53"/>
</a>
</g>
</g>
<!-- Node12 -->
<g id="Node000012" class="node">
<title>Node12</title>
<g id="a_Node000012"><a xlink:href="../../dc/dc6/carsmenu_8c.html#a76be213354bbaa3d64a095bafa1ec8d2" target="_top" xlink:title="Removes a car.">
<polygon fill="white" stroke="#666666" points="277.25,-161.75 178.75,-161.75 178.75,-135 277.25,-135 277.25,-161.75"/>
<text text-anchor="middle" x="228" y="-142.55" font-family="Helvetica,sans-Serif" font-size="16.00">carRemove</text>
</a>
</g>
</g>
<!-- Node2&#45;&gt;Node12 -->
<g id="edge6_Node000002_Node000012" class="edge">
<title>Node2&#45;&gt;Node12</title>
<g id="a_edge6_Node000002_Node000012"><a xlink:title=" ">
<path fill="none" stroke="#63b8ff" stroke-width="2" d="M347.92,-155.73C325.08,-154.32 299.26,-152.72 277.52,-151.38"/>
<polygon fill="#63b8ff" stroke="#63b8ff" stroke-width="2" points="347.41,-159.39 357.6,-156.51 347.84,-152.4 347.41,-159.39"/>
</a>
</g>
</g>
<!-- Node4 -->
<g id="Node000004" class="node">
<title>Node4</title>
<g id="a_Node000004"><a xlink:href="../../dc/dc6/carsmenu_8c.html#a7adcbb9b8798811ec24e33760623ebc0" target="_top" xlink:title="Handles displaying of cars menu.">
<polygon fill="#fff0f0" stroke="red" points="95.12,-206.75 7.88,-206.75 7.88,-180 95.12,-180 95.12,-206.75"/>
<text text-anchor="middle" x="51.5" y="-187.55" font-family="Helvetica,sans-Serif" font-size="16.00">carsMenu</text>
</a>
</g>
</g>
<!-- Node3&#45;&gt;Node4 -->
<g id="edge3_Node000003_Node000004" class="edge">
<title>Node3&#45;&gt;Node4</title>
<g id="a_edge3_Node000003_Node000004"><a xlink:title=" ">
<path fill="none" stroke="#63b8ff" stroke-width="2" d="M160.64,-221.26C138.85,-215.64 115.2,-209.54 95.6,-204.49"/>
<polygon fill="#63b8ff" stroke="#63b8ff" stroke-width="2" points="160.66,-225.4 171.22,-224.51 162.41,-218.62 160.66,-225.4"/>
</a>
</g>
</g>
<!-- Node11&#45;&gt;Node4 -->
<g id="edge5_Node000011_Node000004" class="edge">
<title>Node11&#45;&gt;Node4</title>
<g id="a_edge5_Node000011_Node000004"><a xlink:title=" ">
<path fill="none" stroke="#63b8ff" stroke-width="2" d="M181.77,-193.38C155.2,-193.38 121.8,-193.38 95.61,-193.38"/>
<polygon fill="#63b8ff" stroke="#63b8ff" stroke-width="2" points="181.59,-196.88 191.59,-193.38 181.59,-189.88 181.59,-196.88"/>
</a>
</g>
</g>
<!-- Node12&#45;&gt;Node4 -->
<g id="edge7_Node000012_Node000004" class="edge">
<title>Node12&#45;&gt;Node4</title>
<g id="a_edge7_Node000012_Node000004"><a xlink:title=" ">
<path fill="none" stroke="#63b8ff" stroke-width="2" d="M165.82,-164.15C142.61,-170.14 116.69,-176.82 95.5,-182.29"/>
<polygon fill="#63b8ff" stroke="#63b8ff" stroke-width="2" points="167.58,-166.8 176.39,-160.91 165.83,-160.02 167.58,-166.8"/>
</a>
</g>
</g>
<!-- Node14 -->
<g id="Node000014" class="node">
<title>Node14</title>
<g id="a_Node000014"><a xlink:href="../../da/de9/clientsmenu_8c.html#a1aa5fbc029a7e320bf6f6c3a2e6e27cc" target="_top" xlink:title="Wrapper around clientChoose frees extracted client instanntly.">
<polygon fill="white" stroke="#666666" points="317,-116.75 139,-116.75 139,-90 317,-90 317,-116.75"/>
<text text-anchor="middle" x="228" y="-97.55" font-family="Helvetica,sans-Serif" font-size="16.00">clientChooseNoReturn</text>
</a>
</g>
</g>
<!-- Node13&#45;&gt;Node14 -->
<g id="edge9_Node000013_Node000014" class="edge">
<title>Node13&#45;&gt;Node14</title>
<g id="a_edge9_Node000013_Node000014"><a xlink:title=" ">
<path fill="none" stroke="#63b8ff" stroke-width="2" d="M339.7,-96.53C332.41,-96.98 324.92,-97.44 317.43,-97.91"/>
<polygon fill="#63b8ff" stroke="#63b8ff" stroke-width="2" points="339.78,-99.85 349.54,-95.74 339.34,-92.86 339.78,-99.85"/>
</a>
</g>
</g>
<!-- Node15 -->
<g id="Node000015" class="node">
<title>Node15</title>
<g id="a_Node000015"><a xlink:href="../../da/de9/clientsmenu_8c.html#a3785053dd7fa7ee54cb52674dadf5941" target="_top" xlink:title="Edit client.">
<polygon fill="white" stroke="#666666" points="269,-71.75 187,-71.75 187,-45 269,-45 269,-71.75"/>
<text text-anchor="middle" x="228" y="-52.55" font-family="Helvetica,sans-Serif" font-size="16.00">clientEdit</text>
</a>
</g>
</g>
<!-- Node13&#45;&gt;Node15 -->
<g id="edge11_Node000013_Node000015" class="edge">
<title>Node13&#45;&gt;Node15</title>
<g id="a_edge11_Node000013_Node000015"><a xlink:title=" ">
<path fill="none" stroke="#63b8ff" stroke-width="2" d="M340,-79.59C316.27,-75.06 290.3,-70.09 269.45,-66.11"/>
<polygon fill="#63b8ff" stroke="#63b8ff" stroke-width="2" points="340.06,-83.55 350.54,-81.99 341.38,-76.67 340.06,-83.55"/>
</a>
</g>
</g>
<!-- Node16 -->
<g id="Node000016" class="node">
<title>Node16</title>
<g id="a_Node000016"><a xlink:href="../../da/de9/clientsmenu_8c.html#ae81aa78f6e32fdd87e554ba85c063111" target="_top" xlink:title="Remove client.">
<polygon fill="white" stroke="#666666" points="285.12,-26.75 170.88,-26.75 170.88,0 285.12,0 285.12,-26.75"/>
<text text-anchor="middle" x="228" y="-7.55" font-family="Helvetica,sans-Serif" font-size="16.00">clientRemove</text>
</a>
</g>
</g>
<!-- Node13&#45;&gt;Node16 -->
<g id="edge13_Node000013_Node000016" class="edge">
<title>Node13&#45;&gt;Node16</title>
<g id="a_edge13_Node000013_Node000016"><a xlink:title=" ">
<path fill="none" stroke="#63b8ff" stroke-width="2" d="M378.14,-71.34C361.07,-59.67 338.61,-45.68 317,-36.38 306.99,-32.07 295.99,-28.41 285.25,-25.37"/>
<polygon fill="#63b8ff" stroke="#63b8ff" stroke-width="2" points="376.31,-74.74 386.51,-77.61 380.32,-69 376.31,-74.74"/>
</a>
</g>
</g>
<!-- Node9 -->
<g id="Node000009" class="node">
<title>Node9</title>
<g id="a_Node000009"><a xlink:href="../../da/de9/clientsmenu_8c.html#ad2a8354e045a2d4deb82f4b3b20ad5a4" target="_top" xlink:title="Handles displaying of clients menu.">
<polygon fill="#fff0f0" stroke="red" points="103,-71.75 0,-71.75 0,-45 103,-45 103,-71.75"/>
<text text-anchor="middle" x="51.5" y="-52.55" font-family="Helvetica,sans-Serif" font-size="16.00">clientsMenu</text>
</a>
</g>
</g>
<!-- Node14&#45;&gt;Node9 -->
<g id="edge10_Node000014_Node000009" class="edge">
<title>Node14&#45;&gt;Node9</title>
<g id="a_edge10_Node000014_Node000009"><a xlink:title=" ">
<path fill="none" stroke="#63b8ff" stroke-width="2" d="M160.67,-86.27C141.7,-81.38 121.32,-76.12 103.42,-71.51"/>
<polygon fill="#63b8ff" stroke="#63b8ff" stroke-width="2" points="160.66,-90.4 171.22,-89.51 162.41,-83.62 160.66,-90.4"/>
</a>
</g>
</g>
<!-- Node15&#45;&gt;Node9 -->
<g id="edge12_Node000015_Node000009" class="edge">
<title>Node15&#45;&gt;Node9</title>
<g id="a_edge12_Node000015_Node000009"><a xlink:title=" ">
<path fill="none" stroke="#63b8ff" stroke-width="2" d="M173.82,-58.38C151.44,-58.38 125.51,-58.38 103.38,-58.38"/>
<polygon fill="#63b8ff" stroke="#63b8ff" stroke-width="2" points="173.53,-61.88 183.53,-58.38 173.53,-54.88 173.53,-61.88"/>
</a>
</g>
</g>
<!-- Node16&#45;&gt;Node9 -->
<g id="edge14_Node000016_Node000009" class="edge">
<title>Node16&#45;&gt;Node9</title>
<g id="a_edge14_Node000016_Node000009"><a xlink:title=" ">
<path fill="none" stroke="#63b8ff" stroke-width="2" d="M160.67,-30.48C141.7,-35.37 121.32,-40.63 103.42,-45.24"/>
<polygon fill="#63b8ff" stroke="#63b8ff" stroke-width="2" points="162.41,-33.13 171.22,-27.24 160.66,-26.35 162.41,-33.13"/>
</a>
</g>
</g>
</g>
</svg>
