<?xml version="1.0" encoding="UTF-8" standalone="no"?>
<!DOCTYPE svg PUBLIC "-//W3C//DTD SVG 1.1//EN"
 "http://www.w3.org/Graphics/SVG/1.1/DTD/svg11.dtd">
<!-- Generated by graphviz version 8.0.5 (0)
 -->
<!-- Title: menuInvoke Pages: 1 -->
<svg width="576pt" height="190pt"
 viewBox="0.00 0.00 576.00 189.65" xmlns="http://www.w3.org/2000/svg" xmlns:xlink="http://www.w3.org/1999/xlink">
<g id="graph0" class="graph" transform="scale(1 1) rotate(0) translate(4 185.65)">
<title>menuInvoke</title>
<!-- Node1 -->
<g id="Node000001" class="node">
<title>Node1</title>
<g id="a_Node000001"><a xlink:title="amount of columns of the form field.">
<polygon fill="#999999" stroke="#666666" points="568,-99.65 463.5,-99.65 463.5,-72.9 568,-72.9 568,-99.65"/>
<text text-anchor="middle" x="515.75" y="-80.45" font-family="Helvetica,sans-Serif" font-size="16.00">menuInvoke</text>
</a>
</g>
</g>
<!-- Node2 -->
<g id="Node000002" class="node">
<title>Node2</title>
<g id="a_Node000002"><a xlink:href="../../dc/dc6/carsmenu_8c.html#a7adcbb9b8798811ec24e33760623ebc0" target="_top" xlink:title="Handles displaying of cars menu.">
<polygon fill="white" stroke="#666666" points="418.5,-181.65 331.25,-181.65 331.25,-154.9 418.5,-154.9 418.5,-181.65"/>
<text text-anchor="middle" x="374.88" y="-162.45" font-family="Helvetica,sans-Serif" font-size="16.00">carsMenu</text>
</a>
</g>
</g>
<!-- Node1&#45;&gt;Node2 -->
<g id="edge1_Node000001_Node000002" class="edge">
<title>Node1&#45;&gt;Node2</title>
<g id="a_edge1_Node000001_Node000002"><a xlink:title=" ">
<path fill="none" stroke="#63b8ff" stroke-width="2" d="M483.24,-107C466.82,-117.58 446.29,-130.47 427.5,-141.28 419.7,-145.77 411.08,-150.4 403.16,-154.53"/>
<polygon fill="#63b8ff" stroke="#63b8ff" stroke-width="2" points="485.4,-109.48 491.88,-101.1 481.59,-103.6 485.4,-109.48"/>
</a>
</g>
</g>
<!-- Node3 -->
<g id="Node000003" class="node">
<title>Node3</title>
<g id="a_Node000003"><a xlink:href="../../de/dc9/mmenu_8c.html#a315bc1f41a79da39147ec73e38cfc9e7" target="_top" xlink:title="Handles main menu.">
<polygon fill="white" stroke="#666666" points="286.25,-99.65 127.75,-99.65 127.75,-72.9 286.25,-72.9 286.25,-99.65"/>
<text text-anchor="middle" x="207" y="-80.45" font-family="Helvetica,sans-Serif" font-size="16.00">mainMenuSelection</text>
</a>
</g>
</g>
<!-- Node1&#45;&gt;Node3 -->
<g id="edge7_Node000001_Node000003" class="edge">
<title>Node1&#45;&gt;Node3</title>
<g id="a_edge7_Node000001_Node000003"><a xlink:title=" ">
<path fill="none" stroke="#63b8ff" stroke-width="2" d="M456.55,-103.06C446.92,-105.23 436.99,-107.1 427.5,-108.28 381.08,-114.04 368.82,-112.72 322.25,-108.28 304.66,-106.6 285.74,-103.5 268.46,-100.14"/>
<polygon fill="#63b8ff" stroke="#63b8ff" stroke-width="2" points="458.06,-105.82 466.97,-100.08 456.43,-99.01 458.06,-105.82"/>
</a>
</g>
</g>
<!-- Node6 -->
<g id="Node000006" class="node">
<title>Node6</title>
<g id="a_Node000006"><a xlink:href="../../da/de9/clientsmenu_8c.html#ad2a8354e045a2d4deb82f4b3b20ad5a4" target="_top" xlink:title="Handles displaying of clients menu.">
<polygon fill="white" stroke="#666666" points="426.38,-99.65 323.38,-99.65 323.38,-72.9 426.38,-72.9 426.38,-99.65"/>
<text text-anchor="middle" x="374.88" y="-80.45" font-family="Helvetica,sans-Serif" font-size="16.00">clientsMenu</text>
</a>
</g>
</g>
<!-- Node1&#45;&gt;Node6 -->
<g id="edge5_Node000001_Node000006" class="edge">
<title>Node1&#45;&gt;Node6</title>
<g id="a_edge5_Node000001_Node000006"><a xlink:title=" ">
<path fill="none" stroke="#63b8ff" stroke-width="2" d="M450.3,-86.28C442.39,-86.28 434.38,-86.28 426.71,-86.28"/>
<polygon fill="#63b8ff" stroke="#63b8ff" stroke-width="2" points="450.04,-89.78 460.04,-86.28 450.04,-82.78 450.04,-89.78"/>
</a>
</g>
</g>
<!-- Node7 -->
<g id="Node000007" class="node">
<title>Node7</title>
<g id="a_Node000007"><a xlink:href="../../d6/dc5/rentalsmenu_8c.html#a4cad208e714dfe28ce655b7853a3d5fd" target="_top" xlink:title="Handles Rentals Menu.">
<polygon fill="white" stroke="#666666" points="427.5,-54.65 322.25,-54.65 322.25,-27.9 427.5,-27.9 427.5,-54.65"/>
<text text-anchor="middle" x="374.88" y="-35.45" font-family="Helvetica,sans-Serif" font-size="16.00">rentalsMenu</text>
</a>
</g>
</g>
<!-- Node1&#45;&gt;Node7 -->
<g id="edge8_Node000001_Node000007" class="edge">
<title>Node1&#45;&gt;Node7</title>
<g id="a_edge8_Node000001_Node000007"><a xlink:title=" ">
<path fill="none" stroke="#63b8ff" stroke-width="2" d="M459.61,-68.41C445.86,-63.96 431.32,-59.25 418.3,-55.03"/>
<polygon fill="#63b8ff" stroke="#63b8ff" stroke-width="2" points="459.36,-72.66 469.95,-72.41 461.52,-66 459.36,-72.66"/>
</a>
</g>
</g>
<!-- Node2&#45;&gt;Node3 -->
<g id="edge2_Node000002_Node000003" class="edge">
<title>Node2&#45;&gt;Node3</title>
<g id="a_edge2_Node000002_Node000003"><a xlink:title=" ">
<path fill="none" stroke="#63b8ff" stroke-width="2" d="M334.65,-148.89C304.26,-133.87 262.92,-113.43 235.85,-100.05"/>
<polygon fill="#63b8ff" stroke="#63b8ff" stroke-width="2" points="333.6,-152.26 344.11,-153.55 336.7,-145.99 333.6,-152.26"/>
</a>
</g>
</g>
<!-- Node4 -->
<g id="Node000004" class="node">
<title>Node4</title>
<g id="a_Node000004"><a xlink:href="../../de/dc9/mmenu_8c.html#a29c2128f12316ca1ce77fd1d686f6ec7" target="_top" xlink:title="Invokes menu.">
<polygon fill="#fff0f0" stroke="red" points="91.75,-56.65 0,-56.65 0,-29.9 91.75,-29.9 91.75,-56.65"/>
<text text-anchor="middle" x="45.88" y="-37.45" font-family="Helvetica,sans-Serif" font-size="16.00">mainMenu</text>
</a>
</g>
</g>
<!-- Node3&#45;&gt;Node4 -->
<g id="edge3_Node000003_Node000004" class="edge">
<title>Node3&#45;&gt;Node4</title>
<g id="a_edge3_Node000003_Node000004"><a xlink:title=" ">
<path fill="none" stroke="#63b8ff" stroke-width="2" d="M142.68,-69.17C125.77,-64.6 107.82,-59.75 92.1,-55.5"/>
<polygon fill="#63b8ff" stroke="#63b8ff" stroke-width="2" points="142.21,-73.21 152.78,-72.44 144.04,-66.45 142.21,-73.21"/>
</a>
</g>
</g>
<!-- Node4&#45;&gt;Node1 -->
<g id="edge4_Node000004_Node000001" class="edge">
<title>Node4&#45;&gt;Node1</title>
<g id="a_edge4_Node000004_Node000001"><a xlink:title=" ">
<path fill="none" stroke="#63b8ff" stroke-width="2" d="M104.12,-26.4C180.19,-6.92 317.78,17.99 427.5,-19.28 458.42,-29.78 486.96,-56.15 502.51,-72.5"/>
<polygon fill="#63b8ff" stroke="#63b8ff" stroke-width="2" points="102.78,-23.66 94,-29.59 104.56,-30.43 102.78,-23.66"/>
</a>
</g>
</g>
<!-- Node6&#45;&gt;Node3 -->
<g id="edge6_Node000006_Node000003" class="edge">
<title>Node6&#45;&gt;Node3</title>
<g id="a_edge6_Node000006_Node000003"><a xlink:title=" ">
<path fill="none" stroke="#63b8ff" stroke-width="2" d="M310.34,-86.28C302.53,-86.28 294.47,-86.28 286.47,-86.28"/>
<polygon fill="#63b8ff" stroke="#63b8ff" stroke-width="2" points="310.21,-89.78 320.21,-86.28 310.21,-82.78 310.21,-89.78"/>
</a>
</g>
</g>
<!-- Node7&#45;&gt;Node3 -->
<g id="edge9_Node000007_Node000003" class="edge">
<title>Node7&#45;&gt;Node3</title>
<g id="a_edge9_Node000007_Node000003"><a xlink:title=" ">
<path fill="none" stroke="#63b8ff" stroke-width="2" d="M310.58,-58.45C293.5,-63.08 275.25,-68.03 258.95,-72.46"/>
<polygon fill="#63b8ff" stroke="#63b8ff" stroke-width="2" points="312.02,-61.14 320.75,-55.15 310.19,-54.39 312.02,-61.14"/>
</a>
</g>
</g>
</g>
</svg>
