<?xml version="1.0" encoding="UTF-8" standalone="no"?>
<!DOCTYPE svg PUBLIC "-//W3C//DTD SVG 1.1//EN"
 "http://www.w3.org/Graphics/SVG/1.1/DTD/svg11.dtd">
<!-- Generated by graphviz version 8.0.5 (0)
 -->
<!-- Title: listViewInvoke Pages: 1 -->
<!--zoomable 297 -->

<svg id="main" version="1.1" xmlns="http://www.w3.org/2000/svg" xmlns:xlink="http://www.w3.org/1999/xlink" xml:space="preserve" onload="init(evt)">
<style type="text/css"><![CDATA[
.node, .edge {opacity: 0.7;}
.node.selected, .edge.selected {opacity: 1;}
.edge:hover path { stroke: red; }
.edge:hover polygon { stroke: red; fill: red; }
]]></style>

<defs>
  <circle id="rim" cx="0" cy="0" r="7"/>
  <circle id="rim2" cx="0" cy="0" r="3.5"/>
  <g id="zoomPlus">
    <use xlink:href="#rim" fill="#404040"><set attributeName="fill" to="#808080" begin="zoomplus.mouseover" end="zoomplus.mouseout"/></use>
    <path d="M-4,0h8M0,-4v8" fill="none" stroke="white" stroke-width="1.5" pointer-events="none"/>
  </g>
  <g id="zoomMin">
    <use xlink:href="#rim" fill="#404040"><set attributeName="fill" to="#808080" begin="zoomminus.mouseover" end="zoomminus.mouseout"/></use>
    <path d="M-4,0h8" fill="none" stroke="white" stroke-width="1.5" pointer-events="none"/>
  </g>
  <g id="arrowUp" transform="translate(30 24)">
    <use xlink:href="#rim"/>
    <path pointer-events="none" fill="none" stroke="white" stroke-width="1.5" d="M0,-3.0v7 M-2.5,-0.5L0,-3.0L2.5,-0.5"/>
  </g>
  <g id="arrowRight" transform="rotate(90) translate(36 -43)">
    <use xlink:href="#rim"/>
    <path pointer-events="none" fill="none" stroke="white" stroke-width="1.5" d="M0,-3.0v7 M-2.5,-0.5L0,-3.0L2.5,-0.5"/>
  </g>
  <g id="arrowDown" transform="rotate(180) translate(-30 -48)">
    <use xlink:href="#rim"/>
    <path pointer-events="none" fill="none" stroke="white" stroke-width="1.5" d="M0,-3.0v7 M-2.5,-0.5L0,-3.0L2.5,-0.5"/>
  </g>
  <g id="arrowLeft" transform="rotate(270) translate(-36 17)">
    <use xlink:href="#rim"/>
    <path pointer-events="none" fill="none" stroke="white" stroke-width="1.5" d="M0,-3.0v7 M-2.5,-0.5L0,-3.0L2.5,-0.5"/>
  </g>
  <g id="resetDef">
    <use xlink:href="#rim2" fill="#404040"><set attributeName="fill" to="#808080" begin="reset.mouseover" end="reset.mouseout"/></use>
  </g>
</defs>
<script type="application/ecmascript">
var viewWidth = 717;
var viewHeight = 297;
var sectionId = 'dynsection-7';
</script>
<script type="application/ecmascript" xlink:href="../../svg.min.js"/>
<svg id="graph" class="graph">
<g id="viewport">
<title>listViewInvoke</title>
<!-- Node1 -->
<g id="Node000001" class="node">
<title>Node1</title>
<g id="a_Node000001"><a xlink:title="List Viewer for lists.">
<polygon fill="#999999" stroke="#666666" points="118.75,-161.75 0,-161.75 0,-135 118.75,-135 118.75,-161.75"/>
<text text-anchor="middle" x="59.38" y="-142.55" font-family="Helvetica,sans-Serif" font-size="16.00">listViewInvoke</text>
</a>
</g>
</g>
<!-- Node2 -->
<g id="Node000002" class="node">
<title>Node2</title>
<g id="a_Node000002"><a xlink:href="../../d7/d40/list_8c.html#a0837532833bd96d83104386c1aa69c10" target="_top" xlink:title="How many elements are there in List.">
<polygon fill="white" stroke="#666666" points="473.62,-247.75 405.88,-247.75 405.88,-221 473.62,-221 473.62,-247.75"/>
<text text-anchor="middle" x="439.75" y="-228.55" font-family="Helvetica,sans-Serif" font-size="16.00">listSize</text>
</a>
</g>
</g>
<!-- Node1&#45;&gt;Node2 -->
<g id="edge1_Node000001_Node000002" class="edge">
<title>Node1&#45;&gt;Node2</title>
<g id="a_edge1_Node000001_Node000002"><a xlink:title=" ">
<path fill="none" stroke="#63b8ff" stroke-width="2" d="M74.28,-162.1C91.51,-178.13 122.57,-203.92 154.75,-215.38 234.86,-243.9 335.61,-242.66 393.04,-238.78"/>
<polygon fill="#63b8ff" stroke="#63b8ff" stroke-width="2" points="392.93,-242.08 402.64,-237.84 392.41,-235.1 392.93,-242.08"/>
</a>
</g>
</g>
<!-- Node3 -->
<g id="Node000003" class="node">
<title>Node3</title>
<g id="a_Node000003"><a xlink:href="../../d7/dba/menuutil_8c.html#a6229d06cea0b18a996e9f378719c56bb" target="_top" xlink:title="frees internal List of listView.">
<polygon fill="white" stroke="#666666" points="313.62,-116.75 184.38,-116.75 184.38,-90 313.62,-90 313.62,-116.75"/>
<text text-anchor="middle" x="249" y="-97.55" font-family="Helvetica,sans-Serif" font-size="16.00">listViewFreeList</text>
</a>
</g>
</g>
<!-- Node1&#45;&gt;Node3 -->
<g id="edge2_Node000001_Node000003" class="edge">
<title>Node1&#45;&gt;Node3</title>
<g id="a_edge2_Node000001_Node000003"><a xlink:title=" ">
<path fill="none" stroke="#63b8ff" stroke-width="2" d="M118.2,-134.51C137.1,-129.97 158.3,-124.89 178,-120.16"/>
<polygon fill="#63b8ff" stroke="#63b8ff" stroke-width="2" points="179.46,-122.93 188.37,-117.2 177.83,-116.13 179.46,-122.93"/>
</a>
</g>
</g>
<!-- Node8 -->
<g id="Node000008" class="node">
<title>Node8</title>
<g id="a_Node000008"><a xlink:href="../../d7/dba/menuutil_8c.html#a5cf01d8794a16c8f4d79eed99ec0b560" target="_top" xlink:title="frees memory used by listView internal Menu">
<polygon fill="white" stroke="#666666" points="321.12,-206.75 176.88,-206.75 176.88,-180 321.12,-180 321.12,-206.75"/>
<text text-anchor="middle" x="249" y="-187.55" font-family="Helvetica,sans-Serif" font-size="16.00">listViewFreeMenu</text>
</a>
</g>
</g>
<!-- Node1&#45;&gt;Node8 -->
<g id="edge10_Node000001_Node000008" class="edge">
<title>Node1&#45;&gt;Node8</title>
<g id="a_edge10_Node000001_Node000008"><a xlink:title=" ">
<path fill="none" stroke="#63b8ff" stroke-width="2" d="M118.2,-162.24C137.1,-166.78 158.3,-171.86 178,-176.59"/>
<polygon fill="#63b8ff" stroke="#63b8ff" stroke-width="2" points="177.83,-180.62 188.37,-179.55 179.46,-173.82 177.83,-180.62"/>
</a>
</g>
</g>
<!-- Node9 -->
<g id="Node000009" class="node">
<title>Node9</title>
<g id="a_Node000009"><a xlink:href="../../d7/dba/menuutil_8c.html#a6154454b5c30466c33806a07ce7578d5" target="_top" xlink:title=" ">
<polygon fill="white" stroke="#666666" points="343.25,-161.75 154.75,-161.75 154.75,-135 343.25,-135 343.25,-161.75"/>
<text text-anchor="middle" x="249" y="-142.55" font-family="Helvetica,sans-Serif" font-size="16.00">listViewHandleIteraction</text>
</a>
</g>
</g>
<!-- Node1&#45;&gt;Node9 -->
<g id="edge11_Node000001_Node000009" class="edge">
<title>Node1&#45;&gt;Node9</title>
<g id="a_edge11_Node000001_Node000009"><a xlink:title=" ">
<path fill="none" stroke="#63b8ff" stroke-width="2" d="M119.23,-148.38C126.39,-148.38 133.86,-148.38 141.45,-148.38"/>
<polygon fill="#63b8ff" stroke="#63b8ff" stroke-width="2" points="141.3,-151.88 151.3,-148.38 141.3,-144.88 141.3,-151.88"/>
</a>
</g>
</g>
<!-- Node10 -->
<g id="Node000010" class="node">
<title>Node10</title>
<g id="a_Node000010"><a xlink:href="../../d7/dba/menuutil_8c.html#a06a2ceb28df68b49e42d701e49f324c9" target="_top" xlink:title="Allocates and fills MENU, based on List content.">
<polygon fill="white" stroke="#666666" points="315.5,-288.75 182.5,-288.75 182.5,-262 315.5,-262 315.5,-288.75"/>
<text text-anchor="middle" x="249" y="-269.55" font-family="Helvetica,sans-Serif" font-size="16.00">listViewInitMenu</text>
</a>
</g>
</g>
<!-- Node1&#45;&gt;Node10 -->
<g id="edge12_Node000001_Node000010" class="edge">
<title>Node1&#45;&gt;Node10</title>
<g id="a_edge12_Node000001_Node000010"><a xlink:title=" ">
<path fill="none" stroke="#63b8ff" stroke-width="2" d="M69.67,-162.22C84.91,-183.84 117.26,-225.49 154.75,-248.38 159.96,-251.56 165.56,-254.38 171.34,-256.88"/>
<polygon fill="#63b8ff" stroke="#63b8ff" stroke-width="2" points="170.8,-260.2 181.38,-260.57 173.34,-253.68 170.8,-260.2"/>
</a>
</g>
</g>
<!-- Node11 -->
<g id="Node000011" class="node">
<title>Node11</title>
<g id="a_Node000011"><a xlink:href="../../d7/dba/menuutil_8c.html#adc98ee6c310a6ad6286dde9a1426db38" target="_top" xlink:title="Prints header row of table.">
<polygon fill="white" stroke="#666666" points="326,-71.75 172,-71.75 172,-45 326,-45 326,-71.75"/>
<text text-anchor="middle" x="249" y="-52.55" font-family="Helvetica,sans-Serif" font-size="16.00">printColumnNames</text>
</a>
</g>
</g>
<!-- Node1&#45;&gt;Node11 -->
<g id="edge15_Node000001_Node000011" class="edge">
<title>Node1&#45;&gt;Node11</title>
<g id="a_edge15_Node000001_Node000011"><a xlink:title=" ">
<path fill="none" stroke="#63b8ff" stroke-width="2" d="M75.92,-134.51C93.75,-119.31 124.43,-95.27 154.75,-81.38 158.74,-79.55 162.89,-77.85 167.13,-76.29"/>
<polygon fill="#63b8ff" stroke="#63b8ff" stroke-width="2" points="168.9,-78.71 177.25,-72.19 166.66,-72.07 168.9,-78.71"/>
</a>
</g>
</g>
<!-- Node12 -->
<g id="Node000012" class="node">
<title>Node12</title>
<g id="a_Node000012"><a xlink:href="../../d7/dba/menuutil_8c.html#a14ca6bd9893f550a2051ca6cd5a689ac" target="_top" xlink:title="Print boarders of window.">
<polygon fill="white" stroke="#666666" points="333.88,-26.75 164.12,-26.75 164.12,0 333.88,0 333.88,-26.75"/>
<text text-anchor="middle" x="249" y="-7.55" font-family="Helvetica,sans-Serif" font-size="16.00">printWindowBoarders</text>
</a>
</g>
</g>
<!-- Node1&#45;&gt;Node12 -->
<g id="edge16_Node000001_Node000012" class="edge">
<title>Node1&#45;&gt;Node12</title>
<g id="a_edge16_Node000001_Node000012"><a xlink:title=" ">
<path fill="none" stroke="#63b8ff" stroke-width="2" d="M68,-134.59C81.95,-110.7 113.94,-61.75 154.75,-36.38 157.02,-34.97 159.37,-33.64 161.78,-32.4"/>
<polygon fill="#63b8ff" stroke="#63b8ff" stroke-width="2" points="163.76,-35.45 171.45,-28.16 160.89,-29.06 163.76,-35.45"/>
</a>
</g>
</g>
<!-- Node3&#45;&gt;Node2 -->
<g id="edge9_Node000003_Node000002" class="edge">
<title>Node3&#45;&gt;Node2</title>
<g id="a_edge9_Node000003_Node000002"><a xlink:title=" ">
<path fill="none" stroke="#63b8ff" stroke-width="2" d="M313.83,-111C324.45,-114.45 334.76,-119.37 343.25,-126.38 372.69,-150.68 352.72,-176.91 379.25,-204.38 383.59,-208.87 388.75,-212.81 394.19,-216.21"/>
<polygon fill="#63b8ff" stroke="#63b8ff" stroke-width="2" points="393.13,-219.73 403.58,-221.49 396.51,-213.6 393.13,-219.73"/>
</a>
</g>
</g>
<!-- Node4 -->
<g id="Node000004" class="node">
<title>Node4</title>
<g id="a_Node000004"><a xlink:href="../../d7/d40/list_8c.html#afa2a7a1a43bfe8cfafd663b2739b0e2e" target="_top" xlink:title="Removes ListNode from List.">
<polygon fill="white" stroke="#666666" points="500.25,-158.75 379.25,-158.75 379.25,-132 500.25,-132 500.25,-158.75"/>
<text text-anchor="middle" x="439.75" y="-139.55" font-family="Helvetica,sans-Serif" font-size="16.00">listDeleteNode</text>
</a>
</g>
</g>
<!-- Node3&#45;&gt;Node4 -->
<g id="edge3_Node000003_Node000004" class="edge">
<title>Node3&#45;&gt;Node4</title>
<g id="a_edge3_Node000003_Node000004"><a xlink:title=" ">
<path fill="none" stroke="#63b8ff" stroke-width="2" d="M312.33,-117.24C329.69,-121.11 348.7,-125.34 366.58,-129.32"/>
<polygon fill="#63b8ff" stroke="#63b8ff" stroke-width="2" points="366.53,-133.34 377.05,-132.09 368.05,-126.5 366.53,-133.34"/>
</a>
</g>
</g>
<!-- Node6 -->
<g id="Node000006" class="node">
<title>Node6</title>
<g id="a_Node000006"><a xlink:href="../../d7/d40/list_8c.html#a8b8c4f6480771a17429d8e50c200d162" target="_top" xlink:title="Returns pointer to the last element of list.">
<polygon fill="white" stroke="#666666" points="671.88,-115.75 573.38,-115.75 573.38,-89 671.88,-89 671.88,-115.75"/>
<text text-anchor="middle" x="622.62" y="-96.55" font-family="Helvetica,sans-Serif" font-size="16.00">listGetBack</text>
</a>
</g>
</g>
<!-- Node3&#45;&gt;Node6 -->
<g id="edge7_Node000003_Node000006" class="edge">
<title>Node3&#45;&gt;Node6</title>
<g id="a_edge7_Node000003_Node000006"><a xlink:title=" ">
<path fill="none" stroke="#63b8ff" stroke-width="2" d="M313.88,-103.2C383,-103.02 492.41,-102.72 560.45,-102.54"/>
<polygon fill="#63b8ff" stroke="#63b8ff" stroke-width="2" points="560.07,-106.03 570.06,-102.51 560.05,-99.03 560.07,-106.03"/>
</a>
</g>
</g>
<!-- Node7 -->
<g id="Node000007" class="node">
<title>Node7</title>
<g id="a_Node000007"><a xlink:href="../../d7/d40/list_8c.html#a81da6612d4d712db1debb1555b18db54" target="_top" xlink:title="Returns pointer to the first element of list.">
<polygon fill="white" stroke="#666666" points="672.62,-205.75 572.62,-205.75 572.62,-179 672.62,-179 672.62,-205.75"/>
<text text-anchor="middle" x="622.62" y="-186.55" font-family="Helvetica,sans-Serif" font-size="16.00">listGetFront</text>
</a>
</g>
</g>
<!-- Node3&#45;&gt;Node7 -->
<g id="edge8_Node000003_Node000007" class="edge">
<title>Node3&#45;&gt;Node7</title>
<g id="a_edge8_Node000003_Node000007"><a xlink:title=" ">
<path fill="none" stroke="#63b8ff" stroke-width="2" d="M313.78,-113.58C324.07,-116.76 334.27,-120.92 343.25,-126.38 363.97,-138.97 357.7,-156.25 379.25,-167.38 435.27,-196.29 508.2,-200.01 559.38,-198.07"/>
<polygon fill="#63b8ff" stroke="#63b8ff" stroke-width="2" points="559.4,-201.43 569.22,-197.45 559.06,-194.44 559.4,-201.43"/>
</a>
</g>
</g>
<!-- Node5 -->
<g id="Node000005" class="node">
<title>Node5</title>
<g id="a_Node000005"><a xlink:href="../../d7/d40/list_8c.html#a625985389d2bf8d34673ba60958f7b86" target="_top" xlink:title="Free memory taken by ListNode.">
<polygon fill="white" stroke="#666666" points="709,-160.75 536.25,-160.75 536.25,-134 709,-134 709,-160.75"/>
<text text-anchor="middle" x="622.62" y="-141.55" font-family="Helvetica,sans-Serif" font-size="16.00">listDealocateListNode</text>
</a>
</g>
</g>
<!-- Node4&#45;&gt;Node5 -->
<g id="edge4_Node000004_Node000005" class="edge">
<title>Node4&#45;&gt;Node5</title>
<g id="a_edge4_Node000004_Node000005"><a xlink:title=" ">
<path fill="none" stroke="#63b8ff" stroke-width="2" d="M500.73,-146.04C507.97,-146.12 515.52,-146.2 523.13,-146.29"/>
<polygon fill="#63b8ff" stroke="#63b8ff" stroke-width="2" points="522.95,-149.82 532.99,-146.43 523.03,-142.82 522.95,-149.82"/>
</a>
</g>
</g>
<!-- Node4&#45;&gt;Node6 -->
<g id="edge5_Node000004_Node000006" class="edge">
<title>Node4&#45;&gt;Node6</title>
<g id="a_edge5_Node000004_Node000006"><a xlink:title=" ">
<path fill="none" stroke="#63b8ff" stroke-width="2" d="M498.98,-131.53C518.64,-126.86 540.64,-121.63 560.52,-116.9"/>
<polygon fill="#63b8ff" stroke="#63b8ff" stroke-width="2" points="561.98,-119.68 570.9,-113.96 560.36,-112.87 561.98,-119.68"/>
</a>
</g>
</g>
<!-- Node4&#45;&gt;Node7 -->
<g id="edge6_Node000004_Node000007" class="edge">
<title>Node4&#45;&gt;Node7</title>
<g id="a_edge6_Node000004_Node000007"><a xlink:title=" ">
<path fill="none" stroke="#63b8ff" stroke-width="2" d="M494.04,-159.22C514.77,-164.61 538.66,-170.82 560.11,-176.39"/>
<polygon fill="#63b8ff" stroke="#63b8ff" stroke-width="2" points="559.87,-180.46 570.42,-179.59 561.63,-173.69 559.87,-180.46"/>
</a>
</g>
</g>
<!-- Node10&#45;&gt;Node2 -->
<g id="edge14_Node000010_Node000002" class="edge">
<title>Node10&#45;&gt;Node2</title>
<g id="a_edge14_Node000010_Node000002"><a xlink:title=" ">
<path fill="none" stroke="#63b8ff" stroke-width="2" d="M313.64,-261.55C339.65,-255.9 369.15,-249.49 392.97,-244.32"/>
<polygon fill="#63b8ff" stroke="#63b8ff" stroke-width="2" points="394.53,-247.13 403.56,-241.58 393.05,-240.29 394.53,-247.13"/>
</a>
</g>
</g>
<!-- Node10&#45;&gt;Node7 -->
<g id="edge13_Node000010_Node000007" class="edge">
<title>Node10&#45;&gt;Node7</title>
<g id="a_edge13_Node000010_Node000007"><a xlink:title=" ">
<path fill="none" stroke="#63b8ff" stroke-width="2" d="M315.84,-277.62C367.07,-277.65 439.44,-273.9 500.25,-256.38 533.1,-246.91 567.27,-227.94 590.95,-213.1"/>
<polygon fill="#63b8ff" stroke="#63b8ff" stroke-width="2" points="593.15,-215.56 599.68,-207.21 589.37,-209.67 593.15,-215.56"/>
</a>
</g>
</g>
</g>
</svg>

<g id="navigator" transform="translate(0 0)" fill="#404254">
  <rect fill="#f2f5e9" fill-opacity="0.5" stroke="#606060" stroke-width=".5" x="0" y="0" width="60" height="60"/>
  <use id="zoomplus" xlink:href="#zoomPlus" x="17" y="9" onmousedown="handleZoom(evt,'in')"/>
  <use id="zoomminus" xlink:href="#zoomMin" x="42" y="9" onmousedown="handleZoom(evt,'out')"/>
  <use id="reset" xlink:href="#resetDef" x="30" y="36" onmousedown="handleReset()"/>
   <use id="arrowup" xlink:href="#arrowUp" x="0" y="0" onmousedown="handlePan(0,-1)"/>
  <use id="arrowright" xlink:href="#arrowRight" x="0" y="0" onmousedown="handlePan(1,0)"/>
  <use id="arrowdown" xlink:href="#arrowDown" x="0" y="0" onmousedown="handlePan(0,1)"/>
  <use id="arrowleft" xlink:href="#arrowLeft" x="0" y="0" onmousedown="handlePan(-1,0)"/>
</g>
<svg viewBox="0 0 15 15" width="100%" height="30px" preserveAspectRatio="xMaxYMin meet">
 <g id="arrow_out" transform="scale(0.3 0.3)">
  <a xlink:href="menuutil_8h_a742222fc10e257c499b238a8ad7630e7_cgraph_org.svg" target="_base">
   <rect id="button" ry="5" rx="5" y="6" x="6" height="38" width="38"
        fill="#f2f5e9" fill-opacity="0.5" stroke="#606060" stroke-width="1.0"/>
   <path id="arrow"
     d="M 11.500037,31.436501 C 11.940474,20.09759 22.043105,11.32322 32.158766,21.979434 L 37.068811,17.246167 C 37.068811,17.246167 37.088388,32 37.088388,32 L 22.160133,31.978069 C 22.160133,31.978069 26.997745,27.140456 26.997745,27.140456 C 18.528582,18.264221 13.291696,25.230495 11.500037,31.436501 z"
     style="fill:#404040;"/>
  </a>
 </g>
</svg>

<style type='text/css'>
<![CDATA[
[data-mouse-over-selected='false'] { opacity: 0.7; }
[data-mouse-over-selected='true']  { opacity: 1.0; }
]]>
</style>
<script type="application/ecmascript"><![CDATA[
document.addEventListener('DOMContentLoaded', (event) => {
  highlightEdges();
  highlightAdjacentNodes();
});
]]></script>
</svg>
