<?xml version="1.0" encoding="UTF-8" standalone="no"?>
<!DOCTYPE svg PUBLIC "-//W3C//DTD SVG 1.1//EN"
 "http://www.w3.org/Graphics/SVG/1.1/DTD/svg11.dtd">
<!-- Generated by graphviz version 8.0.5 (0)
 -->
<!-- Title: formInvoke Pages: 1 -->
<svg width="328pt" height="170pt"
 viewBox="0.00 0.00 328.00 169.75" xmlns="http://www.w3.org/2000/svg" xmlns:xlink="http://www.w3.org/1999/xlink">

<svg id="main" version="1.1" xmlns="http://www.w3.org/2000/svg" xmlns:xlink="http://www.w3.org/1999/xlink" xml:space="preserve" onload="init(evt)">
<style type="text/css"><![CDATA[
.node, .edge {opacity: 0.7;}
.node.selected, .edge.selected {opacity: 1;}
.edge:hover path { stroke: red; }
.edge:hover polygon { stroke: red; fill: red; }
]]></style>
<script type="application/ecmascript" xlink:href="../../svg.min.js"/>
<svg id="graph" class="graph">
<g id="graph0" class="graph" transform="scale(1 1) rotate(0) translate(4 165.75)">
<title>formInvoke</title>
<!-- Node1 -->
<g id="Node000001" class="node">
<title>Node1</title>
<g id="a_Node000001"><a xlink:title="Put form on screen in nice looking form.">
<polygon fill="#999999" stroke="#666666" points="96.25,-93.75 0,-93.75 0,-67 96.25,-67 96.25,-93.75"/>
<text text-anchor="middle" x="48.12" y="-74.55" font-family="Helvetica,sans-Serif" font-size="16.00">formInvoke</text>
</a>
</g>
</g>
<!-- Node2 -->
<g id="Node000002" class="node">
<title>Node2</title>
<g id="a_Node000002"><a xlink:href="../../d7/dba/menuutil_8c.html#ab9a65295e184f9f64ea1431f8c2e36b2" target="_top" xlink:title="Manages input in the form.">
<polygon fill="white" stroke="#666666" points="309.12,-161.75 143.12,-161.75 143.12,-135 309.12,-135 309.12,-161.75"/>
<text text-anchor="middle" x="226.12" y="-142.55" font-family="Helvetica,sans-Serif" font-size="16.00">formHandleIteraction</text>
</a>
</g>
</g>
<!-- Node1&#45;&gt;Node2 -->
<g id="edge1_Node000001_Node000002" class="edge">
<title>Node1&#45;&gt;Node2</title>
<g id="a_edge1_Node000001_Node000002"><a xlink:title=" ">
<path fill="none" stroke="#63b8ff" stroke-width="2" d="M70.97,-94.19C87.32,-104.03 110.52,-116.96 132.25,-125.38 137.44,-127.39 142.87,-129.27 148.38,-131.01"/>
<polygon fill="#63b8ff" stroke="#63b8ff" stroke-width="2" points="147.93,-135.13 158.52,-134.63 149.93,-128.42 147.93,-135.13"/>
</a>
</g>
</g>
<!-- Node3 -->
<g id="Node000003" class="node">
<title>Node3</title>
<g id="a_Node000003"><a xlink:href="../../d7/dba/menuutil_8c.html#ac6b71fcc47a9cdec8ac08b98e754239c" target="_top" xlink:title="Get length of longest string in array of strings.">
<polygon fill="white" stroke="#666666" points="320,-116.75 132.25,-116.75 132.25,-90 320,-90 320,-116.75"/>
<text text-anchor="middle" x="226.12" y="-97.55" font-family="Helvetica,sans-Serif" font-size="16.00">getLongestStringLength</text>
</a>
</g>
</g>
<!-- Node1&#45;&gt;Node3 -->
<g id="edge2_Node000001_Node000003" class="edge">
<title>Node1&#45;&gt;Node3</title>
<g id="a_edge2_Node000001_Node000003"><a xlink:title=" ">
<path fill="none" stroke="#63b8ff" stroke-width="2" d="M96.29,-86.54C103.57,-87.49 111.34,-88.5 119.3,-89.55"/>
<polygon fill="#63b8ff" stroke="#63b8ff" stroke-width="2" points="118.58,-93.37 128.95,-91.2 119.49,-86.43 118.58,-93.37"/>
</a>
</g>
</g>
<!-- Node4 -->
<g id="Node000004" class="node">
<title>Node4</title>
<g id="a_Node000004"><a xlink:href="../../d7/dba/menuutil_8c.html#a9941ed217da0309cd9453bdb776d5c51" target="_top" xlink:title="Add basic functionality to the shitty language which C is.">
<polygon fill="white" stroke="#666666" points="249.5,-71.75 202.75,-71.75 202.75,-45 249.5,-45 249.5,-71.75"/>
<text text-anchor="middle" x="226.12" y="-52.55" font-family="Helvetica,sans-Serif" font-size="16.00">max</text>
</a>
</g>
</g>
<!-- Node1&#45;&gt;Node4 -->
<g id="edge3_Node000001_Node000004" class="edge">
<title>Node1&#45;&gt;Node4</title>
<g id="a_edge3_Node000001_Node000004"><a xlink:title=" ">
<path fill="none" stroke="#63b8ff" stroke-width="2" d="M96.29,-74.48C125.73,-70.8 163.01,-66.14 189.88,-62.78"/>
<polygon fill="#63b8ff" stroke="#63b8ff" stroke-width="2" points="190.04,-65.91 199.52,-61.2 189.17,-58.97 190.04,-65.91"/>
</a>
</g>
</g>
<!-- Node5 -->
<g id="Node000005" class="node">
<title>Node5</title>
<g id="a_Node000005"><a xlink:href="../../d7/dba/menuutil_8c.html#a14ca6bd9893f550a2051ca6cd5a689ac" target="_top" xlink:title="Print boarders of window.">
<polygon fill="white" stroke="#666666" points="311,-26.75 141.25,-26.75 141.25,0 311,0 311,-26.75"/>
<text text-anchor="middle" x="226.12" y="-7.55" font-family="Helvetica,sans-Serif" font-size="16.00">printWindowBoarders</text>
</a>
</g>
</g>
<!-- Node1&#45;&gt;Node5 -->
<g id="edge4_Node000001_Node000005" class="edge">
<title>Node1&#45;&gt;Node5</title>
<g id="a_edge4_Node000001_Node000005"><a xlink:title=" ">
<path fill="none" stroke="#63b8ff" stroke-width="2" d="M71.36,-66.69C87.71,-57.1 110.74,-44.59 132.25,-36.38 137.45,-34.39 142.89,-32.53 148.4,-30.79"/>
<polygon fill="#63b8ff" stroke="#63b8ff" stroke-width="2" points="149.95,-33.39 158.54,-27.2 147.96,-26.68 149.95,-33.39"/>
</a>
</g>
</g>
</g>
</svg>
</svg>

<style type='text/css'>
<![CDATA[
[data-mouse-over-selected='false'] { opacity: 0.7; }
[data-mouse-over-selected='true']  { opacity: 1.0; }
]]>
</style>
<script type="application/ecmascript"><![CDATA[
document.addEventListener('DOMContentLoaded', (event) => {
  highlightEdges();
  highlightAdjacentNodes();
});
]]></script>
</svg>
