<?xml version="1.0" encoding="UTF-8" standalone="no"?>
<!DOCTYPE svg PUBLIC "-//W3C//DTD SVG 1.1//EN"
 "http://www.w3.org/Graphics/SVG/1.1/DTD/svg11.dtd">
<!-- Generated by graphviz version 8.0.5 (0)
 -->
<!-- Title: getLongestStringLength Pages: 1 -->
<svg width="791pt" height="678pt"
 viewBox="0.00 0.00 791.25 677.75" xmlns="http://www.w3.org/2000/svg" xmlns:xlink="http://www.w3.org/1999/xlink">
<g id="graph0" class="graph" transform="scale(1 1) rotate(0) translate(4 673.75)">
<title>getLongestStringLength</title>
<!-- Node1 -->
<g id="Node000001" class="node">
<title>Node1</title>
<g id="a_Node000001"><a xlink:title="Get length of longest string in array of strings.">
<polygon fill="#999999" stroke="#666666" points="783.25,-370.75 595.5,-370.75 595.5,-344 783.25,-344 783.25,-370.75"/>
<text text-anchor="middle" x="689.38" y="-351.55" font-family="Helvetica,sans-Serif" font-size="16.00">getLongestStringLength</text>
</a>
</g>
</g>
<!-- Node2 -->
<g id="Node000002" class="node">
<title>Node2</title>
<g id="a_Node000002"><a xlink:href="../../d7/dba/menuutil_8c.html#acef3bbabe9293534ee600e9b89eda07b" target="_top" xlink:title="Calculate minimum window width.">
<polygon fill="white" stroke="#666666" points="533.25,-542.75 413.75,-542.75 413.75,-516 533.25,-516 533.25,-542.75"/>
<text text-anchor="middle" x="473.5" y="-523.55" font-family="Helvetica,sans-Serif" font-size="16.00">computeWidth</text>
</a>
</g>
</g>
<!-- Node1&#45;&gt;Node2 -->
<g id="edge1_Node000001_Node000002" class="edge">
<title>Node1&#45;&gt;Node2</title>
<g id="a_edge1_Node000001_Node000002"><a xlink:title=" ">
<path fill="none" stroke="#63b8ff" stroke-width="2" d="M661.39,-379.08C616.77,-414.96 528.87,-485.65 491.72,-515.52"/>
<polygon fill="#63b8ff" stroke="#63b8ff" stroke-width="2" points="663.63,-381.15 669.23,-372.16 659.25,-375.7 663.63,-381.15"/>
</a>
</g>
</g>
<!-- Node10 -->
<g id="Node000010" class="node">
<title>Node10</title>
<g id="a_Node000010"><a xlink:href="../../d7/dba/menuutil_8c.html#af8f262005a4975cc6ccc3423d939f910" target="_top" xlink:title="Put form on screen in nice looking form.">
<polygon fill="white" stroke="#666666" points="521.62,-108.75 425.38,-108.75 425.38,-82 521.62,-82 521.62,-108.75"/>
<text text-anchor="middle" x="473.5" y="-89.55" font-family="Helvetica,sans-Serif" font-size="16.00">formInvoke</text>
</a>
</g>
</g>
<!-- Node1&#45;&gt;Node10 -->
<g id="edge3_Node000001_Node000010" class="edge">
<title>Node1&#45;&gt;Node10</title>
<g id="a_edge3_Node000001_Node000010"><a xlink:title=" ">
<path fill="none" stroke="#63b8ff" stroke-width="2" d="M669.07,-333.72C625.37,-280.19 520.01,-151.13 485.59,-108.96"/>
<polygon fill="#63b8ff" stroke="#63b8ff" stroke-width="2" points="667.14,-336.12 676.18,-341.66 672.56,-331.7 667.14,-336.12"/>
</a>
</g>
</g>
<!-- Node17 -->
<g id="Node000017" class="node">
<title>Node17</title>
<g id="a_Node000017"><a xlink:href="../../d7/dba/menuutil_8c.html#ae6ed898f3726361b1edde3f8707f0260" target="_top" xlink:title="Displays message box on the screen with title and message.">
<polygon fill="#fff0f0" stroke="red" points="559.5,-370.75 387.5,-370.75 387.5,-344 559.5,-344 559.5,-370.75"/>
<text text-anchor="middle" x="473.5" y="-351.55" font-family="Helvetica,sans-Serif" font-size="16.00">menuUtilMessagebox</text>
</a>
</g>
</g>
<!-- Node1&#45;&gt;Node17 -->
<g id="edge8_Node000001_Node000017" class="edge">
<title>Node1&#45;&gt;Node17</title>
<g id="a_edge8_Node000001_Node000017"><a xlink:title=" ">
<path fill="none" stroke="#63b8ff" stroke-width="2" d="M582.23,-357.38C574.77,-357.38 567.3,-357.38 559.97,-357.38"/>
<polygon fill="#63b8ff" stroke="#63b8ff" stroke-width="2" points="582.19,-360.88 592.19,-357.38 582.19,-353.88 582.19,-360.88"/>
</a>
</g>
</g>
<!-- Node3 -->
<g id="Node000003" class="node">
<title>Node3</title>
<g id="a_Node000003"><a xlink:href="../../d7/dba/menuutil_8c.html#a949419e66b27ac75475821fb7aba527d" target="_top" xlink:title="Handle all operation and functions for menu.">
<polygon fill="#fff0f0" stroke="red" points="303.12,-669.75 198.62,-669.75 198.62,-643 303.12,-643 303.12,-669.75"/>
<text text-anchor="middle" x="250.88" y="-650.55" font-family="Helvetica,sans-Serif" font-size="16.00">menuInvoke</text>
</a>
</g>
</g>
<!-- Node2&#45;&gt;Node3 -->
<g id="edge2_Node000002_Node000003" class="edge">
<title>Node2&#45;&gt;Node3</title>
<g id="a_edge2_Node000002_Node000003"><a xlink:title=" ">
<path fill="none" stroke="#63b8ff" stroke-width="2" d="M450.67,-552.44C427.94,-575.16 390.29,-609.29 351.5,-629.38 336.7,-637.04 319.5,-642.69 303.61,-646.79"/>
<polygon fill="#63b8ff" stroke="#63b8ff" stroke-width="2" points="453.24,-554.78 457.74,-545.19 448.24,-549.88 453.24,-554.78"/>
</a>
</g>
</g>
<!-- Node11 -->
<g id="Node000011" class="node">
<title>Node11</title>
<g id="a_Node000011"><a xlink:href="../../dc/dc6/carsmenu_8c.html#a30a34923bcd0082000de90700343bd84" target="_top" xlink:title="Function for editing car.">
<polygon fill="#fff0f0" stroke="red" points="302.75,-108.75 199,-108.75 199,-82 302.75,-82 302.75,-108.75"/>
<text text-anchor="middle" x="250.88" y="-89.55" font-family="Helvetica,sans-Serif" font-size="16.00">carFormEdit</text>
</a>
</g>
</g>
<!-- Node10&#45;&gt;Node11 -->
<g id="edge4_Node000010_Node000011" class="edge">
<title>Node10&#45;&gt;Node11</title>
<g id="a_edge4_Node000010_Node000011"><a xlink:title=" ">
<path fill="none" stroke="#63b8ff" stroke-width="2" d="M412.24,-95.38C378.09,-95.38 335.81,-95.38 303.24,-95.38"/>
<polygon fill="#63b8ff" stroke="#63b8ff" stroke-width="2" points="411.9,-98.88 421.9,-95.38 411.9,-91.88 411.9,-98.88"/>
</a>
</g>
</g>
<!-- Node14 -->
<g id="Node000014" class="node">
<title>Node14</title>
<g id="a_Node000014"><a xlink:href="../../da/de9/clientsmenu_8c.html#a6edce5784156f2643efd7ccc086716e3" target="_top" xlink:title="Function for editing client.">
<polygon fill="#fff0f0" stroke="red" points="310.62,-26.75 191.12,-26.75 191.12,0 310.62,0 310.62,-26.75"/>
<text text-anchor="middle" x="250.88" y="-7.55" font-family="Helvetica,sans-Serif" font-size="16.00">clientFormEdit</text>
</a>
</g>
</g>
<!-- Node10&#45;&gt;Node14 -->
<g id="edge6_Node000010_Node000014" class="edge">
<title>Node10&#45;&gt;Node14</title>
<g id="a_edge6_Node000010_Node000014"><a xlink:title=" ">
<path fill="none" stroke="#63b8ff" stroke-width="2" d="M434.09,-75.98C410.62,-64.62 379.79,-50.56 351.5,-40.38 338.01,-35.52 323.22,-31.06 309.27,-27.23"/>
<polygon fill="#63b8ff" stroke="#63b8ff" stroke-width="2" points="433.11,-79.38 443.63,-80.64 436.19,-73.1 433.11,-79.38"/>
</a>
</g>
</g>
<!-- Node12 -->
<g id="Node000012" class="node">
<title>Node12</title>
<g id="a_Node000012"><a xlink:href="../../dc/dc6/carsmenu_8c.html#a920be2aa6ca8626fdd965865d26f3fd4" target="_top" xlink:title="Function for adding a car.">
<polygon fill="#fff0f0" stroke="red" points="91.38,-239.75 22.88,-239.75 22.88,-213 91.38,-213 91.38,-239.75"/>
<text text-anchor="middle" x="57.12" y="-220.55" font-family="Helvetica,sans-Serif" font-size="16.00">addCar</text>
</a>
</g>
</g>
<!-- Node11&#45;&gt;Node12 -->
<g id="edge5_Node000011_Node000012" class="edge">
<title>Node11&#45;&gt;Node12</title>
<g id="a_edge5_Node000011_Node000012"><a xlink:title=" ">
<path fill="none" stroke="#63b8ff" stroke-width="2" d="M186.19,-103.71C173.7,-107.07 161.12,-111.78 150.25,-118.38 110.65,-142.42 79.53,-189.4 65.79,-212.65"/>
<polygon fill="#63b8ff" stroke="#63b8ff" stroke-width="2" points="187.66,-106.49 196.59,-100.79 186.05,-99.68 187.66,-106.49"/>
</a>
</g>
</g>
<!-- Node15 -->
<g id="Node000015" class="node">
<title>Node15</title>
<g id="a_Node000015"><a xlink:href="../../da/de9/clientsmenu_8c.html#a37a5ed3b8a63a9497f34682ce7db3126" target="_top" xlink:title="function for adding client;">
<polygon fill="#fff0f0" stroke="red" points="99.25,-67.75 15,-67.75 15,-41 99.25,-41 99.25,-67.75"/>
<text text-anchor="middle" x="57.12" y="-48.55" font-family="Helvetica,sans-Serif" font-size="16.00">addClient</text>
</a>
</g>
</g>
<!-- Node14&#45;&gt;Node15 -->
<g id="edge7_Node000014_Node000015" class="edge">
<title>Node14&#45;&gt;Node15</title>
<g id="a_edge7_Node000014_Node000015"><a xlink:title=" ">
<path fill="none" stroke="#63b8ff" stroke-width="2" d="M178.41,-28.66C151.88,-34.33 122.68,-40.57 99.7,-45.49"/>
<polygon fill="#63b8ff" stroke="#63b8ff" stroke-width="2" points="179.73,-31.52 188.78,-26.01 178.27,-24.68 179.73,-31.52"/>
</a>
</g>
</g>
<!-- Node17&#45;&gt;Node12 -->
<g id="edge9_Node000017_Node000012" class="edge">
<title>Node17&#45;&gt;Node12</title>
<g id="a_edge9_Node000017_Node000012"><a xlink:title=" ">
<path fill="none" stroke="#63b8ff" stroke-width="2" d="M455.05,-333.44C433.93,-306.59 395.65,-264.34 351.5,-245.38 263.8,-207.7 147.69,-214.93 91.46,-221.56"/>
<polygon fill="#63b8ff" stroke="#63b8ff" stroke-width="2" points="452.92,-335.73 461.77,-341.55 458.49,-331.48 452.92,-335.73"/>
</a>
</g>
</g>
<!-- Node17&#45;&gt;Node15 -->
<g id="edge10_Node000017_Node000015" class="edge">
<title>Node17&#45;&gt;Node15</title>
<g id="a_edge10_Node000017_Node000015"><a xlink:title=" ">
<path fill="none" stroke="#63b8ff" stroke-width="2" d="M465.21,-331.36C446.7,-267.34 396.22,-105.05 351.5,-73.38 312.09,-45.46 170.62,-48.43 99.52,-51.88"/>
<polygon fill="#63b8ff" stroke="#63b8ff" stroke-width="2" points="462.64,-333.12 468.75,-341.77 469.37,-331.2 462.64,-333.12"/>
</a>
</g>
</g>
<!-- Node18 -->
<g id="Node000018" class="node">
<title>Node18</title>
<g id="a_Node000018"><a xlink:href="../../dc/dc6/carsmenu_8c.html#ad451b82b7f3d31d1bb3fc4c210941579" target="_top" xlink:title="Invokes the listView of cars.">
<polygon fill="#fff0f0" stroke="red" points="297.88,-587.75 203.88,-587.75 203.88,-561 297.88,-561 297.88,-587.75"/>
<text text-anchor="middle" x="250.88" y="-568.55" font-family="Helvetica,sans-Serif" font-size="16.00">carChoose</text>
</a>
</g>
</g>
<!-- Node17&#45;&gt;Node18 -->
<g id="edge11_Node000017_Node000018" class="edge">
<title>Node17&#45;&gt;Node18</title>
<g id="a_edge11_Node000017_Node000018"><a xlink:title=" ">
<path fill="none" stroke="#63b8ff" stroke-width="2" d="M458.42,-382.25C430.05,-432.01 367.36,-540.06 351.5,-551.38 336.04,-562.41 316.1,-568.24 298.13,-571.29"/>
<polygon fill="#63b8ff" stroke="#63b8ff" stroke-width="2" points="461.79,-383.64 463.69,-373.21 455.71,-380.18 461.79,-383.64"/>
</a>
</g>
</g>
<!-- Node20 -->
<g id="Node000020" class="node">
<title>Node20</title>
<g id="a_Node000020"><a xlink:href="../../dc/dc6/carsmenu_8c.html#a76be213354bbaa3d64a095bafa1ec8d2" target="_top" xlink:title="Removes a car.">
<polygon fill="#fff0f0" stroke="red" points="106.38,-587.75 7.88,-587.75 7.88,-561 106.38,-561 106.38,-587.75"/>
<text text-anchor="middle" x="57.12" y="-568.55" font-family="Helvetica,sans-Serif" font-size="16.00">carRemove</text>
</a>
</g>
</g>
<!-- Node17&#45;&gt;Node20 -->
<g id="edge13_Node000017_Node000020" class="edge">
<title>Node17&#45;&gt;Node20</title>
<g id="a_edge13_Node000017_Node000020"><a xlink:title=" ">
<path fill="none" stroke="#63b8ff" stroke-width="2" d="M457.27,-381.92C439.41,-411.19 409.47,-461.89 387.5,-507.38 368.94,-545.8 386.88,-572.52 351.5,-596.38 270.19,-651.2 145.82,-611.41 88.72,-588.09"/>
<polygon fill="#63b8ff" stroke="#63b8ff" stroke-width="2" points="460.65,-383.46 462.91,-373.11 454.69,-379.8 460.65,-383.46"/>
</a>
</g>
</g>
<!-- Node21 -->
<g id="Node000021" class="node">
<title>Node21</title>
<g id="a_Node000021"><a xlink:href="../../da/de9/clientsmenu_8c.html#a1d711b31a5a18af01cdd582e537ff921" target="_top" xlink:title="Invokes ListView of clients.">
<polygon fill="#fff0f0" stroke="red" points="305.75,-460.75 196,-460.75 196,-434 305.75,-434 305.75,-460.75"/>
<text text-anchor="middle" x="250.88" y="-441.55" font-family="Helvetica,sans-Serif" font-size="16.00">clientChoose</text>
</a>
</g>
</g>
<!-- Node17&#45;&gt;Node21 -->
<g id="edge14_Node000017_Node000021" class="edge">
<title>Node17&#45;&gt;Node21</title>
<g id="a_edge14_Node000017_Node000021"><a xlink:title=" ">
<path fill="none" stroke="#63b8ff" stroke-width="2" d="M441.15,-377.93C417.39,-392.71 383.48,-412.11 351.5,-424.38 337.16,-429.87 321.14,-434.28 306.21,-437.71"/>
<polygon fill="#63b8ff" stroke="#63b8ff" stroke-width="2" points="443.37,-380.41 449.95,-372.1 439.63,-374.49 443.37,-380.41"/>
</a>
</g>
</g>
<!-- Node23 -->
<g id="Node000023" class="node">
<title>Node23</title>
<g id="a_Node000023"><a xlink:href="../../da/de9/clientsmenu_8c.html#ae81aa78f6e32fdd87e554ba85c063111" target="_top" xlink:title="Remove client.">
<polygon fill="#fff0f0" stroke="red" points="114.25,-460.75 0,-460.75 0,-434 114.25,-434 114.25,-460.75"/>
<text text-anchor="middle" x="57.12" y="-441.55" font-family="Helvetica,sans-Serif" font-size="16.00">clientRemove</text>
</a>
</g>
</g>
<!-- Node17&#45;&gt;Node23 -->
<g id="edge16_Node000017_Node000023" class="edge">
<title>Node17&#45;&gt;Node23</title>
<g id="a_edge16_Node000017_Node000023"><a xlink:title=" ">
<path fill="none" stroke="#63b8ff" stroke-width="2" d="M455.59,-381.4C434.73,-408.7 396.48,-451.75 351.5,-469.38 266.37,-502.73 156.86,-478.68 98.68,-461.2"/>
<polygon fill="#63b8ff" stroke="#63b8ff" stroke-width="2" points="459.06,-383.24 462.19,-373.12 453.43,-379.08 459.06,-383.24"/>
</a>
</g>
</g>
<!-- Node24 -->
<g id="Node000024" class="node">
<title>Node24</title>
<g id="a_Node000024"><a xlink:href="../../d3/df4/dbhandle_8c.html#a4bfe377ba6dd3a7e3024c825de1485dd" target="_top" xlink:title="Remove clinet from database.">
<polygon fill="white" stroke="#666666" points="339.5,-415.75 162.25,-415.75 162.25,-389 339.5,-389 339.5,-415.75"/>
<text text-anchor="middle" x="250.88" y="-396.55" font-family="Helvetica,sans-Serif" font-size="16.00">dbHandlClientRemove</text>
</a>
</g>
</g>
<!-- Node17&#45;&gt;Node24 -->
<g id="edge17_Node000017_Node000024" class="edge">
<title>Node17&#45;&gt;Node24</title>
<g id="a_edge17_Node000017_Node000024"><a xlink:title=" ">
<path fill="none" stroke="#63b8ff" stroke-width="2" d="M391.93,-373.81C368.2,-378.65 342.49,-383.89 319.65,-388.55"/>
<polygon fill="#63b8ff" stroke="#63b8ff" stroke-width="2" points="393.41,-376.67 402.5,-371.24 392.01,-369.81 393.41,-376.67"/>
</a>
</g>
</g>
<!-- Node25 -->
<g id="Node000025" class="node">
<title>Node25</title>
<g id="a_Node000025"><a xlink:href="../../d3/df4/dbhandle_8c.html#ae62043f5776328dcdc74dc9f29c4e2c6" target="_top" xlink:title="Insert a car into the database.">
<polygon fill="white" stroke="#666666" points="326.38,-370.75 175.38,-370.75 175.38,-344 326.38,-344 326.38,-370.75"/>
<text text-anchor="middle" x="250.88" y="-351.55" font-family="Helvetica,sans-Serif" font-size="16.00">dbHandleCarInsert</text>
</a>
</g>
</g>
<!-- Node17&#45;&gt;Node25 -->
<g id="edge19_Node000017_Node000025" class="edge">
<title>Node17&#45;&gt;Node25</title>
<g id="a_edge19_Node000017_Node000025"><a xlink:title=" ">
<path fill="none" stroke="#63b8ff" stroke-width="2" d="M374.41,-357.38C358.34,-357.38 341.91,-357.38 326.53,-357.38"/>
<polygon fill="#63b8ff" stroke="#63b8ff" stroke-width="2" points="374.2,-360.88 384.2,-357.38 374.2,-353.88 374.2,-360.88"/>
</a>
</g>
</g>
<!-- Node26 -->
<g id="Node000026" class="node">
<title>Node26</title>
<g id="a_Node000026"><a xlink:href="../../d3/df4/dbhandle_8c.html#a230344c970b882095a893674614099c4" target="_top" xlink:title="Remove a car from the database.">
<polygon fill="white" stroke="#666666" points="336.12,-542.75 165.62,-542.75 165.62,-516 336.12,-516 336.12,-542.75"/>
<text text-anchor="middle" x="250.88" y="-523.55" font-family="Helvetica,sans-Serif" font-size="16.00">dbHandleCarRemove</text>
</a>
</g>
</g>
<!-- Node17&#45;&gt;Node26 -->
<g id="edge21_Node000017_Node000026" class="edge">
<title>Node17&#45;&gt;Node26</title>
<g id="a_edge21_Node000017_Node000026"><a xlink:title=" ">
<path fill="none" stroke="#63b8ff" stroke-width="2" d="M458.52,-382.12C438.86,-414.65 399.96,-471.31 351.5,-502.38 343.13,-507.74 333.7,-512.05 324.07,-515.51"/>
<polygon fill="#63b8ff" stroke="#63b8ff" stroke-width="2" points="462.05,-383.33 464.1,-372.94 456.01,-379.78 462.05,-383.33"/>
</a>
</g>
</g>
<!-- Node27 -->
<g id="Node000027" class="node">
<title>Node27</title>
<g id="a_Node000027"><a xlink:href="../../d3/df4/dbhandle_8c.html#a127bbad9ae9228590e2a7eb06a085321" target="_top" xlink:title="Update a car in the database.">
<polygon fill="#fff0f0" stroke="red" points="332,-325.75 169.75,-325.75 169.75,-299 332,-299 332,-325.75"/>
<text text-anchor="middle" x="250.88" y="-306.55" font-family="Helvetica,sans-Serif" font-size="16.00">dbHandleCarUpdate</text>
</a>
</g>
</g>
<!-- Node17&#45;&gt;Node27 -->
<g id="edge23_Node000017_Node000027" class="edge">
<title>Node17&#45;&gt;Node27</title>
<g id="a_edge23_Node000017_Node000027"><a xlink:title=" ">
<path fill="none" stroke="#63b8ff" stroke-width="2" d="M391.93,-340.94C368.2,-336.1 342.49,-330.86 319.65,-326.2"/>
<polygon fill="#63b8ff" stroke="#63b8ff" stroke-width="2" points="392.01,-344.94 402.5,-343.51 393.41,-338.08 392.01,-344.94"/>
</a>
</g>
</g>
<!-- Node28 -->
<g id="Node000028" class="node">
<title>Node28</title>
<g id="a_Node000028"><a xlink:href="../../d3/df4/dbhandle_8c.html#a10cc2cd742cf382f48c04428af09189f" target="_top" xlink:title="Insert client into db.">
<polygon fill="white" stroke="#666666" points="334.25,-153.75 167.5,-153.75 167.5,-127 334.25,-127 334.25,-153.75"/>
<text text-anchor="middle" x="250.88" y="-134.55" font-family="Helvetica,sans-Serif" font-size="16.00">dbHandleClientInsert</text>
</a>
</g>
</g>
<!-- Node17&#45;&gt;Node28 -->
<g id="edge24_Node000017_Node000028" class="edge">
<title>Node17&#45;&gt;Node28</title>
<g id="a_edge24_Node000017_Node000028"><a xlink:title=" ">
<path fill="none" stroke="#63b8ff" stroke-width="2" d="M463.76,-331.34C448.19,-289.14 411.55,-206.25 351.5,-163.38 346.3,-159.66 340.59,-156.54 334.62,-153.91"/>
<polygon fill="#63b8ff" stroke="#63b8ff" stroke-width="2" points="460.43,-333.25 467.07,-341.5 467.03,-330.91 460.43,-333.25"/>
</a>
</g>
</g>
<!-- Node29 -->
<g id="Node000029" class="node">
<title>Node29</title>
<g id="a_Node000029"><a xlink:href="../../d3/df4/dbhandle_8c.html#aaa0d1881c99c82d3e6dbf0965ae779fa" target="_top" xlink:title="Update Client in database.">
<polygon fill="#fff0f0" stroke="red" points="339.88,-280.75 161.88,-280.75 161.88,-254 339.88,-254 339.88,-280.75"/>
<text text-anchor="middle" x="250.88" y="-261.55" font-family="Helvetica,sans-Serif" font-size="16.00">dbHandleClientUpdate</text>
</a>
</g>
</g>
<!-- Node17&#45;&gt;Node29 -->
<g id="edge26_Node000017_Node000029" class="edge">
<title>Node17&#45;&gt;Node29</title>
<g id="a_edge26_Node000017_Node000029"><a xlink:title=" ">
<path fill="none" stroke="#63b8ff" stroke-width="2" d="M441.15,-336.82C417.39,-322.04 383.48,-302.64 351.5,-290.38 342.38,-286.88 332.59,-283.82 322.82,-281.18"/>
<polygon fill="#63b8ff" stroke="#63b8ff" stroke-width="2" points="439.63,-340.26 449.95,-342.65 443.37,-334.34 439.63,-340.26"/>
</a>
</g>
</g>
<!-- Node30 -->
<g id="Node000030" class="node">
<title>Node30</title>
<g id="a_Node000030"><a xlink:href="../../d3/df4/dbhandle_8c.html#a93d9b43b32495dc8630963c174aeba05" target="_top" xlink:title="Given query and callback function create List based on the query.">
<polygon fill="#fff0f0" stroke="red" points="351.5,-198.75 150.25,-198.75 150.25,-172 351.5,-172 351.5,-198.75"/>
<text text-anchor="middle" x="250.88" y="-179.55" font-family="Helvetica,sans-Serif" font-size="16.00">dbHandleGetResultAsList</text>
</a>
</g>
</g>
<!-- Node17&#45;&gt;Node30 -->
<g id="edge27_Node000017_Node000030" class="edge">
<title>Node17&#45;&gt;Node30</title>
<g id="a_edge27_Node000017_Node000030"><a xlink:title=" ">
<path fill="none" stroke="#63b8ff" stroke-width="2" d="M458.52,-332.63C438.86,-300.1 399.96,-243.44 351.5,-212.38 343.13,-207.01 333.7,-202.7 324.07,-199.24"/>
<polygon fill="#63b8ff" stroke="#63b8ff" stroke-width="2" points="456.01,-334.97 464.1,-341.81 462.05,-331.42 456.01,-334.97"/>
</a>
</g>
</g>
<!-- Node18&#45;&gt;Node20 -->
<g id="edge12_Node000018_Node000020" class="edge">
<title>Node18&#45;&gt;Node20</title>
<g id="a_edge12_Node000018_Node000020"><a xlink:title=" ">
<path fill="none" stroke="#63b8ff" stroke-width="2" d="M190.66,-574.38C163.75,-574.38 132.3,-574.38 106.79,-574.38"/>
<polygon fill="#63b8ff" stroke="#63b8ff" stroke-width="2" points="190.46,-577.88 200.46,-574.38 190.46,-570.88 190.46,-577.88"/>
</a>
</g>
</g>
<!-- Node21&#45;&gt;Node23 -->
<g id="edge15_Node000021_Node000023" class="edge">
<title>Node21&#45;&gt;Node23</title>
<g id="a_edge15_Node000021_Node000023"><a xlink:title=" ">
<path fill="none" stroke="#63b8ff" stroke-width="2" d="M182.86,-447.38C160.55,-447.38 135.93,-447.38 114.51,-447.38"/>
<polygon fill="#63b8ff" stroke="#63b8ff" stroke-width="2" points="182.7,-450.88 192.7,-447.38 182.7,-443.88 182.7,-450.88"/>
</a>
</g>
</g>
<!-- Node24&#45;&gt;Node23 -->
<g id="edge18_Node000024_Node000023" class="edge">
<title>Node24&#45;&gt;Node23</title>
<g id="a_edge18_Node000024_Node000023"><a xlink:title=" ">
<path fill="none" stroke="#63b8ff" stroke-width="2" d="M176.93,-419.15C167.94,-421.24 158.88,-423.35 150.25,-425.38 138.72,-428.08 126.39,-431.01 114.62,-433.81"/>
<polygon fill="#63b8ff" stroke="#63b8ff" stroke-width="2" points="178.58,-421.9 187.54,-416.23 177,-415.08 178.58,-421.9"/>
</a>
</g>
</g>
<!-- Node25&#45;&gt;Node12 -->
<g id="edge20_Node000025_Node000012" class="edge">
<title>Node25&#45;&gt;Node12</title>
<g id="a_edge20_Node000025_Node000012"><a xlink:title=" ">
<path fill="none" stroke="#63b8ff" stroke-width="2" d="M162.96,-340.96C158.55,-339.01 154.28,-336.82 150.25,-334.38 110.65,-310.33 79.53,-263.35 65.79,-240.1"/>
<polygon fill="#63b8ff" stroke="#63b8ff" stroke-width="2" points="162.32,-344.25 172.9,-344.61 164.85,-337.72 162.32,-344.25"/>
</a>
</g>
</g>
<!-- Node26&#45;&gt;Node20 -->
<g id="edge22_Node000026_Node000020" class="edge">
<title>Node26&#45;&gt;Node20</title>
<g id="a_edge22_Node000026_Node000020"><a xlink:title=" ">
<path fill="none" stroke="#63b8ff" stroke-width="2" d="M176.93,-546.15C167.94,-548.24 158.88,-550.35 150.25,-552.38 136,-555.72 120.53,-559.4 106.4,-562.77"/>
<polygon fill="#63b8ff" stroke="#63b8ff" stroke-width="2" points="178.58,-548.9 187.54,-543.23 177,-542.08 178.58,-548.9"/>
</a>
</g>
</g>
<!-- Node28&#45;&gt;Node15 -->
<g id="edge25_Node000028_Node000015" class="edge">
<title>Node28&#45;&gt;Node15</title>
<g id="a_edge25_Node000028_Node000015"><a xlink:title=" ">
<path fill="none" stroke="#63b8ff" stroke-width="2" d="M163.51,-122.58C158.97,-120.98 154.52,-119.25 150.25,-117.38 121.15,-104.61 91.53,-82.35 73.99,-67.99"/>
<polygon fill="#63b8ff" stroke="#63b8ff" stroke-width="2" points="163.1,-126.77 173.69,-126.51 165.25,-120.11 163.1,-126.77"/>
</a>
</g>
</g>
</g>
</svg>
