<?xml version="1.0" encoding="UTF-8" standalone="no"?>
<!DOCTYPE svg PUBLIC "-//W3C//DTD SVG 1.1//EN"
 "http://www.w3.org/Graphics/SVG/1.1/DTD/svg11.dtd">
<!-- Generated by graphviz version 8.0.5 (0)
 -->
<!-- Title: client.h Pages: 1 -->
<svg width="836pt" height="160pt"
 viewBox="0.00 0.00 835.88 160.25" xmlns="http://www.w3.org/2000/svg" xmlns:xlink="http://www.w3.org/1999/xlink">
<g id="graph0" class="graph" transform="scale(1 1) rotate(0) translate(4 156.25)">
<title>client.h</title>
<!-- Node1 -->
<g id="Node000001" class="node">
<title>Node1</title>
<g id="a_Node000001"><a xlink:title="Interface for Client structure.">
<polygon fill="#999999" stroke="#666666" points="443.25,-152.25 375.5,-152.25 375.5,-125.5 443.25,-125.5 443.25,-152.25"/>
<text text-anchor="middle" x="409.38" y="-133.05" font-family="Helvetica,sans-Serif" font-size="16.00">client.h</text>
</a>
</g>
</g>
<!-- Node2 -->
<g id="Node000002" class="node">
<title>Node2</title>
<g id="a_Node000002"><a xlink:href="../../dd/d93/client_8c.html" target="_top" xlink:title="Implements function to operate on client.">
<polygon fill="white" stroke="#666666" points="827.88,-26.75 760.88,-26.75 760.88,0 827.88,0 827.88,-26.75"/>
<text text-anchor="middle" x="794.38" y="-7.55" font-family="Helvetica,sans-Serif" font-size="16.00">client.c</text>
</a>
</g>
</g>
<!-- Node1&#45;&gt;Node2 -->
<g id="edge1_Node000001_Node000002" class="edge">
<title>Node1&#45;&gt;Node2</title>
<g id="a_edge1_Node000001_Node000002"><a xlink:title=" ">
<path fill="none" stroke="#63b8ff" stroke-width="2" d="M455.73,-124.36C481.89,-115.91 514.77,-103.91 542.38,-89.5 560.68,-79.94 561.44,-70.99 580.38,-62.75 651.59,-31.76 676.01,-45.5 751.38,-26.75 754.39,-26 757.51,-25.18 760.64,-24.34"/>
<polygon fill="#63b8ff" stroke="#63b8ff" stroke-width="2" points="453.97,-121.87 445.48,-128.21 456.07,-128.55 453.97,-121.87"/>
</a>
</g>
</g>
<!-- Node3 -->
<g id="Node000003" class="node">
<title>Node3</title>
<g id="a_Node000003"><a xlink:href="../../da/de9/clientsmenu_8c.html" target="_top" xlink:title="Clients menu implementation.">
<polygon fill="white" stroke="#666666" points="216.25,-26.75 100.5,-26.75 100.5,0 216.25,0 216.25,-26.75"/>
<text text-anchor="middle" x="158.38" y="-7.55" font-family="Helvetica,sans-Serif" font-size="16.00">clientsmenu.c</text>
</a>
</g>
</g>
<!-- Node1&#45;&gt;Node3 -->
<g id="edge2_Node000001_Node000003" class="edge">
<title>Node1&#45;&gt;Node3</title>
<g id="a_edge2_Node000001_Node000003"><a xlink:title=" ">
<path fill="none" stroke="#63b8ff" stroke-width="2" d="M362.29,-134.92C320.66,-130.37 259.83,-118.82 215.38,-89.5 191.32,-73.64 173.4,-44.08 164.55,-27.15"/>
<polygon fill="#63b8ff" stroke="#63b8ff" stroke-width="2" points="361.79,-138.68 372.08,-136.16 362.47,-131.71 361.79,-138.68"/>
</a>
</g>
</g>
<!-- Node4 -->
<g id="Node000004" class="node">
<title>Node4</title>
<g id="a_Node000004"><a xlink:href="../../d6/d4a/clientsmenu_8h.html" target="_top" xlink:title="Clients menu interface.">
<polygon fill="white" stroke="#666666" points="340.62,-89.5 224.12,-89.5 224.12,-62.75 340.62,-62.75 340.62,-89.5"/>
<text text-anchor="middle" x="282.38" y="-70.3" font-family="Helvetica,sans-Serif" font-size="16.00">clientsmenu.h</text>
</a>
</g>
</g>
<!-- Node1&#45;&gt;Node4 -->
<g id="edge3_Node000001_Node000004" class="edge">
<title>Node1&#45;&gt;Node4</title>
<g id="a_edge3_Node000001_Node000004"><a xlink:title=" ">
<path fill="none" stroke="#63b8ff" stroke-width="2" d="M371.17,-119.6C351.1,-110 326.99,-98.47 308.96,-89.84"/>
<polygon fill="#63b8ff" stroke="#63b8ff" stroke-width="2" points="370.22,-122.98 380.75,-124.14 373.24,-116.67 370.22,-122.98"/>
</a>
</g>
</g>
<!-- Node5 -->
<g id="Node000005" class="node">
<title>Node5</title>
<g id="a_Node000005"><a xlink:href="../../d3/df4/dbhandle_8c.html" target="_top" xlink:title="Database handling.">
<polygon fill="white" stroke="#666666" points="330.12,-26.75 234.62,-26.75 234.62,0 330.12,0 330.12,-26.75"/>
<text text-anchor="middle" x="282.38" y="-7.55" font-family="Helvetica,sans-Serif" font-size="16.00">dbhandle.c</text>
</a>
</g>
</g>
<!-- Node1&#45;&gt;Node5 -->
<g id="edge8_Node000001_Node000005" class="edge">
<title>Node1&#45;&gt;Node5</title>
<g id="a_edge8_Node000001_Node000005"><a xlink:title=" ">
<path fill="none" stroke="#63b8ff" stroke-width="2" d="M393.42,-114.7C382.09,-99.11 366.01,-78.59 349.38,-62.75 335.14,-49.19 316.96,-36.29 303.12,-27.23"/>
<polygon fill="#63b8ff" stroke="#63b8ff" stroke-width="2" points="391.12,-116.91 399.76,-123.04 396.82,-112.86 391.12,-116.91"/>
</a>
</g>
</g>
<!-- Node7 -->
<g id="Node000007" class="node">
<title>Node7</title>
<g id="a_Node000007"><a xlink:href="../../d2/da6/testDbHandle_8c_source.html" target="_top" xlink:title=" ">
<polygon fill="white" stroke="#666666" points="474.5,-26.75 348.25,-26.75 348.25,0 474.5,0 474.5,-26.75"/>
<text text-anchor="middle" x="411.38" y="-7.55" font-family="Helvetica,sans-Serif" font-size="16.00">testDbHandle.c</text>
</a>
</g>
</g>
<!-- Node1&#45;&gt;Node7 -->
<g id="edge18_Node000001_Node000007" class="edge">
<title>Node1&#45;&gt;Node7</title>
<g id="a_edge18_Node000001_Node000007"><a xlink:title=" ">
<path fill="none" stroke="#63b8ff" stroke-width="2" d="M409.79,-112.27C410.21,-86.34 410.84,-47.28 411.17,-27.24"/>
<polygon fill="#63b8ff" stroke="#63b8ff" stroke-width="2" points="406.24,-112.07 409.58,-122.12 413.24,-112.18 406.24,-112.07"/>
</a>
</g>
</g>
<!-- Node8 -->
<g id="Node000008" class="node">
<title>Node8</title>
<g id="a_Node000008"><a xlink:href="../../db/d9d/dbhandle_8h.html" target="_top" xlink:title="Database operations interface.">
<polygon fill="white" stroke="#666666" points="533.5,-89.5 437.25,-89.5 437.25,-62.75 533.5,-62.75 533.5,-89.5"/>
<text text-anchor="middle" x="485.38" y="-70.3" font-family="Helvetica,sans-Serif" font-size="16.00">dbhandle.h</text>
</a>
</g>
</g>
<!-- Node1&#45;&gt;Node8 -->
<g id="edge9_Node000001_Node000008" class="edge">
<title>Node1&#45;&gt;Node8</title>
<g id="a_edge9_Node000001_Node000008"><a xlink:title=" ">
<path fill="none" stroke="#63b8ff" stroke-width="2" d="M434.97,-117.41C446.36,-108.31 459.42,-97.87 469.39,-89.91"/>
<polygon fill="#63b8ff" stroke="#63b8ff" stroke-width="2" points="432.75,-115.31 427.12,-124.29 437.12,-120.78 432.75,-115.31"/>
</a>
</g>
</g>
<!-- Node12 -->
<g id="Node000012" class="node">
<title>Node12</title>
<g id="a_Node000012"><a xlink:href="../../d5/d43/rental_8h_source.html" target="_top" xlink:title=" ">
<polygon fill="white" stroke="#666666" points="659.38,-89.5 589.38,-89.5 589.38,-62.75 659.38,-62.75 659.38,-89.5"/>
<text text-anchor="middle" x="624.38" y="-70.3" font-family="Helvetica,sans-Serif" font-size="16.00">rental.h</text>
</a>
</g>
</g>
<!-- Node1&#45;&gt;Node12 -->
<g id="edge17_Node000001_Node000012" class="edge">
<title>Node1&#45;&gt;Node12</title>
<g id="a_edge17_Node000001_Node000012"><a xlink:title=" ">
<path fill="none" stroke="#63b8ff" stroke-width="2" d="M455.79,-124.76C495.78,-113.46 552.65,-97.39 589.04,-87.11"/>
<polygon fill="#63b8ff" stroke="#63b8ff" stroke-width="2" points="454.11,-122.16 445.44,-128.25 456.02,-128.9 454.11,-122.16"/>
</a>
</g>
</g>
<!-- Node4&#45;&gt;Node3 -->
<g id="edge4_Node000004_Node000003" class="edge">
<title>Node4&#45;&gt;Node3</title>
<g id="a_edge4_Node000004_Node000003"><a xlink:title=" ">
<path fill="none" stroke="#63b8ff" stroke-width="2" d="M244.8,-56.71C225.25,-47.14 201.85,-35.68 184.34,-27.09"/>
<polygon fill="#63b8ff" stroke="#63b8ff" stroke-width="2" points="243.86,-60.13 254.38,-61.39 246.94,-53.85 243.86,-60.13"/>
</a>
</g>
</g>
<!-- Node4&#45;&gt;Node5 -->
<g id="edge5_Node000004_Node000005" class="edge">
<title>Node4&#45;&gt;Node5</title>
<g id="a_edge5_Node000004_Node000005"><a xlink:title=" ">
<path fill="none" stroke="#63b8ff" stroke-width="2" d="M282.38,-49.73C282.38,-41.87 282.38,-33.54 282.38,-26.95"/>
<polygon fill="#63b8ff" stroke="#63b8ff" stroke-width="2" points="278.88,-49.54 282.38,-59.54 285.88,-49.54 278.88,-49.54"/>
</a>
</g>
</g>
<!-- Node6 -->
<g id="Node000006" class="node">
<title>Node6</title>
<g id="a_Node000006"><a xlink:href="../../de/dc9/mmenu_8c.html" target="_top" xlink:title="Menu implementation.">
<polygon fill="white" stroke="#666666" points="82.75,-26.75 0,-26.75 0,0 82.75,0 82.75,-26.75"/>
<text text-anchor="middle" x="41.38" y="-7.55" font-family="Helvetica,sans-Serif" font-size="16.00">mmenu.c</text>
</a>
</g>
</g>
<!-- Node4&#45;&gt;Node6 -->
<g id="edge6_Node000004_Node000006" class="edge">
<title>Node4&#45;&gt;Node6</title>
<g id="a_edge6_Node000004_Node000006"><a xlink:title=" ">
<path fill="none" stroke="#63b8ff" stroke-width="2" d="M219.22,-59.2C176.18,-48.36 120.42,-34.3 82.91,-24.84"/>
<polygon fill="#63b8ff" stroke="#63b8ff" stroke-width="2" points="219.01,-63.27 229.56,-62.32 220.72,-56.48 219.01,-63.27"/>
</a>
</g>
</g>
<!-- Node4&#45;&gt;Node7 -->
<g id="edge7_Node000004_Node000007" class="edge">
<title>Node4&#45;&gt;Node7</title>
<g id="a_edge7_Node000004_Node000007"><a xlink:title=" ">
<path fill="none" stroke="#63b8ff" stroke-width="2" d="M320.89,-56.98C341.34,-47.36 365.97,-35.76 384.37,-27.09"/>
<polygon fill="#63b8ff" stroke="#63b8ff" stroke-width="2" points="318.97,-53.96 311.42,-61.39 321.96,-60.3 318.97,-53.96"/>
</a>
</g>
</g>
<!-- Node8&#45;&gt;Node2 -->
<g id="edge12_Node000008_Node000002" class="edge">
<title>Node8&#45;&gt;Node2</title>
<g id="a_edge12_Node000008_Node000002"><a xlink:title=" ">
<path fill="none" stroke="#63b8ff" stroke-width="2" d="M546.13,-62.99C546.54,-62.91 546.96,-62.83 547.38,-62.75 637.86,-45.74 661.68,-47.51 751.38,-26.75 754.4,-26.05 757.53,-25.27 760.66,-24.44"/>
<polygon fill="#63b8ff" stroke="#63b8ff" stroke-width="2" points="544.92,-60.04 535.75,-65.36 546.24,-66.91 544.92,-60.04"/>
</a>
</g>
</g>
<!-- Node8&#45;&gt;Node3 -->
<g id="edge13_Node000008_Node000003" class="edge">
<title>Node8&#45;&gt;Node3</title>
<g id="a_edge13_Node000008_Node000003"><a xlink:title=" ">
<path fill="none" stroke="#63b8ff" stroke-width="2" d="M424.2,-63.76C364.74,-52.71 275.09,-36.06 216.64,-25.2"/>
<polygon fill="#63b8ff" stroke="#63b8ff" stroke-width="2" points="424.3,-67.71 434.77,-66.1 425.58,-60.83 424.3,-67.71"/>
</a>
</g>
</g>
<!-- Node8&#45;&gt;Node5 -->
<g id="edge14_Node000008_Node000005" class="edge">
<title>Node8&#45;&gt;Node5</title>
<g id="a_edge14_Node000008_Node000005"><a xlink:title=" ">
<path fill="none" stroke="#63b8ff" stroke-width="2" d="M430.59,-58.73C397.49,-48.82 355.91,-36.38 325.22,-27.2"/>
<polygon fill="#63b8ff" stroke="#63b8ff" stroke-width="2" points="430.24,-62.88 440.82,-62.39 432.24,-56.17 430.24,-62.88"/>
</a>
</g>
</g>
<!-- Node8&#45;&gt;Node7 -->
<g id="edge16_Node000008_Node000007" class="edge">
<title>Node8&#45;&gt;Node7</title>
<g id="a_edge16_Node000008_Node000007"><a xlink:title=" ">
<path fill="none" stroke="#63b8ff" stroke-width="2" d="M460.11,-54.38C449.1,-45.35 436.55,-35.04 426.94,-27.16"/>
<polygon fill="#63b8ff" stroke="#63b8ff" stroke-width="2" points="458.09,-57.9 468.04,-61.54 462.53,-52.49 458.09,-57.9"/>
</a>
</g>
</g>
<!-- Node9 -->
<g id="Node000009" class="node">
<title>Node9</title>
<g id="a_Node000009"><a xlink:href="../../d5/df2/car_8c.html" target="_top" xlink:title="Implements function to operate on client.">
<polygon fill="white" stroke="#666666" points="742.62,-26.75 692.12,-26.75 692.12,0 742.62,0 742.62,-26.75"/>
<text text-anchor="middle" x="717.38" y="-7.55" font-family="Helvetica,sans-Serif" font-size="16.00">car.c</text>
</a>
</g>
</g>
<!-- Node8&#45;&gt;Node9 -->
<g id="edge10_Node000008_Node000009" class="edge">
<title>Node8&#45;&gt;Node9</title>
<g id="a_edge10_Node000008_Node000009"><a xlink:title=" ">
<path fill="none" stroke="#63b8ff" stroke-width="2" d="M546.36,-62.04C585.75,-53.15 637.94,-40.52 683.38,-26.75 686.14,-25.91 689.01,-24.98 691.86,-24"/>
<polygon fill="#63b8ff" stroke="#63b8ff" stroke-width="2" points="544.78,-59.26 535.79,-64.85 546.31,-66.09 544.78,-59.26"/>
</a>
</g>
</g>
<!-- Node10 -->
<g id="Node000010" class="node">
<title>Node10</title>
<g id="a_Node000010"><a xlink:href="../../dc/dc6/carsmenu_8c.html" target="_top" xlink:title="Cars menu implementation.">
<polygon fill="white" stroke="#666666" points="592.38,-26.75 492.38,-26.75 492.38,0 592.38,0 592.38,-26.75"/>
<text text-anchor="middle" x="542.38" y="-7.55" font-family="Helvetica,sans-Serif" font-size="16.00">carsmenu.c</text>
</a>
</g>
</g>
<!-- Node8&#45;&gt;Node10 -->
<g id="edge11_Node000008_Node000010" class="edge">
<title>Node8&#45;&gt;Node10</title>
<g id="a_edge11_Node000008_Node000010"><a xlink:title=" ">
<path fill="none" stroke="#63b8ff" stroke-width="2" d="M505.95,-53.19C514.23,-44.37 523.48,-34.52 530.58,-26.95"/>
<polygon fill="#63b8ff" stroke="#63b8ff" stroke-width="2" points="503.48,-50.85 499.19,-60.54 508.58,-55.64 503.48,-50.85"/>
</a>
</g>
</g>
<!-- Node11 -->
<g id="Node000011" class="node">
<title>Node11</title>
<g id="a_Node000011"><a xlink:href="../../d0/d29/main_8c.html" target="_top" xlink:title="Main file.">
<polygon fill="white" stroke="#666666" points="674.38,-26.75 610.38,-26.75 610.38,0 674.38,0 674.38,-26.75"/>
<text text-anchor="middle" x="642.38" y="-7.55" font-family="Helvetica,sans-Serif" font-size="16.00">main.c</text>
</a>
</g>
</g>
<!-- Node8&#45;&gt;Node11 -->
<g id="edge15_Node000008_Node000011" class="edge">
<title>Node8&#45;&gt;Node11</title>
<g id="a_edge15_Node000008_Node000011"><a xlink:title=" ">
<path fill="none" stroke="#63b8ff" stroke-width="2" d="M530.26,-57.76C555.72,-47.91 587,-35.8 610.04,-26.89"/>
<polygon fill="#63b8ff" stroke="#63b8ff" stroke-width="2" points="528.35,-54.52 520.29,-61.39 530.88,-61.05 528.35,-54.52"/>
</a>
</g>
</g>
</g>
</svg>
