<?xml version="1.0" encoding="UTF-8" standalone="no"?>
<!DOCTYPE svg PUBLIC "-//W3C//DTD SVG 1.1//EN"
 "http://www.w3.org/Graphics/SVG/1.1/DTD/svg11.dtd">
<!-- Generated by graphviz version 8.0.5 (0)
 -->
<!-- Title: car.h Pages: 1 -->
<svg width="835pt" height="160pt"
 viewBox="0.00 0.00 835.12 160.25" xmlns="http://www.w3.org/2000/svg" xmlns:xlink="http://www.w3.org/1999/xlink">
<g id="graph0" class="graph" transform="scale(1 1) rotate(0) translate(4 156.25)">
<title>car.h</title>
<!-- Node1 -->
<g id="Node000001" class="node">
<title>Node1</title>
<g id="a_Node000001"><a xlink:title="Interface for Car structure.">
<polygon fill="#999999" stroke="#666666" points="291.62,-152.25 240.38,-152.25 240.38,-125.5 291.62,-125.5 291.62,-152.25"/>
<text text-anchor="middle" x="266" y="-133.05" font-family="Helvetica,sans-Serif" font-size="16.00">car.h</text>
</a>
</g>
</g>
<!-- Node2 -->
<g id="Node000002" class="node">
<title>Node2</title>
<g id="a_Node000002"><a xlink:href="../../d5/df2/car_8c.html" target="_top" xlink:title="Implements function to operate on client.">
<polygon fill="white" stroke="#666666" points="382.25,-26.75 331.75,-26.75 331.75,0 382.25,0 382.25,-26.75"/>
<text text-anchor="middle" x="357" y="-7.55" font-family="Helvetica,sans-Serif" font-size="16.00">car.c</text>
</a>
</g>
</g>
<!-- Node1&#45;&gt;Node2 -->
<g id="edge1_Node000001_Node000002" class="edge">
<title>Node1&#45;&gt;Node2</title>
<g id="a_edge1_Node000001_Node000002"><a xlink:title=" ">
<path fill="none" stroke="#63b8ff" stroke-width="2" d="M283.04,-114.75C302.09,-88.89 332.27,-47.93 347.52,-27.24"/>
<polygon fill="#63b8ff" stroke="#63b8ff" stroke-width="2" points="279.51,-113 276.4,-123.12 285.15,-117.15 279.51,-113"/>
</a>
</g>
</g>
<!-- Node3 -->
<g id="Node000003" class="node">
<title>Node3</title>
<g id="a_Node000003"><a xlink:href="../../dc/dc6/carsmenu_8c.html" target="_top" xlink:title="Cars menu implementation.">
<polygon fill="white" stroke="#666666" points="100,-26.75 0,-26.75 0,0 100,0 100,-26.75"/>
<text text-anchor="middle" x="50" y="-7.55" font-family="Helvetica,sans-Serif" font-size="16.00">carsmenu.c</text>
</a>
</g>
</g>
<!-- Node1&#45;&gt;Node3 -->
<g id="edge2_Node000001_Node000003" class="edge">
<title>Node1&#45;&gt;Node3</title>
<g id="a_edge2_Node000001_Node000003"><a xlink:title=" ">
<path fill="none" stroke="#63b8ff" stroke-width="2" d="M227.68,-131.61C195.55,-125.01 149.52,-112.3 115,-89.5 89.82,-72.86 68.69,-43.87 57.84,-27.18"/>
<polygon fill="#63b8ff" stroke="#63b8ff" stroke-width="2" points="227.62,-135.54 238.1,-134 228.95,-128.67 227.62,-135.54"/>
</a>
</g>
</g>
<!-- Node4 -->
<g id="Node000004" class="node">
<title>Node4</title>
<g id="a_Node000004"><a xlink:href="../../d6/ddc/carsmenu_8h.html" target="_top" xlink:title="Cars menu interface.">
<polygon fill="white" stroke="#666666" points="224.38,-89.5 123.62,-89.5 123.62,-62.75 224.38,-62.75 224.38,-89.5"/>
<text text-anchor="middle" x="174" y="-70.3" font-family="Helvetica,sans-Serif" font-size="16.00">carsmenu.h</text>
</a>
</g>
</g>
<!-- Node1&#45;&gt;Node4 -->
<g id="edge3_Node000001_Node000004" class="edge">
<title>Node1&#45;&gt;Node4</title>
<g id="a_edge3_Node000001_Node000004"><a xlink:title=" ">
<path fill="none" stroke="#63b8ff" stroke-width="2" d="M236.27,-118.24C222.2,-108.95 205.79,-98.12 193.35,-89.91"/>
<polygon fill="#63b8ff" stroke="#63b8ff" stroke-width="2" points="234.66,-121.7 244.94,-124.29 238.52,-115.86 234.66,-121.7"/>
</a>
</g>
</g>
<!-- Node5 -->
<g id="Node000005" class="node">
<title>Node5</title>
<g id="a_Node000005"><a xlink:href="../../d3/df4/dbhandle_8c.html" target="_top" xlink:title="Database handling.">
<polygon fill="white" stroke="#666666" points="313.75,-26.75 218.25,-26.75 218.25,0 313.75,0 313.75,-26.75"/>
<text text-anchor="middle" x="266" y="-7.55" font-family="Helvetica,sans-Serif" font-size="16.00">dbhandle.c</text>
</a>
</g>
</g>
<!-- Node1&#45;&gt;Node5 -->
<g id="edge7_Node000001_Node000005" class="edge">
<title>Node1&#45;&gt;Node5</title>
<g id="a_edge7_Node000001_Node000005"><a xlink:title=" ">
<path fill="none" stroke="#63b8ff" stroke-width="2" d="M266,-112.27C266,-86.34 266,-47.28 266,-27.24"/>
<polygon fill="#63b8ff" stroke="#63b8ff" stroke-width="2" points="262.5,-112.12 266,-122.12 269.5,-112.12 262.5,-112.12"/>
</a>
</g>
</g>
<!-- Node7 -->
<g id="Node000007" class="node">
<title>Node7</title>
<g id="a_Node000007"><a xlink:href="../../db/d9d/dbhandle_8h.html" target="_top" xlink:title="Database operations interface.">
<polygon fill="white" stroke="#666666" points="468.12,-89.5 371.88,-89.5 371.88,-62.75 468.12,-62.75 468.12,-89.5"/>
<text text-anchor="middle" x="420" y="-70.3" font-family="Helvetica,sans-Serif" font-size="16.00">dbhandle.h</text>
</a>
</g>
</g>
<!-- Node1&#45;&gt;Node7 -->
<g id="edge8_Node000001_Node000007" class="edge">
<title>Node1&#45;&gt;Node7</title>
<g id="a_edge8_Node000001_Node000007"><a xlink:title=" ">
<path fill="none" stroke="#63b8ff" stroke-width="2" d="M304.02,-122.88C329.68,-112.75 363.19,-99.54 387.59,-89.91"/>
<polygon fill="#63b8ff" stroke="#63b8ff" stroke-width="2" points="302.14,-119.64 294.12,-126.57 304.71,-126.16 302.14,-119.64"/>
</a>
</g>
</g>
<!-- Node4&#45;&gt;Node3 -->
<g id="edge4_Node000004_Node000003" class="edge">
<title>Node4&#45;&gt;Node3</title>
<g id="a_edge4_Node000004_Node000003"><a xlink:title=" ">
<path fill="none" stroke="#63b8ff" stroke-width="2" d="M136.42,-56.71C116.88,-47.14 93.48,-35.68 75.96,-27.09"/>
<polygon fill="#63b8ff" stroke="#63b8ff" stroke-width="2" points="135.49,-60.13 146.01,-61.39 138.57,-53.85 135.49,-60.13"/>
</a>
</g>
</g>
<!-- Node4&#45;&gt;Node5 -->
<g id="edge5_Node000004_Node000005" class="edge">
<title>Node4&#45;&gt;Node5</title>
<g id="a_edge5_Node000004_Node000005"><a xlink:title=" ">
<path fill="none" stroke="#63b8ff" stroke-width="2" d="M203.73,-55.49C217.8,-46.2 234.21,-35.37 246.65,-27.16"/>
<polygon fill="#63b8ff" stroke="#63b8ff" stroke-width="2" points="201.48,-53.11 195.06,-61.54 205.34,-58.95 201.48,-53.11"/>
</a>
</g>
</g>
<!-- Node6 -->
<g id="Node000006" class="node">
<title>Node6</title>
<g id="a_Node000006"><a xlink:href="../../de/dc9/mmenu_8c.html" target="_top" xlink:title="Menu implementation.">
<polygon fill="white" stroke="#666666" points="200.38,-26.75 117.62,-26.75 117.62,0 200.38,0 200.38,-26.75"/>
<text text-anchor="middle" x="159" y="-7.55" font-family="Helvetica,sans-Serif" font-size="16.00">mmenu.c</text>
</a>
</g>
</g>
<!-- Node4&#45;&gt;Node6 -->
<g id="edge6_Node000004_Node000006" class="edge">
<title>Node4&#45;&gt;Node6</title>
<g id="a_edge6_Node000004_Node000006"><a xlink:title=" ">
<path fill="none" stroke="#63b8ff" stroke-width="2" d="M167.8,-50.03C165.84,-42.07 163.75,-33.62 162.1,-26.95"/>
<polygon fill="#63b8ff" stroke="#63b8ff" stroke-width="2" points="165.1,-51.67 170.89,-60.54 171.89,-49.99 165.1,-51.67"/>
</a>
</g>
</g>
<!-- Node7&#45;&gt;Node2 -->
<g id="edge9_Node000007_Node000002" class="edge">
<title>Node7&#45;&gt;Node2</title>
<g id="a_edge9_Node000007_Node000002"><a xlink:title=" ">
<path fill="none" stroke="#63b8ff" stroke-width="2" d="M397.84,-53.76C388.55,-44.8 378.06,-34.68 370.04,-26.95"/>
<polygon fill="#63b8ff" stroke="#63b8ff" stroke-width="2" points="395.32,-56.12 404.95,-60.54 400.18,-51.08 395.32,-56.12"/>
</a>
</g>
</g>
<!-- Node7&#45;&gt;Node3 -->
<g id="edge10_Node000007_Node000003" class="edge">
<title>Node7&#45;&gt;Node3</title>
<g id="a_edge10_Node000007_Node000003"><a xlink:title=" ">
<path fill="none" stroke="#63b8ff" stroke-width="2" d="M358.56,-66.54C295.71,-57.53 195.32,-42.5 109,-26.75 106.22,-26.24 103.37,-25.7 100.5,-25.15"/>
<polygon fill="#63b8ff" stroke="#63b8ff" stroke-width="2" points="358.99,-70.42 369.39,-68.37 359.98,-63.49 358.99,-70.42"/>
</a>
</g>
</g>
<!-- Node7&#45;&gt;Node5 -->
<g id="edge13_Node000007_Node000005" class="edge">
<title>Node7&#45;&gt;Node5</title>
<g id="a_edge13_Node000007_Node000005"><a xlink:title=" ">
<path fill="none" stroke="#63b8ff" stroke-width="2" d="M375.76,-57.67C351.11,-47.95 320.97,-36.06 298.51,-27.2"/>
<polygon fill="#63b8ff" stroke="#63b8ff" stroke-width="2" points="375.13,-60.98 385.72,-61.39 377.7,-54.46 375.13,-60.98"/>
</a>
</g>
</g>
<!-- Node8 -->
<g id="Node000008" class="node">
<title>Node8</title>
<g id="a_Node000008"><a xlink:href="../../dd/d93/client_8c.html" target="_top" xlink:title="Implements function to operate on client.">
<polygon fill="white" stroke="#666666" points="467.5,-26.75 400.5,-26.75 400.5,0 467.5,0 467.5,-26.75"/>
<text text-anchor="middle" x="434" y="-7.55" font-family="Helvetica,sans-Serif" font-size="16.00">client.c</text>
</a>
</g>
</g>
<!-- Node7&#45;&gt;Node8 -->
<g id="edge11_Node000007_Node000008" class="edge">
<title>Node7&#45;&gt;Node8</title>
<g id="a_edge11_Node000007_Node000008"><a xlink:title=" ">
<path fill="none" stroke="#63b8ff" stroke-width="2" d="M425.78,-50.03C427.62,-42.07 429.56,-33.62 431.1,-26.95"/>
<polygon fill="#63b8ff" stroke="#63b8ff" stroke-width="2" points="421.74,-50.01 422.9,-60.54 428.56,-51.58 421.74,-50.01"/>
</a>
</g>
</g>
<!-- Node9 -->
<g id="Node000009" class="node">
<title>Node9</title>
<g id="a_Node000009"><a xlink:href="../../da/de9/clientsmenu_8c.html" target="_top" xlink:title="Clients menu implementation.">
<polygon fill="white" stroke="#666666" points="600.88,-26.75 485.12,-26.75 485.12,0 600.88,0 600.88,-26.75"/>
<text text-anchor="middle" x="543" y="-7.55" font-family="Helvetica,sans-Serif" font-size="16.00">clientsmenu.c</text>
</a>
</g>
</g>
<!-- Node7&#45;&gt;Node9 -->
<g id="edge12_Node000007_Node000009" class="edge">
<title>Node7&#45;&gt;Node9</title>
<g id="a_edge12_Node000007_Node000009"><a xlink:title=" ">
<path fill="none" stroke="#63b8ff" stroke-width="2" d="M457.28,-56.71C476.66,-47.14 499.87,-35.68 517.25,-27.09"/>
<polygon fill="#63b8ff" stroke="#63b8ff" stroke-width="2" points="455.2,-53.82 447.78,-61.39 458.3,-60.1 455.2,-53.82"/>
</a>
</g>
</g>
<!-- Node10 -->
<g id="Node000010" class="node">
<title>Node10</title>
<g id="a_Node000010"><a xlink:href="../../d0/d29/main_8c.html" target="_top" xlink:title="Main file.">
<polygon fill="white" stroke="#666666" points="683,-26.75 619,-26.75 619,0 683,0 683,-26.75"/>
<text text-anchor="middle" x="651" y="-7.55" font-family="Helvetica,sans-Serif" font-size="16.00">main.c</text>
</a>
</g>
</g>
<!-- Node7&#45;&gt;Node10 -->
<g id="edge14_Node000007_Node000010" class="edge">
<title>Node7&#45;&gt;Node10</title>
<g id="a_edge14_Node000007_Node000010"><a xlink:title=" ">
<path fill="none" stroke="#63b8ff" stroke-width="2" d="M480.79,-60.37C518.17,-51.12 566.98,-38.71 610,-26.75 612.87,-25.95 615.84,-25.1 618.81,-24.24"/>
<polygon fill="#63b8ff" stroke="#63b8ff" stroke-width="2" points="479.44,-57.59 470.57,-63.38 481.12,-64.38 479.44,-57.59"/>
</a>
</g>
</g>
<!-- Node11 -->
<g id="Node000011" class="node">
<title>Node11</title>
<g id="a_Node000011"><a xlink:href="../../d2/da6/testDbHandle_8c_source.html" target="_top" xlink:title=" ">
<polygon fill="white" stroke="#666666" points="827.12,-26.75 700.88,-26.75 700.88,0 827.12,0 827.12,-26.75"/>
<text text-anchor="middle" x="764" y="-7.55" font-family="Helvetica,sans-Serif" font-size="16.00">testDbHandle.c</text>
</a>
</g>
</g>
<!-- Node7&#45;&gt;Node11 -->
<g id="edge15_Node000007_Node000011" class="edge">
<title>Node7&#45;&gt;Node11</title>
<g id="a_edge15_Node000007_Node000011"><a xlink:title=" ">
<path fill="none" stroke="#63b8ff" stroke-width="2" d="M481.21,-64.32C542.97,-53.41 637.92,-36.64 700.49,-25.59"/>
<polygon fill="#63b8ff" stroke="#63b8ff" stroke-width="2" points="479.8,-61.36 470.56,-66.55 481.01,-68.26 479.8,-61.36"/>
</a>
</g>
</g>
</g>
</svg>
