<?xml version="1.0" encoding="UTF-8" standalone="no"?>
<!DOCTYPE svg PUBLIC "-//W3C//DTD SVG 1.1//EN"
 "http://www.w3.org/Graphics/SVG/1.1/DTD/svg11.dtd">
<!-- Generated by graphviz version 8.0.5 (0)
 -->
<!-- Title: clientsmenu.h Pages: 1 -->
<svg width="125pt" height="223pt"
 viewBox="0.00 0.00 124.50 223.00" xmlns="http://www.w3.org/2000/svg" xmlns:xlink="http://www.w3.org/1999/xlink">
<g id="graph0" class="graph" transform="scale(1 1) rotate(0) translate(4 219)">
<title>clientsmenu.h</title>
<!-- Node1 -->
<g id="Node000001" class="node">
<title>Node1</title>
<g id="a_Node000001"><a xlink:title="Clients menu interface.">
<polygon fill="#999999" stroke="#666666" points="116.5,-215 0,-215 0,-188.25 116.5,-188.25 116.5,-215"/>
<text text-anchor="middle" x="58.25" y="-195.8" font-family="Helvetica,sans-Serif" font-size="16.00">clientsmenu.h</text>
</a>
</g>
</g>
<!-- Node2 -->
<g id="Node000002" class="node">
<title>Node2</title>
<g id="a_Node000002"><a xlink:href="../../d8/de1/client_8h.html" target="_top" xlink:title="Interface for Client structure.">
<polygon fill="white" stroke="#666666" points="92.12,-152.25 24.38,-152.25 24.38,-125.5 92.12,-125.5 92.12,-152.25"/>
<text text-anchor="middle" x="58.25" y="-133.05" font-family="Helvetica,sans-Serif" font-size="16.00">client.h</text>
</a>
</g>
</g>
<!-- Node1&#45;&gt;Node2 -->
<g id="edge1_Node000001_Node000002" class="edge">
<title>Node1&#45;&gt;Node2</title>
<g id="a_edge1_Node000001_Node000002"><a xlink:title=" ">
<path fill="none" stroke="#63b8ff" stroke-width="2" d="M58.25,-188.04C58.25,-181.44 58.25,-173.11 58.25,-165.25"/>
<polygon fill="#63b8ff" stroke="#63b8ff" stroke-width="2" points="61.75,-165.45 58.25,-155.45 54.75,-165.45 61.75,-165.45"/>
</a>
</g>
</g>
<!-- Node3 -->
<g id="Node000003" class="node">
<title>Node3</title>
<g id="a_Node000003"><a xlink:href="../../da/d23/list_8h.html" target="_top" xlink:title="Doubly linked list interface.">
<polygon fill="white" stroke="#666666" points="57.12,-89.5 7.38,-89.5 7.38,-62.75 57.12,-62.75 57.12,-89.5"/>
<text text-anchor="middle" x="32.25" y="-70.3" font-family="Helvetica,sans-Serif" font-size="16.00">list.h</text>
</a>
</g>
</g>
<!-- Node2&#45;&gt;Node3 -->
<g id="edge2_Node000002_Node000003" class="edge">
<title>Node2&#45;&gt;Node3</title>
<g id="a_edge2_Node000002_Node000003"><a xlink:title=" ">
<path fill="none" stroke="#63b8ff" stroke-width="2" d="M52.86,-125.29C49.93,-118.45 46.21,-109.74 42.74,-101.62"/>
<polygon fill="#63b8ff" stroke="#63b8ff" stroke-width="2" points="45.78,-99.51 38.63,-91.7 39.35,-102.27 45.78,-99.51"/>
</a>
</g>
</g>
<!-- Node4 -->
<g id="Node000004" class="node">
<title>Node4</title>
<g id="a_Node000004"><a xlink:title=" ">
<polygon fill="#e0e0e0" stroke="#999999" points="99.25,-26.75 17.25,-26.75 17.25,0 99.25,0 99.25,-26.75"/>
<text text-anchor="middle" x="58.25" y="-7.55" font-family="Helvetica,sans-Serif" font-size="16.00">stdbool.h</text>
</a>
</g>
</g>
<!-- Node2&#45;&gt;Node4 -->
<g id="edge4_Node000002_Node000004" class="edge">
<title>Node2&#45;&gt;Node4</title>
<g id="a_edge4_Node000002_Node000004"><a xlink:title=" ">
<path fill="none" stroke="#63b8ff" stroke-width="2" d="M60.93,-125.21C62.84,-115.5 65.25,-101.72 66.25,-89.5 67.22,-77.65 67.22,-74.6 66.25,-62.75 65.63,-55.21 64.48,-47.07 63.24,-39.67"/>
<polygon fill="#63b8ff" stroke="#63b8ff" stroke-width="2" points="66.17,-38.24 60.93,-29.04 59.28,-39.5 66.17,-38.24"/>
</a>
</g>
</g>
<!-- Node3&#45;&gt;Node4 -->
<g id="edge3_Node000003_Node000004" class="edge">
<title>Node3&#45;&gt;Node4</title>
<g id="a_edge3_Node000003_Node000004"><a xlink:title=" ">
<path fill="none" stroke="#63b8ff" stroke-width="2" d="M37.64,-62.54C40.57,-55.7 44.29,-46.99 47.76,-38.87"/>
<polygon fill="#63b8ff" stroke="#63b8ff" stroke-width="2" points="51.15,-39.52 51.87,-28.95 44.72,-36.76 51.15,-39.52"/>
</a>
</g>
</g>
</g>
</svg>
