<?xml version="1.0" encoding="UTF-8" standalone="no"?>
<!DOCTYPE svg PUBLIC "-//W3C//DTD SVG 1.1//EN"
 "http://www.w3.org/Graphics/SVG/1.1/DTD/svg11.dtd">
<!-- Generated by graphviz version 8.0.5 (0)
 -->
<!-- Title: mainMenuSelection Pages: 1 -->
<svg width="576pt" height="150pt"
 viewBox="0.00 0.00 576.00 149.75" xmlns="http://www.w3.org/2000/svg" xmlns:xlink="http://www.w3.org/1999/xlink">
<g id="graph0" class="graph" transform="scale(1 1) rotate(0) translate(4 145.75)">
<title>mainMenuSelection</title>
<!-- Node1 -->
<g id="Node000001" class="node">
<title>Node1</title>
<g id="a_Node000001"><a xlink:title="Handles main menu.">
<polygon fill="#999999" stroke="#666666" points="568,-77.75 409.5,-77.75 409.5,-51 568,-51 568,-77.75"/>
<text text-anchor="middle" x="488.75" y="-58.55" font-family="Helvetica,sans-Serif" font-size="16.00">mainMenuSelection</text>
</a>
</g>
</g>
<!-- Node2 -->
<g id="Node000002" class="node">
<title>Node2</title>
<g id="a_Node000002"><a xlink:href="../../de/dc9/mmenu_8c.html#a29c2128f12316ca1ce77fd1d686f6ec7" target="_top" xlink:title="Invokes menu.">
<polygon fill="white" stroke="#666666" points="373.5,-77.75 281.75,-77.75 281.75,-51 373.5,-51 373.5,-77.75"/>
<text text-anchor="middle" x="327.62" y="-58.55" font-family="Helvetica,sans-Serif" font-size="16.00">mainMenu</text>
</a>
</g>
</g>
<!-- Node1&#45;&gt;Node2 -->
<g id="edge1_Node000001_Node000002" class="edge">
<title>Node1&#45;&gt;Node2</title>
<g id="a_edge1_Node000001_Node000002"><a xlink:title=" ">
<path fill="none" stroke="#63b8ff" stroke-width="2" d="M396.16,-64.38C388.51,-64.38 381.02,-64.38 373.97,-64.38"/>
<polygon fill="#63b8ff" stroke="#63b8ff" stroke-width="2" points="396.12,-67.88 406.12,-64.38 396.12,-60.88 396.12,-67.88"/>
</a>
</g>
</g>
<!-- Node3 -->
<g id="Node000003" class="node">
<title>Node3</title>
<g id="a_Node000003"><a xlink:href="../../d0/d29/main_8c.html#ae66f6b31b5ad750f1fe042a706a4e3d4" target="_top" xlink:title="main.">
<polygon fill="white" stroke="#666666" points="219.12,-76.75 167.88,-76.75 167.88,-50 219.12,-50 219.12,-76.75"/>
<text text-anchor="middle" x="193.5" y="-57.55" font-family="Helvetica,sans-Serif" font-size="16.00">main</text>
</a>
</g>
</g>
<!-- Node2&#45;&gt;Node3 -->
<g id="edge2_Node000002_Node000003" class="edge">
<title>Node2&#45;&gt;Node3</title>
<g id="a_edge2_Node000002_Node000003"><a xlink:title=" ">
<path fill="none" stroke="#63b8ff" stroke-width="2" d="M268.56,-63.94C251.31,-63.8 233.32,-63.67 219.39,-63.56"/>
<polygon fill="#63b8ff" stroke="#63b8ff" stroke-width="2" points="268.5,-67.46 278.52,-64.03 268.55,-60.46 268.5,-67.46"/>
</a>
</g>
</g>
<!-- Node4 -->
<g id="Node000004" class="node">
<title>Node4</title>
<g id="a_Node000004"><a xlink:href="../../d7/dba/menuutil_8c.html#a949419e66b27ac75475821fb7aba527d" target="_top" xlink:title="Handle all operation and functions for menu.">
<polygon fill="white" stroke="#666666" points="245.75,-121.75 141.25,-121.75 141.25,-95 245.75,-95 245.75,-121.75"/>
<text text-anchor="middle" x="193.5" y="-102.55" font-family="Helvetica,sans-Serif" font-size="16.00">menuInvoke</text>
</a>
</g>
</g>
<!-- Node2&#45;&gt;Node4 -->
<g id="edge3_Node000002_Node000004" class="edge">
<title>Node2&#45;&gt;Node4</title>
<g id="a_edge3_Node000002_Node000004"><a xlink:title=" ">
<path fill="none" stroke="#63b8ff" stroke-width="2" d="M273.04,-82.22C260.62,-86.36 247.59,-90.69 235.8,-94.62"/>
<polygon fill="#63b8ff" stroke="#63b8ff" stroke-width="2" points="274.8,-84.66 283.18,-78.18 272.59,-78.02 274.8,-84.66"/>
</a>
</g>
</g>
<!-- Node4&#45;&gt;Node1 -->
<g id="edge8_Node000004_Node000001" class="edge">
<title>Node4&#45;&gt;Node1</title>
<g id="a_edge8_Node000004_Node000001"><a xlink:title=" ">
<path fill="none" stroke="#63b8ff" stroke-width="2" d="M258.6,-101.57C292.78,-97.66 335.52,-92.36 373.5,-86.38 388.56,-84 404.68,-81.11 419.92,-78.22"/>
<polygon fill="#63b8ff" stroke="#63b8ff" stroke-width="2" points="258.49,-98.39 248.94,-102.99 259.27,-105.35 258.49,-98.39"/>
</a>
</g>
</g>
<!-- Node5 -->
<g id="Node000005" class="node">
<title>Node5</title>
<g id="a_Node000005"><a xlink:href="../../dc/dc6/carsmenu_8c.html#a7adcbb9b8798811ec24e33760623ebc0" target="_top" xlink:title="Handles displaying of cars menu.">
<polygon fill="white" stroke="#666666" points="96.25,-141.75 9,-141.75 9,-115 96.25,-115 96.25,-141.75"/>
<text text-anchor="middle" x="52.62" y="-122.55" font-family="Helvetica,sans-Serif" font-size="16.00">carsMenu</text>
</a>
</g>
</g>
<!-- Node4&#45;&gt;Node5 -->
<g id="edge4_Node000004_Node000005" class="edge">
<title>Node4&#45;&gt;Node5</title>
<g id="a_edge4_Node000004_Node000005"><a xlink:title=" ">
<path fill="none" stroke="#63b8ff" stroke-width="2" d="M128.01,-117.66C117.41,-119.19 106.66,-120.74 96.75,-122.17"/>
<polygon fill="#63b8ff" stroke="#63b8ff" stroke-width="2" points="129.39,-120.71 138.79,-115.82 128.39,-113.78 129.39,-120.71"/>
</a>
</g>
</g>
<!-- Node6 -->
<g id="Node000006" class="node">
<title>Node6</title>
<g id="a_Node000006"><a xlink:href="../../da/de9/clientsmenu_8c.html#ad2a8354e045a2d4deb82f4b3b20ad5a4" target="_top" xlink:title="Handles displaying of clients menu.">
<polygon fill="white" stroke="#666666" points="104.12,-88.75 1.12,-88.75 1.12,-62 104.12,-62 104.12,-88.75"/>
<text text-anchor="middle" x="52.62" y="-69.55" font-family="Helvetica,sans-Serif" font-size="16.00">clientsMenu</text>
</a>
</g>
</g>
<!-- Node4&#45;&gt;Node6 -->
<g id="edge6_Node000004_Node000006" class="edge">
<title>Node4&#45;&gt;Node6</title>
<g id="a_edge6_Node000004_Node000006"><a xlink:title=" ">
<path fill="none" stroke="#63b8ff" stroke-width="2" d="M128.34,-93.13C120.33,-91.23 112.23,-89.3 104.46,-87.45"/>
<polygon fill="#63b8ff" stroke="#63b8ff" stroke-width="2" points="128.25,-97.18 138.79,-96.09 129.87,-90.37 128.25,-97.18"/>
</a>
</g>
</g>
<!-- Node7 -->
<g id="Node000007" class="node">
<title>Node7</title>
<g id="a_Node000007"><a xlink:href="../../d6/dc5/rentalsmenu_8c.html#a4cad208e714dfe28ce655b7853a3d5fd" target="_top" xlink:title="Handles Rentals Menu.">
<polygon fill="white" stroke="#666666" points="105.25,-26.75 0,-26.75 0,0 105.25,0 105.25,-26.75"/>
<text text-anchor="middle" x="52.62" y="-7.55" font-family="Helvetica,sans-Serif" font-size="16.00">rentalsMenu</text>
</a>
</g>
</g>
<!-- Node4&#45;&gt;Node7 -->
<g id="edge9_Node000004_Node000007" class="edge">
<title>Node4&#45;&gt;Node7</title>
<g id="a_edge9_Node000004_Node000007"><a xlink:title=" ">
<path fill="none" stroke="#63b8ff" stroke-width="2" d="M146.49,-88.58C144.7,-87.54 142.94,-86.47 141.25,-85.38 123.28,-73.75 121.72,-67.05 105.25,-53.38 94.43,-44.39 81.98,-34.73 72.02,-27.15"/>
<polygon fill="#63b8ff" stroke="#63b8ff" stroke-width="2" points="145.35,-91.99 155.83,-93.56 148.62,-85.8 145.35,-91.99"/>
</a>
</g>
</g>
<!-- Node5&#45;&gt;Node1 -->
<g id="edge5_Node000005_Node000001" class="edge">
<title>Node5&#45;&gt;Node1</title>
<g id="a_edge5_Node000005_Node000001"><a xlink:title=" ">
<path fill="none" stroke="#63b8ff" stroke-width="2" d="M109.13,-129.83C119.79,-130.06 130.87,-130.26 141.25,-130.38 187.69,-130.9 199.51,-134.68 245.75,-130.38 303.27,-125.02 317.81,-121.73 373.5,-106.38 401.41,-98.68 432.17,-87.19 454.73,-78.18"/>
<polygon fill="#63b8ff" stroke="#63b8ff" stroke-width="2" points="109.48,-126.27 99.41,-129.55 109.33,-133.27 109.48,-126.27"/>
</a>
</g>
</g>
<!-- Node6&#45;&gt;Node1 -->
<g id="edge7_Node000006_Node000001" class="edge">
<title>Node6&#45;&gt;Node1</title>
<g id="a_edge7_Node000006_Node000001"><a xlink:title=" ">
<path fill="none" stroke="#63b8ff" stroke-width="2" d="M93.03,-56.51C107.8,-50.41 124.96,-44.42 141.25,-41.38 242.71,-22.38 270.78,-32.17 373.5,-42.38 390.99,-44.11 409.78,-47.21 426.98,-50.54"/>
<polygon fill="#63b8ff" stroke="#63b8ff" stroke-width="2" points="91.04,-53.43 83.26,-60.61 93.82,-59.85 91.04,-53.43"/>
</a>
</g>
</g>
<!-- Node7&#45;&gt;Node1 -->
<g id="edge10_Node000007_Node000001" class="edge">
<title>Node7&#45;&gt;Node1</title>
<g id="a_edge10_Node000007_Node000001"><a xlink:title=" ">
<path fill="none" stroke="#63b8ff" stroke-width="2" d="M118.49,-11.54C183.5,-10.84 286.19,-12.84 373.5,-28.38 400.42,-33.16 429.83,-42.53 452.07,-50.51"/>
<polygon fill="#63b8ff" stroke="#63b8ff" stroke-width="2" points="118.55,-8.08 108.6,-11.72 118.65,-15.08 118.55,-8.08"/>
</a>
</g>
</g>
</g>
</svg>
