<?xml version="1.0" encoding="UTF-8" standalone="no"?>
<!DOCTYPE svg PUBLIC "-//W3C//DTD SVG 1.1//EN"
 "http://www.w3.org/Graphics/SVG/1.1/DTD/svg11.dtd">
<!-- Generated by graphviz version 8.0.5 (0)
 -->
<!-- Title: mainMenuSelection Pages: 1 -->
<svg width="732pt" height="416pt"
 viewBox="0.00 0.00 732.00 415.99" xmlns="http://www.w3.org/2000/svg" xmlns:xlink="http://www.w3.org/1999/xlink">
<g id="graph0" class="graph" transform="scale(1 1) rotate(0) translate(4 411.99)">
<title>mainMenuSelection</title>
<!-- Node1 -->
<g id="Node000001" class="node">
<title>Node1</title>
<g id="a_Node000001"><a xlink:title="Handles main menu.">
<polygon fill="#999999" stroke="#666666" points="158.5,-186.99 0,-186.99 0,-160.24 158.5,-160.24 158.5,-186.99"/>
<text text-anchor="middle" x="79.25" y="-167.79" font-family="Helvetica,sans-Serif" font-size="16.00">mainMenuSelection</text>
</a>
</g>
</g>
<!-- Node2 -->
<g id="Node000002" class="node">
<title>Node2</title>
<g id="a_Node000002"><a xlink:href="../../dc/dc6/carsmenu_8c.html#a7adcbb9b8798811ec24e33760623ebc0" target="_top" xlink:title="Handles displaying of cars menu.">
<polygon fill="white" stroke="#666666" points="290.75,-294.99 203.5,-294.99 203.5,-268.24 290.75,-268.24 290.75,-294.99"/>
<text text-anchor="middle" x="247.12" y="-275.79" font-family="Helvetica,sans-Serif" font-size="16.00">carsMenu</text>
</a>
</g>
</g>
<!-- Node1&#45;&gt;Node2 -->
<g id="edge1_Node000001_Node000002" class="edge">
<title>Node1&#45;&gt;Node2</title>
<g id="a_edge1_Node000001_Node000002"><a xlink:title=" ">
<path fill="none" stroke="#63b8ff" stroke-width="2" d="M101.26,-187.3C129.85,-205.91 181.24,-239.37 214.5,-261.03"/>
<polygon fill="#63b8ff" stroke="#63b8ff" stroke-width="2" points="212.74,-264.36 223.03,-266.88 216.56,-258.49 212.74,-264.36"/>
</a>
</g>
</g>
<!-- Node46 -->
<g id="Node000046" class="node">
<title>Node46</title>
<g id="a_Node000046"><a xlink:href="../../d7/dba/menuutil_8c.html#a949419e66b27ac75475821fb7aba527d" target="_top" xlink:title="Handle all operation and functions for menu.">
<polygon fill="white" stroke="#666666" points="477,-227.99 372.5,-227.99 372.5,-201.24 477,-201.24 477,-227.99"/>
<text text-anchor="middle" x="424.75" y="-208.79" font-family="Helvetica,sans-Serif" font-size="16.00">menuInvoke</text>
</a>
</g>
</g>
<!-- Node1&#45;&gt;Node46 -->
<g id="edge25_Node000001_Node000046" class="edge">
<title>Node1&#45;&gt;Node46</title>
<g id="a_edge25_Node000001_Node000046"><a xlink:title=" ">
<path fill="none" stroke="#63b8ff" stroke-width="2" d="M158.91,-178.72C200.82,-181.87 253.2,-186.49 299.75,-192.62 319.22,-195.18 340.29,-198.66 359.44,-202.08"/>
<polygon fill="#63b8ff" stroke="#63b8ff" stroke-width="2" points="359.56,-206.03 370.02,-204.38 360.81,-199.14 359.56,-206.03"/>
</a>
</g>
</g>
<!-- Node50 -->
<g id="Node000050" class="node">
<title>Node50</title>
<g id="a_Node000050"><a xlink:href="../../da/de9/clientsmenu_8c.html#ad2a8354e045a2d4deb82f4b3b20ad5a4" target="_top" xlink:title="Handles displaying of clients menu.">
<polygon fill="white" stroke="#666666" points="298.62,-141.99 195.62,-141.99 195.62,-115.24 298.62,-115.24 298.62,-141.99"/>
<text text-anchor="middle" x="247.12" y="-122.79" font-family="Helvetica,sans-Serif" font-size="16.00">clientsMenu</text>
</a>
</g>
</g>
<!-- Node1&#45;&gt;Node50 -->
<g id="edge19_Node000001_Node000050" class="edge">
<title>Node1&#45;&gt;Node50</title>
<g id="a_edge19_Node000001_Node000050"><a xlink:title=" ">
<path fill="none" stroke="#63b8ff" stroke-width="2" d="M131.37,-159.75C147.69,-155.32 165.94,-150.37 183,-145.74"/>
<polygon fill="#63b8ff" stroke="#63b8ff" stroke-width="2" points="184.44,-148.44 193.17,-142.44 182.6,-141.68 184.44,-148.44"/>
</a>
</g>
</g>
<!-- Node71 -->
<g id="Node000071" class="node">
<title>Node71</title>
<g id="a_Node000071"><a xlink:href="../../d6/dc5/rentalsmenu_8c.html#a4cad208e714dfe28ce655b7853a3d5fd" target="_top" xlink:title="Handles Rentals Menu.">
<polygon fill="white" stroke="#666666" points="299.75,-227.99 194.5,-227.99 194.5,-201.24 299.75,-201.24 299.75,-227.99"/>
<text text-anchor="middle" x="247.12" y="-208.79" font-family="Helvetica,sans-Serif" font-size="16.00">rentalsMenu</text>
</a>
</g>
</g>
<!-- Node1&#45;&gt;Node71 -->
<g id="edge26_Node000001_Node000071" class="edge">
<title>Node1&#45;&gt;Node71</title>
<g id="a_edge26_Node000001_Node000071"><a xlink:title=" ">
<path fill="none" stroke="#63b8ff" stroke-width="2" d="M135.95,-187.39C150.65,-191.02 166.64,-194.97 181.77,-198.71"/>
<polygon fill="#63b8ff" stroke="#63b8ff" stroke-width="2" points="181.67,-202.79 192.22,-201.79 183.35,-195.99 181.67,-202.79"/>
</a>
</g>
</g>
<!-- Node3 -->
<g id="Node000003" class="node">
<title>Node3</title>
<g id="a_Node000003"><a xlink:href="../../dc/dc6/carsmenu_8c.html#a920be2aa6ca8626fdd965865d26f3fd4" target="_top" xlink:title="Function for adding a car.">
<polygon fill="#fff0f0" stroke="red" points="459,-272.99 390.5,-272.99 390.5,-246.24 459,-246.24 459,-272.99"/>
<text text-anchor="middle" x="424.75" y="-253.79" font-family="Helvetica,sans-Serif" font-size="16.00">addCar</text>
</a>
</g>
</g>
<!-- Node2&#45;&gt;Node3 -->
<g id="edge2_Node000002_Node000003" class="edge">
<title>Node2&#45;&gt;Node3</title>
<g id="a_edge2_Node000002_Node000003"><a xlink:title=" ">
<path fill="none" stroke="#63b8ff" stroke-width="2" d="M291.09,-276.24C317.27,-272.96 350.72,-268.77 377.48,-265.41"/>
<polygon fill="#63b8ff" stroke="#63b8ff" stroke-width="2" points="377.53,-268.56 387.02,-263.84 376.66,-261.61 377.53,-268.56"/>
</a>
</g>
</g>
<!-- Node19 -->
<g id="Node000019" class="node">
<title>Node19</title>
<g id="a_Node000019"><a xlink:href="../../dc/dc6/carsmenu_8c.html#a04e2543edc445ed8a4cbd29b3466a07d" target="_top" xlink:title="Wrapper around carChoose frees extracted car instanntly.">
<polygon fill="#fff0f0" stroke="red" points="505.88,-407.99 343.62,-407.99 343.62,-381.24 505.88,-381.24 505.88,-407.99"/>
<text text-anchor="middle" x="424.75" y="-388.79" font-family="Helvetica,sans-Serif" font-size="16.00">carChooseNoReturn</text>
</a>
</g>
</g>
<!-- Node2&#45;&gt;Node19 -->
<g id="edge6_Node000002_Node000019" class="edge">
<title>Node2&#45;&gt;Node19</title>
<g id="a_edge6_Node000002_Node000019"><a xlink:title=" ">
<path fill="none" stroke="#63b8ff" stroke-width="2" d="M257.74,-295.48C272.29,-315.4 301.83,-351.87 335.75,-371.62 338.34,-373.13 341.03,-374.54 343.79,-375.86"/>
<polygon fill="#63b8ff" stroke="#63b8ff" stroke-width="2" points="342.89,-379.12 353.47,-379.79 345.62,-372.67 342.89,-379.12"/>
</a>
</g>
</g>
<!-- Node42 -->
<g id="Node000042" class="node">
<title>Node42</title>
<g id="a_Node000042"><a xlink:href="../../dc/dc6/carsmenu_8c.html#acf8ae724beca8714d7d114a7f2539895" target="_top" xlink:title="Edit car.">
<polygon fill="#fff0f0" stroke="red" points="457.88,-317.99 391.62,-317.99 391.62,-291.24 457.88,-291.24 457.88,-317.99"/>
<text text-anchor="middle" x="424.75" y="-298.79" font-family="Helvetica,sans-Serif" font-size="16.00">carEdit</text>
</a>
</g>
</g>
<!-- Node2&#45;&gt;Node42 -->
<g id="edge8_Node000002_Node000042" class="edge">
<title>Node2&#45;&gt;Node42</title>
<g id="a_edge8_Node000002_Node000042"><a xlink:title=" ">
<path fill="none" stroke="#63b8ff" stroke-width="2" d="M291.09,-287.24C317.62,-290.72 351.61,-295.17 378.55,-298.7"/>
<polygon fill="#63b8ff" stroke="#63b8ff" stroke-width="2" points="377.77,-302.52 388.14,-300.35 378.68,-295.58 377.77,-302.52"/>
</a>
</g>
</g>
<!-- Node44 -->
<g id="Node000044" class="node">
<title>Node44</title>
<g id="a_Node000044"><a xlink:href="../../dc/dc6/carsmenu_8c.html#a76be213354bbaa3d64a095bafa1ec8d2" target="_top" xlink:title="Removes a car.">
<polygon fill="#fff0f0" stroke="red" points="474,-362.99 375.5,-362.99 375.5,-336.24 474,-336.24 474,-362.99"/>
<text text-anchor="middle" x="424.75" y="-343.79" font-family="Helvetica,sans-Serif" font-size="16.00">carRemove</text>
</a>
</g>
</g>
<!-- Node2&#45;&gt;Node44 -->
<g id="edge11_Node000002_Node000044" class="edge">
<title>Node2&#45;&gt;Node44</title>
<g id="a_edge11_Node000002_Node000044"><a xlink:title=" ">
<path fill="none" stroke="#63b8ff" stroke-width="2" d="M271.65,-295.49C288.93,-305.23 313.23,-318.01 335.75,-326.62 344.37,-329.91 353.64,-332.9 362.81,-335.55"/>
<polygon fill="#63b8ff" stroke="#63b8ff" stroke-width="2" points="362.62,-339.68 373.19,-338.96 364.48,-332.93 362.62,-339.68"/>
</a>
</g>
</g>
<!-- Node2&#45;&gt;Node46 -->
<g id="edge13_Node000002_Node000046" class="edge">
<title>Node2&#45;&gt;Node46</title>
<g id="a_edge13_Node000002_Node000046"><a xlink:title=" ">
<path fill="none" stroke="#63b8ff" stroke-width="2" d="M272.06,-267.88C289.33,-258.4 313.45,-246.03 335.75,-237.62 343.5,-234.7 351.77,-232.01 360.02,-229.58"/>
<polygon fill="#63b8ff" stroke="#63b8ff" stroke-width="2" points="361.78,-232.16 370.46,-226.09 359.89,-225.42 361.78,-232.16"/>
</a>
</g>
</g>
<!-- Node4 -->
<g id="Node000004" class="node">
<title>Node4</title>
<g id="a_Node000004"><a xlink:href="../../dc/dc6/carsmenu_8c.html#a30a34923bcd0082000de90700343bd84" target="_top" xlink:title="Function for editing car.">
<polygon fill="#fff0f0" stroke="red" points="688.75,-317.99 585,-317.99 585,-291.24 688.75,-291.24 688.75,-317.99"/>
<text text-anchor="middle" x="636.88" y="-298.79" font-family="Helvetica,sans-Serif" font-size="16.00">carFormEdit</text>
</a>
</g>
</g>
<!-- Node3&#45;&gt;Node4 -->
<g id="edge3_Node000003_Node000004" class="edge">
<title>Node3&#45;&gt;Node4</title>
<g id="a_edge3_Node000003_Node000004"><a xlink:title=" ">
<path fill="none" stroke="#63b8ff" stroke-width="2" d="M459.04,-266.75C489.4,-273.25 535.08,-283.03 572.4,-291.02"/>
<polygon fill="#63b8ff" stroke="#63b8ff" stroke-width="2" points="572.19,-294.99 582.7,-293.66 573.66,-288.14 572.19,-294.99"/>
</a>
</g>
</g>
<!-- Node13 -->
<g id="Node000013" class="node">
<title>Node13</title>
<g id="a_Node000013"><a xlink:href="../../d5/df2/car_8c.html#a4ccd342eeebaa0daf8b8b5922ad3b2ff" target="_top" xlink:title="Deallocates car.">
<polygon fill="white" stroke="#666666" points="672.62,-362.99 601.12,-362.99 601.12,-336.24 672.62,-336.24 672.62,-362.99"/>
<text text-anchor="middle" x="636.88" y="-343.79" font-family="Helvetica,sans-Serif" font-size="16.00">carFree</text>
</a>
</g>
</g>
<!-- Node3&#45;&gt;Node13 -->
<g id="edge4_Node000003_Node000013" class="edge">
<title>Node3&#45;&gt;Node13</title>
<g id="a_edge4_Node000003_Node000013"><a xlink:title=" ">
<path fill="none" stroke="#63b8ff" stroke-width="2" d="M459.09,-263.3C476.45,-266.41 497.4,-272.13 513.75,-282.62 535.02,-296.26 528.52,-312.92 549.75,-326.62 561.28,-334.06 575.15,-339.1 588.37,-342.52"/>
<polygon fill="#63b8ff" stroke="#63b8ff" stroke-width="2" points="588.21,-346.53 598.73,-345.32 589.75,-339.7 588.21,-346.53"/>
</a>
</g>
</g>
<!-- Node14 -->
<g id="Node000014" class="node">
<title>Node14</title>
<g id="a_Node000014"><a xlink:href="../../d5/df2/car_8c.html#a47a583e551002d7fc00d05227eba5855" target="_top" xlink:title="Checks if every field in Car is set.">
<polygon fill="white" stroke="#666666" points="697,-272.99 576.75,-272.99 576.75,-246.24 697,-246.24 697,-272.99"/>
<text text-anchor="middle" x="636.88" y="-253.79" font-family="Helvetica,sans-Serif" font-size="16.00">carIsComplete</text>
</a>
</g>
</g>
<!-- Node3&#45;&gt;Node14 -->
<g id="edge5_Node000003_Node000014" class="edge">
<title>Node3&#45;&gt;Node14</title>
<g id="a_edge5_Node000003_Node000014"><a xlink:title=" ">
<path fill="none" stroke="#63b8ff" stroke-width="2" d="M459.04,-259.62C487.08,-259.62 528.17,-259.62 563.69,-259.62"/>
<polygon fill="#63b8ff" stroke="#63b8ff" stroke-width="2" points="563.49,-263.12 573.49,-259.62 563.49,-256.12 563.49,-263.12"/>
</a>
</g>
</g>
<!-- Node19&#45;&gt;Node13 -->
<g id="edge7_Node000019_Node000013" class="edge">
<title>Node19&#45;&gt;Node13</title>
<g id="a_edge7_Node000019_Node000013"><a xlink:title=" ">
<path fill="none" stroke="#63b8ff" stroke-width="2" d="M490.51,-380.75C521.98,-374.01 559.15,-366.05 588.02,-359.87"/>
<polygon fill="#63b8ff" stroke="#63b8ff" stroke-width="2" points="589.61,-362.68 598.65,-357.16 588.14,-355.83 589.61,-362.68"/>
</a>
</g>
</g>
<!-- Node42&#45;&gt;Node4 -->
<g id="edge9_Node000042_Node000004" class="edge">
<title>Node42&#45;&gt;Node4</title>
<g id="a_edge9_Node000042_Node000004"><a xlink:title=" ">
<path fill="none" stroke="#63b8ff" stroke-width="2" d="M458.12,-304.62C488.29,-304.62 534.16,-304.62 571.74,-304.62"/>
<polygon fill="#63b8ff" stroke="#63b8ff" stroke-width="2" points="571.65,-308.12 581.65,-304.62 571.65,-301.12 571.65,-308.12"/>
</a>
</g>
</g>
<!-- Node42&#45;&gt;Node13 -->
<g id="edge10_Node000042_Node000013" class="edge">
<title>Node42&#45;&gt;Node13</title>
<g id="a_edge10_Node000042_Node000013"><a xlink:title=" ">
<path fill="none" stroke="#63b8ff" stroke-width="2" d="M458.12,-311.55C492.85,-318.99 548.35,-330.87 588.1,-339.39"/>
<polygon fill="#63b8ff" stroke="#63b8ff" stroke-width="2" points="588.15,-343.41 598.66,-342.08 589.61,-336.56 588.15,-343.41"/>
</a>
</g>
</g>
<!-- Node44&#45;&gt;Node13 -->
<g id="edge12_Node000044_Node000013" class="edge">
<title>Node44&#45;&gt;Node13</title>
<g id="a_edge12_Node000044_Node000013"><a xlink:title=" ">
<path fill="none" stroke="#63b8ff" stroke-width="2" d="M474.49,-349.62C508.63,-349.62 554.04,-349.62 587.99,-349.62"/>
<polygon fill="#63b8ff" stroke="#63b8ff" stroke-width="2" points="587.85,-353.12 597.85,-349.62 587.85,-346.12 587.85,-353.12"/>
</a>
</g>
</g>
<!-- Node47 -->
<g id="Node000047" class="node">
<title>Node47</title>
<g id="a_Node000047"><a xlink:href="../../d7/dba/menuutil_8c.html#acef3bbabe9293534ee600e9b89eda07b" target="_top" xlink:title="Calculate minimum window width.">
<polygon fill="#fff0f0" stroke="red" points="696.62,-227.99 577.12,-227.99 577.12,-201.24 696.62,-201.24 696.62,-227.99"/>
<text text-anchor="middle" x="636.88" y="-208.79" font-family="Helvetica,sans-Serif" font-size="16.00">computeWidth</text>
</a>
</g>
</g>
<!-- Node46&#45;&gt;Node47 -->
<g id="edge14_Node000046_Node000047" class="edge">
<title>Node46&#45;&gt;Node47</title>
<g id="a_edge14_Node000046_Node000047"><a xlink:title=" ">
<path fill="none" stroke="#63b8ff" stroke-width="2" d="M477.42,-214.62C503.55,-214.62 535.69,-214.62 564.18,-214.62"/>
<polygon fill="#63b8ff" stroke="#63b8ff" stroke-width="2" points="563.97,-218.12 573.97,-214.62 563.97,-211.12 563.97,-218.12"/>
</a>
</g>
</g>
<!-- Node48 -->
<g id="Node000048" class="node">
<title>Node48</title>
<g id="a_Node000048"><a xlink:href="../../de/dc9/mmenu_8c.html#a29c2128f12316ca1ce77fd1d686f6ec7" target="_top" xlink:title="Invokes menu.">
<polygon fill="white" stroke="#666666" points="682.75,-49.99 591,-49.99 591,-23.24 682.75,-23.24 682.75,-49.99"/>
<text text-anchor="middle" x="636.88" y="-30.79" font-family="Helvetica,sans-Serif" font-size="16.00">mainMenu</text>
</a>
</g>
</g>
<!-- Node46&#45;&gt;Node48 -->
<g id="edge15_Node000046_Node000048" class="edge">
<title>Node46&#45;&gt;Node48</title>
<g id="a_edge15_Node000046_Node000048"><a xlink:title=" ">
<path fill="none" stroke="#63b8ff" stroke-width="2" d="M477.13,-209.52C490.27,-206.12 503.55,-200.58 513.75,-191.62 545.8,-163.45 523.91,-136.57 549.75,-102.62 563.51,-84.54 583.42,-68.85 600.62,-57.31"/>
<polygon fill="#63b8ff" stroke="#63b8ff" stroke-width="2" points="602.94,-59.7 609.45,-51.34 599.15,-53.81 602.94,-59.7"/>
</a>
</g>
</g>
<!-- Node49 -->
<g id="Node000049" class="node">
<title>Node49</title>
<g id="a_Node000049"><a xlink:href="../../d7/dba/menuutil_8c.html#ae9bbf0350539ebe186df7d627930ca51" target="_top" xlink:title="Control menu navigation and invoke option that we chose.">
<polygon fill="white" stroke="#666666" points="724,-182.99 549.75,-182.99 549.75,-156.24 724,-156.24 724,-182.99"/>
<text text-anchor="middle" x="636.88" y="-163.79" font-family="Helvetica,sans-Serif" font-size="16.00">menuHandleIteraction</text>
</a>
</g>
</g>
<!-- Node46&#45;&gt;Node49 -->
<g id="edge17_Node000046_Node000049" class="edge">
<title>Node46&#45;&gt;Node49</title>
<g id="a_edge17_Node000046_Node000049"><a xlink:title=" ">
<path fill="none" stroke="#63b8ff" stroke-width="2" d="M477.42,-203.55C501.86,-198.32 531.56,-191.96 558.6,-186.17"/>
<polygon fill="#63b8ff" stroke="#63b8ff" stroke-width="2" points="560.18,-188.98 569.22,-183.46 558.71,-182.14 560.18,-188.98"/>
</a>
</g>
</g>
<!-- Node12 -->
<g id="Node000012" class="node">
<title>Node12</title>
<g id="a_Node000012"><a xlink:href="../../d7/dba/menuutil_8c.html#a14ca6bd9893f550a2051ca6cd5a689ac" target="_top" xlink:title="Print boarders of window.">
<polygon fill="white" stroke="#666666" points="721.75,-137.99 552,-137.99 552,-111.24 721.75,-111.24 721.75,-137.99"/>
<text text-anchor="middle" x="636.88" y="-118.79" font-family="Helvetica,sans-Serif" font-size="16.00">printWindowBoarders</text>
</a>
</g>
</g>
<!-- Node46&#45;&gt;Node12 -->
<g id="edge18_Node000046_Node000012" class="edge">
<title>Node46&#45;&gt;Node12</title>
<g id="a_edge18_Node000046_Node000012"><a xlink:title=" ">
<path fill="none" stroke="#63b8ff" stroke-width="2" d="M477.34,-206.88C489.91,-203.48 502.85,-198.61 513.75,-191.62 535.02,-177.98 528.52,-161.32 549.75,-147.62 551.85,-146.27 554.02,-144.99 556.26,-143.79"/>
<polygon fill="#63b8ff" stroke="#63b8ff" stroke-width="2" points="558.25,-146.79 565.84,-139.4 555.29,-140.45 558.25,-146.79"/>
</a>
</g>
</g>
<!-- Node48&#45;&gt;Node1 -->
<g id="edge16_Node000048_Node000001" class="edge">
<title>Node48&#45;&gt;Node1</title>
<g id="a_edge16_Node000048_Node000001"><a xlink:title=" ">
<path fill="none" stroke="#63b8ff" stroke-width="2" d="M590.63,-23.18C531,-7.66 423.38,12.69 335.75,-12.62 241.05,-39.97 147.65,-113.97 104.71,-151.36"/>
<polygon fill="#63b8ff" stroke="#63b8ff" stroke-width="2" points="102.32,-148.57 97.15,-157.82 106.96,-153.82 102.32,-148.57"/>
</a>
</g>
</g>
<!-- Node50&#45;&gt;Node46 -->
<g id="edge24_Node000050_Node000046" class="edge">
<title>Node50&#45;&gt;Node46</title>
<g id="a_edge24_Node000050_Node000046"><a xlink:title=" ">
<path fill="none" stroke="#63b8ff" stroke-width="2" d="M273.15,-142.38C281.8,-147.47 291.41,-153.49 299.75,-159.62 317,-172.29 316.87,-181.52 335.75,-191.62 343.33,-195.67 351.66,-199.04 360.09,-201.83"/>
<polygon fill="#63b8ff" stroke="#63b8ff" stroke-width="2" points="359.83,-206.01 370.42,-205.53 361.84,-199.3 359.83,-206.01"/>
</a>
</g>
</g>
<!-- Node51 -->
<g id="Node000051" class="node">
<title>Node51</title>
<g id="a_Node000051"><a xlink:href="../../da/de9/clientsmenu_8c.html#a37a5ed3b8a63a9497f34682ce7db3126" target="_top" xlink:title="function for adding client;">
<polygon fill="#fff0f0" stroke="red" points="466.88,-92.99 382.62,-92.99 382.62,-66.24 466.88,-66.24 466.88,-92.99"/>
<text text-anchor="middle" x="424.75" y="-73.79" font-family="Helvetica,sans-Serif" font-size="16.00">addClient</text>
</a>
</g>
</g>
<!-- Node50&#45;&gt;Node51 -->
<g id="edge20_Node000050_Node000051" class="edge">
<title>Node50&#45;&gt;Node51</title>
<g id="a_edge20_Node000050_Node000051"><a xlink:title=" ">
<path fill="none" stroke="#63b8ff" stroke-width="2" d="M293.52,-114.84C307.08,-110.81 321.99,-106.46 335.75,-102.62 346.8,-99.54 358.67,-96.35 370,-93.37"/>
<polygon fill="#63b8ff" stroke="#63b8ff" stroke-width="2" points="371.7,-96.02 380.49,-90.1 369.93,-89.25 371.7,-96.02"/>
</a>
</g>
</g>
<!-- Node59 -->
<g id="Node000059" class="node">
<title>Node59</title>
<g id="a_Node000059"><a xlink:href="../../da/de9/clientsmenu_8c.html#a1aa5fbc029a7e320bf6f6c3a2e6e27cc" target="_top" xlink:title="Wrapper around clientChoose frees extracted client instanntly.">
<polygon fill="#fff0f0" stroke="red" points="513.75,-47.99 335.75,-47.99 335.75,-21.24 513.75,-21.24 513.75,-47.99"/>
<text text-anchor="middle" x="424.75" y="-28.79" font-family="Helvetica,sans-Serif" font-size="16.00">clientChooseNoReturn</text>
</a>
</g>
</g>
<!-- Node50&#45;&gt;Node59 -->
<g id="edge21_Node000050_Node000059" class="edge">
<title>Node50&#45;&gt;Node59</title>
<g id="a_edge21_Node000050_Node000059"><a xlink:title=" ">
<path fill="none" stroke="#63b8ff" stroke-width="2" d="M261.38,-114.77C277.49,-98.71 306.22,-72.55 335.75,-57.62 339.16,-55.89 342.72,-54.29 346.36,-52.79"/>
<polygon fill="#63b8ff" stroke="#63b8ff" stroke-width="2" points="348.04,-56.16 356.2,-49.41 345.6,-49.6 348.04,-56.16"/>
</a>
</g>
</g>
<!-- Node67 -->
<g id="Node000067" class="node">
<title>Node67</title>
<g id="a_Node000067"><a xlink:href="../../da/de9/clientsmenu_8c.html#a3785053dd7fa7ee54cb52674dadf5941" target="_top" xlink:title="Edit client.">
<polygon fill="#fff0f0" stroke="red" points="465.75,-182.99 383.75,-182.99 383.75,-156.24 465.75,-156.24 465.75,-182.99"/>
<text text-anchor="middle" x="424.75" y="-163.79" font-family="Helvetica,sans-Serif" font-size="16.00">clientEdit</text>
</a>
</g>
</g>
<!-- Node50&#45;&gt;Node67 -->
<g id="edge22_Node000050_Node000067" class="edge">
<title>Node50&#45;&gt;Node67</title>
<g id="a_edge22_Node000050_Node000067"><a xlink:title=" ">
<path fill="none" stroke="#63b8ff" stroke-width="2" d="M298.92,-140.48C321.47,-145.74 348,-151.93 370.79,-157.26"/>
<polygon fill="#63b8ff" stroke="#63b8ff" stroke-width="2" points="370.84,-161.33 381.37,-160.19 372.43,-154.51 370.84,-161.33"/>
</a>
</g>
</g>
<!-- Node69 -->
<g id="Node000069" class="node">
<title>Node69</title>
<g id="a_Node000069"><a xlink:href="../../da/de9/clientsmenu_8c.html#ae81aa78f6e32fdd87e554ba85c063111" target="_top" xlink:title="Remove client.">
<polygon fill="#fff0f0" stroke="red" points="481.88,-137.99 367.62,-137.99 367.62,-111.24 481.88,-111.24 481.88,-137.99"/>
<text text-anchor="middle" x="424.75" y="-118.79" font-family="Helvetica,sans-Serif" font-size="16.00">clientRemove</text>
</a>
</g>
</g>
<!-- Node50&#45;&gt;Node69 -->
<g id="edge23_Node000050_Node000069" class="edge">
<title>Node50&#45;&gt;Node69</title>
<g id="a_edge23_Node000050_Node000069"><a xlink:title=" ">
<path fill="none" stroke="#63b8ff" stroke-width="2" d="M298.92,-127.46C316.21,-127.07 335.83,-126.62 354.32,-126.2"/>
<polygon fill="#63b8ff" stroke="#63b8ff" stroke-width="2" points="354.29,-129.63 364.21,-125.91 354.14,-122.63 354.29,-129.63"/>
</a>
</g>
</g>
<!-- Node71&#45;&gt;Node46 -->
<g id="edge27_Node000071_Node000046" class="edge">
<title>Node71&#45;&gt;Node46</title>
<g id="a_edge27_Node000071_Node000046"><a xlink:title=" ">
<path fill="none" stroke="#63b8ff" stroke-width="2" d="M299.87,-214.62C318.45,-214.62 339.65,-214.62 359.19,-214.62"/>
<polygon fill="#63b8ff" stroke="#63b8ff" stroke-width="2" points="359.07,-218.12 369.07,-214.62 359.07,-211.12 359.07,-218.12"/>
</a>
</g>
</g>
</g>
</svg>
