<?xml version="1.0" encoding="UTF-8" standalone="no"?>
<!DOCTYPE svg PUBLIC "-//W3C//DTD SVG 1.1//EN"
 "http://www.w3.org/Graphics/SVG/1.1/DTD/svg11.dtd">
<!-- Generated by graphviz version 8.0.5 (0)
 -->
<!-- Title: clientsmenu.c Pages: 1 -->
<svg width="1002pt" height="286pt"
 viewBox="0.00 0.00 1001.75 285.75" xmlns="http://www.w3.org/2000/svg" xmlns:xlink="http://www.w3.org/1999/xlink">
<g id="graph0" class="graph" transform="scale(1 1) rotate(0) translate(4 281.75)">
<title>clientsmenu.c</title>
<!-- Node1 -->
<g id="Node000001" class="node">
<title>Node1</title>
<g id="a_Node000001"><a xlink:title="Clients menu implementation.">
<polygon fill="#999999" stroke="#666666" points="534,-277.75 418.25,-277.75 418.25,-251 534,-251 534,-277.75"/>
<text text-anchor="middle" x="476.12" y="-258.55" font-family="Helvetica,sans-Serif" font-size="16.00">clientsmenu.c</text>
</a>
</g>
</g>
<!-- Node2 -->
<g id="Node000002" class="node">
<title>Node2</title>
<g id="a_Node000002"><a xlink:href="../../d6/d4a/clientsmenu_8h.html" target="_top" xlink:title="Clients menu interface.">
<polygon fill="white" stroke="#666666" points="230.38,-215 113.88,-215 113.88,-188.25 230.38,-188.25 230.38,-215"/>
<text text-anchor="middle" x="172.12" y="-195.8" font-family="Helvetica,sans-Serif" font-size="16.00">clientsmenu.h</text>
</a>
</g>
</g>
<!-- Node1&#45;&gt;Node2 -->
<g id="edge1_Node000001_Node000002" class="edge">
<title>Node1&#45;&gt;Node2</title>
<g id="a_edge1_Node000001_Node000002"><a xlink:title=" ">
<path fill="none" stroke="#63b8ff" stroke-width="2" d="M417.87,-251.73C368.18,-241.8 296.55,-227.49 243.44,-216.88"/>
<polygon fill="#63b8ff" stroke="#63b8ff" stroke-width="2" points="243.19,-212.86 232.7,-214.33 241.82,-219.72 243.19,-212.86"/>
</a>
</g>
</g>
<!-- Node3 -->
<g id="Node000003" class="node">
<title>Node3</title>
<g id="a_Node000003"><a xlink:href="../../d8/de1/client_8h.html" target="_top" xlink:title="Interface for Client structure.">
<polygon fill="white" stroke="#666666" points="214,-152.25 146.25,-152.25 146.25,-125.5 214,-125.5 214,-152.25"/>
<text text-anchor="middle" x="180.12" y="-133.05" font-family="Helvetica,sans-Serif" font-size="16.00">client.h</text>
</a>
</g>
</g>
<!-- Node1&#45;&gt;Node3 -->
<g id="edge6_Node000001_Node000003" class="edge">
<title>Node1&#45;&gt;Node3</title>
<g id="a_edge6_Node000001_Node000003"><a xlink:title=" ">
<path fill="none" stroke="#63b8ff" stroke-width="2" d="M418.1,-255.01C378.46,-247.85 325.47,-235.39 282.12,-215 266.26,-207.54 230.6,-180.24 205.95,-160.7"/>
<polygon fill="#63b8ff" stroke="#63b8ff" stroke-width="2" points="207.83,-157.13 197.83,-153.63 203.47,-162.6 207.83,-157.13"/>
</a>
</g>
</g>
<!-- Node4 -->
<g id="Node000004" class="node">
<title>Node4</title>
<g id="a_Node000004"><a xlink:href="../../da/d23/list_8h.html" target="_top" xlink:title="Doubly linked list interface.">
<polygon fill="white" stroke="#666666" points="218,-89.5 168.25,-89.5 168.25,-62.75 218,-62.75 218,-89.5"/>
<text text-anchor="middle" x="193.12" y="-70.3" font-family="Helvetica,sans-Serif" font-size="16.00">list.h</text>
</a>
</g>
</g>
<!-- Node1&#45;&gt;Node4 -->
<g id="edge13_Node000001_Node000004" class="edge">
<title>Node1&#45;&gt;Node4</title>
<g id="a_edge13_Node000001_Node000004"><a xlink:title=" ">
<path fill="none" stroke="#63b8ff" stroke-width="2" d="M418.08,-254.04C385.9,-246.94 346.23,-234.9 315.12,-215 267.86,-184.76 228.04,-131.15 207.69,-100.45"/>
<polygon fill="#63b8ff" stroke="#63b8ff" stroke-width="2" points="210.23,-98.39 201.87,-91.9 204.36,-102.2 210.23,-98.39"/>
</a>
</g>
</g>
<!-- Node6 -->
<g id="Node000006" class="node">
<title>Node6</title>
<g id="a_Node000006"><a xlink:href="../../db/d9d/dbhandle_8h.html" target="_top" xlink:title="Database operations interface.">
<polygon fill="white" stroke="#666666" points="96.25,-215 0,-215 0,-188.25 96.25,-188.25 96.25,-215"/>
<text text-anchor="middle" x="48.12" y="-195.8" font-family="Helvetica,sans-Serif" font-size="16.00">dbhandle.h</text>
</a>
</g>
</g>
<!-- Node1&#45;&gt;Node6 -->
<g id="edge7_Node000001_Node000006" class="edge">
<title>Node1&#45;&gt;Node6</title>
<g id="a_edge7_Node000001_Node000006"><a xlink:title=" ">
<path fill="none" stroke="#63b8ff" stroke-width="2" d="M418.06,-257.33C347.41,-249.65 224.25,-235.16 109.13,-215.59"/>
<polygon fill="#63b8ff" stroke="#63b8ff" stroke-width="2" points="109.03,-211.68 98.58,-213.44 107.84,-218.58 109.03,-211.68"/>
</a>
</g>
</g>
<!-- Node8 -->
<g id="Node000008" class="node">
<title>Node8</title>
<g id="a_Node000008"><a xlink:href="../../de/d0e/menuutil_8h.html" target="_top" xlink:title="Header file for menu operations.">
<polygon fill="white" stroke="#666666" points="415.62,-215 324.62,-215 324.62,-188.25 415.62,-188.25 415.62,-215"/>
<text text-anchor="middle" x="370.12" y="-195.8" font-family="Helvetica,sans-Serif" font-size="16.00">menuutil.h</text>
</a>
</g>
</g>
<!-- Node1&#45;&gt;Node8 -->
<g id="edge14_Node000001_Node000008" class="edge">
<title>Node1&#45;&gt;Node8</title>
<g id="a_edge14_Node000001_Node000008"><a xlink:title=" ">
<path fill="none" stroke="#63b8ff" stroke-width="2" d="M453.9,-250.64C439.2,-242.22 419.67,-231.02 403.17,-221.56"/>
<polygon fill="#63b8ff" stroke="#63b8ff" stroke-width="2" points="404.73,-218.28 394.32,-216.34 401.25,-224.35 404.73,-218.28"/>
</a>
</g>
</g>
<!-- Node9 -->
<g id="Node000009" class="node">
<title>Node9</title>
<g id="a_Node000009"><a xlink:title=" ">
<polygon fill="#e0e0e0" stroke="#999999" points="458,-152.25 396.25,-152.25 396.25,-125.5 458,-125.5 458,-152.25"/>
<text text-anchor="middle" x="427.12" y="-133.05" font-family="Helvetica,sans-Serif" font-size="16.00">form.h</text>
</a>
</g>
</g>
<!-- Node1&#45;&gt;Node9 -->
<g id="edge18_Node000001_Node000009" class="edge">
<title>Node1&#45;&gt;Node9</title>
<g id="a_edge18_Node000001_Node000009"><a xlink:title=" ">
<path fill="none" stroke="#63b8ff" stroke-width="2" d="M471.07,-250.62C463.03,-230.38 447.22,-190.52 436.92,-164.55"/>
<polygon fill="#63b8ff" stroke="#63b8ff" stroke-width="2" points="440.17,-162.75 433.23,-154.74 433.66,-165.33 440.17,-162.75"/>
</a>
</g>
</g>
<!-- Node10 -->
<g id="Node000010" class="node">
<title>Node10</title>
<g id="a_Node000010"><a xlink:title=" ">
<polygon fill="#e0e0e0" stroke="#999999" points="546,-215 472.25,-215 472.25,-188.25 546,-188.25 546,-215"/>
<text text-anchor="middle" x="509.12" y="-195.8" font-family="Helvetica,sans-Serif" font-size="16.00">assert.h</text>
</a>
</g>
</g>
<!-- Node1&#45;&gt;Node10 -->
<g id="edge17_Node000001_Node000010" class="edge">
<title>Node1&#45;&gt;Node10</title>
<g id="a_edge17_Node000001_Node000010"><a xlink:title=" ">
<path fill="none" stroke="#63b8ff" stroke-width="2" d="M482.96,-250.79C486.77,-243.78 491.63,-234.83 496.13,-226.55"/>
<polygon fill="#63b8ff" stroke="#63b8ff" stroke-width="2" points="499.6,-227.65 501.3,-217.2 493.45,-224.31 499.6,-227.65"/>
</a>
</g>
</g>
<!-- Node11 -->
<g id="Node000011" class="node">
<title>Node11</title>
<g id="a_Node000011"><a xlink:title=" ">
<polygon fill="#e0e0e0" stroke="#999999" points="650.38,-215 563.88,-215 563.88,-188.25 650.38,-188.25 650.38,-215"/>
<text text-anchor="middle" x="607.12" y="-195.8" font-family="Helvetica,sans-Serif" font-size="16.00">ncurses.h</text>
</a>
</g>
</g>
<!-- Node1&#45;&gt;Node11 -->
<g id="edge19_Node000001_Node000011" class="edge">
<title>Node1&#45;&gt;Node11</title>
<g id="a_edge19_Node000001_Node000011"><a xlink:title=" ">
<path fill="none" stroke="#63b8ff" stroke-width="2" d="M503.59,-250.64C522.28,-241.97 547.29,-230.37 568.05,-220.75"/>
<polygon fill="#63b8ff" stroke="#63b8ff" stroke-width="2" points="570.1,-223.73 577.7,-216.34 567.15,-217.38 570.1,-223.73"/>
</a>
</g>
</g>
<!-- Node12 -->
<g id="Node000012" class="node">
<title>Node12</title>
<g id="a_Node000012"><a xlink:title=" ">
<polygon fill="#e0e0e0" stroke="#999999" points="737.75,-215 668.5,-215 668.5,-188.25 737.75,-188.25 737.75,-215"/>
<text text-anchor="middle" x="703.12" y="-195.8" font-family="Helvetica,sans-Serif" font-size="16.00">panel.h</text>
</a>
</g>
</g>
<!-- Node1&#45;&gt;Node12 -->
<g id="edge20_Node000001_Node000012" class="edge">
<title>Node1&#45;&gt;Node12</title>
<g id="a_edge20_Node000001_Node000012"><a xlink:title=" ">
<path fill="none" stroke="#63b8ff" stroke-width="2" d="M525.5,-250.55C559.55,-241.65 606.17,-229.37 655.76,-215.89"/>
<polygon fill="#63b8ff" stroke="#63b8ff" stroke-width="2" points="657.35,-218.54 666.07,-212.54 655.51,-211.79 657.35,-218.54"/>
</a>
</g>
</g>
<!-- Node13 -->
<g id="Node000013" class="node">
<title>Node13</title>
<g id="a_Node000013"><a xlink:title=" ">
<polygon fill="#e0e0e0" stroke="#999999" points="820.12,-215 756.12,-215 756.12,-188.25 820.12,-188.25 820.12,-215"/>
<text text-anchor="middle" x="788.12" y="-195.8" font-family="Helvetica,sans-Serif" font-size="16.00">stdio.h</text>
</a>
</g>
</g>
<!-- Node1&#45;&gt;Node13 -->
<g id="edge21_Node000001_Node000013" class="edge">
<title>Node1&#45;&gt;Node13</title>
<g id="a_edge21_Node000001_Node000013"><a xlink:title=" ">
<path fill="none" stroke="#63b8ff" stroke-width="2" d="M534.42,-254.98C586.77,-246.99 665.95,-233.81 743.56,-215.66"/>
<polygon fill="#63b8ff" stroke="#63b8ff" stroke-width="2" points="745.07,-218.43 753.99,-212.71 743.45,-211.62 745.07,-218.43"/>
</a>
</g>
</g>
<!-- Node14 -->
<g id="Node000014" class="node">
<title>Node14</title>
<g id="a_Node000014"><a xlink:title=" ">
<polygon fill="#e0e0e0" stroke="#999999" points="906,-215 838.25,-215 838.25,-188.25 906,-188.25 906,-215"/>
<text text-anchor="middle" x="872.12" y="-195.8" font-family="Helvetica,sans-Serif" font-size="16.00">stdlib.h</text>
</a>
</g>
</g>
<!-- Node1&#45;&gt;Node14 -->
<g id="edge22_Node000001_Node000014" class="edge">
<title>Node1&#45;&gt;Node14</title>
<g id="a_edge22_Node000001_Node000014"><a xlink:title=" ">
<path fill="none" stroke="#63b8ff" stroke-width="2" d="M534.35,-257.99C602.08,-251.16 717.43,-237.75 825.51,-215.54"/>
<polygon fill="#63b8ff" stroke="#63b8ff" stroke-width="2" points="826.9,-218.41 835.97,-212.94 825.46,-211.56 826.9,-218.41"/>
</a>
</g>
</g>
<!-- Node15 -->
<g id="Node000015" class="node">
<title>Node15</title>
<g id="a_Node000015"><a xlink:title=" ">
<polygon fill="#e0e0e0" stroke="#999999" points="993.75,-215 924.5,-215 924.5,-188.25 993.75,-188.25 993.75,-215"/>
<text text-anchor="middle" x="959.12" y="-195.8" font-family="Helvetica,sans-Serif" font-size="16.00">string.h</text>
</a>
</g>
</g>
<!-- Node1&#45;&gt;Node15 -->
<g id="edge23_Node000001_Node000015" class="edge">
<title>Node1&#45;&gt;Node15</title>
<g id="a_edge23_Node000001_Node000015"><a xlink:title=" ">
<path fill="none" stroke="#63b8ff" stroke-width="2" d="M534.46,-260.01C616.52,-254.6 770.83,-241.99 911.49,-215.45"/>
<polygon fill="#63b8ff" stroke="#63b8ff" stroke-width="2" points="913.03,-218.34 922.19,-213.01 911.7,-211.46 913.03,-218.34"/>
</a>
</g>
</g>
<!-- Node2&#45;&gt;Node3 -->
<g id="edge2_Node000002_Node000003" class="edge">
<title>Node2&#45;&gt;Node3</title>
<g id="a_edge2_Node000002_Node000003"><a xlink:title=" ">
<path fill="none" stroke="#63b8ff" stroke-width="2" d="M173.78,-188.04C174.65,-181.44 175.75,-173.11 176.78,-165.25"/>
<polygon fill="#63b8ff" stroke="#63b8ff" stroke-width="2" points="180.63,-165.82 178.47,-155.45 173.69,-164.9 180.63,-165.82"/>
</a>
</g>
</g>
<!-- Node3&#45;&gt;Node4 -->
<g id="edge3_Node000003_Node000004" class="edge">
<title>Node3&#45;&gt;Node4</title>
<g id="a_edge3_Node000003_Node000004"><a xlink:title=" ">
<path fill="none" stroke="#63b8ff" stroke-width="2" d="M182.82,-125.29C184.25,-118.61 186.06,-110.16 187.76,-102.21"/>
<polygon fill="#63b8ff" stroke="#63b8ff" stroke-width="2" points="191.76,-102.21 190.43,-91.7 184.92,-100.74 191.76,-102.21"/>
</a>
</g>
</g>
<!-- Node5 -->
<g id="Node000005" class="node">
<title>Node5</title>
<g id="a_Node000005"><a xlink:title=" ">
<polygon fill="#e0e0e0" stroke="#999999" points="162.12,-26.75 80.12,-26.75 80.12,0 162.12,0 162.12,-26.75"/>
<text text-anchor="middle" x="121.12" y="-7.55" font-family="Helvetica,sans-Serif" font-size="16.00">stdbool.h</text>
</a>
</g>
</g>
<!-- Node3&#45;&gt;Node5 -->
<g id="edge5_Node000003_Node000005" class="edge">
<title>Node3&#45;&gt;Node5</title>
<g id="a_edge5_Node000003_Node000005"><a xlink:title=" ">
<path fill="none" stroke="#63b8ff" stroke-width="2" d="M174.03,-125.12C164.32,-104.79 145.15,-64.66 132.75,-38.7"/>
<polygon fill="#63b8ff" stroke="#63b8ff" stroke-width="2" points="135.74,-36.76 128.27,-29.24 129.42,-39.77 135.74,-36.76"/>
</a>
</g>
</g>
<!-- Node4&#45;&gt;Node5 -->
<g id="edge4_Node000004_Node000005" class="edge">
<title>Node4&#45;&gt;Node5</title>
<g id="a_edge4_Node000004_Node000005"><a xlink:title=" ">
<path fill="none" stroke="#63b8ff" stroke-width="2" d="M178.21,-62.54C168.84,-54.64 156.54,-44.26 145.75,-35.16"/>
<polygon fill="#63b8ff" stroke="#63b8ff" stroke-width="2" points="147.92,-31.72 138.02,-27.95 143.41,-37.07 147.92,-31.72"/>
</a>
</g>
</g>
<!-- Node6&#45;&gt;Node3 -->
<g id="edge11_Node000006_Node000003" class="edge">
<title>Node6&#45;&gt;Node3</title>
<g id="a_edge11_Node000006_Node000003"><a xlink:title=" ">
<path fill="none" stroke="#63b8ff" stroke-width="2" d="M75.8,-187.89C94.63,-179.22 119.83,-167.62 140.75,-158"/>
<polygon fill="#63b8ff" stroke="#63b8ff" stroke-width="2" points="142.87,-160.95 150.49,-153.59 139.94,-154.59 142.87,-160.95"/>
</a>
</g>
</g>
<!-- Node6&#45;&gt;Node5 -->
<g id="edge12_Node000006_Node000005" class="edge">
<title>Node6&#45;&gt;Node5</title>
<g id="a_edge12_Node000006_Node000005"><a xlink:title=" ">
<path fill="none" stroke="#63b8ff" stroke-width="2" d="M50.52,-187.89C53.55,-172.76 59.33,-146.86 67.12,-125.5 78.49,-94.36 95.81,-60.33 107.76,-38.23"/>
<polygon fill="#63b8ff" stroke="#63b8ff" stroke-width="2" points="111.18,-39.45 112.93,-29 105.04,-36.08 111.18,-39.45"/>
</a>
</g>
</g>
<!-- Node7 -->
<g id="Node000007" class="node">
<title>Node7</title>
<g id="a_Node000007"><a xlink:href="../../db/d42/car_8h.html" target="_top" xlink:title="Interface for Car structure.">
<polygon fill="white" stroke="#666666" points="127.75,-152.25 76.5,-152.25 76.5,-125.5 127.75,-125.5 127.75,-152.25"/>
<text text-anchor="middle" x="102.12" y="-133.05" font-family="Helvetica,sans-Serif" font-size="16.00">car.h</text>
</a>
</g>
</g>
<!-- Node6&#45;&gt;Node7 -->
<g id="edge8_Node000006_Node000007" class="edge">
<title>Node6&#45;&gt;Node7</title>
<g id="a_edge8_Node000006_Node000007"><a xlink:title=" ">
<path fill="none" stroke="#63b8ff" stroke-width="2" d="M59.31,-188.04C65.98,-180.54 74.62,-170.82 82.39,-162.07"/>
<polygon fill="#63b8ff" stroke="#63b8ff" stroke-width="2" points="84.92,-164.25 88.95,-154.45 79.69,-159.6 84.92,-164.25"/>
</a>
</g>
</g>
<!-- Node7&#45;&gt;Node4 -->
<g id="edge9_Node000007_Node000004" class="edge">
<title>Node7&#45;&gt;Node4</title>
<g id="a_edge9_Node000007_Node000004"><a xlink:title=" ">
<path fill="none" stroke="#63b8ff" stroke-width="2" d="M120.98,-125.29C133.22,-117.12 149.44,-106.29 163.39,-96.97"/>
<polygon fill="#63b8ff" stroke="#63b8ff" stroke-width="2" points="165.61,-99.37 171.98,-90.91 161.72,-93.55 165.61,-99.37"/>
</a>
</g>
</g>
<!-- Node7&#45;&gt;Node5 -->
<g id="edge10_Node000007_Node000005" class="edge">
<title>Node7&#45;&gt;Node5</title>
<g id="a_edge10_Node000007_Node000005"><a xlink:title=" ">
<path fill="none" stroke="#63b8ff" stroke-width="2" d="M104.09,-125.12C107.17,-105.06 113.22,-65.75 117.22,-39.77"/>
<polygon fill="#63b8ff" stroke="#63b8ff" stroke-width="2" points="121.08,-39.66 119.15,-29.24 114.17,-38.59 121.08,-39.66"/>
</a>
</g>
</g>
<!-- Node8&#45;&gt;Node4 -->
<g id="edge15_Node000008_Node000004" class="edge">
<title>Node8&#45;&gt;Node4</title>
<g id="a_edge15_Node000008_Node000004"><a xlink:title=" ">
<path fill="none" stroke="#63b8ff" stroke-width="2" d="M362.75,-187.81C352.72,-171.38 333.34,-142.95 310.12,-125.5 286.29,-107.59 254.87,-95.08 230.6,-87.27"/>
<polygon fill="#63b8ff" stroke="#63b8ff" stroke-width="2" points="230.87,-83.09 220.28,-83.52 228.83,-89.78 230.87,-83.09"/>
</a>
</g>
</g>
<!-- Node8&#45;&gt;Node9 -->
<g id="edge16_Node000008_Node000009" class="edge">
<title>Node8&#45;&gt;Node9</title>
<g id="a_edge16_Node000008_Node000009"><a xlink:title=" ">
<path fill="none" stroke="#63b8ff" stroke-width="2" d="M381.94,-188.04C389.04,-180.46 398.29,-170.61 406.56,-161.79"/>
<polygon fill="#63b8ff" stroke="#63b8ff" stroke-width="2" points="409.04,-164.13 413.33,-154.45 403.93,-159.34 409.04,-164.13"/>
</a>
</g>
</g>
</g>
</svg>
