<?xml version="1.0" encoding="UTF-8" standalone="no"?>
<!DOCTYPE svg PUBLIC "-//W3C//DTD SVG 1.1//EN"
 "http://www.w3.org/Graphics/SVG/1.1/DTD/svg11.dtd">
<!-- Generated by graphviz version 8.0.5 (0)
 -->
<!-- Title: clientsMenu Pages: 1 -->
<svg width="758pt" height="740pt"
 viewBox="0.00 0.00 757.50 739.75" xmlns="http://www.w3.org/2000/svg" xmlns:xlink="http://www.w3.org/1999/xlink">
<g id="graph0" class="graph" transform="scale(1 1) rotate(0) translate(4 735.75)">
<title>clientsMenu</title>
<!-- Node1 -->
<g id="Node000001" class="node">
<title>Node1</title>
<g id="a_Node000001"><a xlink:title="Handles displaying of clients menu.">
<polygon fill="#999999" stroke="#666666" points="103,-296.75 0,-296.75 0,-270 103,-270 103,-296.75"/>
<text text-anchor="middle" x="51.5" y="-277.55" font-family="Helvetica,sans-Serif" font-size="16.00">clientsMenu</text>
</a>
</g>
</g>
<!-- Node2 -->
<g id="Node000002" class="node">
<title>Node2</title>
<g id="a_Node000002"><a xlink:href="../../da/de9/clientsmenu_8c.html#a37a5ed3b8a63a9497f34682ce7db3126" target="_top" xlink:title="function for adding client;">
<polygon fill="white" stroke="#666666" points="270.12,-608.75 185.88,-608.75 185.88,-582 270.12,-582 270.12,-608.75"/>
<text text-anchor="middle" x="228" y="-589.55" font-family="Helvetica,sans-Serif" font-size="16.00">addClient</text>
</a>
</g>
</g>
<!-- Node1&#45;&gt;Node2 -->
<g id="edge1_Node000001_Node000002" class="edge">
<title>Node1&#45;&gt;Node2</title>
<g id="a_edge1_Node000001_Node000002"><a xlink:title=" ">
<path fill="none" stroke="#63b8ff" stroke-width="2" d="M60.22,-297.18C87.31,-345.61 178.22,-508.16 213.16,-570.63"/>
<polygon fill="#63b8ff" stroke="#63b8ff" stroke-width="2" points="210.43,-572.71 218.37,-579.73 216.54,-569.29 210.43,-572.71"/>
</a>
</g>
</g>
<!-- Node18 -->
<g id="Node000018" class="node">
<title>Node18</title>
<g id="a_Node000018"><a xlink:href="../../da/de9/clientsmenu_8c.html#a1aa5fbc029a7e320bf6f6c3a2e6e27cc" target="_top" xlink:title="Wrapper around clientChoose frees extracted client instanntly.">
<polygon fill="white" stroke="#666666" points="317,-251.75 139,-251.75 139,-225 317,-225 317,-251.75"/>
<text text-anchor="middle" x="228" y="-232.55" font-family="Helvetica,sans-Serif" font-size="16.00">clientChooseNoReturn</text>
</a>
</g>
</g>
<!-- Node1&#45;&gt;Node18 -->
<g id="edge9_Node000001_Node000018" class="edge">
<title>Node1&#45;&gt;Node18</title>
<g id="a_edge9_Node000001_Node000018"><a xlink:title=" ">
<path fill="none" stroke="#63b8ff" stroke-width="2" d="M103.44,-270.24C121.35,-265.62 141.73,-260.36 160.71,-255.47"/>
<polygon fill="#63b8ff" stroke="#63b8ff" stroke-width="2" points="162.45,-258.12 171.26,-252.23 160.7,-251.34 162.45,-258.12"/>
</a>
</g>
</g>
<!-- Node41 -->
<g id="Node000041" class="node">
<title>Node41</title>
<g id="a_Node000041"><a xlink:href="../../da/de9/clientsmenu_8c.html#a3785053dd7fa7ee54cb52674dadf5941" target="_top" xlink:title="Edit client.">
<polygon fill="white" stroke="#666666" points="269,-399.75 187,-399.75 187,-373 269,-373 269,-399.75"/>
<text text-anchor="middle" x="228" y="-380.55" font-family="Helvetica,sans-Serif" font-size="16.00">clientEdit</text>
</a>
</g>
</g>
<!-- Node1&#45;&gt;Node41 -->
<g id="edge15_Node000001_Node000041" class="edge">
<title>Node1&#45;&gt;Node41</title>
<g id="a_edge15_Node000001_Node000041"><a xlink:title=" ">
<path fill="none" stroke="#63b8ff" stroke-width="2" d="M75.67,-297.05C105.66,-314.75 158.15,-345.73 192.74,-366.16"/>
<polygon fill="#63b8ff" stroke="#63b8ff" stroke-width="2" points="191.34,-369.57 201.73,-371.64 194.9,-363.54 191.34,-369.57"/>
</a>
</g>
</g>
<!-- Node43 -->
<g id="Node000043" class="node">
<title>Node43</title>
<g id="a_Node000043"><a xlink:href="../../da/de9/clientsmenu_8c.html#ae81aa78f6e32fdd87e554ba85c063111" target="_top" xlink:title="Remove client.">
<polygon fill="white" stroke="#666666" points="285.12,-296.75 170.88,-296.75 170.88,-270 285.12,-270 285.12,-296.75"/>
<text text-anchor="middle" x="228" y="-277.55" font-family="Helvetica,sans-Serif" font-size="16.00">clientRemove</text>
</a>
</g>
</g>
<!-- Node1&#45;&gt;Node43 -->
<g id="edge23_Node000001_Node000043" class="edge">
<title>Node1&#45;&gt;Node43</title>
<g id="a_edge23_Node000001_Node000043"><a xlink:title=" ">
<path fill="none" stroke="#63b8ff" stroke-width="2" d="M103.44,-283.38C120.36,-283.38 139.5,-283.38 157.57,-283.38"/>
<polygon fill="#63b8ff" stroke="#63b8ff" stroke-width="2" points="157.49,-286.88 167.49,-283.38 157.49,-279.88 157.49,-286.88"/>
</a>
</g>
</g>
<!-- Node45 -->
<g id="Node000045" class="node">
<title>Node45</title>
<g id="a_Node000045"><a xlink:href="../../d7/dba/menuutil_8c.html#a949419e66b27ac75475821fb7aba527d" target="_top" xlink:title="Handle all operation and functions for menu.">
<polygon fill="#fff0f0" stroke="red" points="280.25,-94.75 175.75,-94.75 175.75,-68 280.25,-68 280.25,-94.75"/>
<text text-anchor="middle" x="228" y="-75.55" font-family="Helvetica,sans-Serif" font-size="16.00">menuInvoke</text>
</a>
</g>
</g>
<!-- Node1&#45;&gt;Node45 -->
<g id="edge30_Node000001_Node000045" class="edge">
<title>Node1&#45;&gt;Node45</title>
<g id="a_edge30_Node000001_Node000045"><a xlink:title=" ">
<path fill="none" stroke="#63b8ff" stroke-width="2" d="M64.22,-269.81C93.46,-235.97 169.89,-147.49 206.66,-104.92"/>
<polygon fill="#63b8ff" stroke="#63b8ff" stroke-width="2" points="210.21,-107 214.1,-97.15 204.92,-102.43 210.21,-107"/>
</a>
</g>
</g>
<!-- Node3 -->
<g id="Node000003" class="node">
<title>Node3</title>
<g id="a_Node000003"><a xlink:href="../../da/de9/clientsmenu_8c.html#a6edce5784156f2643efd7ccc086716e3" target="_top" xlink:title="Function for editing client.">
<polygon fill="#fff0f0" stroke="red" points="501.75,-529.75 382.25,-529.75 382.25,-503 501.75,-503 501.75,-529.75"/>
<text text-anchor="middle" x="442" y="-510.55" font-family="Helvetica,sans-Serif" font-size="16.00">clientFormEdit</text>
</a>
</g>
</g>
<!-- Node2&#45;&gt;Node3 -->
<g id="edge2_Node000002_Node000003" class="edge">
<title>Node2&#45;&gt;Node3</title>
<g id="a_edge2_Node000002_Node000003"><a xlink:title=" ">
<path fill="none" stroke="#63b8ff" stroke-width="2" d="M259.49,-581.59C284.39,-570.57 320.62,-555.1 353,-543.38 361.88,-540.16 371.35,-536.99 380.67,-534.02"/>
<polygon fill="#63b8ff" stroke="#63b8ff" stroke-width="2" points="382.26,-536.56 390.76,-530.23 380.17,-529.88 382.26,-536.56"/>
</a>
</g>
</g>
<!-- Node12 -->
<g id="Node000012" class="node">
<title>Node12</title>
<g id="a_Node000012"><a xlink:href="../../dd/d93/client_8c.html#acd575326bfff582215541a74fc4a7bc7" target="_top" xlink:title="Dealloactes client.">
<polygon fill="white" stroke="#666666" points="701.88,-274.75 614.62,-274.75 614.62,-248 701.88,-248 701.88,-274.75"/>
<text text-anchor="middle" x="658.25" y="-255.55" font-family="Helvetica,sans-Serif" font-size="16.00">clientFree</text>
</a>
</g>
</g>
<!-- Node2&#45;&gt;Node12 -->
<g id="edge3_Node000002_Node000012" class="edge">
<title>Node2&#45;&gt;Node12</title>
<g id="a_edge3_Node000002_Node000012"><a xlink:title=" ">
<path fill="none" stroke="#63b8ff" stroke-width="2" d="M270.6,-587.24C294.67,-582.55 325.53,-576.58 353,-571.38 432.05,-556.4 472.84,-593.98 531,-538.38 582.12,-489.5 537.35,-447.58 567,-383.38 584.43,-345.62 614.67,-308.05 635.3,-284.78"/>
<polygon fill="#63b8ff" stroke="#63b8ff" stroke-width="2" points="637.91,-286.91 642.03,-277.15 632.72,-282.21 637.91,-286.91"/>
</a>
</g>
</g>
<!-- Node13 -->
<g id="Node000013" class="node">
<title>Node13</title>
<g id="a_Node000013"><a xlink:href="../../dd/d93/client_8c.html#a673f8913ce042048c6a8d7e77434dc18" target="_top" xlink:title="Checks if every field despite Client::m_ID in Client is set.">
<polygon fill="white" stroke="#666666" points="510,-731.75 374,-731.75 374,-705 510,-705 510,-731.75"/>
<text text-anchor="middle" x="442" y="-712.55" font-family="Helvetica,sans-Serif" font-size="16.00">clientIsComplete</text>
</a>
</g>
</g>
<!-- Node2&#45;&gt;Node13 -->
<g id="edge4_Node000002_Node000013" class="edge">
<title>Node2&#45;&gt;Node13</title>
<g id="a_edge4_Node000002_Node000013"><a xlink:title=" ">
<path fill="none" stroke="#63b8ff" stroke-width="2" d="M243.07,-609.09C264.89,-629.67 309.01,-668.57 353,-691.38 359.37,-694.68 366.22,-697.66 373.18,-700.32"/>
<polygon fill="#63b8ff" stroke="#63b8ff" stroke-width="2" points="372.74,-703.59 383.33,-703.63 375.08,-696.99 372.74,-703.59"/>
</a>
</g>
</g>
<!-- Node14 -->
<g id="Node000014" class="node">
<title>Node14</title>
<g id="a_Node000014"><a xlink:href="../../dd/d93/client_8c.html#a2ecd1e440fb6f0c7ceb787859a7d284a" target="_top" xlink:title="Allocates and returns client containing nothing.">
<polygon fill="white" stroke="#666666" points="701.12,-587.75 615.38,-587.75 615.38,-561 701.12,-561 701.12,-587.75"/>
<text text-anchor="middle" x="658.25" y="-568.55" font-family="Helvetica,sans-Serif" font-size="16.00">clientNew</text>
</a>
</g>
</g>
<!-- Node2&#45;&gt;Node14 -->
<g id="edge5_Node000002_Node000014" class="edge">
<title>Node2&#45;&gt;Node14</title>
<g id="a_edge5_Node000002_Node000014"><a xlink:title=" ">
<path fill="none" stroke="#63b8ff" stroke-width="2" d="M248.9,-609.24C272.47,-624.75 313.55,-648.93 353,-658.38 429.94,-676.8 455.27,-681.27 531,-658.38 570.73,-646.36 609.41,-617.29 633.27,-596.72"/>
<polygon fill="#63b8ff" stroke="#63b8ff" stroke-width="2" points="635.68,-599.48 640.84,-590.23 631.03,-594.25 635.68,-599.48"/>
</a>
</g>
</g>
<!-- Node15 -->
<g id="Node000015" class="node">
<title>Node15</title>
<g id="a_Node000015"><a xlink:href="../../d3/df4/dbhandle_8c.html#a10cc2cd742cf382f48c04428af09189f" target="_top" xlink:title="Insert client into db.">
<polygon fill="#fff0f0" stroke="red" points="525.38,-649.75 358.62,-649.75 358.62,-623 525.38,-623 525.38,-649.75"/>
<text text-anchor="middle" x="442" y="-630.55" font-family="Helvetica,sans-Serif" font-size="16.00">dbHandleClientInsert</text>
</a>
</g>
</g>
<!-- Node2&#45;&gt;Node15 -->
<g id="edge6_Node000002_Node000015" class="edge">
<title>Node2&#45;&gt;Node15</title>
<g id="a_edge6_Node000002_Node000015"><a xlink:title=" ">
<path fill="none" stroke="#63b8ff" stroke-width="2" d="M270.38,-603.38C295.05,-608.15 327.28,-614.38 357.07,-620.14"/>
<polygon fill="#63b8ff" stroke="#63b8ff" stroke-width="2" points="357.18,-624.12 367.66,-622.58 358.5,-617.24 357.18,-624.12"/>
</a>
</g>
</g>
<!-- Node17 -->
<g id="Node000017" class="node">
<title>Node17</title>
<g id="a_Node000017"><a xlink:href="../../d7/dba/menuutil_8c.html#ae6ed898f3726361b1edde3f8707f0260" target="_top" xlink:title="Displays message box on the screen with title and message.">
<polygon fill="#fff0f0" stroke="red" points="744.25,-418.75 572.25,-418.75 572.25,-392 744.25,-392 744.25,-418.75"/>
<text text-anchor="middle" x="658.25" y="-399.55" font-family="Helvetica,sans-Serif" font-size="16.00">menuUtilMessagebox</text>
</a>
</g>
</g>
<!-- Node2&#45;&gt;Node17 -->
<g id="edge8_Node000002_Node000017" class="edge">
<title>Node2&#45;&gt;Node17</title>
<g id="a_edge8_Node000002_Node000017"><a xlink:title=" ">
<path fill="none" stroke="#63b8ff" stroke-width="2" d="M270.57,-602.22C331.72,-610.15 447.68,-616.88 531,-571.38 588.95,-539.72 628.41,-468.91 646.31,-430.81"/>
<polygon fill="#63b8ff" stroke="#63b8ff" stroke-width="2" points="649.61,-431.8 650.55,-421.24 643.24,-428.91 649.61,-431.8"/>
</a>
</g>
</g>
<!-- Node15&#45;&gt;Node17 -->
<g id="edge7_Node000015_Node000017" class="edge">
<title>Node15&#45;&gt;Node17</title>
<g id="a_edge7_Node000015_Node000017"><a xlink:title=" ">
<path fill="none" stroke="#63b8ff" stroke-width="2" d="M507.69,-622.51C516.01,-619.05 524.04,-614.74 531,-609.38 533.06,-607.78 609.22,-483.74 642.24,-429.88"/>
<polygon fill="#63b8ff" stroke="#63b8ff" stroke-width="2" points="645.7,-431.3 647.94,-420.95 639.73,-427.65 645.7,-431.3"/>
</a>
</g>
</g>
<!-- Node18&#45;&gt;Node12 -->
<g id="edge14_Node000018_Node000012" class="edge">
<title>Node18&#45;&gt;Node12</title>
<g id="a_edge14_Node000018_Node000012"><a xlink:title=" ">
<path fill="none" stroke="#63b8ff" stroke-width="2" d="M317.3,-225.56C377.74,-218.92 459.56,-214.12 531,-224.38 556.94,-228.1 585,-235.92 608.05,-243.41"/>
<polygon fill="#63b8ff" stroke="#63b8ff" stroke-width="2" points="607.71,-247.66 618.3,-247.52 609.93,-241.02 607.71,-247.66"/>
</a>
</g>
</g>
<!-- Node19 -->
<g id="Node000019" class="node">
<title>Node19</title>
<g id="a_Node000019"><a xlink:href="../../da/de9/clientsmenu_8c.html#a1d711b31a5a18af01cdd582e537ff921" target="_top" xlink:title="Invokes ListView of clients.">
<polygon fill="#fff0f0" stroke="red" points="496.88,-274.75 387.12,-274.75 387.12,-248 496.88,-248 496.88,-274.75"/>
<text text-anchor="middle" x="442" y="-255.55" font-family="Helvetica,sans-Serif" font-size="16.00">clientChoose</text>
</a>
</g>
</g>
<!-- Node18&#45;&gt;Node19 -->
<g id="edge10_Node000018_Node000019" class="edge">
<title>Node18&#45;&gt;Node19</title>
<g id="a_edge10_Node000018_Node000019"><a xlink:title=" ">
<path fill="none" stroke="#63b8ff" stroke-width="2" d="M317.37,-247.96C336.3,-250.02 355.99,-252.15 373.96,-254.1"/>
<polygon fill="#63b8ff" stroke="#63b8ff" stroke-width="2" points="373.37,-257.88 383.69,-255.48 374.13,-250.92 373.37,-257.88"/>
</a>
</g>
</g>
<!-- Node19&#45;&gt;Node12 -->
<g id="edge11_Node000019_Node000012" class="edge">
<title>Node19&#45;&gt;Node12</title>
<g id="a_edge11_Node000019_Node000012"><a xlink:title=" ">
<path fill="none" stroke="#63b8ff" stroke-width="2" d="M497.34,-261.38C529.27,-261.38 569.53,-261.38 601.67,-261.38"/>
<polygon fill="#63b8ff" stroke="#63b8ff" stroke-width="2" points="601.45,-264.88 611.45,-261.38 601.45,-257.88 601.45,-264.88"/>
</a>
</g>
</g>
<!-- Node19&#45;&gt;Node17 -->
<g id="edge13_Node000019_Node000017" class="edge">
<title>Node19&#45;&gt;Node17</title>
<g id="a_edge13_Node000019_Node000017"><a xlink:title=" ">
<path fill="none" stroke="#63b8ff" stroke-width="2" d="M497.26,-270.94C508.83,-274.23 520.66,-278.59 531,-284.38 575.91,-309.49 616.7,-354.39 639.13,-381.87"/>
<polygon fill="#63b8ff" stroke="#63b8ff" stroke-width="2" points="637.09,-384.17 646.06,-389.8 642.56,-379.8 637.09,-384.17"/>
</a>
</g>
</g>
<!-- Node27 -->
<g id="Node000027" class="node">
<title>Node27</title>
<g id="a_Node000027"><a xlink:href="../../da/de9/clientsmenu_8c.html#a25908570659c30ef67cf297ef0af107e" target="_top" xlink:title="Given client generates string repesenting client string in listView friendly format....">
<polygon fill="white" stroke="#666666" points="749.5,-193.75 567,-193.75 567,-167 749.5,-167 749.5,-193.75"/>
<text text-anchor="middle" x="658.25" y="-174.55" font-family="Helvetica,sans-Serif" font-size="16.00">clientGetListViewString</text>
</a>
</g>
</g>
<!-- Node19&#45;&gt;Node27 -->
<g id="edge12_Node000019_Node000027" class="edge">
<title>Node19&#45;&gt;Node27</title>
<g id="a_edge12_Node000019_Node000027"><a xlink:title=" ">
<path fill="none" stroke="#63b8ff" stroke-width="2" d="M479.34,-247.63C514.97,-234.17 569.51,-213.55 608.8,-198.69"/>
<polygon fill="#63b8ff" stroke="#63b8ff" stroke-width="2" points="610.61,-201.99 618.73,-195.18 608.14,-195.45 610.61,-201.99"/>
</a>
</g>
</g>
<!-- Node41&#45;&gt;Node3 -->
<g id="edge19_Node000041_Node000003" class="edge">
<title>Node41&#45;&gt;Node3</title>
<g id="a_edge19_Node000041_Node000003"><a xlink:title=" ">
<path fill="none" stroke="#63b8ff" stroke-width="2" d="M240.91,-400.11C261.46,-422.95 305.93,-468.64 353,-493.38 358.31,-496.17 363.99,-498.64 369.8,-500.82"/>
<polygon fill="#63b8ff" stroke="#63b8ff" stroke-width="2" points="369.25,-505.01 379.85,-504.9 371.5,-498.38 369.25,-505.01"/>
</a>
</g>
</g>
<!-- Node41&#45;&gt;Node12 -->
<g id="edge20_Node000041_Node000012" class="edge">
<title>Node41&#45;&gt;Node12</title>
<g id="a_edge20_Node000041_Node000012"><a xlink:title=" ">
<path fill="none" stroke="#63b8ff" stroke-width="2" d="M269.08,-382.52C327.88,-376.01 440.36,-360.32 531,-328.38 564.74,-316.48 600.52,-296.74 625.34,-281.75"/>
<polygon fill="#63b8ff" stroke="#63b8ff" stroke-width="2" points="627.57,-284.26 634.25,-276.04 623.9,-278.3 627.57,-284.26"/>
</a>
</g>
</g>
<!-- Node41&#45;&gt;Node19 -->
<g id="edge16_Node000041_Node000019" class="edge">
<title>Node41&#45;&gt;Node19</title>
<g id="a_edge16_Node000041_Node000019"><a xlink:title=" ">
<path fill="none" stroke="#63b8ff" stroke-width="2" d="M241.72,-372.6C262.77,-350.65 307.07,-307.82 353,-284.38 359.84,-280.88 367.26,-277.89 374.78,-275.33"/>
<polygon fill="#63b8ff" stroke="#63b8ff" stroke-width="2" points="376.53,-277.83 385.05,-271.53 374.47,-271.14 376.53,-277.83"/>
</a>
</g>
</g>
<!-- Node29 -->
<g id="Node000029" class="node">
<title>Node29</title>
<g id="a_Node000029"><a xlink:href="../../dd/d93/client_8c.html#ad02c9ee4fe2e382b42ce897135f738af" target="_top" xlink:title="make Clone of Client. It allocates memory internaly.">
<polygon fill="white" stroke="#666666" points="490.12,-484.75 393.88,-484.75 393.88,-458 490.12,-458 490.12,-484.75"/>
<text text-anchor="middle" x="442" y="-465.55" font-family="Helvetica,sans-Serif" font-size="16.00">clientClone</text>
</a>
</g>
</g>
<!-- Node41&#45;&gt;Node29 -->
<g id="edge17_Node000041_Node000029" class="edge">
<title>Node41&#45;&gt;Node29</title>
<g id="a_edge17_Node000041_Node000029"><a xlink:title=" ">
<path fill="none" stroke="#63b8ff" stroke-width="2" d="M252.57,-400.02C277.03,-413.73 316.73,-434.74 353,-448.38 361.94,-451.74 371.57,-454.79 381.06,-457.5"/>
<polygon fill="#63b8ff" stroke="#63b8ff" stroke-width="2" points="380.83,-461.61 391.39,-460.86 382.67,-454.86 380.83,-461.61"/>
</a>
</g>
</g>
<!-- Node42 -->
<g id="Node000042" class="node">
<title>Node42</title>
<g id="a_Node000042"><a xlink:href="../../d3/df4/dbhandle_8c.html#aaa0d1881c99c82d3e6dbf0965ae779fa" target="_top" xlink:title="Update Client in database.">
<polygon fill="white" stroke="#666666" points="531,-439.75 353,-439.75 353,-413 531,-413 531,-439.75"/>
<text text-anchor="middle" x="442" y="-420.55" font-family="Helvetica,sans-Serif" font-size="16.00">dbHandleClientUpdate</text>
</a>
</g>
</g>
<!-- Node41&#45;&gt;Node42 -->
<g id="edge21_Node000041_Node000042" class="edge">
<title>Node41&#45;&gt;Node42</title>
<g id="a_edge21_Node000041_Node000042"><a xlink:title=" ">
<path fill="none" stroke="#63b8ff" stroke-width="2" d="M269.37,-393.99C293.66,-398.57 325.51,-404.59 355.18,-410.18"/>
<polygon fill="#63b8ff" stroke="#63b8ff" stroke-width="2" points="355.26,-414.14 365.73,-412.55 356.56,-407.26 355.26,-414.14"/>
</a>
</g>
</g>
<!-- Node29&#45;&gt;Node14 -->
<g id="edge18_Node000029_Node000014" class="edge">
<title>Node29&#45;&gt;Node14</title>
<g id="a_edge18_Node000029_Node000014"><a xlink:title=" ">
<path fill="none" stroke="#63b8ff" stroke-width="2" d="M490.49,-480.93C503.88,-484.38 518.26,-488.83 531,-494.38 566.91,-509.99 604.34,-534.99 629.04,-552.89"/>
<polygon fill="#63b8ff" stroke="#63b8ff" stroke-width="2" points="627.31,-556.44 637.43,-559.55 631.46,-550.8 627.31,-556.44"/>
</a>
</g>
</g>
<!-- Node42&#45;&gt;Node17 -->
<g id="edge22_Node000042_Node000017" class="edge">
<title>Node42&#45;&gt;Node17</title>
<g id="a_edge22_Node000042_Node000017"><a xlink:title=" ">
<path fill="none" stroke="#63b8ff" stroke-width="2" d="M531.38,-417.71C540.47,-416.82 549.74,-415.91 558.93,-415.01"/>
<polygon fill="#63b8ff" stroke="#63b8ff" stroke-width="2" points="559.22,-418.21 568.83,-413.75 558.54,-411.24 559.22,-418.21"/>
</a>
</g>
</g>
<!-- Node43&#45;&gt;Node12 -->
<g id="edge25_Node000043_Node000012" class="edge">
<title>Node43&#45;&gt;Node12</title>
<g id="a_edge25_Node000043_Node000012"><a xlink:title=" ">
<path fill="none" stroke="#63b8ff" stroke-width="2" d="M285.62,-271.02C296.22,-268.02 307.08,-264.48 317,-260.38 334.12,-253.3 335.12,-244.21 353,-239.38 437.6,-216.5 539.96,-232.39 601.76,-246.49"/>
<polygon fill="#63b8ff" stroke="#63b8ff" stroke-width="2" points="601.78,-250.56 612.32,-249.46 603.39,-243.75 601.78,-250.56"/>
</a>
</g>
</g>
<!-- Node43&#45;&gt;Node17 -->
<g id="edge29_Node000043_Node000017" class="edge">
<title>Node43&#45;&gt;Node17</title>
<g id="a_edge29_Node000043_Node000017"><a xlink:title=" ">
<path fill="none" stroke="#63b8ff" stroke-width="2" d="M264.23,-297.23C288.87,-306.65 322.68,-319.06 353,-328.38 430.48,-352.17 520.64,-374.31 582.59,-388.69"/>
<polygon fill="#63b8ff" stroke="#63b8ff" stroke-width="2" points="582.45,-392.71 592.98,-391.54 584.02,-385.89 582.45,-392.71"/>
</a>
</g>
</g>
<!-- Node43&#45;&gt;Node19 -->
<g id="edge24_Node000043_Node000019" class="edge">
<title>Node43&#45;&gt;Node19</title>
<g id="a_edge24_Node000043_Node000019"><a xlink:title=" ">
<path fill="none" stroke="#63b8ff" stroke-width="2" d="M285.53,-277.51C312.76,-274.68 345.61,-271.27 374.08,-268.32"/>
<polygon fill="#63b8ff" stroke="#63b8ff" stroke-width="2" points="374.23,-271.51 383.82,-267 373.51,-264.55 374.23,-271.51"/>
</a>
</g>
</g>
<!-- Node43&#45;&gt;Node27 -->
<g id="edge26_Node000043_Node000027" class="edge">
<title>Node43&#45;&gt;Node27</title>
<g id="a_edge26_Node000043_Node000027"><a xlink:title=" ">
<path fill="none" stroke="#63b8ff" stroke-width="2" d="M285.21,-273.44C296.17,-270.2 307.27,-265.95 317,-260.38 336.63,-249.12 332.77,-234.51 353,-224.38 415.03,-193.29 492.52,-182.43 553.77,-179.27"/>
<polygon fill="#63b8ff" stroke="#63b8ff" stroke-width="2" points="553.75,-182.64 563.59,-178.71 553.44,-175.65 553.75,-182.64"/>
</a>
</g>
</g>
<!-- Node44 -->
<g id="Node000044" class="node">
<title>Node44</title>
<g id="a_Node000044"><a xlink:href="../../d3/df4/dbhandle_8c.html#a4bfe377ba6dd3a7e3024c825de1485dd" target="_top" xlink:title="Remove clinet from database.">
<polygon fill="white" stroke="#666666" points="530.62,-319.75 353.38,-319.75 353.38,-293 530.62,-293 530.62,-319.75"/>
<text text-anchor="middle" x="442" y="-300.55" font-family="Helvetica,sans-Serif" font-size="16.00">dbHandlClientRemove</text>
</a>
</g>
</g>
<!-- Node43&#45;&gt;Node44 -->
<g id="edge27_Node000043_Node000044" class="edge">
<title>Node43&#45;&gt;Node44</title>
<g id="a_edge27_Node000043_Node000044"><a xlink:title=" ">
<path fill="none" stroke="#63b8ff" stroke-width="2" d="M285.53,-289.51C302.46,-291.34 321.55,-293.42 340.41,-295.46"/>
<polygon fill="#63b8ff" stroke="#63b8ff" stroke-width="2" points="339.76,-299.24 350.08,-296.84 340.51,-292.28 339.76,-299.24"/>
</a>
</g>
</g>
<!-- Node44&#45;&gt;Node17 -->
<g id="edge28_Node000044_Node000017" class="edge">
<title>Node44&#45;&gt;Node17</title>
<g id="a_edge28_Node000044_Node000017"><a xlink:title=" ">
<path fill="none" stroke="#63b8ff" stroke-width="2" d="M472.79,-320.14C509.94,-337.31 573.66,-366.75 615.62,-386.14"/>
<polygon fill="#63b8ff" stroke="#63b8ff" stroke-width="2" points="614.82,-389.55 625.37,-390.57 617.76,-383.2 614.82,-389.55"/>
</a>
</g>
</g>
<!-- Node46 -->
<g id="Node000046" class="node">
<title>Node46</title>
<g id="a_Node000046"><a xlink:href="../../d7/dba/menuutil_8c.html#acef3bbabe9293534ee600e9b89eda07b" target="_top" xlink:title="Calculate minimum window width.">
<polygon fill="#fff0f0" stroke="red" points="501.75,-116.75 382.25,-116.75 382.25,-90 501.75,-90 501.75,-116.75"/>
<text text-anchor="middle" x="442" y="-97.55" font-family="Helvetica,sans-Serif" font-size="16.00">computeWidth</text>
</a>
</g>
</g>
<!-- Node45&#45;&gt;Node46 -->
<g id="edge31_Node000045_Node000046" class="edge">
<title>Node45&#45;&gt;Node46</title>
<g id="a_edge31_Node000045_Node000046"><a xlink:title=" ">
<path fill="none" stroke="#63b8ff" stroke-width="2" d="M280.59,-86.73C307.28,-89.5 340.29,-92.92 369.41,-95.95"/>
<polygon fill="#63b8ff" stroke="#63b8ff" stroke-width="2" points="368.74,-99.71 379.05,-97.26 369.46,-92.74 368.74,-99.71"/>
</a>
</g>
</g>
<!-- Node47 -->
<g id="Node000047" class="node">
<title>Node47</title>
<g id="a_Node000047"><a xlink:href="../../de/dc9/mmenu_8c.html#a29c2128f12316ca1ce77fd1d686f6ec7" target="_top" xlink:title="Invokes menu.">
<polygon fill="#fff0f0" stroke="red" points="487.88,-71.75 396.12,-71.75 396.12,-45 487.88,-45 487.88,-71.75"/>
<text text-anchor="middle" x="442" y="-52.55" font-family="Helvetica,sans-Serif" font-size="16.00">mainMenu</text>
</a>
</g>
</g>
<!-- Node45&#45;&gt;Node47 -->
<g id="edge32_Node000045_Node000047" class="edge">
<title>Node45&#45;&gt;Node47</title>
<g id="a_edge32_Node000045_Node000047"><a xlink:title=" ">
<path fill="none" stroke="#63b8ff" stroke-width="2" d="M280.59,-75.78C311.51,-72.42 350.89,-68.15 382.9,-64.68"/>
<polygon fill="#63b8ff" stroke="#63b8ff" stroke-width="2" points="383.11,-67.85 392.67,-63.29 382.35,-60.89 383.11,-67.85"/>
</a>
</g>
</g>
<!-- Node71 -->
<g id="Node000071" class="node">
<title>Node71</title>
<g id="a_Node000071"><a xlink:href="../../d7/dba/menuutil_8c.html#ae9bbf0350539ebe186df7d627930ca51" target="_top" xlink:title="Control menu navigation and invoke option that we chose.">
<polygon fill="white" stroke="#666666" points="529.12,-26.75 354.88,-26.75 354.88,0 529.12,0 529.12,-26.75"/>
<text text-anchor="middle" x="442" y="-7.55" font-family="Helvetica,sans-Serif" font-size="16.00">menuHandleIteraction</text>
</a>
</g>
</g>
<!-- Node45&#45;&gt;Node71 -->
<g id="edge33_Node000045_Node000071" class="edge">
<title>Node45&#45;&gt;Node71</title>
<g id="a_edge33_Node000045_Node000071"><a xlink:title=" ">
<path fill="none" stroke="#63b8ff" stroke-width="2" d="M264.25,-67.6C288.91,-58.2 322.72,-45.81 353,-36.38 359.33,-34.4 365.95,-32.46 372.59,-30.59"/>
<polygon fill="#63b8ff" stroke="#63b8ff" stroke-width="2" points="374.2,-33.23 382.92,-27.2 372.35,-26.48 374.2,-33.23"/>
</a>
</g>
</g>
</g>
</svg>
