<?xml version="1.0" encoding="UTF-8" standalone="no"?>
<!DOCTYPE svg PUBLIC "-//W3C//DTD SVG 1.1//EN"
 "http://www.w3.org/Graphics/SVG/1.1/DTD/svg11.dtd">
<!-- Generated by graphviz version 8.0.5 (0)
 -->
<!-- Title: clientGetListViewString Pages: 1 -->
<svg width="689pt" height="125pt"
 viewBox="0.00 0.00 689.25 124.75" xmlns="http://www.w3.org/2000/svg" xmlns:xlink="http://www.w3.org/1999/xlink">
<g id="graph0" class="graph" transform="scale(1 1) rotate(0) translate(4 120.75)">
<title>clientGetListViewString</title>
<!-- Node1 -->
<g id="Node000001" class="node">
<title>Node1</title>
<g id="a_Node000001"><a xlink:title="Given client generates string repesenting client string in listView friendly format....">
<polygon fill="#999999" stroke="#666666" points="681.25,-48.75 498.75,-48.75 498.75,-22 681.25,-22 681.25,-48.75"/>
<text text-anchor="middle" x="590" y="-29.55" font-family="Helvetica,sans-Serif" font-size="16.00">clientGetListViewString</text>
</a>
</g>
</g>
<!-- Node2 -->
<g id="Node000002" class="node">
<title>Node2</title>
<g id="a_Node000002"><a xlink:href="../../da/de9/clientsmenu_8c.html#a1d711b31a5a18af01cdd582e537ff921" target="_top" xlink:title="Invokes ListView of clients.">
<polygon fill="white" stroke="#666666" points="462.75,-70.75 353,-70.75 353,-44 462.75,-44 462.75,-70.75"/>
<text text-anchor="middle" x="407.88" y="-51.55" font-family="Helvetica,sans-Serif" font-size="16.00">clientChoose</text>
</a>
</g>
</g>
<!-- Node1&#45;&gt;Node2 -->
<g id="edge1_Node000001_Node000002" class="edge">
<title>Node1&#45;&gt;Node2</title>
<g id="a_edge1_Node000001_Node000002"><a xlink:title=" ">
<path fill="none" stroke="#63b8ff" stroke-width="2" d="M485.7,-47.99C477.94,-48.94 470.31,-49.87 463.05,-50.76"/>
<polygon fill="#63b8ff" stroke="#63b8ff" stroke-width="2" points="485.91,-51.13 495.41,-46.44 485.06,-44.18 485.91,-51.13"/>
</a>
</g>
</g>
<!-- Node12 -->
<g id="Node000012" class="node">
<title>Node12</title>
<g id="a_Node000012"><a xlink:href="../../da/de9/clientsmenu_8c.html#ae81aa78f6e32fdd87e554ba85c063111" target="_top" xlink:title="Remove client.">
<polygon fill="white" stroke="#666666" points="285.12,-26.75 170.88,-26.75 170.88,0 285.12,0 285.12,-26.75"/>
<text text-anchor="middle" x="228" y="-7.55" font-family="Helvetica,sans-Serif" font-size="16.00">clientRemove</text>
</a>
</g>
</g>
<!-- Node1&#45;&gt;Node12 -->
<g id="edge8_Node000001_Node000012" class="edge">
<title>Node1&#45;&gt;Node12</title>
<g id="a_edge8_Node000001_Node000012"><a xlink:title=" ">
<path fill="none" stroke="#63b8ff" stroke-width="2" d="M485.82,-29.07C420.64,-25.09 338.91,-20.09 285.39,-16.82"/>
<polygon fill="#63b8ff" stroke="#63b8ff" stroke-width="2" points="485.43,-32.74 495.62,-29.85 485.85,-25.75 485.43,-32.74"/>
</a>
</g>
</g>
<!-- Node3 -->
<g id="Node000003" class="node">
<title>Node3</title>
<g id="a_Node000003"><a xlink:href="../../da/de9/clientsmenu_8c.html#a1aa5fbc029a7e320bf6f6c3a2e6e27cc" target="_top" xlink:title="Wrapper around clientChoose frees extracted client instanntly.">
<polygon fill="white" stroke="#666666" points="317,-116.75 139,-116.75 139,-90 317,-90 317,-116.75"/>
<text text-anchor="middle" x="228" y="-97.55" font-family="Helvetica,sans-Serif" font-size="16.00">clientChooseNoReturn</text>
</a>
</g>
</g>
<!-- Node2&#45;&gt;Node3 -->
<g id="edge2_Node000002_Node000003" class="edge">
<title>Node2&#45;&gt;Node3</title>
<g id="a_edge2_Node000002_Node000003"><a xlink:title=" ">
<path fill="none" stroke="#63b8ff" stroke-width="2" d="M341.12,-74.38C321.86,-79.36 301.05,-84.74 282.64,-89.5"/>
<polygon fill="#63b8ff" stroke="#63b8ff" stroke-width="2" points="342.7,-77.07 351.51,-71.18 340.95,-70.29 342.7,-77.07"/>
</a>
</g>
</g>
<!-- Node11 -->
<g id="Node000011" class="node">
<title>Node11</title>
<g id="a_Node000011"><a xlink:href="../../da/de9/clientsmenu_8c.html#a3785053dd7fa7ee54cb52674dadf5941" target="_top" xlink:title="Edit client.">
<polygon fill="white" stroke="#666666" points="269,-71.75 187,-71.75 187,-45 269,-45 269,-71.75"/>
<text text-anchor="middle" x="228" y="-52.55" font-family="Helvetica,sans-Serif" font-size="16.00">clientEdit</text>
</a>
</g>
</g>
<!-- Node2&#45;&gt;Node11 -->
<g id="edge4_Node000002_Node000011" class="edge">
<title>Node2&#45;&gt;Node11</title>
<g id="a_edge4_Node000002_Node000011"><a xlink:title=" ">
<path fill="none" stroke="#63b8ff" stroke-width="2" d="M339.68,-57.75C316.03,-57.89 290.21,-58.03 269.45,-58.15"/>
<polygon fill="#63b8ff" stroke="#63b8ff" stroke-width="2" points="339.56,-61.24 349.54,-57.68 339.52,-54.24 339.56,-61.24"/>
</a>
</g>
</g>
<!-- Node2&#45;&gt;Node12 -->
<g id="edge6_Node000002_Node000012" class="edge">
<title>Node2&#45;&gt;Node12</title>
<g id="a_edge6_Node000002_Node000012"><a xlink:title=" ">
<path fill="none" stroke="#63b8ff" stroke-width="2" d="M340.18,-40.88C321.95,-36.37 302.4,-31.53 284.85,-27.19"/>
<polygon fill="#63b8ff" stroke="#63b8ff" stroke-width="2" points="339.99,-44.93 350.54,-43.93 341.67,-38.14 339.99,-44.93"/>
</a>
</g>
</g>
<!-- Node4 -->
<g id="Node000004" class="node">
<title>Node4</title>
<g id="a_Node000004"><a xlink:href="../../da/de9/clientsmenu_8c.html#ad2a8354e045a2d4deb82f4b3b20ad5a4" target="_top" xlink:title="Handles displaying of clients menu.">
<polygon fill="#fff0f0" stroke="red" points="103,-71.75 0,-71.75 0,-45 103,-45 103,-71.75"/>
<text text-anchor="middle" x="51.5" y="-52.55" font-family="Helvetica,sans-Serif" font-size="16.00">clientsMenu</text>
</a>
</g>
</g>
<!-- Node3&#45;&gt;Node4 -->
<g id="edge3_Node000003_Node000004" class="edge">
<title>Node3&#45;&gt;Node4</title>
<g id="a_edge3_Node000003_Node000004"><a xlink:title=" ">
<path fill="none" stroke="#63b8ff" stroke-width="2" d="M160.67,-86.27C141.7,-81.38 121.32,-76.12 103.42,-71.51"/>
<polygon fill="#63b8ff" stroke="#63b8ff" stroke-width="2" points="160.66,-90.4 171.22,-89.51 162.41,-83.62 160.66,-90.4"/>
</a>
</g>
</g>
<!-- Node11&#45;&gt;Node4 -->
<g id="edge5_Node000011_Node000004" class="edge">
<title>Node11&#45;&gt;Node4</title>
<g id="a_edge5_Node000011_Node000004"><a xlink:title=" ">
<path fill="none" stroke="#63b8ff" stroke-width="2" d="M173.82,-58.38C151.44,-58.38 125.51,-58.38 103.38,-58.38"/>
<polygon fill="#63b8ff" stroke="#63b8ff" stroke-width="2" points="173.53,-61.88 183.53,-58.38 173.53,-54.88 173.53,-61.88"/>
</a>
</g>
</g>
<!-- Node12&#45;&gt;Node4 -->
<g id="edge7_Node000012_Node000004" class="edge">
<title>Node12&#45;&gt;Node4</title>
<g id="a_edge7_Node000012_Node000004"><a xlink:title=" ">
<path fill="none" stroke="#63b8ff" stroke-width="2" d="M160.67,-30.48C141.7,-35.37 121.32,-40.63 103.42,-45.24"/>
<polygon fill="#63b8ff" stroke="#63b8ff" stroke-width="2" points="162.41,-33.13 171.22,-27.24 160.66,-26.35 162.41,-33.13"/>
</a>
</g>
</g>
</g>
</svg>
