<?xml version="1.0" encoding="UTF-8" standalone="no"?>
<!DOCTYPE svg PUBLIC "-//W3C//DTD SVG 1.1//EN"
 "http://www.w3.org/Graphics/SVG/1.1/DTD/svg11.dtd">
<!-- Generated by graphviz version 8.0.5 (0)
 -->
<!-- Title: mmenu.c Pages: 1 -->
<!--zoomable 286 -->

<svg id="main" version="1.1" xmlns="http://www.w3.org/2000/svg" xmlns:xlink="http://www.w3.org/1999/xlink" xml:space="preserve" onload="init(evt)">
<style type="text/css"><![CDATA[
.node, .edge {opacity: 0.7;}
.node.selected, .edge.selected {opacity: 1;}
.edge:hover path { stroke: red; }
.edge:hover polygon { stroke: red; fill: red; }
]]></style>

<defs>
  <circle id="rim" cx="0" cy="0" r="7"/>
  <circle id="rim2" cx="0" cy="0" r="3.5"/>
  <g id="zoomPlus">
    <use xlink:href="#rim" fill="#404040"><set attributeName="fill" to="#808080" begin="zoomplus.mouseover" end="zoomplus.mouseout"/></use>
    <path d="M-4,0h8M0,-4v8" fill="none" stroke="white" stroke-width="1.5" pointer-events="none"/>
  </g>
  <g id="zoomMin">
    <use xlink:href="#rim" fill="#404040"><set attributeName="fill" to="#808080" begin="zoomminus.mouseover" end="zoomminus.mouseout"/></use>
    <path d="M-4,0h8" fill="none" stroke="white" stroke-width="1.5" pointer-events="none"/>
  </g>
  <g id="arrowUp" transform="translate(30 24)">
    <use xlink:href="#rim"/>
    <path pointer-events="none" fill="none" stroke="white" stroke-width="1.5" d="M0,-3.0v7 M-2.5,-0.5L0,-3.0L2.5,-0.5"/>
  </g>
  <g id="arrowRight" transform="rotate(90) translate(36 -43)">
    <use xlink:href="#rim"/>
    <path pointer-events="none" fill="none" stroke="white" stroke-width="1.5" d="M0,-3.0v7 M-2.5,-0.5L0,-3.0L2.5,-0.5"/>
  </g>
  <g id="arrowDown" transform="rotate(180) translate(-30 -48)">
    <use xlink:href="#rim"/>
    <path pointer-events="none" fill="none" stroke="white" stroke-width="1.5" d="M0,-3.0v7 M-2.5,-0.5L0,-3.0L2.5,-0.5"/>
  </g>
  <g id="arrowLeft" transform="rotate(270) translate(-36 17)">
    <use xlink:href="#rim"/>
    <path pointer-events="none" fill="none" stroke="white" stroke-width="1.5" d="M0,-3.0v7 M-2.5,-0.5L0,-3.0L2.5,-0.5"/>
  </g>
  <g id="resetDef">
    <use xlink:href="#rim2" fill="#404040"><set attributeName="fill" to="#808080" begin="reset.mouseover" end="reset.mouseout"/></use>
  </g>
</defs>
<script type="application/ecmascript">
var viewWidth = 713;
var viewHeight = 286;
var sectionId = 'dynsection-0';
</script>
<script type="application/ecmascript" xlink:href="../../svg.min.js"/>
<svg id="graph" class="graph">
<g id="viewport">
<title>mmenu.c</title>
<!-- Node1 -->
<g id="Node000001" class="node">
<title>Node1</title>
<g id="a_Node000001"><a xlink:title="Menu implementation.">
<polygon fill="#999999" stroke="#666666" points="343.62,-277.75 260.88,-277.75 260.88,-251 343.62,-251 343.62,-277.75"/>
<text text-anchor="middle" x="302.25" y="-258.55" font-family="Helvetica,sans-Serif" font-size="16.00">mmenu.c</text>
</a>
</g>
</g>
<!-- Node2 -->
<g id="Node000002" class="node">
<title>Node2</title>
<g id="a_Node000002"><a xlink:href="../../df/d7b/mmenu_8h.html" target="_top" xlink:title="For invoking menu.">
<polygon fill="white" stroke="#666666" points="120,-215 36.5,-215 36.5,-188.25 120,-188.25 120,-215"/>
<text text-anchor="middle" x="78.25" y="-195.8" font-family="Helvetica,sans-Serif" font-size="16.00">mmenu.h</text>
</a>
</g>
</g>
<!-- Node1&#45;&gt;Node2 -->
<g id="edge1_Node000001_Node000002" class="edge">
<title>Node1&#45;&gt;Node2</title>
<g id="a_edge1_Node000001_Node000002"><a xlink:title=" ">
<path fill="none" stroke="#63b8ff" stroke-width="2" d="M260.38,-252.02C224.35,-242.25 172.12,-228.08 132.82,-217.43"/>
<polygon fill="#63b8ff" stroke="#63b8ff" stroke-width="2" points="132.86,-213.27 122.29,-214.03 131.03,-220.02 132.86,-213.27"/>
</a>
</g>
</g>
<!-- Node3 -->
<g id="Node000003" class="node">
<title>Node3</title>
<g id="a_Node000003"><a xlink:title=" ">
<polygon fill="#e0e0e0" stroke="#999999" points="86.5,-152.25 0,-152.25 0,-125.5 86.5,-125.5 86.5,-152.25"/>
<text text-anchor="middle" x="43.25" y="-133.05" font-family="Helvetica,sans-Serif" font-size="16.00">ncurses.h</text>
</a>
</g>
</g>
<!-- Node1&#45;&gt;Node3 -->
<g id="edge16_Node000001_Node000003" class="edge">
<title>Node1&#45;&gt;Node3</title>
<g id="a_edge16_Node000001_Node000003"><a xlink:title=" ">
<path fill="none" stroke="#63b8ff" stroke-width="2" d="M260.55,-262.34C191.12,-259.63 56.55,-249.9 27.25,-215 15.36,-200.84 21.05,-179.98 28.75,-163.83"/>
<polygon fill="#63b8ff" stroke="#63b8ff" stroke-width="2" points="32.14,-165.06 33.79,-154.59 25.97,-161.75 32.14,-165.06"/>
</a>
</g>
</g>
<!-- Node4 -->
<g id="Node000004" class="node">
<title>Node4</title>
<g id="a_Node000004"><a xlink:href="../../d6/ddc/carsmenu_8h.html" target="_top" xlink:title="Cars menu interface.">
<polygon fill="white" stroke="#666666" points="238.62,-215 137.88,-215 137.88,-188.25 238.62,-188.25 238.62,-215"/>
<text text-anchor="middle" x="188.25" y="-195.8" font-family="Helvetica,sans-Serif" font-size="16.00">carsmenu.h</text>
</a>
</g>
</g>
<!-- Node1&#45;&gt;Node4 -->
<g id="edge3_Node000001_Node000004" class="edge">
<title>Node1&#45;&gt;Node4</title>
<g id="a_edge3_Node000001_Node000004"><a xlink:title=" ">
<path fill="none" stroke="#63b8ff" stroke-width="2" d="M278.35,-250.64C262.47,-242.18 241.33,-230.91 223.53,-221.42"/>
<polygon fill="#63b8ff" stroke="#63b8ff" stroke-width="2" points="224.59,-217.96 214.12,-216.34 221.3,-224.14 224.59,-217.96"/>
</a>
</g>
</g>
<!-- Node8 -->
<g id="Node000008" class="node">
<title>Node8</title>
<g id="a_Node000008"><a xlink:href="../../d6/d4a/clientsmenu_8h.html" target="_top" xlink:title="Clients menu interface.">
<polygon fill="white" stroke="#666666" points="482.5,-215 366,-215 366,-188.25 482.5,-188.25 482.5,-215"/>
<text text-anchor="middle" x="424.25" y="-195.8" font-family="Helvetica,sans-Serif" font-size="16.00">clientsmenu.h</text>
</a>
</g>
</g>
<!-- Node1&#45;&gt;Node8 -->
<g id="edge8_Node000001_Node000008" class="edge">
<title>Node1&#45;&gt;Node8</title>
<g id="a_edge8_Node000001_Node000008"><a xlink:title=" ">
<path fill="none" stroke="#63b8ff" stroke-width="2" d="M327.83,-250.64C345.07,-242.05 368.09,-230.59 387.31,-221.02"/>
<polygon fill="#63b8ff" stroke="#63b8ff" stroke-width="2" points="389.32,-223.93 396.71,-216.34 386.2,-217.67 389.32,-223.93"/>
</a>
</g>
</g>
<!-- Node10 -->
<g id="Node000010" class="node">
<title>Node10</title>
<g id="a_Node000010"><a xlink:href="../../de/d0e/menuutil_8h.html" target="_top" xlink:title="Header file for menu operations.">
<polygon fill="white" stroke="#666666" points="347.75,-215 256.75,-215 256.75,-188.25 347.75,-188.25 347.75,-215"/>
<text text-anchor="middle" x="302.25" y="-195.8" font-family="Helvetica,sans-Serif" font-size="16.00">menuutil.h</text>
</a>
</g>
</g>
<!-- Node1&#45;&gt;Node10 -->
<g id="edge12_Node000001_Node000010" class="edge">
<title>Node1&#45;&gt;Node10</title>
<g id="a_edge12_Node000001_Node000010"><a xlink:title=" ">
<path fill="none" stroke="#63b8ff" stroke-width="2" d="M302.25,-250.79C302.25,-244.19 302.25,-235.86 302.25,-228"/>
<polygon fill="#63b8ff" stroke="#63b8ff" stroke-width="2" points="305.75,-228.2 302.25,-218.2 298.75,-228.2 305.75,-228.2"/>
</a>
</g>
</g>
<!-- Node12 -->
<g id="Node000012" class="node">
<title>Node12</title>
<g id="a_Node000012"><a xlink:href="../../d9/d03/rentalsmenu_8h.html" target="_top" xlink:title="Rentals menu interface.">
<polygon fill="white" stroke="#666666" points="619.62,-215 500.88,-215 500.88,-188.25 619.62,-188.25 619.62,-215"/>
<text text-anchor="middle" x="560.25" y="-195.8" font-family="Helvetica,sans-Serif" font-size="16.00">rentalsmenu.h</text>
</a>
</g>
</g>
<!-- Node1&#45;&gt;Node12 -->
<g id="edge15_Node000001_Node000012" class="edge">
<title>Node1&#45;&gt;Node12</title>
<g id="a_edge15_Node000001_Node000012"><a xlink:title=" ">
<path fill="none" stroke="#63b8ff" stroke-width="2" d="M343.99,-253.55C384.36,-244.04 446.18,-229.48 493.41,-218.36"/>
<polygon fill="#63b8ff" stroke="#63b8ff" stroke-width="2" points="495.07,-221.1 504,-215.4 493.47,-214.28 495.07,-221.1"/>
</a>
</g>
</g>
<!-- Node13 -->
<g id="Node000013" class="node">
<title>Node13</title>
<g id="a_Node000013"><a xlink:title=" ">
<polygon fill="#e0e0e0" stroke="#999999" points="705.12,-215 637.38,-215 637.38,-188.25 705.12,-188.25 705.12,-215"/>
<text text-anchor="middle" x="671.25" y="-195.8" font-family="Helvetica,sans-Serif" font-size="16.00">stdlib.h</text>
</a>
</g>
</g>
<!-- Node1&#45;&gt;Node13 -->
<g id="edge17_Node000001_Node000013" class="edge">
<title>Node1&#45;&gt;Node13</title>
<g id="a_edge17_Node000001_Node000013"><a xlink:title=" ">
<path fill="none" stroke="#63b8ff" stroke-width="2" d="M344,-258.98C403.95,-252.28 518.06,-238.08 624.49,-215.61"/>
<polygon fill="#63b8ff" stroke="#63b8ff" stroke-width="2" points="626.05,-218.42 635.09,-212.9 624.57,-211.58 626.05,-218.42"/>
</a>
</g>
</g>
<!-- Node2&#45;&gt;Node3 -->
<g id="edge2_Node000002_Node000003" class="edge">
<title>Node2&#45;&gt;Node3</title>
<g id="a_edge2_Node000002_Node000003"><a xlink:title=" ">
<path fill="none" stroke="#63b8ff" stroke-width="2" d="M71,-188.04C66.92,-180.95 61.68,-171.87 56.87,-163.51"/>
<polygon fill="#63b8ff" stroke="#63b8ff" stroke-width="2" points="59.52,-161.36 51.49,-154.45 53.45,-164.86 59.52,-161.36"/>
</a>
</g>
</g>
<!-- Node5 -->
<g id="Node000005" class="node">
<title>Node5</title>
<g id="a_Node000005"><a xlink:href="../../db/d42/car_8h.html" target="_top" xlink:title="Interface for Car structure.">
<polygon fill="white" stroke="#666666" points="233.88,-152.25 182.62,-152.25 182.62,-125.5 233.88,-125.5 233.88,-152.25"/>
<text text-anchor="middle" x="208.25" y="-133.05" font-family="Helvetica,sans-Serif" font-size="16.00">car.h</text>
</a>
</g>
</g>
<!-- Node4&#45;&gt;Node5 -->
<g id="edge4_Node000004_Node000005" class="edge">
<title>Node4&#45;&gt;Node5</title>
<g id="a_edge4_Node000004_Node000005"><a xlink:title=" ">
<path fill="none" stroke="#63b8ff" stroke-width="2" d="M192.39,-188.04C194.62,-181.28 197.44,-172.7 200.09,-164.67"/>
<polygon fill="#63b8ff" stroke="#63b8ff" stroke-width="2" points="204.31,-165.04 204.11,-154.45 197.66,-162.85 204.31,-165.04"/>
</a>
</g>
</g>
<!-- Node6 -->
<g id="Node000006" class="node">
<title>Node6</title>
<g id="a_Node000006"><a xlink:href="../../da/d23/list_8h.html" target="_top" xlink:title="Doubly linked list interface.">
<polygon fill="white" stroke="#666666" points="287.12,-89.5 237.38,-89.5 237.38,-62.75 287.12,-62.75 287.12,-89.5"/>
<text text-anchor="middle" x="262.25" y="-70.3" font-family="Helvetica,sans-Serif" font-size="16.00">list.h</text>
</a>
</g>
</g>
<!-- Node5&#45;&gt;Node6 -->
<g id="edge5_Node000005_Node000006" class="edge">
<title>Node5&#45;&gt;Node6</title>
<g id="a_edge5_Node000005_Node000006"><a xlink:title=" ">
<path fill="none" stroke="#63b8ff" stroke-width="2" d="M219.44,-125.29C226.1,-117.79 234.74,-108.07 242.52,-99.32"/>
<polygon fill="#63b8ff" stroke="#63b8ff" stroke-width="2" points="245.05,-101.5 249.08,-91.7 239.82,-96.85 245.05,-101.5"/>
</a>
</g>
</g>
<!-- Node7 -->
<g id="Node000007" class="node">
<title>Node7</title>
<g id="a_Node000007"><a xlink:title=" ">
<polygon fill="#e0e0e0" stroke="#999999" points="303.25,-26.75 221.25,-26.75 221.25,0 303.25,0 303.25,-26.75"/>
<text text-anchor="middle" x="262.25" y="-7.55" font-family="Helvetica,sans-Serif" font-size="16.00">stdbool.h</text>
</a>
</g>
</g>
<!-- Node5&#45;&gt;Node7 -->
<g id="edge7_Node000005_Node000007" class="edge">
<title>Node5&#45;&gt;Node7</title>
<g id="a_edge7_Node000005_Node000007"><a xlink:title=" ">
<path fill="none" stroke="#63b8ff" stroke-width="2" d="M210.22,-125.18C212.91,-109.85 218.55,-83.54 228.25,-62.75 232.33,-54 238,-45.15 243.55,-37.45"/>
<polygon fill="#63b8ff" stroke="#63b8ff" stroke-width="2" points="247.11,-39.23 250.38,-29.15 241.54,-34.99 247.11,-39.23"/>
</a>
</g>
</g>
<!-- Node6&#45;&gt;Node7 -->
<g id="edge6_Node000006_Node000007" class="edge">
<title>Node6&#45;&gt;Node7</title>
<g id="a_edge6_Node000006_Node000007"><a xlink:title=" ">
<path fill="none" stroke="#63b8ff" stroke-width="2" d="M262.25,-62.54C262.25,-55.94 262.25,-47.61 262.25,-39.75"/>
<polygon fill="#63b8ff" stroke="#63b8ff" stroke-width="2" points="265.75,-39.95 262.25,-29.95 258.75,-39.95 265.75,-39.95"/>
</a>
</g>
</g>
<!-- Node9 -->
<g id="Node000009" class="node">
<title>Node9</title>
<g id="a_Node000009"><a xlink:href="../../d8/de1/client_8h.html" target="_top" xlink:title="Interface for Client structure.">
<polygon fill="white" stroke="#666666" points="438.12,-152.25 370.38,-152.25 370.38,-125.5 438.12,-125.5 438.12,-152.25"/>
<text text-anchor="middle" x="404.25" y="-133.05" font-family="Helvetica,sans-Serif" font-size="16.00">client.h</text>
</a>
</g>
</g>
<!-- Node8&#45;&gt;Node9 -->
<g id="edge9_Node000008_Node000009" class="edge">
<title>Node8&#45;&gt;Node9</title>
<g id="a_edge9_Node000008_Node000009"><a xlink:title=" ">
<path fill="none" stroke="#63b8ff" stroke-width="2" d="M420.11,-188.04C417.88,-181.28 415.06,-172.7 412.41,-164.67"/>
<polygon fill="#63b8ff" stroke="#63b8ff" stroke-width="2" points="414.84,-162.85 408.39,-154.45 408.19,-165.04 414.84,-162.85"/>
</a>
</g>
</g>
<!-- Node9&#45;&gt;Node6 -->
<g id="edge10_Node000009_Node000006" class="edge">
<title>Node9&#45;&gt;Node6</title>
<g id="a_edge10_Node000009_Node000006"><a xlink:title=" ">
<path fill="none" stroke="#63b8ff" stroke-width="2" d="M374.48,-125.14C352.56,-115.76 322.61,-102.95 299.17,-92.92"/>
<polygon fill="#63b8ff" stroke="#63b8ff" stroke-width="2" points="299.81,-89.53 289.24,-88.82 297.06,-95.97 299.81,-89.53"/>
</a>
</g>
</g>
<!-- Node9&#45;&gt;Node7 -->
<g id="edge11_Node000009_Node000007" class="edge">
<title>Node9&#45;&gt;Node7</title>
<g id="a_edge11_Node000009_Node000007"><a xlink:title=" ">
<path fill="none" stroke="#63b8ff" stroke-width="2" d="M389.59,-125.12C365.25,-103.95 316.25,-61.34 286.64,-35.59"/>
<polygon fill="#63b8ff" stroke="#63b8ff" stroke-width="2" points="288.89,-32.16 279.04,-28.24 284.29,-37.45 288.89,-32.16"/>
</a>
</g>
</g>
<!-- Node10&#45;&gt;Node6 -->
<g id="edge13_Node000010_Node000006" class="edge">
<title>Node10&#45;&gt;Node6</title>
<g id="a_edge13_Node000010_Node000006"><a xlink:title=" ">
<path fill="none" stroke="#63b8ff" stroke-width="2" d="M296.15,-188.11C291.62,-178.47 285.51,-164.73 281.25,-152.25 275.69,-135.94 270.94,-117.15 267.58,-102.44"/>
<polygon fill="#63b8ff" stroke="#63b8ff" stroke-width="2" points="270.36,-100.82 264.8,-91.8 263.53,-102.32 270.36,-100.82"/>
</a>
</g>
</g>
<!-- Node11 -->
<g id="Node000011" class="node">
<title>Node11</title>
<g id="a_Node000011"><a xlink:title=" ">
<polygon fill="#e0e0e0" stroke="#999999" points="352.12,-152.25 290.38,-152.25 290.38,-125.5 352.12,-125.5 352.12,-152.25"/>
<text text-anchor="middle" x="321.25" y="-133.05" font-family="Helvetica,sans-Serif" font-size="16.00">form.h</text>
</a>
</g>
</g>
<!-- Node10&#45;&gt;Node11 -->
<g id="edge14_Node000010_Node000011" class="edge">
<title>Node10&#45;&gt;Node11</title>
<g id="a_edge14_Node000010_Node000011"><a xlink:title=" ">
<path fill="none" stroke="#63b8ff" stroke-width="2" d="M306.19,-188.04C308.3,-181.28 310.98,-172.7 313.5,-164.67"/>
<polygon fill="#63b8ff" stroke="#63b8ff" stroke-width="2" points="317.67,-165.04 317.32,-154.45 310.99,-162.95 317.67,-165.04"/>
</a>
</g>
</g>
</g>
</svg>

<g id="navigator" transform="translate(0 0)" fill="#404254">
  <rect fill="#f2f5e9" fill-opacity="0.5" stroke="#606060" stroke-width=".5" x="0" y="0" width="60" height="60"/>
  <use id="zoomplus" xlink:href="#zoomPlus" x="17" y="9" onmousedown="handleZoom(evt,'in')"/>
  <use id="zoomminus" xlink:href="#zoomMin" x="42" y="9" onmousedown="handleZoom(evt,'out')"/>
  <use id="reset" xlink:href="#resetDef" x="30" y="36" onmousedown="handleReset()"/>
   <use id="arrowup" xlink:href="#arrowUp" x="0" y="0" onmousedown="handlePan(0,-1)"/>
  <use id="arrowright" xlink:href="#arrowRight" x="0" y="0" onmousedown="handlePan(1,0)"/>
  <use id="arrowdown" xlink:href="#arrowDown" x="0" y="0" onmousedown="handlePan(0,1)"/>
  <use id="arrowleft" xlink:href="#arrowLeft" x="0" y="0" onmousedown="handlePan(-1,0)"/>
</g>
<svg viewBox="0 0 15 15" width="100%" height="30px" preserveAspectRatio="xMaxYMin meet">
 <g id="arrow_out" transform="scale(0.3 0.3)">
  <a xlink:href="mmenu_8c__incl_org.svg" target="_base">
   <rect id="button" ry="5" rx="5" y="6" x="6" height="38" width="38"
        fill="#f2f5e9" fill-opacity="0.5" stroke="#606060" stroke-width="1.0"/>
   <path id="arrow"
     d="M 11.500037,31.436501 C 11.940474,20.09759 22.043105,11.32322 32.158766,21.979434 L 37.068811,17.246167 C 37.068811,17.246167 37.088388,32 37.088388,32 L 22.160133,31.978069 C 22.160133,31.978069 26.997745,27.140456 26.997745,27.140456 C 18.528582,18.264221 13.291696,25.230495 11.500037,31.436501 z"
     style="fill:#404040;"/>
  </a>
 </g>
</svg>

<style type='text/css'>
<![CDATA[
[data-mouse-over-selected='false'] { opacity: 0.7; }
[data-mouse-over-selected='true']  { opacity: 1.0; }
]]>
</style>
<script type="application/ecmascript"><![CDATA[
document.addEventListener('DOMContentLoaded', (event) => {
  highlightEdges();
  highlightAdjacentNodes();
});
]]></script>
</svg>
