<?xml version="1.0" encoding="UTF-8" standalone="no"?>
<!DOCTYPE svg PUBLIC "-//W3C//DTD SVG 1.1//EN"
 "http://www.w3.org/Graphics/SVG/1.1/DTD/svg11.dtd">
<!-- Generated by graphviz version 8.0.5 (0)
 -->
<!-- Title: Graph Legend Pages: 1 -->
<svg width="721pt" height="288pt"
 viewBox="0.00 0.00 720.50 288.25" xmlns="http://www.w3.org/2000/svg" xmlns:xlink="http://www.w3.org/1999/xlink">
<g id="graph0" class="graph" transform="scale(1 1) rotate(0) translate(4 284.25)">
<title>Graph Legend</title>
<!-- Node9 -->
<g id="Node000009" class="node">
<title>Node9</title>
<g id="a_Node000009"><a xlink:title=" ">
<polygon fill="#999999" stroke="#666666" points="411,-26.75 332,-26.75 332,0 411,0 411,-26.75"/>
<text text-anchor="middle" x="371.5" y="-7.55" font-family="Helvetica,sans-Serif" font-size="16.00">Inherited</text>
</a>
</g>
</g>
<!-- Node10 -->
<g id="Node000010" class="node">
<title>Node10</title>
<g id="a_Node000010"><a xlink:title=" ">
<polygon fill="white" stroke="#666666" points="97,-130.88 0,-130.88 0,-104.12 97,-104.12 97,-130.88"/>
<text text-anchor="middle" x="48.5" y="-111.67" font-family="Helvetica,sans-Serif" font-size="16.00">PublicBase</text>
</a>
</g>
</g>
<!-- Node10&#45;&gt;Node9 -->
<g id="edge1" class="edge">
<title>Node10&#45;&gt;Node9</title>
<g id="a_edge1"><a xlink:title=" ">
<path fill="none" stroke="#63b8ff" stroke-width="2" d="M77.06,-96.63C85.88,-91.14 95.83,-85.58 105.5,-81.5 182.3,-49.12 278.4,-29.64 331.53,-20.56"/>
<polygon fill="#63b8ff" stroke="#63b8ff" stroke-width="2" points="74.7,-94.29 68.22,-102.67 78.51,-100.16 74.7,-94.29"/>
</a>
</g>
</g>
<!-- Node11 -->
<g id="Node000011" class="node">
<title>Node11</title>
<g id="a_Node000011"><a xlink:title=" ">
<polygon fill="#fff0f0" stroke="red" points="92.5,-257.62 4.5,-257.62 4.5,-230.88 92.5,-230.88 92.5,-257.62"/>
<text text-anchor="middle" x="48.5" y="-238.43" font-family="Helvetica,sans-Serif" font-size="16.00">Truncated</text>
</a>
</g>
</g>
<!-- Node11&#45;&gt;Node10 -->
<g id="edge2" class="edge">
<title>Node11&#45;&gt;Node10</title>
<g id="a_edge2"><a xlink:title=" ">
<path fill="none" stroke="#63b8ff" stroke-width="2" d="M48.5,-217.84C48.5,-191.54 48.5,-151.52 48.5,-131.24"/>
<polygon fill="#63b8ff" stroke="#63b8ff" stroke-width="2" points="45,-217.83 48.5,-227.83 52,-217.83 45,-217.83"/>
</a>
</g>
</g>
<!-- Node13 -->
<g id="node4" class="node">
<title>Node13</title>
<g id="a_node4"><a xlink:title=" ">
<polygon fill="white" stroke="#666666" points="236.38,-153.5 114.62,-153.5 114.62,-81.5 236.38,-81.5 236.38,-153.5"/>
<text text-anchor="middle" x="175.5" y="-111.67" font-family="Helvetica,sans-Serif" font-size="16.00">ProtectedBase</text>
</a>
</g>
</g>
<!-- Node13&#45;&gt;Node9 -->
<g id="edge3" class="edge">
<title>Node13&#45;&gt;Node9</title>
<g id="a_edge3"><a xlink:title=" ">
<path fill="none" stroke="darkgreen" stroke-width="2" d="M247.85,-78.8C282.73,-60.63 322.29,-40.02 347.06,-27.11"/>
<polygon fill="darkgreen" stroke="darkgreen" stroke-width="2" points="245.96,-75.88 238.71,-83.61 249.2,-82.09 245.96,-75.88"/>
</a>
</g>
</g>
<!-- Node14 -->
<g id="node5" class="node">
<title>Node14</title>
<g id="a_node5"><a xlink:title=" ">
<polygon fill="white" stroke="#666666" points="357,-153.5 254,-153.5 254,-81.5 357,-81.5 357,-153.5"/>
<text text-anchor="middle" x="305.5" y="-111.67" font-family="Helvetica,sans-Serif" font-size="16.00">PrivateBase</text>
</a>
</g>
</g>
<!-- Node14&#45;&gt;Node9 -->
<g id="edge4" class="edge">
<title>Node14&#45;&gt;Node9</title>
<g id="a_edge4"><a xlink:title=" ">
<path fill="none" stroke="#8b1a1a" stroke-width="2" d="M335.35,-70.32C345.54,-54.54 356.15,-38.13 363.21,-27.2"/>
<polygon fill="#8b1a1a" stroke="#8b1a1a" stroke-width="2" points="331.89,-68.77 329.4,-79.07 337.77,-72.57 331.89,-68.77"/>
</a>
</g>
</g>
<!-- Node15 -->
<g id="Node000015" class="node">
<title>Node15</title>
<g id="a_Node000015"><a xlink:title=" ">
<polygon fill="#e0e0e0" stroke="#999999" points="500.25,-130.88 374.75,-130.88 374.75,-104.12 500.25,-104.12 500.25,-130.88"/>
<text text-anchor="middle" x="437.5" y="-111.67" font-family="Helvetica,sans-Serif" font-size="16.00">Undocumented</text>
</a>
</g>
</g>
<!-- Node15&#45;&gt;Node9 -->
<g id="edge5" class="edge">
<title>Node15&#45;&gt;Node9</title>
<g id="a_edge5"><a xlink:title=" ">
<path fill="none" stroke="#63b8ff" stroke-width="2" d="M422.52,-93.31C409.23,-72.76 390.33,-43.51 379.66,-27"/>
<polygon fill="#63b8ff" stroke="#63b8ff" stroke-width="2" points="420.04,-95.48 428.41,-101.98 425.92,-91.68 420.04,-95.48"/>
</a>
</g>
</g>
<!-- Node16 -->
<g id="node7" class="node">
<title>Node16</title>
<g id="a_node7"><a xlink:title=" ">
<polygon fill="white" stroke="#666666" points="622.38,-153.5 518.62,-153.5 518.62,-81.5 622.38,-81.5 622.38,-153.5"/>
<text text-anchor="middle" x="570.5" y="-111.67" font-family="Helvetica,sans-Serif" font-size="16.00">Templ&lt; int &gt;</text>
</a>
</g>
</g>
<!-- Node16&#45;&gt;Node9 -->
<g id="edge6" class="edge">
<title>Node16&#45;&gt;Node9</title>
<g id="a_edge6"><a xlink:title=" ">
<path fill="none" stroke="#63b8ff" stroke-width="2" d="M506.98,-80.28C464.64,-58.13 425.03,-39.25 399.27,-27.2"/>
<polygon fill="#63b8ff" stroke="#63b8ff" stroke-width="2" points="505.91,-83.72 516.39,-85.29 509.17,-77.53 505.91,-83.72"/>
</a>
</g>
</g>
<!-- Node17 -->
<g id="node8" class="node">
<title>Node17</title>
<g id="a_node8"><a xlink:title=" ">
<polygon fill="white" stroke="#666666" points="618.62,-280.25 522.38,-280.25 522.38,-208.25 618.62,-208.25 618.62,-280.25"/>
<text text-anchor="middle" x="570.5" y="-238.43" font-family="Helvetica,sans-Serif" font-size="16.00">Templ&lt; T &gt;</text>
</a>
</g>
</g>
<!-- Node17&#45;&gt;Node16 -->
<g id="edge7" class="edge">
<title>Node17&#45;&gt;Node16</title>
<g id="a_edge7"><a xlink:title=" ">
<path fill="none" stroke="orange" stroke-width="2" stroke-dasharray="5,2" d="M570.5,-195C570.5,-181.19 570.5,-166.42 570.5,-153.57"/>
<polygon fill="orange" stroke="orange" stroke-width="2" points="567,-194.84 570.5,-204.84 574,-194.84 567,-194.84"/>
</a>
</g>
<text text-anchor="middle" x="592.62" y="-175.05" font-family="Helvetica,sans-Serif" font-size="16.00" fill="grey">&lt; int &gt;</text>
</g>
<!-- Node18 -->
<g id="node9" class="node">
<title>Node18</title>
<g id="a_node9"><a xlink:title=" ">
<polygon fill="white" stroke="#666666" points="712.5,-153.5 640.5,-153.5 640.5,-81.5 712.5,-81.5 712.5,-153.5"/>
<text text-anchor="middle" x="676.5" y="-111.67" font-family="Helvetica,sans-Serif" font-size="16.00">Used</text>
</a>
</g>
</g>
<!-- Node18&#45;&gt;Node9 -->
<g id="edge8" class="edge">
<title>Node18&#45;&gt;Node9</title>
<g id="a_edge8"><a xlink:title=" ">
<path fill="none" stroke="#9a32cd" stroke-width="2" stroke-dasharray="5,2" d="M628.62,-80.78C549.51,-43.83 461.21,-26.99 411.13,-19.47"/>
<polygon fill="#9a32cd" stroke="#9a32cd" stroke-width="2" points="627.7,-84.18 638.22,-85.37 630.74,-77.88 627.7,-84.18"/>
</a>
</g>
<text text-anchor="middle" x="632.62" y="-48.3" font-family="Helvetica,sans-Serif" font-size="16.00" fill="grey">m_usedClass</text>
</g>
</g>
</svg>
