<?xml version="1.0" encoding="UTF-8" standalone="no"?>
<!DOCTYPE svg PUBLIC "-//W3C//DTD SVG 1.1//EN"
 "http://www.w3.org/Graphics/SVG/1.1/DTD/svg11.dtd">
<!-- Generated by graphviz version 8.0.5 (0)
 -->
<!-- Title: carFormParse Pages: 1 -->
<svg width="494pt" height="80pt"
 viewBox="0.00 0.00 493.50 79.75" xmlns="http://www.w3.org/2000/svg" xmlns:xlink="http://www.w3.org/1999/xlink">

<svg id="main" version="1.1" xmlns="http://www.w3.org/2000/svg" xmlns:xlink="http://www.w3.org/1999/xlink" xml:space="preserve" onload="init(evt)">
<style type="text/css"><![CDATA[
.node, .edge {opacity: 0.7;}
.node.selected, .edge.selected {opacity: 1;}
.edge:hover path { stroke: red; }
.edge:hover polygon { stroke: red; fill: red; }
]]></style>
<script type="application/ecmascript" xlink:href="../../svg.min.js"/>
<svg id="graph" class="graph">
<g id="graph0" class="graph" transform="scale(1 1) rotate(0) translate(4 75.75)">
<title>carFormParse</title>
<!-- Node1 -->
<g id="Node000001" class="node">
<title>Node1</title>
<g id="a_Node000001"><a xlink:title="Parse form.">
<polygon fill="#999999" stroke="#666666" points="485.5,-48.75 367.5,-48.75 367.5,-22 485.5,-22 485.5,-48.75"/>
<text text-anchor="middle" x="426.5" y="-29.55" font-family="Helvetica,sans-Serif" font-size="16.00">carFormParse</text>
</a>
</g>
</g>
<!-- Node2 -->
<g id="Node000002" class="node">
<title>Node2</title>
<g id="a_Node000002"><a xlink:href="../../dc/dc6/carsmenu_8c.html#a30a34923bcd0082000de90700343bd84" target="_top" xlink:title="Function for editing car.">
<polygon fill="white" stroke="#666666" points="331.5,-48.75 227.75,-48.75 227.75,-22 331.5,-22 331.5,-48.75"/>
<text text-anchor="middle" x="279.62" y="-29.55" font-family="Helvetica,sans-Serif" font-size="16.00">carFormEdit</text>
</a>
</g>
</g>
<!-- Node1&#45;&gt;Node2 -->
<g id="edge1_Node000001_Node000002" class="edge">
<title>Node1&#45;&gt;Node2</title>
<g id="a_edge1_Node000001_Node000002"><a xlink:title=" ">
<path fill="none" stroke="#63b8ff" stroke-width="2" d="M354.53,-35.38C346.83,-35.38 339.11,-35.38 331.72,-35.38"/>
<polygon fill="#63b8ff" stroke="#63b8ff" stroke-width="2" points="354.41,-38.88 364.41,-35.38 354.41,-31.88 354.41,-38.88"/>
</a>
</g>
</g>
<!-- Node3 -->
<g id="Node000003" class="node">
<title>Node3</title>
<g id="a_Node000003"><a xlink:href="../../dc/dc6/carsmenu_8c.html#a920be2aa6ca8626fdd965865d26f3fd4" target="_top" xlink:title="Function for adding a car.">
<polygon fill="white" stroke="#666666" points="191.75,-71.75 123.25,-71.75 123.25,-45 191.75,-45 191.75,-71.75"/>
<text text-anchor="middle" x="157.5" y="-52.55" font-family="Helvetica,sans-Serif" font-size="16.00">addCar</text>
</a>
</g>
</g>
<!-- Node2&#45;&gt;Node3 -->
<g id="edge2_Node000002_Node000003" class="edge">
<title>Node2&#45;&gt;Node3</title>
<g id="a_edge2_Node000002_Node000003"><a xlink:title=" ">
<path fill="none" stroke="#63b8ff" stroke-width="2" d="M214.6,-47.63C206.76,-49.13 199.02,-50.62 191.9,-51.98"/>
<polygon fill="#63b8ff" stroke="#63b8ff" stroke-width="2" points="216.17,-50.51 225.33,-45.2 214.85,-43.64 216.17,-50.51"/>
</a>
</g>
</g>
<!-- Node11 -->
<g id="Node000011" class="node">
<title>Node11</title>
<g id="a_Node000011"><a xlink:href="../../dc/dc6/carsmenu_8c.html#acf8ae724beca8714d7d114a7f2539895" target="_top" xlink:title="Edit car.">
<polygon fill="white" stroke="#666666" points="190.62,-26.75 124.38,-26.75 124.38,0 190.62,0 190.62,-26.75"/>
<text text-anchor="middle" x="157.5" y="-7.55" font-family="Helvetica,sans-Serif" font-size="16.00">carEdit</text>
</a>
</g>
</g>
<!-- Node2&#45;&gt;Node11 -->
<g id="edge4_Node000002_Node000011" class="edge">
<title>Node2&#45;&gt;Node11</title>
<g id="a_edge4_Node000002_Node000011"><a xlink:title=" ">
<path fill="none" stroke="#63b8ff" stroke-width="2" d="M214.78,-23.68C206.5,-22.17 198.31,-20.67 190.86,-19.3"/>
<polygon fill="#63b8ff" stroke="#63b8ff" stroke-width="2" points="214.87,-27.62 225.33,-25.98 216.13,-20.74 214.87,-27.62"/>
</a>
</g>
</g>
<!-- Node4 -->
<g id="Node000004" class="node">
<title>Node4</title>
<g id="a_Node000004"><a xlink:href="../../dc/dc6/carsmenu_8c.html#a7adcbb9b8798811ec24e33760623ebc0" target="_top" xlink:title="Handles displaying of cars menu.">
<polygon fill="#fff0f0" stroke="red" points="87.25,-48.75 0,-48.75 0,-22 87.25,-22 87.25,-48.75"/>
<text text-anchor="middle" x="43.62" y="-29.55" font-family="Helvetica,sans-Serif" font-size="16.00">carsMenu</text>
</a>
</g>
</g>
<!-- Node3&#45;&gt;Node4 -->
<g id="edge3_Node000003_Node000004" class="edge">
<title>Node3&#45;&gt;Node4</title>
<g id="a_edge3_Node000003_Node000004"><a xlink:title=" ">
<path fill="none" stroke="#63b8ff" stroke-width="2" d="M110.28,-48.87C102.81,-47.34 95.1,-45.75 87.71,-44.23"/>
<polygon fill="#63b8ff" stroke="#63b8ff" stroke-width="2" points="110.43,-52.89 120.93,-51.47 111.84,-46.03 110.43,-52.89"/>
</a>
</g>
</g>
<!-- Node11&#45;&gt;Node4 -->
<g id="edge5_Node000011_Node000004" class="edge">
<title>Node11&#45;&gt;Node4</title>
<g id="a_edge5_Node000011_Node000004"><a xlink:title=" ">
<path fill="none" stroke="#63b8ff" stroke-width="2" d="M111.39,-22.25C103.59,-23.78 95.49,-25.37 87.74,-26.9"/>
<polygon fill="#63b8ff" stroke="#63b8ff" stroke-width="2" points="113,-25.1 122.14,-19.74 111.65,-18.23 113,-25.1"/>
</a>
</g>
</g>
</g>
</svg>
</svg>

<style type='text/css'>
<![CDATA[
[data-mouse-over-selected='false'] { opacity: 0.7; }
[data-mouse-over-selected='true']  { opacity: 1.0; }
]]>
</style>
<script type="application/ecmascript"><![CDATA[
document.addEventListener('DOMContentLoaded', (event) => {
  highlightEdges();
  highlightAdjacentNodes();
});
]]></script>
</svg>
