<?xml version="1.0" encoding="UTF-8" standalone="no"?>
<!DOCTYPE svg PUBLIC "-//W3C//DTD SVG 1.1//EN"
 "http://www.w3.org/Graphics/SVG/1.1/DTD/svg11.dtd">
<!-- Generated by graphviz version 8.0.5 (0)
 -->
<!-- Title: carEdit Pages: 1 -->
<!--zoomable 555 -->

<svg id="main" version="1.1" xmlns="http://www.w3.org/2000/svg" xmlns:xlink="http://www.w3.org/1999/xlink" xml:space="preserve" onload="init(evt)">
<style type="text/css"><![CDATA[
.node, .edge {opacity: 0.7;}
.node.selected, .edge.selected {opacity: 1;}
.edge:hover path { stroke: red; }
.edge:hover polygon { stroke: red; fill: red; }
]]></style>

<defs>
  <circle id="rim" cx="0" cy="0" r="7"/>
  <circle id="rim2" cx="0" cy="0" r="3.5"/>
  <g id="zoomPlus">
    <use xlink:href="#rim" fill="#404040"><set attributeName="fill" to="#808080" begin="zoomplus.mouseover" end="zoomplus.mouseout"/></use>
    <path d="M-4,0h8M0,-4v8" fill="none" stroke="white" stroke-width="1.5" pointer-events="none"/>
  </g>
  <g id="zoomMin">
    <use xlink:href="#rim" fill="#404040"><set attributeName="fill" to="#808080" begin="zoomminus.mouseover" end="zoomminus.mouseout"/></use>
    <path d="M-4,0h8" fill="none" stroke="white" stroke-width="1.5" pointer-events="none"/>
  </g>
  <g id="arrowUp" transform="translate(30 24)">
    <use xlink:href="#rim"/>
    <path pointer-events="none" fill="none" stroke="white" stroke-width="1.5" d="M0,-3.0v7 M-2.5,-0.5L0,-3.0L2.5,-0.5"/>
  </g>
  <g id="arrowRight" transform="rotate(90) translate(36 -43)">
    <use xlink:href="#rim"/>
    <path pointer-events="none" fill="none" stroke="white" stroke-width="1.5" d="M0,-3.0v7 M-2.5,-0.5L0,-3.0L2.5,-0.5"/>
  </g>
  <g id="arrowDown" transform="rotate(180) translate(-30 -48)">
    <use xlink:href="#rim"/>
    <path pointer-events="none" fill="none" stroke="white" stroke-width="1.5" d="M0,-3.0v7 M-2.5,-0.5L0,-3.0L2.5,-0.5"/>
  </g>
  <g id="arrowLeft" transform="rotate(270) translate(-36 17)">
    <use xlink:href="#rim"/>
    <path pointer-events="none" fill="none" stroke="white" stroke-width="1.5" d="M0,-3.0v7 M-2.5,-0.5L0,-3.0L2.5,-0.5"/>
  </g>
  <g id="resetDef">
    <use xlink:href="#rim2" fill="#404040"><set attributeName="fill" to="#808080" begin="reset.mouseover" end="reset.mouseout"/></use>
  </g>
</defs>
<script type="application/ecmascript">
var viewWidth = 921;
var viewHeight = 555;
var sectionId = 'dynsection-7';
</script>
<script type="application/ecmascript" xlink:href="../../svg.min.js"/>
<svg id="graph" class="graph">
<g id="viewport">
<title>carEdit</title>
<!-- Node1 -->
<g id="Node000001" class="node">
<title>Node1</title>
<g id="a_Node000001"><a xlink:title="Edit car.">
<polygon fill="#999999" stroke="#666666" points="66.25,-225.79 0,-225.79 0,-199.04 66.25,-199.04 66.25,-225.79"/>
<text text-anchor="middle" x="33.12" y="-206.59" font-family="Helvetica,sans-Serif" font-size="16.00">carEdit</text>
</a>
</g>
</g>
<!-- Node2 -->
<g id="Node000002" class="node">
<title>Node2</title>
<g id="a_Node000002"><a xlink:href="../../dc/dc6/carsmenu_8c.html#ad451b82b7f3d31d1bb3fc4c210941579" target="_top" xlink:title="Invokes the listView of cars.">
<polygon fill="white" stroke="#666666" points="230.38,-352.79 136.38,-352.79 136.38,-326.04 230.38,-326.04 230.38,-352.79"/>
<text text-anchor="middle" x="183.38" y="-333.59" font-family="Helvetica,sans-Serif" font-size="16.00">carChoose</text>
</a>
</g>
</g>
<!-- Node1&#45;&gt;Node2 -->
<g id="edge1_Node000001_Node000002" class="edge">
<title>Node1&#45;&gt;Node2</title>
<g id="a_edge1_Node000001_Node000002"><a xlink:title=" ">
<path fill="none" stroke="#63b8ff" stroke-width="2" d="M50.27,-226.25C75.89,-248.19 126.08,-291.19 156.68,-317.4"/>
<polygon fill="#63b8ff" stroke="#63b8ff" stroke-width="2" points="154.38,-320.75 164.25,-324.6 158.93,-315.43 154.38,-320.75"/>
</a>
</g>
</g>
<!-- Node3 -->
<g id="Node000003" class="node">
<title>Node3</title>
<g id="a_Node000003"><a xlink:href="../../d5/df2/car_8c.html#a4ccd342eeebaa0daf8b8b5922ad3b2ff" target="_top" xlink:title="Deallocates car.">
<polygon fill="white" stroke="#666666" points="419.62,-483.79 348.12,-483.79 348.12,-457.04 419.62,-457.04 419.62,-483.79"/>
<text text-anchor="middle" x="383.88" y="-464.59" font-family="Helvetica,sans-Serif" font-size="16.00">carFree</text>
</a>
</g>
</g>
<!-- Node1&#45;&gt;Node3 -->
<g id="edge22_Node000001_Node000003" class="edge">
<title>Node1&#45;&gt;Node3</title>
<g id="a_edge22_Node000001_Node000003"><a xlink:title=" ">
<path fill="none" stroke="#63b8ff" stroke-width="2" d="M36.94,-226.26C43.47,-255.09 62.24,-322.18 102.25,-361.41 167.26,-425.17 273.75,-452.63 335.16,-463.67"/>
<polygon fill="#63b8ff" stroke="#63b8ff" stroke-width="2" points="335.47,-467.61 345.91,-465.84 336.64,-460.71 335.47,-467.61"/>
</a>
</g>
</g>
<!-- Node18 -->
<g id="Node000018" class="node">
<title>Node18</title>
<g id="a_Node000018"><a xlink:href="../../d5/df2/car_8c.html#aad591876ff6e73edb792e10ad133e602" target="_top" xlink:title="Make a clone of Car. It allocates memory internally.">
<polygon fill="#fff0f0" stroke="red" points="644.12,-245.79 563.62,-245.79 563.62,-219.04 644.12,-219.04 644.12,-245.79"/>
<text text-anchor="middle" x="603.88" y="-226.59" font-family="Helvetica,sans-Serif" font-size="16.00">carClone</text>
</a>
</g>
</g>
<!-- Node1&#45;&gt;Node18 -->
<g id="edge16_Node000001_Node000018" class="edge">
<title>Node1&#45;&gt;Node18</title>
<g id="a_edge16_Node000001_Node000018"><a xlink:title=" ">
<path fill="none" stroke="#63b8ff" stroke-width="2" d="M66.75,-213.56C161.09,-216.88 434.84,-226.5 550.41,-230.57"/>
<polygon fill="#63b8ff" stroke="#63b8ff" stroke-width="2" points="550.25,-234.17 560.37,-231.02 550.5,-227.17 550.25,-234.17"/>
</a>
</g>
</g>
<!-- Node30 -->
<g id="Node000030" class="node">
<title>Node30</title>
<g id="a_Node000030"><a xlink:href="../../dc/dc6/carsmenu_8c.html#a30a34923bcd0082000de90700343bd84" target="_top" xlink:title="Function for editing car.">
<polygon fill="white" stroke="#666666" points="235.25,-139.79 131.5,-139.79 131.5,-113.04 235.25,-113.04 235.25,-139.79"/>
<text text-anchor="middle" x="183.38" y="-120.59" font-family="Helvetica,sans-Serif" font-size="16.00">carFormEdit</text>
</a>
</g>
</g>
<!-- Node1&#45;&gt;Node30 -->
<g id="edge17_Node000001_Node000030" class="edge">
<title>Node1&#45;&gt;Node30</title>
<g id="a_edge17_Node000001_Node000030"><a xlink:title=" ">
<path fill="none" stroke="#63b8ff" stroke-width="2" d="M57.94,-198.6C82.15,-184.55 119.91,-162.65 147.49,-146.65"/>
<polygon fill="#63b8ff" stroke="#63b8ff" stroke-width="2" points="149.72,-149.24 156.62,-141.2 146.21,-143.19 149.72,-149.24"/>
</a>
</g>
</g>
<!-- Node36 -->
<g id="Node000036" class="node">
<title>Node36</title>
<g id="a_Node000036"><a xlink:href="../../d3/df4/dbhandle_8c.html#a127bbad9ae9228590e2a7eb06a085321" target="_top" xlink:title="Update a car in the database.">
<polygon fill="white" stroke="#666666" points="264.5,-51.79 102.25,-51.79 102.25,-25.04 264.5,-25.04 264.5,-51.79"/>
<text text-anchor="middle" x="183.38" y="-32.59" font-family="Helvetica,sans-Serif" font-size="16.00">dbHandleCarUpdate</text>
</a>
</g>
</g>
<!-- Node1&#45;&gt;Node36 -->
<g id="edge23_Node000001_Node000036" class="edge">
<title>Node1&#45;&gt;Node36</title>
<g id="a_edge23_Node000001_Node000036"><a xlink:title=" ">
<path fill="none" stroke="#63b8ff" stroke-width="2" d="M40.86,-198.85C51.89,-177.42 75.28,-135.02 102.25,-104.41 116.96,-87.71 136.13,-71.77 152.03,-59.73"/>
<polygon fill="#63b8ff" stroke="#63b8ff" stroke-width="2" points="154.45,-61.82 160.41,-53.06 150.29,-56.19 154.45,-61.82"/>
</a>
</g>
</g>
<!-- Node2&#45;&gt;Node3 -->
<g id="edge2_Node000002_Node000003" class="edge">
<title>Node2&#45;&gt;Node3</title>
<g id="a_edge2_Node000002_Node000003"><a xlink:title=" ">
<path fill="none" stroke="#63b8ff" stroke-width="2" d="M200.26,-353.24C216.59,-367.56 242.65,-390.7 264.5,-411.41 280.92,-426.98 280.96,-436 300.5,-447.41 311.04,-453.57 323.32,-458.15 335.12,-461.52"/>
<polygon fill="#63b8ff" stroke="#63b8ff" stroke-width="2" points="335.08,-465.64 345.63,-464.73 336.82,-458.86 335.08,-465.64"/>
</a>
</g>
</g>
<!-- Node4 -->
<g id="Node000004" class="node">
<title>Node4</title>
<g id="a_Node000004"><a xlink:href="../../d5/df2/car_8c.html#ad946b04e98242aa73d41af8cd6963335" target="_top" xlink:title="Get list of cars.">
<polygon fill="white" stroke="#666666" points="429,-393.79 338.75,-393.79 338.75,-367.04 429,-367.04 429,-393.79"/>
<text text-anchor="middle" x="383.88" y="-374.59" font-family="Helvetica,sans-Serif" font-size="16.00">carGetList</text>
</a>
</g>
</g>
<!-- Node2&#45;&gt;Node4 -->
<g id="edge3_Node000002_Node000004" class="edge">
<title>Node2&#45;&gt;Node4</title>
<g id="a_edge3_Node000002_Node000004"><a xlink:title=" ">
<path fill="none" stroke="#63b8ff" stroke-width="2" d="M230.66,-348.97C259.13,-354.85 295.82,-362.43 326.05,-368.67"/>
<polygon fill="#63b8ff" stroke="#63b8ff" stroke-width="2" points="326.06,-372.66 336.56,-371.26 327.48,-365.81 326.06,-372.66"/>
</a>
</g>
</g>
<!-- Node12 -->
<g id="Node000012" class="node">
<title>Node12</title>
<g id="a_Node000012"><a xlink:href="../../d7/dba/menuutil_8c.html#ae6ed898f3726361b1edde3f8707f0260" target="_top" xlink:title="Displays message box on the screen with title and message.">
<polygon fill="#fff0f0" stroke="red" points="912.5,-329.79 740.5,-329.79 740.5,-303.04 912.5,-303.04 912.5,-329.79"/>
<text text-anchor="middle" x="826.5" y="-310.59" font-family="Helvetica,sans-Serif" font-size="16.00">menuUtilMessagebox</text>
</a>
</g>
</g>
<!-- Node2&#45;&gt;Node12 -->
<g id="edge15_Node000002_Node000012" class="edge">
<title>Node2&#45;&gt;Node12</title>
<g id="a_edge15_Node000002_Node000012"><a xlink:title=" ">
<path fill="none" stroke="#63b8ff" stroke-width="2" d="M230.74,-337.75C334.43,-334.03 586.96,-324.97 727.33,-319.93"/>
<polygon fill="#63b8ff" stroke="#63b8ff" stroke-width="2" points="727.27,-323.33 737.14,-319.48 727.02,-316.34 727.27,-323.33"/>
</a>
</g>
</g>
<!-- Node16 -->
<g id="Node000016" class="node">
<title>Node16</title>
<g id="a_Node000016"><a xlink:href="../../dc/dc6/carsmenu_8c.html#a55b6445add211264ded95be67ff98aa5" target="_top" xlink:title="Given car, generates a string representing car data in listView friendly format (whole row).">
<polygon fill="white" stroke="#666666" points="467.25,-311.79 300.5,-311.79 300.5,-285.04 467.25,-285.04 467.25,-311.79"/>
<text text-anchor="middle" x="383.88" y="-292.59" font-family="Helvetica,sans-Serif" font-size="16.00">carGetListViewString</text>
</a>
</g>
</g>
<!-- Node2&#45;&gt;Node16 -->
<g id="edge8_Node000002_Node000016" class="edge">
<title>Node2&#45;&gt;Node16</title>
<g id="a_edge8_Node000002_Node000016"><a xlink:title=" ">
<path fill="none" stroke="#63b8ff" stroke-width="2" d="M230.66,-329.85C252.22,-325.4 278.5,-319.97 303.11,-314.89"/>
<polygon fill="#63b8ff" stroke="#63b8ff" stroke-width="2" points="304.71,-317.72 313.79,-312.27 303.29,-310.86 304.71,-317.72"/>
</a>
</g>
</g>
<!-- Node17 -->
<g id="Node000017" class="node">
<title>Node17</title>
<g id="a_Node000017"><a xlink:href="../../dc/dc6/carsmenu_8c.html#acf7941e462559f5f161ffcd804d4b8c9" target="_top" xlink:title="Extracts car from the given ListNode.">
<polygon fill="white" stroke="#666666" points="429,-266.79 338.75,-266.79 338.75,-240.04 429,-240.04 429,-266.79"/>
<text text-anchor="middle" x="383.88" y="-247.59" font-family="Helvetica,sans-Serif" font-size="16.00">extractCar</text>
</a>
</g>
</g>
<!-- Node2&#45;&gt;Node17 -->
<g id="edge9_Node000002_Node000017" class="edge">
<title>Node2&#45;&gt;Node17</title>
<g id="a_edge9_Node000002_Node000017"><a xlink:title=" ">
<path fill="none" stroke="#63b8ff" stroke-width="2" d="M206.34,-325.55C229.17,-311.62 266.27,-290.27 300.5,-276.41 308.73,-273.08 317.61,-270.05 326.39,-267.36"/>
<polygon fill="#63b8ff" stroke="#63b8ff" stroke-width="2" points="328.03,-269.95 336.66,-263.79 326.08,-263.23 328.03,-269.95"/>
</a>
</g>
</g>
<!-- Node19 -->
<g id="Node000019" class="node">
<title>Node19</title>
<g id="a_Node000019"><a xlink:href="../../d7/dba/menuutil_8c.html#aca301edf9d04aa391571851b148355ba" target="_top" xlink:title="List Viewer for lists.">
<polygon fill="#fff0f0" stroke="red" points="443.25,-438.79 324.5,-438.79 324.5,-412.04 443.25,-412.04 443.25,-438.79"/>
<text text-anchor="middle" x="383.88" y="-419.59" font-family="Helvetica,sans-Serif" font-size="16.00">listViewInvoke</text>
</a>
</g>
</g>
<!-- Node2&#45;&gt;Node19 -->
<g id="edge11_Node000002_Node000019" class="edge">
<title>Node2&#45;&gt;Node19</title>
<g id="a_edge11_Node000002_Node000019"><a xlink:title=" ">
<path fill="none" stroke="#63b8ff" stroke-width="2" d="M206.34,-353.28C229.17,-367.21 266.27,-388.56 300.5,-402.41 305.09,-404.27 309.88,-406.04 314.75,-407.7"/>
<polygon fill="#63b8ff" stroke="#63b8ff" stroke-width="2" points="314.32,-411.89 324.92,-411.62 316.47,-405.22 314.32,-411.89"/>
</a>
</g>
</g>
<!-- Node5 -->
<g id="Node000005" class="node">
<title>Node5</title>
<g id="a_Node000005"><a xlink:href="../../d5/df2/car_8c.html#a2337951b2ae65cc121c20255a2179ad2" target="_top" xlink:title="CallBack function for dbHandleGetResultAsList. Transforms row into Car.">
<polygon fill="#fff0f0" stroke="red" points="702.25,-460.79 505.5,-460.79 505.5,-434.04 702.25,-434.04 702.25,-460.79"/>
<text text-anchor="middle" x="603.88" y="-441.59" font-family="Helvetica,sans-Serif" font-size="16.00">carGetListQueryCallback</text>
</a>
</g>
</g>
<!-- Node4&#45;&gt;Node5 -->
<g id="edge4_Node000004_Node000005" class="edge">
<title>Node4&#45;&gt;Node5</title>
<g id="a_edge4_Node000004_Node000005"><a xlink:title=" ">
<path fill="none" stroke="#63b8ff" stroke-width="2" d="M429.19,-390.55C441.72,-394.01 455.22,-398.32 467.25,-403.41 484.31,-410.63 486.03,-417.59 503.25,-424.41 508.22,-426.38 513.39,-428.21 518.66,-429.89"/>
<polygon fill="#63b8ff" stroke="#63b8ff" stroke-width="2" points="518.47,-434.08 529.06,-433.58 520.47,-427.37 518.47,-434.08"/>
</a>
</g>
</g>
<!-- Node9 -->
<g id="Node000009" class="node">
<title>Node9</title>
<g id="a_Node000009"><a xlink:href="../../d5/df2/car_8c.html#a42654de8d3a43e2623c8882f42207408" target="_top" xlink:title="Generates SQL query.">
<polygon fill="white" stroke="#666666" points="681.62,-415.79 526.12,-415.79 526.12,-389.04 681.62,-389.04 681.62,-415.79"/>
<text text-anchor="middle" x="603.88" y="-396.59" font-family="Helvetica,sans-Serif" font-size="16.00">carGetQueryOfSort</text>
</a>
</g>
</g>
<!-- Node4&#45;&gt;Node9 -->
<g id="edge5_Node000004_Node000009" class="edge">
<title>Node4&#45;&gt;Node9</title>
<g id="a_edge5_Node000004_Node000009"><a xlink:title=" ">
<path fill="none" stroke="#63b8ff" stroke-width="2" d="M429.25,-384.89C453.44,-387.33 484.26,-390.44 513.21,-393.36"/>
<polygon fill="#63b8ff" stroke="#63b8ff" stroke-width="2" points="512.61,-397.12 522.91,-394.65 513.31,-390.16 512.61,-397.12"/>
</a>
</g>
</g>
<!-- Node10 -->
<g id="Node000010" class="node">
<title>Node10</title>
<g id="a_Node000010"><a xlink:href="../../d3/df4/dbhandle_8c.html#a93d9b43b32495dc8630963c174aeba05" target="_top" xlink:title="Given query and callback function create List based on the query.">
<polygon fill="#fff0f0" stroke="red" points="704.5,-370.79 503.25,-370.79 503.25,-344.04 704.5,-344.04 704.5,-370.79"/>
<text text-anchor="middle" x="603.88" y="-351.59" font-family="Helvetica,sans-Serif" font-size="16.00">dbHandleGetResultAsList</text>
</a>
</g>
</g>
<!-- Node4&#45;&gt;Node10 -->
<g id="edge6_Node000004_Node000010" class="edge">
<title>Node4&#45;&gt;Node10</title>
<g id="a_edge6_Node000004_Node000010"><a xlink:title=" ">
<path fill="none" stroke="#63b8ff" stroke-width="2" d="M429.25,-375.73C447.15,-373.84 468.69,-371.57 490.41,-369.28"/>
<polygon fill="#63b8ff" stroke="#63b8ff" stroke-width="2" points="490.62,-372.46 500.2,-367.93 489.89,-365.5 490.62,-372.46"/>
</a>
</g>
</g>
<!-- Node10&#45;&gt;Node12 -->
<g id="edge7_Node000010_Node000012" class="edge">
<title>Node10&#45;&gt;Node12</title>
<g id="a_edge7_Node000010_Node000012"><a xlink:title=" ">
<path fill="none" stroke="#63b8ff" stroke-width="2" d="M679.26,-343.59C698.25,-340.06 718.82,-336.24 738.38,-332.6"/>
<polygon fill="#63b8ff" stroke="#63b8ff" stroke-width="2" points="739.87,-335.51 749.06,-330.25 738.59,-328.63 739.87,-335.51"/>
</a>
</g>
</g>
<!-- Node17&#45;&gt;Node18 -->
<g id="edge10_Node000017_Node000018" class="edge">
<title>Node17&#45;&gt;Node18</title>
<g id="a_edge10_Node000017_Node000018"><a xlink:title=" ">
<path fill="none" stroke="#63b8ff" stroke-width="2" d="M429.25,-249.14C464.44,-245.75 513.7,-241 550.76,-237.43"/>
<polygon fill="#63b8ff" stroke="#63b8ff" stroke-width="2" points="550.7,-240.67 560.32,-236.22 550.03,-233.7 550.7,-240.67"/>
</a>
</g>
</g>
<!-- Node20 -->
<g id="Node000020" class="node">
<title>Node20</title>
<g id="a_Node000020"><a xlink:href="../../d7/d40/list_8c.html#a0837532833bd96d83104386c1aa69c10" target="_top" xlink:title="How many elements are there in List.">
<polygon fill="white" stroke="#666666" points="860.38,-525.79 792.62,-525.79 792.62,-499.04 860.38,-499.04 860.38,-525.79"/>
<text text-anchor="middle" x="826.5" y="-506.59" font-family="Helvetica,sans-Serif" font-size="16.00">listSize</text>
</a>
</g>
</g>
<!-- Node19&#45;&gt;Node20 -->
<g id="edge12_Node000019_Node000020" class="edge">
<title>Node19&#45;&gt;Node20</title>
<g id="a_edge12_Node000019_Node000020"><a xlink:title=" ">
<path fill="none" stroke="#63b8ff" stroke-width="2" d="M443.53,-435.46C452.05,-438.66 460.28,-442.87 467.25,-448.41 493.4,-469.21 474.52,-497.36 503.25,-514.41 589.85,-565.82 713.98,-543.95 780.06,-526.43"/>
<polygon fill="#63b8ff" stroke="#63b8ff" stroke-width="2" points="781.76,-529.04 790.47,-523.01 779.9,-522.29 781.76,-529.04"/>
</a>
</g>
</g>
<!-- Node21 -->
<g id="Node000021" class="node">
<title>Node21</title>
<g id="a_Node000021"><a xlink:href="../../d7/dba/menuutil_8c.html#a6229d06cea0b18a996e9f378719c56bb" target="_top" xlink:title="frees internal List of listView.">
<polygon fill="#fff0f0" stroke="red" points="668.5,-505.79 539.25,-505.79 539.25,-479.04 668.5,-479.04 668.5,-505.79"/>
<text text-anchor="middle" x="603.88" y="-486.59" font-family="Helvetica,sans-Serif" font-size="16.00">listViewFreeList</text>
</a>
</g>
</g>
<!-- Node19&#45;&gt;Node21 -->
<g id="edge13_Node000019_Node000021" class="edge">
<title>Node19&#45;&gt;Node21</title>
<g id="a_edge13_Node000019_Node000021"><a xlink:title=" ">
<path fill="none" stroke="#63b8ff" stroke-width="2" d="M441.81,-439.25C450.46,-441.94 459.18,-445 467.25,-448.41 484.31,-455.63 486.03,-462.59 503.25,-469.41 510.61,-472.33 518.44,-474.93 526.34,-477.24"/>
<polygon fill="#63b8ff" stroke="#63b8ff" stroke-width="2" points="526.19,-481.37 536.76,-480.62 528.03,-474.61 526.19,-481.37"/>
</a>
</g>
</g>
<!-- Node21&#45;&gt;Node20 -->
<g id="edge14_Node000021_Node000020" class="edge">
<title>Node21&#45;&gt;Node20</title>
<g id="a_edge14_Node000021_Node000020"><a xlink:title=" ">
<path fill="none" stroke="#63b8ff" stroke-width="2" d="M668.99,-498.22C704.43,-501.44 747.65,-505.36 779.68,-508.26"/>
<polygon fill="#63b8ff" stroke="#63b8ff" stroke-width="2" points="778.96,-511.98 789.23,-509.4 779.59,-505.01 778.96,-511.98"/>
</a>
</g>
</g>
<!-- Node31 -->
<g id="Node000031" class="node">
<title>Node31</title>
<g id="a_Node000031"><a xlink:href="../../dc/dc6/carsmenu_8c.html#a702fa6cc4653f0cd03b303c0478df7e2" target="_top" xlink:title="Parse form.">
<polygon fill="white" stroke="#666666" points="442.88,-184.79 324.88,-184.79 324.88,-158.04 442.88,-158.04 442.88,-184.79"/>
<text text-anchor="middle" x="383.88" y="-165.59" font-family="Helvetica,sans-Serif" font-size="16.00">carFormParse</text>
</a>
</g>
</g>
<!-- Node30&#45;&gt;Node31 -->
<g id="edge18_Node000030_Node000031" class="edge">
<title>Node30&#45;&gt;Node31</title>
<g id="a_edge18_Node000030_Node000031"><a xlink:title=" ">
<path fill="none" stroke="#63b8ff" stroke-width="2" d="M235.49,-138C258.78,-143.28 286.74,-149.62 312.01,-155.35"/>
<polygon fill="#63b8ff" stroke="#63b8ff" stroke-width="2" points="312.03,-159.39 322.56,-158.19 313.58,-152.57 312.03,-159.39"/>
</a>
</g>
</g>
<!-- Node32 -->
<g id="Node000032" class="node">
<title>Node32</title>
<g id="a_Node000032"><a xlink:href="../../d7/dba/menuutil_8c.html#a1c0a1284f839b7e790c8234b3778e065" target="_top" xlink:title="Frees memory used for form, and it&#39;s fields.">
<polygon fill="white" stroke="#666666" points="424.5,-139.79 343.25,-139.79 343.25,-113.04 424.5,-113.04 424.5,-139.79"/>
<text text-anchor="middle" x="383.88" y="-120.59" font-family="Helvetica,sans-Serif" font-size="16.00">formFree</text>
</a>
</g>
</g>
<!-- Node30&#45;&gt;Node32 -->
<g id="edge19_Node000030_Node000032" class="edge">
<title>Node30&#45;&gt;Node32</title>
<g id="a_edge19_Node000030_Node000032"><a xlink:title=" ">
<path fill="none" stroke="#63b8ff" stroke-width="2" d="M235.49,-126.41C264.48,-126.41 300.7,-126.41 329.97,-126.41"/>
<polygon fill="#63b8ff" stroke="#63b8ff" stroke-width="2" points="329.89,-129.91 339.89,-126.41 329.89,-122.91 329.89,-129.91"/>
</a>
</g>
</g>
<!-- Node33 -->
<g id="Node000033" class="node">
<title>Node33</title>
<g id="a_Node000033"><a xlink:href="../../d7/dba/menuutil_8c.html#a6cfb2b5b15b5e79df457b5c902c3bf7d" target="_top" xlink:title="Initialize FORM.">
<polygon fill="white" stroke="#666666" points="418.88,-94.79 348.88,-94.79 348.88,-68.04 418.88,-68.04 418.88,-94.79"/>
<text text-anchor="middle" x="383.88" y="-75.59" font-family="Helvetica,sans-Serif" font-size="16.00">formInit</text>
</a>
</g>
</g>
<!-- Node30&#45;&gt;Node33 -->
<g id="edge20_Node000030_Node000033" class="edge">
<title>Node30&#45;&gt;Node33</title>
<g id="a_edge20_Node000030_Node000033"><a xlink:title=" ">
<path fill="none" stroke="#63b8ff" stroke-width="2" d="M235.49,-114.82C266.55,-107.78 305.91,-98.86 336.14,-92.01"/>
<polygon fill="#63b8ff" stroke="#63b8ff" stroke-width="2" points="337.5,-94.83 346.48,-89.21 335.95,-88.01 337.5,-94.83"/>
</a>
</g>
</g>
<!-- Node34 -->
<g id="Node000034" class="node">
<title>Node34</title>
<g id="a_Node000034"><a xlink:href="../../d7/dba/menuutil_8c.html#af8f262005a4975cc6ccc3423d939f910" target="_top" xlink:title="Put form on screen in nice looking form.">
<polygon fill="#fff0f0" stroke="red" points="432,-49.79 335.75,-49.79 335.75,-23.04 432,-23.04 432,-49.79"/>
<text text-anchor="middle" x="383.88" y="-30.59" font-family="Helvetica,sans-Serif" font-size="16.00">formInvoke</text>
</a>
</g>
</g>
<!-- Node30&#45;&gt;Node34 -->
<g id="edge21_Node000030_Node000034" class="edge">
<title>Node30&#45;&gt;Node34</title>
<g id="a_edge21_Node000030_Node000034"><a xlink:title=" ">
<path fill="none" stroke="#63b8ff" stroke-width="2" d="M204.54,-112.67C227.09,-97.82 265.09,-74.29 300.5,-59.41 307.78,-56.36 315.58,-53.58 323.39,-51.09"/>
<polygon fill="#63b8ff" stroke="#63b8ff" stroke-width="2" points="325,-53.66 333.57,-47.43 322.98,-46.96 325,-53.66"/>
</a>
</g>
</g>
<!-- Node36&#45;&gt;Node12 -->
<g id="edge24_Node000036_Node000012" class="edge">
<title>Node36&#45;&gt;Node12</title>
<g id="a_edge24_Node000036_Node000012"><a xlink:title=" ">
<path fill="none" stroke="#63b8ff" stroke-width="2" d="M224.64,-24.68C280.77,-7.79 384.93,15.19 467.25,-14.41 624.71,-71.04 760.42,-231.64 807.68,-292.57"/>
<polygon fill="#63b8ff" stroke="#63b8ff" stroke-width="2" points="805.6,-294.93 814.46,-300.74 811.16,-290.67 805.6,-294.93"/>
</a>
</g>
</g>
</g>
</svg>

<g id="navigator" transform="translate(0 0)" fill="#404254">
  <rect fill="#f2f5e9" fill-opacity="0.5" stroke="#606060" stroke-width=".5" x="0" y="0" width="60" height="60"/>
  <use id="zoomplus" xlink:href="#zoomPlus" x="17" y="9" onmousedown="handleZoom(evt,'in')"/>
  <use id="zoomminus" xlink:href="#zoomMin" x="42" y="9" onmousedown="handleZoom(evt,'out')"/>
  <use id="reset" xlink:href="#resetDef" x="30" y="36" onmousedown="handleReset()"/>
   <use id="arrowup" xlink:href="#arrowUp" x="0" y="0" onmousedown="handlePan(0,-1)"/>
  <use id="arrowright" xlink:href="#arrowRight" x="0" y="0" onmousedown="handlePan(1,0)"/>
  <use id="arrowdown" xlink:href="#arrowDown" x="0" y="0" onmousedown="handlePan(0,1)"/>
  <use id="arrowleft" xlink:href="#arrowLeft" x="0" y="0" onmousedown="handlePan(-1,0)"/>
</g>
<svg viewBox="0 0 15 15" width="100%" height="30px" preserveAspectRatio="xMaxYMin meet">
 <g id="arrow_out" transform="scale(0.3 0.3)">
  <a xlink:href="carsmenu_8c_acf8ae724beca8714d7d114a7f2539895_cgraph_org.svg" target="_base">
   <rect id="button" ry="5" rx="5" y="6" x="6" height="38" width="38"
        fill="#f2f5e9" fill-opacity="0.5" stroke="#606060" stroke-width="1.0"/>
   <path id="arrow"
     d="M 11.500037,31.436501 C 11.940474,20.09759 22.043105,11.32322 32.158766,21.979434 L 37.068811,17.246167 C 37.068811,17.246167 37.088388,32 37.088388,32 L 22.160133,31.978069 C 22.160133,31.978069 26.997745,27.140456 26.997745,27.140456 C 18.528582,18.264221 13.291696,25.230495 11.500037,31.436501 z"
     style="fill:#404040;"/>
  </a>
 </g>
</svg>

<style type='text/css'>
<![CDATA[
[data-mouse-over-selected='false'] { opacity: 0.7; }
[data-mouse-over-selected='true']  { opacity: 1.0; }
]]>
</style>
<script type="application/ecmascript"><![CDATA[
document.addEventListener('DOMContentLoaded', (event) => {
  highlightEdges();
  highlightAdjacentNodes();
});
]]></script>
</svg>
