<?xml version="1.0" encoding="UTF-8" standalone="no"?>
<!DOCTYPE svg PUBLIC "-//W3C//DTD SVG 1.1//EN"
 "http://www.w3.org/Graphics/SVG/1.1/DTD/svg11.dtd">
<!-- Generated by graphviz version 8.0.5 (0)
 -->
<!-- Title: carFormEdit Pages: 1 -->
<svg width="490pt" height="237pt"
 viewBox="0.00 0.00 489.50 236.75" xmlns="http://www.w3.org/2000/svg" xmlns:xlink="http://www.w3.org/1999/xlink">
<g id="graph0" class="graph" transform="scale(1 1) rotate(0) translate(4 232.75)">
<title>carFormEdit</title>
<!-- Node1 -->
<g id="Node000001" class="node">
<title>Node1</title>
<g id="a_Node000001"><a xlink:title="Function for editing car.">
<polygon fill="#999999" stroke="#666666" points="103.75,-160.75 0,-160.75 0,-134 103.75,-134 103.75,-160.75"/>
<text text-anchor="middle" x="51.88" y="-141.55" font-family="Helvetica,sans-Serif" font-size="16.00">carFormEdit</text>
</a>
</g>
</g>
<!-- Node2 -->
<g id="Node000002" class="node">
<title>Node2</title>
<g id="a_Node000002"><a xlink:href="../../dc/dc6/carsmenu_8c.html#a702fa6cc4653f0cd03b303c0478df7e2" target="_top" xlink:title="Parse form.">
<polygon fill="white" stroke="#666666" points="257.75,-228.75 139.75,-228.75 139.75,-202 257.75,-202 257.75,-228.75"/>
<text text-anchor="middle" x="198.75" y="-209.55" font-family="Helvetica,sans-Serif" font-size="16.00">carFormParse</text>
</a>
</g>
</g>
<!-- Node1&#45;&gt;Node2 -->
<g id="edge1_Node000001_Node000002" class="edge">
<title>Node1&#45;&gt;Node2</title>
<g id="a_edge1_Node000001_Node000002"><a xlink:title=" ">
<path fill="none" stroke="#63b8ff" stroke-width="2" d="M78.01,-161.25C95.18,-170.51 118.58,-182.72 139.75,-192.38 142.88,-193.8 146.12,-195.23 149.4,-196.63"/>
<polygon fill="#63b8ff" stroke="#63b8ff" stroke-width="2" points="148.74,-199.97 159.31,-200.57 151.42,-193.51 148.74,-199.97"/>
</a>
</g>
</g>
<!-- Node3 -->
<g id="Node000003" class="node">
<title>Node3</title>
<g id="a_Node000003"><a xlink:href="../../d7/dba/menuutil_8c.html#a1c0a1284f839b7e790c8234b3778e065" target="_top" xlink:title="Frees memory used for form, and it&#39;s fields.">
<polygon fill="white" stroke="#666666" points="239.38,-183.75 158.12,-183.75 158.12,-157 239.38,-157 239.38,-183.75"/>
<text text-anchor="middle" x="198.75" y="-164.55" font-family="Helvetica,sans-Serif" font-size="16.00">formFree</text>
</a>
</g>
</g>
<!-- Node1&#45;&gt;Node3 -->
<g id="edge2_Node000001_Node000003" class="edge">
<title>Node1&#45;&gt;Node3</title>
<g id="a_edge2_Node000001_Node000003"><a xlink:title=" ">
<path fill="none" stroke="#63b8ff" stroke-width="2" d="M103.95,-155.48C117.41,-157.62 131.95,-159.93 145.47,-162.08"/>
<polygon fill="#63b8ff" stroke="#63b8ff" stroke-width="2" points="145.63,-165.96 156.05,-164.07 146.73,-159.05 145.63,-165.96"/>
</a>
</g>
</g>
<!-- Node4 -->
<g id="Node000004" class="node">
<title>Node4</title>
<g id="a_Node000004"><a xlink:href="../../d7/dba/menuutil_8c.html#a6cfb2b5b15b5e79df457b5c902c3bf7d" target="_top" xlink:title="Initialize FORM.">
<polygon fill="white" stroke="#666666" points="233.75,-138.75 163.75,-138.75 163.75,-112 233.75,-112 233.75,-138.75"/>
<text text-anchor="middle" x="198.75" y="-119.55" font-family="Helvetica,sans-Serif" font-size="16.00">formInit</text>
</a>
</g>
</g>
<!-- Node1&#45;&gt;Node4 -->
<g id="edge3_Node000001_Node000004" class="edge">
<title>Node1&#45;&gt;Node4</title>
<g id="a_edge3_Node000001_Node000004"><a xlink:title=" ">
<path fill="none" stroke="#63b8ff" stroke-width="2" d="M103.95,-139.62C119.2,-137.3 135.84,-134.78 150.81,-132.5"/>
<polygon fill="#63b8ff" stroke="#63b8ff" stroke-width="2" points="152.09,-135.54 161.46,-130.58 151.04,-128.62 152.09,-135.54"/>
</a>
</g>
</g>
<!-- Node5 -->
<g id="Node000005" class="node">
<title>Node5</title>
<g id="a_Node000005"><a xlink:href="../../d7/dba/menuutil_8c.html#af8f262005a4975cc6ccc3423d939f910" target="_top" xlink:title="Put form on screen in nice looking form.">
<polygon fill="white" stroke="#666666" points="246.88,-93.75 150.62,-93.75 150.62,-67 246.88,-67 246.88,-93.75"/>
<text text-anchor="middle" x="198.75" y="-74.55" font-family="Helvetica,sans-Serif" font-size="16.00">formInvoke</text>
</a>
</g>
</g>
<!-- Node1&#45;&gt;Node5 -->
<g id="edge4_Node000001_Node000005" class="edge">
<title>Node1&#45;&gt;Node5</title>
<g id="a_edge4_Node000001_Node000005"><a xlink:title=" ">
<path fill="none" stroke="#63b8ff" stroke-width="2" d="M78.43,-133.66C95.58,-124.65 118.79,-112.82 139.75,-103.38 142.88,-101.96 146.13,-100.55 149.41,-99.15"/>
<polygon fill="#63b8ff" stroke="#63b8ff" stroke-width="2" points="151.43,-102.28 159.34,-95.23 148.76,-95.81 151.43,-102.28"/>
</a>
</g>
</g>
<!-- Node6 -->
<g id="Node000006" class="node">
<title>Node6</title>
<g id="a_Node000006"><a xlink:href="../../d7/dba/menuutil_8c.html#ab9a65295e184f9f64ea1431f8c2e36b2" target="_top" xlink:title="Manages input in the form.">
<polygon fill="white" stroke="#666666" points="470.62,-161.75 304.62,-161.75 304.62,-135 470.62,-135 470.62,-161.75"/>
<text text-anchor="middle" x="387.62" y="-142.55" font-family="Helvetica,sans-Serif" font-size="16.00">formHandleIteraction</text>
</a>
</g>
</g>
<!-- Node5&#45;&gt;Node6 -->
<g id="edge5_Node000005_Node000006" class="edge">
<title>Node5&#45;&gt;Node6</title>
<g id="a_edge5_Node000005_Node000006"><a xlink:title=" ">
<path fill="none" stroke="#63b8ff" stroke-width="2" d="M237.29,-94.17C244.19,-97.01 251.26,-100.13 257.75,-103.38 274.53,-111.75 276.45,-118.15 293.75,-125.38 298.36,-127.3 303.17,-129.09 308.07,-130.75"/>
<polygon fill="#63b8ff" stroke="#63b8ff" stroke-width="2" points="307.77,-134.96 318.36,-134.62 309.87,-128.28 307.77,-134.96"/>
</a>
</g>
</g>
<!-- Node7 -->
<g id="Node000007" class="node">
<title>Node7</title>
<g id="a_Node000007"><a xlink:href="../../d7/dba/menuutil_8c.html#ac6b71fcc47a9cdec8ac08b98e754239c" target="_top" xlink:title="Get length of longest string in array of strings.">
<polygon fill="white" stroke="#666666" points="481.5,-116.75 293.75,-116.75 293.75,-90 481.5,-90 481.5,-116.75"/>
<text text-anchor="middle" x="387.62" y="-97.55" font-family="Helvetica,sans-Serif" font-size="16.00">getLongestStringLength</text>
</a>
</g>
</g>
<!-- Node5&#45;&gt;Node7 -->
<g id="edge6_Node000005_Node000007" class="edge">
<title>Node5&#45;&gt;Node7</title>
<g id="a_edge6_Node000005_Node000007"><a xlink:title=" ">
<path fill="none" stroke="#63b8ff" stroke-width="2" d="M246.91,-86.18C257.39,-87.47 268.91,-88.89 280.7,-90.34"/>
<polygon fill="#63b8ff" stroke="#63b8ff" stroke-width="2" points="280.21,-94.17 290.56,-91.92 281.07,-87.23 280.21,-94.17"/>
</a>
</g>
</g>
<!-- Node8 -->
<g id="Node000008" class="node">
<title>Node8</title>
<g id="a_Node000008"><a xlink:href="../../d7/dba/menuutil_8c.html#a9941ed217da0309cd9453bdb776d5c51" target="_top" xlink:title="Add basic functionality to the shitty language which C is.">
<polygon fill="white" stroke="#666666" points="411,-71.75 364.25,-71.75 364.25,-45 411,-45 411,-71.75"/>
<text text-anchor="middle" x="387.62" y="-52.55" font-family="Helvetica,sans-Serif" font-size="16.00">max</text>
</a>
</g>
</g>
<!-- Node5&#45;&gt;Node8 -->
<g id="edge7_Node000005_Node000008" class="edge">
<title>Node5&#45;&gt;Node8</title>
<g id="a_edge7_Node000005_Node000008"><a xlink:title=" ">
<path fill="none" stroke="#63b8ff" stroke-width="2" d="M246.91,-74.82C279.35,-71 321.75,-66.01 351.3,-62.53"/>
<polygon fill="#63b8ff" stroke="#63b8ff" stroke-width="2" points="351.36,-65.7 360.89,-61.05 350.54,-58.75 351.36,-65.7"/>
</a>
</g>
</g>
<!-- Node9 -->
<g id="Node000009" class="node">
<title>Node9</title>
<g id="a_Node000009"><a xlink:href="../../d7/dba/menuutil_8c.html#a14ca6bd9893f550a2051ca6cd5a689ac" target="_top" xlink:title="Print boarders of window.">
<polygon fill="white" stroke="#666666" points="472.5,-26.75 302.75,-26.75 302.75,0 472.5,0 472.5,-26.75"/>
<text text-anchor="middle" x="387.62" y="-7.55" font-family="Helvetica,sans-Serif" font-size="16.00">printWindowBoarders</text>
</a>
</g>
</g>
<!-- Node5&#45;&gt;Node9 -->
<g id="edge8_Node000005_Node000009" class="edge">
<title>Node5&#45;&gt;Node9</title>
<g id="a_edge8_Node000005_Node000009"><a xlink:title=" ">
<path fill="none" stroke="#63b8ff" stroke-width="2" d="M225.51,-66.65C244.09,-57.16 269.97,-44.79 293.75,-36.38 299.42,-34.37 305.35,-32.47 311.34,-30.68"/>
<polygon fill="#63b8ff" stroke="#63b8ff" stroke-width="2" points="313.01,-33.28 321.68,-27.19 311.11,-26.55 313.01,-33.28"/>
</a>
</g>
</g>
</g>
</svg>
