<?xml version="1.0" encoding="UTF-8" standalone="no"?>
<!DOCTYPE svg PUBLIC "-//W3C//DTD SVG 1.1//EN"
 "http://www.w3.org/Graphics/SVG/1.1/DTD/svg11.dtd">
<!-- Generated by graphviz version 8.0.5 (0)
 -->
<!-- Title: addCar Pages: 1 -->
<svg width="522pt" height="35pt"
 viewBox="0.00 0.00 522.00 34.75" xmlns="http://www.w3.org/2000/svg" xmlns:xlink="http://www.w3.org/1999/xlink">
<g id="graph0" class="graph" transform="scale(1 1) rotate(0) translate(4 30.75)">
<title>addCar</title>
<!-- Node1 -->
<g id="Node000001" class="node">
<title>Node1</title>
<g id="a_Node000001"><a xlink:title="Function for adding a car.">
<polygon fill="#999999" stroke="#666666" points="514,-26.75 445.5,-26.75 445.5,0 514,0 514,-26.75"/>
<text text-anchor="middle" x="479.75" y="-7.55" font-family="Helvetica,sans-Serif" font-size="16.00">addCar</text>
</a>
</g>
</g>
<!-- Node2 -->
<g id="Node000002" class="node">
<title>Node2</title>
<g id="a_Node000002"><a xlink:href="../../dc/dc6/carsmenu_8c.html#a7adcbb9b8798811ec24e33760623ebc0" target="_top" xlink:title="Handles displaying of cars menu.">
<polygon fill="white" stroke="#666666" points="409.5,-26.75 322.25,-26.75 322.25,0 409.5,0 409.5,-26.75"/>
<text text-anchor="middle" x="365.88" y="-7.55" font-family="Helvetica,sans-Serif" font-size="16.00">carsMenu</text>
</a>
</g>
</g>
<!-- Node1&#45;&gt;Node2 -->
<g id="edge1_Node000001_Node000002" class="edge">
<title>Node1&#45;&gt;Node2</title>
<g id="a_edge1_Node000001_Node000002"><a xlink:title=" ">
<path fill="none" stroke="#63b8ff" stroke-width="2" d="M432.25,-13.38C424.87,-13.38 417.26,-13.38 409.96,-13.38"/>
<polygon fill="#63b8ff" stroke="#63b8ff" stroke-width="2" points="432.18,-16.88 442.18,-13.38 432.18,-9.88 432.18,-16.88"/>
</a>
</g>
</g>
<!-- Node3 -->
<g id="Node000003" class="node">
<title>Node3</title>
<g id="a_Node000003"><a xlink:href="../../de/dc9/mmenu_8c.html#a315bc1f41a79da39147ec73e38cfc9e7" target="_top" xlink:title="Handles main menu.">
<polygon fill="white" stroke="#666666" points="286.25,-26.75 127.75,-26.75 127.75,0 286.25,0 286.25,-26.75"/>
<text text-anchor="middle" x="207" y="-7.55" font-family="Helvetica,sans-Serif" font-size="16.00">mainMenuSelection</text>
</a>
</g>
</g>
<!-- Node2&#45;&gt;Node3 -->
<g id="edge2_Node000002_Node000003" class="edge">
<title>Node2&#45;&gt;Node3</title>
<g id="a_edge2_Node000002_Node000003"><a xlink:title=" ">
<path fill="none" stroke="#63b8ff" stroke-width="2" d="M309.22,-13.38C301.91,-13.38 294.31,-13.38 286.71,-13.38"/>
<polygon fill="#63b8ff" stroke="#63b8ff" stroke-width="2" points="309.01,-16.88 319.01,-13.38 309.01,-9.88 309.01,-16.88"/>
</a>
</g>
</g>
<!-- Node4 -->
<g id="Node000004" class="node">
<title>Node4</title>
<g id="a_Node000004"><a xlink:href="../../de/dc9/mmenu_8c.html#a29c2128f12316ca1ce77fd1d686f6ec7" target="_top" xlink:title="Invokes menu.">
<polygon fill="#fff0f0" stroke="red" points="91.75,-26.75 0,-26.75 0,0 91.75,0 91.75,-26.75"/>
<text text-anchor="middle" x="45.88" y="-7.55" font-family="Helvetica,sans-Serif" font-size="16.00">mainMenu</text>
</a>
</g>
</g>
<!-- Node3&#45;&gt;Node4 -->
<g id="edge3_Node000003_Node000004" class="edge">
<title>Node3&#45;&gt;Node4</title>
<g id="a_edge3_Node000003_Node000004"><a xlink:title=" ">
<path fill="none" stroke="#63b8ff" stroke-width="2" d="M114.41,-13.38C106.76,-13.38 99.27,-13.38 92.22,-13.38"/>
<polygon fill="#63b8ff" stroke="#63b8ff" stroke-width="2" points="114.37,-16.88 124.37,-13.38 114.37,-9.88 114.37,-16.88"/>
</a>
</g>
</g>
</g>
</svg>
