<?xml version="1.0" encoding="UTF-8" standalone="no"?>
<!DOCTYPE svg PUBLIC "-//W3C//DTD SVG 1.1//EN"
 "http://www.w3.org/Graphics/SVG/1.1/DTD/svg11.dtd">
<!-- Generated by graphviz version 8.0.5 (0)
 -->
<!-- Title: carGetListViewString Pages: 1 -->
<svg width="626pt" height="125pt"
 viewBox="0.00 0.00 626.25 124.75" xmlns="http://www.w3.org/2000/svg" xmlns:xlink="http://www.w3.org/1999/xlink">
<g id="graph0" class="graph" transform="scale(1 1) rotate(0) translate(4 120.75)">
<title>carGetListViewString</title>
<!-- Node1 -->
<g id="Node000001" class="node">
<title>Node1</title>
<g id="a_Node000001"><a xlink:title="Given car, generates a string representing car data in listView friendly format (whole row).">
<polygon fill="#999999" stroke="#666666" points="618.25,-48.75 451.5,-48.75 451.5,-22 618.25,-22 618.25,-48.75"/>
<text text-anchor="middle" x="534.88" y="-29.55" font-family="Helvetica,sans-Serif" font-size="16.00">carGetListViewString</text>
</a>
</g>
</g>
<!-- Node2 -->
<g id="Node000002" class="node">
<title>Node2</title>
<g id="a_Node000002"><a xlink:href="../../dc/dc6/carsmenu_8c.html#ad451b82b7f3d31d1bb3fc4c210941579" target="_top" xlink:title="Invokes the listView of cars.">
<polygon fill="white" stroke="#666666" points="415.5,-70.75 321.5,-70.75 321.5,-44 415.5,-44 415.5,-70.75"/>
<text text-anchor="middle" x="368.5" y="-51.55" font-family="Helvetica,sans-Serif" font-size="16.00">carChoose</text>
</a>
</g>
</g>
<!-- Node1&#45;&gt;Node2 -->
<g id="edge1_Node000001_Node000002" class="edge">
<title>Node1&#45;&gt;Node2</title>
<g id="a_edge1_Node000001_Node000002"><a xlink:title=" ">
<path fill="none" stroke="#63b8ff" stroke-width="2" d="M438.44,-48.15C430.65,-49.19 423.03,-50.21 415.86,-51.17"/>
<polygon fill="#63b8ff" stroke="#63b8ff" stroke-width="2" points="438.76,-51.24 448.21,-46.44 437.83,-44.3 438.76,-51.24"/>
</a>
</g>
</g>
<!-- Node12 -->
<g id="Node000012" class="node">
<title>Node12</title>
<g id="a_Node000012"><a xlink:href="../../dc/dc6/carsmenu_8c.html#a76be213354bbaa3d64a095bafa1ec8d2" target="_top" xlink:title="Removes a car.">
<polygon fill="white" stroke="#666666" points="253.62,-26.75 155.12,-26.75 155.12,0 253.62,0 253.62,-26.75"/>
<text text-anchor="middle" x="204.38" y="-7.55" font-family="Helvetica,sans-Serif" font-size="16.00">carRemove</text>
</a>
</g>
</g>
<!-- Node1&#45;&gt;Node12 -->
<g id="edge8_Node000001_Node000012" class="edge">
<title>Node1&#45;&gt;Node12</title>
<g id="a_edge8_Node000001_Node000012"><a xlink:title=" ">
<path fill="none" stroke="#63b8ff" stroke-width="2" d="M438.72,-29C378.12,-24.94 302.18,-19.86 253.71,-16.61"/>
<polygon fill="#63b8ff" stroke="#63b8ff" stroke-width="2" points="438.19,-32.68 448.4,-29.85 438.66,-25.69 438.19,-32.68"/>
</a>
</g>
</g>
<!-- Node3 -->
<g id="Node000003" class="node">
<title>Node3</title>
<g id="a_Node000003"><a xlink:href="../../dc/dc6/carsmenu_8c.html#a04e2543edc445ed8a4cbd29b3466a07d" target="_top" xlink:title="Wrapper around carChoose frees extracted car instanntly.">
<polygon fill="white" stroke="#666666" points="285.5,-116.75 123.25,-116.75 123.25,-90 285.5,-90 285.5,-116.75"/>
<text text-anchor="middle" x="204.38" y="-97.55" font-family="Helvetica,sans-Serif" font-size="16.00">carChooseNoReturn</text>
</a>
</g>
</g>
<!-- Node2&#45;&gt;Node3 -->
<g id="edge2_Node000002_Node000003" class="edge">
<title>Node2&#45;&gt;Node3</title>
<g id="a_edge2_Node000002_Node000003"><a xlink:title=" ">
<path fill="none" stroke="#63b8ff" stroke-width="2" d="M308.64,-74.08C290.73,-79.16 271.26,-84.68 254.1,-89.55"/>
<polygon fill="#63b8ff" stroke="#63b8ff" stroke-width="2" points="310.38,-76.65 319.04,-70.56 308.47,-69.92 310.38,-76.65"/>
</a>
</g>
</g>
<!-- Node11 -->
<g id="Node000011" class="node">
<title>Node11</title>
<g id="a_Node000011"><a xlink:href="../../dc/dc6/carsmenu_8c.html#acf8ae724beca8714d7d114a7f2539895" target="_top" xlink:title="Edit car.">
<polygon fill="white" stroke="#666666" points="237.5,-71.75 171.25,-71.75 171.25,-45 237.5,-45 237.5,-71.75"/>
<text text-anchor="middle" x="204.38" y="-52.55" font-family="Helvetica,sans-Serif" font-size="16.00">carEdit</text>
</a>
</g>
</g>
<!-- Node2&#45;&gt;Node11 -->
<g id="edge4_Node000002_Node000011" class="edge">
<title>Node2&#45;&gt;Node11</title>
<g id="a_edge4_Node000002_Node000011"><a xlink:title=" ">
<path fill="none" stroke="#63b8ff" stroke-width="2" d="M308.19,-57.74C284.47,-57.89 258.06,-58.05 237.95,-58.17"/>
<polygon fill="#63b8ff" stroke="#63b8ff" stroke-width="2" points="308.06,-61.22 318.04,-57.66 308.02,-54.22 308.06,-61.22"/>
</a>
</g>
</g>
<!-- Node2&#45;&gt;Node12 -->
<g id="edge6_Node000002_Node000012" class="edge">
<title>Node2&#45;&gt;Node12</title>
<g id="a_edge6_Node000002_Node000012"><a xlink:title=" ">
<path fill="none" stroke="#63b8ff" stroke-width="2" d="M308.64,-41.4C290.73,-36.54 271.26,-31.26 254.1,-26.6"/>
<polygon fill="#63b8ff" stroke="#63b8ff" stroke-width="2" points="308.47,-45.52 319.04,-44.77 310.31,-38.77 308.47,-45.52"/>
</a>
</g>
</g>
<!-- Node4 -->
<g id="Node000004" class="node">
<title>Node4</title>
<g id="a_Node000004"><a xlink:href="../../dc/dc6/carsmenu_8c.html#a7adcbb9b8798811ec24e33760623ebc0" target="_top" xlink:title="Handles displaying of cars menu.">
<polygon fill="#fff0f0" stroke="red" points="87.25,-71.75 0,-71.75 0,-45 87.25,-45 87.25,-71.75"/>
<text text-anchor="middle" x="43.62" y="-52.55" font-family="Helvetica,sans-Serif" font-size="16.00">carsMenu</text>
</a>
</g>
</g>
<!-- Node3&#45;&gt;Node4 -->
<g id="edge3_Node000003_Node000004" class="edge">
<title>Node3&#45;&gt;Node4</title>
<g id="a_edge3_Node000003_Node000004"><a xlink:title=" ">
<path fill="none" stroke="#63b8ff" stroke-width="2" d="M142.14,-86.02C123.99,-80.87 104.49,-75.35 87.74,-70.6"/>
<polygon fill="#63b8ff" stroke="#63b8ff" stroke-width="2" points="141.87,-90.15 152.45,-89.51 143.78,-83.41 141.87,-90.15"/>
</a>
</g>
</g>
<!-- Node11&#45;&gt;Node4 -->
<g id="edge5_Node000011_Node000004" class="edge">
<title>Node11&#45;&gt;Node4</title>
<g id="a_edge5_Node000011_Node000004"><a xlink:title=" ">
<path fill="none" stroke="#63b8ff" stroke-width="2" d="M158.07,-58.38C135.94,-58.38 109.45,-58.38 87.63,-58.38"/>
<polygon fill="#63b8ff" stroke="#63b8ff" stroke-width="2" points="157.87,-61.88 167.87,-58.38 157.87,-54.88 157.87,-61.88"/>
</a>
</g>
</g>
<!-- Node12&#45;&gt;Node4 -->
<g id="edge7_Node000012_Node000004" class="edge">
<title>Node12&#45;&gt;Node4</title>
<g id="a_edge7_Node000012_Node000004"><a xlink:title=" ">
<path fill="none" stroke="#63b8ff" stroke-width="2" d="M142.51,-30.63C124.23,-35.81 104.58,-41.38 87.71,-46.16"/>
<polygon fill="#63b8ff" stroke="#63b8ff" stroke-width="2" points="144.22,-33.22 152.88,-27.12 142.31,-26.48 144.22,-33.22"/>
</a>
</g>
</g>
</g>
</svg>
