<?xml version="1.0" encoding="UTF-8" standalone="no"?>
<!DOCTYPE svg PUBLIC "-//W3C//DTD SVG 1.1//EN"
 "http://www.w3.org/Graphics/SVG/1.1/DTD/svg11.dtd">
<!-- Generated by graphviz version 8.0.5 (0)
 -->
<!-- Title: carChoose Pages: 1 -->
<svg width="618pt" height="125pt"
 viewBox="0.00 0.00 618.00 124.75" xmlns="http://www.w3.org/2000/svg" xmlns:xlink="http://www.w3.org/1999/xlink">
<g id="graph0" class="graph" transform="scale(1 1) rotate(0) translate(4 120.75)">
<title>carChoose</title>
<!-- Node1 -->
<g id="Node000001" class="node">
<title>Node1</title>
<g id="a_Node000001"><a xlink:title="Invokes the listView of cars.">
<polygon fill="#999999" stroke="#666666" points="610,-71.75 516,-71.75 516,-45 610,-45 610,-71.75"/>
<text text-anchor="middle" x="563" y="-52.55" font-family="Helvetica,sans-Serif" font-size="16.00">carChoose</text>
</a>
</g>
</g>
<!-- Node2 -->
<g id="Node000002" class="node">
<title>Node2</title>
<g id="a_Node000002"><a xlink:href="../../dc/dc6/carsmenu_8c.html#a04e2543edc445ed8a4cbd29b3466a07d" target="_top" xlink:title="Wrapper around carChoose frees extracted car instanntly.">
<polygon fill="white" stroke="#666666" points="480,-116.75 317.75,-116.75 317.75,-90 480,-90 480,-116.75"/>
<text text-anchor="middle" x="398.88" y="-97.55" font-family="Helvetica,sans-Serif" font-size="16.00">carChooseNoReturn</text>
</a>
</g>
</g>
<!-- Node1&#45;&gt;Node2 -->
<g id="edge1_Node000001_Node000002" class="edge">
<title>Node1&#45;&gt;Node2</title>
<g id="a_edge1_Node000001_Node000002"><a xlink:title=" ">
<path fill="none" stroke="#63b8ff" stroke-width="2" d="M503.11,-74.72C485.61,-79.58 466.61,-84.85 449.74,-89.53"/>
<polygon fill="#63b8ff" stroke="#63b8ff" stroke-width="2" points="504.84,-77.32 513.54,-71.27 502.97,-70.57 504.84,-77.32"/>
</a>
</g>
</g>
<!-- Node10 -->
<g id="Node000010" class="node">
<title>Node10</title>
<g id="a_Node000010"><a xlink:href="../../dc/dc6/carsmenu_8c.html#acf8ae724beca8714d7d114a7f2539895" target="_top" xlink:title="Edit car.">
<polygon fill="white" stroke="#666666" points="432,-71.75 365.75,-71.75 365.75,-45 432,-45 432,-71.75"/>
<text text-anchor="middle" x="398.88" y="-52.55" font-family="Helvetica,sans-Serif" font-size="16.00">carEdit</text>
</a>
</g>
</g>
<!-- Node1&#45;&gt;Node10 -->
<g id="edge4_Node000001_Node000010" class="edge">
<title>Node1&#45;&gt;Node10</title>
<g id="a_edge4_Node000001_Node000010"><a xlink:title=" ">
<path fill="none" stroke="#63b8ff" stroke-width="2" d="M502.69,-58.38C478.97,-58.38 452.56,-58.38 432.45,-58.38"/>
<polygon fill="#63b8ff" stroke="#63b8ff" stroke-width="2" points="502.54,-61.88 512.54,-58.38 502.54,-54.88 502.54,-61.88"/>
</a>
</g>
</g>
<!-- Node11 -->
<g id="Node000011" class="node">
<title>Node11</title>
<g id="a_Node000011"><a xlink:href="../../dc/dc6/carsmenu_8c.html#a76be213354bbaa3d64a095bafa1ec8d2" target="_top" xlink:title="Removes a car.">
<polygon fill="white" stroke="#666666" points="448.12,-26.75 349.62,-26.75 349.62,0 448.12,0 448.12,-26.75"/>
<text text-anchor="middle" x="398.88" y="-7.55" font-family="Helvetica,sans-Serif" font-size="16.00">carRemove</text>
</a>
</g>
</g>
<!-- Node1&#45;&gt;Node11 -->
<g id="edge6_Node000001_Node000011" class="edge">
<title>Node1&#45;&gt;Node11</title>
<g id="a_edge6_Node000001_Node000011"><a xlink:title=" ">
<path fill="none" stroke="#63b8ff" stroke-width="2" d="M503.14,-42.04C485.23,-37.07 465.76,-31.66 448.6,-26.9"/>
<polygon fill="#63b8ff" stroke="#63b8ff" stroke-width="2" points="502.97,-46.18 513.54,-45.48 504.84,-39.43 502.97,-46.18"/>
</a>
</g>
</g>
<!-- Node3 -->
<g id="Node000003" class="node">
<title>Node3</title>
<g id="a_Node000003"><a xlink:href="../../dc/dc6/carsmenu_8c.html#a7adcbb9b8798811ec24e33760623ebc0" target="_top" xlink:title="Handles displaying of cars menu.">
<polygon fill="white" stroke="#666666" points="281.75,-71.75 194.5,-71.75 194.5,-45 281.75,-45 281.75,-71.75"/>
<text text-anchor="middle" x="238.12" y="-52.55" font-family="Helvetica,sans-Serif" font-size="16.00">carsMenu</text>
</a>
</g>
</g>
<!-- Node2&#45;&gt;Node3 -->
<g id="edge2_Node000002_Node000003" class="edge">
<title>Node2&#45;&gt;Node3</title>
<g id="a_edge2_Node000002_Node000003"><a xlink:title=" ">
<path fill="none" stroke="#63b8ff" stroke-width="2" d="M336.64,-86.02C318.49,-80.87 298.99,-75.35 282.24,-70.6"/>
<polygon fill="#63b8ff" stroke="#63b8ff" stroke-width="2" points="336.37,-90.15 346.95,-89.51 338.28,-83.41 336.37,-90.15"/>
</a>
</g>
</g>
<!-- Node4 -->
<g id="Node000004" class="node">
<title>Node4</title>
<g id="a_Node000004"><a xlink:href="../../de/dc9/mmenu_8c.html#a315bc1f41a79da39147ec73e38cfc9e7" target="_top" xlink:title="Handles main menu.">
<polygon fill="#fff0f0" stroke="red" points="158.5,-71.75 0,-71.75 0,-45 158.5,-45 158.5,-71.75"/>
<text text-anchor="middle" x="79.25" y="-52.55" font-family="Helvetica,sans-Serif" font-size="16.00">mainMenuSelection</text>
</a>
</g>
</g>
<!-- Node3&#45;&gt;Node4 -->
<g id="edge3_Node000003_Node000004" class="edge">
<title>Node3&#45;&gt;Node4</title>
<g id="a_edge3_Node000003_Node000004"><a xlink:title=" ">
<path fill="none" stroke="#63b8ff" stroke-width="2" d="M181.47,-58.38C174.16,-58.38 166.56,-58.38 158.96,-58.38"/>
<polygon fill="#63b8ff" stroke="#63b8ff" stroke-width="2" points="181.26,-61.88 191.26,-58.38 181.26,-54.88 181.26,-61.88"/>
</a>
</g>
</g>
<!-- Node10&#45;&gt;Node3 -->
<g id="edge5_Node000010_Node000003" class="edge">
<title>Node10&#45;&gt;Node3</title>
<g id="a_edge5_Node000010_Node000003"><a xlink:title=" ">
<path fill="none" stroke="#63b8ff" stroke-width="2" d="M352.57,-58.38C330.44,-58.38 303.95,-58.38 282.13,-58.38"/>
<polygon fill="#63b8ff" stroke="#63b8ff" stroke-width="2" points="352.37,-61.88 362.37,-58.38 352.37,-54.88 352.37,-61.88"/>
</a>
</g>
</g>
<!-- Node11&#45;&gt;Node3 -->
<g id="edge7_Node000011_Node000003" class="edge">
<title>Node11&#45;&gt;Node3</title>
<g id="a_edge7_Node000011_Node000003"><a xlink:title=" ">
<path fill="none" stroke="#63b8ff" stroke-width="2" d="M337.01,-30.63C318.73,-35.81 299.08,-41.38 282.21,-46.16"/>
<polygon fill="#63b8ff" stroke="#63b8ff" stroke-width="2" points="338.72,-33.22 347.38,-27.12 336.81,-26.48 338.72,-33.22"/>
</a>
</g>
</g>
</g>
</svg>
