<?xml version="1.0" encoding="UTF-8" standalone="no"?>
<!DOCTYPE svg PUBLIC "-//W3C//DTD SVG 1.1//EN"
 "http://www.w3.org/Graphics/SVG/1.1/DTD/svg11.dtd">
<!-- Generated by graphviz version 8.0.5 (0)
 -->
<!-- Title: carRemove Pages: 1 -->
<svg width="1167pt" height="631pt"
 viewBox="0.00 0.00 1166.75 631.34" xmlns="http://www.w3.org/2000/svg" xmlns:xlink="http://www.w3.org/1999/xlink">
<g id="graph0" class="graph" transform="scale(1 1) rotate(0) translate(4 627.34)">
<title>carRemove</title>
<!-- Node1 -->
<g id="Node000001" class="node">
<title>Node1</title>
<g id="a_Node000001"><a xlink:title="Removes a car.">
<polygon fill="#999999" stroke="#666666" points="98.5,-454.85 0,-454.85 0,-428.1 98.5,-428.1 98.5,-454.85"/>
<text text-anchor="middle" x="49.25" y="-435.65" font-family="Helvetica,sans-Serif" font-size="16.00">carRemove</text>
</a>
</g>
</g>
<!-- Node2 -->
<g id="Node000002" class="node">
<title>Node2</title>
<g id="a_Node000002"><a xlink:href="../../dc/dc6/carsmenu_8c.html#ad451b82b7f3d31d1bb3fc4c210941579" target="_top" xlink:title="Invokes the listView of cars.">
<polygon fill="white" stroke="#666666" points="266.75,-364.85 172.75,-364.85 172.75,-338.1 266.75,-338.1 266.75,-364.85"/>
<text text-anchor="middle" x="219.75" y="-345.65" font-family="Helvetica,sans-Serif" font-size="16.00">carChoose</text>
</a>
</g>
</g>
<!-- Node1&#45;&gt;Node2 -->
<g id="edge1_Node000001_Node000002" class="edge">
<title>Node1&#45;&gt;Node2</title>
<g id="a_edge1_Node000001_Node000002"><a xlink:title=" ">
<path fill="none" stroke="#63b8ff" stroke-width="2" d="M76.21,-427.61C104.49,-412.5 149.97,-388.21 181.93,-371.14"/>
<polygon fill="#63b8ff" stroke="#63b8ff" stroke-width="2" points="183.87,-374.01 191.04,-366.21 180.57,-367.83 183.87,-374.01"/>
</a>
</g>
</g>
<!-- Node3 -->
<g id="Node000003" class="node">
<title>Node3</title>
<g id="a_Node000003"><a xlink:href="../../d5/df2/car_8c.html#a4ccd342eeebaa0daf8b8b5922ad3b2ff" target="_top" xlink:title="Deallocates car.">
<polygon fill="white" stroke="#666666" points="460.12,-454.85 388.62,-454.85 388.62,-428.1 460.12,-428.1 460.12,-454.85"/>
<text text-anchor="middle" x="424.38" y="-435.65" font-family="Helvetica,sans-Serif" font-size="16.00">carFree</text>
</a>
</g>
</g>
<!-- Node1&#45;&gt;Node3 -->
<g id="edge23_Node000001_Node000003" class="edge">
<title>Node1&#45;&gt;Node3</title>
<g id="a_edge23_Node000001_Node000003"><a xlink:title=" ">
<path fill="none" stroke="#63b8ff" stroke-width="2" d="M98.65,-441.47C170.39,-441.47 304.16,-441.47 375.57,-441.47"/>
<polygon fill="#63b8ff" stroke="#63b8ff" stroke-width="2" points="375.15,-444.97 385.15,-441.47 375.15,-437.97 375.15,-444.97"/>
</a>
</g>
</g>
<!-- Node12 -->
<g id="Node000012" class="node">
<title>Node12</title>
<g id="a_Node000012"><a xlink:href="../../d7/dba/menuutil_8c.html#ae6ed898f3726361b1edde3f8707f0260" target="_top" xlink:title="Displays message box on the screen with title and message.">
<polygon fill="#fff0f0" stroke="red" points="953,-409.85 781,-409.85 781,-383.1 953,-383.1 953,-409.85"/>
<text text-anchor="middle" x="867" y="-390.65" font-family="Helvetica,sans-Serif" font-size="16.00">menuUtilMessagebox</text>
</a>
</g>
</g>
<!-- Node1&#45;&gt;Node12 -->
<g id="edge27_Node000001_Node000012" class="edge">
<title>Node1&#45;&gt;Node12</title>
<g id="a_edge27_Node000001_Node000012"><a xlink:title=" ">
<path fill="none" stroke="#63b8ff" stroke-width="2" d="M59.51,-455.32C73.3,-474.69 101.24,-509.32 134.5,-525.47 378.64,-644.07 501.44,-660.25 745,-540.47 797.2,-514.81 835.34,-455.14 853.71,-421.22"/>
<polygon fill="#63b8ff" stroke="#63b8ff" stroke-width="2" points="857.05,-422.48 858.58,-411.99 850.84,-419.24 857.05,-422.48"/>
</a>
</g>
</g>
<!-- Node16 -->
<g id="Node000016" class="node">
<title>Node16</title>
<g id="a_Node000016"><a xlink:href="../../dc/dc6/carsmenu_8c.html#a55b6445add211264ded95be67ff98aa5" target="_top" xlink:title="Given car, generates a string representing car data in listView friendly format (whole row).">
<polygon fill="white" stroke="#666666" points="507.75,-177.85 341,-177.85 341,-151.1 507.75,-151.1 507.75,-177.85"/>
<text text-anchor="middle" x="424.38" y="-158.65" font-family="Helvetica,sans-Serif" font-size="16.00">carGetListViewString</text>
</a>
</g>
</g>
<!-- Node1&#45;&gt;Node16 -->
<g id="edge24_Node000001_Node000016" class="edge">
<title>Node1&#45;&gt;Node16</title>
<g id="a_edge24_Node000001_Node000016"><a xlink:title=" ">
<path fill="none" stroke="#63b8ff" stroke-width="2" d="M58.37,-427.95C72.16,-405.72 101.83,-360.79 134.5,-329.47 214.92,-252.41 240.1,-234.65 341,-187.47 344.7,-185.74 348.55,-184.12 352.49,-182.6"/>
<polygon fill="#63b8ff" stroke="#63b8ff" stroke-width="2" points="354.2,-185.99 362.45,-179.35 351.86,-179.4 354.2,-185.99"/>
</a>
</g>
</g>
<!-- Node30 -->
<g id="Node000030" class="node">
<title>Node30</title>
<g id="a_Node000030"><a xlink:href="../../d3/df4/dbhandle_8c.html#a230344c970b882095a893674614099c4" target="_top" xlink:title="Remove a car from the database.">
<polygon fill="white" stroke="#666666" points="305,-516.85 134.5,-516.85 134.5,-490.1 305,-490.1 305,-516.85"/>
<text text-anchor="middle" x="219.75" y="-497.65" font-family="Helvetica,sans-Serif" font-size="16.00">dbHandleCarRemove</text>
</a>
</g>
</g>
<!-- Node1&#45;&gt;Node30 -->
<g id="edge25_Node000001_Node000030" class="edge">
<title>Node1&#45;&gt;Node30</title>
<g id="a_edge25_Node000001_Node000030"><a xlink:title=" ">
<path fill="none" stroke="#63b8ff" stroke-width="2" d="M87.65,-455.23C111.67,-464.07 143.14,-475.65 169.23,-485.25"/>
<polygon fill="#63b8ff" stroke="#63b8ff" stroke-width="2" points="168.57,-488.48 179.17,-488.65 170.99,-481.91 168.57,-488.48"/>
</a>
</g>
</g>
<!-- Node2&#45;&gt;Node3 -->
<g id="edge2_Node000002_Node000003" class="edge">
<title>Node2&#45;&gt;Node3</title>
<g id="a_edge2_Node000002_Node000003"><a xlink:title=" ">
<path fill="none" stroke="#63b8ff" stroke-width="2" d="M241.71,-365.17C265.12,-379.97 304.53,-403.47 341,-418.47 352.09,-423.04 364.39,-427.01 376.02,-430.31"/>
<polygon fill="#63b8ff" stroke="#63b8ff" stroke-width="2" points="375.73,-434.4 386.3,-433.63 377.55,-427.64 375.73,-434.4"/>
</a>
</g>
</g>
<!-- Node4 -->
<g id="Node000004" class="node">
<title>Node4</title>
<g id="a_Node000004"><a xlink:href="../../d5/df2/car_8c.html#ad946b04e98242aa73d41af8cd6963335" target="_top" xlink:title="Get list of cars.">
<polygon fill="white" stroke="#666666" points="469.5,-409.85 379.25,-409.85 379.25,-383.1 469.5,-383.1 469.5,-409.85"/>
<text text-anchor="middle" x="424.38" y="-390.65" font-family="Helvetica,sans-Serif" font-size="16.00">carGetList</text>
</a>
</g>
</g>
<!-- Node2&#45;&gt;Node4 -->
<g id="edge3_Node000002_Node000004" class="edge">
<title>Node2&#45;&gt;Node4</title>
<g id="a_edge3_Node000002_Node000004"><a xlink:title=" ">
<path fill="none" stroke="#63b8ff" stroke-width="2" d="M267.24,-361.8C296.71,-368.34 335.04,-376.86 366.35,-383.81"/>
<polygon fill="#63b8ff" stroke="#63b8ff" stroke-width="2" points="366.32,-387.83 376.84,-386.58 367.84,-381 366.32,-387.83"/>
</a>
</g>
</g>
<!-- Node2&#45;&gt;Node12 -->
<g id="edge22_Node000002_Node000012" class="edge">
<title>Node2&#45;&gt;Node12</title>
<g id="a_edge22_Node000002_Node000012"><a xlink:title=" ">
<path fill="none" stroke="#63b8ff" stroke-width="2" d="M266.92,-340.68C359.41,-320.97 573.23,-285.09 745,-329.47 779.16,-338.3 813.98,-359.07 837.44,-375.16"/>
<polygon fill="#63b8ff" stroke="#63b8ff" stroke-width="2" points="835.8,-378.71 845.99,-381.62 839.84,-372.99 835.8,-378.71"/>
</a>
</g>
</g>
<!-- Node2&#45;&gt;Node16 -->
<g id="edge9_Node000002_Node000016" class="edge">
<title>Node2&#45;&gt;Node16</title>
<g id="a_edge9_Node000002_Node000016"><a xlink:title=" ">
<path fill="none" stroke="#63b8ff" stroke-width="2" d="M236.26,-337.89C254.43,-321.39 284.62,-292.09 305,-262.47 325.96,-232.01 312.67,-211.23 341,-187.47 342.08,-186.57 343.19,-185.7 344.34,-184.86"/>
<polygon fill="#63b8ff" stroke="#63b8ff" stroke-width="2" points="346.57,-187.39 353.31,-179.22 342.94,-181.4 346.57,-187.39"/>
</a>
</g>
</g>
<!-- Node17 -->
<g id="Node000017" class="node">
<title>Node17</title>
<g id="a_Node000017"><a xlink:href="../../dc/dc6/carsmenu_8c.html#acf7941e462559f5f161ffcd804d4b8c9" target="_top" xlink:title="Extracts car from the given ListNode.">
<polygon fill="white" stroke="#666666" points="469.5,-364.85 379.25,-364.85 379.25,-338.1 469.5,-338.1 469.5,-364.85"/>
<text text-anchor="middle" x="424.38" y="-345.65" font-family="Helvetica,sans-Serif" font-size="16.00">extractCar</text>
</a>
</g>
</g>
<!-- Node2&#45;&gt;Node17 -->
<g id="edge10_Node000002_Node000017" class="edge">
<title>Node2&#45;&gt;Node17</title>
<g id="a_edge10_Node000002_Node000017"><a xlink:title=" ">
<path fill="none" stroke="#63b8ff" stroke-width="2" d="M267.24,-351.47C296.58,-351.47 334.7,-351.47 365.93,-351.47"/>
<polygon fill="#63b8ff" stroke="#63b8ff" stroke-width="2" points="365.84,-354.97 375.84,-351.47 365.84,-347.97 365.84,-354.97"/>
</a>
</g>
</g>
<!-- Node19 -->
<g id="Node000019" class="node">
<title>Node19</title>
<g id="a_Node000019"><a xlink:href="../../d7/dba/menuutil_8c.html#aca301edf9d04aa391571851b148355ba" target="_top" xlink:title="List Viewer for lists.">
<polygon fill="white" stroke="#666666" points="483.75,-222.85 365,-222.85 365,-196.1 483.75,-196.1 483.75,-222.85"/>
<text text-anchor="middle" x="424.38" y="-203.65" font-family="Helvetica,sans-Serif" font-size="16.00">listViewInvoke</text>
</a>
</g>
</g>
<!-- Node2&#45;&gt;Node19 -->
<g id="edge12_Node000002_Node000019" class="edge">
<title>Node2&#45;&gt;Node19</title>
<g id="a_edge12_Node000002_Node000019"><a xlink:title=" ">
<path fill="none" stroke="#63b8ff" stroke-width="2" d="M240.55,-337.6C276.2,-312.62 351.38,-259.93 393.38,-230.49"/>
<polygon fill="#63b8ff" stroke="#63b8ff" stroke-width="2" points="395.61,-232.8 401.8,-224.19 391.6,-227.07 395.61,-232.8"/>
</a>
</g>
</g>
<!-- Node5 -->
<g id="Node000005" class="node">
<title>Node5</title>
<g id="a_Node000005"><a xlink:href="../../d5/df2/car_8c.html#a2337951b2ae65cc121c20255a2179ad2" target="_top" xlink:title="CallBack function for dbHandleGetResultAsList. Transforms row into Car.">
<polygon fill="#fff0f0" stroke="red" points="742.75,-454.85 546,-454.85 546,-428.1 742.75,-428.1 742.75,-454.85"/>
<text text-anchor="middle" x="644.38" y="-435.65" font-family="Helvetica,sans-Serif" font-size="16.00">carGetListQueryCallback</text>
</a>
</g>
</g>
<!-- Node4&#45;&gt;Node5 -->
<g id="edge4_Node000004_Node000005" class="edge">
<title>Node4&#45;&gt;Node5</title>
<g id="a_edge4_Node000004_Node000005"><a xlink:title=" ">
<path fill="none" stroke="#63b8ff" stroke-width="2" d="M469.75,-405.63C496.79,-411.22 532.13,-418.51 563.86,-425.06"/>
<polygon fill="#63b8ff" stroke="#63b8ff" stroke-width="2" points="563.78,-429.03 574.28,-427.62 565.19,-422.17 563.78,-429.03"/>
</a>
</g>
</g>
<!-- Node9 -->
<g id="Node000009" class="node">
<title>Node9</title>
<g id="a_Node000009"><a xlink:href="../../d5/df2/car_8c.html#a42654de8d3a43e2623c8882f42207408" target="_top" xlink:title="Generates SQL query.">
<polygon fill="white" stroke="#666666" points="722.12,-499.85 566.62,-499.85 566.62,-473.1 722.12,-473.1 722.12,-499.85"/>
<text text-anchor="middle" x="644.38" y="-480.65" font-family="Helvetica,sans-Serif" font-size="16.00">carGetQueryOfSort</text>
</a>
</g>
</g>
<!-- Node4&#45;&gt;Node9 -->
<g id="edge5_Node000004_Node000009" class="edge">
<title>Node4&#45;&gt;Node9</title>
<g id="a_edge5_Node000004_Node000009"><a xlink:title=" ">
<path fill="none" stroke="#63b8ff" stroke-width="2" d="M469.83,-403.61C482.76,-407.04 496.44,-412.08 507.75,-419.47 528.9,-433.29 522.29,-450.14 543.75,-463.47 547.11,-465.56 550.64,-467.46 554.28,-469.19"/>
<polygon fill="#63b8ff" stroke="#63b8ff" stroke-width="2" points="553.67,-472.55 564.25,-473.13 556.34,-466.08 553.67,-472.55"/>
</a>
</g>
</g>
<!-- Node10 -->
<g id="Node000010" class="node">
<title>Node10</title>
<g id="a_Node000010"><a xlink:href="../../d3/df4/dbhandle_8c.html#a93d9b43b32495dc8630963c174aeba05" target="_top" xlink:title="Given query and callback function create List based on the query.">
<polygon fill="#fff0f0" stroke="red" points="745,-409.85 543.75,-409.85 543.75,-383.1 745,-383.1 745,-409.85"/>
<text text-anchor="middle" x="644.38" y="-390.65" font-family="Helvetica,sans-Serif" font-size="16.00">dbHandleGetResultAsList</text>
</a>
</g>
</g>
<!-- Node4&#45;&gt;Node10 -->
<g id="edge6_Node000004_Node000010" class="edge">
<title>Node4&#45;&gt;Node10</title>
<g id="a_edge6_Node000004_Node000010"><a xlink:title=" ">
<path fill="none" stroke="#63b8ff" stroke-width="2" d="M469.75,-396.47C487.65,-396.47 509.19,-396.47 530.91,-396.47"/>
<polygon fill="#63b8ff" stroke="#63b8ff" stroke-width="2" points="530.7,-399.97 540.7,-396.47 530.7,-392.97 530.7,-399.97"/>
</a>
</g>
</g>
<!-- Node10&#45;&gt;Node12 -->
<g id="edge7_Node000010_Node000012" class="edge">
<title>Node10&#45;&gt;Node12</title>
<g id="a_edge7_Node000010_Node000012"><a xlink:title=" ">
<path fill="none" stroke="#63b8ff" stroke-width="2" d="M745.36,-396.47C752.79,-396.47 760.28,-396.47 767.71,-396.47"/>
<polygon fill="#63b8ff" stroke="#63b8ff" stroke-width="2" points="767.52,-399.97 777.52,-396.47 767.52,-392.97 767.52,-399.97"/>
</a>
</g>
</g>
<!-- Node15 -->
<g id="Node000015" class="node">
<title>Node15</title>
<g id="a_Node000015"><a xlink:href="../../d7/dba/menuutil_8c.html#a14ca6bd9893f550a2051ca6cd5a689ac" target="_top" xlink:title="Print boarders of window.">
<polygon fill="white" stroke="#666666" points="1158.75,-216.85 989,-216.85 989,-190.1 1158.75,-190.1 1158.75,-216.85"/>
<text text-anchor="middle" x="1073.88" y="-197.65" font-family="Helvetica,sans-Serif" font-size="16.00">printWindowBoarders</text>
</a>
</g>
</g>
<!-- Node12&#45;&gt;Node15 -->
<g id="edge8_Node000012_Node000015" class="edge">
<title>Node12&#45;&gt;Node15</title>
<g id="a_edge8_Node000012_Node000015"><a xlink:title=" ">
<path fill="none" stroke="#63b8ff" stroke-width="2" d="M882.41,-382.9C917.15,-350.18 1005.83,-266.63 1048.81,-226.15"/>
<polygon fill="#63b8ff" stroke="#63b8ff" stroke-width="2" points="1051.33,-228.69 1056.21,-219.29 1046.53,-223.6 1051.33,-228.69"/>
</a>
</g>
</g>
<!-- Node18 -->
<g id="Node000018" class="node">
<title>Node18</title>
<g id="a_Node000018"><a xlink:href="../../d5/df2/car_8c.html#aad591876ff6e73edb792e10ad133e602" target="_top" xlink:title="Make a clone of Car. It allocates memory internally.">
<polygon fill="#fff0f0" stroke="red" points="684.62,-364.85 604.12,-364.85 604.12,-338.1 684.62,-338.1 684.62,-364.85"/>
<text text-anchor="middle" x="644.38" y="-345.65" font-family="Helvetica,sans-Serif" font-size="16.00">carClone</text>
</a>
</g>
</g>
<!-- Node17&#45;&gt;Node18 -->
<g id="edge11_Node000017_Node000018" class="edge">
<title>Node17&#45;&gt;Node18</title>
<g id="a_edge11_Node000017_Node000018"><a xlink:title=" ">
<path fill="none" stroke="#63b8ff" stroke-width="2" d="M469.75,-351.47C504.94,-351.47 554.2,-351.47 591.26,-351.47"/>
<polygon fill="#63b8ff" stroke="#63b8ff" stroke-width="2" points="590.82,-354.97 600.82,-351.47 590.82,-347.97 590.82,-354.97"/>
</a>
</g>
</g>
<!-- Node19&#45;&gt;Node15 -->
<g id="edge21_Node000019_Node000015" class="edge">
<title>Node19&#45;&gt;Node15</title>
<g id="a_edge21_Node000019_Node000015"><a xlink:title=" ">
<path fill="none" stroke="#63b8ff" stroke-width="2" d="M484.23,-201.51C493.02,-198.07 501.29,-193.24 507.75,-186.47 557.17,-134.68 487.76,-74.08 543.75,-29.47 613.71,26.26 657.41,-11.34 745,-29.47 867.2,-54.78 992.15,-141.37 1045.75,-182.04"/>
<polygon fill="#63b8ff" stroke="#63b8ff" stroke-width="2" points="1043.73,-185.44 1053.79,-188.76 1048,-179.89 1043.73,-185.44"/>
</a>
</g>
</g>
<!-- Node20 -->
<g id="Node000020" class="node">
<title>Node20</title>
<g id="a_Node000020"><a xlink:href="../../d7/d40/list_8c.html#a0837532833bd96d83104386c1aa69c10" target="_top" xlink:title="How many elements are there in List.">
<polygon fill="white" stroke="#666666" points="900.88,-154.85 833.12,-154.85 833.12,-128.1 900.88,-128.1 900.88,-154.85"/>
<text text-anchor="middle" x="867" y="-135.65" font-family="Helvetica,sans-Serif" font-size="16.00">listSize</text>
</a>
</g>
</g>
<!-- Node19&#45;&gt;Node20 -->
<g id="edge13_Node000019_Node000020" class="edge">
<title>Node19&#45;&gt;Node20</title>
<g id="a_edge13_Node000019_Node000020"><a xlink:title=" ">
<path fill="none" stroke="#63b8ff" stroke-width="2" d="M453.75,-223.29C477.24,-233.92 511.81,-247.73 543.75,-253.47 631.78,-269.31 661.72,-286.1 745,-253.47 789.98,-235.85 828.23,-192.8 849.09,-165.49"/>
<polygon fill="#63b8ff" stroke="#63b8ff" stroke-width="2" points="852.56,-167.34 855.69,-157.21 846.93,-163.17 852.56,-167.34"/>
</a>
</g>
</g>
<!-- Node21 -->
<g id="Node000021" class="node">
<title>Node21</title>
<g id="a_Node000021"><a xlink:href="../../d7/dba/menuutil_8c.html#a6229d06cea0b18a996e9f378719c56bb" target="_top" xlink:title="frees internal List of listView.">
<polygon fill="#fff0f0" stroke="red" points="709,-154.85 579.75,-154.85 579.75,-128.1 709,-128.1 709,-154.85"/>
<text text-anchor="middle" x="644.38" y="-135.65" font-family="Helvetica,sans-Serif" font-size="16.00">listViewFreeList</text>
</a>
</g>
</g>
<!-- Node19&#45;&gt;Node21 -->
<g id="edge14_Node000019_Node000021" class="edge">
<title>Node19&#45;&gt;Node21</title>
<g id="a_edge14_Node000019_Node000021"><a xlink:title=" ">
<path fill="none" stroke="#63b8ff" stroke-width="2" d="M482.81,-195.65C491.31,-192.97 499.85,-189.91 507.75,-186.47 524.94,-178.99 526.39,-171.56 543.75,-164.47 551.14,-161.46 559,-158.79 566.95,-156.44"/>
<polygon fill="#63b8ff" stroke="#63b8ff" stroke-width="2" points="568.73,-159.04 577.45,-153.02 566.88,-152.29 568.73,-159.04"/>
</a>
</g>
</g>
<!-- Node26 -->
<g id="Node000026" class="node">
<title>Node26</title>
<g id="a_Node000026"><a xlink:href="../../d7/dba/menuutil_8c.html#a5cf01d8794a16c8f4d79eed99ec0b560" target="_top" xlink:title="frees memory used by listView internal Menu">
<polygon fill="white" stroke="#666666" points="716.5,-244.85 572.25,-244.85 572.25,-218.1 716.5,-218.1 716.5,-244.85"/>
<text text-anchor="middle" x="644.38" y="-225.65" font-family="Helvetica,sans-Serif" font-size="16.00">listViewFreeMenu</text>
</a>
</g>
</g>
<!-- Node19&#45;&gt;Node26 -->
<g id="edge16_Node000019_Node000026" class="edge">
<title>Node19&#45;&gt;Node26</title>
<g id="a_edge16_Node000019_Node000026"><a xlink:title=" ">
<path fill="none" stroke="#63b8ff" stroke-width="2" d="M484.08,-215.4C507.17,-217.73 534.12,-220.45 559.21,-222.98"/>
<polygon fill="#63b8ff" stroke="#63b8ff" stroke-width="2" points="558.83,-226.76 569.13,-224.28 559.53,-219.8 558.83,-226.76"/>
</a>
</g>
</g>
<!-- Node27 -->
<g id="Node000027" class="node">
<title>Node27</title>
<g id="a_Node000027"><a xlink:href="../../d7/dba/menuutil_8c.html#a6154454b5c30466c33806a07ce7578d5" target="_top" xlink:title=" ">
<polygon fill="white" stroke="#666666" points="738.62,-199.85 550.12,-199.85 550.12,-173.1 738.62,-173.1 738.62,-199.85"/>
<text text-anchor="middle" x="644.38" y="-180.65" font-family="Helvetica,sans-Serif" font-size="16.00">listViewHandleIteraction</text>
</a>
</g>
</g>
<!-- Node19&#45;&gt;Node27 -->
<g id="edge17_Node000019_Node000027" class="edge">
<title>Node19&#45;&gt;Node27</title>
<g id="a_edge17_Node000019_Node000027"><a xlink:title=" ">
<path fill="none" stroke="#63b8ff" stroke-width="2" d="M484.08,-203.28C500.4,-201.56 518.64,-199.63 536.79,-197.72"/>
<polygon fill="#63b8ff" stroke="#63b8ff" stroke-width="2" points="537.06,-200.89 546.64,-196.36 536.33,-193.93 537.06,-200.89"/>
</a>
</g>
</g>
<!-- Node28 -->
<g id="Node000028" class="node">
<title>Node28</title>
<g id="a_Node000028"><a xlink:href="../../d7/dba/menuutil_8c.html#a06a2ceb28df68b49e42d701e49f324c9" target="_top" xlink:title="Allocates and fills MENU, based on List content.">
<polygon fill="#fff0f0" stroke="red" points="710.88,-64.85 577.88,-64.85 577.88,-38.1 710.88,-38.1 710.88,-64.85"/>
<text text-anchor="middle" x="644.38" y="-45.65" font-family="Helvetica,sans-Serif" font-size="16.00">listViewInitMenu</text>
</a>
</g>
</g>
<!-- Node19&#45;&gt;Node28 -->
<g id="edge18_Node000019_Node000028" class="edge">
<title>Node19&#45;&gt;Node28</title>
<g id="a_edge18_Node000019_Node000028"><a xlink:title=" ">
<path fill="none" stroke="#63b8ff" stroke-width="2" d="M484.17,-200.86C492.86,-197.5 501.12,-192.86 507.75,-186.47 545.43,-150.22 505.26,-109.86 543.75,-74.47 550.07,-68.66 557.56,-64.23 565.55,-60.85"/>
<polygon fill="#63b8ff" stroke="#63b8ff" stroke-width="2" points="567.27,-64.25 575.54,-57.63 564.95,-57.65 567.27,-64.25"/>
</a>
</g>
</g>
<!-- Node29 -->
<g id="Node000029" class="node">
<title>Node29</title>
<g id="a_Node000029"><a xlink:href="../../d7/dba/menuutil_8c.html#adc98ee6c310a6ad6286dde9a1426db38" target="_top" xlink:title="Prints header row of table.">
<polygon fill="white" stroke="#666666" points="721.38,-109.85 567.38,-109.85 567.38,-83.1 721.38,-83.1 721.38,-109.85"/>
<text text-anchor="middle" x="644.38" y="-90.65" font-family="Helvetica,sans-Serif" font-size="16.00">printColumnNames</text>
</a>
</g>
</g>
<!-- Node19&#45;&gt;Node29 -->
<g id="edge20_Node000019_Node000029" class="edge">
<title>Node19&#45;&gt;Node29</title>
<g id="a_edge20_Node000019_Node000029"><a xlink:title=" ">
<path fill="none" stroke="#63b8ff" stroke-width="2" d="M484.07,-199.46C492.57,-196.26 500.79,-192.04 507.75,-186.47 534.14,-165.35 516.89,-139.99 543.75,-119.47 547.35,-116.72 551.22,-114.29 555.28,-112.15"/>
<polygon fill="#63b8ff" stroke="#63b8ff" stroke-width="2" points="557.43,-115.11 565.11,-107.81 554.56,-108.73 557.43,-115.11"/>
</a>
</g>
</g>
<!-- Node21&#45;&gt;Node20 -->
<g id="edge15_Node000021_Node000020" class="edge">
<title>Node21&#45;&gt;Node20</title>
<g id="a_edge15_Node000021_Node000020"><a xlink:title=" ">
<path fill="none" stroke="#63b8ff" stroke-width="2" d="M709.49,-141.47C744.77,-141.47 787.76,-141.47 819.75,-141.47"/>
<polygon fill="#63b8ff" stroke="#63b8ff" stroke-width="2" points="819.73,-144.97 829.73,-141.47 819.73,-137.97 819.73,-144.97"/>
</a>
</g>
</g>
<!-- Node28&#45;&gt;Node20 -->
<g id="edge19_Node000028_Node000020" class="edge">
<title>Node28&#45;&gt;Node20</title>
<g id="a_edge19_Node000028_Node000020"><a xlink:title=" ">
<path fill="none" stroke="#63b8ff" stroke-width="2" d="M711.27,-63.95C722.68,-66.88 734.31,-70.37 745,-74.47 776.98,-86.74 810.89,-106.14 834.65,-120.92"/>
<polygon fill="#63b8ff" stroke="#63b8ff" stroke-width="2" points="833.13,-124.36 843.45,-126.75 836.87,-118.44 833.13,-124.36"/>
</a>
</g>
</g>
<!-- Node30&#45;&gt;Node12 -->
<g id="edge26_Node000030_Node000012" class="edge">
<title>Node30&#45;&gt;Node12</title>
<g id="a_edge26_Node000030_Node000012"><a xlink:title=" ">
<path fill="none" stroke="#63b8ff" stroke-width="2" d="M277.16,-517.3C375.97,-538.68 585.04,-571.14 745,-508.47 789.98,-490.85 828.23,-447.8 849.09,-420.49"/>
<polygon fill="#63b8ff" stroke="#63b8ff" stroke-width="2" points="852.56,-422.34 855.69,-412.21 846.93,-418.17 852.56,-422.34"/>
</a>
</g>
</g>
</g>
</svg>
