<?xml version="1.0" encoding="UTF-8" standalone="no"?>
<!DOCTYPE svg PUBLIC "-//W3C//DTD SVG 1.1//EN"
 "http://www.w3.org/Graphics/SVG/1.1/DTD/svg11.dtd">
<!-- Generated by graphviz version 8.0.5 (0)
 -->
<!-- Title: carsMenu Pages: 1 -->
<!--zoomable 740 -->

<svg id="main" version="1.1" xmlns="http://www.w3.org/2000/svg" xmlns:xlink="http://www.w3.org/1999/xlink" xml:space="preserve" onload="init(evt)">
<style type="text/css"><![CDATA[
.node, .edge {opacity: 0.7;}
.node.selected, .edge.selected {opacity: 1;}
.edge:hover path { stroke: red; }
.edge:hover polygon { stroke: red; fill: red; }
]]></style>

<defs>
  <circle id="rim" cx="0" cy="0" r="7"/>
  <circle id="rim2" cx="0" cy="0" r="3.5"/>
  <g id="zoomPlus">
    <use xlink:href="#rim" fill="#404040"><set attributeName="fill" to="#808080" begin="zoomplus.mouseover" end="zoomplus.mouseout"/></use>
    <path d="M-4,0h8M0,-4v8" fill="none" stroke="white" stroke-width="1.5" pointer-events="none"/>
  </g>
  <g id="zoomMin">
    <use xlink:href="#rim" fill="#404040"><set attributeName="fill" to="#808080" begin="zoomminus.mouseover" end="zoomminus.mouseout"/></use>
    <path d="M-4,0h8" fill="none" stroke="white" stroke-width="1.5" pointer-events="none"/>
  </g>
  <g id="arrowUp" transform="translate(30 24)">
    <use xlink:href="#rim"/>
    <path pointer-events="none" fill="none" stroke="white" stroke-width="1.5" d="M0,-3.0v7 M-2.5,-0.5L0,-3.0L2.5,-0.5"/>
  </g>
  <g id="arrowRight" transform="rotate(90) translate(36 -43)">
    <use xlink:href="#rim"/>
    <path pointer-events="none" fill="none" stroke="white" stroke-width="1.5" d="M0,-3.0v7 M-2.5,-0.5L0,-3.0L2.5,-0.5"/>
  </g>
  <g id="arrowDown" transform="rotate(180) translate(-30 -48)">
    <use xlink:href="#rim"/>
    <path pointer-events="none" fill="none" stroke="white" stroke-width="1.5" d="M0,-3.0v7 M-2.5,-0.5L0,-3.0L2.5,-0.5"/>
  </g>
  <g id="arrowLeft" transform="rotate(270) translate(-36 17)">
    <use xlink:href="#rim"/>
    <path pointer-events="none" fill="none" stroke="white" stroke-width="1.5" d="M0,-3.0v7 M-2.5,-0.5L0,-3.0L2.5,-0.5"/>
  </g>
  <g id="resetDef">
    <use xlink:href="#rim2" fill="#404040"><set attributeName="fill" to="#808080" begin="reset.mouseover" end="reset.mouseout"/></use>
  </g>
</defs>
<script type="application/ecmascript">
var viewWidth = 712;
var viewHeight = 740;
var sectionId = 'dynsection-15';
</script>
<script type="application/ecmascript" xlink:href="../../svg.min.js"/>
<svg id="graph" class="graph">
<g id="viewport">
<title>carsMenu</title>
<!-- Node1 -->
<g id="Node000001" class="node">
<title>Node1</title>
<g id="a_Node000001"><a xlink:title="Handles displaying of cars menu.">
<polygon fill="#999999" stroke="#666666" points="87.25,-296.75 0,-296.75 0,-270 87.25,-270 87.25,-296.75"/>
<text text-anchor="middle" x="43.62" y="-277.55" font-family="Helvetica,sans-Serif" font-size="16.00">carsMenu</text>
</a>
</g>
</g>
<!-- Node2 -->
<g id="Node000002" class="node">
<title>Node2</title>
<g id="a_Node000002"><a xlink:href="../../dc/dc6/carsmenu_8c.html#a920be2aa6ca8626fdd965865d26f3fd4" target="_top" xlink:title="Function for adding a car.">
<polygon fill="white" stroke="#666666" points="238.62,-608.75 170.12,-608.75 170.12,-582 238.62,-582 238.62,-608.75"/>
<text text-anchor="middle" x="204.38" y="-589.55" font-family="Helvetica,sans-Serif" font-size="16.00">addCar</text>
</a>
</g>
</g>
<!-- Node1&#45;&gt;Node2 -->
<g id="edge1_Node000001_Node000002" class="edge">
<title>Node1&#45;&gt;Node2</title>
<g id="a_edge1_Node000001_Node000002"><a xlink:title=" ">
<path fill="none" stroke="#63b8ff" stroke-width="2" d="M51.65,-297.18C76.24,-345.51 158.65,-507.48 190.58,-570.24"/>
<polygon fill="#63b8ff" stroke="#63b8ff" stroke-width="2" points="187.78,-572.4 195.43,-579.73 194.01,-569.23 187.78,-572.4"/>
</a>
</g>
</g>
<!-- Node18 -->
<g id="Node000018" class="node">
<title>Node18</title>
<g id="a_Node000018"><a xlink:href="../../dc/dc6/carsmenu_8c.html#a04e2543edc445ed8a4cbd29b3466a07d" target="_top" xlink:title="Wrapper around carChoose frees extracted car instanntly.">
<polygon fill="white" stroke="#666666" points="285.5,-251.75 123.25,-251.75 123.25,-225 285.5,-225 285.5,-251.75"/>
<text text-anchor="middle" x="204.38" y="-232.55" font-family="Helvetica,sans-Serif" font-size="16.00">carChooseNoReturn</text>
</a>
</g>
</g>
<!-- Node1&#45;&gt;Node18 -->
<g id="edge9_Node000001_Node000018" class="edge">
<title>Node1&#45;&gt;Node18</title>
<g id="a_edge9_Node000001_Node000018"><a xlink:title=" ">
<path fill="none" stroke="#63b8ff" stroke-width="2" d="M87.59,-271.2C104.37,-266.44 123.93,-260.89 142.15,-255.73"/>
<polygon fill="#63b8ff" stroke="#63b8ff" stroke-width="2" points="143.82,-258.33 152.49,-252.23 141.92,-251.59 143.82,-258.33"/>
</a>
</g>
</g>
<!-- Node41 -->
<g id="Node000041" class="node">
<title>Node41</title>
<g id="a_Node000041"><a xlink:href="../../dc/dc6/carsmenu_8c.html#acf8ae724beca8714d7d114a7f2539895" target="_top" xlink:title="Edit car.">
<polygon fill="white" stroke="#666666" points="237.5,-399.75 171.25,-399.75 171.25,-373 237.5,-373 237.5,-399.75"/>
<text text-anchor="middle" x="204.38" y="-380.55" font-family="Helvetica,sans-Serif" font-size="16.00">carEdit</text>
</a>
</g>
</g>
<!-- Node1&#45;&gt;Node41 -->
<g id="edge15_Node000001_Node000041" class="edge">
<title>Node1&#45;&gt;Node41</title>
<g id="a_edge15_Node000001_Node000041"><a xlink:title=" ">
<path fill="none" stroke="#63b8ff" stroke-width="2" d="M65.71,-297.05C92.75,-314.6 139.91,-345.2 171.39,-365.62"/>
<polygon fill="#63b8ff" stroke="#63b8ff" stroke-width="2" points="169.91,-369.13 180.21,-371.64 173.72,-363.26 169.91,-369.13"/>
</a>
</g>
</g>
<!-- Node43 -->
<g id="Node000043" class="node">
<title>Node43</title>
<g id="a_Node000043"><a xlink:href="../../dc/dc6/carsmenu_8c.html#a76be213354bbaa3d64a095bafa1ec8d2" target="_top" xlink:title="Removes a car.">
<polygon fill="white" stroke="#666666" points="253.62,-296.75 155.12,-296.75 155.12,-270 253.62,-270 253.62,-296.75"/>
<text text-anchor="middle" x="204.38" y="-277.55" font-family="Helvetica,sans-Serif" font-size="16.00">carRemove</text>
</a>
</g>
</g>
<!-- Node1&#45;&gt;Node43 -->
<g id="edge23_Node000001_Node000043" class="edge">
<title>Node1&#45;&gt;Node43</title>
<g id="a_edge23_Node000001_Node000043"><a xlink:title=" ">
<path fill="none" stroke="#63b8ff" stroke-width="2" d="M87.59,-283.38C104.28,-283.38 123.73,-283.38 141.86,-283.38"/>
<polygon fill="#63b8ff" stroke="#63b8ff" stroke-width="2" points="141.78,-286.88 151.78,-283.38 141.78,-279.88 141.78,-286.88"/>
</a>
</g>
</g>
<!-- Node45 -->
<g id="Node000045" class="node">
<title>Node45</title>
<g id="a_Node000045"><a xlink:href="../../d7/dba/menuutil_8c.html#a949419e66b27ac75475821fb7aba527d" target="_top" xlink:title="Handle all operation and functions for menu.">
<polygon fill="#fff0f0" stroke="red" points="256.62,-94.75 152.12,-94.75 152.12,-68 256.62,-68 256.62,-94.75"/>
<text text-anchor="middle" x="204.38" y="-75.55" font-family="Helvetica,sans-Serif" font-size="16.00">menuInvoke</text>
</a>
</g>
</g>
<!-- Node1&#45;&gt;Node45 -->
<g id="edge30_Node000001_Node000045" class="edge">
<title>Node1&#45;&gt;Node45</title>
<g id="a_edge30_Node000001_Node000045"><a xlink:title=" ">
<path fill="none" stroke="#63b8ff" stroke-width="2" d="M55.29,-269.81C81.83,-236.04 151.12,-147.86 184.66,-105.19"/>
<polygon fill="#63b8ff" stroke="#63b8ff" stroke-width="2" points="188.12,-107.17 191.55,-97.15 182.62,-102.85 188.12,-107.17"/>
</a>
</g>
</g>
<!-- Node3 -->
<g id="Node000003" class="node">
<title>Node3</title>
<g id="a_Node000003"><a xlink:href="../../dc/dc6/carsmenu_8c.html#a30a34923bcd0082000de90700343bd84" target="_top" xlink:title="Function for editing car.">
<polygon fill="#fff0f0" stroke="red" points="460.5,-529.75 356.75,-529.75 356.75,-503 460.5,-503 460.5,-529.75"/>
<text text-anchor="middle" x="408.62" y="-510.55" font-family="Helvetica,sans-Serif" font-size="16.00">carFormEdit</text>
</a>
</g>
</g>
<!-- Node2&#45;&gt;Node3 -->
<g id="edge2_Node000002_Node000003" class="edge">
<title>Node2&#45;&gt;Node3</title>
<g id="a_edge2_Node000002_Node000003"><a xlink:title=" ">
<path fill="none" stroke="#63b8ff" stroke-width="2" d="M233.62,-581.61C256.9,-570.53 290.93,-554.97 321.5,-543.38 329.87,-540.2 338.78,-537.1 347.59,-534.2"/>
<polygon fill="#63b8ff" stroke="#63b8ff" stroke-width="2" points="349.45,-536.64 357.9,-530.24 347.31,-529.97 349.45,-536.64"/>
</a>
</g>
</g>
<!-- Node12 -->
<g id="Node000012" class="node">
<title>Node12</title>
<g id="a_Node000012"><a xlink:href="../../d5/df2/car_8c.html#a4ccd342eeebaa0daf8b8b5922ad3b2ff" target="_top" xlink:title="Deallocates car.">
<polygon fill="white" stroke="#666666" points="653.5,-274.75 582,-274.75 582,-248 653.5,-248 653.5,-274.75"/>
<text text-anchor="middle" x="617.75" y="-255.55" font-family="Helvetica,sans-Serif" font-size="16.00">carFree</text>
</a>
</g>
</g>
<!-- Node2&#45;&gt;Node12 -->
<g id="edge3_Node000002_Node000012" class="edge">
<title>Node2&#45;&gt;Node12</title>
<g id="a_edge3_Node000002_Node000012"><a xlink:title=" ">
<path fill="none" stroke="#63b8ff" stroke-width="2" d="M238.88,-588.3C262.06,-583.44 293.63,-576.89 321.5,-571.38 398.82,-556.06 438.88,-592.95 495.75,-538.38 546.77,-489.4 503.02,-448 531.75,-383.38 548.39,-345.94 577.07,-308.04 596.46,-284.63"/>
<polygon fill="#63b8ff" stroke="#63b8ff" stroke-width="2" points="599.86,-286.85 603.64,-276.95 594.51,-282.33 599.86,-286.85"/>
</a>
</g>
</g>
<!-- Node13 -->
<g id="Node000013" class="node">
<title>Node13</title>
<g id="a_Node000013"><a xlink:href="../../d5/df2/car_8c.html#a47a583e551002d7fc00d05227eba5855" target="_top" xlink:title="Checks if every field in Car is set.">
<polygon fill="white" stroke="#666666" points="468.75,-731.75 348.5,-731.75 348.5,-705 468.75,-705 468.75,-731.75"/>
<text text-anchor="middle" x="408.62" y="-712.55" font-family="Helvetica,sans-Serif" font-size="16.00">carIsComplete</text>
</a>
</g>
</g>
<!-- Node2&#45;&gt;Node13 -->
<g id="edge4_Node000002_Node000013" class="edge">
<title>Node2&#45;&gt;Node13</title>
<g id="a_edge4_Node000002_Node000013"><a xlink:title=" ">
<path fill="none" stroke="#63b8ff" stroke-width="2" d="M218.39,-609.11C238.62,-629.72 279.66,-668.66 321.5,-691.38 327.53,-694.65 334.01,-697.59 340.61,-700.22"/>
<polygon fill="#63b8ff" stroke="#63b8ff" stroke-width="2" points="339.97,-703.45 350.56,-703.61 342.39,-696.88 339.97,-703.45"/>
</a>
</g>
</g>
<!-- Node14 -->
<g id="Node000014" class="node">
<title>Node14</title>
<g id="a_Node000014"><a xlink:href="../../d5/df2/car_8c.html#a0d3175ea031713002ce87092fd6e258f" target="_top" xlink:title="Allocates and returns car containing nothing.">
<polygon fill="white" stroke="#666666" points="652.75,-587.75 582.75,-587.75 582.75,-561 652.75,-561 652.75,-587.75"/>
<text text-anchor="middle" x="617.75" y="-568.55" font-family="Helvetica,sans-Serif" font-size="16.00">carNew</text>
</a>
</g>
</g>
<!-- Node2&#45;&gt;Node14 -->
<g id="edge5_Node000002_Node000014" class="edge">
<title>Node2&#45;&gt;Node14</title>
<g id="a_edge5_Node000002_Node000014"><a xlink:title=" ">
<path fill="none" stroke="#63b8ff" stroke-width="2" d="M223.87,-609.23C245.81,-624.73 284.15,-648.9 321.5,-658.38 396.56,-677.43 421.84,-681.51 495.75,-658.38 534.06,-646.38 570.88,-617.52 593.63,-596.98"/>
<polygon fill="#63b8ff" stroke="#63b8ff" stroke-width="2" points="596.11,-599.59 601.05,-590.22 591.35,-594.47 596.11,-599.59"/>
</a>
</g>
</g>
<!-- Node15 -->
<g id="Node000015" class="node">
<title>Node15</title>
<g id="a_Node000015"><a xlink:href="../../d3/df4/dbhandle_8c.html#ae62043f5776328dcdc74dc9f29c4e2c6" target="_top" xlink:title="Insert a car into the database.">
<polygon fill="#fff0f0" stroke="red" points="484.12,-649.75 333.12,-649.75 333.12,-623 484.12,-623 484.12,-649.75"/>
<text text-anchor="middle" x="408.62" y="-630.55" font-family="Helvetica,sans-Serif" font-size="16.00">dbHandleCarInsert</text>
</a>
</g>
</g>
<!-- Node2&#45;&gt;Node15 -->
<g id="edge6_Node000002_Node000015" class="edge">
<title>Node2&#45;&gt;Node15</title>
<g id="a_edge6_Node000002_Node000015"><a xlink:title=" ">
<path fill="none" stroke="#63b8ff" stroke-width="2" d="M238.77,-602.15C262.73,-607 296.09,-613.76 326.83,-620"/>
<polygon fill="#63b8ff" stroke="#63b8ff" stroke-width="2" points="326.85,-623.98 337.35,-622.53 328.25,-617.12 326.85,-623.98"/>
</a>
</g>
</g>
<!-- Node17 -->
<g id="Node000017" class="node">
<title>Node17</title>
<g id="a_Node000017"><a xlink:href="../../d7/dba/menuutil_8c.html#ae6ed898f3726361b1edde3f8707f0260" target="_top" xlink:title="Displays message box on the screen with title and message.">
<polygon fill="#fff0f0" stroke="red" points="703.75,-418.75 531.75,-418.75 531.75,-392 703.75,-392 703.75,-418.75"/>
<text text-anchor="middle" x="617.75" y="-399.55" font-family="Helvetica,sans-Serif" font-size="16.00">menuUtilMessagebox</text>
</a>
</g>
</g>
<!-- Node2&#45;&gt;Node17 -->
<g id="edge8_Node000002_Node000017" class="edge">
<title>Node2&#45;&gt;Node17</title>
<g id="a_edge8_Node000002_Node000017"><a xlink:title=" ">
<path fill="none" stroke="#63b8ff" stroke-width="2" d="M238.86,-601.11C295.72,-609.1 413.05,-617.82 495.75,-571.38 552.46,-539.53 589.78,-468.8 606.56,-430.76"/>
<polygon fill="#63b8ff" stroke="#63b8ff" stroke-width="2" points="609.77,-431.79 610.46,-421.22 603.33,-429.05 609.77,-431.79"/>
</a>
</g>
</g>
<!-- Node15&#45;&gt;Node17 -->
<g id="edge7_Node000015_Node000017" class="edge">
<title>Node15&#45;&gt;Node17</title>
<g id="a_edge7_Node000015_Node000017"><a xlink:title=" ">
<path fill="none" stroke="#63b8ff" stroke-width="2" d="M472.59,-622.66C480.88,-619.18 488.87,-614.82 495.75,-609.38 499.77,-606.19 570.98,-484.12 602.24,-430.36"/>
<polygon fill="#63b8ff" stroke="#63b8ff" stroke-width="2" points="605.77,-431.54 607.77,-421.13 599.72,-428.02 605.77,-431.54"/>
</a>
</g>
</g>
<!-- Node18&#45;&gt;Node12 -->
<g id="edge14_Node000018_Node000012" class="edge">
<title>Node18&#45;&gt;Node12</title>
<g id="a_edge14_Node000018_Node000012"><a xlink:title=" ">
<path fill="none" stroke="#63b8ff" stroke-width="2" d="M285.91,-226.07C344.43,-219.17 425.37,-213.85 495.75,-224.38 520.66,-228.1 547.52,-235.91 569.59,-243.39"/>
<polygon fill="#63b8ff" stroke="#63b8ff" stroke-width="2" points="569.06,-247.61 579.65,-247.61 571.37,-241.01 569.06,-247.61"/>
</a>
</g>
</g>
<!-- Node19 -->
<g id="Node000019" class="node">
<title>Node19</title>
<g id="a_Node000019"><a xlink:href="../../dc/dc6/carsmenu_8c.html#ad451b82b7f3d31d1bb3fc4c210941579" target="_top" xlink:title="Invokes the listView of cars.">
<polygon fill="#fff0f0" stroke="red" points="455.62,-274.75 361.62,-274.75 361.62,-248 455.62,-248 455.62,-274.75"/>
<text text-anchor="middle" x="408.62" y="-255.55" font-family="Helvetica,sans-Serif" font-size="16.00">carChoose</text>
</a>
</g>
</g>
<!-- Node18&#45;&gt;Node19 -->
<g id="edge10_Node000018_Node000019" class="edge">
<title>Node18&#45;&gt;Node19</title>
<g id="a_edge10_Node000018_Node000019"><a xlink:title=" ">
<path fill="none" stroke="#63b8ff" stroke-width="2" d="M285.89,-247.53C306.76,-249.9 328.84,-252.42 348.39,-254.64"/>
<polygon fill="#63b8ff" stroke="#63b8ff" stroke-width="2" points="347.82,-258.44 358.15,-256.09 348.61,-251.48 347.82,-258.44"/>
</a>
</g>
</g>
<!-- Node19&#45;&gt;Node12 -->
<g id="edge11_Node000019_Node000012" class="edge">
<title>Node19&#45;&gt;Node12</title>
<g id="a_edge11_Node000019_Node000012"><a xlink:title=" ">
<path fill="none" stroke="#63b8ff" stroke-width="2" d="M456.11,-261.38C489.7,-261.38 534.94,-261.38 568.85,-261.38"/>
<polygon fill="#63b8ff" stroke="#63b8ff" stroke-width="2" points="568.7,-264.88 578.7,-261.38 568.7,-257.88 568.7,-264.88"/>
</a>
</g>
</g>
<!-- Node19&#45;&gt;Node17 -->
<g id="edge13_Node000019_Node000017" class="edge">
<title>Node19&#45;&gt;Node17</title>
<g id="a_edge13_Node000019_Node000017"><a xlink:title=" ">
<path fill="none" stroke="#63b8ff" stroke-width="2" d="M456.08,-269.07C469.46,-272.51 483.68,-277.42 495.75,-284.38 539.18,-309.42 577.93,-354.03 599.3,-381.52"/>
<polygon fill="#63b8ff" stroke="#63b8ff" stroke-width="2" points="597.28,-383.96 606.11,-389.81 602.85,-379.73 597.28,-383.96"/>
</a>
</g>
</g>
<!-- Node27 -->
<g id="Node000027" class="node">
<title>Node27</title>
<g id="a_Node000027"><a xlink:href="../../dc/dc6/carsmenu_8c.html#a55b6445add211264ded95be67ff98aa5" target="_top" xlink:title="Given car, generates a string representing car data in listView friendly format (whole row).">
<polygon fill="white" stroke="#666666" points="701.12,-193.75 534.38,-193.75 534.38,-167 701.12,-167 701.12,-193.75"/>
<text text-anchor="middle" x="617.75" y="-174.55" font-family="Helvetica,sans-Serif" font-size="16.00">carGetListViewString</text>
</a>
</g>
</g>
<!-- Node19&#45;&gt;Node27 -->
<g id="edge12_Node000019_Node000027" class="edge">
<title>Node19&#45;&gt;Node27</title>
<g id="a_edge12_Node000019_Node000027"><a xlink:title=" ">
<path fill="none" stroke="#63b8ff" stroke-width="2" d="M444.76,-247.63C479.13,-234.19 531.7,-213.64 569.67,-198.79"/>
<polygon fill="#63b8ff" stroke="#63b8ff" stroke-width="2" points="571.4,-202.08 579.44,-195.18 568.85,-195.57 571.4,-202.08"/>
</a>
</g>
</g>
<!-- Node41&#45;&gt;Node3 -->
<g id="edge19_Node000041_Node000003" class="edge">
<title>Node41&#45;&gt;Node3</title>
<g id="a_edge19_Node000041_Node000003"><a xlink:title=" ">
<path fill="none" stroke="#63b8ff" stroke-width="2" d="M216.35,-400.12C235.32,-422.97 276.58,-468.67 321.5,-493.38 328.53,-497.24 336.25,-500.48 344.08,-503.2"/>
<polygon fill="#63b8ff" stroke="#63b8ff" stroke-width="2" points="343.82,-507.41 354.41,-507.04 345.9,-500.72 343.82,-507.41"/>
</a>
</g>
</g>
<!-- Node41&#45;&gt;Node12 -->
<g id="edge20_Node000041_Node000012" class="edge">
<title>Node41&#45;&gt;Node12</title>
<g id="a_edge20_Node000041_Node000012"><a xlink:title=" ">
<path fill="none" stroke="#63b8ff" stroke-width="2" d="M237.62,-383.22C292.16,-377.16 405.49,-361.47 495.75,-328.38 528.11,-316.51 562.21,-296.89 585.94,-281.94"/>
<polygon fill="#63b8ff" stroke="#63b8ff" stroke-width="2" points="588.17,-284.38 594.7,-276.03 584.39,-278.49 588.17,-284.38"/>
</a>
</g>
</g>
<!-- Node41&#45;&gt;Node19 -->
<g id="edge16_Node000041_Node000019" class="edge">
<title>Node41&#45;&gt;Node19</title>
<g id="a_edge16_Node000041_Node000019"><a xlink:title=" ">
<path fill="none" stroke="#63b8ff" stroke-width="2" d="M217.11,-372.59C236.57,-350.62 277.72,-307.77 321.5,-284.38 330.04,-279.81 339.55,-276.1 349.05,-273.11"/>
<polygon fill="#63b8ff" stroke="#63b8ff" stroke-width="2" points="350.79,-275.68 359.44,-269.56 348.87,-268.95 350.79,-275.68"/>
</a>
</g>
</g>
<!-- Node29 -->
<g id="Node000029" class="node">
<title>Node29</title>
<g id="a_Node000029"><a xlink:href="../../d5/df2/car_8c.html#aad591876ff6e73edb792e10ad133e602" target="_top" xlink:title="Make a clone of Car. It allocates memory internally.">
<polygon fill="white" stroke="#666666" points="448.88,-484.75 368.38,-484.75 368.38,-458 448.88,-458 448.88,-484.75"/>
<text text-anchor="middle" x="408.62" y="-465.55" font-family="Helvetica,sans-Serif" font-size="16.00">carClone</text>
</a>
</g>
</g>
<!-- Node41&#45;&gt;Node29 -->
<g id="edge17_Node000041_Node000029" class="edge">
<title>Node41&#45;&gt;Node29</title>
<g id="a_edge17_Node000041_Node000029"><a xlink:title=" ">
<path fill="none" stroke="#63b8ff" stroke-width="2" d="M227.34,-400.07C250.17,-413.83 287.27,-434.87 321.5,-448.38 332.27,-452.62 344.11,-456.35 355.46,-459.51"/>
<polygon fill="#63b8ff" stroke="#63b8ff" stroke-width="2" points="355.44,-463.65 366,-462.82 357.22,-456.88 355.44,-463.65"/>
</a>
</g>
</g>
<!-- Node42 -->
<g id="Node000042" class="node">
<title>Node42</title>
<g id="a_Node000042"><a xlink:href="../../d3/df4/dbhandle_8c.html#a127bbad9ae9228590e2a7eb06a085321" target="_top" xlink:title="Update a car in the database.">
<polygon fill="white" stroke="#666666" points="489.75,-439.75 327.5,-439.75 327.5,-413 489.75,-413 489.75,-439.75"/>
<text text-anchor="middle" x="408.62" y="-420.55" font-family="Helvetica,sans-Serif" font-size="16.00">dbHandleCarUpdate</text>
</a>
</g>
</g>
<!-- Node41&#45;&gt;Node42 -->
<g id="edge21_Node000041_Node000042" class="edge">
<title>Node41&#45;&gt;Node42</title>
<g id="a_edge21_Node000041_Node000042"><a xlink:title=" ">
<path fill="none" stroke="#63b8ff" stroke-width="2" d="M237.87,-392.8C261.42,-397.46 294.38,-403.98 325,-410.03"/>
<polygon fill="#63b8ff" stroke="#63b8ff" stroke-width="2" points="325,-414 335.49,-412.5 326.36,-407.13 325,-414"/>
</a>
</g>
</g>
<!-- Node29&#45;&gt;Node14 -->
<g id="edge18_Node000029_Node000014" class="edge">
<title>Node29&#45;&gt;Node14</title>
<g id="a_edge18_Node000029_Node000014"><a xlink:title=" ">
<path fill="none" stroke="#63b8ff" stroke-width="2" d="M449.13,-479.09C464.1,-482.74 481.07,-487.77 495.75,-494.38 530.25,-509.89 565.92,-534.74 589.51,-552.63"/>
<polygon fill="#63b8ff" stroke="#63b8ff" stroke-width="2" points="587.71,-556.2 597.76,-559.54 591.98,-550.66 587.71,-556.2"/>
</a>
</g>
</g>
<!-- Node42&#45;&gt;Node17 -->
<g id="edge22_Node000042_Node000017" class="edge">
<title>Node42&#45;&gt;Node17</title>
<g id="a_edge22_Node000042_Node000017"><a xlink:title=" ">
<path fill="none" stroke="#63b8ff" stroke-width="2" d="M490,-418.23C499.3,-417.28 508.87,-416.31 518.38,-415.35"/>
<polygon fill="#63b8ff" stroke="#63b8ff" stroke-width="2" points="518.68,-418.53 528.28,-414.04 517.98,-411.57 518.68,-418.53"/>
</a>
</g>
</g>
<!-- Node43&#45;&gt;Node12 -->
<g id="edge25_Node000043_Node000012" class="edge">
<title>Node43&#45;&gt;Node12</title>
<g id="a_edge25_Node000043_Node000012"><a xlink:title=" ">
<path fill="none" stroke="#63b8ff" stroke-width="2" d="M253.93,-271.54C264.51,-268.38 275.52,-264.64 285.5,-260.38 302.53,-253.1 303.62,-244.21 321.5,-239.38 406.79,-216.32 510.65,-234.14 569.7,-248.34"/>
<polygon fill="#63b8ff" stroke="#63b8ff" stroke-width="2" points="569.4,-252.37 579.94,-251.39 571.09,-245.58 569.4,-252.37"/>
</a>
</g>
</g>
<!-- Node43&#45;&gt;Node17 -->
<g id="edge29_Node000043_Node000017" class="edge">
<title>Node43&#45;&gt;Node17</title>
<g id="a_edge29_Node000043_Node000017"><a xlink:title=" ">
<path fill="none" stroke="#63b8ff" stroke-width="2" d="M238.05,-297.19C261.12,-306.67 292.9,-319.14 321.5,-328.38 395.98,-352.43 482.83,-374.36 542.96,-388.62"/>
<polygon fill="#63b8ff" stroke="#63b8ff" stroke-width="2" points="542.84,-392.65 553.37,-391.54 544.44,-385.84 542.84,-392.65"/>
</a>
</g>
</g>
<!-- Node43&#45;&gt;Node19 -->
<g id="edge24_Node000043_Node000019" class="edge">
<title>Node43&#45;&gt;Node19</title>
<g id="a_edge24_Node000043_Node000019"><a xlink:title=" ">
<path fill="none" stroke="#63b8ff" stroke-width="2" d="M254.08,-278.08C282.48,-274.99 318.52,-271.07 348.54,-267.8"/>
<polygon fill="#63b8ff" stroke="#63b8ff" stroke-width="2" points="348.87,-270.96 358.43,-266.4 348.11,-264 348.87,-270.96"/>
</a>
</g>
</g>
<!-- Node43&#45;&gt;Node27 -->
<g id="edge26_Node000043_Node000027" class="edge">
<title>Node43&#45;&gt;Node27</title>
<g id="a_edge26_Node000043_Node000027"><a xlink:title=" ">
<path fill="none" stroke="#63b8ff" stroke-width="2" d="M254.03,-273.66C264.82,-270.37 275.9,-266.03 285.5,-260.38 304.99,-248.89 301.29,-234.56 321.5,-224.38 383.27,-193.26 460.88,-182.63 521.02,-179.58"/>
<polygon fill="#63b8ff" stroke="#63b8ff" stroke-width="2" points="521.12,-182.95 530.97,-179.02 520.82,-175.96 521.12,-182.95"/>
</a>
</g>
</g>
<!-- Node44 -->
<g id="Node000044" class="node">
<title>Node44</title>
<g id="a_Node000044"><a xlink:href="../../d3/df4/dbhandle_8c.html#a230344c970b882095a893674614099c4" target="_top" xlink:title="Remove a car from the database.">
<polygon fill="white" stroke="#666666" points="493.88,-319.75 323.38,-319.75 323.38,-293 493.88,-293 493.88,-319.75"/>
<text text-anchor="middle" x="408.62" y="-300.55" font-family="Helvetica,sans-Serif" font-size="16.00">dbHandleCarRemove</text>
</a>
</g>
</g>
<!-- Node43&#45;&gt;Node44 -->
<g id="edge27_Node000043_Node000044" class="edge">
<title>Node43&#45;&gt;Node44</title>
<g id="a_edge27_Node000043_Node000044"><a xlink:title=" ">
<path fill="none" stroke="#63b8ff" stroke-width="2" d="M254.08,-288.91C271.05,-290.84 290.74,-293.08 310.25,-295.3"/>
<polygon fill="#63b8ff" stroke="#63b8ff" stroke-width="2" points="309.68,-299.1 320.01,-296.75 310.47,-292.15 309.68,-299.1"/>
</a>
</g>
</g>
<!-- Node44&#45;&gt;Node17 -->
<g id="edge28_Node000044_Node000017" class="edge">
<title>Node44&#45;&gt;Node17</title>
<g id="a_edge28_Node000044_Node000017"><a xlink:title=" ">
<path fill="none" stroke="#63b8ff" stroke-width="2" d="M438.42,-320.14C474.26,-337.27 535.68,-366.62 576.25,-386.02"/>
<polygon fill="#63b8ff" stroke="#63b8ff" stroke-width="2" points="575.33,-389.41 585.86,-390.57 578.35,-383.1 575.33,-389.41"/>
</a>
</g>
</g>
<!-- Node46 -->
<g id="Node000046" class="node">
<title>Node46</title>
<g id="a_Node000046"><a xlink:href="../../d7/dba/menuutil_8c.html#acef3bbabe9293534ee600e9b89eda07b" target="_top" xlink:title="Calculate minimum window width.">
<polygon fill="#fff0f0" stroke="red" points="468.38,-116.75 348.88,-116.75 348.88,-90 468.38,-90 468.38,-116.75"/>
<text text-anchor="middle" x="408.62" y="-97.55" font-family="Helvetica,sans-Serif" font-size="16.00">computeWidth</text>
</a>
</g>
</g>
<!-- Node45&#45;&gt;Node46 -->
<g id="edge31_Node000045_Node000046" class="edge">
<title>Node45&#45;&gt;Node46</title>
<g id="a_edge31_Node000045_Node000046"><a xlink:title=" ">
<path fill="none" stroke="#63b8ff" stroke-width="2" d="M256.93,-86.98C280.86,-89.59 309.71,-92.72 335.73,-95.55"/>
<polygon fill="#63b8ff" stroke="#63b8ff" stroke-width="2" points="335.32,-99.36 345.64,-96.96 336.08,-92.4 335.32,-99.36"/>
</a>
</g>
</g>
<!-- Node47 -->
<g id="Node000047" class="node">
<title>Node47</title>
<g id="a_Node000047"><a xlink:href="../../de/dc9/mmenu_8c.html#a29c2128f12316ca1ce77fd1d686f6ec7" target="_top" xlink:title="Invokes menu.">
<polygon fill="#fff0f0" stroke="red" points="454.5,-71.75 362.75,-71.75 362.75,-45 454.5,-45 454.5,-71.75"/>
<text text-anchor="middle" x="408.62" y="-52.55" font-family="Helvetica,sans-Serif" font-size="16.00">mainMenu</text>
</a>
</g>
</g>
<!-- Node45&#45;&gt;Node47 -->
<g id="edge32_Node000045_Node000047" class="edge">
<title>Node45&#45;&gt;Node47</title>
<g id="a_edge32_Node000045_Node000047"><a xlink:title=" ">
<path fill="none" stroke="#63b8ff" stroke-width="2" d="M256.93,-75.51C285.28,-72.29 320.52,-68.28 349.79,-64.95"/>
<polygon fill="#63b8ff" stroke="#63b8ff" stroke-width="2" points="349.82,-68.13 359.36,-63.52 349.02,-61.18 349.82,-68.13"/>
</a>
</g>
</g>
<!-- Node71 -->
<g id="Node000071" class="node">
<title>Node71</title>
<g id="a_Node000071"><a xlink:href="../../d7/dba/menuutil_8c.html#ae9bbf0350539ebe186df7d627930ca51" target="_top" xlink:title="Control menu navigation and invoke option that we chose.">
<polygon fill="white" stroke="#666666" points="495.75,-26.75 321.5,-26.75 321.5,0 495.75,0 495.75,-26.75"/>
<text text-anchor="middle" x="408.62" y="-7.55" font-family="Helvetica,sans-Serif" font-size="16.00">menuHandleIteraction</text>
</a>
</g>
</g>
<!-- Node45&#45;&gt;Node71 -->
<g id="edge33_Node000045_Node000071" class="edge">
<title>Node45&#45;&gt;Node71</title>
<g id="a_edge33_Node000045_Node000071"><a xlink:title=" ">
<path fill="none" stroke="#63b8ff" stroke-width="2" d="M238.07,-67.61C261.15,-58.16 292.93,-45.7 321.5,-36.38 327.51,-34.42 333.79,-32.5 340.1,-30.65"/>
<polygon fill="#63b8ff" stroke="#63b8ff" stroke-width="2" points="341.56,-33.31 350.23,-27.22 339.65,-26.58 341.56,-33.31"/>
</a>
</g>
</g>
</g>
</svg>

<g id="navigator" transform="translate(0 0)" fill="#404254">
  <rect fill="#f2f5e9" fill-opacity="0.5" stroke="#606060" stroke-width=".5" x="0" y="0" width="60" height="60"/>
  <use id="zoomplus" xlink:href="#zoomPlus" x="17" y="9" onmousedown="handleZoom(evt,'in')"/>
  <use id="zoomminus" xlink:href="#zoomMin" x="42" y="9" onmousedown="handleZoom(evt,'out')"/>
  <use id="reset" xlink:href="#resetDef" x="30" y="36" onmousedown="handleReset()"/>
   <use id="arrowup" xlink:href="#arrowUp" x="0" y="0" onmousedown="handlePan(0,-1)"/>
  <use id="arrowright" xlink:href="#arrowRight" x="0" y="0" onmousedown="handlePan(1,0)"/>
  <use id="arrowdown" xlink:href="#arrowDown" x="0" y="0" onmousedown="handlePan(0,1)"/>
  <use id="arrowleft" xlink:href="#arrowLeft" x="0" y="0" onmousedown="handlePan(-1,0)"/>
</g>
<svg viewBox="0 0 15 15" width="100%" height="30px" preserveAspectRatio="xMaxYMin meet">
 <g id="arrow_out" transform="scale(0.3 0.3)">
  <a xlink:href="carsmenu_8c_a7adcbb9b8798811ec24e33760623ebc0_cgraph_org.svg" target="_base">
   <rect id="button" ry="5" rx="5" y="6" x="6" height="38" width="38"
        fill="#f2f5e9" fill-opacity="0.5" stroke="#606060" stroke-width="1.0"/>
   <path id="arrow"
     d="M 11.500037,31.436501 C 11.940474,20.09759 22.043105,11.32322 32.158766,21.979434 L 37.068811,17.246167 C 37.068811,17.246167 37.088388,32 37.088388,32 L 22.160133,31.978069 C 22.160133,31.978069 26.997745,27.140456 26.997745,27.140456 C 18.528582,18.264221 13.291696,25.230495 11.500037,31.436501 z"
     style="fill:#404040;"/>
  </a>
 </g>
</svg>

<style type='text/css'>
<![CDATA[
[data-mouse-over-selected='false'] { opacity: 0.7; }
[data-mouse-over-selected='true']  { opacity: 1.0; }
]]>
</style>
<script type="application/ecmascript"><![CDATA[
document.addEventListener('DOMContentLoaded', (event) => {
  highlightEdges();
  highlightAdjacentNodes();
});
]]></script>
</svg>
