<?xml version="1.0" encoding="UTF-8" standalone="no"?>
<!DOCTYPE svg PUBLIC "-//W3C//DTD SVG 1.1//EN"
 "http://www.w3.org/Graphics/SVG/1.1/DTD/svg11.dtd">
<!-- Generated by graphviz version 8.0.5 (0)
 -->
<!-- Title: carFormEdit Pages: 1 -->
<svg width="534pt" height="80pt"
 viewBox="0.00 0.00 534.00 79.75" xmlns="http://www.w3.org/2000/svg" xmlns:xlink="http://www.w3.org/1999/xlink">
<g id="graph0" class="graph" transform="scale(1 1) rotate(0) translate(4 75.75)">
<title>carFormEdit</title>
<!-- Node1 -->
<g id="Node000001" class="node">
<title>Node1</title>
<g id="a_Node000001"><a xlink:title="Function for editing car.">
<polygon fill="#999999" stroke="#666666" points="526,-48.75 422.25,-48.75 422.25,-22 526,-22 526,-48.75"/>
<text text-anchor="middle" x="474.12" y="-29.55" font-family="Helvetica,sans-Serif" font-size="16.00">carFormEdit</text>
</a>
</g>
</g>
<!-- Node2 -->
<g id="Node000002" class="node">
<title>Node2</title>
<g id="a_Node000002"><a xlink:href="../../dc/dc6/carsmenu_8c.html#a920be2aa6ca8626fdd965865d26f3fd4" target="_top" xlink:title="Function for adding a car.">
<polygon fill="white" stroke="#666666" points="386.25,-71.75 317.75,-71.75 317.75,-45 386.25,-45 386.25,-71.75"/>
<text text-anchor="middle" x="352" y="-52.55" font-family="Helvetica,sans-Serif" font-size="16.00">addCar</text>
</a>
</g>
</g>
<!-- Node1&#45;&gt;Node2 -->
<g id="edge1_Node000001_Node000002" class="edge">
<title>Node1&#45;&gt;Node2</title>
<g id="a_edge1_Node000001_Node000002"><a xlink:title=" ">
<path fill="none" stroke="#63b8ff" stroke-width="2" d="M409.1,-47.63C401.26,-49.13 393.52,-50.62 386.4,-51.98"/>
<polygon fill="#63b8ff" stroke="#63b8ff" stroke-width="2" points="410.67,-50.51 419.83,-45.2 409.35,-43.64 410.67,-50.51"/>
</a>
</g>
</g>
<!-- Node10 -->
<g id="Node000010" class="node">
<title>Node10</title>
<g id="a_Node000010"><a xlink:href="../../dc/dc6/carsmenu_8c.html#acf8ae724beca8714d7d114a7f2539895" target="_top" xlink:title="Edit car.">
<polygon fill="white" stroke="#666666" points="385.12,-26.75 318.88,-26.75 318.88,0 385.12,0 385.12,-26.75"/>
<text text-anchor="middle" x="352" y="-7.55" font-family="Helvetica,sans-Serif" font-size="16.00">carEdit</text>
</a>
</g>
</g>
<!-- Node1&#45;&gt;Node10 -->
<g id="edge4_Node000001_Node000010" class="edge">
<title>Node1&#45;&gt;Node10</title>
<g id="a_edge4_Node000001_Node000010"><a xlink:title=" ">
<path fill="none" stroke="#63b8ff" stroke-width="2" d="M409.28,-23.68C401,-22.17 392.81,-20.67 385.36,-19.3"/>
<polygon fill="#63b8ff" stroke="#63b8ff" stroke-width="2" points="409.37,-27.62 419.83,-25.98 410.63,-20.74 409.37,-27.62"/>
</a>
</g>
</g>
<!-- Node3 -->
<g id="Node000003" class="node">
<title>Node3</title>
<g id="a_Node000003"><a xlink:href="../../dc/dc6/carsmenu_8c.html#a7adcbb9b8798811ec24e33760623ebc0" target="_top" xlink:title="Handles displaying of cars menu.">
<polygon fill="white" stroke="#666666" points="281.75,-48.75 194.5,-48.75 194.5,-22 281.75,-22 281.75,-48.75"/>
<text text-anchor="middle" x="238.12" y="-29.55" font-family="Helvetica,sans-Serif" font-size="16.00">carsMenu</text>
</a>
</g>
</g>
<!-- Node2&#45;&gt;Node3 -->
<g id="edge2_Node000002_Node000003" class="edge">
<title>Node2&#45;&gt;Node3</title>
<g id="a_edge2_Node000002_Node000003"><a xlink:title=" ">
<path fill="none" stroke="#63b8ff" stroke-width="2" d="M304.78,-48.87C297.31,-47.34 289.6,-45.75 282.21,-44.23"/>
<polygon fill="#63b8ff" stroke="#63b8ff" stroke-width="2" points="304.93,-52.89 315.43,-51.47 306.34,-46.03 304.93,-52.89"/>
</a>
</g>
</g>
<!-- Node4 -->
<g id="Node000004" class="node">
<title>Node4</title>
<g id="a_Node000004"><a xlink:href="../../de/dc9/mmenu_8c.html#a315bc1f41a79da39147ec73e38cfc9e7" target="_top" xlink:title="Handles main menu.">
<polygon fill="#fff0f0" stroke="red" points="158.5,-48.75 0,-48.75 0,-22 158.5,-22 158.5,-48.75"/>
<text text-anchor="middle" x="79.25" y="-29.55" font-family="Helvetica,sans-Serif" font-size="16.00">mainMenuSelection</text>
</a>
</g>
</g>
<!-- Node3&#45;&gt;Node4 -->
<g id="edge3_Node000003_Node000004" class="edge">
<title>Node3&#45;&gt;Node4</title>
<g id="a_edge3_Node000003_Node000004"><a xlink:title=" ">
<path fill="none" stroke="#63b8ff" stroke-width="2" d="M181.47,-35.38C174.16,-35.38 166.56,-35.38 158.96,-35.38"/>
<polygon fill="#63b8ff" stroke="#63b8ff" stroke-width="2" points="181.26,-38.88 191.26,-35.38 181.26,-31.88 181.26,-38.88"/>
</a>
</g>
</g>
<!-- Node10&#45;&gt;Node3 -->
<g id="edge5_Node000010_Node000003" class="edge">
<title>Node10&#45;&gt;Node3</title>
<g id="a_edge5_Node000010_Node000003"><a xlink:title=" ">
<path fill="none" stroke="#63b8ff" stroke-width="2" d="M305.89,-22.25C298.09,-23.78 289.99,-25.37 282.24,-26.9"/>
<polygon fill="#63b8ff" stroke="#63b8ff" stroke-width="2" points="307.5,-25.1 316.64,-19.74 306.15,-18.23 307.5,-25.1"/>
</a>
</g>
</g>
</g>
</svg>
