<?xml version="1.0" encoding="UTF-8" standalone="no"?>
<!DOCTYPE svg PUBLIC "-//W3C//DTD SVG 1.1//EN"
 "http://www.w3.org/Graphics/SVG/1.1/DTD/svg11.dtd">
<!-- Generated by graphviz version 8.0.5 (0)
 -->
<!-- Title: addCar Pages: 1 -->
<svg width="745pt" height="387pt"
 viewBox="0.00 0.00 744.75 386.75" xmlns="http://www.w3.org/2000/svg" xmlns:xlink="http://www.w3.org/1999/xlink">
<g id="graph0" class="graph" transform="scale(1 1) rotate(0) translate(4 382.75)">
<title>addCar</title>
<!-- Node1 -->
<g id="Node000001" class="node">
<title>Node1</title>
<g id="a_Node000001"><a xlink:title="Function for adding a car.">
<polygon fill="#999999" stroke="#666666" points="68.5,-132.75 0,-132.75 0,-106 68.5,-106 68.5,-132.75"/>
<text text-anchor="middle" x="34.25" y="-113.55" font-family="Helvetica,sans-Serif" font-size="16.00">addCar</text>
</a>
</g>
</g>
<!-- Node2 -->
<g id="Node000002" class="node">
<title>Node2</title>
<g id="a_Node000002"><a xlink:href="../../dc/dc6/carsmenu_8c.html#a30a34923bcd0082000de90700343bd84" target="_top" xlink:title="Function for editing car.">
<polygon fill="white" stroke="#666666" points="231.88,-288.75 128.12,-288.75 128.12,-262 231.88,-262 231.88,-288.75"/>
<text text-anchor="middle" x="180" y="-269.55" font-family="Helvetica,sans-Serif" font-size="16.00">carFormEdit</text>
</a>
</g>
</g>
<!-- Node1&#45;&gt;Node2 -->
<g id="edge1_Node000001_Node000002" class="edge">
<title>Node1&#45;&gt;Node2</title>
<g id="a_edge1_Node000001_Node000002"><a xlink:title=" ">
<path fill="none" stroke="#63b8ff" stroke-width="2" d="M47.11,-133.04C60.79,-148.71 84.01,-175.13 104.5,-197.38 121.77,-216.13 141.75,-237 156.67,-252.43"/>
<polygon fill="#63b8ff" stroke="#63b8ff" stroke-width="2" points="154.19,-254.97 163.66,-259.71 159.21,-250.09 154.19,-254.97"/>
</a>
</g>
</g>
<!-- Node11 -->
<g id="Node000011" class="node">
<title>Node11</title>
<g id="a_Node000011"><a xlink:href="../../d5/df2/car_8c.html#a4ccd342eeebaa0daf8b8b5922ad3b2ff" target="_top" xlink:title="Deallocates car.">
<polygon fill="white" stroke="#666666" points="215.75,-71.75 144.25,-71.75 144.25,-45 215.75,-45 215.75,-71.75"/>
<text text-anchor="middle" x="180" y="-52.55" font-family="Helvetica,sans-Serif" font-size="16.00">carFree</text>
</a>
</g>
</g>
<!-- Node1&#45;&gt;Node11 -->
<g id="edge10_Node000001_Node000011" class="edge">
<title>Node1&#45;&gt;Node11</title>
<g id="a_edge10_Node000001_Node000011"><a xlink:title=" ">
<path fill="none" stroke="#63b8ff" stroke-width="2" d="M61.57,-105.61C74.38,-99.14 90.08,-91.51 104.5,-85.38 113.2,-81.67 122.61,-78.01 131.7,-74.64"/>
<polygon fill="#63b8ff" stroke="#63b8ff" stroke-width="2" points="133.62,-77.94 141.83,-71.24 131.23,-71.36 133.62,-77.94"/>
</a>
</g>
</g>
<!-- Node12 -->
<g id="Node000012" class="node">
<title>Node12</title>
<g id="a_Node000012"><a xlink:href="../../d5/df2/car_8c.html#a47a583e551002d7fc00d05227eba5855" target="_top" xlink:title="Checks if every field in Car is set.">
<polygon fill="white" stroke="#666666" points="703,-139.75 582.75,-139.75 582.75,-113 703,-113 703,-139.75"/>
<text text-anchor="middle" x="642.88" y="-120.55" font-family="Helvetica,sans-Serif" font-size="16.00">carIsComplete</text>
</a>
</g>
</g>
<!-- Node1&#45;&gt;Node12 -->
<g id="edge11_Node000001_Node000012" class="edge">
<title>Node1&#45;&gt;Node12</title>
<g id="a_edge11_Node000001_Node000012"><a xlink:title=" ">
<path fill="none" stroke="#63b8ff" stroke-width="2" d="M68.86,-118.54C146.88,-116.77 346.36,-113.21 513,-118.38 531.39,-118.95 551.23,-119.97 569.71,-121.1"/>
<polygon fill="#63b8ff" stroke="#63b8ff" stroke-width="2" points="569.36,-124.78 579.56,-121.92 569.81,-117.79 569.36,-124.78"/>
</a>
</g>
</g>
<!-- Node13 -->
<g id="Node000013" class="node">
<title>Node13</title>
<g id="a_Node000013"><a xlink:href="../../d5/df2/car_8c.html#a0d3175ea031713002ce87092fd6e258f" target="_top" xlink:title="Allocates and returns car containing nothing.">
<polygon fill="white" stroke="#666666" points="215,-26.75 145,-26.75 145,0 215,0 215,-26.75"/>
<text text-anchor="middle" x="180" y="-7.55" font-family="Helvetica,sans-Serif" font-size="16.00">carNew</text>
</a>
</g>
</g>
<!-- Node1&#45;&gt;Node13 -->
<g id="edge12_Node000001_Node000013" class="edge">
<title>Node1&#45;&gt;Node13</title>
<g id="a_edge12_Node000001_Node000013"><a xlink:title=" ">
<path fill="none" stroke="#63b8ff" stroke-width="2" d="M43.07,-105.8C54.33,-87.42 76.85,-54.79 104.5,-36.38 112.8,-30.85 122.5,-26.59 132.1,-23.34"/>
<polygon fill="#63b8ff" stroke="#63b8ff" stroke-width="2" points="133.96,-25.84 142.54,-19.62 131.96,-19.13 133.96,-25.84"/>
</a>
</g>
</g>
<!-- Node14 -->
<g id="Node000014" class="node">
<title>Node14</title>
<g id="a_Node000014"><a xlink:href="../../d3/df4/dbhandle_8c.html#ae62043f5776328dcdc74dc9f29c4e2c6" target="_top" xlink:title="Insert a car into the database.">
<polygon fill="white" stroke="#666666" points="255.5,-153.75 104.5,-153.75 104.5,-127 255.5,-127 255.5,-153.75"/>
<text text-anchor="middle" x="180" y="-134.55" font-family="Helvetica,sans-Serif" font-size="16.00">dbHandleCarInsert</text>
</a>
</g>
</g>
<!-- Node1&#45;&gt;Node14 -->
<g id="edge13_Node000001_Node000014" class="edge">
<title>Node1&#45;&gt;Node14</title>
<g id="a_edge13_Node000001_Node000014"><a xlink:title=" ">
<path fill="none" stroke="#63b8ff" stroke-width="2" d="M68.95,-124.3C75.92,-125.32 83.57,-126.43 91.48,-127.59"/>
<polygon fill="#63b8ff" stroke="#63b8ff" stroke-width="2" points="91.67,-131.45 102.07,-129.43 92.68,-124.52 91.67,-131.45"/>
</a>
</g>
</g>
<!-- Node16 -->
<g id="Node000016" class="node">
<title>Node16</title>
<g id="a_Node000016"><a xlink:href="../../d7/dba/menuutil_8c.html#ae6ed898f3726361b1edde3f8707f0260" target="_top" xlink:title="Displays message box on the screen with title and message.">
<polygon fill="white" stroke="#666666" points="488.25,-198.75 316.25,-198.75 316.25,-172 488.25,-172 488.25,-198.75"/>
<text text-anchor="middle" x="402.25" y="-179.55" font-family="Helvetica,sans-Serif" font-size="16.00">menuUtilMessagebox</text>
</a>
</g>
</g>
<!-- Node1&#45;&gt;Node16 -->
<g id="edge20_Node000001_Node000016" class="edge">
<title>Node1&#45;&gt;Node16</title>
<g id="a_edge20_Node000001_Node000016"><a xlink:title=" ">
<path fill="none" stroke="#63b8ff" stroke-width="2" d="M52.3,-133.22C65.64,-143.22 85.13,-156.03 104.5,-162.38 168.55,-183.35 244.36,-188.92 303.33,-189.34"/>
<polygon fill="#63b8ff" stroke="#63b8ff" stroke-width="2" points="303.02,-192.85 313.03,-189.36 303.03,-185.85 303.02,-192.85"/>
</a>
</g>
</g>
<!-- Node3 -->
<g id="Node000003" class="node">
<title>Node3</title>
<g id="a_Node000003"><a xlink:href="../../dc/dc6/carsmenu_8c.html#a702fa6cc4653f0cd03b303c0478df7e2" target="_top" xlink:title="Parse form.">
<polygon fill="white" stroke="#666666" points="461.25,-333.75 343.25,-333.75 343.25,-307 461.25,-307 461.25,-333.75"/>
<text text-anchor="middle" x="402.25" y="-314.55" font-family="Helvetica,sans-Serif" font-size="16.00">carFormParse</text>
</a>
</g>
</g>
<!-- Node2&#45;&gt;Node3 -->
<g id="edge2_Node000002_Node000003" class="edge">
<title>Node2&#45;&gt;Node3</title>
<g id="a_edge2_Node000002_Node000003"><a xlink:title=" ">
<path fill="none" stroke="#63b8ff" stroke-width="2" d="M232.36,-285.87C261.54,-291.83 298.5,-299.38 330.4,-305.9"/>
<polygon fill="#63b8ff" stroke="#63b8ff" stroke-width="2" points="330.3,-309.86 340.8,-308.43 331.71,-303 330.3,-309.86"/>
</a>
</g>
</g>
<!-- Node4 -->
<g id="Node000004" class="node">
<title>Node4</title>
<g id="a_Node000004"><a xlink:href="../../d7/dba/menuutil_8c.html#a1c0a1284f839b7e790c8234b3778e065" target="_top" xlink:title="Frees memory used for form, and it&#39;s fields.">
<polygon fill="white" stroke="#666666" points="442.88,-288.75 361.62,-288.75 361.62,-262 442.88,-262 442.88,-288.75"/>
<text text-anchor="middle" x="402.25" y="-269.55" font-family="Helvetica,sans-Serif" font-size="16.00">formFree</text>
</a>
</g>
</g>
<!-- Node2&#45;&gt;Node4 -->
<g id="edge3_Node000002_Node000004" class="edge">
<title>Node2&#45;&gt;Node4</title>
<g id="a_edge3_Node000002_Node000004"><a xlink:title=" ">
<path fill="none" stroke="#63b8ff" stroke-width="2" d="M232.36,-275.38C267.19,-275.38 313.11,-275.38 348.27,-275.38"/>
<polygon fill="#63b8ff" stroke="#63b8ff" stroke-width="2" points="348.18,-278.88 358.18,-275.38 348.18,-271.88 348.18,-278.88"/>
</a>
</g>
</g>
<!-- Node5 -->
<g id="Node000005" class="node">
<title>Node5</title>
<g id="a_Node000005"><a xlink:href="../../d7/dba/menuutil_8c.html#a6cfb2b5b15b5e79df457b5c902c3bf7d" target="_top" xlink:title="Initialize FORM.">
<polygon fill="white" stroke="#666666" points="437.25,-243.75 367.25,-243.75 367.25,-217 437.25,-217 437.25,-243.75"/>
<text text-anchor="middle" x="402.25" y="-224.55" font-family="Helvetica,sans-Serif" font-size="16.00">formInit</text>
</a>
</g>
</g>
<!-- Node2&#45;&gt;Node5 -->
<g id="edge4_Node000002_Node000005" class="edge">
<title>Node2&#45;&gt;Node5</title>
<g id="a_edge4_Node000002_Node000005"><a xlink:title=" ">
<path fill="none" stroke="#63b8ff" stroke-width="2" d="M232.36,-264.88C269.27,-257.34 318.63,-247.26 354.45,-239.94"/>
<polygon fill="#63b8ff" stroke="#63b8ff" stroke-width="2" points="355.89,-242.81 364.98,-237.38 354.49,-235.95 355.89,-242.81"/>
</a>
</g>
</g>
<!-- Node6 -->
<g id="Node000006" class="node">
<title>Node6</title>
<g id="a_Node000006"><a xlink:href="../../d7/dba/menuutil_8c.html#af8f262005a4975cc6ccc3423d939f910" target="_top" xlink:title="Put form on screen in nice looking form.">
<polygon fill="white" stroke="#666666" points="450.38,-378.75 354.12,-378.75 354.12,-352 450.38,-352 450.38,-378.75"/>
<text text-anchor="middle" x="402.25" y="-359.55" font-family="Helvetica,sans-Serif" font-size="16.00">formInvoke</text>
</a>
</g>
</g>
<!-- Node2&#45;&gt;Node6 -->
<g id="edge5_Node000002_Node000006" class="edge">
<title>Node2&#45;&gt;Node6</title>
<g id="a_edge5_Node000002_Node000006"><a xlink:title=" ">
<path fill="none" stroke="#63b8ff" stroke-width="2" d="M199.14,-289.05C220.24,-304.3 256.65,-328.62 291.5,-342.38 307.23,-348.58 324.92,-353.22 341.43,-356.65"/>
<polygon fill="#63b8ff" stroke="#63b8ff" stroke-width="2" points="341.29,-360.57 351.77,-359.04 342.62,-353.7 341.29,-360.57"/>
</a>
</g>
</g>
<!-- Node7 -->
<g id="Node000007" class="node">
<title>Node7</title>
<g id="a_Node000007"><a xlink:href="../../d7/dba/menuutil_8c.html#ab9a65295e184f9f64ea1431f8c2e36b2" target="_top" xlink:title="Manages input in the form.">
<polygon fill="white" stroke="#666666" points="725.88,-378.75 559.88,-378.75 559.88,-352 725.88,-352 725.88,-378.75"/>
<text text-anchor="middle" x="642.88" y="-359.55" font-family="Helvetica,sans-Serif" font-size="16.00">formHandleIteraction</text>
</a>
</g>
</g>
<!-- Node6&#45;&gt;Node7 -->
<g id="edge6_Node000006_Node000007" class="edge">
<title>Node6&#45;&gt;Node7</title>
<g id="a_edge6_Node000006_Node000007"><a xlink:title=" ">
<path fill="none" stroke="#63b8ff" stroke-width="2" d="M450.68,-365.38C478.16,-365.38 513.75,-365.38 546.75,-365.38"/>
<polygon fill="#63b8ff" stroke="#63b8ff" stroke-width="2" points="546.74,-368.88 556.74,-365.38 546.74,-361.88 546.74,-368.88"/>
</a>
</g>
</g>
<!-- Node8 -->
<g id="Node000008" class="node">
<title>Node8</title>
<g id="a_Node000008"><a xlink:href="../../d7/dba/menuutil_8c.html#ac6b71fcc47a9cdec8ac08b98e754239c" target="_top" xlink:title="Get length of longest string in array of strings.">
<polygon fill="white" stroke="#666666" points="736.75,-322.75 549,-322.75 549,-296 736.75,-296 736.75,-322.75"/>
<text text-anchor="middle" x="642.88" y="-303.55" font-family="Helvetica,sans-Serif" font-size="16.00">getLongestStringLength</text>
</a>
</g>
</g>
<!-- Node6&#45;&gt;Node8 -->
<g id="edge7_Node000006_Node000008" class="edge">
<title>Node6&#45;&gt;Node8</title>
<g id="a_edge7_Node000006_Node000008"><a xlink:title=" ">
<path fill="none" stroke="#63b8ff" stroke-width="2" d="M450.62,-355.92C470,-351.93 492.62,-347.12 513,-342.38 534.05,-337.48 556.93,-331.75 577.49,-326.46"/>
<polygon fill="#63b8ff" stroke="#63b8ff" stroke-width="2" points="579.15,-329.12 587.96,-323.23 577.4,-322.35 579.15,-329.12"/>
</a>
</g>
</g>
<!-- Node9 -->
<g id="Node000009" class="node">
<title>Node9</title>
<g id="a_Node000009"><a xlink:href="../../d7/dba/menuutil_8c.html#a9941ed217da0309cd9453bdb776d5c51" target="_top" xlink:title="Add basic functionality to the shitty language which C is.">
<polygon fill="white" stroke="#666666" points="666.25,-255.75 619.5,-255.75 619.5,-229 666.25,-229 666.25,-255.75"/>
<text text-anchor="middle" x="642.88" y="-236.55" font-family="Helvetica,sans-Serif" font-size="16.00">max</text>
</a>
</g>
</g>
<!-- Node6&#45;&gt;Node9 -->
<g id="edge8_Node000006_Node000009" class="edge">
<title>Node6&#45;&gt;Node9</title>
<g id="a_edge8_Node000006_Node000009"><a xlink:title=" ">
<path fill="none" stroke="#63b8ff" stroke-width="2" d="M450.72,-363.47C471.32,-360.71 494.83,-354.78 513,-342.38 537.13,-325.91 527.06,-306.67 549,-287.38 565.92,-272.5 588.62,-261.38 607.34,-253.92"/>
<polygon fill="#63b8ff" stroke="#63b8ff" stroke-width="2" points="609.13,-257.23 617.26,-250.44 606.67,-250.68 609.13,-257.23"/>
</a>
</g>
</g>
<!-- Node10 -->
<g id="Node000010" class="node">
<title>Node10</title>
<g id="a_Node000010"><a xlink:href="../../d7/dba/menuutil_8c.html#a14ca6bd9893f550a2051ca6cd5a689ac" target="_top" xlink:title="Print boarders of window.">
<polygon fill="white" stroke="#666666" points="727.75,-204.75 558,-204.75 558,-178 727.75,-178 727.75,-204.75"/>
<text text-anchor="middle" x="642.88" y="-185.55" font-family="Helvetica,sans-Serif" font-size="16.00">printWindowBoarders</text>
</a>
</g>
</g>
<!-- Node6&#45;&gt;Node10 -->
<g id="edge9_Node000006_Node000010" class="edge">
<title>Node6&#45;&gt;Node10</title>
<g id="a_edge9_Node000006_Node000010"><a xlink:title=" ">
<path fill="none" stroke="#63b8ff" stroke-width="2" d="M450.65,-366.03C472.11,-363.9 496.33,-357.75 513,-342.38 554.55,-304.04 509.34,-260.66 549,-220.38 552.34,-216.99 556.06,-213.99 560.05,-211.35"/>
<polygon fill="#63b8ff" stroke="#63b8ff" stroke-width="2" points="562.13,-214.07 569.14,-206.13 558.71,-207.96 562.13,-214.07"/>
</a>
</g>
</g>
<!-- Node15 -->
<g id="Node000015" class="node">
<title>Node15</title>
<g id="a_Node000015"><a xlink:href="../../d3/df4/dbhandle_8c.html#a2c254ca698cb291dd9b3b8e8c26f9e00" target="_top" xlink:title="Given car, get string containing SQL query that would add that car to DB.">
<polygon fill="white" stroke="#666666" points="513,-153.75 291.5,-153.75 291.5,-127 513,-127 513,-153.75"/>
<text text-anchor="middle" x="402.25" y="-134.55" font-family="Helvetica,sans-Serif" font-size="16.00">dbHandleGetCarInsertQuery</text>
</a>
</g>
</g>
<!-- Node14&#45;&gt;Node15 -->
<g id="edge14_Node000014_Node000015" class="edge">
<title>Node14&#45;&gt;Node15</title>
<g id="a_edge14_Node000014_Node000015"><a xlink:title=" ">
<path fill="none" stroke="#63b8ff" stroke-width="2" d="M255.87,-140.38C263.14,-140.38 270.64,-140.38 278.23,-140.38"/>
<polygon fill="#63b8ff" stroke="#63b8ff" stroke-width="2" points="278.04,-143.88 288.04,-140.38 278.04,-136.88 278.04,-143.88"/>
</a>
</g>
</g>
<!-- Node14&#45;&gt;Node16 -->
<g id="edge16_Node000014_Node000016" class="edge">
<title>Node14&#45;&gt;Node16</title>
<g id="a_edge16_Node000014_Node000016"><a xlink:title=" ">
<path fill="none" stroke="#63b8ff" stroke-width="2" d="M248.88,-154.24C271.7,-158.91 297.37,-164.15 321.05,-168.99"/>
<polygon fill="#63b8ff" stroke="#63b8ff" stroke-width="2" points="321.1,-172.98 331.59,-171.55 322.5,-166.12 321.1,-172.98"/>
</a>
</g>
</g>
<!-- Node15&#45;&gt;Node12 -->
<g id="edge15_Node000015_Node000012" class="edge">
<title>Node15&#45;&gt;Node12</title>
<g id="a_edge15_Node000015_Node000012"><a xlink:title=" ">
<path fill="none" stroke="#63b8ff" stroke-width="2" d="M513.48,-133.91C532.55,-132.79 551.93,-131.65 569.66,-130.61"/>
<polygon fill="#63b8ff" stroke="#63b8ff" stroke-width="2" points="569.77,-133.94 579.55,-129.86 569.36,-126.95 569.77,-133.94"/>
</a>
</g>
</g>
<!-- Node16&#45;&gt;Node8 -->
<g id="edge17_Node000016_Node000008" class="edge">
<title>Node16&#45;&gt;Node8</title>
<g id="a_edge17_Node000016_Node000008"><a xlink:title=" ">
<path fill="none" stroke="#63b8ff" stroke-width="2" d="M488.47,-196.06C497.18,-199.21 505.54,-203.24 513,-208.38 537.37,-225.16 526.86,-244.75 549,-264.38 560.84,-274.87 575.55,-283.48 589.76,-290.25"/>
<polygon fill="#63b8ff" stroke="#63b8ff" stroke-width="2" points="588.94,-293.61 599.49,-294.51 591.8,-287.23 588.94,-293.61"/>
</a>
</g>
</g>
<!-- Node16&#45;&gt;Node9 -->
<g id="edge18_Node000016_Node000009" class="edge">
<title>Node16&#45;&gt;Node9</title>
<g id="a_edge18_Node000016_Node000009"><a xlink:title=" ">
<path fill="none" stroke="#63b8ff" stroke-width="2" d="M471.87,-199.19C485.52,-202.1 499.74,-205.24 513,-208.38 544.83,-215.9 580.8,-225.49 606.64,-232.56"/>
<polygon fill="#63b8ff" stroke="#63b8ff" stroke-width="2" points="606.58,-236.72 617.15,-236 608.44,-229.97 606.58,-236.72"/>
</a>
</g>
</g>
<!-- Node16&#45;&gt;Node10 -->
<g id="edge19_Node000016_Node000010" class="edge">
<title>Node16&#45;&gt;Node10</title>
<g id="a_edge19_Node000016_Node000010"><a xlink:title=" ">
<path fill="none" stroke="#63b8ff" stroke-width="2" d="M488.73,-187.52C506.98,-187.98 526.39,-188.47 545.03,-188.94"/>
<polygon fill="#63b8ff" stroke="#63b8ff" stroke-width="2" points="544.71,-192.51 554.8,-189.26 544.89,-185.51 544.71,-192.51"/>
</a>
</g>
</g>
</g>
</svg>
