<?xml version="1.0" encoding="UTF-8" standalone="no"?>
<!DOCTYPE svg PUBLIC "-//W3C//DTD SVG 1.1//EN"
 "http://www.w3.org/Graphics/SVG/1.1/DTD/svg11.dtd">
<!-- Generated by graphviz version 8.0.5 (0)
 -->
<!-- Title: carChooseNoReturn Pages: 1 -->
<svg width="1154pt" height="507pt"
 viewBox="0.00 0.00 1154.00 506.75" xmlns="http://www.w3.org/2000/svg" xmlns:xlink="http://www.w3.org/1999/xlink">
<g id="graph0" class="graph" transform="scale(1 1) rotate(0) translate(4 502.75)">
<title>carChooseNoReturn</title>
<!-- Node1 -->
<g id="Node000001" class="node">
<title>Node1</title>
<g id="a_Node000001"><a xlink:title="Wrapper around carChoose frees extracted car instanntly.">
<polygon fill="#999999" stroke="#666666" points="162.25,-387.75 0,-387.75 0,-361 162.25,-361 162.25,-387.75"/>
<text text-anchor="middle" x="81.12" y="-368.55" font-family="Helvetica,sans-Serif" font-size="16.00">carChooseNoReturn</text>
</a>
</g>
</g>
<!-- Node2 -->
<g id="Node000002" class="node">
<title>Node2</title>
<g id="a_Node000002"><a xlink:href="../../dc/dc6/carsmenu_8c.html#ad451b82b7f3d31d1bb3fc4c210941579" target="_top" xlink:title="Invokes the listView of cars.">
<polygon fill="white" stroke="#666666" points="292.25,-367.75 198.25,-367.75 198.25,-341 292.25,-341 292.25,-367.75"/>
<text text-anchor="middle" x="245.25" y="-348.55" font-family="Helvetica,sans-Serif" font-size="16.00">carChoose</text>
</a>
</g>
</g>
<!-- Node1&#45;&gt;Node2 -->
<g id="edge1_Node000001_Node000002" class="edge">
<title>Node1&#45;&gt;Node2</title>
<g id="a_edge1_Node000001_Node000002"><a xlink:title=" ">
<path fill="none" stroke="#63b8ff" stroke-width="2" d="M162.71,-364.43C170.26,-363.5 177.82,-362.57 185.12,-361.67"/>
<polygon fill="#63b8ff" stroke="#63b8ff" stroke-width="2" points="185.42,-364.79 194.92,-360.09 184.57,-357.84 185.42,-364.79"/>
</a>
</g>
</g>
<!-- Node3 -->
<g id="Node000003" class="node">
<title>Node3</title>
<g id="a_Node000003"><a xlink:href="../../d5/df2/car_8c.html#a4ccd342eeebaa0daf8b8b5922ad3b2ff" target="_top" xlink:title="Deallocates car.">
<polygon fill="white" stroke="#666666" points="447.38,-453.75 375.88,-453.75 375.88,-427 447.38,-427 447.38,-453.75"/>
<text text-anchor="middle" x="411.62" y="-434.55" font-family="Helvetica,sans-Serif" font-size="16.00">carFree</text>
</a>
</g>
</g>
<!-- Node1&#45;&gt;Node3 -->
<g id="edge23_Node000001_Node000003" class="edge">
<title>Node1&#45;&gt;Node3</title>
<g id="a_edge23_Node000001_Node000003"><a xlink:title=" ">
<path fill="none" stroke="#63b8ff" stroke-width="2" d="M150.99,-388.21C214.56,-400.98 307.31,-419.62 363.04,-430.81"/>
<polygon fill="#63b8ff" stroke="#63b8ff" stroke-width="2" points="363.2,-434.82 373.69,-433.36 364.58,-427.95 363.2,-434.82"/>
</a>
</g>
</g>
<!-- Node2&#45;&gt;Node3 -->
<g id="edge2_Node000002_Node000003" class="edge">
<title>Node2&#45;&gt;Node3</title>
<g id="a_edge2_Node000002_Node000003"><a xlink:title=" ">
<path fill="none" stroke="#63b8ff" stroke-width="2" d="M260.49,-368.1C275.99,-382.32 302.08,-404.29 328.25,-417.38 339.08,-422.79 351.36,-427.09 363.07,-430.43"/>
<polygon fill="#63b8ff" stroke="#63b8ff" stroke-width="2" points="362.91,-434.53 373.47,-433.69 364.69,-427.76 362.91,-434.53"/>
</a>
</g>
</g>
<!-- Node4 -->
<g id="Node000004" class="node">
<title>Node4</title>
<g id="a_Node000004"><a xlink:href="../../d5/df2/car_8c.html#ad946b04e98242aa73d41af8cd6963335" target="_top" xlink:title="Get list of cars.">
<polygon fill="white" stroke="#666666" points="456.75,-408.75 366.5,-408.75 366.5,-382 456.75,-382 456.75,-408.75"/>
<text text-anchor="middle" x="411.62" y="-389.55" font-family="Helvetica,sans-Serif" font-size="16.00">carGetList</text>
</a>
</g>
</g>
<!-- Node2&#45;&gt;Node4 -->
<g id="edge3_Node000002_Node000004" class="edge">
<title>Node2&#45;&gt;Node4</title>
<g id="a_edge3_Node000002_Node000004"><a xlink:title=" ">
<path fill="none" stroke="#63b8ff" stroke-width="2" d="M292.48,-365.9C311.49,-370.65 333.71,-376.19 353.72,-381.18"/>
<polygon fill="#63b8ff" stroke="#63b8ff" stroke-width="2" points="353.61,-385.26 364.16,-384.28 355.31,-378.47 353.61,-385.26"/>
</a>
</g>
</g>
<!-- Node12 -->
<g id="Node000012" class="node">
<title>Node12</title>
<g id="a_Node000012"><a xlink:href="../../d7/dba/menuutil_8c.html#ae6ed898f3726361b1edde3f8707f0260" target="_top" xlink:title="Displays message box on the screen with title and message.">
<polygon fill="#fff0f0" stroke="red" points="940.25,-367.75 768.25,-367.75 768.25,-341 940.25,-341 940.25,-367.75"/>
<text text-anchor="middle" x="854.25" y="-348.55" font-family="Helvetica,sans-Serif" font-size="16.00">menuUtilMessagebox</text>
</a>
</g>
</g>
<!-- Node2&#45;&gt;Node12 -->
<g id="edge22_Node000002_Node000012" class="edge">
<title>Node2&#45;&gt;Node12</title>
<g id="a_edge22_Node000002_Node000012"><a xlink:title=" ">
<path fill="none" stroke="#63b8ff" stroke-width="2" d="M292.62,-354.38C390.92,-354.38 622.07,-354.38 754.84,-354.38"/>
<polygon fill="#63b8ff" stroke="#63b8ff" stroke-width="2" points="754.76,-357.88 764.76,-354.38 754.76,-350.88 754.76,-357.88"/>
</a>
</g>
</g>
<!-- Node16 -->
<g id="Node000016" class="node">
<title>Node16</title>
<g id="a_Node000016"><a xlink:href="../../dc/dc6/carsmenu_8c.html#a55b6445add211264ded95be67ff98aa5" target="_top" xlink:title="Given car, generates a string representing car data in listView friendly format (whole row).">
<polygon fill="white" stroke="#666666" points="495,-326.75 328.25,-326.75 328.25,-300 495,-300 495,-326.75"/>
<text text-anchor="middle" x="411.62" y="-307.55" font-family="Helvetica,sans-Serif" font-size="16.00">carGetListViewString</text>
</a>
</g>
</g>
<!-- Node2&#45;&gt;Node16 -->
<g id="edge9_Node000002_Node000016" class="edge">
<title>Node2&#45;&gt;Node16</title>
<g id="a_edge9_Node000002_Node000016"><a xlink:title=" ">
<path fill="none" stroke="#63b8ff" stroke-width="2" d="M292.48,-342.85C308.14,-338.94 325.97,-334.49 342.96,-330.25"/>
<polygon fill="#63b8ff" stroke="#63b8ff" stroke-width="2" points="344.27,-333.03 353.13,-327.22 342.58,-326.24 344.27,-333.03"/>
</a>
</g>
</g>
<!-- Node17 -->
<g id="Node000017" class="node">
<title>Node17</title>
<g id="a_Node000017"><a xlink:href="../../dc/dc6/carsmenu_8c.html#acf7941e462559f5f161ffcd804d4b8c9" target="_top" xlink:title="Extracts car from the given ListNode.">
<polygon fill="white" stroke="#666666" points="456.75,-281.75 366.5,-281.75 366.5,-255 456.75,-255 456.75,-281.75"/>
<text text-anchor="middle" x="411.62" y="-262.55" font-family="Helvetica,sans-Serif" font-size="16.00">extractCar</text>
</a>
</g>
</g>
<!-- Node2&#45;&gt;Node17 -->
<g id="edge10_Node000002_Node000017" class="edge">
<title>Node2&#45;&gt;Node17</title>
<g id="a_edge10_Node000002_Node000017"><a xlink:title=" ">
<path fill="none" stroke="#63b8ff" stroke-width="2" d="M260.49,-340.65C275.99,-326.43 302.08,-304.46 328.25,-291.38 336.28,-287.36 345.12,-283.95 353.93,-281.1"/>
<polygon fill="#63b8ff" stroke="#63b8ff" stroke-width="2" points="355.7,-283.63 364.29,-277.42 353.7,-276.92 355.7,-283.63"/>
</a>
</g>
</g>
<!-- Node19 -->
<g id="Node000019" class="node">
<title>Node19</title>
<g id="a_Node000019"><a xlink:href="../../d7/dba/menuutil_8c.html#aca301edf9d04aa391571851b148355ba" target="_top" xlink:title="List Viewer for lists.">
<polygon fill="white" stroke="#666666" points="471,-184.75 352.25,-184.75 352.25,-158 471,-158 471,-184.75"/>
<text text-anchor="middle" x="411.62" y="-165.55" font-family="Helvetica,sans-Serif" font-size="16.00">listViewInvoke</text>
</a>
</g>
</g>
<!-- Node2&#45;&gt;Node19 -->
<g id="edge12_Node000002_Node000019" class="edge">
<title>Node2&#45;&gt;Node19</title>
<g id="a_edge12_Node000002_Node000019"><a xlink:title=" ">
<path fill="none" stroke="#63b8ff" stroke-width="2" d="M255.36,-340.79C269.77,-319.69 299.17,-278.17 328.25,-246.38 345.65,-227.35 367.27,-207.8 384,-193.43"/>
<polygon fill="#63b8ff" stroke="#63b8ff" stroke-width="2" points="386.33,-195.34 391.69,-186.2 381.8,-190 386.33,-195.34"/>
</a>
</g>
</g>
<!-- Node5 -->
<g id="Node000005" class="node">
<title>Node5</title>
<g id="a_Node000005"><a xlink:href="../../d5/df2/car_8c.html#a2337951b2ae65cc121c20255a2179ad2" target="_top" xlink:title="CallBack function for dbHandleGetResultAsList. Transforms row into Car.">
<polygon fill="#fff0f0" stroke="red" points="730,-498.75 533.25,-498.75 533.25,-472 730,-472 730,-498.75"/>
<text text-anchor="middle" x="631.62" y="-479.55" font-family="Helvetica,sans-Serif" font-size="16.00">carGetListQueryCallback</text>
</a>
</g>
</g>
<!-- Node4&#45;&gt;Node5 -->
<g id="edge4_Node000004_Node000005" class="edge">
<title>Node4&#45;&gt;Node5</title>
<g id="a_edge4_Node000004_Node000005"><a xlink:title=" ">
<path fill="none" stroke="#63b8ff" stroke-width="2" d="M457.08,-402.51C470.01,-405.94 483.69,-410.99 495,-418.38 516.15,-432.19 509.54,-449.04 531,-462.38 533.27,-463.78 535.61,-465.11 538.02,-466.35"/>
<polygon fill="#63b8ff" stroke="#63b8ff" stroke-width="2" points="537.1,-469.67 547.65,-470.59 539.97,-463.29 537.1,-469.67"/>
</a>
</g>
</g>
<!-- Node9 -->
<g id="Node000009" class="node">
<title>Node9</title>
<g id="a_Node000009"><a xlink:href="../../d5/df2/car_8c.html#a42654de8d3a43e2623c8882f42207408" target="_top" xlink:title="Generates SQL query.">
<polygon fill="white" stroke="#666666" points="709.38,-453.75 553.88,-453.75 553.88,-427 709.38,-427 709.38,-453.75"/>
<text text-anchor="middle" x="631.62" y="-434.55" font-family="Helvetica,sans-Serif" font-size="16.00">carGetQueryOfSort</text>
</a>
</g>
</g>
<!-- Node4&#45;&gt;Node9 -->
<g id="edge5_Node000004_Node000009" class="edge">
<title>Node4&#45;&gt;Node9</title>
<g id="a_edge5_Node000004_Node000009"><a xlink:title=" ">
<path fill="none" stroke="#63b8ff" stroke-width="2" d="M457,-404.54C484.04,-410.12 519.38,-417.41 551.11,-423.96"/>
<polygon fill="#63b8ff" stroke="#63b8ff" stroke-width="2" points="551.03,-427.93 561.53,-426.52 552.44,-421.08 551.03,-427.93"/>
</a>
</g>
</g>
<!-- Node10 -->
<g id="Node000010" class="node">
<title>Node10</title>
<g id="a_Node000010"><a xlink:href="../../d3/df4/dbhandle_8c.html#a93d9b43b32495dc8630963c174aeba05" target="_top" xlink:title="Given query and callback function create List based on the query.">
<polygon fill="#fff0f0" stroke="red" points="732.25,-408.75 531,-408.75 531,-382 732.25,-382 732.25,-408.75"/>
<text text-anchor="middle" x="631.62" y="-389.55" font-family="Helvetica,sans-Serif" font-size="16.00">dbHandleGetResultAsList</text>
</a>
</g>
</g>
<!-- Node4&#45;&gt;Node10 -->
<g id="edge6_Node000004_Node000010" class="edge">
<title>Node4&#45;&gt;Node10</title>
<g id="a_edge6_Node000004_Node000010"><a xlink:title=" ">
<path fill="none" stroke="#63b8ff" stroke-width="2" d="M457,-395.38C474.9,-395.38 496.44,-395.38 518.16,-395.38"/>
<polygon fill="#63b8ff" stroke="#63b8ff" stroke-width="2" points="517.95,-398.88 527.95,-395.38 517.95,-391.88 517.95,-398.88"/>
</a>
</g>
</g>
<!-- Node10&#45;&gt;Node12 -->
<g id="edge7_Node000010_Node000012" class="edge">
<title>Node10&#45;&gt;Node12</title>
<g id="a_edge7_Node000010_Node000012"><a xlink:title=" ">
<path fill="none" stroke="#63b8ff" stroke-width="2" d="M707.01,-381.55C726,-378.02 746.57,-374.2 766.13,-370.56"/>
<polygon fill="#63b8ff" stroke="#63b8ff" stroke-width="2" points="767.62,-373.48 776.81,-368.21 766.34,-366.59 767.62,-373.48"/>
</a>
</g>
</g>
<!-- Node15 -->
<g id="Node000015" class="node">
<title>Node15</title>
<g id="a_Node000015"><a xlink:href="../../d7/dba/menuutil_8c.html#a14ca6bd9893f550a2051ca6cd5a689ac" target="_top" xlink:title="Print boarders of window.">
<polygon fill="white" stroke="#666666" points="1146,-326.75 976.25,-326.75 976.25,-300 1146,-300 1146,-326.75"/>
<text text-anchor="middle" x="1061.12" y="-307.55" font-family="Helvetica,sans-Serif" font-size="16.00">printWindowBoarders</text>
</a>
</g>
</g>
<!-- Node12&#45;&gt;Node15 -->
<g id="edge8_Node000012_Node000015" class="edge">
<title>Node12&#45;&gt;Node15</title>
<g id="a_edge8_Node000012_Node000015"><a xlink:title=" ">
<path fill="none" stroke="#63b8ff" stroke-width="2" d="M924.33,-340.55C941.7,-337.07 960.52,-333.31 978.45,-329.72"/>
<polygon fill="#63b8ff" stroke="#63b8ff" stroke-width="2" points="979.88,-332.6 989,-327.21 978.51,-325.74 979.88,-332.6"/>
</a>
</g>
</g>
<!-- Node18 -->
<g id="Node000018" class="node">
<title>Node18</title>
<g id="a_Node000018"><a xlink:href="../../d5/df2/car_8c.html#aad591876ff6e73edb792e10ad133e602" target="_top" xlink:title="Make a clone of Car. It allocates memory internally.">
<polygon fill="#fff0f0" stroke="red" points="671.88,-326.75 591.38,-326.75 591.38,-300 671.88,-300 671.88,-326.75"/>
<text text-anchor="middle" x="631.62" y="-307.55" font-family="Helvetica,sans-Serif" font-size="16.00">carClone</text>
</a>
</g>
</g>
<!-- Node17&#45;&gt;Node18 -->
<g id="edge11_Node000017_Node000018" class="edge">
<title>Node17&#45;&gt;Node18</title>
<g id="a_edge11_Node000017_Node000018"><a xlink:title=" ">
<path fill="none" stroke="#63b8ff" stroke-width="2" d="M457,-277.54C492.19,-284.8 541.45,-294.97 578.51,-302.62"/>
<polygon fill="#63b8ff" stroke="#63b8ff" stroke-width="2" points="578.57,-306.62 589.07,-305.21 579.98,-299.76 578.57,-306.62"/>
</a>
</g>
</g>
<!-- Node19&#45;&gt;Node15 -->
<g id="edge21_Node000019_Node000015" class="edge">
<title>Node19&#45;&gt;Node15</title>
<g id="a_edge21_Node000019_Node000015"><a xlink:title=" ">
<path fill="none" stroke="#63b8ff" stroke-width="2" d="M433.49,-185.06C456.43,-199.42 494.84,-221.54 531,-233.38 677.15,-281.2 855.51,-300.63 963.33,-308.38"/>
<polygon fill="#63b8ff" stroke="#63b8ff" stroke-width="2" points="962.9,-312.07 973.12,-309.27 963.39,-305.09 962.9,-312.07"/>
</a>
</g>
</g>
<!-- Node20 -->
<g id="Node000020" class="node">
<title>Node20</title>
<g id="a_Node000020"><a xlink:href="../../d7/d40/list_8c.html#a0837532833bd96d83104386c1aa69c10" target="_top" xlink:title="How many elements are there in List.">
<polygon fill="white" stroke="#666666" points="888.12,-206.75 820.38,-206.75 820.38,-180 888.12,-180 888.12,-206.75"/>
<text text-anchor="middle" x="854.25" y="-187.55" font-family="Helvetica,sans-Serif" font-size="16.00">listSize</text>
</a>
</g>
</g>
<!-- Node19&#45;&gt;Node20 -->
<g id="edge13_Node000019_Node000020" class="edge">
<title>Node19&#45;&gt;Node20</title>
<g id="a_edge13_Node000019_Node000020"><a xlink:title=" ">
<path fill="none" stroke="#63b8ff" stroke-width="2" d="M441,-185.19C464.49,-195.82 499.06,-209.63 531,-215.38 628.38,-232.89 744.62,-215.81 807.45,-203.5"/>
<polygon fill="#63b8ff" stroke="#63b8ff" stroke-width="2" points="808.91,-206.37 818.02,-200.96 807.52,-199.51 808.91,-206.37"/>
</a>
</g>
</g>
<!-- Node21 -->
<g id="Node000021" class="node">
<title>Node21</title>
<g id="a_Node000021"><a xlink:href="../../d7/dba/menuutil_8c.html#a6229d06cea0b18a996e9f378719c56bb" target="_top" xlink:title="frees internal List of listView.">
<polygon fill="#fff0f0" stroke="red" points="696.25,-206.75 567,-206.75 567,-180 696.25,-180 696.25,-206.75"/>
<text text-anchor="middle" x="631.62" y="-187.55" font-family="Helvetica,sans-Serif" font-size="16.00">listViewFreeList</text>
</a>
</g>
</g>
<!-- Node19&#45;&gt;Node21 -->
<g id="edge14_Node000019_Node000021" class="edge">
<title>Node19&#45;&gt;Node21</title>
<g id="a_edge14_Node000019_Node000021"><a xlink:title=" ">
<path fill="none" stroke="#63b8ff" stroke-width="2" d="M471.33,-177.3C496.81,-179.87 526.98,-182.92 554.17,-185.66"/>
<polygon fill="#63b8ff" stroke="#63b8ff" stroke-width="2" points="553.54,-189.42 563.84,-186.94 554.24,-182.45 553.54,-189.42"/>
</a>
</g>
</g>
<!-- Node26 -->
<g id="Node000026" class="node">
<title>Node26</title>
<g id="a_Node000026"><a xlink:href="../../d7/dba/menuutil_8c.html#a5cf01d8794a16c8f4d79eed99ec0b560" target="_top" xlink:title="frees memory used by listView internal Menu">
<polygon fill="white" stroke="#666666" points="703.75,-161.75 559.5,-161.75 559.5,-135 703.75,-135 703.75,-161.75"/>
<text text-anchor="middle" x="631.62" y="-142.55" font-family="Helvetica,sans-Serif" font-size="16.00">listViewFreeMenu</text>
</a>
</g>
</g>
<!-- Node19&#45;&gt;Node26 -->
<g id="edge16_Node000019_Node000026" class="edge">
<title>Node19&#45;&gt;Node26</title>
<g id="a_edge16_Node000019_Node000026"><a xlink:title=" ">
<path fill="none" stroke="#63b8ff" stroke-width="2" d="M471.33,-165.18C494.42,-162.75 521.37,-159.9 546.46,-157.26"/>
<polygon fill="#63b8ff" stroke="#63b8ff" stroke-width="2" points="546.8,-160.42 556.38,-155.89 546.07,-153.46 546.8,-160.42"/>
</a>
</g>
</g>
<!-- Node27 -->
<g id="Node000027" class="node">
<title>Node27</title>
<g id="a_Node000027"><a xlink:href="../../d7/dba/menuutil_8c.html#a6154454b5c30466c33806a07ce7578d5" target="_top" xlink:title=" ">
<polygon fill="white" stroke="#666666" points="725.88,-116.75 537.38,-116.75 537.38,-90 725.88,-90 725.88,-116.75"/>
<text text-anchor="middle" x="631.62" y="-97.55" font-family="Helvetica,sans-Serif" font-size="16.00">listViewHandleIteraction</text>
</a>
</g>
</g>
<!-- Node19&#45;&gt;Node27 -->
<g id="edge17_Node000019_Node000027" class="edge">
<title>Node19&#45;&gt;Node27</title>
<g id="a_edge17_Node000019_Node000027"><a xlink:title=" ">
<path fill="none" stroke="#63b8ff" stroke-width="2" d="M445.37,-157.54C468.91,-147.95 501.55,-135.33 531,-126.38 537.88,-124.28 545.07,-122.28 552.31,-120.39"/>
<polygon fill="#63b8ff" stroke="#63b8ff" stroke-width="2" points="554.07,-123.05 562.91,-117.21 552.36,-116.26 554.07,-123.05"/>
</a>
</g>
</g>
<!-- Node28 -->
<g id="Node000028" class="node">
<title>Node28</title>
<g id="a_Node000028"><a xlink:href="../../d7/dba/menuutil_8c.html#a06a2ceb28df68b49e42d701e49f324c9" target="_top" xlink:title="Allocates and fills MENU, based on List content.">
<polygon fill="#fff0f0" stroke="red" points="698.12,-71.75 565.12,-71.75 565.12,-45 698.12,-45 698.12,-71.75"/>
<text text-anchor="middle" x="631.62" y="-52.55" font-family="Helvetica,sans-Serif" font-size="16.00">listViewInitMenu</text>
</a>
</g>
</g>
<!-- Node19&#45;&gt;Node28 -->
<g id="edge18_Node000019_Node000028" class="edge">
<title>Node19&#45;&gt;Node28</title>
<g id="a_edge18_Node000019_Node000028"><a xlink:title=" ">
<path fill="none" stroke="#63b8ff" stroke-width="2" d="M426.6,-157.5C447.5,-137.58 488.93,-101.1 531,-81.38 537.74,-78.21 544.95,-75.47 552.3,-73.09"/>
<polygon fill="#63b8ff" stroke="#63b8ff" stroke-width="2" points="554.11,-75.61 562.72,-69.43 552.13,-68.9 554.11,-75.61"/>
</a>
</g>
</g>
<!-- Node29 -->
<g id="Node000029" class="node">
<title>Node29</title>
<g id="a_Node000029"><a xlink:href="../../d7/dba/menuutil_8c.html#adc98ee6c310a6ad6286dde9a1426db38" target="_top" xlink:title="Prints header row of table.">
<polygon fill="white" stroke="#666666" points="708.62,-26.75 554.62,-26.75 554.62,0 708.62,0 708.62,-26.75"/>
<text text-anchor="middle" x="631.62" y="-7.55" font-family="Helvetica,sans-Serif" font-size="16.00">printColumnNames</text>
</a>
</g>
</g>
<!-- Node19&#45;&gt;Node29 -->
<g id="edge20_Node000019_Node000029" class="edge">
<title>Node19&#45;&gt;Node29</title>
<g id="a_edge20_Node000019_Node000029"><a xlink:title=" ">
<path fill="none" stroke="#63b8ff" stroke-width="2" d="M420.44,-157.77C437.03,-130.21 478.56,-67.73 531,-36.38 534.58,-34.23 538.34,-32.29 542.22,-30.53"/>
<polygon fill="#63b8ff" stroke="#63b8ff" stroke-width="2" points="544.17,-33.73 552.16,-26.77 541.57,-27.23 544.17,-33.73"/>
</a>
</g>
</g>
<!-- Node21&#45;&gt;Node20 -->
<g id="edge15_Node000021_Node000020" class="edge">
<title>Node21&#45;&gt;Node20</title>
<g id="a_edge15_Node000021_Node000020"><a xlink:title=" ">
<path fill="none" stroke="#63b8ff" stroke-width="2" d="M696.74,-193.38C732.02,-193.38 775.01,-193.38 807,-193.38"/>
<polygon fill="#63b8ff" stroke="#63b8ff" stroke-width="2" points="806.98,-196.88 816.98,-193.38 806.98,-189.88 806.98,-196.88"/>
</a>
</g>
</g>
<!-- Node28&#45;&gt;Node20 -->
<g id="edge19_Node000028_Node000020" class="edge">
<title>Node28&#45;&gt;Node20</title>
<g id="a_edge19_Node000028_Node000020"><a xlink:title=" ">
<path fill="none" stroke="#63b8ff" stroke-width="2" d="M698.42,-68.45C710.08,-71.65 721.82,-75.85 732.25,-81.38 774.28,-103.62 812.71,-144.15 834.52,-169.88"/>
<polygon fill="#63b8ff" stroke="#63b8ff" stroke-width="2" points="832.48,-172.11 841.55,-177.58 837.87,-167.64 832.48,-172.11"/>
</a>
</g>
</g>
</g>
</svg>
