<?xml version="1.0" encoding="UTF-8" standalone="no"?>
<!DOCTYPE svg PUBLIC "-//W3C//DTD SVG 1.1//EN"
 "http://www.w3.org/Graphics/SVG/1.1/DTD/svg11.dtd">
<!-- Generated by graphviz version 8.0.5 (0)
 -->
<!-- Title: extractCar Pages: 1 -->
<svg width="321pt" height="35pt"
 viewBox="0.00 0.00 320.75 34.75" xmlns="http://www.w3.org/2000/svg" xmlns:xlink="http://www.w3.org/1999/xlink">
<g id="graph0" class="graph" transform="scale(1 1) rotate(0) translate(4 30.75)">
<title>extractCar</title>
<!-- Node1 -->
<g id="Node000001" class="node">
<title>Node1</title>
<g id="a_Node000001"><a xlink:title="Extracts car from the given ListNode.">
<polygon fill="#999999" stroke="#666666" points="90.25,-26.75 0,-26.75 0,0 90.25,0 90.25,-26.75"/>
<text text-anchor="middle" x="45.12" y="-7.55" font-family="Helvetica,sans-Serif" font-size="16.00">extractCar</text>
</a>
</g>
</g>
<!-- Node2 -->
<g id="Node000002" class="node">
<title>Node2</title>
<g id="a_Node000002"><a xlink:href="../../d5/df2/car_8c.html#aad591876ff6e73edb792e10ad133e602" target="_top" xlink:title="Make a clone of Car. It allocates memory internally.">
<polygon fill="white" stroke="#666666" points="206.75,-26.75 126.25,-26.75 126.25,0 206.75,0 206.75,-26.75"/>
<text text-anchor="middle" x="166.5" y="-7.55" font-family="Helvetica,sans-Serif" font-size="16.00">carClone</text>
</a>
</g>
</g>
<!-- Node1&#45;&gt;Node2 -->
<g id="edge1_Node000001_Node000002" class="edge">
<title>Node1&#45;&gt;Node2</title>
<g id="a_edge1_Node000001_Node000002"><a xlink:title=" ">
<path fill="none" stroke="#63b8ff" stroke-width="2" d="M90.58,-13.38C97.96,-13.38 105.68,-13.38 113.23,-13.38"/>
<polygon fill="#63b8ff" stroke="#63b8ff" stroke-width="2" points="113.12,-16.88 123.12,-13.38 113.12,-9.88 113.12,-16.88"/>
</a>
</g>
</g>
<!-- Node3 -->
<g id="Node000003" class="node">
<title>Node3</title>
<g id="a_Node000003"><a xlink:href="../../d5/df2/car_8c.html#a0d3175ea031713002ce87092fd6e258f" target="_top" xlink:title="Allocates and returns car containing nothing.">
<polygon fill="white" stroke="#666666" points="312.75,-26.75 242.75,-26.75 242.75,0 312.75,0 312.75,-26.75"/>
<text text-anchor="middle" x="277.75" y="-7.55" font-family="Helvetica,sans-Serif" font-size="16.00">carNew</text>
</a>
</g>
</g>
<!-- Node2&#45;&gt;Node3 -->
<g id="edge2_Node000002_Node000003" class="edge">
<title>Node2&#45;&gt;Node3</title>
<g id="a_edge2_Node000002_Node000003"><a xlink:title=" ">
<path fill="none" stroke="#63b8ff" stroke-width="2" d="M206.94,-13.38C214.29,-13.38 222.04,-13.38 229.59,-13.38"/>
<polygon fill="#63b8ff" stroke="#63b8ff" stroke-width="2" points="229.43,-16.88 239.43,-13.38 229.43,-9.88 229.43,-16.88"/>
</a>
</g>
</g>
</g>
</svg>
