<?xml version="1.0" encoding="UTF-8" standalone="no"?>
<!DOCTYPE svg PUBLIC "-//W3C//DTD SVG 1.1//EN"
 "http://www.w3.org/Graphics/SVG/1.1/DTD/svg11.dtd">
<!-- Generated by graphviz version 8.0.5 (0)
 -->
<!-- Title: carChoose Pages: 1 -->
<!--zoomable 508 -->

<svg id="main" version="1.1" xmlns="http://www.w3.org/2000/svg" xmlns:xlink="http://www.w3.org/1999/xlink" xml:space="preserve" onload="init(evt)">
<style type="text/css"><![CDATA[
.node, .edge {opacity: 0.7;}
.node.selected, .edge.selected {opacity: 1;}
.edge:hover path { stroke: red; }
.edge:hover polygon { stroke: red; fill: red; }
]]></style>

<defs>
  <circle id="rim" cx="0" cy="0" r="7"/>
  <circle id="rim2" cx="0" cy="0" r="3.5"/>
  <g id="zoomPlus">
    <use xlink:href="#rim" fill="#404040"><set attributeName="fill" to="#808080" begin="zoomplus.mouseover" end="zoomplus.mouseout"/></use>
    <path d="M-4,0h8M0,-4v8" fill="none" stroke="white" stroke-width="1.5" pointer-events="none"/>
  </g>
  <g id="zoomMin">
    <use xlink:href="#rim" fill="#404040"><set attributeName="fill" to="#808080" begin="zoomminus.mouseover" end="zoomminus.mouseout"/></use>
    <path d="M-4,0h8" fill="none" stroke="white" stroke-width="1.5" pointer-events="none"/>
  </g>
  <g id="arrowUp" transform="translate(30 24)">
    <use xlink:href="#rim"/>
    <path pointer-events="none" fill="none" stroke="white" stroke-width="1.5" d="M0,-3.0v7 M-2.5,-0.5L0,-3.0L2.5,-0.5"/>
  </g>
  <g id="arrowRight" transform="rotate(90) translate(36 -43)">
    <use xlink:href="#rim"/>
    <path pointer-events="none" fill="none" stroke="white" stroke-width="1.5" d="M0,-3.0v7 M-2.5,-0.5L0,-3.0L2.5,-0.5"/>
  </g>
  <g id="arrowDown" transform="rotate(180) translate(-30 -48)">
    <use xlink:href="#rim"/>
    <path pointer-events="none" fill="none" stroke="white" stroke-width="1.5" d="M0,-3.0v7 M-2.5,-0.5L0,-3.0L2.5,-0.5"/>
  </g>
  <g id="arrowLeft" transform="rotate(270) translate(-36 17)">
    <use xlink:href="#rim"/>
    <path pointer-events="none" fill="none" stroke="white" stroke-width="1.5" d="M0,-3.0v7 M-2.5,-0.5L0,-3.0L2.5,-0.5"/>
  </g>
  <g id="resetDef">
    <use xlink:href="#rim2" fill="#404040"><set attributeName="fill" to="#808080" begin="reset.mouseover" end="reset.mouseout"/></use>
  </g>
</defs>
<script type="application/ecmascript">
var viewWidth = 956;
var viewHeight = 508;
var sectionId = 'dynsection-3';
</script>
<script type="application/ecmascript" xlink:href="../../svg.min.js"/>
<svg id="graph" class="graph">
<g id="viewport">
<title>carChoose</title>
<!-- Node1 -->
<g id="Node000001" class="node">
<title>Node1</title>
<g id="a_Node000001"><a xlink:title="Invokes the listView of cars.">
<polygon fill="#999999" stroke="#666666" points="94,-343.75 0,-343.75 0,-317 94,-317 94,-343.75"/>
<text text-anchor="middle" x="47" y="-324.55" font-family="Helvetica,sans-Serif" font-size="16.00">carChoose</text>
</a>
</g>
</g>
<!-- Node2 -->
<g id="Node000002" class="node">
<title>Node2</title>
<g id="a_Node000002"><a xlink:href="../../d5/df2/car_8c.html#a4ccd342eeebaa0daf8b8b5922ad3b2ff" target="_top" xlink:title="Deallocates car.">
<polygon fill="white" stroke="#666666" points="249.12,-454.75 177.62,-454.75 177.62,-428 249.12,-428 249.12,-454.75"/>
<text text-anchor="middle" x="213.38" y="-435.55" font-family="Helvetica,sans-Serif" font-size="16.00">carFree</text>
</a>
</g>
</g>
<!-- Node1&#45;&gt;Node2 -->
<g id="edge1_Node000001_Node000002" class="edge">
<title>Node1&#45;&gt;Node2</title>
<g id="a_edge1_Node000001_Node000002"><a xlink:title=" ">
<path fill="none" stroke="#63b8ff" stroke-width="2" d="M57.13,-344.2C70.7,-363.67 98.06,-398.95 130,-418.38 140.64,-424.85 153.15,-429.55 165.16,-432.94"/>
<polygon fill="#63b8ff" stroke="#63b8ff" stroke-width="2" points="164.85,-436.98 175.4,-436.02 166.56,-430.19 164.85,-436.98"/>
</a>
</g>
</g>
<!-- Node3 -->
<g id="Node000003" class="node">
<title>Node3</title>
<g id="a_Node000003"><a xlink:href="../../d5/df2/car_8c.html#ad946b04e98242aa73d41af8cd6963335" target="_top" xlink:title="Get list of cars.">
<polygon fill="white" stroke="#666666" points="258.5,-364.75 168.25,-364.75 168.25,-338 258.5,-338 258.5,-364.75"/>
<text text-anchor="middle" x="213.38" y="-345.55" font-family="Helvetica,sans-Serif" font-size="16.00">carGetList</text>
</a>
</g>
</g>
<!-- Node1&#45;&gt;Node3 -->
<g id="edge2_Node000001_Node000003" class="edge">
<title>Node1&#45;&gt;Node3</title>
<g id="a_edge2_Node000001_Node000003"><a xlink:title=" ">
<path fill="none" stroke="#63b8ff" stroke-width="2" d="M94.23,-336.28C113.15,-338.7 135.25,-341.52 155.18,-344.07"/>
<polygon fill="#63b8ff" stroke="#63b8ff" stroke-width="2" points="154.55,-347.9 164.91,-345.69 155.44,-340.96 154.55,-347.9"/>
</a>
</g>
</g>
<!-- Node11 -->
<g id="Node000011" class="node">
<title>Node11</title>
<g id="a_Node000011"><a xlink:href="../../d7/dba/menuutil_8c.html#ae6ed898f3726361b1edde3f8707f0260" target="_top" xlink:title="Displays message box on the screen with title and message.">
<polygon fill="#fff0f0" stroke="red" points="742,-326.75 570,-326.75 570,-300 742,-300 742,-326.75"/>
<text text-anchor="middle" x="656" y="-307.55" font-family="Helvetica,sans-Serif" font-size="16.00">menuUtilMessagebox</text>
</a>
</g>
</g>
<!-- Node1&#45;&gt;Node11 -->
<g id="edge24_Node000001_Node000011" class="edge">
<title>Node1&#45;&gt;Node11</title>
<g id="a_edge24_Node000001_Node000011"><a xlink:title=" ">
<path fill="none" stroke="#63b8ff" stroke-width="2" d="M94.37,-329.08C192.67,-326.32 423.82,-319.85 556.59,-316.13"/>
<polygon fill="#63b8ff" stroke="#63b8ff" stroke-width="2" points="556.62,-319.55 566.51,-315.77 556.42,-312.55 556.62,-319.55"/>
</a>
</g>
</g>
<!-- Node15 -->
<g id="Node000015" class="node">
<title>Node15</title>
<g id="a_Node000015"><a xlink:href="../../dc/dc6/carsmenu_8c.html#a55b6445add211264ded95be67ff98aa5" target="_top" xlink:title="Given car, generates a string representing car data in listView friendly format (whole row).">
<polygon fill="white" stroke="#666666" points="296.75,-161.75 130,-161.75 130,-135 296.75,-135 296.75,-161.75"/>
<text text-anchor="middle" x="213.38" y="-142.55" font-family="Helvetica,sans-Serif" font-size="16.00">carGetListViewString</text>
</a>
</g>
</g>
<!-- Node1&#45;&gt;Node15 -->
<g id="edge10_Node000001_Node000015" class="edge">
<title>Node1&#45;&gt;Node15</title>
<g id="a_edge10_Node000001_Node000015"><a xlink:title=" ">
<path fill="none" stroke="#63b8ff" stroke-width="2" d="M51.14,-316.51C58.88,-285.58 81.83,-210.6 130,-171.38 131.26,-170.35 132.57,-169.36 133.91,-168.43"/>
<polygon fill="#63b8ff" stroke="#63b8ff" stroke-width="2" points="135.96,-171.12 142.83,-163.05 132.43,-165.07 135.96,-171.12"/>
</a>
</g>
</g>
<!-- Node16 -->
<g id="Node000016" class="node">
<title>Node16</title>
<g id="a_Node000016"><a xlink:href="../../dc/dc6/carsmenu_8c.html#acf7941e462559f5f161ffcd804d4b8c9" target="_top" xlink:title="Extracts car from the given ListNode.">
<polygon fill="white" stroke="#666666" points="258.5,-409.75 168.25,-409.75 168.25,-383 258.5,-383 258.5,-409.75"/>
<text text-anchor="middle" x="213.38" y="-390.55" font-family="Helvetica,sans-Serif" font-size="16.00">extractCar</text>
</a>
</g>
</g>
<!-- Node1&#45;&gt;Node16 -->
<g id="edge11_Node000001_Node000016" class="edge">
<title>Node1&#45;&gt;Node16</title>
<g id="a_edge11_Node000001_Node000016"><a xlink:title=" ">
<path fill="none" stroke="#63b8ff" stroke-width="2" d="M71.06,-344.15C87.16,-353.34 109.38,-365.2 130,-373.38 138.07,-376.58 146.75,-379.51 155.34,-382.14"/>
<polygon fill="#63b8ff" stroke="#63b8ff" stroke-width="2" points="155.19,-386.33 165.77,-385.77 157.15,-379.61 155.19,-386.33"/>
</a>
</g>
</g>
<!-- Node18 -->
<g id="Node000018" class="node">
<title>Node18</title>
<g id="a_Node000018"><a xlink:href="../../d7/dba/menuutil_8c.html#aca301edf9d04aa391571851b148355ba" target="_top" xlink:title="List Viewer for lists.">
<polygon fill="white" stroke="#666666" points="272.75,-206.75 154,-206.75 154,-180 272.75,-180 272.75,-206.75"/>
<text text-anchor="middle" x="213.38" y="-187.55" font-family="Helvetica,sans-Serif" font-size="16.00">listViewInvoke</text>
</a>
</g>
</g>
<!-- Node1&#45;&gt;Node18 -->
<g id="edge14_Node000001_Node000018" class="edge">
<title>Node1&#45;&gt;Node18</title>
<g id="a_edge14_Node000001_Node000018"><a xlink:title=" ">
<path fill="none" stroke="#63b8ff" stroke-width="2" d="M64.36,-316.74C92.92,-292.94 152.06,-243.65 186.31,-215.1"/>
<polygon fill="#63b8ff" stroke="#63b8ff" stroke-width="2" points="188.64,-217.05 194.08,-207.96 184.16,-211.67 188.64,-217.05"/>
</a>
</g>
</g>
<!-- Node4 -->
<g id="Node000004" class="node">
<title>Node4</title>
<g id="a_Node000004"><a xlink:href="../../d5/df2/car_8c.html#a2337951b2ae65cc121c20255a2179ad2" target="_top" xlink:title="CallBack function for dbHandleGetResultAsList. Transforms row into Car.">
<polygon fill="white" stroke="#666666" points="531.75,-454.75 335,-454.75 335,-428 531.75,-428 531.75,-454.75"/>
<text text-anchor="middle" x="433.38" y="-435.55" font-family="Helvetica,sans-Serif" font-size="16.00">carGetListQueryCallback</text>
</a>
</g>
</g>
<!-- Node3&#45;&gt;Node4 -->
<g id="edge3_Node000003_Node000004" class="edge">
<title>Node3&#45;&gt;Node4</title>
<g id="a_edge3_Node000003_Node000004"><a xlink:title=" ">
<path fill="none" stroke="#63b8ff" stroke-width="2" d="M258.83,-358.51C271.76,-361.94 285.44,-366.99 296.75,-374.38 317.9,-388.19 311.29,-405.04 332.75,-418.38 335.02,-419.78 337.36,-421.11 339.77,-422.35"/>
<polygon fill="#63b8ff" stroke="#63b8ff" stroke-width="2" points="338.85,-425.67 349.4,-426.59 341.72,-419.29 338.85,-425.67"/>
</a>
</g>
</g>
<!-- Node8 -->
<g id="Node000008" class="node">
<title>Node8</title>
<g id="a_Node000008"><a xlink:href="../../d5/df2/car_8c.html#a42654de8d3a43e2623c8882f42207408" target="_top" xlink:title="Generates SQL query.">
<polygon fill="white" stroke="#666666" points="511.12,-409.75 355.62,-409.75 355.62,-383 511.12,-383 511.12,-409.75"/>
<text text-anchor="middle" x="433.38" y="-390.55" font-family="Helvetica,sans-Serif" font-size="16.00">carGetQueryOfSort</text>
</a>
</g>
</g>
<!-- Node3&#45;&gt;Node8 -->
<g id="edge6_Node000003_Node000008" class="edge">
<title>Node3&#45;&gt;Node8</title>
<g id="a_edge6_Node000003_Node000008"><a xlink:title=" ">
<path fill="none" stroke="#63b8ff" stroke-width="2" d="M258.75,-360.54C285.79,-366.12 321.13,-373.41 352.86,-379.96"/>
<polygon fill="#63b8ff" stroke="#63b8ff" stroke-width="2" points="352.78,-383.93 363.28,-382.52 354.19,-377.08 352.78,-383.93"/>
</a>
</g>
</g>
<!-- Node9 -->
<g id="Node000009" class="node">
<title>Node9</title>
<g id="a_Node000009"><a xlink:href="../../d3/df4/dbhandle_8c.html#a93d9b43b32495dc8630963c174aeba05" target="_top" xlink:title="Given query and callback function create List based on the query.">
<polygon fill="#fff0f0" stroke="red" points="534,-364.75 332.75,-364.75 332.75,-338 534,-338 534,-364.75"/>
<text text-anchor="middle" x="433.38" y="-345.55" font-family="Helvetica,sans-Serif" font-size="16.00">dbHandleGetResultAsList</text>
</a>
</g>
</g>
<!-- Node3&#45;&gt;Node9 -->
<g id="edge7_Node000003_Node000009" class="edge">
<title>Node3&#45;&gt;Node9</title>
<g id="a_edge7_Node000003_Node000009"><a xlink:title=" ">
<path fill="none" stroke="#63b8ff" stroke-width="2" d="M258.75,-351.38C276.65,-351.38 298.19,-351.38 319.91,-351.38"/>
<polygon fill="#63b8ff" stroke="#63b8ff" stroke-width="2" points="319.7,-354.88 329.7,-351.38 319.7,-347.88 319.7,-354.88"/>
</a>
</g>
</g>
<!-- Node5 -->
<g id="Node000005" class="node">
<title>Node5</title>
<g id="a_Node000005"><a xlink:href="../../d5/df2/car_8c.html#a0d3175ea031713002ce87092fd6e258f" target="_top" xlink:title="Allocates and returns car containing nothing.">
<polygon fill="white" stroke="#666666" points="691,-499.75 621,-499.75 621,-473 691,-473 691,-499.75"/>
<text text-anchor="middle" x="656" y="-480.55" font-family="Helvetica,sans-Serif" font-size="16.00">carNew</text>
</a>
</g>
</g>
<!-- Node4&#45;&gt;Node5 -->
<g id="edge4_Node000004_Node000005" class="edge">
<title>Node4&#45;&gt;Node5</title>
<g id="a_edge4_Node000004_Node000005"><a xlink:title=" ">
<path fill="none" stroke="#63b8ff" stroke-width="2" d="M502.37,-455.24C536.71,-462.25 577.51,-470.57 608.28,-476.84"/>
<polygon fill="#63b8ff" stroke="#63b8ff" stroke-width="2" points="608.3,-480.83 618.8,-479.4 609.7,-473.97 608.3,-480.83"/>
</a>
</g>
</g>
<!-- Node6 -->
<g id="Node000006" class="node">
<title>Node6</title>
<g id="a_Node000006"><a xlink:href="../../d7/d40/list_8c.html#a339df7b81560e9469a44d37ad966870f" target="_top" xlink:title="Adds item at the end of list.">
<polygon fill="#fff0f0" stroke="red" points="710.5,-454.75 601.5,-454.75 601.5,-428 710.5,-428 710.5,-454.75"/>
<text text-anchor="middle" x="656" y="-435.55" font-family="Helvetica,sans-Serif" font-size="16.00">listPushBack</text>
</a>
</g>
</g>
<!-- Node4&#45;&gt;Node6 -->
<g id="edge5_Node000004_Node000006" class="edge">
<title>Node4&#45;&gt;Node6</title>
<g id="a_edge5_Node000004_Node000006"><a xlink:title=" ">
<path fill="none" stroke="#63b8ff" stroke-width="2" d="M532.11,-441.38C551.12,-441.38 570.64,-441.38 588.36,-441.38"/>
<polygon fill="#63b8ff" stroke="#63b8ff" stroke-width="2" points="588.22,-444.88 598.22,-441.38 588.22,-437.88 588.22,-444.88"/>
</a>
</g>
</g>
<!-- Node9&#45;&gt;Node11 -->
<g id="edge8_Node000009_Node000011" class="edge">
<title>Node9&#45;&gt;Node11</title>
<g id="a_edge8_Node000009_Node000011"><a xlink:title=" ">
<path fill="none" stroke="#63b8ff" stroke-width="2" d="M514.65,-337.55C530.11,-334.89 546.42,-332.08 562.23,-329.35"/>
<polygon fill="#63b8ff" stroke="#63b8ff" stroke-width="2" points="563.52,-332.34 572.78,-327.19 562.34,-325.44 563.52,-332.34"/>
</a>
</g>
</g>
<!-- Node14 -->
<g id="Node000014" class="node">
<title>Node14</title>
<g id="a_Node000014"><a xlink:href="../../d7/dba/menuutil_8c.html#a14ca6bd9893f550a2051ca6cd5a689ac" target="_top" xlink:title="Print boarders of window.">
<polygon fill="white" stroke="#666666" points="947.75,-305.75 778,-305.75 778,-279 947.75,-279 947.75,-305.75"/>
<text text-anchor="middle" x="862.88" y="-286.55" font-family="Helvetica,sans-Serif" font-size="16.00">printWindowBoarders</text>
</a>
</g>
</g>
<!-- Node11&#45;&gt;Node14 -->
<g id="edge9_Node000011_Node000014" class="edge">
<title>Node11&#45;&gt;Node14</title>
<g id="a_edge9_Node000011_Node000014"><a xlink:title=" ">
<path fill="none" stroke="#63b8ff" stroke-width="2" d="M742.4,-304.62C749.77,-303.87 757.25,-303.1 764.7,-302.34"/>
<polygon fill="#63b8ff" stroke="#63b8ff" stroke-width="2" points="765.01,-305.51 774.6,-301.01 764.29,-298.55 765.01,-305.51"/>
</a>
</g>
</g>
<!-- Node17 -->
<g id="Node000017" class="node">
<title>Node17</title>
<g id="a_Node000017"><a xlink:href="../../d5/df2/car_8c.html#aad591876ff6e73edb792e10ad133e602" target="_top" xlink:title="Make a clone of Car. It allocates memory internally.">
<polygon fill="white" stroke="#666666" points="473.62,-499.75 393.12,-499.75 393.12,-473 473.62,-473 473.62,-499.75"/>
<text text-anchor="middle" x="433.38" y="-480.55" font-family="Helvetica,sans-Serif" font-size="16.00">carClone</text>
</a>
</g>
</g>
<!-- Node16&#45;&gt;Node17 -->
<g id="edge12_Node000016_Node000017" class="edge">
<title>Node16&#45;&gt;Node17</title>
<g id="a_edge12_Node000016_Node000017"><a xlink:title=" ">
<path fill="none" stroke="#63b8ff" stroke-width="2" d="M258.83,-403.51C271.76,-406.94 285.44,-411.99 296.75,-419.38 317.9,-433.19 311.29,-450.04 332.75,-463.38 346.91,-472.17 364.08,-477.61 380.16,-480.97"/>
<polygon fill="#63b8ff" stroke="#63b8ff" stroke-width="2" points="380.27,-484.91 390.73,-483.24 381.51,-478.02 380.27,-484.91"/>
</a>
</g>
</g>
<!-- Node17&#45;&gt;Node5 -->
<g id="edge13_Node000017_Node000005" class="edge">
<title>Node17&#45;&gt;Node5</title>
<g id="a_edge13_Node000017_Node000005"><a xlink:title=" ">
<path fill="none" stroke="#63b8ff" stroke-width="2" d="M474.07,-486.38C511.64,-486.38 568.04,-486.38 607.87,-486.38"/>
<polygon fill="#63b8ff" stroke="#63b8ff" stroke-width="2" points="607.69,-489.88 617.69,-486.38 607.69,-482.88 607.69,-489.88"/>
</a>
</g>
</g>
<!-- Node18&#45;&gt;Node14 -->
<g id="edge23_Node000018_Node000014" class="edge">
<title>Node18&#45;&gt;Node14</title>
<g id="a_edge23_Node000018_Node000014"><a xlink:title=" ">
<path fill="none" stroke="#63b8ff" stroke-width="2" d="M248.78,-207.19C272.11,-216.01 303.84,-226.96 332.75,-233.38 481.46,-266.39 657.98,-281.35 764.88,-287.82"/>
<polygon fill="#63b8ff" stroke="#63b8ff" stroke-width="2" points="764.38,-291.47 774.57,-288.56 764.79,-284.48 764.38,-291.47"/>
</a>
</g>
</g>
<!-- Node19 -->
<g id="Node000019" class="node">
<title>Node19</title>
<g id="a_Node000019"><a xlink:href="../../d7/d40/list_8c.html#a0837532833bd96d83104386c1aa69c10" target="_top" xlink:title="How many elements are there in List.">
<polygon fill="white" stroke="#666666" points="689.88,-206.75 622.12,-206.75 622.12,-180 689.88,-180 689.88,-206.75"/>
<text text-anchor="middle" x="656" y="-187.55" font-family="Helvetica,sans-Serif" font-size="16.00">listSize</text>
</a>
</g>
</g>
<!-- Node18&#45;&gt;Node19 -->
<g id="edge15_Node000018_Node000019" class="edge">
<title>Node18&#45;&gt;Node19</title>
<g id="a_edge15_Node000018_Node000019"><a xlink:title=" ">
<path fill="none" stroke="#63b8ff" stroke-width="2" d="M273.08,-206.49C292.03,-210.13 313.18,-213.57 332.75,-215.38 421.82,-223.58 444.92,-223.41 534,-215.38 559.06,-213.11 586.7,-208.27 609.22,-203.7"/>
<polygon fill="#63b8ff" stroke="#63b8ff" stroke-width="2" points="610.76,-206.54 619.84,-201.07 609.33,-199.69 610.76,-206.54"/>
</a>
</g>
</g>
<!-- Node20 -->
<g id="Node000020" class="node">
<title>Node20</title>
<g id="a_Node000020"><a xlink:href="../../d7/dba/menuutil_8c.html#a6229d06cea0b18a996e9f378719c56bb" target="_top" xlink:title="frees internal List of listView.">
<polygon fill="#fff0f0" stroke="red" points="498,-206.75 368.75,-206.75 368.75,-180 498,-180 498,-206.75"/>
<text text-anchor="middle" x="433.38" y="-187.55" font-family="Helvetica,sans-Serif" font-size="16.00">listViewFreeList</text>
</a>
</g>
</g>
<!-- Node18&#45;&gt;Node20 -->
<g id="edge16_Node000018_Node000020" class="edge">
<title>Node18&#45;&gt;Node20</title>
<g id="a_edge16_Node000018_Node000020"><a xlink:title=" ">
<path fill="none" stroke="#63b8ff" stroke-width="2" d="M273.08,-193.38C298.56,-193.38 328.73,-193.38 355.92,-193.38"/>
<polygon fill="#63b8ff" stroke="#63b8ff" stroke-width="2" points="355.59,-196.88 365.59,-193.38 355.59,-189.88 355.59,-196.88"/>
</a>
</g>
</g>
<!-- Node25 -->
<g id="Node000025" class="node">
<title>Node25</title>
<g id="a_Node000025"><a xlink:href="../../d7/dba/menuutil_8c.html#a5cf01d8794a16c8f4d79eed99ec0b560" target="_top" xlink:title="frees memory used by listView internal Menu">
<polygon fill="white" stroke="#666666" points="505.5,-116.75 361.25,-116.75 361.25,-90 505.5,-90 505.5,-116.75"/>
<text text-anchor="middle" x="433.38" y="-97.55" font-family="Helvetica,sans-Serif" font-size="16.00">listViewFreeMenu</text>
</a>
</g>
</g>
<!-- Node18&#45;&gt;Node25 -->
<g id="edge18_Node000018_Node000025" class="edge">
<title>Node18&#45;&gt;Node25</title>
<g id="a_edge18_Node000018_Node000025"><a xlink:title=" ">
<path fill="none" stroke="#63b8ff" stroke-width="2" d="M273.04,-181.83C281.37,-178.84 289.54,-175.08 296.75,-170.38 317.9,-156.56 311.29,-139.71 332.75,-126.38 337.85,-123.2 343.35,-120.47 349.04,-118.11"/>
<polygon fill="#63b8ff" stroke="#63b8ff" stroke-width="2" points="350.75,-121.49 358.95,-114.78 348.35,-114.91 350.75,-121.49"/>
</a>
</g>
</g>
<!-- Node26 -->
<g id="Node000026" class="node">
<title>Node26</title>
<g id="a_Node000026"><a xlink:href="../../d7/dba/menuutil_8c.html#a6154454b5c30466c33806a07ce7578d5" target="_top" xlink:title=" ">
<polygon fill="white" stroke="#666666" points="527.62,-71.75 339.12,-71.75 339.12,-45 527.62,-45 527.62,-71.75"/>
<text text-anchor="middle" x="433.38" y="-52.55" font-family="Helvetica,sans-Serif" font-size="16.00">listViewHandleIteraction</text>
</a>
</g>
</g>
<!-- Node18&#45;&gt;Node26 -->
<g id="edge19_Node000018_Node000026" class="edge">
<title>Node18&#45;&gt;Node26</title>
<g id="a_edge19_Node000018_Node000026"><a xlink:title=" ">
<path fill="none" stroke="#63b8ff" stroke-width="2" d="M273.19,-184.18C281.78,-180.88 290,-176.41 296.75,-170.38 328.56,-141.94 300.3,-109.08 332.75,-81.38 333.67,-80.59 334.6,-79.84 335.56,-79.11"/>
<polygon fill="#63b8ff" stroke="#63b8ff" stroke-width="2" points="337.92,-81.48 344.48,-73.16 334.16,-75.58 337.92,-81.48"/>
</a>
</g>
</g>
<!-- Node27 -->
<g id="Node000027" class="node">
<title>Node27</title>
<g id="a_Node000027"><a xlink:href="../../d7/dba/menuutil_8c.html#a06a2ceb28df68b49e42d701e49f324c9" target="_top" xlink:title="Allocates and fills MENU, based on List content.">
<polygon fill="#fff0f0" stroke="red" points="499.88,-161.75 366.88,-161.75 366.88,-135 499.88,-135 499.88,-161.75"/>
<text text-anchor="middle" x="433.38" y="-142.55" font-family="Helvetica,sans-Serif" font-size="16.00">listViewInitMenu</text>
</a>
</g>
</g>
<!-- Node18&#45;&gt;Node27 -->
<g id="edge20_Node000018_Node000027" class="edge">
<title>Node18&#45;&gt;Node27</title>
<g id="a_edge20_Node000018_Node000027"><a xlink:title=" ">
<path fill="none" stroke="#63b8ff" stroke-width="2" d="M273.08,-181.26C298.01,-176.11 327.44,-170.04 354.17,-164.52"/>
<polygon fill="#63b8ff" stroke="#63b8ff" stroke-width="2" points="355.56,-167.39 364.64,-161.94 354.14,-160.54 355.56,-167.39"/>
</a>
</g>
</g>
<!-- Node28 -->
<g id="Node000028" class="node">
<title>Node28</title>
<g id="a_Node000028"><a xlink:href="../../d7/dba/menuutil_8c.html#adc98ee6c310a6ad6286dde9a1426db38" target="_top" xlink:title="Prints header row of table.">
<polygon fill="white" stroke="#666666" points="510.38,-26.75 356.38,-26.75 356.38,0 510.38,0 510.38,-26.75"/>
<text text-anchor="middle" x="433.38" y="-7.55" font-family="Helvetica,sans-Serif" font-size="16.00">printColumnNames</text>
</a>
</g>
</g>
<!-- Node18&#45;&gt;Node28 -->
<g id="edge22_Node000018_Node000028" class="edge">
<title>Node18&#45;&gt;Node28</title>
<g id="a_edge22_Node000018_Node000028"><a xlink:title=" ">
<path fill="none" stroke="#63b8ff" stroke-width="2" d="M273.02,-185.2C281.84,-181.79 290.17,-177.02 296.75,-170.38 340.14,-126.56 288.38,-79.2 332.75,-36.38 336.38,-32.87 340.44,-29.86 344.78,-27.28"/>
<polygon fill="#63b8ff" stroke="#63b8ff" stroke-width="2" points="346.65,-30.27 354.06,-22.7 343.55,-23.99 346.65,-30.27"/>
</a>
</g>
</g>
<!-- Node20&#45;&gt;Node19 -->
<g id="edge17_Node000020_Node000019" class="edge">
<title>Node20&#45;&gt;Node19</title>
<g id="a_edge17_Node000020_Node000019"><a xlink:title=" ">
<path fill="none" stroke="#63b8ff" stroke-width="2" d="M498.49,-193.38C533.77,-193.38 576.76,-193.38 608.75,-193.38"/>
<polygon fill="#63b8ff" stroke="#63b8ff" stroke-width="2" points="608.73,-196.88 618.73,-193.38 608.73,-189.88 608.73,-196.88"/>
</a>
</g>
</g>
<!-- Node27&#45;&gt;Node19 -->
<g id="edge21_Node000027_Node000019" class="edge">
<title>Node27&#45;&gt;Node19</title>
<g id="a_edge21_Node000027_Node000019"><a xlink:title=" ">
<path fill="none" stroke="#63b8ff" stroke-width="2" d="M500.27,-161.82C535.42,-168.99 577.8,-177.63 609.31,-184.06"/>
<polygon fill="#63b8ff" stroke="#63b8ff" stroke-width="2" points="609.17,-188.01 619.67,-186.58 610.57,-181.15 609.17,-188.01"/>
</a>
</g>
</g>
</g>
</svg>

<g id="navigator" transform="translate(0 0)" fill="#404254">
  <rect fill="#f2f5e9" fill-opacity="0.5" stroke="#606060" stroke-width=".5" x="0" y="0" width="60" height="60"/>
  <use id="zoomplus" xlink:href="#zoomPlus" x="17" y="9" onmousedown="handleZoom(evt,'in')"/>
  <use id="zoomminus" xlink:href="#zoomMin" x="42" y="9" onmousedown="handleZoom(evt,'out')"/>
  <use id="reset" xlink:href="#resetDef" x="30" y="36" onmousedown="handleReset()"/>
   <use id="arrowup" xlink:href="#arrowUp" x="0" y="0" onmousedown="handlePan(0,-1)"/>
  <use id="arrowright" xlink:href="#arrowRight" x="0" y="0" onmousedown="handlePan(1,0)"/>
  <use id="arrowdown" xlink:href="#arrowDown" x="0" y="0" onmousedown="handlePan(0,1)"/>
  <use id="arrowleft" xlink:href="#arrowLeft" x="0" y="0" onmousedown="handlePan(-1,0)"/>
</g>
<svg viewBox="0 0 15 15" width="100%" height="30px" preserveAspectRatio="xMaxYMin meet">
 <g id="arrow_out" transform="scale(0.3 0.3)">
  <a xlink:href="carsmenu_8c_ad451b82b7f3d31d1bb3fc4c210941579_cgraph_org.svg" target="_base">
   <rect id="button" ry="5" rx="5" y="6" x="6" height="38" width="38"
        fill="#f2f5e9" fill-opacity="0.5" stroke="#606060" stroke-width="1.0"/>
   <path id="arrow"
     d="M 11.500037,31.436501 C 11.940474,20.09759 22.043105,11.32322 32.158766,21.979434 L 37.068811,17.246167 C 37.068811,17.246167 37.088388,32 37.088388,32 L 22.160133,31.978069 C 22.160133,31.978069 26.997745,27.140456 26.997745,27.140456 C 18.528582,18.264221 13.291696,25.230495 11.500037,31.436501 z"
     style="fill:#404040;"/>
  </a>
 </g>
</svg>

<style type='text/css'>
<![CDATA[
[data-mouse-over-selected='false'] { opacity: 0.7; }
[data-mouse-over-selected='true']  { opacity: 1.0; }
]]>
</style>
<script type="application/ecmascript"><![CDATA[
document.addEventListener('DOMContentLoaded', (event) => {
  highlightEdges();
  highlightAdjacentNodes();
});
]]></script>
</svg>
