<?xml version="1.0" encoding="UTF-8" standalone="no"?>
<!DOCTYPE svg PUBLIC "-//W3C//DTD SVG 1.1//EN"
 "http://www.w3.org/Graphics/SVG/1.1/DTD/svg11.dtd">
<!-- Generated by graphviz version 8.0.5 (0)
 -->
<!-- Title: client.c Pages: 1 -->
<!--zoomable 286 -->

<svg id="main" version="1.1" xmlns="http://www.w3.org/2000/svg" xmlns:xlink="http://www.w3.org/1999/xlink" xml:space="preserve" onload="init(evt)">
<style type="text/css"><![CDATA[
.node, .edge {opacity: 0.7;}
.node.selected, .edge.selected {opacity: 1;}
.edge:hover path { stroke: red; }
.edge:hover polygon { stroke: red; fill: red; }
]]></style>

<defs>
  <circle id="rim" cx="0" cy="0" r="7"/>
  <circle id="rim2" cx="0" cy="0" r="3.5"/>
  <g id="zoomPlus">
    <use xlink:href="#rim" fill="#404040"><set attributeName="fill" to="#808080" begin="zoomplus.mouseover" end="zoomplus.mouseout"/></use>
    <path d="M-4,0h8M0,-4v8" fill="none" stroke="white" stroke-width="1.5" pointer-events="none"/>
  </g>
  <g id="zoomMin">
    <use xlink:href="#rim" fill="#404040"><set attributeName="fill" to="#808080" begin="zoomminus.mouseover" end="zoomminus.mouseout"/></use>
    <path d="M-4,0h8" fill="none" stroke="white" stroke-width="1.5" pointer-events="none"/>
  </g>
  <g id="arrowUp" transform="translate(30 24)">
    <use xlink:href="#rim"/>
    <path pointer-events="none" fill="none" stroke="white" stroke-width="1.5" d="M0,-3.0v7 M-2.5,-0.5L0,-3.0L2.5,-0.5"/>
  </g>
  <g id="arrowRight" transform="rotate(90) translate(36 -43)">
    <use xlink:href="#rim"/>
    <path pointer-events="none" fill="none" stroke="white" stroke-width="1.5" d="M0,-3.0v7 M-2.5,-0.5L0,-3.0L2.5,-0.5"/>
  </g>
  <g id="arrowDown" transform="rotate(180) translate(-30 -48)">
    <use xlink:href="#rim"/>
    <path pointer-events="none" fill="none" stroke="white" stroke-width="1.5" d="M0,-3.0v7 M-2.5,-0.5L0,-3.0L2.5,-0.5"/>
  </g>
  <g id="arrowLeft" transform="rotate(270) translate(-36 17)">
    <use xlink:href="#rim"/>
    <path pointer-events="none" fill="none" stroke="white" stroke-width="1.5" d="M0,-3.0v7 M-2.5,-0.5L0,-3.0L2.5,-0.5"/>
  </g>
  <g id="resetDef">
    <use xlink:href="#rim2" fill="#404040"><set attributeName="fill" to="#808080" begin="reset.mouseover" end="reset.mouseout"/></use>
  </g>
</defs>
<script type="application/ecmascript">
var viewWidth = 807;
var viewHeight = 286;
var sectionId = 'dynsection-0';
</script>
<script type="application/ecmascript" xlink:href="../../svg.min.js"/>
<svg id="graph" class="graph">
<g id="viewport">
<title>client.c</title>
<!-- Node1 -->
<g id="Node000001" class="node">
<title>Node1</title>
<g id="a_Node000001"><a xlink:title="Implements function to operate on client.">
<polygon fill="#999999" stroke="#666666" points="383.89,-277.75 316.89,-277.75 316.89,-251 383.89,-251 383.89,-277.75"/>
<text text-anchor="middle" x="350.39" y="-258.55" font-family="Helvetica,sans-Serif" font-size="16.00">client.c</text>
</a>
</g>
</g>
<!-- Node2 -->
<g id="Node000002" class="node">
<title>Node2</title>
<g id="a_Node000002"><a xlink:href="../../d8/de1/client_8h.html" target="_top" xlink:title="Interface for Client structure.">
<polygon fill="white" stroke="#666666" points="198.27,-152.25 130.52,-152.25 130.52,-125.5 198.27,-125.5 198.27,-152.25"/>
<text text-anchor="middle" x="164.39" y="-133.05" font-family="Helvetica,sans-Serif" font-size="16.00">client.h</text>
</a>
</g>
</g>
<!-- Node1&#45;&gt;Node2 -->
<g id="edge1_Node000001_Node000002" class="edge">
<title>Node1&#45;&gt;Node2</title>
<g id="a_edge1_Node000001_Node000002"><a xlink:title=" ">
<path fill="none" stroke="#63b8ff" stroke-width="2" d="M316.42,-258.52C285.68,-252.66 240.56,-240.25 209.39,-215 193.08,-201.79 181.27,-180.97 173.85,-164.6"/>
<polygon fill="#63b8ff" stroke="#63b8ff" stroke-width="2" points="176.94,-162.52 169.85,-154.65 170.48,-165.22 176.94,-162.52"/>
</a>
</g>
</g>
<!-- Node3 -->
<g id="Node000003" class="node">
<title>Node3</title>
<g id="a_Node000003"><a xlink:href="../../da/d23/list_8h.html" target="_top" xlink:title="Doubly linked list interface.">
<polygon fill="white" stroke="#666666" points="247.27,-89.5 197.52,-89.5 197.52,-62.75 247.27,-62.75 247.27,-89.5"/>
<text text-anchor="middle" x="222.39" y="-70.3" font-family="Helvetica,sans-Serif" font-size="16.00">list.h</text>
</a>
</g>
</g>
<!-- Node1&#45;&gt;Node3 -->
<g id="edge11_Node000001_Node000003" class="edge">
<title>Node1&#45;&gt;Node3</title>
<g id="a_edge11_Node000001_Node000003"><a xlink:title=" ">
<path fill="none" stroke="#63b8ff" stroke-width="2" d="M316.45,-257.19C291.94,-250.88 260.16,-238.53 242.39,-215 217.6,-182.18 216.92,-132.12 219.26,-102.21"/>
<polygon fill="#63b8ff" stroke="#63b8ff" stroke-width="2" points="223,-102.96 220.51,-92.66 216.04,-102.26 223,-102.96"/>
</a>
</g>
</g>
<!-- Node4 -->
<g id="Node000004" class="node">
<title>Node4</title>
<g id="a_Node000004"><a xlink:title=" ">
<polygon fill="#e0e0e0" stroke="#999999" points="263.39,-26.75 181.39,-26.75 181.39,0 263.39,0 263.39,-26.75"/>
<text text-anchor="middle" x="222.39" y="-7.55" font-family="Helvetica,sans-Serif" font-size="16.00">stdbool.h</text>
</a>
</g>
</g>
<!-- Node1&#45;&gt;Node4 -->
<g id="edge17_Node000001_Node000004" class="edge">
<title>Node1&#45;&gt;Node4</title>
<g id="a_edge17_Node000001_Node000004"><a xlink:title=" ">
<path fill="none" stroke="#63b8ff" stroke-width="2" d="M316.62,-261.28C247.33,-256.47 91.88,-242.82 47.39,-215 18.51,-196.94 13.64,-184.73 3.39,-152.25 -20.85,-75.46 96.21,-38.61 168.59,-23.42"/>
<polygon fill="#63b8ff" stroke="#63b8ff" stroke-width="2" points="169.99,-26.31 179.1,-20.91 168.61,-19.44 169.99,-26.31"/>
</a>
</g>
</g>
<!-- Node5 -->
<g id="Node000005" class="node">
<title>Node5</title>
<g id="a_Node000005"><a xlink:href="../../db/d9d/dbhandle_8h.html" target="_top" xlink:title="Database operations interface.">
<polygon fill="white" stroke="#666666" points="347.52,-215 251.27,-215 251.27,-188.25 347.52,-188.25 347.52,-215"/>
<text text-anchor="middle" x="299.39" y="-195.8" font-family="Helvetica,sans-Serif" font-size="16.00">dbhandle.h</text>
</a>
</g>
</g>
<!-- Node1&#45;&gt;Node5 -->
<g id="edge5_Node000001_Node000005" class="edge">
<title>Node1&#45;&gt;Node5</title>
<g id="a_edge5_Node000001_Node000005"><a xlink:title=" ">
<path fill="none" stroke="#63b8ff" stroke-width="2" d="M339.82,-250.79C333.6,-243.38 325.55,-233.78 318.27,-225.11"/>
<polygon fill="#63b8ff" stroke="#63b8ff" stroke-width="2" points="320.06,-222.6 310.94,-217.2 314.69,-227.11 320.06,-222.6"/>
</a>
</g>
</g>
<!-- Node7 -->
<g id="Node000007" class="node">
<title>Node7</title>
<g id="a_Node000007"><a xlink:href="../../de/d0e/menuutil_8h.html" target="_top" xlink:title="Header file for menu operations.">
<polygon fill="white" stroke="#666666" points="147.89,-215 56.89,-215 56.89,-188.25 147.89,-188.25 147.89,-215"/>
<text text-anchor="middle" x="102.39" y="-195.8" font-family="Helvetica,sans-Serif" font-size="16.00">menuutil.h</text>
</a>
</g>
</g>
<!-- Node1&#45;&gt;Node7 -->
<g id="edge12_Node000001_Node000007" class="edge">
<title>Node1&#45;&gt;Node7</title>
<g id="a_edge12_Node000001_Node000007"><a xlink:title=" ">
<path fill="none" stroke="#63b8ff" stroke-width="2" d="M316.43,-255.06C276.36,-245.24 209.09,-228.76 160.65,-216.9"/>
<polygon fill="#63b8ff" stroke="#63b8ff" stroke-width="2" points="160.69,-212.81 150.15,-213.83 159.03,-219.61 160.69,-212.81"/>
</a>
</g>
</g>
<!-- Node9 -->
<g id="Node000009" class="node">
<title>Node9</title>
<g id="a_Node000009"><a xlink:title=" ">
<polygon fill="#e0e0e0" stroke="#999999" points="439.27,-215 365.52,-215 365.52,-188.25 439.27,-188.25 439.27,-215"/>
<text text-anchor="middle" x="402.39" y="-195.8" font-family="Helvetica,sans-Serif" font-size="16.00">assert.h</text>
</a>
</g>
</g>
<!-- Node1&#45;&gt;Node9 -->
<g id="edge15_Node000001_Node000009" class="edge">
<title>Node1&#45;&gt;Node9</title>
<g id="a_edge15_Node000001_Node000009"><a xlink:title=" ">
<path fill="none" stroke="#63b8ff" stroke-width="2" d="M361.17,-250.79C367.58,-243.29 375.9,-233.57 383.39,-224.82"/>
<polygon fill="#63b8ff" stroke="#63b8ff" stroke-width="2" points="386.79,-227.07 390.63,-217.2 381.47,-222.52 386.79,-227.07"/>
</a>
</g>
</g>
<!-- Node10 -->
<g id="Node000010" class="node">
<title>Node10</title>
<g id="a_Node000010"><a xlink:title=" ">
<polygon fill="#e0e0e0" stroke="#999999" points="543.64,-215 457.14,-215 457.14,-188.25 543.64,-188.25 543.64,-215"/>
<text text-anchor="middle" x="500.39" y="-195.8" font-family="Helvetica,sans-Serif" font-size="16.00">ncurses.h</text>
</a>
</g>
</g>
<!-- Node1&#45;&gt;Node10 -->
<g id="edge16_Node000001_Node000010" class="edge">
<title>Node1&#45;&gt;Node10</title>
<g id="a_edge16_Node000001_Node000010"><a xlink:title=" ">
<path fill="none" stroke="#63b8ff" stroke-width="2" d="M381.84,-250.64C403.56,-241.84 432.75,-230.02 456.73,-220.31"/>
<polygon fill="#63b8ff" stroke="#63b8ff" stroke-width="2" points="458.77,-223.45 466.73,-216.45 456.15,-216.96 458.77,-223.45"/>
</a>
</g>
</g>
<!-- Node11 -->
<g id="Node000011" class="node">
<title>Node11</title>
<g id="a_Node000011"><a xlink:title=" ">
<polygon fill="#e0e0e0" stroke="#999999" points="625.39,-215 561.39,-215 561.39,-188.25 625.39,-188.25 625.39,-215"/>
<text text-anchor="middle" x="593.39" y="-195.8" font-family="Helvetica,sans-Serif" font-size="16.00">stdio.h</text>
</a>
</g>
</g>
<!-- Node1&#45;&gt;Node11 -->
<g id="edge18_Node000001_Node000011" class="edge">
<title>Node1&#45;&gt;Node11</title>
<g id="a_edge18_Node000001_Node000011"><a xlink:title=" ">
<path fill="none" stroke="#63b8ff" stroke-width="2" d="M384.14,-255.92C421.94,-247.44 485.29,-232.82 548.91,-215.84"/>
<polygon fill="#63b8ff" stroke="#63b8ff" stroke-width="2" points="550.47,-218.51 559.21,-212.53 548.65,-211.75 550.47,-218.51"/>
</a>
</g>
</g>
<!-- Node12 -->
<g id="Node000012" class="node">
<title>Node12</title>
<g id="a_Node000012"><a xlink:title=" ">
<polygon fill="#e0e0e0" stroke="#999999" points="711.27,-215 643.52,-215 643.52,-188.25 711.27,-188.25 711.27,-215"/>
<text text-anchor="middle" x="677.39" y="-195.8" font-family="Helvetica,sans-Serif" font-size="16.00">stdlib.h</text>
</a>
</g>
</g>
<!-- Node1&#45;&gt;Node12 -->
<g id="edge19_Node000001_Node000012" class="edge">
<title>Node1&#45;&gt;Node12</title>
<g id="a_edge19_Node000001_Node000012"><a xlink:title=" ">
<path fill="none" stroke="#63b8ff" stroke-width="2" d="M384.29,-258.85C435.55,-251.74 536.01,-236.76 630.79,-215.64"/>
<polygon fill="#63b8ff" stroke="#63b8ff" stroke-width="2" points="632.23,-218.45 641.21,-212.83 630.69,-211.63 632.23,-218.45"/>
</a>
</g>
</g>
<!-- Node13 -->
<g id="Node000013" class="node">
<title>Node13</title>
<g id="a_Node000013"><a xlink:title=" ">
<polygon fill="#e0e0e0" stroke="#999999" points="799.02,-215 729.77,-215 729.77,-188.25 799.02,-188.25 799.02,-215"/>
<text text-anchor="middle" x="764.39" y="-195.8" font-family="Helvetica,sans-Serif" font-size="16.00">string.h</text>
</a>
</g>
</g>
<!-- Node1&#45;&gt;Node13 -->
<g id="edge20_Node000001_Node000013" class="edge">
<title>Node1&#45;&gt;Node13</title>
<g id="a_edge20_Node000001_Node000013"><a xlink:title=" ">
<path fill="none" stroke="#63b8ff" stroke-width="2" d="M384.33,-260.59C447.76,-255.03 588.73,-241.01 717.06,-215.46"/>
<polygon fill="#63b8ff" stroke="#63b8ff" stroke-width="2" points="718.33,-218.36 727.44,-212.95 716.94,-211.5 718.33,-218.36"/>
</a>
</g>
</g>
<!-- Node2&#45;&gt;Node3 -->
<g id="edge2_Node000002_Node000003" class="edge">
<title>Node2&#45;&gt;Node3</title>
<g id="a_edge2_Node000002_Node000003"><a xlink:title=" ">
<path fill="none" stroke="#63b8ff" stroke-width="2" d="M176.41,-125.29C183.64,-117.71 193.05,-107.86 201.47,-99.04"/>
<polygon fill="#63b8ff" stroke="#63b8ff" stroke-width="2" points="204.02,-101.35 208.39,-91.7 198.95,-96.51 204.02,-101.35"/>
</a>
</g>
</g>
<!-- Node2&#45;&gt;Node4 -->
<g id="edge4_Node000002_Node000004" class="edge">
<title>Node2&#45;&gt;Node4</title>
<g id="a_edge4_Node000002_Node000004"><a xlink:title=" ">
<path fill="none" stroke="#63b8ff" stroke-width="2" d="M167.19,-125.19C170.85,-109.89 178.04,-83.6 188.39,-62.75 192.69,-54.1 198.41,-45.28 203.94,-37.58"/>
<polygon fill="#63b8ff" stroke="#63b8ff" stroke-width="2" points="207.5,-39.34 210.71,-29.24 201.91,-35.13 207.5,-39.34"/>
</a>
</g>
</g>
<!-- Node3&#45;&gt;Node4 -->
<g id="edge3_Node000003_Node000004" class="edge">
<title>Node3&#45;&gt;Node4</title>
<g id="a_edge3_Node000003_Node000004"><a xlink:title=" ">
<path fill="none" stroke="#63b8ff" stroke-width="2" d="M222.39,-62.54C222.39,-55.94 222.39,-47.61 222.39,-39.75"/>
<polygon fill="#63b8ff" stroke="#63b8ff" stroke-width="2" points="225.89,-39.95 222.39,-29.95 218.89,-39.95 225.89,-39.95"/>
</a>
</g>
</g>
<!-- Node5&#45;&gt;Node2 -->
<g id="edge9_Node000005_Node000002" class="edge">
<title>Node5&#45;&gt;Node2</title>
<g id="a_edge9_Node000005_Node000002"><a xlink:title=" ">
<path fill="none" stroke="#63b8ff" stroke-width="2" d="M271.09,-187.89C251.74,-179.18 225.81,-167.51 204.36,-157.86"/>
<polygon fill="#63b8ff" stroke="#63b8ff" stroke-width="2" points="205.21,-154.51 194.65,-153.59 202.34,-160.89 205.21,-154.51"/>
</a>
</g>
</g>
<!-- Node5&#45;&gt;Node4 -->
<g id="edge10_Node000005_Node000004" class="edge">
<title>Node5&#45;&gt;Node4</title>
<g id="a_edge10_Node000005_Node000004"><a xlink:title=" ">
<path fill="none" stroke="#63b8ff" stroke-width="2" d="M305.86,-187.99C312.71,-172.95 321.7,-147.14 315.39,-125.5 304.47,-88.05 272.66,-55.2 249.27,-35.12"/>
<polygon fill="#63b8ff" stroke="#63b8ff" stroke-width="2" points="251.48,-31.74 241.54,-28.06 247.01,-37.14 251.48,-31.74"/>
</a>
</g>
</g>
<!-- Node6 -->
<g id="Node000006" class="node">
<title>Node6</title>
<g id="a_Node000006"><a xlink:href="../../db/d42/car_8h.html" target="_top" xlink:title="Interface for Car structure.">
<polygon fill="white" stroke="#666666" points="306.02,-152.25 254.77,-152.25 254.77,-125.5 306.02,-125.5 306.02,-152.25"/>
<text text-anchor="middle" x="280.39" y="-133.05" font-family="Helvetica,sans-Serif" font-size="16.00">car.h</text>
</a>
</g>
</g>
<!-- Node5&#45;&gt;Node6 -->
<g id="edge6_Node000005_Node000006" class="edge">
<title>Node5&#45;&gt;Node6</title>
<g id="a_edge6_Node000005_Node000006"><a xlink:title=" ">
<path fill="none" stroke="#63b8ff" stroke-width="2" d="M295.45,-188.04C293.34,-181.28 290.66,-172.7 288.14,-164.67"/>
<polygon fill="#63b8ff" stroke="#63b8ff" stroke-width="2" points="290.65,-162.95 284.32,-154.45 283.97,-165.04 290.65,-162.95"/>
</a>
</g>
</g>
<!-- Node6&#45;&gt;Node3 -->
<g id="edge7_Node000006_Node000003" class="edge">
<title>Node6&#45;&gt;Node3</title>
<g id="a_edge7_Node000006_Node000003"><a xlink:title=" ">
<path fill="none" stroke="#63b8ff" stroke-width="2" d="M268.37,-125.29C261.14,-117.71 251.73,-107.86 243.31,-99.04"/>
<polygon fill="#63b8ff" stroke="#63b8ff" stroke-width="2" points="245.83,-96.51 236.39,-91.7 240.77,-101.35 245.83,-96.51"/>
</a>
</g>
</g>
<!-- Node6&#45;&gt;Node4 -->
<g id="edge8_Node000006_Node000004" class="edge">
<title>Node6&#45;&gt;Node4</title>
<g id="a_edge8_Node000006_Node000004"><a xlink:title=" ">
<path fill="none" stroke="#63b8ff" stroke-width="2" d="M277.59,-125.19C273.93,-109.89 266.74,-83.6 256.39,-62.75 252.1,-54.1 246.37,-45.28 240.84,-37.58"/>
<polygon fill="#63b8ff" stroke="#63b8ff" stroke-width="2" points="242.88,-35.13 234.07,-29.24 237.28,-39.34 242.88,-35.13"/>
</a>
</g>
</g>
<!-- Node7&#45;&gt;Node3 -->
<g id="edge13_Node000007_Node000003" class="edge">
<title>Node7&#45;&gt;Node3</title>
<g id="a_edge13_Node000007_Node000003"><a xlink:title=" ">
<path fill="none" stroke="#63b8ff" stroke-width="2" d="M102.43,-188.01C103.12,-171.81 106.56,-143.61 121.39,-125.5 137.48,-105.85 163.44,-93.65 185.02,-86.43"/>
<polygon fill="#63b8ff" stroke="#63b8ff" stroke-width="2" points="186.89,-88.9 195.43,-82.64 184.85,-82.21 186.89,-88.9"/>
</a>
</g>
</g>
<!-- Node8 -->
<g id="Node000008" class="node">
<title>Node8</title>
<g id="a_Node000008"><a xlink:title=" ">
<polygon fill="#e0e0e0" stroke="#999999" points="74.27,-152.25 12.52,-152.25 12.52,-125.5 74.27,-125.5 74.27,-152.25"/>
<text text-anchor="middle" x="43.39" y="-133.05" font-family="Helvetica,sans-Serif" font-size="16.00">form.h</text>
</a>
</g>
</g>
<!-- Node7&#45;&gt;Node8 -->
<g id="edge14_Node000007_Node000008" class="edge">
<title>Node7&#45;&gt;Node8</title>
<g id="a_edge14_Node000007_Node000008"><a xlink:title=" ">
<path fill="none" stroke="#63b8ff" stroke-width="2" d="M90.17,-188.04C82.73,-180.38 73.03,-170.4 64.4,-161.5"/>
<polygon fill="#63b8ff" stroke="#63b8ff" stroke-width="2" points="67.08,-159.18 57.6,-154.45 62.06,-164.06 67.08,-159.18"/>
</a>
</g>
</g>
</g>
</svg>

<g id="navigator" transform="translate(0 0)" fill="#404254">
  <rect fill="#f2f5e9" fill-opacity="0.5" stroke="#606060" stroke-width=".5" x="0" y="0" width="60" height="60"/>
  <use id="zoomplus" xlink:href="#zoomPlus" x="17" y="9" onmousedown="handleZoom(evt,'in')"/>
  <use id="zoomminus" xlink:href="#zoomMin" x="42" y="9" onmousedown="handleZoom(evt,'out')"/>
  <use id="reset" xlink:href="#resetDef" x="30" y="36" onmousedown="handleReset()"/>
   <use id="arrowup" xlink:href="#arrowUp" x="0" y="0" onmousedown="handlePan(0,-1)"/>
  <use id="arrowright" xlink:href="#arrowRight" x="0" y="0" onmousedown="handlePan(1,0)"/>
  <use id="arrowdown" xlink:href="#arrowDown" x="0" y="0" onmousedown="handlePan(0,1)"/>
  <use id="arrowleft" xlink:href="#arrowLeft" x="0" y="0" onmousedown="handlePan(-1,0)"/>
</g>
<svg viewBox="0 0 15 15" width="100%" height="30px" preserveAspectRatio="xMaxYMin meet">
 <g id="arrow_out" transform="scale(0.3 0.3)">
  <a xlink:href="client_8c__incl_org.svg" target="_base">
   <rect id="button" ry="5" rx="5" y="6" x="6" height="38" width="38"
        fill="#f2f5e9" fill-opacity="0.5" stroke="#606060" stroke-width="1.0"/>
   <path id="arrow"
     d="M 11.500037,31.436501 C 11.940474,20.09759 22.043105,11.32322 32.158766,21.979434 L 37.068811,17.246167 C 37.068811,17.246167 37.088388,32 37.088388,32 L 22.160133,31.978069 C 22.160133,31.978069 26.997745,27.140456 26.997745,27.140456 C 18.528582,18.264221 13.291696,25.230495 11.500037,31.436501 z"
     style="fill:#404040;"/>
  </a>
 </g>
</svg>

<style type='text/css'>
<![CDATA[
[data-mouse-over-selected='false'] { opacity: 0.7; }
[data-mouse-over-selected='true']  { opacity: 1.0; }
]]>
</style>
<script type="application/ecmascript"><![CDATA[
document.addEventListener('DOMContentLoaded', (event) => {
  highlightEdges();
  highlightAdjacentNodes();
});
]]></script>
</svg>
