<?xml version="1.0" encoding="UTF-8" standalone="no"?>
<!DOCTYPE svg PUBLIC "-//W3C//DTD SVG 1.1//EN"
 "http://www.w3.org/Graphics/SVG/1.1/DTD/svg11.dtd">
<!-- Generated by graphviz version 8.0.5 (0)
 -->
<!-- Title: clientIsComplete Pages: 1 -->
<svg width="1074pt" height="55pt"
 viewBox="0.00 0.00 1073.75 54.75" xmlns="http://www.w3.org/2000/svg" xmlns:xlink="http://www.w3.org/1999/xlink">
<g id="graph0" class="graph" transform="scale(1 1) rotate(0) translate(4 50.75)">
<title>clientIsComplete</title>
<!-- Node1 -->
<g id="Node000001" class="node">
<title>Node1</title>
<g id="a_Node000001"><a xlink:title="Checks if every field despite Client::m_ID in Client is set.">
<polygon fill="#999999" stroke="#666666" points="1065.75,-46.75 929.75,-46.75 929.75,-20 1065.75,-20 1065.75,-46.75"/>
<text text-anchor="middle" x="997.75" y="-27.55" font-family="Helvetica,sans-Serif" font-size="16.00">clientIsComplete</text>
</a>
</g>
</g>
<!-- Node2 -->
<g id="Node000002" class="node">
<title>Node2</title>
<g id="a_Node000002"><a xlink:href="../../da/de9/clientsmenu_8c.html#a37a5ed3b8a63a9497f34682ce7db3126" target="_top" xlink:title="function for adding client;">
<polygon fill="white" stroke="#666666" points="417.75,-46.75 333.5,-46.75 333.5,-20 417.75,-20 417.75,-46.75"/>
<text text-anchor="middle" x="375.62" y="-27.55" font-family="Helvetica,sans-Serif" font-size="16.00">addClient</text>
</a>
</g>
</g>
<!-- Node1&#45;&gt;Node2 -->
<g id="edge1_Node000001_Node000002" class="edge">
<title>Node1&#45;&gt;Node2</title>
<g id="a_edge1_Node000001_Node000002"><a xlink:title=" ">
<path fill="none" stroke="#63b8ff" stroke-width="2" d="M916.52,-35.08C908.83,-35.2 901.14,-35.3 893.75,-35.38 698.2,-37.27 649.29,-37.91 453.75,-35.38 442.23,-35.23 429.75,-34.95 418.25,-34.65"/>
<polygon fill="#63b8ff" stroke="#63b8ff" stroke-width="2" points="916.49,-38.54 926.44,-34.87 916.38,-31.54 916.49,-38.54"/>
</a>
</g>
</g>
<!-- Node10 -->
<g id="Node000010" class="node">
<title>Node10</title>
<g id="a_Node000010"><a xlink:href="../../d3/df4/dbhandle_8c.html#aa047043390f11acf01f2c50504d8bf77" target="_top" xlink:title="Given client, get string containing SQL query that would add that client to DB.">
<polygon fill="white" stroke="#666666" points="893.75,-26.75 656.5,-26.75 656.5,0 893.75,0 893.75,-26.75"/>
<text text-anchor="middle" x="775.12" y="-7.55" font-family="Helvetica,sans-Serif" font-size="16.00">dbHandleGetClientInsertQuery</text>
</a>
</g>
</g>
<!-- Node1&#45;&gt;Node10 -->
<g id="edge4_Node000001_Node000010" class="edge">
<title>Node1&#45;&gt;Node10</title>
<g id="a_edge4_Node000001_Node000010"><a xlink:title=" ">
<path fill="none" stroke="#63b8ff" stroke-width="2" d="M916.67,-26.12C909.26,-25.44 901.64,-24.75 893.98,-24.06"/>
<polygon fill="#63b8ff" stroke="#63b8ff" stroke-width="2" points="916.08,-29.85 926.36,-27.27 916.71,-22.88 916.08,-29.85"/>
</a>
</g>
</g>
<!-- Node3 -->
<g id="Node000003" class="node">
<title>Node3</title>
<g id="a_Node000003"><a xlink:href="../../da/de9/clientsmenu_8c.html#ad2a8354e045a2d4deb82f4b3b20ad5a4" target="_top" xlink:title="Handles displaying of clients menu.">
<polygon fill="white" stroke="#666666" points="297.5,-46.75 194.5,-46.75 194.5,-20 297.5,-20 297.5,-46.75"/>
<text text-anchor="middle" x="246" y="-27.55" font-family="Helvetica,sans-Serif" font-size="16.00">clientsMenu</text>
</a>
</g>
</g>
<!-- Node2&#45;&gt;Node3 -->
<g id="edge2_Node000002_Node000003" class="edge">
<title>Node2&#45;&gt;Node3</title>
<g id="a_edge2_Node000002_Node000003"><a xlink:title=" ">
<path fill="none" stroke="#63b8ff" stroke-width="2" d="M320.33,-33.38C312.79,-33.38 305.06,-33.38 297.59,-33.38"/>
<polygon fill="#63b8ff" stroke="#63b8ff" stroke-width="2" points="320.19,-36.88 330.19,-33.38 320.19,-29.88 320.19,-36.88"/>
</a>
</g>
</g>
<!-- Node4 -->
<g id="Node000004" class="node">
<title>Node4</title>
<g id="a_Node000004"><a xlink:href="../../de/dc9/mmenu_8c.html#a315bc1f41a79da39147ec73e38cfc9e7" target="_top" xlink:title="Handles main menu.">
<polygon fill="#fff0f0" stroke="red" points="158.5,-46.75 0,-46.75 0,-20 158.5,-20 158.5,-46.75"/>
<text text-anchor="middle" x="79.25" y="-27.55" font-family="Helvetica,sans-Serif" font-size="16.00">mainMenuSelection</text>
</a>
</g>
</g>
<!-- Node3&#45;&gt;Node4 -->
<g id="edge3_Node000003_Node000004" class="edge">
<title>Node3&#45;&gt;Node4</title>
<g id="a_edge3_Node000003_Node000004"><a xlink:title=" ">
<path fill="none" stroke="#63b8ff" stroke-width="2" d="M181.23,-33.38C173.86,-33.38 166.27,-33.38 158.73,-33.38"/>
<polygon fill="#63b8ff" stroke="#63b8ff" stroke-width="2" points="181.23,-36.88 191.23,-33.38 181.23,-29.88 181.23,-36.88"/>
</a>
</g>
</g>
<!-- Node11 -->
<g id="Node000011" class="node">
<title>Node11</title>
<g id="a_Node000011"><a xlink:href="../../d3/df4/dbhandle_8c.html#a10cc2cd742cf382f48c04428af09189f" target="_top" xlink:title="Insert client into db.">
<polygon fill="white" stroke="#666666" points="620.5,-26.75 453.75,-26.75 453.75,0 620.5,0 620.5,-26.75"/>
<text text-anchor="middle" x="537.12" y="-7.55" font-family="Helvetica,sans-Serif" font-size="16.00">dbHandleClientInsert</text>
</a>
</g>
</g>
<!-- Node10&#45;&gt;Node11 -->
<g id="edge5_Node000010_Node000011" class="edge">
<title>Node10&#45;&gt;Node11</title>
<g id="a_edge5_Node000010_Node000011"><a xlink:title=" ">
<path fill="none" stroke="#63b8ff" stroke-width="2" d="M643.35,-13.38C635.79,-13.38 628.29,-13.38 621,-13.38"/>
<polygon fill="#63b8ff" stroke="#63b8ff" stroke-width="2" points="643.13,-16.88 653.12,-13.38 643.12,-9.88 643.13,-16.88"/>
</a>
</g>
</g>
<!-- Node11&#45;&gt;Node2 -->
<g id="edge6_Node000011_Node000002" class="edge">
<title>Node11&#45;&gt;Node2</title>
<g id="a_edge6_Node000011_Node000002"><a xlink:title=" ">
<path fill="none" stroke="#63b8ff" stroke-width="2" d="M440.95,-25.31C433,-26.31 425.27,-27.28 418.07,-28.18"/>
<polygon fill="#63b8ff" stroke="#63b8ff" stroke-width="2" points="441.08,-28.44 450.57,-23.73 440.21,-21.5 441.08,-28.44"/>
</a>
</g>
</g>
</g>
</svg>
