<?xml version="1.0" encoding="UTF-8" standalone="no"?>
<!DOCTYPE svg PUBLIC "-//W3C//DTD SVG 1.1//EN"
 "http://www.w3.org/Graphics/SVG/1.1/DTD/svg11.dtd">
<!-- Generated by graphviz version 8.0.5 (0)
 -->
<!-- Title: dbHandleClientInsert Pages: 1 -->
<svg width="672pt" height="170pt"
 viewBox="0.00 0.00 671.75 169.75" xmlns="http://www.w3.org/2000/svg" xmlns:xlink="http://www.w3.org/1999/xlink">
<g id="graph0" class="graph" transform="scale(1 1) rotate(0) translate(4 165.75)">
<title>dbHandleClientInsert</title>
<!-- Node1 -->
<g id="Node000001" class="node">
<title>Node1</title>
<g id="a_Node000001"><a xlink:title="Insert client into db.">
<polygon fill="#999999" stroke="#666666" points="166.75,-115.75 0,-115.75 0,-89 166.75,-89 166.75,-115.75"/>
<text text-anchor="middle" x="83.38" y="-96.55" font-family="Helvetica,sans-Serif" font-size="16.00">dbHandleClientInsert</text>
</a>
</g>
</g>
<!-- Node2 -->
<g id="Node000002" class="node">
<title>Node2</title>
<g id="a_Node000002"><a xlink:href="../../d3/df4/dbhandle_8c.html#aa047043390f11acf01f2c50504d8bf77" target="_top" xlink:title="Given client, get string containing SQL query that would add that client to DB.">
<polygon fill="white" stroke="#666666" points="440,-149.75 202.75,-149.75 202.75,-123 440,-123 440,-149.75"/>
<text text-anchor="middle" x="321.38" y="-130.55" font-family="Helvetica,sans-Serif" font-size="16.00">dbHandleGetClientInsertQuery</text>
</a>
</g>
</g>
<!-- Node1&#45;&gt;Node2 -->
<g id="edge1_Node000001_Node000002" class="edge">
<title>Node1&#45;&gt;Node2</title>
<g id="a_edge1_Node000001_Node000002"><a xlink:title=" ">
<path fill="none" stroke="#63b8ff" stroke-width="2" d="M167.25,-114.31C181.67,-116.39 196.86,-118.58 211.85,-120.74"/>
<polygon fill="#63b8ff" stroke="#63b8ff" stroke-width="2" points="211.98,-124.58 222.37,-122.54 212.97,-117.65 211.98,-124.58"/>
</a>
</g>
</g>
<!-- Node4 -->
<g id="Node000004" class="node">
<title>Node4</title>
<g id="a_Node000004"><a xlink:href="../../d7/dba/menuutil_8c.html#ae6ed898f3726361b1edde3f8707f0260" target="_top" xlink:title="Displays message box on the screen with title and message.">
<polygon fill="white" stroke="#666666" points="407.38,-93.75 235.38,-93.75 235.38,-67 407.38,-67 407.38,-93.75"/>
<text text-anchor="middle" x="321.38" y="-74.55" font-family="Helvetica,sans-Serif" font-size="16.00">menuUtilMessagebox</text>
</a>
</g>
</g>
<!-- Node1&#45;&gt;Node4 -->
<g id="edge3_Node000001_Node000004" class="edge">
<title>Node1&#45;&gt;Node4</title>
<g id="a_edge3_Node000001_Node000004"><a xlink:title=" ">
<path fill="none" stroke="#63b8ff" stroke-width="2" d="M167.25,-94.65C184.97,-93 203.85,-91.24 222.09,-89.54"/>
<polygon fill="#63b8ff" stroke="#63b8ff" stroke-width="2" points="222.27,-92.76 231.9,-88.34 221.62,-85.79 222.27,-92.76"/>
</a>
</g>
</g>
<!-- Node3 -->
<g id="Node000003" class="node">
<title>Node3</title>
<g id="a_Node000003"><a xlink:href="../../dd/d93/client_8c.html#a673f8913ce042048c6a8d7e77434dc18" target="_top" xlink:title="Checks if every field despite Client::m_ID in Client is set.">
<polygon fill="white" stroke="#666666" points="637.88,-161.75 501.88,-161.75 501.88,-135 637.88,-135 637.88,-161.75"/>
<text text-anchor="middle" x="569.88" y="-142.55" font-family="Helvetica,sans-Serif" font-size="16.00">clientIsComplete</text>
</a>
</g>
</g>
<!-- Node2&#45;&gt;Node3 -->
<g id="edge2_Node000002_Node000003" class="edge">
<title>Node2&#45;&gt;Node3</title>
<g id="a_edge2_Node000002_Node000003"><a xlink:title=" ">
<path fill="none" stroke="#63b8ff" stroke-width="2" d="M440.21,-142.11C456.65,-142.91 473.22,-143.72 488.74,-144.47"/>
<polygon fill="#63b8ff" stroke="#63b8ff" stroke-width="2" points="488.35,-148.11 498.51,-145.1 488.69,-141.11 488.35,-148.11"/>
</a>
</g>
</g>
<!-- Node5 -->
<g id="Node000005" class="node">
<title>Node5</title>
<g id="a_Node000005"><a xlink:href="../../d7/dba/menuutil_8c.html#ac6b71fcc47a9cdec8ac08b98e754239c" target="_top" xlink:title="Get length of longest string in array of strings.">
<polygon fill="white" stroke="#666666" points="663.75,-116.75 476,-116.75 476,-90 663.75,-90 663.75,-116.75"/>
<text text-anchor="middle" x="569.88" y="-97.55" font-family="Helvetica,sans-Serif" font-size="16.00">getLongestStringLength</text>
</a>
</g>
</g>
<!-- Node4&#45;&gt;Node5 -->
<g id="edge4_Node000004_Node000005" class="edge">
<title>Node4&#45;&gt;Node5</title>
<g id="a_edge4_Node000004_Node000005"><a xlink:title=" ">
<path fill="none" stroke="#63b8ff" stroke-width="2" d="M407.55,-88.32C425.42,-89.99 444.46,-91.77 462.98,-93.49"/>
<polygon fill="#63b8ff" stroke="#63b8ff" stroke-width="2" points="462.41,-97.24 472.69,-94.68 463.06,-90.27 462.41,-97.24"/>
</a>
</g>
</g>
<!-- Node6 -->
<g id="Node000006" class="node">
<title>Node6</title>
<g id="a_Node000006"><a xlink:href="../../d7/dba/menuutil_8c.html#a9941ed217da0309cd9453bdb776d5c51" target="_top" xlink:title="Add basic functionality to the shitty language which C is.">
<polygon fill="white" stroke="#666666" points="593.25,-71.75 546.5,-71.75 546.5,-45 593.25,-45 593.25,-71.75"/>
<text text-anchor="middle" x="569.88" y="-52.55" font-family="Helvetica,sans-Serif" font-size="16.00">max</text>
</a>
</g>
</g>
<!-- Node4&#45;&gt;Node6 -->
<g id="edge5_Node000004_Node000006" class="edge">
<title>Node4&#45;&gt;Node6</title>
<g id="a_edge5_Node000004_Node000006"><a xlink:title=" ">
<path fill="none" stroke="#63b8ff" stroke-width="2" d="M407.55,-72.77C450.53,-68.94 500.37,-64.49 533.14,-61.56"/>
<polygon fill="#63b8ff" stroke="#63b8ff" stroke-width="2" points="533.43,-64.78 543.08,-60.41 532.8,-57.81 533.43,-64.78"/>
</a>
</g>
</g>
<!-- Node7 -->
<g id="Node000007" class="node">
<title>Node7</title>
<g id="a_Node000007"><a xlink:href="../../d7/dba/menuutil_8c.html#a14ca6bd9893f550a2051ca6cd5a689ac" target="_top" xlink:title="Print boarders of window.">
<polygon fill="white" stroke="#666666" points="654.75,-26.75 485,-26.75 485,0 654.75,0 654.75,-26.75"/>
<text text-anchor="middle" x="569.88" y="-7.55" font-family="Helvetica,sans-Serif" font-size="16.00">printWindowBoarders</text>
</a>
</g>
</g>
<!-- Node4&#45;&gt;Node7 -->
<g id="edge6_Node000004_Node000007" class="edge">
<title>Node4&#45;&gt;Node7</title>
<g id="a_edge6_Node000004_Node000007"><a xlink:title=" ">
<path fill="none" stroke="#63b8ff" stroke-width="2" d="M368.98,-66.55C399.37,-57.66 439.95,-46 476,-36.38 483.58,-34.35 491.53,-32.29 499.45,-30.28"/>
<polygon fill="#63b8ff" stroke="#63b8ff" stroke-width="2" points="500.97,-33 509.82,-27.16 499.26,-26.21 500.97,-33"/>
</a>
</g>
</g>
</g>
</svg>
