<?xml version="1.0" encoding="UTF-8" standalone="no"?>
<!DOCTYPE svg PUBLIC "-//W3C//DTD SVG 1.1//EN"
 "http://www.w3.org/Graphics/SVG/1.1/DTD/svg11.dtd">
<!-- Generated by graphviz version 8.0.5 (0)
 -->
<!-- Title: dbHandleCarInsert Pages: 1 -->
<svg width="640pt" height="170pt"
 viewBox="0.00 0.00 640.25 169.75" xmlns="http://www.w3.org/2000/svg" xmlns:xlink="http://www.w3.org/1999/xlink">
<g id="graph0" class="graph" transform="scale(1 1) rotate(0) translate(4 165.75)">
<title>dbHandleCarInsert</title>
<!-- Node1 -->
<g id="Node000001" class="node">
<title>Node1</title>
<g id="a_Node000001"><a xlink:title="Insert a car into the database.">
<polygon fill="#999999" stroke="#666666" points="151,-115.75 0,-115.75 0,-89 151,-89 151,-115.75"/>
<text text-anchor="middle" x="75.5" y="-96.55" font-family="Helvetica,sans-Serif" font-size="16.00">dbHandleCarInsert</text>
</a>
</g>
</g>
<!-- Node2 -->
<g id="Node000002" class="node">
<title>Node2</title>
<g id="a_Node000002"><a xlink:href="../../d3/df4/dbhandle_8c.html#a2c254ca698cb291dd9b3b8e8c26f9e00" target="_top" xlink:title="Given car, get string containing SQL query that would add that car to DB.">
<polygon fill="white" stroke="#666666" points="408.5,-149.75 187,-149.75 187,-123 408.5,-123 408.5,-149.75"/>
<text text-anchor="middle" x="297.75" y="-130.55" font-family="Helvetica,sans-Serif" font-size="16.00">dbHandleGetCarInsertQuery</text>
</a>
</g>
</g>
<!-- Node1&#45;&gt;Node2 -->
<g id="edge1_Node000001_Node000002" class="edge">
<title>Node1&#45;&gt;Node2</title>
<g id="a_edge1_Node000001_Node000002"><a xlink:title=" ">
<path fill="none" stroke="#63b8ff" stroke-width="2" d="M151.37,-113.93C165.26,-116.08 179.99,-118.35 194.53,-120.6"/>
<polygon fill="#63b8ff" stroke="#63b8ff" stroke-width="2" points="194.82,-124.49 205.24,-122.56 195.89,-117.57 194.82,-124.49"/>
</a>
</g>
</g>
<!-- Node4 -->
<g id="Node000004" class="node">
<title>Node4</title>
<g id="a_Node000004"><a xlink:href="../../d7/dba/menuutil_8c.html#ae6ed898f3726361b1edde3f8707f0260" target="_top" xlink:title="Displays message box on the screen with title and message.">
<polygon fill="white" stroke="#666666" points="383.75,-93.75 211.75,-93.75 211.75,-67 383.75,-67 383.75,-93.75"/>
<text text-anchor="middle" x="297.75" y="-74.55" font-family="Helvetica,sans-Serif" font-size="16.00">menuUtilMessagebox</text>
</a>
</g>
</g>
<!-- Node1&#45;&gt;Node4 -->
<g id="edge3_Node000001_Node000004" class="edge">
<title>Node1&#45;&gt;Node4</title>
<g id="a_edge3_Node000001_Node000004"><a xlink:title=" ">
<path fill="none" stroke="#63b8ff" stroke-width="2" d="M151.37,-94.9C166.63,-93.37 182.89,-91.75 198.8,-90.16"/>
<polygon fill="#63b8ff" stroke="#63b8ff" stroke-width="2" points="198.87,-93.37 208.47,-88.89 198.17,-86.4 198.87,-93.37"/>
</a>
</g>
</g>
<!-- Node3 -->
<g id="Node000003" class="node">
<title>Node3</title>
<g id="a_Node000003"><a xlink:href="../../d5/df2/car_8c.html#a47a583e551002d7fc00d05227eba5855" target="_top" xlink:title="Checks if every field in Car is set.">
<polygon fill="white" stroke="#666666" points="598.5,-161.75 478.25,-161.75 478.25,-135 598.5,-135 598.5,-161.75"/>
<text text-anchor="middle" x="538.38" y="-142.55" font-family="Helvetica,sans-Serif" font-size="16.00">carIsComplete</text>
</a>
</g>
</g>
<!-- Node2&#45;&gt;Node3 -->
<g id="edge2_Node000002_Node000003" class="edge">
<title>Node2&#45;&gt;Node3</title>
<g id="a_edge2_Node000002_Node000003"><a xlink:title=" ">
<path fill="none" stroke="#63b8ff" stroke-width="2" d="M408.98,-141.92C428.05,-142.88 447.43,-143.85 465.16,-144.74"/>
<polygon fill="#63b8ff" stroke="#63b8ff" stroke-width="2" points="464.89,-148.39 475.05,-145.39 465.24,-141.39 464.89,-148.39"/>
</a>
</g>
</g>
<!-- Node5 -->
<g id="Node000005" class="node">
<title>Node5</title>
<g id="a_Node000005"><a xlink:href="../../d7/dba/menuutil_8c.html#ac6b71fcc47a9cdec8ac08b98e754239c" target="_top" xlink:title="Get length of longest string in array of strings.">
<polygon fill="white" stroke="#666666" points="632.25,-116.75 444.5,-116.75 444.5,-90 632.25,-90 632.25,-116.75"/>
<text text-anchor="middle" x="538.38" y="-97.55" font-family="Helvetica,sans-Serif" font-size="16.00">getLongestStringLength</text>
</a>
</g>
</g>
<!-- Node4&#45;&gt;Node5 -->
<g id="edge4_Node000004_Node000005" class="edge">
<title>Node4&#45;&gt;Node5</title>
<g id="a_edge4_Node000004_Node000005"><a xlink:title=" ">
<path fill="none" stroke="#63b8ff" stroke-width="2" d="M384.23,-88.61C399.53,-90.09 415.64,-91.64 431.43,-93.16"/>
<polygon fill="#63b8ff" stroke="#63b8ff" stroke-width="2" points="430.72,-96.9 441.01,-94.38 431.39,-89.93 430.72,-96.9"/>
</a>
</g>
</g>
<!-- Node6 -->
<g id="Node000006" class="node">
<title>Node6</title>
<g id="a_Node000006"><a xlink:href="../../d7/dba/menuutil_8c.html#a9941ed217da0309cd9453bdb776d5c51" target="_top" xlink:title="Add basic functionality to the shitty language which C is.">
<polygon fill="white" stroke="#666666" points="561.75,-71.75 515,-71.75 515,-45 561.75,-45 561.75,-71.75"/>
<text text-anchor="middle" x="538.38" y="-52.55" font-family="Helvetica,sans-Serif" font-size="16.00">max</text>
</a>
</g>
</g>
<!-- Node4&#45;&gt;Node6 -->
<g id="edge5_Node000004_Node000006" class="edge">
<title>Node4&#45;&gt;Node6</title>
<g id="a_edge5_Node000004_Node000006"><a xlink:title=" ">
<path fill="none" stroke="#63b8ff" stroke-width="2" d="M384.23,-72.49C424.76,-68.76 470.99,-64.5 501.95,-61.64"/>
<polygon fill="#63b8ff" stroke="#63b8ff" stroke-width="2" points="501.99,-64.88 511.63,-60.47 501.35,-57.91 501.99,-64.88"/>
</a>
</g>
</g>
<!-- Node7 -->
<g id="Node000007" class="node">
<title>Node7</title>
<g id="a_Node000007"><a xlink:href="../../d7/dba/menuutil_8c.html#a14ca6bd9893f550a2051ca6cd5a689ac" target="_top" xlink:title="Print boarders of window.">
<polygon fill="white" stroke="#666666" points="623.25,-26.75 453.5,-26.75 453.5,0 623.25,0 623.25,-26.75"/>
<text text-anchor="middle" x="538.38" y="-7.55" font-family="Helvetica,sans-Serif" font-size="16.00">printWindowBoarders</text>
</a>
</g>
</g>
<!-- Node4&#45;&gt;Node7 -->
<g id="edge6_Node000004_Node000007" class="edge">
<title>Node4&#45;&gt;Node7</title>
<g id="a_edge6_Node000004_Node000007"><a xlink:title=" ">
<path fill="none" stroke="#63b8ff" stroke-width="2" d="M342.59,-66.51C371.44,-57.54 410.09,-45.82 444.5,-36.38 451.87,-34.35 459.6,-32.31 467.31,-30.32"/>
<polygon fill="#63b8ff" stroke="#63b8ff" stroke-width="2" points="468.96,-33.01 477.79,-27.16 467.23,-26.23 468.96,-33.01"/>
</a>
</g>
</g>
</g>
</svg>
