<?xml version="1.0" encoding="UTF-8" standalone="no"?>
<!DOCTYPE svg PUBLIC "-//W3C//DTD SVG 1.1//EN"
 "http://www.w3.org/Graphics/SVG/1.1/DTD/svg11.dtd">
<!-- Generated by graphviz version 8.0.5 (0)
 -->
<!-- Title: dbHandleGetCarInsertQuery Pages: 1 -->
<svg width="644pt" height="35pt"
 viewBox="0.00 0.00 644.25 34.75" xmlns="http://www.w3.org/2000/svg" xmlns:xlink="http://www.w3.org/1999/xlink">
<g id="graph0" class="graph" transform="scale(1 1) rotate(0) translate(4 30.75)">
<title>dbHandleGetCarInsertQuery</title>
<!-- Node1 -->
<g id="Node000001" class="node">
<title>Node1</title>
<g id="a_Node000001"><a xlink:title="Given car, get string containing SQL query that would add that car to DB.">
<polygon fill="#999999" stroke="#666666" points="636.25,-26.75 414.75,-26.75 414.75,0 636.25,0 636.25,-26.75"/>
<text text-anchor="middle" x="525.5" y="-7.55" font-family="Helvetica,sans-Serif" font-size="16.00">dbHandleGetCarInsertQuery</text>
</a>
</g>
</g>
<!-- Node2 -->
<g id="Node000002" class="node">
<title>Node2</title>
<g id="a_Node000002"><a xlink:href="../../d3/df4/dbhandle_8c.html#ae62043f5776328dcdc74dc9f29c4e2c6" target="_top" xlink:title="Insert a car into the database.">
<polygon fill="white" stroke="#666666" points="378.75,-26.75 227.75,-26.75 227.75,0 378.75,0 378.75,-26.75"/>
<text text-anchor="middle" x="303.25" y="-7.55" font-family="Helvetica,sans-Serif" font-size="16.00">dbHandleCarInsert</text>
</a>
</g>
</g>
<!-- Node1&#45;&gt;Node2 -->
<g id="edge1_Node000001_Node000002" class="edge">
<title>Node1&#45;&gt;Node2</title>
<g id="a_edge1_Node000001_Node000002"><a xlink:title=" ">
<path fill="none" stroke="#63b8ff" stroke-width="2" d="M401.53,-13.38C393.93,-13.38 386.41,-13.38 379.12,-13.38"/>
<polygon fill="#63b8ff" stroke="#63b8ff" stroke-width="2" points="401.38,-16.88 411.38,-13.38 401.37,-9.88 401.38,-16.88"/>
</a>
</g>
</g>
<!-- Node3 -->
<g id="Node000003" class="node">
<title>Node3</title>
<g id="a_Node000003"><a xlink:href="../../dc/dc6/carsmenu_8c.html#a920be2aa6ca8626fdd965865d26f3fd4" target="_top" xlink:title="Function for adding a car.">
<polygon fill="white" stroke="#666666" points="191.75,-26.75 123.25,-26.75 123.25,0 191.75,0 191.75,-26.75"/>
<text text-anchor="middle" x="157.5" y="-7.55" font-family="Helvetica,sans-Serif" font-size="16.00">addCar</text>
</a>
</g>
</g>
<!-- Node2&#45;&gt;Node3 -->
<g id="edge2_Node000002_Node000003" class="edge">
<title>Node2&#45;&gt;Node3</title>
<g id="a_edge2_Node000002_Node000003"><a xlink:title=" ">
<path fill="none" stroke="#63b8ff" stroke-width="2" d="M214.44,-13.38C206.56,-13.38 198.95,-13.38 192.02,-13.38"/>
<polygon fill="#63b8ff" stroke="#63b8ff" stroke-width="2" points="214.43,-16.88 224.43,-13.38 214.43,-9.88 214.43,-16.88"/>
</a>
</g>
</g>
<!-- Node4 -->
<g id="Node000004" class="node">
<title>Node4</title>
<g id="a_Node000004"><a xlink:href="../../dc/dc6/carsmenu_8c.html#a7adcbb9b8798811ec24e33760623ebc0" target="_top" xlink:title="Handles displaying of cars menu.">
<polygon fill="#fff0f0" stroke="red" points="87.25,-26.75 0,-26.75 0,0 87.25,0 87.25,-26.75"/>
<text text-anchor="middle" x="43.62" y="-7.55" font-family="Helvetica,sans-Serif" font-size="16.00">carsMenu</text>
</a>
</g>
</g>
<!-- Node3&#45;&gt;Node4 -->
<g id="edge3_Node000003_Node000004" class="edge">
<title>Node3&#45;&gt;Node4</title>
<g id="a_edge3_Node000003_Node000004"><a xlink:title=" ">
<path fill="none" stroke="#63b8ff" stroke-width="2" d="M110,-13.38C102.62,-13.38 95.01,-13.38 87.71,-13.38"/>
<polygon fill="#63b8ff" stroke="#63b8ff" stroke-width="2" points="109.93,-16.88 119.93,-13.38 109.93,-9.88 109.93,-16.88"/>
</a>
</g>
</g>
</g>
</svg>
