<?xml version="1.0" encoding="UTF-8" standalone="no"?>
<!DOCTYPE svg PUBLIC "-//W3C//DTD SVG 1.1//EN"
 "http://www.w3.org/Graphics/SVG/1.1/DTD/svg11.dtd">
<!-- Generated by graphviz version 8.0.5 (0)
 -->
<!-- Title: dbHandleGetClientInsertQuery Pages: 1 -->
<svg width="707pt" height="35pt"
 viewBox="0.00 0.00 707.25 34.75" xmlns="http://www.w3.org/2000/svg" xmlns:xlink="http://www.w3.org/1999/xlink">
<g id="graph0" class="graph" transform="scale(1 1) rotate(0) translate(4 30.75)">
<title>dbHandleGetClientInsertQuery</title>
<!-- Node1 -->
<g id="Node000001" class="node">
<title>Node1</title>
<g id="a_Node000001"><a xlink:title="Given client, get string containing SQL query that would add that client to DB.">
<polygon fill="#999999" stroke="#666666" points="699.25,-26.75 462,-26.75 462,0 699.25,0 699.25,-26.75"/>
<text text-anchor="middle" x="580.62" y="-7.55" font-family="Helvetica,sans-Serif" font-size="16.00">dbHandleGetClientInsertQuery</text>
</a>
</g>
</g>
<!-- Node2 -->
<g id="Node000002" class="node">
<title>Node2</title>
<g id="a_Node000002"><a xlink:href="../../d3/df4/dbhandle_8c.html#a10cc2cd742cf382f48c04428af09189f" target="_top" xlink:title="Insert client into db.">
<polygon fill="white" stroke="#666666" points="426,-26.75 259.25,-26.75 259.25,0 426,0 426,-26.75"/>
<text text-anchor="middle" x="342.62" y="-7.55" font-family="Helvetica,sans-Serif" font-size="16.00">dbHandleClientInsert</text>
</a>
</g>
</g>
<!-- Node1&#45;&gt;Node2 -->
<g id="edge1_Node000001_Node000002" class="edge">
<title>Node1&#45;&gt;Node2</title>
<g id="a_edge1_Node000001_Node000002"><a xlink:title=" ">
<path fill="none" stroke="#63b8ff" stroke-width="2" d="M448.85,-13.38C441.29,-13.38 433.79,-13.38 426.5,-13.38"/>
<polygon fill="#63b8ff" stroke="#63b8ff" stroke-width="2" points="448.63,-16.88 458.62,-13.38 448.62,-9.88 448.63,-16.88"/>
</a>
</g>
</g>
<!-- Node3 -->
<g id="Node000003" class="node">
<title>Node3</title>
<g id="a_Node000003"><a xlink:href="../../da/de9/clientsmenu_8c.html#a37a5ed3b8a63a9497f34682ce7db3126" target="_top" xlink:title="function for adding client;">
<polygon fill="white" stroke="#666666" points="223.25,-26.75 139,-26.75 139,0 223.25,0 223.25,-26.75"/>
<text text-anchor="middle" x="181.12" y="-7.55" font-family="Helvetica,sans-Serif" font-size="16.00">addClient</text>
</a>
</g>
</g>
<!-- Node2&#45;&gt;Node3 -->
<g id="edge2_Node000002_Node000003" class="edge">
<title>Node2&#45;&gt;Node3</title>
<g id="a_edge2_Node000002_Node000003"><a xlink:title=" ">
<path fill="none" stroke="#63b8ff" stroke-width="2" d="M246.17,-13.38C238.32,-13.38 230.68,-13.38 223.57,-13.38"/>
<polygon fill="#63b8ff" stroke="#63b8ff" stroke-width="2" points="246.07,-16.88 256.07,-13.38 246.07,-9.88 246.07,-16.88"/>
</a>
</g>
</g>
<!-- Node4 -->
<g id="Node000004" class="node">
<title>Node4</title>
<g id="a_Node000004"><a xlink:href="../../da/de9/clientsmenu_8c.html#ad2a8354e045a2d4deb82f4b3b20ad5a4" target="_top" xlink:title="Handles displaying of clients menu.">
<polygon fill="#fff0f0" stroke="red" points="103,-26.75 0,-26.75 0,0 103,0 103,-26.75"/>
<text text-anchor="middle" x="51.5" y="-7.55" font-family="Helvetica,sans-Serif" font-size="16.00">clientsMenu</text>
</a>
</g>
</g>
<!-- Node3&#45;&gt;Node4 -->
<g id="edge3_Node000003_Node000004" class="edge">
<title>Node3&#45;&gt;Node4</title>
<g id="a_edge3_Node000003_Node000004"><a xlink:title=" ">
<path fill="none" stroke="#63b8ff" stroke-width="2" d="M125.83,-13.38C118.29,-13.38 110.56,-13.38 103.09,-13.38"/>
<polygon fill="#63b8ff" stroke="#63b8ff" stroke-width="2" points="125.69,-16.88 135.69,-13.38 125.69,-9.88 125.69,-16.88"/>
</a>
</g>
</g>
</g>
</svg>
