<?xml version="1.0" encoding="UTF-8" standalone="no"?>
<!DOCTYPE svg PUBLIC "-//W3C//DTD SVG 1.1//EN"
 "http://www.w3.org/Graphics/SVG/1.1/DTD/svg11.dtd">
<!-- Generated by graphviz version 8.0.5 (0)
 -->
<!-- Title: dbHandleCarUpdate Pages: 1 -->
<svg width="590pt" height="35pt"
 viewBox="0.00 0.00 590.25 34.75" xmlns="http://www.w3.org/2000/svg" xmlns:xlink="http://www.w3.org/1999/xlink">
<g id="graph0" class="graph" transform="scale(1 1) rotate(0) translate(4 30.75)">
<title>dbHandleCarUpdate</title>
<!-- Node1 -->
<g id="Node000001" class="node">
<title>Node1</title>
<g id="a_Node000001"><a xlink:title="Update a car in the database.">
<polygon fill="#999999" stroke="#666666" points="582.25,-26.75 420,-26.75 420,0 582.25,0 582.25,-26.75"/>
<text text-anchor="middle" x="501.12" y="-7.55" font-family="Helvetica,sans-Serif" font-size="16.00">dbHandleCarUpdate</text>
</a>
</g>
</g>
<!-- Node2 -->
<g id="Node000002" class="node">
<title>Node2</title>
<g id="a_Node000002"><a xlink:href="../../dc/dc6/carsmenu_8c.html#acf8ae724beca8714d7d114a7f2539895" target="_top" xlink:title="Edit car.">
<polygon fill="white" stroke="#666666" points="384,-26.75 317.75,-26.75 317.75,0 384,0 384,-26.75"/>
<text text-anchor="middle" x="350.88" y="-7.55" font-family="Helvetica,sans-Serif" font-size="16.00">carEdit</text>
</a>
</g>
</g>
<!-- Node1&#45;&gt;Node2 -->
<g id="edge1_Node000001_Node000002" class="edge">
<title>Node1&#45;&gt;Node2</title>
<g id="a_edge1_Node000001_Node000002"><a xlink:title=" ">
<path fill="none" stroke="#63b8ff" stroke-width="2" d="M407.12,-13.38C399.1,-13.38 391.4,-13.38 384.42,-13.38"/>
<polygon fill="#63b8ff" stroke="#63b8ff" stroke-width="2" points="406.93,-16.88 416.93,-13.38 406.93,-9.88 406.93,-16.88"/>
</a>
</g>
</g>
<!-- Node3 -->
<g id="Node000003" class="node">
<title>Node3</title>
<g id="a_Node000003"><a xlink:href="../../dc/dc6/carsmenu_8c.html#a7adcbb9b8798811ec24e33760623ebc0" target="_top" xlink:title="Handles displaying of cars menu.">
<polygon fill="white" stroke="#666666" points="281.75,-26.75 194.5,-26.75 194.5,0 281.75,0 281.75,-26.75"/>
<text text-anchor="middle" x="238.12" y="-7.55" font-family="Helvetica,sans-Serif" font-size="16.00">carsMenu</text>
</a>
</g>
</g>
<!-- Node2&#45;&gt;Node3 -->
<g id="edge2_Node000002_Node000003" class="edge">
<title>Node2&#45;&gt;Node3</title>
<g id="a_edge2_Node000002_Node000003"><a xlink:title=" ">
<path fill="none" stroke="#63b8ff" stroke-width="2" d="M304.81,-13.38C297.28,-13.38 289.48,-13.38 282,-13.38"/>
<polygon fill="#63b8ff" stroke="#63b8ff" stroke-width="2" points="304.54,-16.88 314.54,-13.38 304.54,-9.88 304.54,-16.88"/>
</a>
</g>
</g>
<!-- Node4 -->
<g id="Node000004" class="node">
<title>Node4</title>
<g id="a_Node000004"><a xlink:href="../../de/dc9/mmenu_8c.html#a315bc1f41a79da39147ec73e38cfc9e7" target="_top" xlink:title="Handles main menu.">
<polygon fill="#fff0f0" stroke="red" points="158.5,-26.75 0,-26.75 0,0 158.5,0 158.5,-26.75"/>
<text text-anchor="middle" x="79.25" y="-7.55" font-family="Helvetica,sans-Serif" font-size="16.00">mainMenuSelection</text>
</a>
</g>
</g>
<!-- Node3&#45;&gt;Node4 -->
<g id="edge3_Node000003_Node000004" class="edge">
<title>Node3&#45;&gt;Node4</title>
<g id="a_edge3_Node000003_Node000004"><a xlink:title=" ">
<path fill="none" stroke="#63b8ff" stroke-width="2" d="M181.47,-13.38C174.16,-13.38 166.56,-13.38 158.96,-13.38"/>
<polygon fill="#63b8ff" stroke="#63b8ff" stroke-width="2" points="181.26,-16.88 191.26,-13.38 181.26,-9.88 181.26,-16.88"/>
</a>
</g>
</g>
</g>
</svg>
