<?xml version="1.0" encoding="UTF-8" standalone="no"?>
<!DOCTYPE svg PUBLIC "-//W3C//DTD SVG 1.1//EN"
 "http://www.w3.org/Graphics/SVG/1.1/DTD/svg11.dtd">
<!-- Generated by graphviz version 8.0.5 (0)
 -->
<!-- Title: dbHandleGetResultAsList Pages: 1 -->
<!--zoomable 260 -->

<svg id="main" version="1.1" xmlns="http://www.w3.org/2000/svg" xmlns:xlink="http://www.w3.org/1999/xlink" xml:space="preserve" onload="init(evt)">
<style type="text/css"><![CDATA[
.node, .edge {opacity: 0.7;}
.node.selected, .edge.selected {opacity: 1;}
.edge:hover path { stroke: red; }
.edge:hover polygon { stroke: red; fill: red; }
]]></style>

<defs>
  <circle id="rim" cx="0" cy="0" r="7"/>
  <circle id="rim2" cx="0" cy="0" r="3.5"/>
  <g id="zoomPlus">
    <use xlink:href="#rim" fill="#404040"><set attributeName="fill" to="#808080" begin="zoomplus.mouseover" end="zoomplus.mouseout"/></use>
    <path d="M-4,0h8M0,-4v8" fill="none" stroke="white" stroke-width="1.5" pointer-events="none"/>
  </g>
  <g id="zoomMin">
    <use xlink:href="#rim" fill="#404040"><set attributeName="fill" to="#808080" begin="zoomminus.mouseover" end="zoomminus.mouseout"/></use>
    <path d="M-4,0h8" fill="none" stroke="white" stroke-width="1.5" pointer-events="none"/>
  </g>
  <g id="arrowUp" transform="translate(30 24)">
    <use xlink:href="#rim"/>
    <path pointer-events="none" fill="none" stroke="white" stroke-width="1.5" d="M0,-3.0v7 M-2.5,-0.5L0,-3.0L2.5,-0.5"/>
  </g>
  <g id="arrowRight" transform="rotate(90) translate(36 -43)">
    <use xlink:href="#rim"/>
    <path pointer-events="none" fill="none" stroke="white" stroke-width="1.5" d="M0,-3.0v7 M-2.5,-0.5L0,-3.0L2.5,-0.5"/>
  </g>
  <g id="arrowDown" transform="rotate(180) translate(-30 -48)">
    <use xlink:href="#rim"/>
    <path pointer-events="none" fill="none" stroke="white" stroke-width="1.5" d="M0,-3.0v7 M-2.5,-0.5L0,-3.0L2.5,-0.5"/>
  </g>
  <g id="arrowLeft" transform="rotate(270) translate(-36 17)">
    <use xlink:href="#rim"/>
    <path pointer-events="none" fill="none" stroke="white" stroke-width="1.5" d="M0,-3.0v7 M-2.5,-0.5L0,-3.0L2.5,-0.5"/>
  </g>
  <g id="resetDef">
    <use xlink:href="#rim2" fill="#404040"><set attributeName="fill" to="#808080" begin="reset.mouseover" end="reset.mouseout"/></use>
  </g>
</defs>
<script type="application/ecmascript">
var viewWidth = 711;
var viewHeight = 260;
var sectionId = 'dynsection-18';
</script>
<script type="application/ecmascript" xlink:href="../../svg.min.js"/>
<svg id="graph" class="graph">
<g id="viewport">
<title>dbHandleGetResultAsList</title>
<!-- Node1 -->
<g id="Node000001" class="node">
<title>Node1</title>
<g id="a_Node000001"><a xlink:title="Given query and callback function create List based on the query.">
<polygon fill="#999999" stroke="#666666" points="703,-132.75 501.75,-132.75 501.75,-106 703,-106 703,-132.75"/>
<text text-anchor="middle" x="602.38" y="-113.55" font-family="Helvetica,sans-Serif" font-size="16.00">dbHandleGetResultAsList</text>
</a>
</g>
</g>
<!-- Node2 -->
<g id="Node000002" class="node">
<title>Node2</title>
<g id="a_Node000002"><a xlink:href="../../d5/df2/car_8c.html#ad946b04e98242aa73d41af8cd6963335" target="_top" xlink:title="Get list of cars.">
<polygon fill="white" stroke="#666666" points="457.88,-177.75 367.62,-177.75 367.62,-151 457.88,-151 457.88,-177.75"/>
<text text-anchor="middle" x="412.75" y="-158.55" font-family="Helvetica,sans-Serif" font-size="16.00">carGetList</text>
</a>
</g>
</g>
<!-- Node1&#45;&gt;Node2 -->
<g id="edge1_Node000001_Node000002" class="edge">
<title>Node1&#45;&gt;Node2</title>
<g id="a_edge1_Node000001_Node000002"><a xlink:title=" ">
<path fill="none" stroke="#63b8ff" stroke-width="2" d="M531.04,-136.24C506.65,-142.09 480,-148.49 458.28,-153.7"/>
<polygon fill="#63b8ff" stroke="#63b8ff" stroke-width="2" points="532.64,-138.98 541.55,-133.24 531.01,-132.17 532.64,-138.98"/>
</a>
</g>
</g>
<!-- Node14 -->
<g id="Node000014" class="node">
<title>Node14</title>
<g id="a_Node000014"><a xlink:href="../../dd/d93/client_8c.html#ae9344815031f09e5f54986014cea5f29" target="_top" xlink:title="Get list of clients.">
<polygon fill="white" stroke="#666666" points="465.75,-110.75 359.75,-110.75 359.75,-84 465.75,-84 465.75,-110.75"/>
<text text-anchor="middle" x="412.75" y="-91.55" font-family="Helvetica,sans-Serif" font-size="16.00">clientGetList</text>
</a>
</g>
</g>
<!-- Node1&#45;&gt;Node14 -->
<g id="edge6_Node000001_Node000014" class="edge">
<title>Node1&#45;&gt;Node14</title>
<g id="a_edge6_Node000001_Node000014"><a xlink:title=" ">
<path fill="none" stroke="#63b8ff" stroke-width="2" d="M488.69,-106.16C480.87,-105.25 473.24,-104.35 466.02,-103.5"/>
<polygon fill="#63b8ff" stroke="#63b8ff" stroke-width="2" points="488.18,-109.98 498.52,-107.67 489,-103.03 488.18,-109.98"/>
</a>
</g>
</g>
<!-- Node3 -->
<g id="Node000003" class="node">
<title>Node3</title>
<g id="a_Node000003"><a xlink:href="../../dc/dc6/carsmenu_8c.html#ad451b82b7f3d31d1bb3fc4c210941579" target="_top" xlink:title="Invokes the listView of cars.">
<polygon fill="white" stroke="#666666" points="315.88,-183.75 221.88,-183.75 221.88,-157 315.88,-157 315.88,-183.75"/>
<text text-anchor="middle" x="268.88" y="-164.55" font-family="Helvetica,sans-Serif" font-size="16.00">carChoose</text>
</a>
</g>
</g>
<!-- Node2&#45;&gt;Node3 -->
<g id="edge2_Node000002_Node000003" class="edge">
<title>Node2&#45;&gt;Node3</title>
<g id="a_edge2_Node000002_Node000003"><a xlink:title=" ">
<path fill="none" stroke="#63b8ff" stroke-width="2" d="M354.32,-166.8C341.64,-167.34 328.35,-167.9 316.18,-168.42"/>
<polygon fill="#63b8ff" stroke="#63b8ff" stroke-width="2" points="354.41,-170.18 364.25,-166.26 354.11,-163.18 354.41,-170.18"/>
</a>
</g>
</g>
<!-- Node4 -->
<g id="Node000004" class="node">
<title>Node4</title>
<g id="a_Node000004"><a xlink:href="../../dc/dc6/carsmenu_8c.html#a04e2543edc445ed8a4cbd29b3466a07d" target="_top" xlink:title="Wrapper around carChoose frees extracted car instanntly.">
<polygon fill="#fff0f0" stroke="red" points="170.12,-251.75 7.88,-251.75 7.88,-225 170.12,-225 170.12,-251.75"/>
<text text-anchor="middle" x="89" y="-232.55" font-family="Helvetica,sans-Serif" font-size="16.00">carChooseNoReturn</text>
</a>
</g>
</g>
<!-- Node3&#45;&gt;Node4 -->
<g id="edge3_Node000003_Node000004" class="edge">
<title>Node3&#45;&gt;Node4</title>
<g id="a_edge3_Node000003_Node000004"><a xlink:title=" ">
<path fill="none" stroke="#63b8ff" stroke-width="2" d="M232.55,-190.21C216.29,-198.77 196.53,-208.4 178,-215.38 168.98,-218.77 159.27,-221.85 149.7,-224.58"/>
<polygon fill="#63b8ff" stroke="#63b8ff" stroke-width="2" points="234.55,-193.03 241.7,-185.21 231.24,-186.86 234.55,-193.03"/>
</a>
</g>
</g>
<!-- Node12 -->
<g id="Node000012" class="node">
<title>Node12</title>
<g id="a_Node000012"><a xlink:href="../../dc/dc6/carsmenu_8c.html#acf8ae724beca8714d7d114a7f2539895" target="_top" xlink:title="Edit car.">
<polygon fill="#fff0f0" stroke="red" points="122.12,-206.75 55.88,-206.75 55.88,-180 122.12,-180 122.12,-206.75"/>
<text text-anchor="middle" x="89" y="-187.55" font-family="Helvetica,sans-Serif" font-size="16.00">carEdit</text>
</a>
</g>
</g>
<!-- Node3&#45;&gt;Node12 -->
<g id="edge4_Node000003_Node000012" class="edge">
<title>Node3&#45;&gt;Node12</title>
<g id="a_edge4_Node000003_Node000012"><a xlink:title=" ">
<path fill="none" stroke="#63b8ff" stroke-width="2" d="M208.79,-178.02C180.06,-181.73 146.63,-186.05 122.57,-189.16"/>
<polygon fill="#63b8ff" stroke="#63b8ff" stroke-width="2" points="209.14,-181.11 218.6,-176.36 208.24,-174.17 209.14,-181.11"/>
</a>
</g>
</g>
<!-- Node13 -->
<g id="Node000013" class="node">
<title>Node13</title>
<g id="a_Node000013"><a xlink:href="../../dc/dc6/carsmenu_8c.html#a76be213354bbaa3d64a095bafa1ec8d2" target="_top" xlink:title="Removes a car.">
<polygon fill="#fff0f0" stroke="red" points="138.25,-161.75 39.75,-161.75 39.75,-135 138.25,-135 138.25,-161.75"/>
<text text-anchor="middle" x="89" y="-142.55" font-family="Helvetica,sans-Serif" font-size="16.00">carRemove</text>
</a>
</g>
</g>
<!-- Node3&#45;&gt;Node13 -->
<g id="edge5_Node000003_Node000013" class="edge">
<title>Node3&#45;&gt;Node13</title>
<g id="a_edge5_Node000003_Node000013"><a xlink:title=" ">
<path fill="none" stroke="#63b8ff" stroke-width="2" d="M208.92,-163.08C186.08,-160.26 160.26,-157.06 138.52,-154.38"/>
<polygon fill="#63b8ff" stroke="#63b8ff" stroke-width="2" points="208.25,-166.9 218.6,-164.65 209.11,-159.95 208.25,-166.9"/>
</a>
</g>
</g>
<!-- Node15 -->
<g id="Node000015" class="node">
<title>Node15</title>
<g id="a_Node000015"><a xlink:href="../../da/de9/clientsmenu_8c.html#a1d711b31a5a18af01cdd582e537ff921" target="_top" xlink:title="Invokes ListView of clients.">
<polygon fill="white" stroke="#666666" points="323.75,-82.75 214,-82.75 214,-56 323.75,-56 323.75,-82.75"/>
<text text-anchor="middle" x="268.88" y="-63.55" font-family="Helvetica,sans-Serif" font-size="16.00">clientChoose</text>
</a>
</g>
</g>
<!-- Node14&#45;&gt;Node15 -->
<g id="edge7_Node000014_Node000015" class="edge">
<title>Node14&#45;&gt;Node15</title>
<g id="a_edge7_Node000014_Node000015"><a xlink:title=" ">
<path fill="none" stroke="#63b8ff" stroke-width="2" d="M346.69,-84.53C339.09,-83.04 331.41,-81.52 323.98,-80.05"/>
<polygon fill="#63b8ff" stroke="#63b8ff" stroke-width="2" points="346.84,-88.53 357.32,-87.03 348.19,-81.66 346.84,-88.53"/>
</a>
</g>
</g>
<!-- Node16 -->
<g id="Node000016" class="node">
<title>Node16</title>
<g id="a_Node000016"><a xlink:href="../../da/de9/clientsmenu_8c.html#a1aa5fbc029a7e320bf6f6c3a2e6e27cc" target="_top" xlink:title="Wrapper around clientChoose frees extracted client instanntly.">
<polygon fill="#fff0f0" stroke="red" points="178,-116.75 0,-116.75 0,-90 178,-90 178,-116.75"/>
<text text-anchor="middle" x="89" y="-97.55" font-family="Helvetica,sans-Serif" font-size="16.00">clientChooseNoReturn</text>
</a>
</g>
</g>
<!-- Node15&#45;&gt;Node16 -->
<g id="edge8_Node000015_Node000016" class="edge">
<title>Node15&#45;&gt;Node16</title>
<g id="a_edge8_Node000015_Node000016"><a xlink:title=" ">
<path fill="none" stroke="#63b8ff" stroke-width="2" d="M201.14,-82.13C188.48,-84.55 175.18,-87.09 162.36,-89.54"/>
<polygon fill="#63b8ff" stroke="#63b8ff" stroke-width="2" points="202.38,-85.08 211.54,-79.76 201.06,-78.2 202.38,-85.08"/>
</a>
</g>
</g>
<!-- Node17 -->
<g id="Node000017" class="node">
<title>Node17</title>
<g id="a_Node000017"><a xlink:href="../../da/de9/clientsmenu_8c.html#a3785053dd7fa7ee54cb52674dadf5941" target="_top" xlink:title="Edit client.">
<polygon fill="#fff0f0" stroke="red" points="130,-71.75 48,-71.75 48,-45 130,-45 130,-71.75"/>
<text text-anchor="middle" x="89" y="-52.55" font-family="Helvetica,sans-Serif" font-size="16.00">clientEdit</text>
</a>
</g>
</g>
<!-- Node15&#45;&gt;Node17 -->
<g id="edge9_Node000015_Node000017" class="edge">
<title>Node15&#45;&gt;Node17</title>
<g id="a_edge9_Node000015_Node000017"><a xlink:title=" ">
<path fill="none" stroke="#63b8ff" stroke-width="2" d="M200.68,-65.22C177.03,-63.76 151.21,-62.16 130.45,-60.88"/>
<polygon fill="#63b8ff" stroke="#63b8ff" stroke-width="2" points="200.34,-68.89 210.54,-66.01 200.78,-61.9 200.34,-68.89"/>
</a>
</g>
</g>
<!-- Node18 -->
<g id="Node000018" class="node">
<title>Node18</title>
<g id="a_Node000018"><a xlink:href="../../da/de9/clientsmenu_8c.html#ae81aa78f6e32fdd87e554ba85c063111" target="_top" xlink:title="Remove client.">
<polygon fill="#fff0f0" stroke="red" points="146.12,-26.75 31.88,-26.75 31.88,0 146.12,0 146.12,-26.75"/>
<text text-anchor="middle" x="89" y="-7.55" font-family="Helvetica,sans-Serif" font-size="16.00">clientRemove</text>
</a>
</g>
</g>
<!-- Node15&#45;&gt;Node18 -->
<g id="edge10_Node000015_Node000018" class="edge">
<title>Node15&#45;&gt;Node18</title>
<g id="a_edge10_Node000015_Node000018"><a xlink:title=" ">
<path fill="none" stroke="#63b8ff" stroke-width="2" d="M220.61,-51.05C206.96,-46.02 191.96,-40.75 178,-36.38 167.75,-33.16 156.74,-30.03 146.09,-27.17"/>
<polygon fill="#63b8ff" stroke="#63b8ff" stroke-width="2" points="220.12,-54.35 230.71,-54.57 222.57,-47.8 220.12,-54.35"/>
</a>
</g>
</g>
</g>
</svg>

<g id="navigator" transform="translate(0 0)" fill="#404254">
  <rect fill="#f2f5e9" fill-opacity="0.5" stroke="#606060" stroke-width=".5" x="0" y="0" width="60" height="60"/>
  <use id="zoomplus" xlink:href="#zoomPlus" x="17" y="9" onmousedown="handleZoom(evt,'in')"/>
  <use id="zoomminus" xlink:href="#zoomMin" x="42" y="9" onmousedown="handleZoom(evt,'out')"/>
  <use id="reset" xlink:href="#resetDef" x="30" y="36" onmousedown="handleReset()"/>
   <use id="arrowup" xlink:href="#arrowUp" x="0" y="0" onmousedown="handlePan(0,-1)"/>
  <use id="arrowright" xlink:href="#arrowRight" x="0" y="0" onmousedown="handlePan(1,0)"/>
  <use id="arrowdown" xlink:href="#arrowDown" x="0" y="0" onmousedown="handlePan(0,1)"/>
  <use id="arrowleft" xlink:href="#arrowLeft" x="0" y="0" onmousedown="handlePan(-1,0)"/>
</g>
<svg viewBox="0 0 15 15" width="100%" height="30px" preserveAspectRatio="xMaxYMin meet">
 <g id="arrow_out" transform="scale(0.3 0.3)">
  <a xlink:href="dbhandle_8c_a93d9b43b32495dc8630963c174aeba05_icgraph_org.svg" target="_base">
   <rect id="button" ry="5" rx="5" y="6" x="6" height="38" width="38"
        fill="#f2f5e9" fill-opacity="0.5" stroke="#606060" stroke-width="1.0"/>
   <path id="arrow"
     d="M 11.500037,31.436501 C 11.940474,20.09759 22.043105,11.32322 32.158766,21.979434 L 37.068811,17.246167 C 37.068811,17.246167 37.088388,32 37.088388,32 L 22.160133,31.978069 C 22.160133,31.978069 26.997745,27.140456 26.997745,27.140456 C 18.528582,18.264221 13.291696,25.230495 11.500037,31.436501 z"
     style="fill:#404040;"/>
  </a>
 </g>
</svg>

<style type='text/css'>
<![CDATA[
[data-mouse-over-selected='false'] { opacity: 0.7; }
[data-mouse-over-selected='true']  { opacity: 1.0; }
]]>
</style>
<script type="application/ecmascript"><![CDATA[
document.addEventListener('DOMContentLoaded', (event) => {
  highlightEdges();
  highlightAdjacentNodes();
});
]]></script>
</svg>
