<?xml version="1.0" encoding="UTF-8" standalone="no"?>
<!DOCTYPE svg PUBLIC "-//W3C//DTD SVG 1.1//EN"
 "http://www.w3.org/Graphics/SVG/1.1/DTD/svg11.dtd">
<!-- Generated by graphviz version 8.0.5 (0)
 -->
<!-- Title: clientFormEdit Pages: 1 -->
<svg width="521pt" height="237pt"
 viewBox="0.00 0.00 521.00 236.75" xmlns="http://www.w3.org/2000/svg" xmlns:xlink="http://www.w3.org/1999/xlink">
<g id="graph0" class="graph" transform="scale(1 1) rotate(0) translate(4 232.75)">
<title>clientFormEdit</title>
<!-- Node1 -->
<g id="Node000001" class="node">
<title>Node1</title>
<g id="a_Node000001"><a xlink:title="Function for editing client.">
<polygon fill="#999999" stroke="#666666" points="119.5,-160.75 0,-160.75 0,-134 119.5,-134 119.5,-160.75"/>
<text text-anchor="middle" x="59.75" y="-141.55" font-family="Helvetica,sans-Serif" font-size="16.00">clientFormEdit</text>
</a>
</g>
</g>
<!-- Node2 -->
<g id="Node000002" class="node">
<title>Node2</title>
<g id="a_Node000002"><a xlink:href="../../da/de9/clientsmenu_8c.html#af8ed08faae79e3f75c324827415a5793" target="_top" xlink:title="Parse form.">
<polygon fill="white" stroke="#666666" points="289.25,-228.75 155.5,-228.75 155.5,-202 289.25,-202 289.25,-228.75"/>
<text text-anchor="middle" x="222.38" y="-209.55" font-family="Helvetica,sans-Serif" font-size="16.00">clientFormParse</text>
</a>
</g>
</g>
<!-- Node1&#45;&gt;Node2 -->
<g id="edge1_Node000001_Node000002" class="edge">
<title>Node1&#45;&gt;Node2</title>
<g id="a_edge1_Node000001_Node000002"><a xlink:title=" ">
<path fill="none" stroke="#63b8ff" stroke-width="2" d="M87.77,-161.16C106.54,-170.5 132.25,-182.83 155.5,-192.38 159.49,-194.01 163.64,-195.64 167.83,-197.23"/>
<polygon fill="#63b8ff" stroke="#63b8ff" stroke-width="2" points="167.06,-200.41 177.65,-200.57 169.47,-193.84 167.06,-200.41"/>
</a>
</g>
</g>
<!-- Node3 -->
<g id="Node000003" class="node">
<title>Node3</title>
<g id="a_Node000003"><a xlink:href="../../d7/dba/menuutil_8c.html#a1c0a1284f839b7e790c8234b3778e065" target="_top" xlink:title="Frees memory used for form, and it&#39;s fields.">
<polygon fill="white" stroke="#666666" points="263,-183.75 181.75,-183.75 181.75,-157 263,-157 263,-183.75"/>
<text text-anchor="middle" x="222.38" y="-164.55" font-family="Helvetica,sans-Serif" font-size="16.00">formFree</text>
</a>
</g>
</g>
<!-- Node1&#45;&gt;Node3 -->
<g id="edge2_Node000001_Node000003" class="edge">
<title>Node1&#45;&gt;Node3</title>
<g id="a_edge2_Node000001_Node000003"><a xlink:title=" ">
<path fill="none" stroke="#63b8ff" stroke-width="2" d="M119.65,-155.81C135.74,-158.11 153.06,-160.59 168.77,-162.84"/>
<polygon fill="#63b8ff" stroke="#63b8ff" stroke-width="2" points="169.14,-166.72 179.53,-164.67 170.13,-159.79 169.14,-166.72"/>
</a>
</g>
</g>
<!-- Node4 -->
<g id="Node000004" class="node">
<title>Node4</title>
<g id="a_Node000004"><a xlink:href="../../d7/dba/menuutil_8c.html#a6cfb2b5b15b5e79df457b5c902c3bf7d" target="_top" xlink:title="Initialize FORM.">
<polygon fill="white" stroke="#666666" points="257.38,-138.75 187.38,-138.75 187.38,-112 257.38,-112 257.38,-138.75"/>
<text text-anchor="middle" x="222.38" y="-119.55" font-family="Helvetica,sans-Serif" font-size="16.00">formInit</text>
</a>
</g>
</g>
<!-- Node1&#45;&gt;Node4 -->
<g id="edge3_Node000001_Node000004" class="edge">
<title>Node1&#45;&gt;Node4</title>
<g id="a_edge3_Node000001_Node000004"><a xlink:title=" ">
<path fill="none" stroke="#63b8ff" stroke-width="2" d="M119.65,-139.31C137.68,-136.84 157.27,-134.16 174.4,-131.81"/>
<polygon fill="#63b8ff" stroke="#63b8ff" stroke-width="2" points="175.81,-134.87 185.24,-130.05 174.86,-127.94 175.81,-134.87"/>
</a>
</g>
</g>
<!-- Node5 -->
<g id="Node000005" class="node">
<title>Node5</title>
<g id="a_Node000005"><a xlink:href="../../d7/dba/menuutil_8c.html#af8f262005a4975cc6ccc3423d939f910" target="_top" xlink:title="Put form on screen in nice looking form.">
<polygon fill="white" stroke="#666666" points="270.5,-93.75 174.25,-93.75 174.25,-67 270.5,-67 270.5,-93.75"/>
<text text-anchor="middle" x="222.38" y="-74.55" font-family="Helvetica,sans-Serif" font-size="16.00">formInvoke</text>
</a>
</g>
</g>
<!-- Node1&#45;&gt;Node5 -->
<g id="edge4_Node000001_Node000005" class="edge">
<title>Node1&#45;&gt;Node5</title>
<g id="a_edge4_Node000001_Node000005"><a xlink:title=" ">
<path fill="none" stroke="#63b8ff" stroke-width="2" d="M88.62,-133.55C107.33,-124.48 132.64,-112.65 155.5,-103.38 159.49,-101.76 163.65,-100.14 167.85,-98.56"/>
<polygon fill="#63b8ff" stroke="#63b8ff" stroke-width="2" points="169.49,-101.96 177.68,-95.23 167.08,-95.38 169.49,-101.96"/>
</a>
</g>
</g>
<!-- Node6 -->
<g id="Node000006" class="node">
<title>Node6</title>
<g id="a_Node000006"><a xlink:href="../../d7/dba/menuutil_8c.html#ab9a65295e184f9f64ea1431f8c2e36b2" target="_top" xlink:title="Manages input in the form.">
<polygon fill="white" stroke="#666666" points="502.12,-161.75 336.12,-161.75 336.12,-135 502.12,-135 502.12,-161.75"/>
<text text-anchor="middle" x="419.12" y="-142.55" font-family="Helvetica,sans-Serif" font-size="16.00">formHandleIteraction</text>
</a>
</g>
</g>
<!-- Node5&#45;&gt;Node6 -->
<g id="edge5_Node000005_Node000006" class="edge">
<title>Node5&#45;&gt;Node6</title>
<g id="a_edge5_Node000005_Node000006"><a xlink:title=" ">
<path fill="none" stroke="#63b8ff" stroke-width="2" d="M267.13,-94.18C274.62,-96.96 282.24,-100.06 289.25,-103.38 306.2,-111.4 307.95,-118.15 325.25,-125.38 329.86,-127.3 334.67,-129.09 339.57,-130.75"/>
<polygon fill="#63b8ff" stroke="#63b8ff" stroke-width="2" points="339.27,-134.96 349.86,-134.62 341.37,-128.28 339.27,-134.96"/>
</a>
</g>
</g>
<!-- Node7 -->
<g id="Node000007" class="node">
<title>Node7</title>
<g id="a_Node000007"><a xlink:href="../../d7/dba/menuutil_8c.html#ac6b71fcc47a9cdec8ac08b98e754239c" target="_top" xlink:title="Get length of longest string in array of strings.">
<polygon fill="white" stroke="#666666" points="513,-116.75 325.25,-116.75 325.25,-90 513,-90 513,-116.75"/>
<text text-anchor="middle" x="419.12" y="-97.55" font-family="Helvetica,sans-Serif" font-size="16.00">getLongestStringLength</text>
</a>
</g>
</g>
<!-- Node5&#45;&gt;Node7 -->
<g id="edge6_Node000005_Node000007" class="edge">
<title>Node5&#45;&gt;Node7</title>
<g id="a_edge6_Node000005_Node000007"><a xlink:title=" ">
<path fill="none" stroke="#63b8ff" stroke-width="2" d="M270.52,-85.94C283.23,-87.44 297.51,-89.13 312.06,-90.85"/>
<polygon fill="#63b8ff" stroke="#63b8ff" stroke-width="2" points="311.54,-94.67 321.88,-92.36 312.36,-87.71 311.54,-94.67"/>
</a>
</g>
</g>
<!-- Node8 -->
<g id="Node000008" class="node">
<title>Node8</title>
<g id="a_Node000008"><a xlink:href="../../d7/dba/menuutil_8c.html#a9941ed217da0309cd9453bdb776d5c51" target="_top" xlink:title="Add basic functionality to the shitty language which C is.">
<polygon fill="white" stroke="#666666" points="442.5,-71.75 395.75,-71.75 395.75,-45 442.5,-45 442.5,-71.75"/>
<text text-anchor="middle" x="419.12" y="-52.55" font-family="Helvetica,sans-Serif" font-size="16.00">max</text>
</a>
</g>
</g>
<!-- Node5&#45;&gt;Node8 -->
<g id="edge7_Node000005_Node000008" class="edge">
<title>Node5&#45;&gt;Node8</title>
<g id="a_edge7_Node000005_Node000008"><a xlink:title=" ">
<path fill="none" stroke="#63b8ff" stroke-width="2" d="M270.52,-75.05C305.04,-71.15 351.15,-65.94 382.59,-62.39"/>
<polygon fill="#63b8ff" stroke="#63b8ff" stroke-width="2" points="382.96,-65.53 392.5,-60.93 382.17,-58.58 382.96,-65.53"/>
</a>
</g>
</g>
<!-- Node9 -->
<g id="Node000009" class="node">
<title>Node9</title>
<g id="a_Node000009"><a xlink:href="../../d7/dba/menuutil_8c.html#a14ca6bd9893f550a2051ca6cd5a689ac" target="_top" xlink:title="Print boarders of window.">
<polygon fill="white" stroke="#666666" points="504,-26.75 334.25,-26.75 334.25,0 504,0 504,-26.75"/>
<text text-anchor="middle" x="419.12" y="-7.55" font-family="Helvetica,sans-Serif" font-size="16.00">printWindowBoarders</text>
</a>
</g>
</g>
<!-- Node5&#45;&gt;Node9 -->
<g id="edge8_Node000005_Node000009" class="edge">
<title>Node5&#45;&gt;Node9</title>
<g id="a_edge8_Node000005_Node000009"><a xlink:title=" ">
<path fill="none" stroke="#63b8ff" stroke-width="2" d="M251.86,-66.57C272.02,-57.17 299.87,-44.93 325.25,-36.38 331.29,-34.34 337.61,-32.39 343.99,-30.56"/>
<polygon fill="#63b8ff" stroke="#63b8ff" stroke-width="2" points="345.55,-33.21 354.26,-27.18 343.69,-26.46 345.55,-33.21"/>
</a>
</g>
</g>
</g>
</svg>
