<?xml version="1.0" encoding="UTF-8" standalone="no"?>
<!DOCTYPE svg PUBLIC "-//W3C//DTD SVG 1.1//EN"
 "http://www.w3.org/Graphics/SVG/1.1/DTD/svg11.dtd">
<!-- Generated by graphviz version 8.0.5 (0)
 -->
<!-- Title: clientRemove Pages: 1 -->
<svg width="1216pt" height="637pt"
 viewBox="0.00 0.00 1216.25 636.62" xmlns="http://www.w3.org/2000/svg" xmlns:xlink="http://www.w3.org/1999/xlink">
<g id="graph0" class="graph" transform="scale(1 1) rotate(0) translate(4 632.62)">
<title>clientRemove</title>
<!-- Node1 -->
<g id="Node000001" class="node">
<title>Node1</title>
<g id="a_Node000001"><a xlink:title="Remove client.">
<polygon fill="#999999" stroke="#666666" points="114.25,-456.5 0,-456.5 0,-429.75 114.25,-429.75 114.25,-456.5"/>
<text text-anchor="middle" x="57.12" y="-437.3" font-family="Helvetica,sans-Serif" font-size="16.00">clientRemove</text>
</a>
</g>
</g>
<!-- Node2 -->
<g id="Node000002" class="node">
<title>Node2</title>
<g id="a_Node000002"><a xlink:href="../../da/de9/clientsmenu_8c.html#a1d711b31a5a18af01cdd582e537ff921" target="_top" xlink:title="Invokes ListView of clients.">
<polygon fill="white" stroke="#666666" points="293.75,-366.5 184,-366.5 184,-339.75 293.75,-339.75 293.75,-366.5"/>
<text text-anchor="middle" x="238.88" y="-347.3" font-family="Helvetica,sans-Serif" font-size="16.00">clientChoose</text>
</a>
</g>
</g>
<!-- Node1&#45;&gt;Node2 -->
<g id="edge1_Node000001_Node000002" class="edge">
<title>Node1&#45;&gt;Node2</title>
<g id="a_edge1_Node000001_Node000002"><a xlink:title=" ">
<path fill="none" stroke="#63b8ff" stroke-width="2" d="M85.82,-429.26C116.12,-414.08 164.92,-389.65 199.04,-372.56"/>
<polygon fill="#63b8ff" stroke="#63b8ff" stroke-width="2" points="201.07,-375.46 208.45,-367.85 197.94,-369.2 201.07,-375.46"/>
</a>
</g>
</g>
<!-- Node3 -->
<g id="Node000003" class="node">
<title>Node3</title>
<g id="a_Node000003"><a xlink:href="../../dd/d93/client_8c.html#acd575326bfff582215541a74fc4a7bc7" target="_top" xlink:title="Dealloactes client.">
<polygon fill="white" stroke="#666666" points="498.38,-456.5 411.12,-456.5 411.12,-429.75 498.38,-429.75 498.38,-456.5"/>
<text text-anchor="middle" x="454.75" y="-437.3" font-family="Helvetica,sans-Serif" font-size="16.00">clientFree</text>
</a>
</g>
</g>
<!-- Node1&#45;&gt;Node3 -->
<g id="edge23_Node000001_Node000003" class="edge">
<title>Node1&#45;&gt;Node3</title>
<g id="a_edge23_Node000001_Node000003"><a xlink:title=" ">
<path fill="none" stroke="#63b8ff" stroke-width="2" d="M114.39,-443.12C189.76,-443.12 322.69,-443.12 397.86,-443.12"/>
<polygon fill="#63b8ff" stroke="#63b8ff" stroke-width="2" points="397.76,-446.62 407.76,-443.12 397.76,-439.62 397.76,-446.62"/>
</a>
</g>
</g>
<!-- Node12 -->
<g id="Node000012" class="node">
<title>Node12</title>
<g id="a_Node000012"><a xlink:href="../../d7/dba/menuutil_8c.html#ae6ed898f3726361b1edde3f8707f0260" target="_top" xlink:title="Displays message box on the screen with title and message.">
<polygon fill="#fff0f0" stroke="red" points="1002.5,-411.5 830.5,-411.5 830.5,-384.75 1002.5,-384.75 1002.5,-411.5"/>
<text text-anchor="middle" x="916.5" y="-392.3" font-family="Helvetica,sans-Serif" font-size="16.00">menuUtilMessagebox</text>
</a>
</g>
</g>
<!-- Node1&#45;&gt;Node12 -->
<g id="edge27_Node000001_Node000012" class="edge">
<title>Node1&#45;&gt;Node12</title>
<g id="a_edge27_Node000001_Node000012"><a xlink:title=" ">
<path fill="none" stroke="#63b8ff" stroke-width="2" d="M68.56,-456.96C84.03,-476.33 115.04,-510.96 150.25,-527.12 410.56,-646.6 537.57,-669.71 794.5,-543.12 846.89,-517.31 884.95,-457.22 903.26,-423.05"/>
<polygon fill="#63b8ff" stroke="#63b8ff" stroke-width="2" points="906.63,-424.23 908.11,-413.74 900.41,-421.02 906.63,-424.23"/>
</a>
</g>
</g>
<!-- Node16 -->
<g id="Node000016" class="node">
<title>Node16</title>
<g id="a_Node000016"><a xlink:href="../../da/de9/clientsmenu_8c.html#a25908570659c30ef67cf297ef0af107e" target="_top" xlink:title="Given client generates string repesenting client string in listView friendly format....">
<polygon fill="white" stroke="#666666" points="546,-179.5 363.5,-179.5 363.5,-152.75 546,-152.75 546,-179.5"/>
<text text-anchor="middle" x="454.75" y="-160.3" font-family="Helvetica,sans-Serif" font-size="16.00">clientGetListViewString</text>
</a>
</g>
</g>
<!-- Node1&#45;&gt;Node16 -->
<g id="edge24_Node000001_Node000016" class="edge">
<title>Node1&#45;&gt;Node16</title>
<g id="a_edge24_Node000001_Node000016"><a xlink:title=" ">
<path fill="none" stroke="#63b8ff" stroke-width="2" d="M67.48,-429.26C82.97,-406.94 115.7,-362.35 150.25,-331.12 234.72,-254.77 259.46,-235.4 363.5,-189.12 367.74,-187.24 372.16,-185.48 376.67,-183.86"/>
<polygon fill="#63b8ff" stroke="#63b8ff" stroke-width="2" points="378.36,-186.32 386.75,-179.85 376.16,-179.68 378.36,-186.32"/>
</a>
</g>
</g>
<!-- Node30 -->
<g id="Node000030" class="node">
<title>Node30</title>
<g id="a_Node000030"><a xlink:href="../../d3/df4/dbhandle_8c.html#a4bfe377ba6dd3a7e3024c825de1485dd" target="_top" xlink:title="Remove clinet from database.">
<polygon fill="white" stroke="#666666" points="327.5,-518.5 150.25,-518.5 150.25,-491.75 327.5,-491.75 327.5,-518.5"/>
<text text-anchor="middle" x="238.88" y="-499.3" font-family="Helvetica,sans-Serif" font-size="16.00">dbHandlClientRemove</text>
</a>
</g>
</g>
<!-- Node1&#45;&gt;Node30 -->
<g id="edge25_Node000001_Node000030" class="edge">
<title>Node1&#45;&gt;Node30</title>
<g id="a_edge25_Node000001_Node000030"><a xlink:title=" ">
<path fill="none" stroke="#63b8ff" stroke-width="2" d="M98.02,-456.88C123.88,-465.8 157.83,-477.51 185.8,-487.16"/>
<polygon fill="#63b8ff" stroke="#63b8ff" stroke-width="2" points="185.19,-491.34 195.78,-491.29 187.47,-484.72 185.19,-491.34"/>
</a>
</g>
</g>
<!-- Node2&#45;&gt;Node3 -->
<g id="edge2_Node000002_Node000003" class="edge">
<title>Node2&#45;&gt;Node3</title>
<g id="a_edge2_Node000002_Node000003"><a xlink:title=" ">
<path fill="none" stroke="#63b8ff" stroke-width="2" d="M261.41,-366.93C285.48,-381.85 325.99,-405.44 363.5,-420.12 374.56,-424.45 386.7,-428.19 398.39,-431.32"/>
<polygon fill="#63b8ff" stroke="#63b8ff" stroke-width="2" points="398.27,-435.41 408.83,-434.47 400,-428.62 398.27,-435.41"/>
</a>
</g>
</g>
<!-- Node4 -->
<g id="Node000004" class="node">
<title>Node4</title>
<g id="a_Node000004"><a xlink:href="../../dd/d93/client_8c.html#ae9344815031f09e5f54986014cea5f29" target="_top" xlink:title="Get list of clients.">
<polygon fill="white" stroke="#666666" points="507.75,-411.5 401.75,-411.5 401.75,-384.75 507.75,-384.75 507.75,-411.5"/>
<text text-anchor="middle" x="454.75" y="-392.3" font-family="Helvetica,sans-Serif" font-size="16.00">clientGetList</text>
</a>
</g>
</g>
<!-- Node2&#45;&gt;Node4 -->
<g id="edge3_Node000002_Node000004" class="edge">
<title>Node2&#45;&gt;Node4</title>
<g id="a_edge3_Node000002_Node000004"><a xlink:title=" ">
<path fill="none" stroke="#63b8ff" stroke-width="2" d="M294.12,-364.53C322.93,-370.6 358.53,-378.09 388.8,-384.45"/>
<polygon fill="#63b8ff" stroke="#63b8ff" stroke-width="2" points="388.9,-388.47 399.41,-387.11 390.34,-381.62 388.9,-388.47"/>
</a>
</g>
</g>
<!-- Node2&#45;&gt;Node12 -->
<g id="edge22_Node000002_Node000012" class="edge">
<title>Node2&#45;&gt;Node12</title>
<g id="a_edge22_Node000002_Node000012"><a xlink:title=" ">
<path fill="none" stroke="#63b8ff" stroke-width="2" d="M294.12,-340.76C394.69,-320.08 616.06,-285.02 794.5,-331.12 828.66,-339.95 863.48,-360.72 886.94,-376.81"/>
<polygon fill="#63b8ff" stroke="#63b8ff" stroke-width="2" points="885.3,-380.35 895.49,-383.26 889.34,-374.64 885.3,-380.35"/>
</a>
</g>
</g>
<!-- Node2&#45;&gt;Node16 -->
<g id="edge9_Node000002_Node000016" class="edge">
<title>Node2&#45;&gt;Node16</title>
<g id="a_edge9_Node000002_Node000016"><a xlink:title=" ">
<path fill="none" stroke="#63b8ff" stroke-width="2" d="M256.39,-339.37C275.36,-322.94 306.55,-293.93 327.5,-264.12 348.76,-233.87 334.9,-212.55 363.5,-189.12 364.59,-188.22 365.72,-187.36 366.87,-186.53"/>
<polygon fill="#63b8ff" stroke="#63b8ff" stroke-width="2" points="369.11,-189.07 375.89,-180.93 365.51,-183.07 369.11,-189.07"/>
</a>
</g>
</g>
<!-- Node17 -->
<g id="Node000017" class="node">
<title>Node17</title>
<g id="a_Node000017"><a xlink:href="../../da/de9/clientsmenu_8c.html#a12535dbea3961ee9186a47a4988d2208" target="_top" xlink:title="extract client given ListNode.">
<polygon fill="white" stroke="#666666" points="507.75,-366.5 401.75,-366.5 401.75,-339.75 507.75,-339.75 507.75,-366.5"/>
<text text-anchor="middle" x="454.75" y="-347.3" font-family="Helvetica,sans-Serif" font-size="16.00">extractClient</text>
</a>
</g>
</g>
<!-- Node2&#45;&gt;Node17 -->
<g id="edge10_Node000002_Node000017" class="edge">
<title>Node2&#45;&gt;Node17</title>
<g id="a_edge10_Node000002_Node000017"><a xlink:title=" ">
<path fill="none" stroke="#63b8ff" stroke-width="2" d="M294.12,-353.12C322.93,-353.12 358.53,-353.12 388.8,-353.12"/>
<polygon fill="#63b8ff" stroke="#63b8ff" stroke-width="2" points="388.41,-356.62 398.41,-353.12 388.41,-349.62 388.41,-356.62"/>
</a>
</g>
</g>
<!-- Node19 -->
<g id="Node000019" class="node">
<title>Node19</title>
<g id="a_Node000019"><a xlink:href="../../d7/dba/menuutil_8c.html#aca301edf9d04aa391571851b148355ba" target="_top" xlink:title="List Viewer for lists.">
<polygon fill="white" stroke="#666666" points="514.12,-224.5 395.38,-224.5 395.38,-197.75 514.12,-197.75 514.12,-224.5"/>
<text text-anchor="middle" x="454.75" y="-205.3" font-family="Helvetica,sans-Serif" font-size="16.00">listViewInvoke</text>
</a>
</g>
</g>
<!-- Node2&#45;&gt;Node19 -->
<g id="edge12_Node000002_Node000019" class="edge">
<title>Node2&#45;&gt;Node19</title>
<g id="a_edge12_Node000002_Node000019"><a xlink:title=" ">
<path fill="none" stroke="#63b8ff" stroke-width="2" d="M260.77,-339.25C298.48,-314.21 378.1,-261.35 422.37,-231.95"/>
<polygon fill="#63b8ff" stroke="#63b8ff" stroke-width="2" points="424.69,-234.29 431.08,-225.84 420.82,-228.46 424.69,-234.29"/>
</a>
</g>
</g>
<!-- Node5 -->
<g id="Node000005" class="node">
<title>Node5</title>
<g id="a_Node000005"><a xlink:href="../../dd/d93/client_8c.html#a903cc00cfe46a85c92b09861aba1f26c" target="_top" xlink:title="CallBack function for dbHandleGetResultAsList . Transforms row into Client.">
<polygon fill="#fff0f0" stroke="red" points="794.5,-456.5 582,-456.5 582,-429.75 794.5,-429.75 794.5,-456.5"/>
<text text-anchor="middle" x="688.25" y="-437.3" font-family="Helvetica,sans-Serif" font-size="16.00">clientGetListQueryCallback</text>
</a>
</g>
</g>
<!-- Node4&#45;&gt;Node5 -->
<g id="edge4_Node000004_Node000005" class="edge">
<title>Node4&#45;&gt;Node5</title>
<g id="a_edge4_Node000004_Node000005"><a xlink:title=" ">
<path fill="none" stroke="#63b8ff" stroke-width="2" d="M507.99,-408.28C536.13,-413.75 571.52,-420.62 603.4,-426.82"/>
<polygon fill="#63b8ff" stroke="#63b8ff" stroke-width="2" points="603.41,-430.78 613.89,-429.25 604.74,-423.91 603.41,-430.78"/>
</a>
</g>
</g>
<!-- Node9 -->
<g id="Node000009" class="node">
<title>Node9</title>
<g id="a_Node000009"><a xlink:href="../../dd/d93/client_8c.html#aca1c3909e30e8a13a7f49a0bc74640bd" target="_top" xlink:title="Generates SQL query.">
<polygon fill="white" stroke="#666666" points="773.88,-501.5 602.62,-501.5 602.62,-474.75 773.88,-474.75 773.88,-501.5"/>
<text text-anchor="middle" x="688.25" y="-482.3" font-family="Helvetica,sans-Serif" font-size="16.00">clientGetQueryOfSort</text>
</a>
</g>
</g>
<!-- Node4&#45;&gt;Node9 -->
<g id="edge5_Node000004_Node000009" class="edge">
<title>Node4&#45;&gt;Node9</title>
<g id="a_edge5_Node000004_Node000009"><a xlink:title=" ">
<path fill="none" stroke="#63b8ff" stroke-width="2" d="M508.18,-405.56C521.22,-408.96 534.68,-413.91 546,-421.12 567.31,-434.7 560.46,-451.91 582,-465.12 584.76,-466.81 587.62,-468.38 590.56,-469.83"/>
<polygon fill="#63b8ff" stroke="#63b8ff" stroke-width="2" points="589.69,-473.13 600.26,-473.88 592.47,-466.7 589.69,-473.13"/>
</a>
</g>
</g>
<!-- Node10 -->
<g id="Node000010" class="node">
<title>Node10</title>
<g id="a_Node000010"><a xlink:href="../../d3/df4/dbhandle_8c.html#a93d9b43b32495dc8630963c174aeba05" target="_top" xlink:title="Given query and callback function create List based on the query.">
<polygon fill="#fff0f0" stroke="red" points="788.88,-411.5 587.62,-411.5 587.62,-384.75 788.88,-384.75 788.88,-411.5"/>
<text text-anchor="middle" x="688.25" y="-392.3" font-family="Helvetica,sans-Serif" font-size="16.00">dbHandleGetResultAsList</text>
</a>
</g>
</g>
<!-- Node4&#45;&gt;Node10 -->
<g id="edge6_Node000004_Node000010" class="edge">
<title>Node4&#45;&gt;Node10</title>
<g id="a_edge6_Node000004_Node000010"><a xlink:title=" ">
<path fill="none" stroke="#63b8ff" stroke-width="2" d="M507.99,-398.12C527.8,-398.12 551.19,-398.12 574.43,-398.12"/>
<polygon fill="#63b8ff" stroke="#63b8ff" stroke-width="2" points="574.3,-401.62 584.3,-398.12 574.3,-394.62 574.3,-401.62"/>
</a>
</g>
</g>
<!-- Node10&#45;&gt;Node12 -->
<g id="edge7_Node000010_Node000012" class="edge">
<title>Node10&#45;&gt;Node12</title>
<g id="a_edge7_Node000010_Node000012"><a xlink:title=" ">
<path fill="none" stroke="#63b8ff" stroke-width="2" d="M789.15,-398.12C798.59,-398.12 808.15,-398.12 817.57,-398.12"/>
<polygon fill="#63b8ff" stroke="#63b8ff" stroke-width="2" points="817.31,-401.62 827.31,-398.12 817.31,-394.62 817.31,-401.62"/>
</a>
</g>
</g>
<!-- Node15 -->
<g id="Node000015" class="node">
<title>Node15</title>
<g id="a_Node000015"><a xlink:href="../../d7/dba/menuutil_8c.html#a14ca6bd9893f550a2051ca6cd5a689ac" target="_top" xlink:title="Print boarders of window.">
<polygon fill="white" stroke="#666666" points="1208.25,-218.5 1038.5,-218.5 1038.5,-191.75 1208.25,-191.75 1208.25,-218.5"/>
<text text-anchor="middle" x="1123.38" y="-199.3" font-family="Helvetica,sans-Serif" font-size="16.00">printWindowBoarders</text>
</a>
</g>
</g>
<!-- Node12&#45;&gt;Node15 -->
<g id="edge8_Node000012_Node000015" class="edge">
<title>Node12&#45;&gt;Node15</title>
<g id="a_edge8_Node000012_Node000015"><a xlink:title=" ">
<path fill="none" stroke="#63b8ff" stroke-width="2" d="M931.91,-384.55C966.65,-351.82 1055.33,-268.28 1098.31,-227.79"/>
<polygon fill="#63b8ff" stroke="#63b8ff" stroke-width="2" points="1100.83,-230.34 1105.71,-220.94 1096.03,-225.25 1100.83,-230.34"/>
</a>
</g>
</g>
<!-- Node18 -->
<g id="Node000018" class="node">
<title>Node18</title>
<g id="a_Node000018"><a xlink:href="../../dd/d93/client_8c.html#ad02c9ee4fe2e382b42ce897135f738af" target="_top" xlink:title="make Clone of Client. It allocates memory internaly.">
<polygon fill="#fff0f0" stroke="red" points="736.38,-366.5 640.12,-366.5 640.12,-339.75 736.38,-339.75 736.38,-366.5"/>
<text text-anchor="middle" x="688.25" y="-347.3" font-family="Helvetica,sans-Serif" font-size="16.00">clientClone</text>
</a>
</g>
</g>
<!-- Node17&#45;&gt;Node18 -->
<g id="edge11_Node000017_Node000018" class="edge">
<title>Node17&#45;&gt;Node18</title>
<g id="a_edge11_Node000017_Node000018"><a xlink:title=" ">
<path fill="none" stroke="#63b8ff" stroke-width="2" d="M507.99,-353.12C543.42,-353.12 590.35,-353.12 627.3,-353.12"/>
<polygon fill="#63b8ff" stroke="#63b8ff" stroke-width="2" points="626.92,-356.62 636.92,-353.12 626.92,-349.62 626.92,-356.62"/>
</a>
</g>
</g>
<!-- Node19&#45;&gt;Node15 -->
<g id="edge21_Node000019_Node000015" class="edge">
<title>Node19&#45;&gt;Node15</title>
<g id="a_edge21_Node000019_Node000015"><a xlink:title=" ">
<path fill="none" stroke="#63b8ff" stroke-width="2" d="M514.6,-205.9C526.28,-202.37 537.53,-196.8 546,-188.12 596.01,-136.89 526.01,-75.73 582,-31.12 655.87,27.73 702.02,-11.97 794.5,-31.12 916.7,-56.43 1041.65,-143.02 1095.25,-183.69"/>
<polygon fill="#63b8ff" stroke="#63b8ff" stroke-width="2" points="1093.23,-187.09 1103.29,-190.41 1097.5,-181.54 1093.23,-187.09"/>
</a>
</g>
</g>
<!-- Node20 -->
<g id="Node000020" class="node">
<title>Node20</title>
<g id="a_Node000020"><a xlink:href="../../d7/d40/list_8c.html#a0837532833bd96d83104386c1aa69c10" target="_top" xlink:title="How many elements are there in List.">
<polygon fill="white" stroke="#666666" points="950.38,-156.5 882.62,-156.5 882.62,-129.75 950.38,-129.75 950.38,-156.5"/>
<text text-anchor="middle" x="916.5" y="-137.3" font-family="Helvetica,sans-Serif" font-size="16.00">listSize</text>
</a>
</g>
</g>
<!-- Node19&#45;&gt;Node20 -->
<g id="edge13_Node000019_Node000020" class="edge">
<title>Node19&#45;&gt;Node20</title>
<g id="a_edge13_Node000019_Node000020"><a xlink:title=" ">
<path fill="none" stroke="#63b8ff" stroke-width="2" d="M486.41,-224.8C547.36,-249.94 687.1,-297.2 794.5,-255.12 839.48,-237.5 877.73,-194.44 898.59,-167.14"/>
<polygon fill="#63b8ff" stroke="#63b8ff" stroke-width="2" points="902.06,-168.98 905.19,-158.86 896.43,-164.82 902.06,-168.98"/>
</a>
</g>
</g>
<!-- Node21 -->
<g id="Node000021" class="node">
<title>Node21</title>
<g id="a_Node000021"><a xlink:href="../../d7/dba/menuutil_8c.html#a6229d06cea0b18a996e9f378719c56bb" target="_top" xlink:title="frees internal List of listView.">
<polygon fill="#fff0f0" stroke="red" points="752.88,-156.5 623.62,-156.5 623.62,-129.75 752.88,-129.75 752.88,-156.5"/>
<text text-anchor="middle" x="688.25" y="-137.3" font-family="Helvetica,sans-Serif" font-size="16.00">listViewFreeList</text>
</a>
</g>
</g>
<!-- Node19&#45;&gt;Node21 -->
<g id="edge14_Node000019_Node000021" class="edge">
<title>Node19&#45;&gt;Node21</title>
<g id="a_edge14_Node000019_Node000021"><a xlink:title=" ">
<path fill="none" stroke="#63b8ff" stroke-width="2" d="M514.37,-198.91C525.08,-195.91 536.02,-192.33 546,-188.12 563.28,-180.84 564.6,-173.11 582,-166.12 591.15,-162.45 601,-159.31 610.87,-156.64"/>
<polygon fill="#63b8ff" stroke="#63b8ff" stroke-width="2" points="612.48,-159.35 621.33,-153.52 610.78,-152.56 612.48,-159.35"/>
</a>
</g>
</g>
<!-- Node26 -->
<g id="Node000026" class="node">
<title>Node26</title>
<g id="a_Node000026"><a xlink:href="../../d7/dba/menuutil_8c.html#a5cf01d8794a16c8f4d79eed99ec0b560" target="_top" xlink:title="frees memory used by listView internal Menu">
<polygon fill="white" stroke="#666666" points="760.38,-246.5 616.12,-246.5 616.12,-219.75 760.38,-219.75 760.38,-246.5"/>
<text text-anchor="middle" x="688.25" y="-227.3" font-family="Helvetica,sans-Serif" font-size="16.00">listViewFreeMenu</text>
</a>
</g>
</g>
<!-- Node19&#45;&gt;Node26 -->
<g id="edge16_Node000019_Node000026" class="edge">
<title>Node19&#45;&gt;Node26</title>
<g id="a_edge16_Node000019_Node000026"><a xlink:title=" ">
<path fill="none" stroke="#63b8ff" stroke-width="2" d="M514.47,-216.7C541.3,-219.25 573.6,-222.32 602.96,-225.11"/>
<polygon fill="#63b8ff" stroke="#63b8ff" stroke-width="2" points="602.49,-228.87 612.78,-226.33 603.16,-221.9 602.49,-228.87"/>
</a>
</g>
</g>
<!-- Node27 -->
<g id="Node000027" class="node">
<title>Node27</title>
<g id="a_Node000027"><a xlink:href="../../d7/dba/menuutil_8c.html#a6154454b5c30466c33806a07ce7578d5" target="_top" xlink:title=" ">
<polygon fill="white" stroke="#666666" points="782.5,-201.5 594,-201.5 594,-174.75 782.5,-174.75 782.5,-201.5"/>
<text text-anchor="middle" x="688.25" y="-182.3" font-family="Helvetica,sans-Serif" font-size="16.00">listViewHandleIteraction</text>
</a>
</g>
</g>
<!-- Node19&#45;&gt;Node27 -->
<g id="edge17_Node000019_Node000027" class="edge">
<title>Node19&#45;&gt;Node27</title>
<g id="a_edge17_Node000019_Node000027"><a xlink:title=" ">
<path fill="none" stroke="#63b8ff" stroke-width="2" d="M514.47,-205.29C534.81,-203.27 558.29,-200.93 581.25,-198.65"/>
<polygon fill="#63b8ff" stroke="#63b8ff" stroke-width="2" points="581.33,-201.86 590.93,-197.39 580.63,-194.9 581.33,-201.86"/>
</a>
</g>
</g>
<!-- Node28 -->
<g id="Node000028" class="node">
<title>Node28</title>
<g id="a_Node000028"><a xlink:href="../../d7/dba/menuutil_8c.html#a06a2ceb28df68b49e42d701e49f324c9" target="_top" xlink:title="Allocates and fills MENU, based on List content.">
<polygon fill="#fff0f0" stroke="red" points="754.75,-66.5 621.75,-66.5 621.75,-39.75 754.75,-39.75 754.75,-66.5"/>
<text text-anchor="middle" x="688.25" y="-47.3" font-family="Helvetica,sans-Serif" font-size="16.00">listViewInitMenu</text>
</a>
</g>
</g>
<!-- Node19&#45;&gt;Node28 -->
<g id="edge18_Node000019_Node000028" class="edge">
<title>Node19&#45;&gt;Node28</title>
<g id="a_edge18_Node000019_Node000028"><a xlink:title=" ">
<path fill="none" stroke="#63b8ff" stroke-width="2" d="M514.52,-205.2C526.06,-201.7 537.28,-196.32 546,-188.12 584.09,-152.3 543.3,-111.28 582,-76.12 589.73,-69.1 599.09,-64.05 609,-60.44"/>
<polygon fill="#63b8ff" stroke="#63b8ff" stroke-width="2" points="610.74,-62.97 619.29,-56.72 608.71,-56.27 610.74,-62.97"/>
</a>
</g>
</g>
<!-- Node29 -->
<g id="Node000029" class="node">
<title>Node29</title>
<g id="a_Node000029"><a xlink:href="../../d7/dba/menuutil_8c.html#adc98ee6c310a6ad6286dde9a1426db38" target="_top" xlink:title="Prints header row of table.">
<polygon fill="white" stroke="#666666" points="765.25,-111.5 611.25,-111.5 611.25,-84.75 765.25,-84.75 765.25,-111.5"/>
<text text-anchor="middle" x="688.25" y="-92.3" font-family="Helvetica,sans-Serif" font-size="16.00">printColumnNames</text>
</a>
</g>
</g>
<!-- Node19&#45;&gt;Node29 -->
<g id="edge20_Node000019_Node000029" class="edge">
<title>Node19&#45;&gt;Node29</title>
<g id="a_edge20_Node000019_Node000029"><a xlink:title=" ">
<path fill="none" stroke="#63b8ff" stroke-width="2" d="M514.39,-203.67C525.68,-200.25 536.83,-195.29 546,-188.12 572.63,-167.3 555.02,-141.48 582,-121.12 587.19,-117.21 592.9,-113.93 598.91,-111.2"/>
<polygon fill="#63b8ff" stroke="#63b8ff" stroke-width="2" points="600.72,-114.47 608.76,-107.57 598.17,-107.95 600.72,-114.47"/>
</a>
</g>
</g>
<!-- Node21&#45;&gt;Node20 -->
<g id="edge15_Node000021_Node000020" class="edge">
<title>Node21&#45;&gt;Node20</title>
<g id="a_edge15_Node000021_Node000020"><a xlink:title=" ">
<path fill="none" stroke="#63b8ff" stroke-width="2" d="M753.18,-143.12C790.32,-143.12 836.26,-143.12 869.77,-143.12"/>
<polygon fill="#63b8ff" stroke="#63b8ff" stroke-width="2" points="869.41,-146.62 879.41,-143.12 869.41,-139.62 869.41,-146.62"/>
</a>
</g>
</g>
<!-- Node28&#45;&gt;Node20 -->
<g id="edge19_Node000028_Node000020" class="edge">
<title>Node28&#45;&gt;Node20</title>
<g id="a_edge19_Node000028_Node000020"><a xlink:title=" ">
<path fill="none" stroke="#63b8ff" stroke-width="2" d="M755.23,-64.46C768.44,-67.58 782.07,-71.44 794.5,-76.12 826.55,-88.2 860.46,-107.62 884.2,-122.45"/>
<polygon fill="#63b8ff" stroke="#63b8ff" stroke-width="2" points="882.66,-125.9 892.98,-128.31 886.42,-119.99 882.66,-125.9"/>
</a>
</g>
</g>
<!-- Node30&#45;&gt;Node12 -->
<g id="edge26_Node000030_Node000012" class="edge">
<title>Node30&#45;&gt;Node12</title>
<g id="a_edge26_Node000030_Node000012"><a xlink:title=" ">
<path fill="none" stroke="#63b8ff" stroke-width="2" d="M296.27,-518.99C399.39,-541.5 623.48,-577.12 794.5,-510.12 839.48,-492.5 877.73,-449.44 898.59,-422.14"/>
<polygon fill="#63b8ff" stroke="#63b8ff" stroke-width="2" points="902.06,-423.98 905.19,-413.86 896.43,-419.82 902.06,-423.98"/>
</a>
</g>
</g>
</g>
</svg>
