<?xml version="1.0" encoding="UTF-8" standalone="no"?>
<!DOCTYPE svg PUBLIC "-//W3C//DTD SVG 1.1//EN"
 "http://www.w3.org/Graphics/SVG/1.1/DTD/svg11.dtd">
<!-- Generated by graphviz version 8.0.5 (0)
 -->
<!-- Title: addClient Pages: 1 -->
<svg width="792pt" height="387pt"
 viewBox="0.00 0.00 792.00 386.75" xmlns="http://www.w3.org/2000/svg" xmlns:xlink="http://www.w3.org/1999/xlink">
<g id="graph0" class="graph" transform="scale(1 1) rotate(0) translate(4 382.75)">
<title>addClient</title>
<!-- Node1 -->
<g id="Node000001" class="node">
<title>Node1</title>
<g id="a_Node000001"><a xlink:title="function for adding client;">
<polygon fill="#999999" stroke="#666666" points="84.25,-132.75 0,-132.75 0,-106 84.25,-106 84.25,-132.75"/>
<text text-anchor="middle" x="42.12" y="-113.55" font-family="Helvetica,sans-Serif" font-size="16.00">addClient</text>
</a>
</g>
</g>
<!-- Node2 -->
<g id="Node000002" class="node">
<title>Node2</title>
<g id="a_Node000002"><a xlink:href="../../da/de9/clientsmenu_8c.html#a6edce5784156f2643efd7ccc086716e3" target="_top" xlink:title="Function for editing client.">
<polygon fill="white" stroke="#666666" points="263.38,-288.75 143.88,-288.75 143.88,-262 263.38,-262 263.38,-288.75"/>
<text text-anchor="middle" x="203.62" y="-269.55" font-family="Helvetica,sans-Serif" font-size="16.00">clientFormEdit</text>
</a>
</g>
</g>
<!-- Node1&#45;&gt;Node2 -->
<g id="edge1_Node000001_Node000002" class="edge">
<title>Node1&#45;&gt;Node2</title>
<g id="a_edge1_Node000001_Node000002"><a xlink:title=" ">
<path fill="none" stroke="#63b8ff" stroke-width="2" d="M56.37,-133.04C71.62,-148.72 97.52,-175.13 120.25,-197.38 139.6,-216.31 161.92,-237.4 178.44,-252.87"/>
<polygon fill="#63b8ff" stroke="#63b8ff" stroke-width="2" points="176.21,-255.44 185.9,-259.71 180.99,-250.33 176.21,-255.44"/>
</a>
</g>
</g>
<!-- Node11 -->
<g id="Node000011" class="node">
<title>Node11</title>
<g id="a_Node000011"><a xlink:href="../../dd/d93/client_8c.html#acd575326bfff582215541a74fc4a7bc7" target="_top" xlink:title="Dealloactes client.">
<polygon fill="white" stroke="#666666" points="247.25,-71.75 160,-71.75 160,-45 247.25,-45 247.25,-71.75"/>
<text text-anchor="middle" x="203.62" y="-52.55" font-family="Helvetica,sans-Serif" font-size="16.00">clientFree</text>
</a>
</g>
</g>
<!-- Node1&#45;&gt;Node11 -->
<g id="edge10_Node000001_Node000011" class="edge">
<title>Node1&#45;&gt;Node11</title>
<g id="a_edge10_Node000001_Node000011"><a xlink:title=" ">
<path fill="none" stroke="#63b8ff" stroke-width="2" d="M72.51,-105.61C86.78,-99.13 104.26,-91.5 120.25,-85.38 128.95,-82.04 138.25,-78.74 147.36,-75.66"/>
<polygon fill="#63b8ff" stroke="#63b8ff" stroke-width="2" points="149.2,-78.07 157.59,-71.6 147,-71.43 149.2,-78.07"/>
</a>
</g>
</g>
<!-- Node12 -->
<g id="Node000012" class="node">
<title>Node12</title>
<g id="a_Node000012"><a xlink:href="../../dd/d93/client_8c.html#a673f8913ce042048c6a8d7e77434dc18" target="_top" xlink:title="Checks if every field despite Client::m_ID in Client is set.">
<polygon fill="white" stroke="#666666" points="758.12,-139.75 622.12,-139.75 622.12,-113 758.12,-113 758.12,-139.75"/>
<text text-anchor="middle" x="690.12" y="-120.55" font-family="Helvetica,sans-Serif" font-size="16.00">clientIsComplete</text>
</a>
</g>
</g>
<!-- Node1&#45;&gt;Node12 -->
<g id="edge11_Node000001_Node000012" class="edge">
<title>Node1&#45;&gt;Node12</title>
<g id="a_edge11_Node000001_Node000012"><a xlink:title=" ">
<path fill="none" stroke="#63b8ff" stroke-width="2" d="M84.7,-118.37C172.54,-116.44 383.47,-112.89 560.25,-118.38 576.07,-118.87 592.97,-119.69 609.15,-120.64"/>
<polygon fill="#63b8ff" stroke="#63b8ff" stroke-width="2" points="608.75,-124.3 618.94,-121.41 609.17,-117.31 608.75,-124.3"/>
</a>
</g>
</g>
<!-- Node13 -->
<g id="Node000013" class="node">
<title>Node13</title>
<g id="a_Node000013"><a xlink:href="../../dd/d93/client_8c.html#a2ecd1e440fb6f0c7ceb787859a7d284a" target="_top" xlink:title="Allocates and returns client containing nothing.">
<polygon fill="white" stroke="#666666" points="246.5,-26.75 160.75,-26.75 160.75,0 246.5,0 246.5,-26.75"/>
<text text-anchor="middle" x="203.62" y="-7.55" font-family="Helvetica,sans-Serif" font-size="16.00">clientNew</text>
</a>
</g>
</g>
<!-- Node1&#45;&gt;Node13 -->
<g id="edge12_Node000001_Node000013" class="edge">
<title>Node1&#45;&gt;Node13</title>
<g id="a_edge12_Node000001_Node000013"><a xlink:title=" ">
<path fill="none" stroke="#63b8ff" stroke-width="2" d="M52.13,-105.72C65.03,-87.23 90.52,-54.49 120.25,-36.38 128.81,-31.16 138.58,-27.1 148.33,-23.94"/>
<polygon fill="#63b8ff" stroke="#63b8ff" stroke-width="2" points="149.94,-26.54 158.58,-20.41 148,-19.82 149.94,-26.54"/>
</a>
</g>
</g>
<!-- Node14 -->
<g id="Node000014" class="node">
<title>Node14</title>
<g id="a_Node000014"><a xlink:href="../../d3/df4/dbhandle_8c.html#a10cc2cd742cf382f48c04428af09189f" target="_top" xlink:title="Insert client into db.">
<polygon fill="white" stroke="#666666" points="287,-153.75 120.25,-153.75 120.25,-127 287,-127 287,-153.75"/>
<text text-anchor="middle" x="203.62" y="-134.55" font-family="Helvetica,sans-Serif" font-size="16.00">dbHandleClientInsert</text>
</a>
</g>
</g>
<!-- Node1&#45;&gt;Node14 -->
<g id="edge13_Node000001_Node000014" class="edge">
<title>Node1&#45;&gt;Node14</title>
<g id="a_edge13_Node000001_Node000014"><a xlink:title=" ">
<path fill="none" stroke="#63b8ff" stroke-width="2" d="M84.62,-124.84C91.68,-125.77 99.27,-126.77 107.06,-127.79"/>
<polygon fill="#63b8ff" stroke="#63b8ff" stroke-width="2" points="106.51,-131.65 116.88,-129.48 107.42,-124.71 106.51,-131.65"/>
</a>
</g>
</g>
<!-- Node16 -->
<g id="Node000016" class="node">
<title>Node16</title>
<g id="a_Node000016"><a xlink:href="../../d7/dba/menuutil_8c.html#ae6ed898f3726361b1edde3f8707f0260" target="_top" xlink:title="Displays message box on the screen with title and message.">
<polygon fill="white" stroke="#666666" points="527.62,-198.75 355.62,-198.75 355.62,-172 527.62,-172 527.62,-198.75"/>
<text text-anchor="middle" x="441.62" y="-179.55" font-family="Helvetica,sans-Serif" font-size="16.00">menuUtilMessagebox</text>
</a>
</g>
</g>
<!-- Node1&#45;&gt;Node16 -->
<g id="edge20_Node000001_Node000016" class="edge">
<title>Node1&#45;&gt;Node16</title>
<g id="a_edge20_Node000001_Node000016"><a xlink:title=" ">
<path fill="none" stroke="#63b8ff" stroke-width="2" d="M62.35,-133.24C77.34,-143.24 99.1,-156.06 120.25,-162.38 192.64,-183.99 278.12,-189.17 342.58,-189.25"/>
<polygon fill="#63b8ff" stroke="#63b8ff" stroke-width="2" points="342.19,-192.74 352.18,-189.21 342.17,-185.74 342.19,-192.74"/>
</a>
</g>
</g>
<!-- Node3 -->
<g id="Node000003" class="node">
<title>Node3</title>
<g id="a_Node000003"><a xlink:href="../../da/de9/clientsmenu_8c.html#af8ed08faae79e3f75c324827415a5793" target="_top" xlink:title="Parse form.">
<polygon fill="white" stroke="#666666" points="508.5,-333.75 374.75,-333.75 374.75,-307 508.5,-307 508.5,-333.75"/>
<text text-anchor="middle" x="441.62" y="-314.55" font-family="Helvetica,sans-Serif" font-size="16.00">clientFormParse</text>
</a>
</g>
</g>
<!-- Node2&#45;&gt;Node3 -->
<g id="edge2_Node000002_Node000003" class="edge">
<title>Node2&#45;&gt;Node3</title>
<g id="a_edge2_Node000002_Node000003"><a xlink:title=" ">
<path fill="none" stroke="#63b8ff" stroke-width="2" d="M263.87,-286.67C293.53,-292.33 329.82,-299.25 361.79,-305.34"/>
<polygon fill="#63b8ff" stroke="#63b8ff" stroke-width="2" points="361.79,-309.29 372.27,-307.72 363.1,-302.41 361.79,-309.29"/>
</a>
</g>
</g>
<!-- Node4 -->
<g id="Node000004" class="node">
<title>Node4</title>
<g id="a_Node000004"><a xlink:href="../../d7/dba/menuutil_8c.html#a1c0a1284f839b7e790c8234b3778e065" target="_top" xlink:title="Frees memory used for form, and it&#39;s fields.">
<polygon fill="white" stroke="#666666" points="482.25,-288.75 401,-288.75 401,-262 482.25,-262 482.25,-288.75"/>
<text text-anchor="middle" x="441.62" y="-269.55" font-family="Helvetica,sans-Serif" font-size="16.00">formFree</text>
</a>
</g>
</g>
<!-- Node2&#45;&gt;Node4 -->
<g id="edge3_Node000002_Node000004" class="edge">
<title>Node2&#45;&gt;Node4</title>
<g id="a_edge3_Node000002_Node000004"><a xlink:title=" ">
<path fill="none" stroke="#63b8ff" stroke-width="2" d="M263.87,-275.38C301.94,-275.38 350.95,-275.38 387.7,-275.38"/>
<polygon fill="#63b8ff" stroke="#63b8ff" stroke-width="2" points="387.65,-278.88 397.65,-275.38 387.65,-271.88 387.65,-278.88"/>
</a>
</g>
</g>
<!-- Node5 -->
<g id="Node000005" class="node">
<title>Node5</title>
<g id="a_Node000005"><a xlink:href="../../d7/dba/menuutil_8c.html#a6cfb2b5b15b5e79df457b5c902c3bf7d" target="_top" xlink:title="Initialize FORM.">
<polygon fill="white" stroke="#666666" points="476.62,-243.75 406.62,-243.75 406.62,-217 476.62,-217 476.62,-243.75"/>
<text text-anchor="middle" x="441.62" y="-224.55" font-family="Helvetica,sans-Serif" font-size="16.00">formInit</text>
</a>
</g>
</g>
<!-- Node2&#45;&gt;Node5 -->
<g id="edge4_Node000002_Node000005" class="edge">
<title>Node2&#45;&gt;Node5</title>
<g id="a_edge4_Node000002_Node000005"><a xlink:title=" ">
<path fill="none" stroke="#63b8ff" stroke-width="2" d="M263.87,-264.08C304.06,-256.42 356.44,-246.43 393.73,-239.32"/>
<polygon fill="#63b8ff" stroke="#63b8ff" stroke-width="2" points="395.07,-242.24 404.24,-236.93 393.76,-235.37 395.07,-242.24"/>
</a>
</g>
</g>
<!-- Node6 -->
<g id="Node000006" class="node">
<title>Node6</title>
<g id="a_Node000006"><a xlink:href="../../d7/dba/menuutil_8c.html#af8f262005a4975cc6ccc3423d939f910" target="_top" xlink:title="Put form on screen in nice looking form.">
<polygon fill="white" stroke="#666666" points="489.75,-378.75 393.5,-378.75 393.5,-352 489.75,-352 489.75,-378.75"/>
<text text-anchor="middle" x="441.62" y="-359.55" font-family="Helvetica,sans-Serif" font-size="16.00">formInvoke</text>
</a>
</g>
</g>
<!-- Node2&#45;&gt;Node6 -->
<g id="edge5_Node000002_Node000006" class="edge">
<title>Node2&#45;&gt;Node6</title>
<g id="a_edge5_Node000002_Node000006"><a xlink:title=" ">
<path fill="none" stroke="#63b8ff" stroke-width="2" d="M224.19,-289.08C246.91,-304.36 286.01,-328.7 323,-342.38 341.16,-349.09 361.65,-353.96 380.39,-357.44"/>
<polygon fill="#63b8ff" stroke="#63b8ff" stroke-width="2" points="380.57,-361.37 391.02,-359.63 381.77,-354.47 380.57,-361.37"/>
</a>
</g>
</g>
<!-- Node7 -->
<g id="Node000007" class="node">
<title>Node7</title>
<g id="a_Node000007"><a xlink:href="../../d7/dba/menuutil_8c.html#ab9a65295e184f9f64ea1431f8c2e36b2" target="_top" xlink:title="Manages input in the form.">
<polygon fill="white" stroke="#666666" points="773.12,-378.75 607.12,-378.75 607.12,-352 773.12,-352 773.12,-378.75"/>
<text text-anchor="middle" x="690.12" y="-359.55" font-family="Helvetica,sans-Serif" font-size="16.00">formHandleIteraction</text>
</a>
</g>
</g>
<!-- Node6&#45;&gt;Node7 -->
<g id="edge6_Node000006_Node000007" class="edge">
<title>Node6&#45;&gt;Node7</title>
<g id="a_edge6_Node000006_Node000007"><a xlink:title=" ">
<path fill="none" stroke="#63b8ff" stroke-width="2" d="M490.15,-365.38C519.56,-365.38 558.35,-365.38 593.87,-365.38"/>
<polygon fill="#63b8ff" stroke="#63b8ff" stroke-width="2" points="593.79,-368.88 603.79,-365.38 593.79,-361.88 593.79,-368.88"/>
</a>
</g>
</g>
<!-- Node8 -->
<g id="Node000008" class="node">
<title>Node8</title>
<g id="a_Node000008"><a xlink:href="../../d7/dba/menuutil_8c.html#ac6b71fcc47a9cdec8ac08b98e754239c" target="_top" xlink:title="Get length of longest string in array of strings.">
<polygon fill="white" stroke="#666666" points="784,-322.75 596.25,-322.75 596.25,-296 784,-296 784,-322.75"/>
<text text-anchor="middle" x="690.12" y="-303.55" font-family="Helvetica,sans-Serif" font-size="16.00">getLongestStringLength</text>
</a>
</g>
</g>
<!-- Node6&#45;&gt;Node8 -->
<g id="edge7_Node000006_Node000008" class="edge">
<title>Node6&#45;&gt;Node8</title>
<g id="a_edge7_Node000006_Node000008"><a xlink:title=" ">
<path fill="none" stroke="#63b8ff" stroke-width="2" d="M489.97,-356.76C511.48,-352.68 537.21,-347.57 560.25,-342.38 581.52,-337.58 604.63,-331.83 625.33,-326.49"/>
<polygon fill="#63b8ff" stroke="#63b8ff" stroke-width="2" points="627.07,-329.13 635.87,-323.22 625.31,-322.35 627.07,-329.13"/>
</a>
</g>
</g>
<!-- Node9 -->
<g id="Node000009" class="node">
<title>Node9</title>
<g id="a_Node000009"><a xlink:href="../../d7/dba/menuutil_8c.html#a9941ed217da0309cd9453bdb776d5c51" target="_top" xlink:title="Add basic functionality to the shitty language which C is.">
<polygon fill="white" stroke="#666666" points="713.5,-255.75 666.75,-255.75 666.75,-229 713.5,-229 713.5,-255.75"/>
<text text-anchor="middle" x="690.12" y="-236.55" font-family="Helvetica,sans-Serif" font-size="16.00">max</text>
</a>
</g>
</g>
<!-- Node6&#45;&gt;Node9 -->
<g id="edge8_Node000006_Node000009" class="edge">
<title>Node6&#45;&gt;Node9</title>
<g id="a_edge8_Node000006_Node000009"><a xlink:title=" ">
<path fill="none" stroke="#63b8ff" stroke-width="2" d="M489.98,-364.54C512.84,-362.14 539.7,-356.2 560.25,-342.38 584.49,-326.07 574.31,-306.67 596.25,-287.38 613.17,-272.5 635.87,-261.38 654.59,-253.92"/>
<polygon fill="#63b8ff" stroke="#63b8ff" stroke-width="2" points="656.38,-257.23 664.51,-250.44 653.92,-250.68 656.38,-257.23"/>
</a>
</g>
</g>
<!-- Node10 -->
<g id="Node000010" class="node">
<title>Node10</title>
<g id="a_Node000010"><a xlink:href="../../d7/dba/menuutil_8c.html#a14ca6bd9893f550a2051ca6cd5a689ac" target="_top" xlink:title="Print boarders of window.">
<polygon fill="white" stroke="#666666" points="775,-204.75 605.25,-204.75 605.25,-178 775,-178 775,-204.75"/>
<text text-anchor="middle" x="690.12" y="-185.55" font-family="Helvetica,sans-Serif" font-size="16.00">printWindowBoarders</text>
</a>
</g>
</g>
<!-- Node6&#45;&gt;Node10 -->
<g id="edge9_Node000006_Node000010" class="edge">
<title>Node6&#45;&gt;Node10</title>
<g id="a_edge9_Node000006_Node000010"><a xlink:title=" ">
<path fill="none" stroke="#63b8ff" stroke-width="2" d="M490.14,-367.11C513.88,-365.49 541.48,-359.46 560.25,-342.38 602.06,-304.32 556.59,-260.66 596.25,-220.38 599.59,-216.99 603.31,-213.99 607.3,-211.35"/>
<polygon fill="#63b8ff" stroke="#63b8ff" stroke-width="2" points="609.38,-214.07 616.39,-206.13 605.96,-207.96 609.38,-214.07"/>
</a>
</g>
</g>
<!-- Node15 -->
<g id="Node000015" class="node">
<title>Node15</title>
<g id="a_Node000015"><a xlink:href="../../d3/df4/dbhandle_8c.html#aa047043390f11acf01f2c50504d8bf77" target="_top" xlink:title="Given client, get string containing SQL query that would add that client to DB.">
<polygon fill="white" stroke="#666666" points="560.25,-153.75 323,-153.75 323,-127 560.25,-127 560.25,-153.75"/>
<text text-anchor="middle" x="441.62" y="-134.55" font-family="Helvetica,sans-Serif" font-size="16.00">dbHandleGetClientInsertQuery</text>
</a>
</g>
</g>
<!-- Node14&#45;&gt;Node15 -->
<g id="edge14_Node000014_Node000015" class="edge">
<title>Node14&#45;&gt;Node15</title>
<g id="a_edge14_Node000014_Node000015"><a xlink:title=" ">
<path fill="none" stroke="#63b8ff" stroke-width="2" d="M287.5,-140.38C294.82,-140.38 302.33,-140.38 309.92,-140.38"/>
<polygon fill="#63b8ff" stroke="#63b8ff" stroke-width="2" points="309.73,-143.88 319.73,-140.38 309.73,-136.88 309.73,-143.88"/>
</a>
</g>
</g>
<!-- Node14&#45;&gt;Node16 -->
<g id="edge16_Node000014_Node000016" class="edge">
<title>Node14&#45;&gt;Node16</title>
<g id="a_edge16_Node000014_Node000016"><a xlink:title=" ">
<path fill="none" stroke="#63b8ff" stroke-width="2" d="M277.36,-154.24C302.04,-158.95 329.83,-164.25 355.39,-169.12"/>
<polygon fill="#63b8ff" stroke="#63b8ff" stroke-width="2" points="355.65,-173.12 366.13,-171.55 356.96,-166.24 355.65,-173.12"/>
</a>
</g>
</g>
<!-- Node15&#45;&gt;Node12 -->
<g id="edge15_Node000015_Node000012" class="edge">
<title>Node15&#45;&gt;Node12</title>
<g id="a_edge15_Node000015_Node000012"><a xlink:title=" ">
<path fill="none" stroke="#63b8ff" stroke-width="2" d="M560.46,-133.68C576.9,-132.75 593.47,-131.81 608.99,-130.93"/>
<polygon fill="#63b8ff" stroke="#63b8ff" stroke-width="2" points="608.98,-134.26 618.76,-130.2 608.58,-127.27 608.98,-134.26"/>
</a>
</g>
</g>
<!-- Node16&#45;&gt;Node8 -->
<g id="edge17_Node000016_Node000008" class="edge">
<title>Node16&#45;&gt;Node8</title>
<g id="a_edge17_Node000016_Node000008"><a xlink:title=" ">
<path fill="none" stroke="#63b8ff" stroke-width="2" d="M527.87,-193.48C539.36,-196.96 550.52,-201.77 560.25,-208.38 584.73,-224.99 574.11,-244.75 596.25,-264.38 608.09,-274.87 622.8,-283.48 637.01,-290.25"/>
<polygon fill="#63b8ff" stroke="#63b8ff" stroke-width="2" points="636.19,-293.61 646.74,-294.51 639.05,-287.23 636.19,-293.61"/>
</a>
</g>
</g>
<!-- Node16&#45;&gt;Node9 -->
<g id="edge18_Node000016_Node000009" class="edge">
<title>Node16&#45;&gt;Node9</title>
<g id="a_edge18_Node000016_Node000009"><a xlink:title=" ">
<path fill="none" stroke="#63b8ff" stroke-width="2" d="M517.45,-199.25C531.7,-202.11 546.46,-205.21 560.25,-208.38 592.13,-215.69 628.1,-225.29 653.92,-232.43"/>
<polygon fill="#63b8ff" stroke="#63b8ff" stroke-width="2" points="653.85,-236.6 664.42,-235.91 655.73,-229.85 653.85,-236.6"/>
</a>
</g>
</g>
<!-- Node16&#45;&gt;Node10 -->
<g id="edge19_Node000016_Node000010" class="edge">
<title>Node16&#45;&gt;Node10</title>
<g id="a_edge19_Node000016_Node000010"><a xlink:title=" ">
<path fill="none" stroke="#63b8ff" stroke-width="2" d="M527.8,-187.45C548.53,-187.95 570.85,-188.5 592.08,-189.01"/>
<polygon fill="#63b8ff" stroke="#63b8ff" stroke-width="2" points="591.7,-192.58 601.78,-189.32 591.87,-185.58 591.7,-192.58"/>
</a>
</g>
</g>
</g>
</svg>
