<?xml version="1.0" encoding="UTF-8" standalone="no"?>
<!DOCTYPE svg PUBLIC "-//W3C//DTD SVG 1.1//EN"
 "http://www.w3.org/Graphics/SVG/1.1/DTD/svg11.dtd">
<!-- Generated by graphviz version 8.0.5 (0)
 -->
<!-- Title: clientFormEdit Pages: 1 -->
<svg width="581pt" height="80pt"
 viewBox="0.00 0.00 581.25 79.75" xmlns="http://www.w3.org/2000/svg" xmlns:xlink="http://www.w3.org/1999/xlink">
<g id="graph0" class="graph" transform="scale(1 1) rotate(0) translate(4 75.75)">
<title>clientFormEdit</title>
<!-- Node1 -->
<g id="Node000001" class="node">
<title>Node1</title>
<g id="a_Node000001"><a xlink:title="Function for editing client.">
<polygon fill="#999999" stroke="#666666" points="573.25,-48.75 453.75,-48.75 453.75,-22 573.25,-22 573.25,-48.75"/>
<text text-anchor="middle" x="513.5" y="-29.55" font-family="Helvetica,sans-Serif" font-size="16.00">clientFormEdit</text>
</a>
</g>
</g>
<!-- Node2 -->
<g id="Node000002" class="node">
<title>Node2</title>
<g id="a_Node000002"><a xlink:href="../../da/de9/clientsmenu_8c.html#a37a5ed3b8a63a9497f34682ce7db3126" target="_top" xlink:title="function for adding client;">
<polygon fill="white" stroke="#666666" points="417.75,-71.75 333.5,-71.75 333.5,-45 417.75,-45 417.75,-71.75"/>
<text text-anchor="middle" x="375.62" y="-52.55" font-family="Helvetica,sans-Serif" font-size="16.00">addClient</text>
</a>
</g>
</g>
<!-- Node1&#45;&gt;Node2 -->
<g id="edge1_Node000001_Node000002" class="edge">
<title>Node1&#45;&gt;Node2</title>
<g id="a_edge1_Node000001_Node000002"><a xlink:title=" ">
<path fill="none" stroke="#63b8ff" stroke-width="2" d="M440.71,-47.53C432.96,-48.84 425.29,-50.14 418.08,-51.36"/>
<polygon fill="#63b8ff" stroke="#63b8ff" stroke-width="2" points="442.02,-50.52 451.3,-45.4 440.85,-43.61 442.02,-50.52"/>
</a>
</g>
</g>
<!-- Node10 -->
<g id="Node000010" class="node">
<title>Node10</title>
<g id="a_Node000010"><a xlink:href="../../da/de9/clientsmenu_8c.html#a3785053dd7fa7ee54cb52674dadf5941" target="_top" xlink:title="Edit client.">
<polygon fill="white" stroke="#666666" points="416.62,-26.75 334.62,-26.75 334.62,0 416.62,0 416.62,-26.75"/>
<text text-anchor="middle" x="375.62" y="-7.55" font-family="Helvetica,sans-Serif" font-size="16.00">clientEdit</text>
</a>
</g>
</g>
<!-- Node1&#45;&gt;Node10 -->
<g id="edge4_Node000001_Node000010" class="edge">
<title>Node1&#45;&gt;Node10</title>
<g id="a_edge4_Node000001_Node000010"><a xlink:title=" ">
<path fill="none" stroke="#63b8ff" stroke-width="2" d="M440.54,-23.72C432.42,-22.41 424.38,-21.11 416.88,-19.89"/>
<polygon fill="#63b8ff" stroke="#63b8ff" stroke-width="2" points="440.87,-27.65 451.3,-25.79 441.99,-20.74 440.87,-27.65"/>
</a>
</g>
</g>
<!-- Node3 -->
<g id="Node000003" class="node">
<title>Node3</title>
<g id="a_Node000003"><a xlink:href="../../da/de9/clientsmenu_8c.html#ad2a8354e045a2d4deb82f4b3b20ad5a4" target="_top" xlink:title="Handles displaying of clients menu.">
<polygon fill="white" stroke="#666666" points="297.5,-48.75 194.5,-48.75 194.5,-22 297.5,-22 297.5,-48.75"/>
<text text-anchor="middle" x="246" y="-29.55" font-family="Helvetica,sans-Serif" font-size="16.00">clientsMenu</text>
</a>
</g>
</g>
<!-- Node2&#45;&gt;Node3 -->
<g id="edge2_Node000002_Node000003" class="edge">
<title>Node2&#45;&gt;Node3</title>
<g id="a_edge2_Node000002_Node000003"><a xlink:title=" ">
<path fill="none" stroke="#63b8ff" stroke-width="2" d="M320.61,-48.64C312.98,-47.27 305.16,-45.86 297.59,-44.49"/>
<polygon fill="#63b8ff" stroke="#63b8ff" stroke-width="2" points="320.73,-52.58 331.19,-50.91 321.97,-45.69 320.73,-52.58"/>
</a>
</g>
</g>
<!-- Node4 -->
<g id="Node000004" class="node">
<title>Node4</title>
<g id="a_Node000004"><a xlink:href="../../de/dc9/mmenu_8c.html#a315bc1f41a79da39147ec73e38cfc9e7" target="_top" xlink:title="Handles main menu.">
<polygon fill="#fff0f0" stroke="red" points="158.5,-48.75 0,-48.75 0,-22 158.5,-22 158.5,-48.75"/>
<text text-anchor="middle" x="79.25" y="-29.55" font-family="Helvetica,sans-Serif" font-size="16.00">mainMenuSelection</text>
</a>
</g>
</g>
<!-- Node3&#45;&gt;Node4 -->
<g id="edge3_Node000003_Node000004" class="edge">
<title>Node3&#45;&gt;Node4</title>
<g id="a_edge3_Node000003_Node000004"><a xlink:title=" ">
<path fill="none" stroke="#63b8ff" stroke-width="2" d="M181.23,-35.38C173.86,-35.38 166.27,-35.38 158.73,-35.38"/>
<polygon fill="#63b8ff" stroke="#63b8ff" stroke-width="2" points="181.23,-38.88 191.23,-35.38 181.23,-31.88 181.23,-38.88"/>
</a>
</g>
</g>
<!-- Node10&#45;&gt;Node3 -->
<g id="edge5_Node000010_Node000003" class="edge">
<title>Node10&#45;&gt;Node3</title>
<g id="a_edge5_Node000010_Node000003"><a xlink:title=" ">
<path fill="none" stroke="#63b8ff" stroke-width="2" d="M321.71,-22.5C313.84,-23.85 305.73,-25.25 297.9,-26.6"/>
<polygon fill="#63b8ff" stroke="#63b8ff" stroke-width="2" points="322.98,-25.48 332.24,-20.34 321.79,-18.59 322.98,-25.48"/>
</a>
</g>
</g>
</g>
</svg>
