<?xml version="1.0" encoding="UTF-8" standalone="no"?>
<!DOCTYPE svg PUBLIC "-//W3C//DTD SVG 1.1//EN"
 "http://www.w3.org/Graphics/SVG/1.1/DTD/svg11.dtd">
<!-- Generated by graphviz version 8.0.5 (0)
 -->
<!-- Title: clientFormParse Pages: 1 -->
<svg width="557pt" height="80pt"
 viewBox="0.00 0.00 556.50 79.75" xmlns="http://www.w3.org/2000/svg" xmlns:xlink="http://www.w3.org/1999/xlink">
<g id="graph0" class="graph" transform="scale(1 1) rotate(0) translate(4 75.75)">
<title>clientFormParse</title>
<!-- Node1 -->
<g id="Node000001" class="node">
<title>Node1</title>
<g id="a_Node000001"><a xlink:title="Parse form.">
<polygon fill="#999999" stroke="#666666" points="548.5,-48.75 414.75,-48.75 414.75,-22 548.5,-22 548.5,-48.75"/>
<text text-anchor="middle" x="481.62" y="-29.55" font-family="Helvetica,sans-Serif" font-size="16.00">clientFormParse</text>
</a>
</g>
</g>
<!-- Node2 -->
<g id="Node000002" class="node">
<title>Node2</title>
<g id="a_Node000002"><a xlink:href="../../da/de9/clientsmenu_8c.html#a6edce5784156f2643efd7ccc086716e3" target="_top" xlink:title="Function for editing client.">
<polygon fill="white" stroke="#666666" points="378.75,-48.75 259.25,-48.75 259.25,-22 378.75,-22 378.75,-48.75"/>
<text text-anchor="middle" x="319" y="-29.55" font-family="Helvetica,sans-Serif" font-size="16.00">clientFormEdit</text>
</a>
</g>
</g>
<!-- Node1&#45;&gt;Node2 -->
<g id="edge1_Node000001_Node000002" class="edge">
<title>Node1&#45;&gt;Node2</title>
<g id="a_edge1_Node000001_Node000002"><a xlink:title=" ">
<path fill="none" stroke="#63b8ff" stroke-width="2" d="M401.4,-35.38C393.91,-35.38 386.42,-35.38 379.17,-35.38"/>
<polygon fill="#63b8ff" stroke="#63b8ff" stroke-width="2" points="401.37,-38.88 411.37,-35.38 401.37,-31.88 401.37,-38.88"/>
</a>
</g>
</g>
<!-- Node3 -->
<g id="Node000003" class="node">
<title>Node3</title>
<g id="a_Node000003"><a xlink:href="../../da/de9/clientsmenu_8c.html#a37a5ed3b8a63a9497f34682ce7db3126" target="_top" xlink:title="function for adding client;">
<polygon fill="white" stroke="#666666" points="223.25,-71.75 139,-71.75 139,-45 223.25,-45 223.25,-71.75"/>
<text text-anchor="middle" x="181.12" y="-52.55" font-family="Helvetica,sans-Serif" font-size="16.00">addClient</text>
</a>
</g>
</g>
<!-- Node2&#45;&gt;Node3 -->
<g id="edge2_Node000002_Node000003" class="edge">
<title>Node2&#45;&gt;Node3</title>
<g id="a_edge2_Node000002_Node000003"><a xlink:title=" ">
<path fill="none" stroke="#63b8ff" stroke-width="2" d="M246.21,-47.53C238.46,-48.84 230.79,-50.14 223.58,-51.36"/>
<polygon fill="#63b8ff" stroke="#63b8ff" stroke-width="2" points="247.52,-50.52 256.8,-45.4 246.35,-43.61 247.52,-50.52"/>
</a>
</g>
</g>
<!-- Node11 -->
<g id="Node000011" class="node">
<title>Node11</title>
<g id="a_Node000011"><a xlink:href="../../da/de9/clientsmenu_8c.html#a3785053dd7fa7ee54cb52674dadf5941" target="_top" xlink:title="Edit client.">
<polygon fill="white" stroke="#666666" points="222.12,-26.75 140.12,-26.75 140.12,0 222.12,0 222.12,-26.75"/>
<text text-anchor="middle" x="181.12" y="-7.55" font-family="Helvetica,sans-Serif" font-size="16.00">clientEdit</text>
</a>
</g>
</g>
<!-- Node2&#45;&gt;Node11 -->
<g id="edge4_Node000002_Node000011" class="edge">
<title>Node2&#45;&gt;Node11</title>
<g id="a_edge4_Node000002_Node000011"><a xlink:title=" ">
<path fill="none" stroke="#63b8ff" stroke-width="2" d="M246.04,-23.72C237.92,-22.41 229.88,-21.11 222.38,-19.89"/>
<polygon fill="#63b8ff" stroke="#63b8ff" stroke-width="2" points="246.37,-27.65 256.8,-25.79 247.49,-20.74 246.37,-27.65"/>
</a>
</g>
</g>
<!-- Node4 -->
<g id="Node000004" class="node">
<title>Node4</title>
<g id="a_Node000004"><a xlink:href="../../da/de9/clientsmenu_8c.html#ad2a8354e045a2d4deb82f4b3b20ad5a4" target="_top" xlink:title="Handles displaying of clients menu.">
<polygon fill="#fff0f0" stroke="red" points="103,-48.75 0,-48.75 0,-22 103,-22 103,-48.75"/>
<text text-anchor="middle" x="51.5" y="-29.55" font-family="Helvetica,sans-Serif" font-size="16.00">clientsMenu</text>
</a>
</g>
</g>
<!-- Node3&#45;&gt;Node4 -->
<g id="edge3_Node000003_Node000004" class="edge">
<title>Node3&#45;&gt;Node4</title>
<g id="a_edge3_Node000003_Node000004"><a xlink:title=" ">
<path fill="none" stroke="#63b8ff" stroke-width="2" d="M126.11,-48.64C118.48,-47.27 110.66,-45.86 103.09,-44.49"/>
<polygon fill="#63b8ff" stroke="#63b8ff" stroke-width="2" points="126.23,-52.58 136.69,-50.91 127.47,-45.69 126.23,-52.58"/>
</a>
</g>
</g>
<!-- Node11&#45;&gt;Node4 -->
<g id="edge5_Node000011_Node000004" class="edge">
<title>Node11&#45;&gt;Node4</title>
<g id="a_edge5_Node000011_Node000004"><a xlink:title=" ">
<path fill="none" stroke="#63b8ff" stroke-width="2" d="M127.21,-22.5C119.34,-23.85 111.23,-25.25 103.4,-26.6"/>
<polygon fill="#63b8ff" stroke="#63b8ff" stroke-width="2" points="128.48,-25.48 137.74,-20.34 127.29,-18.59 128.48,-25.48"/>
</a>
</g>
</g>
</g>
</svg>
