<?xml version="1.0" encoding="UTF-8" standalone="no"?>
<!DOCTYPE svg PUBLIC "-//W3C//DTD SVG 1.1//EN"
 "http://www.w3.org/Graphics/SVG/1.1/DTD/svg11.dtd">
<!-- Generated by graphviz version 8.0.5 (0)
 -->
<!-- Title: clientChooseNoReturn Pages: 1 -->
<!--zoomable 507 -->

<svg id="main" version="1.1" xmlns="http://www.w3.org/2000/svg" xmlns:xlink="http://www.w3.org/1999/xlink" xml:space="preserve" onload="init(evt)">
<style type="text/css"><![CDATA[
.node, .edge {opacity: 0.7;}
.node.selected, .edge.selected {opacity: 1;}
.edge:hover path { stroke: red; }
.edge:hover polygon { stroke: red; fill: red; }
]]></style>

<defs>
  <circle id="rim" cx="0" cy="0" r="7"/>
  <circle id="rim2" cx="0" cy="0" r="3.5"/>
  <g id="zoomPlus">
    <use xlink:href="#rim" fill="#404040"><set attributeName="fill" to="#808080" begin="zoomplus.mouseover" end="zoomplus.mouseout"/></use>
    <path d="M-4,0h8M0,-4v8" fill="none" stroke="white" stroke-width="1.5" pointer-events="none"/>
  </g>
  <g id="zoomMin">
    <use xlink:href="#rim" fill="#404040"><set attributeName="fill" to="#808080" begin="zoomminus.mouseover" end="zoomminus.mouseout"/></use>
    <path d="M-4,0h8" fill="none" stroke="white" stroke-width="1.5" pointer-events="none"/>
  </g>
  <g id="arrowUp" transform="translate(30 24)">
    <use xlink:href="#rim"/>
    <path pointer-events="none" fill="none" stroke="white" stroke-width="1.5" d="M0,-3.0v7 M-2.5,-0.5L0,-3.0L2.5,-0.5"/>
  </g>
  <g id="arrowRight" transform="rotate(90) translate(36 -43)">
    <use xlink:href="#rim"/>
    <path pointer-events="none" fill="none" stroke="white" stroke-width="1.5" d="M0,-3.0v7 M-2.5,-0.5L0,-3.0L2.5,-0.5"/>
  </g>
  <g id="arrowDown" transform="rotate(180) translate(-30 -48)">
    <use xlink:href="#rim"/>
    <path pointer-events="none" fill="none" stroke="white" stroke-width="1.5" d="M0,-3.0v7 M-2.5,-0.5L0,-3.0L2.5,-0.5"/>
  </g>
  <g id="arrowLeft" transform="rotate(270) translate(-36 17)">
    <use xlink:href="#rim"/>
    <path pointer-events="none" fill="none" stroke="white" stroke-width="1.5" d="M0,-3.0v7 M-2.5,-0.5L0,-3.0L2.5,-0.5"/>
  </g>
  <g id="resetDef">
    <use xlink:href="#rim2" fill="#404040"><set attributeName="fill" to="#808080" begin="reset.mouseover" end="reset.mouseout"/></use>
  </g>
</defs>
<script type="application/ecmascript">
var viewWidth = 1213;
var viewHeight = 507;
var sectionId = 'dynsection-5';
</script>
<script type="application/ecmascript" xlink:href="../../svg.min.js"/>
<svg id="graph" class="graph">
<g id="viewport">
<title>clientChooseNoReturn</title>
<!-- Node1 -->
<g id="Node000001" class="node">
<title>Node1</title>
<g id="a_Node000001"><a xlink:title="Wrapper around clientChoose frees extracted client instanntly.">
<polygon fill="#999999" stroke="#666666" points="178,-387.75 0,-387.75 0,-361 178,-361 178,-387.75"/>
<text text-anchor="middle" x="89" y="-368.55" font-family="Helvetica,sans-Serif" font-size="16.00">clientChooseNoReturn</text>
</a>
</g>
</g>
<!-- Node2 -->
<g id="Node000002" class="node">
<title>Node2</title>
<g id="a_Node000002"><a xlink:href="../../da/de9/clientsmenu_8c.html#a1d711b31a5a18af01cdd582e537ff921" target="_top" xlink:title="Invokes ListView of clients.">
<polygon fill="white" stroke="#666666" points="323.75,-367.75 214,-367.75 214,-341 323.75,-341 323.75,-367.75"/>
<text text-anchor="middle" x="268.88" y="-348.55" font-family="Helvetica,sans-Serif" font-size="16.00">clientChoose</text>
</a>
</g>
</g>
<!-- Node1&#45;&gt;Node2 -->
<g id="edge1_Node000001_Node000002" class="edge">
<title>Node1&#45;&gt;Node2</title>
<g id="a_edge1_Node000001_Node000002"><a xlink:title=" ">
<path fill="none" stroke="#63b8ff" stroke-width="2" d="M178.42,-364.43C185.94,-363.59 193.46,-362.74 200.78,-361.92"/>
<polygon fill="#63b8ff" stroke="#63b8ff" stroke-width="2" points="201.12,-365.07 210.67,-360.47 200.34,-358.11 201.12,-365.07"/>
</a>
</g>
</g>
<!-- Node3 -->
<g id="Node000003" class="node">
<title>Node3</title>
<g id="a_Node000003"><a xlink:href="../../dd/d93/client_8c.html#acd575326bfff582215541a74fc4a7bc7" target="_top" xlink:title="Dealloactes client.">
<polygon fill="white" stroke="#666666" points="494.62,-453.75 407.38,-453.75 407.38,-427 494.62,-427 494.62,-453.75"/>
<text text-anchor="middle" x="451" y="-434.55" font-family="Helvetica,sans-Serif" font-size="16.00">clientFree</text>
</a>
</g>
</g>
<!-- Node1&#45;&gt;Node3 -->
<g id="edge23_Node000001_Node000003" class="edge">
<title>Node1&#45;&gt;Node3</title>
<g id="a_edge23_Node000001_Node000003"><a xlink:title=" ">
<path fill="none" stroke="#63b8ff" stroke-width="2" d="M165.47,-388.21C233.9,-400.76 333.17,-418.96 394.55,-430.21"/>
<polygon fill="#63b8ff" stroke="#63b8ff" stroke-width="2" points="394.58,-434.14 405.04,-432.5 395.84,-427.25 394.58,-434.14"/>
</a>
</g>
</g>
<!-- Node2&#45;&gt;Node3 -->
<g id="edge2_Node000002_Node000003" class="edge">
<title>Node2&#45;&gt;Node3</title>
<g id="a_edge2_Node000002_Node000003"><a xlink:title=" ">
<path fill="none" stroke="#63b8ff" stroke-width="2" d="M285.67,-368.15C302.81,-382.42 331.52,-404.41 359.75,-417.38 370.65,-422.38 382.81,-426.41 394.58,-429.62"/>
<polygon fill="#63b8ff" stroke="#63b8ff" stroke-width="2" points="394.58,-433.73 405.13,-432.78 396.29,-426.95 394.58,-433.73"/>
</a>
</g>
</g>
<!-- Node4 -->
<g id="Node000004" class="node">
<title>Node4</title>
<g id="a_Node000004"><a xlink:href="../../dd/d93/client_8c.html#ae9344815031f09e5f54986014cea5f29" target="_top" xlink:title="Get list of clients.">
<polygon fill="white" stroke="#666666" points="504,-408.75 398,-408.75 398,-382 504,-382 504,-408.75"/>
<text text-anchor="middle" x="451" y="-389.55" font-family="Helvetica,sans-Serif" font-size="16.00">clientGetList</text>
</a>
</g>
</g>
<!-- Node2&#45;&gt;Node4 -->
<g id="edge3_Node000002_Node000004" class="edge">
<title>Node2&#45;&gt;Node4</title>
<g id="a_edge3_Node000002_Node000004"><a xlink:title=" ">
<path fill="none" stroke="#63b8ff" stroke-width="2" d="M323.92,-366.68C343.14,-371.05 364.97,-376.02 385.01,-380.58"/>
<polygon fill="#63b8ff" stroke="#63b8ff" stroke-width="2" points="385.02,-384.63 395.54,-383.43 386.57,-377.8 385.02,-384.63"/>
</a>
</g>
</g>
<!-- Node12 -->
<g id="Node000012" class="node">
<title>Node12</title>
<g id="a_Node000012"><a xlink:href="../../d7/dba/menuutil_8c.html#ae6ed898f3726361b1edde3f8707f0260" target="_top" xlink:title="Displays message box on the screen with title and message.">
<polygon fill="#fff0f0" stroke="red" points="998.75,-367.75 826.75,-367.75 826.75,-341 998.75,-341 998.75,-367.75"/>
<text text-anchor="middle" x="912.75" y="-348.55" font-family="Helvetica,sans-Serif" font-size="16.00">menuUtilMessagebox</text>
</a>
</g>
</g>
<!-- Node2&#45;&gt;Node12 -->
<g id="edge22_Node000002_Node000012" class="edge">
<title>Node2&#45;&gt;Node12</title>
<g id="a_edge22_Node000002_Node000012"><a xlink:title=" ">
<path fill="none" stroke="#63b8ff" stroke-width="2" d="M324.05,-354.38C432.24,-354.38 676.41,-354.38 813.54,-354.38"/>
<polygon fill="#63b8ff" stroke="#63b8ff" stroke-width="2" points="813.47,-357.88 823.47,-354.38 813.47,-350.88 813.47,-357.88"/>
</a>
</g>
</g>
<!-- Node16 -->
<g id="Node000016" class="node">
<title>Node16</title>
<g id="a_Node000016"><a xlink:href="../../da/de9/clientsmenu_8c.html#a25908570659c30ef67cf297ef0af107e" target="_top" xlink:title="Given client generates string repesenting client string in listView friendly format....">
<polygon fill="white" stroke="#666666" points="542.25,-326.75 359.75,-326.75 359.75,-300 542.25,-300 542.25,-326.75"/>
<text text-anchor="middle" x="451" y="-307.55" font-family="Helvetica,sans-Serif" font-size="16.00">clientGetListViewString</text>
</a>
</g>
</g>
<!-- Node2&#45;&gt;Node16 -->
<g id="edge9_Node000002_Node000016" class="edge">
<title>Node2&#45;&gt;Node16</title>
<g id="a_edge9_Node000002_Node000016"><a xlink:title=" ">
<path fill="none" stroke="#63b8ff" stroke-width="2" d="M323.92,-342.07C340.43,-338.32 358.87,-334.12 376.45,-330.12"/>
<polygon fill="#63b8ff" stroke="#63b8ff" stroke-width="2" points="378.08,-332.88 387.05,-327.25 376.53,-326.05 378.08,-332.88"/>
</a>
</g>
</g>
<!-- Node17 -->
<g id="Node000017" class="node">
<title>Node17</title>
<g id="a_Node000017"><a xlink:href="../../da/de9/clientsmenu_8c.html#a12535dbea3961ee9186a47a4988d2208" target="_top" xlink:title="extract client given ListNode.">
<polygon fill="white" stroke="#666666" points="504,-281.75 398,-281.75 398,-255 504,-255 504,-281.75"/>
<text text-anchor="middle" x="451" y="-262.55" font-family="Helvetica,sans-Serif" font-size="16.00">extractClient</text>
</a>
</g>
</g>
<!-- Node2&#45;&gt;Node17 -->
<g id="edge10_Node000002_Node000017" class="edge">
<title>Node2&#45;&gt;Node17</title>
<g id="a_edge10_Node000002_Node000017"><a xlink:title=" ">
<path fill="none" stroke="#63b8ff" stroke-width="2" d="M285.67,-340.6C302.81,-326.33 331.52,-304.34 359.75,-291.38 367.84,-287.66 376.62,-284.48 385.43,-281.78"/>
<polygon fill="#63b8ff" stroke="#63b8ff" stroke-width="2" points="387.16,-284.36 395.82,-278.26 385.25,-277.62 387.16,-284.36"/>
</a>
</g>
</g>
<!-- Node19 -->
<g id="Node000019" class="node">
<title>Node19</title>
<g id="a_Node000019"><a xlink:href="../../d7/dba/menuutil_8c.html#aca301edf9d04aa391571851b148355ba" target="_top" xlink:title="List Viewer for lists.">
<polygon fill="white" stroke="#666666" points="510.38,-184.75 391.62,-184.75 391.62,-158 510.38,-158 510.38,-184.75"/>
<text text-anchor="middle" x="451" y="-165.55" font-family="Helvetica,sans-Serif" font-size="16.00">listViewInvoke</text>
</a>
</g>
</g>
<!-- Node2&#45;&gt;Node19 -->
<g id="edge12_Node000002_Node000019" class="edge">
<title>Node2&#45;&gt;Node19</title>
<g id="a_edge12_Node000002_Node000019"><a xlink:title=" ">
<path fill="none" stroke="#63b8ff" stroke-width="2" d="M279.93,-340.74C295.82,-319.56 328.17,-277.93 359.75,-246.38 379.14,-226.99 403.09,-207.26 421.44,-192.9"/>
<polygon fill="#63b8ff" stroke="#63b8ff" stroke-width="2" points="423.75,-195 429.52,-186.12 419.47,-189.46 423.75,-195"/>
</a>
</g>
</g>
<!-- Node5 -->
<g id="Node000005" class="node">
<title>Node5</title>
<g id="a_Node000005"><a xlink:href="../../dd/d93/client_8c.html#a903cc00cfe46a85c92b09861aba1f26c" target="_top" xlink:title="CallBack function for dbHandleGetResultAsList . Transforms row into Client.">
<polygon fill="#fff0f0" stroke="red" points="790.75,-498.75 578.25,-498.75 578.25,-472 790.75,-472 790.75,-498.75"/>
<text text-anchor="middle" x="684.5" y="-479.55" font-family="Helvetica,sans-Serif" font-size="16.00">clientGetListQueryCallback</text>
</a>
</g>
</g>
<!-- Node4&#45;&gt;Node5 -->
<g id="edge4_Node000004_Node000005" class="edge">
<title>Node4&#45;&gt;Node5</title>
<g id="a_edge4_Node000004_Node000005"><a xlink:title=" ">
<path fill="none" stroke="#63b8ff" stroke-width="2" d="M504.43,-402.81C517.47,-406.21 530.93,-411.16 542.25,-418.38 563.56,-431.95 556.71,-449.17 578.25,-462.38 580.52,-463.77 582.87,-465.08 585.27,-466.31"/>
<polygon fill="#63b8ff" stroke="#63b8ff" stroke-width="2" points="584.34,-469.62 594.89,-470.52 587.2,-463.23 584.34,-469.62"/>
</a>
</g>
</g>
<!-- Node9 -->
<g id="Node000009" class="node">
<title>Node9</title>
<g id="a_Node000009"><a xlink:href="../../dd/d93/client_8c.html#aca1c3909e30e8a13a7f49a0bc74640bd" target="_top" xlink:title="Generates SQL query.">
<polygon fill="white" stroke="#666666" points="770.12,-453.75 598.88,-453.75 598.88,-427 770.12,-427 770.12,-453.75"/>
<text text-anchor="middle" x="684.5" y="-434.55" font-family="Helvetica,sans-Serif" font-size="16.00">clientGetQueryOfSort</text>
</a>
</g>
</g>
<!-- Node4&#45;&gt;Node9 -->
<g id="edge5_Node000004_Node000009" class="edge">
<title>Node4&#45;&gt;Node9</title>
<g id="a_edge5_Node000004_Node000009"><a xlink:title=" ">
<path fill="none" stroke="#63b8ff" stroke-width="2" d="M504.24,-405.53C532.38,-411 567.77,-417.88 599.65,-424.08"/>
<polygon fill="#63b8ff" stroke="#63b8ff" stroke-width="2" points="599.66,-428.03 610.14,-426.5 600.99,-421.16 599.66,-428.03"/>
</a>
</g>
</g>
<!-- Node10 -->
<g id="Node000010" class="node">
<title>Node10</title>
<g id="a_Node000010"><a xlink:href="../../d3/df4/dbhandle_8c.html#a93d9b43b32495dc8630963c174aeba05" target="_top" xlink:title="Given query and callback function create List based on the query.">
<polygon fill="#fff0f0" stroke="red" points="785.12,-408.75 583.88,-408.75 583.88,-382 785.12,-382 785.12,-408.75"/>
<text text-anchor="middle" x="684.5" y="-389.55" font-family="Helvetica,sans-Serif" font-size="16.00">dbHandleGetResultAsList</text>
</a>
</g>
</g>
<!-- Node4&#45;&gt;Node10 -->
<g id="edge6_Node000004_Node000010" class="edge">
<title>Node4&#45;&gt;Node10</title>
<g id="a_edge6_Node000004_Node000010"><a xlink:title=" ">
<path fill="none" stroke="#63b8ff" stroke-width="2" d="M504.24,-395.38C524.05,-395.38 547.44,-395.38 570.68,-395.38"/>
<polygon fill="#63b8ff" stroke="#63b8ff" stroke-width="2" points="570.55,-398.88 580.55,-395.38 570.55,-391.88 570.55,-398.88"/>
</a>
</g>
</g>
<!-- Node10&#45;&gt;Node12 -->
<g id="edge7_Node000010_Node000012" class="edge">
<title>Node10&#45;&gt;Node12</title>
<g id="a_edge7_Node000010_Node000012"><a xlink:title=" ">
<path fill="none" stroke="#63b8ff" stroke-width="2" d="M761.78,-381.55C781.34,-378.01 802.55,-374.16 822.7,-370.51"/>
<polygon fill="#63b8ff" stroke="#63b8ff" stroke-width="2" points="824.2,-373.44 833.41,-368.21 822.95,-366.55 824.2,-373.44"/>
</a>
</g>
</g>
<!-- Node15 -->
<g id="Node000015" class="node">
<title>Node15</title>
<g id="a_Node000015"><a xlink:href="../../d7/dba/menuutil_8c.html#a14ca6bd9893f550a2051ca6cd5a689ac" target="_top" xlink:title="Print boarders of window.">
<polygon fill="white" stroke="#666666" points="1204.5,-326.75 1034.75,-326.75 1034.75,-300 1204.5,-300 1204.5,-326.75"/>
<text text-anchor="middle" x="1119.62" y="-307.55" font-family="Helvetica,sans-Serif" font-size="16.00">printWindowBoarders</text>
</a>
</g>
</g>
<!-- Node12&#45;&gt;Node15 -->
<g id="edge8_Node000012_Node000015" class="edge">
<title>Node12&#45;&gt;Node15</title>
<g id="a_edge8_Node000012_Node000015"><a xlink:title=" ">
<path fill="none" stroke="#63b8ff" stroke-width="2" d="M982.83,-340.55C1000.2,-337.07 1019.02,-333.31 1036.95,-329.72"/>
<polygon fill="#63b8ff" stroke="#63b8ff" stroke-width="2" points="1038.38,-332.6 1047.5,-327.21 1037.01,-325.74 1038.38,-332.6"/>
</a>
</g>
</g>
<!-- Node18 -->
<g id="Node000018" class="node">
<title>Node18</title>
<g id="a_Node000018"><a xlink:href="../../dd/d93/client_8c.html#ad02c9ee4fe2e382b42ce897135f738af" target="_top" xlink:title="make Clone of Client. It allocates memory internaly.">
<polygon fill="#fff0f0" stroke="red" points="732.62,-326.75 636.38,-326.75 636.38,-300 732.62,-300 732.62,-326.75"/>
<text text-anchor="middle" x="684.5" y="-307.55" font-family="Helvetica,sans-Serif" font-size="16.00">clientClone</text>
</a>
</g>
</g>
<!-- Node17&#45;&gt;Node18 -->
<g id="edge11_Node000017_Node000018" class="edge">
<title>Node17&#45;&gt;Node18</title>
<g id="a_edge11_Node000017_Node000018"><a xlink:title=" ">
<path fill="none" stroke="#63b8ff" stroke-width="2" d="M504.24,-278.53C539.67,-285.42 586.6,-294.54 623.55,-301.72"/>
<polygon fill="#63b8ff" stroke="#63b8ff" stroke-width="2" points="623.69,-305.7 634.17,-304.17 625.02,-298.83 623.69,-305.7"/>
</a>
</g>
</g>
<!-- Node19&#45;&gt;Node15 -->
<g id="edge21_Node000019_Node000015" class="edge">
<title>Node19&#45;&gt;Node15</title>
<g id="a_edge21_Node000019_Node000015"><a xlink:title=" ">
<path fill="none" stroke="#63b8ff" stroke-width="2" d="M473.9,-185.01C498.39,-199.6 539.69,-222.28 578.25,-234.38 728.79,-281.61 911.96,-300.81 1021.72,-308.47"/>
<polygon fill="#63b8ff" stroke="#63b8ff" stroke-width="2" points="1021.19,-312.15 1031.4,-309.33 1021.66,-305.17 1021.19,-312.15"/>
</a>
</g>
</g>
<!-- Node20 -->
<g id="Node000020" class="node">
<title>Node20</title>
<g id="a_Node000020"><a xlink:href="../../d7/d40/list_8c.html#a0837532833bd96d83104386c1aa69c10" target="_top" xlink:title="How many elements are there in List.">
<polygon fill="white" stroke="#666666" points="946.62,-206.75 878.88,-206.75 878.88,-180 946.62,-180 946.62,-206.75"/>
<text text-anchor="middle" x="912.75" y="-187.55" font-family="Helvetica,sans-Serif" font-size="16.00">listSize</text>
</a>
</g>
</g>
<!-- Node19&#45;&gt;Node20 -->
<g id="edge13_Node000019_Node000020" class="edge">
<title>Node19&#45;&gt;Node20</title>
<g id="a_edge13_Node000019_Node000020"><a xlink:title=" ">
<path fill="none" stroke="#63b8ff" stroke-width="2" d="M482.37,-185.2C507.47,-195.83 544.38,-209.64 578.25,-215.38 671.37,-231.14 696.69,-223.86 790.75,-215.38 815.81,-213.11 843.45,-208.27 865.97,-203.7"/>
<polygon fill="#63b8ff" stroke="#63b8ff" stroke-width="2" points="867.51,-206.54 876.59,-201.07 866.08,-199.69 867.51,-206.54"/>
</a>
</g>
</g>
<!-- Node21 -->
<g id="Node000021" class="node">
<title>Node21</title>
<g id="a_Node000021"><a xlink:href="../../d7/dba/menuutil_8c.html#a6229d06cea0b18a996e9f378719c56bb" target="_top" xlink:title="frees internal List of listView.">
<polygon fill="#fff0f0" stroke="red" points="749.12,-206.75 619.88,-206.75 619.88,-180 749.12,-180 749.12,-206.75"/>
<text text-anchor="middle" x="684.5" y="-187.55" font-family="Helvetica,sans-Serif" font-size="16.00">listViewFreeList</text>
</a>
</g>
</g>
<!-- Node19&#45;&gt;Node21 -->
<g id="edge14_Node000019_Node000021" class="edge">
<title>Node19&#45;&gt;Node21</title>
<g id="a_edge14_Node000019_Node000021"><a xlink:title=" ">
<path fill="none" stroke="#63b8ff" stroke-width="2" d="M510.72,-176.95C539.91,-179.73 575.57,-183.12 606.89,-186.09"/>
<polygon fill="#63b8ff" stroke="#63b8ff" stroke-width="2" points="606.27,-189.84 616.56,-187.3 606.93,-182.87 606.27,-189.84"/>
</a>
</g>
</g>
<!-- Node26 -->
<g id="Node000026" class="node">
<title>Node26</title>
<g id="a_Node000026"><a xlink:href="../../d7/dba/menuutil_8c.html#a5cf01d8794a16c8f4d79eed99ec0b560" target="_top" xlink:title="frees memory used by listView internal Menu">
<polygon fill="white" stroke="#666666" points="756.62,-161.75 612.38,-161.75 612.38,-135 756.62,-135 756.62,-161.75"/>
<text text-anchor="middle" x="684.5" y="-142.55" font-family="Helvetica,sans-Serif" font-size="16.00">listViewFreeMenu</text>
</a>
</g>
</g>
<!-- Node19&#45;&gt;Node26 -->
<g id="edge16_Node000019_Node000026" class="edge">
<title>Node19&#45;&gt;Node26</title>
<g id="a_edge16_Node000019_Node000026"><a xlink:title=" ">
<path fill="none" stroke="#63b8ff" stroke-width="2" d="M510.72,-165.54C537.55,-162.88 569.85,-159.67 599.21,-156.75"/>
<polygon fill="#63b8ff" stroke="#63b8ff" stroke-width="2" points="599.43,-159.95 609.03,-155.48 598.73,-152.98 599.43,-159.95"/>
</a>
</g>
</g>
<!-- Node27 -->
<g id="Node000027" class="node">
<title>Node27</title>
<g id="a_Node000027"><a xlink:href="../../d7/dba/menuutil_8c.html#a6154454b5c30466c33806a07ce7578d5" target="_top" xlink:title=" ">
<polygon fill="white" stroke="#666666" points="778.75,-116.75 590.25,-116.75 590.25,-90 778.75,-90 778.75,-116.75"/>
<text text-anchor="middle" x="684.5" y="-97.55" font-family="Helvetica,sans-Serif" font-size="16.00">listViewHandleIteraction</text>
</a>
</g>
</g>
<!-- Node19&#45;&gt;Node27 -->
<g id="edge17_Node000019_Node000027" class="edge">
<title>Node19&#45;&gt;Node27</title>
<g id="a_edge17_Node000019_Node000027"><a xlink:title=" ">
<path fill="none" stroke="#63b8ff" stroke-width="2" d="M486.98,-157.55C512.11,-147.96 546.93,-135.34 578.25,-126.38 585.8,-124.21 593.71,-122.14 601.65,-120.19"/>
<polygon fill="#63b8ff" stroke="#63b8ff" stroke-width="2" points="603.2,-122.94 612.12,-117.22 601.58,-116.13 603.2,-122.94"/>
</a>
</g>
</g>
<!-- Node28 -->
<g id="Node000028" class="node">
<title>Node28</title>
<g id="a_Node000028"><a xlink:href="../../d7/dba/menuutil_8c.html#a06a2ceb28df68b49e42d701e49f324c9" target="_top" xlink:title="Allocates and fills MENU, based on List content.">
<polygon fill="#fff0f0" stroke="red" points="751,-71.75 618,-71.75 618,-45 751,-45 751,-71.75"/>
<text text-anchor="middle" x="684.5" y="-52.55" font-family="Helvetica,sans-Serif" font-size="16.00">listViewInitMenu</text>
</a>
</g>
</g>
<!-- Node19&#45;&gt;Node28 -->
<g id="edge18_Node000019_Node000028" class="edge">
<title>Node19&#45;&gt;Node28</title>
<g id="a_edge18_Node000019_Node000028"><a xlink:title=" ">
<path fill="none" stroke="#63b8ff" stroke-width="2" d="M466.69,-157.81C489.04,-137.93 533.71,-101.12 578.25,-81.38 586.71,-77.62 595.84,-74.46 605.06,-71.8"/>
<polygon fill="#63b8ff" stroke="#63b8ff" stroke-width="2" points="606.85,-74.42 615.62,-68.48 605.06,-67.65 606.85,-74.42"/>
</a>
</g>
</g>
<!-- Node29 -->
<g id="Node000029" class="node">
<title>Node29</title>
<g id="a_Node000029"><a xlink:href="../../d7/dba/menuutil_8c.html#adc98ee6c310a6ad6286dde9a1426db38" target="_top" xlink:title="Prints header row of table.">
<polygon fill="white" stroke="#666666" points="761.5,-26.75 607.5,-26.75 607.5,0 761.5,0 761.5,-26.75"/>
<text text-anchor="middle" x="684.5" y="-7.55" font-family="Helvetica,sans-Serif" font-size="16.00">printColumnNames</text>
</a>
</g>
</g>
<!-- Node19&#45;&gt;Node29 -->
<g id="edge20_Node000019_Node000029" class="edge">
<title>Node19&#45;&gt;Node29</title>
<g id="a_edge20_Node000019_Node000029"><a xlink:title=" ">
<path fill="none" stroke="#63b8ff" stroke-width="2" d="M460.54,-157.73C478.62,-130.08 523.58,-67.46 578.25,-36.38 583.56,-33.36 589.23,-30.73 595.08,-28.45"/>
<polygon fill="#63b8ff" stroke="#63b8ff" stroke-width="2" points="596.96,-30.81 605.28,-24.24 594.68,-24.2 596.96,-30.81"/>
</a>
</g>
</g>
<!-- Node21&#45;&gt;Node20 -->
<g id="edge15_Node000021_Node000020" class="edge">
<title>Node21&#45;&gt;Node20</title>
<g id="a_edge15_Node000021_Node000020"><a xlink:title=" ">
<path fill="none" stroke="#63b8ff" stroke-width="2" d="M749.43,-193.38C786.57,-193.38 832.51,-193.38 866.02,-193.38"/>
<polygon fill="#63b8ff" stroke="#63b8ff" stroke-width="2" points="865.66,-196.88 875.66,-193.38 865.66,-189.88 865.66,-196.88"/>
</a>
</g>
</g>
<!-- Node28&#45;&gt;Node20 -->
<g id="edge19_Node000028_Node000020" class="edge">
<title>Node28&#45;&gt;Node20</title>
<g id="a_edge19_Node000028_Node000020"><a xlink:title=" ">
<path fill="none" stroke="#63b8ff" stroke-width="2" d="M751.4,-67.15C764.89,-70.47 778.65,-75.06 790.75,-81.38 832.9,-103.37 871.3,-143.98 893.06,-169.78"/>
<polygon fill="#63b8ff" stroke="#63b8ff" stroke-width="2" points="891.02,-172.02 900.08,-177.52 896.43,-167.57 891.02,-172.02"/>
</a>
</g>
</g>
</g>
</svg>

<g id="navigator" transform="translate(0 0)" fill="#404254">
  <rect fill="#f2f5e9" fill-opacity="0.5" stroke="#606060" stroke-width=".5" x="0" y="0" width="60" height="60"/>
  <use id="zoomplus" xlink:href="#zoomPlus" x="17" y="9" onmousedown="handleZoom(evt,'in')"/>
  <use id="zoomminus" xlink:href="#zoomMin" x="42" y="9" onmousedown="handleZoom(evt,'out')"/>
  <use id="reset" xlink:href="#resetDef" x="30" y="36" onmousedown="handleReset()"/>
   <use id="arrowup" xlink:href="#arrowUp" x="0" y="0" onmousedown="handlePan(0,-1)"/>
  <use id="arrowright" xlink:href="#arrowRight" x="0" y="0" onmousedown="handlePan(1,0)"/>
  <use id="arrowdown" xlink:href="#arrowDown" x="0" y="0" onmousedown="handlePan(0,1)"/>
  <use id="arrowleft" xlink:href="#arrowLeft" x="0" y="0" onmousedown="handlePan(-1,0)"/>
</g>
<svg viewBox="0 0 15 15" width="100%" height="30px" preserveAspectRatio="xMaxYMin meet">
 <g id="arrow_out" transform="scale(0.3 0.3)">
  <a xlink:href="clientsmenu_8c_a1aa5fbc029a7e320bf6f6c3a2e6e27cc_cgraph_org.svg" target="_base">
   <rect id="button" ry="5" rx="5" y="6" x="6" height="38" width="38"
        fill="#f2f5e9" fill-opacity="0.5" stroke="#606060" stroke-width="1.0"/>
   <path id="arrow"
     d="M 11.500037,31.436501 C 11.940474,20.09759 22.043105,11.32322 32.158766,21.979434 L 37.068811,17.246167 C 37.068811,17.246167 37.088388,32 37.088388,32 L 22.160133,31.978069 C 22.160133,31.978069 26.997745,27.140456 26.997745,27.140456 C 18.528582,18.264221 13.291696,25.230495 11.500037,31.436501 z"
     style="fill:#404040;"/>
  </a>
 </g>
</svg>

<style type='text/css'>
<![CDATA[
[data-mouse-over-selected='false'] { opacity: 0.7; }
[data-mouse-over-selected='true']  { opacity: 1.0; }
]]>
</style>
<script type="application/ecmascript"><![CDATA[
document.addEventListener('DOMContentLoaded', (event) => {
  highlightEdges();
  highlightAdjacentNodes();
});
]]></script>
</svg>
