<?xml version="1.0" encoding="UTF-8" standalone="no"?>
<!DOCTYPE svg PUBLIC "-//W3C//DTD SVG 1.1//EN"
 "http://www.w3.org/Graphics/SVG/1.1/DTD/svg11.dtd">
<!-- Generated by graphviz version 8.0.5 (0)
 -->
<!-- Title: clientEdit Pages: 1 -->
<!--zoomable 557 -->

<svg id="main" version="1.1" xmlns="http://www.w3.org/2000/svg" xmlns:xlink="http://www.w3.org/1999/xlink" xml:space="preserve" onload="init(evt)">
<style type="text/css"><![CDATA[
.node, .edge {opacity: 0.7;}
.node.selected, .edge.selected {opacity: 1;}
.edge:hover path { stroke: red; }
.edge:hover polygon { stroke: red; fill: red; }
]]></style>

<defs>
  <circle id="rim" cx="0" cy="0" r="7"/>
  <circle id="rim2" cx="0" cy="0" r="3.5"/>
  <g id="zoomPlus">
    <use xlink:href="#rim" fill="#404040"><set attributeName="fill" to="#808080" begin="zoomplus.mouseover" end="zoomplus.mouseout"/></use>
    <path d="M-4,0h8M0,-4v8" fill="none" stroke="white" stroke-width="1.5" pointer-events="none"/>
  </g>
  <g id="zoomMin">
    <use xlink:href="#rim" fill="#404040"><set attributeName="fill" to="#808080" begin="zoomminus.mouseover" end="zoomminus.mouseout"/></use>
    <path d="M-4,0h8" fill="none" stroke="white" stroke-width="1.5" pointer-events="none"/>
  </g>
  <g id="arrowUp" transform="translate(30 24)">
    <use xlink:href="#rim"/>
    <path pointer-events="none" fill="none" stroke="white" stroke-width="1.5" d="M0,-3.0v7 M-2.5,-0.5L0,-3.0L2.5,-0.5"/>
  </g>
  <g id="arrowRight" transform="rotate(90) translate(36 -43)">
    <use xlink:href="#rim"/>
    <path pointer-events="none" fill="none" stroke="white" stroke-width="1.5" d="M0,-3.0v7 M-2.5,-0.5L0,-3.0L2.5,-0.5"/>
  </g>
  <g id="arrowDown" transform="rotate(180) translate(-30 -48)">
    <use xlink:href="#rim"/>
    <path pointer-events="none" fill="none" stroke="white" stroke-width="1.5" d="M0,-3.0v7 M-2.5,-0.5L0,-3.0L2.5,-0.5"/>
  </g>
  <g id="arrowLeft" transform="rotate(270) translate(-36 17)">
    <use xlink:href="#rim"/>
    <path pointer-events="none" fill="none" stroke="white" stroke-width="1.5" d="M0,-3.0v7 M-2.5,-0.5L0,-3.0L2.5,-0.5"/>
  </g>
  <g id="resetDef">
    <use xlink:href="#rim2" fill="#404040"><set attributeName="fill" to="#808080" begin="reset.mouseover" end="reset.mouseout"/></use>
  </g>
</defs>
<script type="application/ecmascript">
var viewWidth = 979;
var viewHeight = 557;
var sectionId = 'dynsection-7';
</script>
<script type="application/ecmascript" xlink:href="../../svg.min.js"/>
<svg id="graph" class="graph">
<g id="viewport">
<title>clientEdit</title>
<!-- Node1 -->
<g id="Node000001" class="node">
<title>Node1</title>
<g id="a_Node000001"><a xlink:title="Edit client.">
<polygon fill="#999999" stroke="#666666" points="82,-226.66 0,-226.66 0,-199.91 82,-199.91 82,-226.66"/>
<text text-anchor="middle" x="41" y="-207.46" font-family="Helvetica,sans-Serif" font-size="16.00">clientEdit</text>
</a>
</g>
</g>
<!-- Node2 -->
<g id="Node000002" class="node">
<title>Node2</title>
<g id="a_Node000002"><a xlink:href="../../da/de9/clientsmenu_8c.html#a1d711b31a5a18af01cdd582e537ff921" target="_top" xlink:title="Invokes ListView of clients.">
<polygon fill="white" stroke="#666666" points="261.88,-353.66 152.12,-353.66 152.12,-326.91 261.88,-326.91 261.88,-353.66"/>
<text text-anchor="middle" x="207" y="-334.46" font-family="Helvetica,sans-Serif" font-size="16.00">clientChoose</text>
</a>
</g>
</g>
<!-- Node1&#45;&gt;Node2 -->
<g id="edge1_Node000001_Node000002" class="edge">
<title>Node1&#45;&gt;Node2</title>
<g id="a_edge1_Node000001_Node000002"><a xlink:title=" ">
<path fill="none" stroke="#63b8ff" stroke-width="2" d="M59.86,-227.11C88.33,-249.16 144.21,-292.43 178.02,-318.61"/>
<polygon fill="#63b8ff" stroke="#63b8ff" stroke-width="2" points="176.11,-322.11 186.16,-325.47 180.4,-316.58 176.11,-322.11"/>
</a>
</g>
</g>
<!-- Node3 -->
<g id="Node000003" class="node">
<title>Node3</title>
<g id="a_Node000003"><a xlink:href="../../dd/d93/client_8c.html#acd575326bfff582215541a74fc4a7bc7" target="_top" xlink:title="Dealloactes client.">
<polygon fill="white" stroke="#666666" points="466.88,-484.66 379.62,-484.66 379.62,-457.91 466.88,-457.91 466.88,-484.66"/>
<text text-anchor="middle" x="423.25" y="-465.46" font-family="Helvetica,sans-Serif" font-size="16.00">clientFree</text>
</a>
</g>
</g>
<!-- Node1&#45;&gt;Node3 -->
<g id="edge22_Node000001_Node000003" class="edge">
<title>Node1&#45;&gt;Node3</title>
<g id="a_edge22_Node000001_Node000003"><a xlink:title=" ">
<path fill="none" stroke="#63b8ff" stroke-width="2" d="M45.4,-226.79C53.31,-255.57 75.56,-323.49 118,-362.28 188.56,-426.79 299.98,-453.71 366.61,-464.51"/>
<polygon fill="#63b8ff" stroke="#63b8ff" stroke-width="2" points="366.89,-468.4 377.31,-466.46 367.95,-461.48 366.89,-468.4"/>
</a>
</g>
</g>
<!-- Node18 -->
<g id="Node000018" class="node">
<title>Node18</title>
<g id="a_Node000018"><a xlink:href="../../dd/d93/client_8c.html#ad02c9ee4fe2e382b42ce897135f738af" target="_top" xlink:title="make Clone of Client. It allocates memory internaly.">
<polygon fill="#fff0f0" stroke="red" points="704.88,-246.66 608.62,-246.66 608.62,-219.91 704.88,-219.91 704.88,-246.66"/>
<text text-anchor="middle" x="656.75" y="-227.46" font-family="Helvetica,sans-Serif" font-size="16.00">clientClone</text>
</a>
</g>
</g>
<!-- Node1&#45;&gt;Node18 -->
<g id="edge16_Node000001_Node000018" class="edge">
<title>Node1&#45;&gt;Node18</title>
<g id="a_edge16_Node000001_Node000018"><a xlink:title=" ">
<path fill="none" stroke="#63b8ff" stroke-width="2" d="M82.27,-214.59C187.38,-218.02 470.5,-227.25 595.28,-231.31"/>
<polygon fill="#63b8ff" stroke="#63b8ff" stroke-width="2" points="595.17,-234.91 605.28,-231.73 595.4,-227.91 595.17,-234.91"/>
</a>
</g>
</g>
<!-- Node30 -->
<g id="Node000030" class="node">
<title>Node30</title>
<g id="a_Node000030"><a xlink:href="../../da/de9/clientsmenu_8c.html#a6edce5784156f2643efd7ccc086716e3" target="_top" xlink:title="Function for editing client.">
<polygon fill="white" stroke="#666666" points="266.75,-140.66 147.25,-140.66 147.25,-113.91 266.75,-113.91 266.75,-140.66"/>
<text text-anchor="middle" x="207" y="-121.46" font-family="Helvetica,sans-Serif" font-size="16.00">clientFormEdit</text>
</a>
</g>
</g>
<!-- Node1&#45;&gt;Node30 -->
<g id="edge17_Node000001_Node000030" class="edge">
<title>Node1&#45;&gt;Node30</title>
<g id="a_edge17_Node000001_Node000030"><a xlink:title=" ">
<path fill="none" stroke="#63b8ff" stroke-width="2" d="M68.35,-199.46C95.37,-185.3 137.65,-163.13 168.22,-147.09"/>
<polygon fill="#63b8ff" stroke="#63b8ff" stroke-width="2" points="170.49,-149.81 177.72,-142.06 167.23,-143.61 170.49,-149.81"/>
</a>
</g>
</g>
<!-- Node36 -->
<g id="Node000036" class="node">
<title>Node36</title>
<g id="a_Node000036"><a xlink:href="../../d3/df4/dbhandle_8c.html#aaa0d1881c99c82d3e6dbf0965ae779fa" target="_top" xlink:title="Update Client in database.">
<polygon fill="white" stroke="#666666" points="296,-52.66 118,-52.66 118,-25.91 296,-25.91 296,-52.66"/>
<text text-anchor="middle" x="207" y="-33.46" font-family="Helvetica,sans-Serif" font-size="16.00">dbHandleClientUpdate</text>
</a>
</g>
</g>
<!-- Node1&#45;&gt;Node36 -->
<g id="edge23_Node000001_Node000036" class="edge">
<title>Node1&#45;&gt;Node36</title>
<g id="a_edge23_Node000001_Node000036"><a xlink:title=" ">
<path fill="none" stroke="#63b8ff" stroke-width="2" d="M49.68,-199.64C62.21,-178.11 88.63,-135.56 118,-105.28 134.63,-88.14 156.01,-72 173.53,-59.97"/>
<polygon fill="#63b8ff" stroke="#63b8ff" stroke-width="2" points="175.51,-62.51 181.87,-54.04 171.61,-56.7 175.51,-62.51"/>
</a>
</g>
</g>
<!-- Node2&#45;&gt;Node3 -->
<g id="edge2_Node000002_Node000003" class="edge">
<title>Node2&#45;&gt;Node3</title>
<g id="a_edge2_Node000002_Node000003"><a xlink:title=" ">
<path fill="none" stroke="#63b8ff" stroke-width="2" d="M225.96,-354.12C244.06,-368.26 272.58,-391.09 296,-412.28 312.78,-427.47 312.34,-437.09 332,-448.28 342.64,-454.34 354.88,-458.82 366.84,-462.14"/>
<polygon fill="#63b8ff" stroke="#63b8ff" stroke-width="2" points="366.58,-466.17 377.13,-465.18 368.26,-459.38 366.58,-466.17"/>
</a>
</g>
</g>
<!-- Node4 -->
<g id="Node000004" class="node">
<title>Node4</title>
<g id="a_Node000004"><a xlink:href="../../dd/d93/client_8c.html#ae9344815031f09e5f54986014cea5f29" target="_top" xlink:title="Get list of clients.">
<polygon fill="white" stroke="#666666" points="476.25,-394.66 370.25,-394.66 370.25,-367.91 476.25,-367.91 476.25,-394.66"/>
<text text-anchor="middle" x="423.25" y="-375.46" font-family="Helvetica,sans-Serif" font-size="16.00">clientGetList</text>
</a>
</g>
</g>
<!-- Node2&#45;&gt;Node4 -->
<g id="edge3_Node000002_Node000004" class="edge">
<title>Node2&#45;&gt;Node4</title>
<g id="a_edge3_Node000002_Node000004"><a xlink:title=" ">
<path fill="none" stroke="#63b8ff" stroke-width="2" d="M262.34,-350.68C291.2,-356.2 326.86,-363.03 357.18,-368.83"/>
<polygon fill="#63b8ff" stroke="#63b8ff" stroke-width="2" points="357.34,-372.81 367.82,-371.25 358.65,-365.93 357.34,-372.81"/>
</a>
</g>
</g>
<!-- Node12 -->
<g id="Node000012" class="node">
<title>Node12</title>
<g id="a_Node000012"><a xlink:href="../../d7/dba/menuutil_8c.html#ae6ed898f3726361b1edde3f8707f0260" target="_top" xlink:title="Displays message box on the screen with title and message.">
<polygon fill="#fff0f0" stroke="red" points="971,-330.66 799,-330.66 799,-303.91 971,-303.91 971,-330.66"/>
<text text-anchor="middle" x="885" y="-311.46" font-family="Helvetica,sans-Serif" font-size="16.00">menuUtilMessagebox</text>
</a>
</g>
</g>
<!-- Node2&#45;&gt;Node12 -->
<g id="edge15_Node000002_Node000012" class="edge">
<title>Node2&#45;&gt;Node12</title>
<g id="a_edge15_Node000002_Node000012"><a xlink:title=" ">
<path fill="none" stroke="#63b8ff" stroke-width="2" d="M262.18,-338.44C376,-334.57 641.35,-325.54 785.9,-320.62"/>
<polygon fill="#63b8ff" stroke="#63b8ff" stroke-width="2" points="785.78,-324.02 795.65,-320.19 785.54,-317.03 785.78,-324.02"/>
</a>
</g>
</g>
<!-- Node16 -->
<g id="Node000016" class="node">
<title>Node16</title>
<g id="a_Node000016"><a xlink:href="../../da/de9/clientsmenu_8c.html#a25908570659c30ef67cf297ef0af107e" target="_top" xlink:title="Given client generates string repesenting client string in listView friendly format....">
<polygon fill="white" stroke="#666666" points="514.5,-312.66 332,-312.66 332,-285.91 514.5,-285.91 514.5,-312.66"/>
<text text-anchor="middle" x="423.25" y="-293.46" font-family="Helvetica,sans-Serif" font-size="16.00">clientGetListViewString</text>
</a>
</g>
</g>
<!-- Node2&#45;&gt;Node16 -->
<g id="edge8_Node000002_Node000016" class="edge">
<title>Node2&#45;&gt;Node16</title>
<g id="a_edge8_Node000002_Node000016"><a xlink:title=" ">
<path fill="none" stroke="#63b8ff" stroke-width="2" d="M262.34,-329.88C285.04,-325.54 311.95,-320.39 337.16,-315.57"/>
<polygon fill="#63b8ff" stroke="#63b8ff" stroke-width="2" points="338.59,-318.47 347.76,-313.15 337.28,-311.6 338.59,-318.47"/>
</a>
</g>
</g>
<!-- Node17 -->
<g id="Node000017" class="node">
<title>Node17</title>
<g id="a_Node000017"><a xlink:href="../../da/de9/clientsmenu_8c.html#a12535dbea3961ee9186a47a4988d2208" target="_top" xlink:title="extract client given ListNode.">
<polygon fill="white" stroke="#666666" points="476.25,-267.66 370.25,-267.66 370.25,-240.91 476.25,-240.91 476.25,-267.66"/>
<text text-anchor="middle" x="423.25" y="-248.46" font-family="Helvetica,sans-Serif" font-size="16.00">extractClient</text>
</a>
</g>
</g>
<!-- Node2&#45;&gt;Node17 -->
<g id="edge9_Node000002_Node000017" class="edge">
<title>Node2&#45;&gt;Node17</title>
<g id="a_edge9_Node000002_Node000017"><a xlink:title=" ">
<path fill="none" stroke="#63b8ff" stroke-width="2" d="M231.07,-326.61C255.46,-312.63 295.39,-291.06 332,-277.28 340.23,-274.19 349.03,-271.37 357.8,-268.85"/>
<polygon fill="#63b8ff" stroke="#63b8ff" stroke-width="2" points="359.37,-271.5 368.1,-265.49 357.53,-264.75 359.37,-271.5"/>
</a>
</g>
</g>
<!-- Node19 -->
<g id="Node000019" class="node">
<title>Node19</title>
<g id="a_Node000019"><a xlink:href="../../d7/dba/menuutil_8c.html#aca301edf9d04aa391571851b148355ba" target="_top" xlink:title="List Viewer for lists.">
<polygon fill="#fff0f0" stroke="red" points="482.62,-439.66 363.88,-439.66 363.88,-412.91 482.62,-412.91 482.62,-439.66"/>
<text text-anchor="middle" x="423.25" y="-420.46" font-family="Helvetica,sans-Serif" font-size="16.00">listViewInvoke</text>
</a>
</g>
</g>
<!-- Node2&#45;&gt;Node19 -->
<g id="edge11_Node000002_Node000019" class="edge">
<title>Node2&#45;&gt;Node19</title>
<g id="a_edge11_Node000002_Node000019"><a xlink:title=" ">
<path fill="none" stroke="#63b8ff" stroke-width="2" d="M231.07,-353.96C255.46,-367.94 295.39,-389.51 332,-403.28 338.09,-405.57 344.49,-407.71 350.96,-409.69"/>
<polygon fill="#63b8ff" stroke="#63b8ff" stroke-width="2" points="350.83,-413.87 361.41,-413.29 352.78,-407.15 350.83,-413.87"/>
</a>
</g>
</g>
<!-- Node5 -->
<g id="Node000005" class="node">
<title>Node5</title>
<g id="a_Node000005"><a xlink:href="../../dd/d93/client_8c.html#a903cc00cfe46a85c92b09861aba1f26c" target="_top" xlink:title="CallBack function for dbHandleGetResultAsList . Transforms row into Client.">
<polygon fill="#fff0f0" stroke="red" points="763,-461.66 550.5,-461.66 550.5,-434.91 763,-434.91 763,-461.66"/>
<text text-anchor="middle" x="656.75" y="-442.46" font-family="Helvetica,sans-Serif" font-size="16.00">clientGetListQueryCallback</text>
</a>
</g>
</g>
<!-- Node4&#45;&gt;Node5 -->
<g id="edge4_Node000004_Node000005" class="edge">
<title>Node4&#45;&gt;Node5</title>
<g id="a_edge4_Node000004_Node000005"><a xlink:title=" ">
<path fill="none" stroke="#63b8ff" stroke-width="2" d="M476.6,-391.99C489.23,-395.29 502.53,-399.38 514.5,-404.28 531.64,-411.3 533.24,-418.56 550.5,-425.28 555.74,-427.32 561.2,-429.2 566.76,-430.93"/>
<polygon fill="#63b8ff" stroke="#63b8ff" stroke-width="2" points="566.45,-435.06 577.03,-434.47 568.39,-428.34 566.45,-435.06"/>
</a>
</g>
</g>
<!-- Node9 -->
<g id="Node000009" class="node">
<title>Node9</title>
<g id="a_Node000009"><a xlink:href="../../dd/d93/client_8c.html#aca1c3909e30e8a13a7f49a0bc74640bd" target="_top" xlink:title="Generates SQL query.">
<polygon fill="white" stroke="#666666" points="742.38,-416.66 571.12,-416.66 571.12,-389.91 742.38,-389.91 742.38,-416.66"/>
<text text-anchor="middle" x="656.75" y="-397.46" font-family="Helvetica,sans-Serif" font-size="16.00">clientGetQueryOfSort</text>
</a>
</g>
</g>
<!-- Node4&#45;&gt;Node9 -->
<g id="edge5_Node000004_Node000009" class="edge">
<title>Node4&#45;&gt;Node9</title>
<g id="a_edge5_Node000004_Node000009"><a xlink:title=" ">
<path fill="none" stroke="#63b8ff" stroke-width="2" d="M476.49,-386.25C500.66,-388.54 530.18,-391.35 558.24,-394.01"/>
<polygon fill="#63b8ff" stroke="#63b8ff" stroke-width="2" points="557.71,-397.77 568,-395.23 558.37,-390.8 557.71,-397.77"/>
</a>
</g>
</g>
<!-- Node10 -->
<g id="Node000010" class="node">
<title>Node10</title>
<g id="a_Node000010"><a xlink:href="../../d3/df4/dbhandle_8c.html#a93d9b43b32495dc8630963c174aeba05" target="_top" xlink:title="Given query and callback function create List based on the query.">
<polygon fill="#fff0f0" stroke="red" points="757.38,-371.66 556.12,-371.66 556.12,-344.91 757.38,-344.91 757.38,-371.66"/>
<text text-anchor="middle" x="656.75" y="-352.46" font-family="Helvetica,sans-Serif" font-size="16.00">dbHandleGetResultAsList</text>
</a>
</g>
</g>
<!-- Node4&#45;&gt;Node10 -->
<g id="edge6_Node000004_Node000010" class="edge">
<title>Node4&#45;&gt;Node10</title>
<g id="a_edge6_Node000004_Node000010"><a xlink:title=" ">
<path fill="none" stroke="#63b8ff" stroke-width="2" d="M476.49,-376.09C496.3,-374.12 519.69,-371.8 542.93,-369.49"/>
<polygon fill="#63b8ff" stroke="#63b8ff" stroke-width="2" points="543.19,-372.68 552.8,-368.21 542.5,-365.72 543.19,-372.68"/>
</a>
</g>
</g>
<!-- Node10&#45;&gt;Node12 -->
<g id="edge7_Node000010_Node000012" class="edge">
<title>Node10&#45;&gt;Node12</title>
<g id="a_edge7_Node000010_Node000012"><a xlink:title=" ">
<path fill="none" stroke="#63b8ff" stroke-width="2" d="M734.03,-344.46C753.59,-340.91 774.8,-337.07 794.95,-333.42"/>
<polygon fill="#63b8ff" stroke="#63b8ff" stroke-width="2" points="796.45,-336.34 805.66,-331.12 795.2,-329.45 796.45,-336.34"/>
</a>
</g>
</g>
<!-- Node17&#45;&gt;Node18 -->
<g id="edge10_Node000017_Node000018" class="edge">
<title>Node17&#45;&gt;Node18</title>
<g id="a_edge10_Node000017_Node000018"><a xlink:title=" ">
<path fill="none" stroke="#63b8ff" stroke-width="2" d="M476.49,-249.54C511.92,-246.33 558.85,-242.07 595.8,-238.72"/>
<polygon fill="#63b8ff" stroke="#63b8ff" stroke-width="2" points="595.78,-241.96 605.42,-237.58 595.15,-234.99 595.78,-241.96"/>
</a>
</g>
</g>
<!-- Node20 -->
<g id="Node000020" class="node">
<title>Node20</title>
<g id="a_Node000020"><a xlink:href="../../d7/d40/list_8c.html#a0837532833bd96d83104386c1aa69c10" target="_top" xlink:title="How many elements are there in List.">
<polygon fill="white" stroke="#666666" points="918.88,-526.66 851.12,-526.66 851.12,-499.91 918.88,-499.91 918.88,-526.66"/>
<text text-anchor="middle" x="885" y="-507.46" font-family="Helvetica,sans-Serif" font-size="16.00">listSize</text>
</a>
</g>
</g>
<!-- Node19&#45;&gt;Node20 -->
<g id="edge12_Node000019_Node000020" class="edge">
<title>Node19&#45;&gt;Node20</title>
<g id="a_edge12_Node000019_Node000020"><a xlink:title=" ">
<path fill="none" stroke="#63b8ff" stroke-width="2" d="M482.85,-433.78C494.15,-437.2 505.31,-442.14 514.5,-449.28 540.89,-469.78 521.77,-498.23 550.5,-515.28 640.77,-568.87 770.47,-545.55 838.46,-527.38"/>
<polygon fill="#63b8ff" stroke="#63b8ff" stroke-width="2" points="840.11,-530 848.81,-523.95 838.24,-523.25 840.11,-530"/>
</a>
</g>
</g>
<!-- Node21 -->
<g id="Node000021" class="node">
<title>Node21</title>
<g id="a_Node000021"><a xlink:href="../../d7/dba/menuutil_8c.html#a6229d06cea0b18a996e9f378719c56bb" target="_top" xlink:title="frees internal List of listView.">
<polygon fill="#fff0f0" stroke="red" points="721.38,-506.66 592.12,-506.66 592.12,-479.91 721.38,-479.91 721.38,-506.66"/>
<text text-anchor="middle" x="656.75" y="-487.46" font-family="Helvetica,sans-Serif" font-size="16.00">listViewFreeList</text>
</a>
</g>
</g>
<!-- Node19&#45;&gt;Node21 -->
<g id="edge13_Node000019_Node000021" class="edge">
<title>Node19&#45;&gt;Node21</title>
<g id="a_edge13_Node000019_Node000021"><a xlink:title=" ">
<path fill="none" stroke="#63b8ff" stroke-width="2" d="M482.8,-438.66C493.52,-441.64 504.48,-445.18 514.5,-449.28 531.64,-456.3 533.24,-463.56 550.5,-470.28 559.63,-473.84 569.43,-476.9 579.24,-479.53"/>
<polygon fill="#63b8ff" stroke="#63b8ff" stroke-width="2" points="579.08,-483.6 589.63,-482.62 580.78,-476.8 579.08,-483.6"/>
</a>
</g>
</g>
<!-- Node21&#45;&gt;Node20 -->
<g id="edge14_Node000021_Node000020" class="edge">
<title>Node21&#45;&gt;Node20</title>
<g id="a_edge14_Node000021_Node000020"><a xlink:title=" ">
<path fill="none" stroke="#63b8ff" stroke-width="2" d="M721.68,-498.93C758.82,-502.22 804.76,-506.28 838.27,-509.24"/>
<polygon fill="#63b8ff" stroke="#63b8ff" stroke-width="2" points="837.64,-512.96 847.91,-510.36 838.26,-505.99 837.64,-512.96"/>
</a>
</g>
</g>
<!-- Node31 -->
<g id="Node000031" class="node">
<title>Node31</title>
<g id="a_Node000031"><a xlink:href="../../da/de9/clientsmenu_8c.html#af8ed08faae79e3f75c324827415a5793" target="_top" xlink:title="Parse form.">
<polygon fill="white" stroke="#666666" points="490.12,-185.66 356.38,-185.66 356.38,-158.91 490.12,-158.91 490.12,-185.66"/>
<text text-anchor="middle" x="423.25" y="-166.46" font-family="Helvetica,sans-Serif" font-size="16.00">clientFormParse</text>
</a>
</g>
</g>
<!-- Node30&#45;&gt;Node31 -->
<g id="edge18_Node000030_Node000031" class="edge">
<title>Node30&#45;&gt;Node31</title>
<g id="a_edge18_Node000030_Node000031"><a xlink:title=" ">
<path fill="none" stroke="#63b8ff" stroke-width="2" d="M267.11,-139.7C290.85,-144.68 318.55,-150.5 343.92,-155.83"/>
<polygon fill="#63b8ff" stroke="#63b8ff" stroke-width="2" points="344.04,-159.85 354.55,-158.48 345.48,-153 344.04,-159.85"/>
</a>
</g>
</g>
<!-- Node32 -->
<g id="Node000032" class="node">
<title>Node32</title>
<g id="a_Node000032"><a xlink:href="../../d7/dba/menuutil_8c.html#a1c0a1284f839b7e790c8234b3778e065" target="_top" xlink:title="Frees memory used for form, and it&#39;s fields.">
<polygon fill="white" stroke="#666666" points="463.88,-140.66 382.62,-140.66 382.62,-113.91 463.88,-113.91 463.88,-140.66"/>
<text text-anchor="middle" x="423.25" y="-121.46" font-family="Helvetica,sans-Serif" font-size="16.00">formFree</text>
</a>
</g>
</g>
<!-- Node30&#45;&gt;Node32 -->
<g id="edge19_Node000030_Node000032" class="edge">
<title>Node30&#45;&gt;Node32</title>
<g id="a_edge19_Node000030_Node000032"><a xlink:title=" ">
<path fill="none" stroke="#63b8ff" stroke-width="2" d="M267.11,-127.28C299.19,-127.28 338.51,-127.28 369.54,-127.28"/>
<polygon fill="#63b8ff" stroke="#63b8ff" stroke-width="2" points="369.29,-130.78 379.29,-127.28 369.29,-123.78 369.29,-130.78"/>
</a>
</g>
</g>
<!-- Node33 -->
<g id="Node000033" class="node">
<title>Node33</title>
<g id="a_Node000033"><a xlink:href="../../d7/dba/menuutil_8c.html#a6cfb2b5b15b5e79df457b5c902c3bf7d" target="_top" xlink:title="Initialize FORM.">
<polygon fill="white" stroke="#666666" points="458.25,-95.66 388.25,-95.66 388.25,-68.91 458.25,-68.91 458.25,-95.66"/>
<text text-anchor="middle" x="423.25" y="-76.46" font-family="Helvetica,sans-Serif" font-size="16.00">formInit</text>
</a>
</g>
</g>
<!-- Node30&#45;&gt;Node33 -->
<g id="edge20_Node000030_Node000033" class="edge">
<title>Node30&#45;&gt;Node33</title>
<g id="a_edge20_Node000030_Node000033"><a xlink:title=" ">
<path fill="none" stroke="#63b8ff" stroke-width="2" d="M267.11,-114.87C301.29,-107.69 343.7,-98.78 375.53,-92.09"/>
<polygon fill="#63b8ff" stroke="#63b8ff" stroke-width="2" points="376.97,-94.95 386.04,-89.47 375.53,-88.1 376.97,-94.95"/>
</a>
</g>
</g>
<!-- Node34 -->
<g id="Node000034" class="node">
<title>Node34</title>
<g id="a_Node000034"><a xlink:href="../../d7/dba/menuutil_8c.html#af8f262005a4975cc6ccc3423d939f910" target="_top" xlink:title="Put form on screen in nice looking form.">
<polygon fill="#fff0f0" stroke="red" points="471.38,-50.66 375.12,-50.66 375.12,-23.91 471.38,-23.91 471.38,-50.66"/>
<text text-anchor="middle" x="423.25" y="-31.46" font-family="Helvetica,sans-Serif" font-size="16.00">formInvoke</text>
</a>
</g>
</g>
<!-- Node30&#45;&gt;Node34 -->
<g id="edge21_Node000030_Node000034" class="edge">
<title>Node30&#45;&gt;Node34</title>
<g id="a_edge21_Node000030_Node000034"><a xlink:title=" ">
<path fill="none" stroke="#63b8ff" stroke-width="2" d="M229.61,-113.47C253.75,-98.56 294.39,-74.97 332,-60.28 341.64,-56.52 352.09,-53.2 362.36,-50.34"/>
<polygon fill="#63b8ff" stroke="#63b8ff" stroke-width="2" points="363.94,-53.01 372.72,-47.07 362.16,-46.24 363.94,-53.01"/>
</a>
</g>
</g>
<!-- Node36&#45;&gt;Node12 -->
<g id="edge24_Node000036_Node000012" class="edge">
<title>Node36&#45;&gt;Node12</title>
<g id="a_edge24_Node000036_Node000012"><a xlink:title=" ">
<path fill="none" stroke="#63b8ff" stroke-width="2" d="M250.51,-25.43C310.99,-8.04 424.49,15.94 514.5,-15.28 675.84,-71.25 816.92,-232.88 865.76,-293.73"/>
<polygon fill="#63b8ff" stroke="#63b8ff" stroke-width="2" points="863.59,-295.89 872.55,-301.56 869.08,-291.55 863.59,-295.89"/>
</a>
</g>
</g>
</g>
</svg>

<g id="navigator" transform="translate(0 0)" fill="#404254">
  <rect fill="#f2f5e9" fill-opacity="0.5" stroke="#606060" stroke-width=".5" x="0" y="0" width="60" height="60"/>
  <use id="zoomplus" xlink:href="#zoomPlus" x="17" y="9" onmousedown="handleZoom(evt,'in')"/>
  <use id="zoomminus" xlink:href="#zoomMin" x="42" y="9" onmousedown="handleZoom(evt,'out')"/>
  <use id="reset" xlink:href="#resetDef" x="30" y="36" onmousedown="handleReset()"/>
   <use id="arrowup" xlink:href="#arrowUp" x="0" y="0" onmousedown="handlePan(0,-1)"/>
  <use id="arrowright" xlink:href="#arrowRight" x="0" y="0" onmousedown="handlePan(1,0)"/>
  <use id="arrowdown" xlink:href="#arrowDown" x="0" y="0" onmousedown="handlePan(0,1)"/>
  <use id="arrowleft" xlink:href="#arrowLeft" x="0" y="0" onmousedown="handlePan(-1,0)"/>
</g>
<svg viewBox="0 0 15 15" width="100%" height="30px" preserveAspectRatio="xMaxYMin meet">
 <g id="arrow_out" transform="scale(0.3 0.3)">
  <a xlink:href="clientsmenu_8c_a3785053dd7fa7ee54cb52674dadf5941_cgraph_org.svg" target="_base">
   <rect id="button" ry="5" rx="5" y="6" x="6" height="38" width="38"
        fill="#f2f5e9" fill-opacity="0.5" stroke="#606060" stroke-width="1.0"/>
   <path id="arrow"
     d="M 11.500037,31.436501 C 11.940474,20.09759 22.043105,11.32322 32.158766,21.979434 L 37.068811,17.246167 C 37.068811,17.246167 37.088388,32 37.088388,32 L 22.160133,31.978069 C 22.160133,31.978069 26.997745,27.140456 26.997745,27.140456 C 18.528582,18.264221 13.291696,25.230495 11.500037,31.436501 z"
     style="fill:#404040;"/>
  </a>
 </g>
</svg>

<style type='text/css'>
<![CDATA[
[data-mouse-over-selected='false'] { opacity: 0.7; }
[data-mouse-over-selected='true']  { opacity: 1.0; }
]]>
</style>
<script type="application/ecmascript"><![CDATA[
document.addEventListener('DOMContentLoaded', (event) => {
  highlightEdges();
  highlightAdjacentNodes();
});
]]></script>
</svg>
