<?xml version="1.0" encoding="UTF-8" standalone="no"?>
<!DOCTYPE svg PUBLIC "-//W3C//DTD SVG 1.1//EN"
 "http://www.w3.org/Graphics/SVG/1.1/DTD/svg11.dtd">
<!-- Generated by graphviz version 8.0.5 (0)
 -->
<!-- Title: clientFormEdit Pages: 1 -->
<!--zoomable 237 -->

<svg id="main" version="1.1" xmlns="http://www.w3.org/2000/svg" xmlns:xlink="http://www.w3.org/1999/xlink" xml:space="preserve" onload="init(evt)">
<style type="text/css"><![CDATA[
.node, .edge {opacity: 0.7;}
.node.selected, .edge.selected {opacity: 1;}
.edge:hover path { stroke: red; }
.edge:hover polygon { stroke: red; fill: red; }
]]></style>

<defs>
  <circle id="rim" cx="0" cy="0" r="7"/>
  <circle id="rim2" cx="0" cy="0" r="3.5"/>
  <g id="zoomPlus">
    <use xlink:href="#rim" fill="#404040"><set attributeName="fill" to="#808080" begin="zoomplus.mouseover" end="zoomplus.mouseout"/></use>
    <path d="M-4,0h8M0,-4v8" fill="none" stroke="white" stroke-width="1.5" pointer-events="none"/>
  </g>
  <g id="zoomMin">
    <use xlink:href="#rim" fill="#404040"><set attributeName="fill" to="#808080" begin="zoomminus.mouseover" end="zoomminus.mouseout"/></use>
    <path d="M-4,0h8" fill="none" stroke="white" stroke-width="1.5" pointer-events="none"/>
  </g>
  <g id="arrowUp" transform="translate(30 24)">
    <use xlink:href="#rim"/>
    <path pointer-events="none" fill="none" stroke="white" stroke-width="1.5" d="M0,-3.0v7 M-2.5,-0.5L0,-3.0L2.5,-0.5"/>
  </g>
  <g id="arrowRight" transform="rotate(90) translate(36 -43)">
    <use xlink:href="#rim"/>
    <path pointer-events="none" fill="none" stroke="white" stroke-width="1.5" d="M0,-3.0v7 M-2.5,-0.5L0,-3.0L2.5,-0.5"/>
  </g>
  <g id="arrowDown" transform="rotate(180) translate(-30 -48)">
    <use xlink:href="#rim"/>
    <path pointer-events="none" fill="none" stroke="white" stroke-width="1.5" d="M0,-3.0v7 M-2.5,-0.5L0,-3.0L2.5,-0.5"/>
  </g>
  <g id="arrowLeft" transform="rotate(270) translate(-36 17)">
    <use xlink:href="#rim"/>
    <path pointer-events="none" fill="none" stroke="white" stroke-width="1.5" d="M0,-3.0v7 M-2.5,-0.5L0,-3.0L2.5,-0.5"/>
  </g>
  <g id="resetDef">
    <use xlink:href="#rim2" fill="#404040"><set attributeName="fill" to="#808080" begin="reset.mouseover" end="reset.mouseout"/></use>
  </g>
</defs>
<script type="application/ecmascript">
var viewWidth = 521;
var viewHeight = 237;
var sectionId = 'dynsection-9';
</script>
<script type="application/ecmascript" xlink:href="../../svg.min.js"/>
<svg id="graph" class="graph">
<g id="viewport">
<title>clientFormEdit</title>
<!-- Node1 -->
<g id="Node000001" class="node">
<title>Node1</title>
<g id="a_Node000001"><a xlink:title="Function for editing client.">
<polygon fill="#999999" stroke="#666666" points="119.5,-160.75 0,-160.75 0,-134 119.5,-134 119.5,-160.75"/>
<text text-anchor="middle" x="59.75" y="-141.55" font-family="Helvetica,sans-Serif" font-size="16.00">clientFormEdit</text>
</a>
</g>
</g>
<!-- Node2 -->
<g id="Node000002" class="node">
<title>Node2</title>
<g id="a_Node000002"><a xlink:href="../../da/de9/clientsmenu_8c.html#af8ed08faae79e3f75c324827415a5793" target="_top" xlink:title="Parse form.">
<polygon fill="white" stroke="#666666" points="289.25,-228.75 155.5,-228.75 155.5,-202 289.25,-202 289.25,-228.75"/>
<text text-anchor="middle" x="222.38" y="-209.55" font-family="Helvetica,sans-Serif" font-size="16.00">clientFormParse</text>
</a>
</g>
</g>
<!-- Node1&#45;&gt;Node2 -->
<g id="edge1_Node000001_Node000002" class="edge">
<title>Node1&#45;&gt;Node2</title>
<g id="a_edge1_Node000001_Node000002"><a xlink:title=" ">
<path fill="none" stroke="#63b8ff" stroke-width="2" d="M87.77,-161.16C106.54,-170.5 132.25,-182.83 155.5,-192.38 159.49,-194.01 163.64,-195.64 167.83,-197.23"/>
<polygon fill="#63b8ff" stroke="#63b8ff" stroke-width="2" points="167.06,-200.41 177.65,-200.57 169.47,-193.84 167.06,-200.41"/>
</a>
</g>
</g>
<!-- Node3 -->
<g id="Node000003" class="node">
<title>Node3</title>
<g id="a_Node000003"><a xlink:href="../../d7/dba/menuutil_8c.html#a1c0a1284f839b7e790c8234b3778e065" target="_top" xlink:title="Frees memory used for form, and it&#39;s fields.">
<polygon fill="white" stroke="#666666" points="263,-183.75 181.75,-183.75 181.75,-157 263,-157 263,-183.75"/>
<text text-anchor="middle" x="222.38" y="-164.55" font-family="Helvetica,sans-Serif" font-size="16.00">formFree</text>
</a>
</g>
</g>
<!-- Node1&#45;&gt;Node3 -->
<g id="edge2_Node000001_Node000003" class="edge">
<title>Node1&#45;&gt;Node3</title>
<g id="a_edge2_Node000001_Node000003"><a xlink:title=" ">
<path fill="none" stroke="#63b8ff" stroke-width="2" d="M119.65,-155.81C135.74,-158.11 153.06,-160.59 168.77,-162.84"/>
<polygon fill="#63b8ff" stroke="#63b8ff" stroke-width="2" points="169.14,-166.72 179.53,-164.67 170.13,-159.79 169.14,-166.72"/>
</a>
</g>
</g>
<!-- Node4 -->
<g id="Node000004" class="node">
<title>Node4</title>
<g id="a_Node000004"><a xlink:href="../../d7/dba/menuutil_8c.html#a6cfb2b5b15b5e79df457b5c902c3bf7d" target="_top" xlink:title="Initialize FORM.">
<polygon fill="white" stroke="#666666" points="257.38,-138.75 187.38,-138.75 187.38,-112 257.38,-112 257.38,-138.75"/>
<text text-anchor="middle" x="222.38" y="-119.55" font-family="Helvetica,sans-Serif" font-size="16.00">formInit</text>
</a>
</g>
</g>
<!-- Node1&#45;&gt;Node4 -->
<g id="edge3_Node000001_Node000004" class="edge">
<title>Node1&#45;&gt;Node4</title>
<g id="a_edge3_Node000001_Node000004"><a xlink:title=" ">
<path fill="none" stroke="#63b8ff" stroke-width="2" d="M119.65,-139.31C137.68,-136.84 157.27,-134.16 174.4,-131.81"/>
<polygon fill="#63b8ff" stroke="#63b8ff" stroke-width="2" points="175.81,-134.87 185.24,-130.05 174.86,-127.94 175.81,-134.87"/>
</a>
</g>
</g>
<!-- Node5 -->
<g id="Node000005" class="node">
<title>Node5</title>
<g id="a_Node000005"><a xlink:href="../../d7/dba/menuutil_8c.html#af8f262005a4975cc6ccc3423d939f910" target="_top" xlink:title="Put form on screen in nice looking form.">
<polygon fill="white" stroke="#666666" points="270.5,-93.75 174.25,-93.75 174.25,-67 270.5,-67 270.5,-93.75"/>
<text text-anchor="middle" x="222.38" y="-74.55" font-family="Helvetica,sans-Serif" font-size="16.00">formInvoke</text>
</a>
</g>
</g>
<!-- Node1&#45;&gt;Node5 -->
<g id="edge4_Node000001_Node000005" class="edge">
<title>Node1&#45;&gt;Node5</title>
<g id="a_edge4_Node000001_Node000005"><a xlink:title=" ">
<path fill="none" stroke="#63b8ff" stroke-width="2" d="M88.62,-133.55C107.33,-124.48 132.64,-112.65 155.5,-103.38 159.49,-101.76 163.65,-100.14 167.85,-98.56"/>
<polygon fill="#63b8ff" stroke="#63b8ff" stroke-width="2" points="169.49,-101.96 177.68,-95.23 167.08,-95.38 169.49,-101.96"/>
</a>
</g>
</g>
<!-- Node6 -->
<g id="Node000006" class="node">
<title>Node6</title>
<g id="a_Node000006"><a xlink:href="../../d7/dba/menuutil_8c.html#ab9a65295e184f9f64ea1431f8c2e36b2" target="_top" xlink:title="Manages input in the form.">
<polygon fill="white" stroke="#666666" points="502.12,-161.75 336.12,-161.75 336.12,-135 502.12,-135 502.12,-161.75"/>
<text text-anchor="middle" x="419.12" y="-142.55" font-family="Helvetica,sans-Serif" font-size="16.00">formHandleIteraction</text>
</a>
</g>
</g>
<!-- Node5&#45;&gt;Node6 -->
<g id="edge5_Node000005_Node000006" class="edge">
<title>Node5&#45;&gt;Node6</title>
<g id="a_edge5_Node000005_Node000006"><a xlink:title=" ">
<path fill="none" stroke="#63b8ff" stroke-width="2" d="M267.13,-94.18C274.62,-96.96 282.24,-100.06 289.25,-103.38 306.2,-111.4 307.95,-118.15 325.25,-125.38 329.86,-127.3 334.67,-129.09 339.57,-130.75"/>
<polygon fill="#63b8ff" stroke="#63b8ff" stroke-width="2" points="339.27,-134.96 349.86,-134.62 341.37,-128.28 339.27,-134.96"/>
</a>
</g>
</g>
<!-- Node7 -->
<g id="Node000007" class="node">
<title>Node7</title>
<g id="a_Node000007"><a xlink:href="../../d7/dba/menuutil_8c.html#ac6b71fcc47a9cdec8ac08b98e754239c" target="_top" xlink:title="Get length of longest string in array of strings.">
<polygon fill="white" stroke="#666666" points="513,-116.75 325.25,-116.75 325.25,-90 513,-90 513,-116.75"/>
<text text-anchor="middle" x="419.12" y="-97.55" font-family="Helvetica,sans-Serif" font-size="16.00">getLongestStringLength</text>
</a>
</g>
</g>
<!-- Node5&#45;&gt;Node7 -->
<g id="edge6_Node000005_Node000007" class="edge">
<title>Node5&#45;&gt;Node7</title>
<g id="a_edge6_Node000005_Node000007"><a xlink:title=" ">
<path fill="none" stroke="#63b8ff" stroke-width="2" d="M270.52,-85.94C283.23,-87.44 297.51,-89.13 312.06,-90.85"/>
<polygon fill="#63b8ff" stroke="#63b8ff" stroke-width="2" points="311.54,-94.67 321.88,-92.36 312.36,-87.71 311.54,-94.67"/>
</a>
</g>
</g>
<!-- Node8 -->
<g id="Node000008" class="node">
<title>Node8</title>
<g id="a_Node000008"><a xlink:href="../../d7/dba/menuutil_8c.html#a9941ed217da0309cd9453bdb776d5c51" target="_top" xlink:title="Add basic functionality to the shitty language which C is.">
<polygon fill="white" stroke="#666666" points="442.5,-71.75 395.75,-71.75 395.75,-45 442.5,-45 442.5,-71.75"/>
<text text-anchor="middle" x="419.12" y="-52.55" font-family="Helvetica,sans-Serif" font-size="16.00">max</text>
</a>
</g>
</g>
<!-- Node5&#45;&gt;Node8 -->
<g id="edge7_Node000005_Node000008" class="edge">
<title>Node5&#45;&gt;Node8</title>
<g id="a_edge7_Node000005_Node000008"><a xlink:title=" ">
<path fill="none" stroke="#63b8ff" stroke-width="2" d="M270.52,-75.05C305.04,-71.15 351.15,-65.94 382.59,-62.39"/>
<polygon fill="#63b8ff" stroke="#63b8ff" stroke-width="2" points="382.96,-65.53 392.5,-60.93 382.17,-58.58 382.96,-65.53"/>
</a>
</g>
</g>
<!-- Node9 -->
<g id="Node000009" class="node">
<title>Node9</title>
<g id="a_Node000009"><a xlink:href="../../d7/dba/menuutil_8c.html#a14ca6bd9893f550a2051ca6cd5a689ac" target="_top" xlink:title="Print boarders of window.">
<polygon fill="white" stroke="#666666" points="504,-26.75 334.25,-26.75 334.25,0 504,0 504,-26.75"/>
<text text-anchor="middle" x="419.12" y="-7.55" font-family="Helvetica,sans-Serif" font-size="16.00">printWindowBoarders</text>
</a>
</g>
</g>
<!-- Node5&#45;&gt;Node9 -->
<g id="edge8_Node000005_Node000009" class="edge">
<title>Node5&#45;&gt;Node9</title>
<g id="a_edge8_Node000005_Node000009"><a xlink:title=" ">
<path fill="none" stroke="#63b8ff" stroke-width="2" d="M251.86,-66.57C272.02,-57.17 299.87,-44.93 325.25,-36.38 331.29,-34.34 337.61,-32.39 343.99,-30.56"/>
<polygon fill="#63b8ff" stroke="#63b8ff" stroke-width="2" points="345.55,-33.21 354.26,-27.18 343.69,-26.46 345.55,-33.21"/>
</a>
</g>
</g>
</g>
</svg>

<g id="navigator" transform="translate(0 0)" fill="#404254">
  <rect fill="#f2f5e9" fill-opacity="0.5" stroke="#606060" stroke-width=".5" x="0" y="0" width="60" height="60"/>
  <use id="zoomplus" xlink:href="#zoomPlus" x="17" y="9" onmousedown="handleZoom(evt,'in')"/>
  <use id="zoomminus" xlink:href="#zoomMin" x="42" y="9" onmousedown="handleZoom(evt,'out')"/>
  <use id="reset" xlink:href="#resetDef" x="30" y="36" onmousedown="handleReset()"/>
   <use id="arrowup" xlink:href="#arrowUp" x="0" y="0" onmousedown="handlePan(0,-1)"/>
  <use id="arrowright" xlink:href="#arrowRight" x="0" y="0" onmousedown="handlePan(1,0)"/>
  <use id="arrowdown" xlink:href="#arrowDown" x="0" y="0" onmousedown="handlePan(0,1)"/>
  <use id="arrowleft" xlink:href="#arrowLeft" x="0" y="0" onmousedown="handlePan(-1,0)"/>
</g>
<svg viewBox="0 0 15 15" width="100%" height="30px" preserveAspectRatio="xMaxYMin meet">
 <g id="arrow_out" transform="scale(0.3 0.3)">
  <a xlink:href="clientsmenu_8c_a6edce5784156f2643efd7ccc086716e3_cgraph_org.svg" target="_base">
   <rect id="button" ry="5" rx="5" y="6" x="6" height="38" width="38"
        fill="#f2f5e9" fill-opacity="0.5" stroke="#606060" stroke-width="1.0"/>
   <path id="arrow"
     d="M 11.500037,31.436501 C 11.940474,20.09759 22.043105,11.32322 32.158766,21.979434 L 37.068811,17.246167 C 37.068811,17.246167 37.088388,32 37.088388,32 L 22.160133,31.978069 C 22.160133,31.978069 26.997745,27.140456 26.997745,27.140456 C 18.528582,18.264221 13.291696,25.230495 11.500037,31.436501 z"
     style="fill:#404040;"/>
  </a>
 </g>
</svg>

<style type='text/css'>
<![CDATA[
[data-mouse-over-selected='false'] { opacity: 0.7; }
[data-mouse-over-selected='true']  { opacity: 1.0; }
]]>
</style>
<script type="application/ecmascript"><![CDATA[
document.addEventListener('DOMContentLoaded', (event) => {
  highlightEdges();
  highlightAdjacentNodes();
});
]]></script>
</svg>
