<?xml version="1.0" encoding="UTF-8" standalone="no"?>
<!DOCTYPE svg PUBLIC "-//W3C//DTD SVG 1.1//EN"
 "http://www.w3.org/Graphics/SVG/1.1/DTD/svg11.dtd">
<!-- Generated by graphviz version 8.0.5 (0)
 -->
<!-- Title: clientChoose Pages: 1 -->
<!--zoomable 508 -->

<svg id="main" version="1.1" xmlns="http://www.w3.org/2000/svg" xmlns:xlink="http://www.w3.org/1999/xlink" xml:space="preserve" onload="init(evt)">
<style type="text/css"><![CDATA[
.node, .edge {opacity: 0.7;}
.node.selected, .edge.selected {opacity: 1;}
.edge:hover path { stroke: red; }
.edge:hover polygon { stroke: red; fill: red; }
]]></style>

<defs>
  <circle id="rim" cx="0" cy="0" r="7"/>
  <circle id="rim2" cx="0" cy="0" r="3.5"/>
  <g id="zoomPlus">
    <use xlink:href="#rim" fill="#404040"><set attributeName="fill" to="#808080" begin="zoomplus.mouseover" end="zoomplus.mouseout"/></use>
    <path d="M-4,0h8M0,-4v8" fill="none" stroke="white" stroke-width="1.5" pointer-events="none"/>
  </g>
  <g id="zoomMin">
    <use xlink:href="#rim" fill="#404040"><set attributeName="fill" to="#808080" begin="zoomminus.mouseover" end="zoomminus.mouseout"/></use>
    <path d="M-4,0h8" fill="none" stroke="white" stroke-width="1.5" pointer-events="none"/>
  </g>
  <g id="arrowUp" transform="translate(30 24)">
    <use xlink:href="#rim"/>
    <path pointer-events="none" fill="none" stroke="white" stroke-width="1.5" d="M0,-3.0v7 M-2.5,-0.5L0,-3.0L2.5,-0.5"/>
  </g>
  <g id="arrowRight" transform="rotate(90) translate(36 -43)">
    <use xlink:href="#rim"/>
    <path pointer-events="none" fill="none" stroke="white" stroke-width="1.5" d="M0,-3.0v7 M-2.5,-0.5L0,-3.0L2.5,-0.5"/>
  </g>
  <g id="arrowDown" transform="rotate(180) translate(-30 -48)">
    <use xlink:href="#rim"/>
    <path pointer-events="none" fill="none" stroke="white" stroke-width="1.5" d="M0,-3.0v7 M-2.5,-0.5L0,-3.0L2.5,-0.5"/>
  </g>
  <g id="arrowLeft" transform="rotate(270) translate(-36 17)">
    <use xlink:href="#rim"/>
    <path pointer-events="none" fill="none" stroke="white" stroke-width="1.5" d="M0,-3.0v7 M-2.5,-0.5L0,-3.0L2.5,-0.5"/>
  </g>
  <g id="resetDef">
    <use xlink:href="#rim2" fill="#404040"><set attributeName="fill" to="#808080" begin="reset.mouseover" end="reset.mouseout"/></use>
  </g>
</defs>
<script type="application/ecmascript">
var viewWidth = 999;
var viewHeight = 508;
var sectionId = 'dynsection-3';
</script>
<script type="application/ecmascript" xlink:href="../../svg.min.js"/>
<svg id="graph" class="graph">
<g id="viewport">
<title>clientChoose</title>
<!-- Node1 -->
<g id="Node000001" class="node">
<title>Node1</title>
<g id="a_Node000001"><a xlink:title="Invokes ListView of clients.">
<polygon fill="#999999" stroke="#666666" points="109.75,-343.75 0,-343.75 0,-317 109.75,-317 109.75,-343.75"/>
<text text-anchor="middle" x="54.88" y="-324.55" font-family="Helvetica,sans-Serif" font-size="16.00">clientChoose</text>
</a>
</g>
</g>
<!-- Node2 -->
<g id="Node000002" class="node">
<title>Node2</title>
<g id="a_Node000002"><a xlink:href="../../dd/d93/client_8c.html#acd575326bfff582215541a74fc4a7bc7" target="_top" xlink:title="Dealloactes client.">
<polygon fill="white" stroke="#666666" points="280.62,-454.75 193.38,-454.75 193.38,-428 280.62,-428 280.62,-454.75"/>
<text text-anchor="middle" x="237" y="-435.55" font-family="Helvetica,sans-Serif" font-size="16.00">clientFree</text>
</a>
</g>
</g>
<!-- Node1&#45;&gt;Node2 -->
<g id="edge1_Node000001_Node000002" class="edge">
<title>Node1&#45;&gt;Node2</title>
<g id="a_edge1_Node000001_Node000002"><a xlink:title=" ">
<path fill="none" stroke="#63b8ff" stroke-width="2" d="M65.88,-343.94C80.97,-363.43 111.49,-399.11 145.75,-418.38 156.42,-424.37 168.67,-428.84 180.64,-432.15"/>
<polygon fill="#63b8ff" stroke="#63b8ff" stroke-width="2" points="180.37,-436.18 190.92,-435.19 182.06,-429.39 180.37,-436.18"/>
</a>
</g>
</g>
<!-- Node3 -->
<g id="Node000003" class="node">
<title>Node3</title>
<g id="a_Node000003"><a xlink:href="../../dd/d93/client_8c.html#ae9344815031f09e5f54986014cea5f29" target="_top" xlink:title="Get list of clients.">
<polygon fill="white" stroke="#666666" points="290,-364.75 184,-364.75 184,-338 290,-338 290,-364.75"/>
<text text-anchor="middle" x="237" y="-345.55" font-family="Helvetica,sans-Serif" font-size="16.00">clientGetList</text>
</a>
</g>
</g>
<!-- Node1&#45;&gt;Node3 -->
<g id="edge2_Node000001_Node000003" class="edge">
<title>Node1&#45;&gt;Node3</title>
<g id="a_edge2_Node000001_Node000003"><a xlink:title=" ">
<path fill="none" stroke="#63b8ff" stroke-width="2" d="M109.92,-336.68C129.04,-338.91 150.77,-341.44 170.73,-343.76"/>
<polygon fill="#63b8ff" stroke="#63b8ff" stroke-width="2" points="170.2,-347.58 180.54,-345.26 171.02,-340.62 170.2,-347.58"/>
</a>
</g>
</g>
<!-- Node11 -->
<g id="Node000011" class="node">
<title>Node11</title>
<g id="a_Node000011"><a xlink:href="../../d7/dba/menuutil_8c.html#ae6ed898f3726361b1edde3f8707f0260" target="_top" xlink:title="Displays message box on the screen with title and message.">
<polygon fill="#fff0f0" stroke="red" points="784.75,-326.75 612.75,-326.75 612.75,-300 784.75,-300 784.75,-326.75"/>
<text text-anchor="middle" x="698.75" y="-307.55" font-family="Helvetica,sans-Serif" font-size="16.00">menuUtilMessagebox</text>
</a>
</g>
</g>
<!-- Node1&#45;&gt;Node11 -->
<g id="edge24_Node000001_Node000011" class="edge">
<title>Node1&#45;&gt;Node11</title>
<g id="a_edge24_Node000001_Node000011"><a xlink:title=" ">
<path fill="none" stroke="#63b8ff" stroke-width="2" d="M110.05,-328.94C218.24,-326.07 462.41,-319.61 599.54,-315.98"/>
<polygon fill="#63b8ff" stroke="#63b8ff" stroke-width="2" points="599.57,-319.4 609.47,-315.63 599.38,-312.4 599.57,-319.4"/>
</a>
</g>
</g>
<!-- Node15 -->
<g id="Node000015" class="node">
<title>Node15</title>
<g id="a_Node000015"><a xlink:href="../../da/de9/clientsmenu_8c.html#a25908570659c30ef67cf297ef0af107e" target="_top" xlink:title="Given client generates string repesenting client string in listView friendly format....">
<polygon fill="white" stroke="#666666" points="328.25,-161.75 145.75,-161.75 145.75,-135 328.25,-135 328.25,-161.75"/>
<text text-anchor="middle" x="237" y="-142.55" font-family="Helvetica,sans-Serif" font-size="16.00">clientGetListViewString</text>
</a>
</g>
</g>
<!-- Node1&#45;&gt;Node15 -->
<g id="edge10_Node000001_Node000015" class="edge">
<title>Node1&#45;&gt;Node15</title>
<g id="a_edge10_Node000001_Node000015"><a xlink:title=" ">
<path fill="none" stroke="#63b8ff" stroke-width="2" d="M59.53,-316.87C68.59,-286.03 95.12,-210.09 145.75,-171.38 147.24,-170.24 148.77,-169.16 150.35,-168.13"/>
<polygon fill="#63b8ff" stroke="#63b8ff" stroke-width="2" points="152.23,-170.99 159.29,-163.09 148.85,-164.86 152.23,-170.99"/>
</a>
</g>
</g>
<!-- Node16 -->
<g id="Node000016" class="node">
<title>Node16</title>
<g id="a_Node000016"><a xlink:href="../../da/de9/clientsmenu_8c.html#a12535dbea3961ee9186a47a4988d2208" target="_top" xlink:title="extract client given ListNode.">
<polygon fill="white" stroke="#666666" points="290,-409.75 184,-409.75 184,-383 290,-383 290,-409.75"/>
<text text-anchor="middle" x="237" y="-390.55" font-family="Helvetica,sans-Serif" font-size="16.00">extractClient</text>
</a>
</g>
</g>
<!-- Node1&#45;&gt;Node16 -->
<g id="edge11_Node000001_Node000016" class="edge">
<title>Node1&#45;&gt;Node16</title>
<g id="a_edge11_Node000001_Node000016"><a xlink:title=" ">
<path fill="none" stroke="#63b8ff" stroke-width="2" d="M81.25,-344.17C98.95,-353.38 123.31,-365.24 145.75,-373.38 154.02,-376.37 162.84,-379.13 171.62,-381.63"/>
<polygon fill="#63b8ff" stroke="#63b8ff" stroke-width="2" points="171.36,-385.72 181.93,-384.96 173.19,-378.97 171.36,-385.72"/>
</a>
</g>
</g>
<!-- Node18 -->
<g id="Node000018" class="node">
<title>Node18</title>
<g id="a_Node000018"><a xlink:href="../../d7/dba/menuutil_8c.html#aca301edf9d04aa391571851b148355ba" target="_top" xlink:title="List Viewer for lists.">
<polygon fill="white" stroke="#666666" points="296.38,-206.75 177.62,-206.75 177.62,-180 296.38,-180 296.38,-206.75"/>
<text text-anchor="middle" x="237" y="-187.55" font-family="Helvetica,sans-Serif" font-size="16.00">listViewInvoke</text>
</a>
</g>
</g>
<!-- Node1&#45;&gt;Node18 -->
<g id="edge14_Node000001_Node000018" class="edge">
<title>Node1&#45;&gt;Node18</title>
<g id="a_edge14_Node000001_Node000018"><a xlink:title=" ">
<path fill="none" stroke="#63b8ff" stroke-width="2" d="M73.8,-316.74C105.15,-292.9 170.13,-243.48 207.63,-214.95"/>
<polygon fill="#63b8ff" stroke="#63b8ff" stroke-width="2" points="210.04,-217 215.88,-208.16 205.8,-211.43 210.04,-217"/>
</a>
</g>
</g>
<!-- Node4 -->
<g id="Node000004" class="node">
<title>Node4</title>
<g id="a_Node000004"><a xlink:href="../../dd/d93/client_8c.html#a903cc00cfe46a85c92b09861aba1f26c" target="_top" xlink:title="CallBack function for dbHandleGetResultAsList . Transforms row into Client.">
<polygon fill="white" stroke="#666666" points="576.75,-454.75 364.25,-454.75 364.25,-428 576.75,-428 576.75,-454.75"/>
<text text-anchor="middle" x="470.5" y="-435.55" font-family="Helvetica,sans-Serif" font-size="16.00">clientGetListQueryCallback</text>
</a>
</g>
</g>
<!-- Node3&#45;&gt;Node4 -->
<g id="edge3_Node000003_Node000004" class="edge">
<title>Node3&#45;&gt;Node4</title>
<g id="a_edge3_Node000003_Node000004"><a xlink:title=" ">
<path fill="none" stroke="#63b8ff" stroke-width="2" d="M290.43,-358.81C303.47,-362.21 316.93,-367.16 328.25,-374.38 349.56,-387.95 342.71,-405.17 364.25,-418.38 366.52,-419.77 368.87,-421.08 371.27,-422.31"/>
<polygon fill="#63b8ff" stroke="#63b8ff" stroke-width="2" points="370.34,-425.62 380.89,-426.52 373.2,-419.23 370.34,-425.62"/>
</a>
</g>
</g>
<!-- Node8 -->
<g id="Node000008" class="node">
<title>Node8</title>
<g id="a_Node000008"><a xlink:href="../../dd/d93/client_8c.html#aca1c3909e30e8a13a7f49a0bc74640bd" target="_top" xlink:title="Generates SQL query.">
<polygon fill="white" stroke="#666666" points="556.12,-409.75 384.88,-409.75 384.88,-383 556.12,-383 556.12,-409.75"/>
<text text-anchor="middle" x="470.5" y="-390.55" font-family="Helvetica,sans-Serif" font-size="16.00">clientGetQueryOfSort</text>
</a>
</g>
</g>
<!-- Node3&#45;&gt;Node8 -->
<g id="edge6_Node000003_Node000008" class="edge">
<title>Node3&#45;&gt;Node8</title>
<g id="a_edge6_Node000003_Node000008"><a xlink:title=" ">
<path fill="none" stroke="#63b8ff" stroke-width="2" d="M290.24,-361.53C318.38,-367 353.77,-373.88 385.65,-380.08"/>
<polygon fill="#63b8ff" stroke="#63b8ff" stroke-width="2" points="385.66,-384.03 396.14,-382.5 386.99,-377.16 385.66,-384.03"/>
</a>
</g>
</g>
<!-- Node9 -->
<g id="Node000009" class="node">
<title>Node9</title>
<g id="a_Node000009"><a xlink:href="../../d3/df4/dbhandle_8c.html#a93d9b43b32495dc8630963c174aeba05" target="_top" xlink:title="Given query and callback function create List based on the query.">
<polygon fill="#fff0f0" stroke="red" points="571.12,-364.75 369.88,-364.75 369.88,-338 571.12,-338 571.12,-364.75"/>
<text text-anchor="middle" x="470.5" y="-345.55" font-family="Helvetica,sans-Serif" font-size="16.00">dbHandleGetResultAsList</text>
</a>
</g>
</g>
<!-- Node3&#45;&gt;Node9 -->
<g id="edge7_Node000003_Node000009" class="edge">
<title>Node3&#45;&gt;Node9</title>
<g id="a_edge7_Node000003_Node000009"><a xlink:title=" ">
<path fill="none" stroke="#63b8ff" stroke-width="2" d="M290.24,-351.38C310.05,-351.38 333.44,-351.38 356.68,-351.38"/>
<polygon fill="#63b8ff" stroke="#63b8ff" stroke-width="2" points="356.55,-354.88 366.55,-351.38 356.55,-347.88 356.55,-354.88"/>
</a>
</g>
</g>
<!-- Node5 -->
<g id="Node000005" class="node">
<title>Node5</title>
<g id="a_Node000005"><a xlink:href="../../dd/d93/client_8c.html#a2ecd1e440fb6f0c7ceb787859a7d284a" target="_top" xlink:title="Allocates and returns client containing nothing.">
<polygon fill="white" stroke="#666666" points="741.62,-499.75 655.88,-499.75 655.88,-473 741.62,-473 741.62,-499.75"/>
<text text-anchor="middle" x="698.75" y="-480.55" font-family="Helvetica,sans-Serif" font-size="16.00">clientNew</text>
</a>
</g>
</g>
<!-- Node4&#45;&gt;Node5 -->
<g id="edge4_Node000004_Node000005" class="edge">
<title>Node4&#45;&gt;Node5</title>
<g id="a_edge4_Node000004_Node000005"><a xlink:title=" ">
<path fill="none" stroke="#63b8ff" stroke-width="2" d="M541.23,-455.24C573.95,-461.75 612.38,-469.39 642.97,-475.48"/>
<polygon fill="#63b8ff" stroke="#63b8ff" stroke-width="2" points="643.07,-479.47 653.56,-477.98 644.43,-472.6 643.07,-479.47"/>
</a>
</g>
</g>
<!-- Node6 -->
<g id="Node000006" class="node">
<title>Node6</title>
<g id="a_Node000006"><a xlink:href="../../d7/d40/list_8c.html#a339df7b81560e9469a44d37ad966870f" target="_top" xlink:title="Adds item at the end of list.">
<polygon fill="#fff0f0" stroke="red" points="753.25,-454.75 644.25,-454.75 644.25,-428 753.25,-428 753.25,-454.75"/>
<text text-anchor="middle" x="698.75" y="-435.55" font-family="Helvetica,sans-Serif" font-size="16.00">listPushBack</text>
</a>
</g>
</g>
<!-- Node4&#45;&gt;Node6 -->
<g id="edge5_Node000004_Node000006" class="edge">
<title>Node4&#45;&gt;Node6</title>
<g id="a_edge5_Node000004_Node000006"><a xlink:title=" ">
<path fill="none" stroke="#63b8ff" stroke-width="2" d="M577.01,-441.38C595.37,-441.38 614,-441.38 630.95,-441.38"/>
<polygon fill="#63b8ff" stroke="#63b8ff" stroke-width="2" points="630.85,-444.88 640.85,-441.38 630.85,-437.88 630.85,-444.88"/>
</a>
</g>
</g>
<!-- Node9&#45;&gt;Node11 -->
<g id="edge8_Node000009_Node000011" class="edge">
<title>Node9&#45;&gt;Node11</title>
<g id="a_edge8_Node000009_Node000011"><a xlink:title=" ">
<path fill="none" stroke="#63b8ff" stroke-width="2" d="M553.82,-337.55C569.83,-334.86 586.73,-332.02 603.1,-329.27"/>
<polygon fill="#63b8ff" stroke="#63b8ff" stroke-width="2" points="604.21,-332.3 613.49,-327.19 603.05,-325.4 604.21,-332.3"/>
</a>
</g>
</g>
<!-- Node14 -->
<g id="Node000014" class="node">
<title>Node14</title>
<g id="a_Node000014"><a xlink:href="../../d7/dba/menuutil_8c.html#a14ca6bd9893f550a2051ca6cd5a689ac" target="_top" xlink:title="Print boarders of window.">
<polygon fill="white" stroke="#666666" points="990.5,-305.75 820.75,-305.75 820.75,-279 990.5,-279 990.5,-305.75"/>
<text text-anchor="middle" x="905.62" y="-286.55" font-family="Helvetica,sans-Serif" font-size="16.00">printWindowBoarders</text>
</a>
</g>
</g>
<!-- Node11&#45;&gt;Node14 -->
<g id="edge9_Node000011_Node000014" class="edge">
<title>Node11&#45;&gt;Node14</title>
<g id="a_edge9_Node000011_Node000014"><a xlink:title=" ">
<path fill="none" stroke="#63b8ff" stroke-width="2" d="M785.15,-304.62C792.52,-303.87 800,-303.1 807.45,-302.34"/>
<polygon fill="#63b8ff" stroke="#63b8ff" stroke-width="2" points="807.76,-305.51 817.35,-301.01 807.04,-298.55 807.76,-305.51"/>
</a>
</g>
</g>
<!-- Node17 -->
<g id="Node000017" class="node">
<title>Node17</title>
<g id="a_Node000017"><a xlink:href="../../dd/d93/client_8c.html#ad02c9ee4fe2e382b42ce897135f738af" target="_top" xlink:title="make Clone of Client. It allocates memory internaly.">
<polygon fill="white" stroke="#666666" points="518.62,-499.75 422.38,-499.75 422.38,-473 518.62,-473 518.62,-499.75"/>
<text text-anchor="middle" x="470.5" y="-480.55" font-family="Helvetica,sans-Serif" font-size="16.00">clientClone</text>
</a>
</g>
</g>
<!-- Node16&#45;&gt;Node17 -->
<g id="edge12_Node000016_Node000017" class="edge">
<title>Node16&#45;&gt;Node17</title>
<g id="a_edge12_Node000016_Node000017"><a xlink:title=" ">
<path fill="none" stroke="#63b8ff" stroke-width="2" d="M290.43,-403.81C303.47,-407.21 316.93,-412.16 328.25,-419.38 349.56,-432.95 342.71,-450.17 364.25,-463.38 377.7,-471.63 393.72,-476.94 409.15,-480.35"/>
<polygon fill="#63b8ff" stroke="#63b8ff" stroke-width="2" points="409.43,-484.35 419.91,-482.79 410.74,-477.47 409.43,-484.35"/>
</a>
</g>
</g>
<!-- Node17&#45;&gt;Node5 -->
<g id="edge13_Node000017_Node000005" class="edge">
<title>Node17&#45;&gt;Node5</title>
<g id="a_edge13_Node000017_Node000005"><a xlink:title=" ">
<path fill="none" stroke="#63b8ff" stroke-width="2" d="M518.93,-486.38C555.09,-486.38 604.97,-486.38 642.86,-486.38"/>
<polygon fill="#63b8ff" stroke="#63b8ff" stroke-width="2" points="642.72,-489.88 652.72,-486.38 642.72,-482.88 642.72,-489.88"/>
</a>
</g>
</g>
<!-- Node18&#45;&gt;Node14 -->
<g id="edge23_Node000018_Node000014" class="edge">
<title>Node18&#45;&gt;Node14</title>
<g id="a_edge23_Node000018_Node000014"><a xlink:title=" ">
<path fill="none" stroke="#63b8ff" stroke-width="2" d="M274.77,-207.15C299.69,-215.96 333.54,-226.9 364.25,-233.38 517.32,-265.65 698.72,-280.86 807.59,-287.58"/>
<polygon fill="#63b8ff" stroke="#63b8ff" stroke-width="2" points="807.31,-291.25 817.5,-288.36 807.73,-284.26 807.31,-291.25"/>
</a>
</g>
</g>
<!-- Node19 -->
<g id="Node000019" class="node">
<title>Node19</title>
<g id="a_Node000019"><a xlink:href="../../d7/d40/list_8c.html#a0837532833bd96d83104386c1aa69c10" target="_top" xlink:title="How many elements are there in List.">
<polygon fill="white" stroke="#666666" points="732.62,-206.75 664.88,-206.75 664.88,-180 732.62,-180 732.62,-206.75"/>
<text text-anchor="middle" x="698.75" y="-187.55" font-family="Helvetica,sans-Serif" font-size="16.00">listSize</text>
</a>
</g>
</g>
<!-- Node18&#45;&gt;Node19 -->
<g id="edge15_Node000018_Node000019" class="edge">
<title>Node18&#45;&gt;Node19</title>
<g id="a_edge15_Node000018_Node000019"><a xlink:title=" ">
<path fill="none" stroke="#63b8ff" stroke-width="2" d="M296.81,-205.79C317.97,-209.68 342.08,-213.46 364.25,-215.38 458.34,-223.51 482.69,-223.86 576.75,-215.38 601.81,-213.11 629.45,-208.27 651.97,-203.7"/>
<polygon fill="#63b8ff" stroke="#63b8ff" stroke-width="2" points="653.51,-206.54 662.59,-201.07 652.08,-199.69 653.51,-206.54"/>
</a>
</g>
</g>
<!-- Node20 -->
<g id="Node000020" class="node">
<title>Node20</title>
<g id="a_Node000020"><a xlink:href="../../d7/dba/menuutil_8c.html#a6229d06cea0b18a996e9f378719c56bb" target="_top" xlink:title="frees internal List of listView.">
<polygon fill="#fff0f0" stroke="red" points="535.12,-206.75 405.88,-206.75 405.88,-180 535.12,-180 535.12,-206.75"/>
<text text-anchor="middle" x="470.5" y="-187.55" font-family="Helvetica,sans-Serif" font-size="16.00">listViewFreeList</text>
</a>
</g>
</g>
<!-- Node18&#45;&gt;Node20 -->
<g id="edge16_Node000018_Node000020" class="edge">
<title>Node18&#45;&gt;Node20</title>
<g id="a_edge16_Node000018_Node000020"><a xlink:title=" ">
<path fill="none" stroke="#63b8ff" stroke-width="2" d="M296.72,-193.38C325.91,-193.38 361.57,-193.38 392.89,-193.38"/>
<polygon fill="#63b8ff" stroke="#63b8ff" stroke-width="2" points="392.56,-196.88 402.56,-193.38 392.56,-189.88 392.56,-196.88"/>
</a>
</g>
</g>
<!-- Node25 -->
<g id="Node000025" class="node">
<title>Node25</title>
<g id="a_Node000025"><a xlink:href="../../d7/dba/menuutil_8c.html#a5cf01d8794a16c8f4d79eed99ec0b560" target="_top" xlink:title="frees memory used by listView internal Menu">
<polygon fill="white" stroke="#666666" points="542.62,-116.75 398.38,-116.75 398.38,-90 542.62,-90 542.62,-116.75"/>
<text text-anchor="middle" x="470.5" y="-97.55" font-family="Helvetica,sans-Serif" font-size="16.00">listViewFreeMenu</text>
</a>
</g>
</g>
<!-- Node18&#45;&gt;Node25 -->
<g id="edge18_Node000018_Node000025" class="edge">
<title>Node18&#45;&gt;Node25</title>
<g id="a_edge18_Node000018_Node000025"><a xlink:title=" ">
<path fill="none" stroke="#63b8ff" stroke-width="2" d="M296.58,-184.23C307.63,-180.93 318.7,-176.46 328.25,-170.38 349.56,-156.8 342.71,-139.58 364.25,-126.38 370.87,-122.32 378.1,-118.97 385.59,-116.21"/>
<polygon fill="#63b8ff" stroke="#63b8ff" stroke-width="2" points="387.48,-118.63 395.92,-112.22 385.32,-111.97 387.48,-118.63"/>
</a>
</g>
</g>
<!-- Node26 -->
<g id="Node000026" class="node">
<title>Node26</title>
<g id="a_Node000026"><a xlink:href="../../d7/dba/menuutil_8c.html#a6154454b5c30466c33806a07ce7578d5" target="_top" xlink:title=" ">
<polygon fill="white" stroke="#666666" points="564.75,-71.75 376.25,-71.75 376.25,-45 564.75,-45 564.75,-71.75"/>
<text text-anchor="middle" x="470.5" y="-52.55" font-family="Helvetica,sans-Serif" font-size="16.00">listViewHandleIteraction</text>
</a>
</g>
</g>
<!-- Node18&#45;&gt;Node26 -->
<g id="edge19_Node000018_Node000026" class="edge">
<title>Node18&#45;&gt;Node26</title>
<g id="a_edge19_Node000018_Node000026"><a xlink:title=" ">
<path fill="none" stroke="#63b8ff" stroke-width="2" d="M296.79,-186.82C308.2,-183.35 319.36,-178.14 328.25,-170.38 360.39,-142.3 331.64,-108.89 364.25,-81.38 365.32,-80.47 366.42,-79.6 367.55,-78.76"/>
<polygon fill="#63b8ff" stroke="#63b8ff" stroke-width="2" points="369.66,-81.32 376.27,-73.04 365.94,-75.38 369.66,-81.32"/>
</a>
</g>
</g>
<!-- Node27 -->
<g id="Node000027" class="node">
<title>Node27</title>
<g id="a_Node000027"><a xlink:href="../../d7/dba/menuutil_8c.html#a06a2ceb28df68b49e42d701e49f324c9" target="_top" xlink:title="Allocates and fills MENU, based on List content.">
<polygon fill="#fff0f0" stroke="red" points="537,-161.75 404,-161.75 404,-135 537,-135 537,-161.75"/>
<text text-anchor="middle" x="470.5" y="-142.55" font-family="Helvetica,sans-Serif" font-size="16.00">listViewInitMenu</text>
</a>
</g>
</g>
<!-- Node18&#45;&gt;Node27 -->
<g id="edge20_Node000018_Node000027" class="edge">
<title>Node18&#45;&gt;Node27</title>
<g id="a_edge20_Node000018_Node000027"><a xlink:title=" ">
<path fill="none" stroke="#63b8ff" stroke-width="2" d="M296.72,-181.96C325.44,-176.38 360.42,-169.58 391.37,-163.56"/>
<polygon fill="#63b8ff" stroke="#63b8ff" stroke-width="2" points="392.76,-166.47 401.9,-161.13 391.42,-159.6 392.76,-166.47"/>
</a>
</g>
</g>
<!-- Node28 -->
<g id="Node000028" class="node">
<title>Node28</title>
<g id="a_Node000028"><a xlink:href="../../d7/dba/menuutil_8c.html#adc98ee6c310a6ad6286dde9a1426db38" target="_top" xlink:title="Prints header row of table.">
<polygon fill="white" stroke="#666666" points="547.5,-26.75 393.5,-26.75 393.5,0 547.5,0 547.5,-26.75"/>
<text text-anchor="middle" x="470.5" y="-7.55" font-family="Helvetica,sans-Serif" font-size="16.00">printColumnNames</text>
</a>
</g>
</g>
<!-- Node18&#45;&gt;Node28 -->
<g id="edge22_Node000018_Node000028" class="edge">
<title>Node18&#45;&gt;Node28</title>
<g id="a_edge22_Node000018_Node000028"><a xlink:title=" ">
<path fill="none" stroke="#63b8ff" stroke-width="2" d="M296.61,-187.92C308.3,-184.4 319.62,-178.89 328.25,-170.38 372.14,-127.05 319.63,-78.94 364.25,-36.38 369.33,-31.53 375.17,-27.62 381.46,-24.46"/>
<polygon fill="#63b8ff" stroke="#63b8ff" stroke-width="2" points="383.29,-27.65 391.17,-20.56 380.59,-21.19 383.29,-27.65"/>
</a>
</g>
</g>
<!-- Node20&#45;&gt;Node19 -->
<g id="edge17_Node000020_Node000019" class="edge">
<title>Node20&#45;&gt;Node19</title>
<g id="a_edge17_Node000020_Node000019"><a xlink:title=" ">
<path fill="none" stroke="#63b8ff" stroke-width="2" d="M535.43,-193.38C572.57,-193.38 618.51,-193.38 652.02,-193.38"/>
<polygon fill="#63b8ff" stroke="#63b8ff" stroke-width="2" points="651.66,-196.88 661.66,-193.38 651.66,-189.88 651.66,-196.88"/>
</a>
</g>
</g>
<!-- Node27&#45;&gt;Node19 -->
<g id="edge21_Node000027_Node000019" class="edge">
<title>Node27&#45;&gt;Node19</title>
<g id="a_edge21_Node000027_Node000019"><a xlink:title=" ">
<path fill="none" stroke="#63b8ff" stroke-width="2" d="M537.24,-161.45C574.1,-168.78 619.15,-177.74 652.13,-184.3"/>
<polygon fill="#63b8ff" stroke="#63b8ff" stroke-width="2" points="652.09,-188.26 662.58,-186.78 653.45,-181.39 652.09,-188.26"/>
</a>
</g>
</g>
</g>
</svg>

<g id="navigator" transform="translate(0 0)" fill="#404254">
  <rect fill="#f2f5e9" fill-opacity="0.5" stroke="#606060" stroke-width=".5" x="0" y="0" width="60" height="60"/>
  <use id="zoomplus" xlink:href="#zoomPlus" x="17" y="9" onmousedown="handleZoom(evt,'in')"/>
  <use id="zoomminus" xlink:href="#zoomMin" x="42" y="9" onmousedown="handleZoom(evt,'out')"/>
  <use id="reset" xlink:href="#resetDef" x="30" y="36" onmousedown="handleReset()"/>
   <use id="arrowup" xlink:href="#arrowUp" x="0" y="0" onmousedown="handlePan(0,-1)"/>
  <use id="arrowright" xlink:href="#arrowRight" x="0" y="0" onmousedown="handlePan(1,0)"/>
  <use id="arrowdown" xlink:href="#arrowDown" x="0" y="0" onmousedown="handlePan(0,1)"/>
  <use id="arrowleft" xlink:href="#arrowLeft" x="0" y="0" onmousedown="handlePan(-1,0)"/>
</g>
<svg viewBox="0 0 15 15" width="100%" height="30px" preserveAspectRatio="xMaxYMin meet">
 <g id="arrow_out" transform="scale(0.3 0.3)">
  <a xlink:href="clientsmenu_8c_a1d711b31a5a18af01cdd582e537ff921_cgraph_org.svg" target="_base">
   <rect id="button" ry="5" rx="5" y="6" x="6" height="38" width="38"
        fill="#f2f5e9" fill-opacity="0.5" stroke="#606060" stroke-width="1.0"/>
   <path id="arrow"
     d="M 11.500037,31.436501 C 11.940474,20.09759 22.043105,11.32322 32.158766,21.979434 L 37.068811,17.246167 C 37.068811,17.246167 37.088388,32 37.088388,32 L 22.160133,31.978069 C 22.160133,31.978069 26.997745,27.140456 26.997745,27.140456 C 18.528582,18.264221 13.291696,25.230495 11.500037,31.436501 z"
     style="fill:#404040;"/>
  </a>
 </g>
</svg>

<style type='text/css'>
<![CDATA[
[data-mouse-over-selected='false'] { opacity: 0.7; }
[data-mouse-over-selected='true']  { opacity: 1.0; }
]]>
</style>
<script type="application/ecmascript"><![CDATA[
document.addEventListener('DOMContentLoaded', (event) => {
  highlightEdges();
  highlightAdjacentNodes();
});
]]></script>
</svg>
