<?xml version="1.0" encoding="UTF-8" standalone="no"?>
<!DOCTYPE svg PUBLIC "-//W3C//DTD SVG 1.1//EN"
 "http://www.w3.org/Graphics/SVG/1.1/DTD/svg11.dtd">
<!-- Generated by graphviz version 8.0.5 (0)
 -->
<!-- Title: clientChoose Pages: 1 -->
<svg width="665pt" height="125pt"
 viewBox="0.00 0.00 665.25 124.75" xmlns="http://www.w3.org/2000/svg" xmlns:xlink="http://www.w3.org/1999/xlink">
<g id="graph0" class="graph" transform="scale(1 1) rotate(0) translate(4 120.75)">
<title>clientChoose</title>
<!-- Node1 -->
<g id="Node000001" class="node">
<title>Node1</title>
<g id="a_Node000001"><a xlink:title="Invokes ListView of clients.">
<polygon fill="#999999" stroke="#666666" points="657.25,-71.75 547.5,-71.75 547.5,-45 657.25,-45 657.25,-71.75"/>
<text text-anchor="middle" x="602.38" y="-52.55" font-family="Helvetica,sans-Serif" font-size="16.00">clientChoose</text>
</a>
</g>
</g>
<!-- Node2 -->
<g id="Node000002" class="node">
<title>Node2</title>
<g id="a_Node000002"><a xlink:href="../../da/de9/clientsmenu_8c.html#a1aa5fbc029a7e320bf6f6c3a2e6e27cc" target="_top" xlink:title="Wrapper around clientChoose frees extracted client instanntly.">
<polygon fill="white" stroke="#666666" points="511.5,-116.75 333.5,-116.75 333.5,-90 511.5,-90 511.5,-116.75"/>
<text text-anchor="middle" x="422.5" y="-97.55" font-family="Helvetica,sans-Serif" font-size="16.00">clientChooseNoReturn</text>
</a>
</g>
</g>
<!-- Node1&#45;&gt;Node2 -->
<g id="edge1_Node000001_Node000002" class="edge">
<title>Node1&#45;&gt;Node2</title>
<g id="a_edge1_Node000001_Node000002"><a xlink:title=" ">
<path fill="none" stroke="#63b8ff" stroke-width="2" d="M534.7,-75.24C516.04,-79.96 495.99,-85.04 478.12,-89.56"/>
<polygon fill="#63b8ff" stroke="#63b8ff" stroke-width="2" points="536.2,-77.97 545.04,-72.12 534.49,-71.18 536.2,-77.97"/>
</a>
</g>
</g>
<!-- Node10 -->
<g id="Node000010" class="node">
<title>Node10</title>
<g id="a_Node000010"><a xlink:href="../../da/de9/clientsmenu_8c.html#a3785053dd7fa7ee54cb52674dadf5941" target="_top" xlink:title="Edit client.">
<polygon fill="white" stroke="#666666" points="463.5,-71.75 381.5,-71.75 381.5,-45 463.5,-45 463.5,-71.75"/>
<text text-anchor="middle" x="422.5" y="-52.55" font-family="Helvetica,sans-Serif" font-size="16.00">clientEdit</text>
</a>
</g>
</g>
<!-- Node1&#45;&gt;Node10 -->
<g id="edge4_Node000001_Node000010" class="edge">
<title>Node1&#45;&gt;Node10</title>
<g id="a_edge4_Node000001_Node000010"><a xlink:title=" ">
<path fill="none" stroke="#63b8ff" stroke-width="2" d="M534.18,-58.38C510.53,-58.38 484.71,-58.38 463.95,-58.38"/>
<polygon fill="#63b8ff" stroke="#63b8ff" stroke-width="2" points="534.04,-61.88 544.04,-58.38 534.04,-54.88 534.04,-61.88"/>
</a>
</g>
</g>
<!-- Node11 -->
<g id="Node000011" class="node">
<title>Node11</title>
<g id="a_Node000011"><a xlink:href="../../da/de9/clientsmenu_8c.html#ae81aa78f6e32fdd87e554ba85c063111" target="_top" xlink:title="Remove client.">
<polygon fill="white" stroke="#666666" points="479.62,-26.75 365.38,-26.75 365.38,0 479.62,0 479.62,-26.75"/>
<text text-anchor="middle" x="422.5" y="-7.55" font-family="Helvetica,sans-Serif" font-size="16.00">clientRemove</text>
</a>
</g>
</g>
<!-- Node1&#45;&gt;Node11 -->
<g id="edge6_Node000001_Node000011" class="edge">
<title>Node1&#45;&gt;Node11</title>
<g id="a_edge6_Node000001_Node000011"><a xlink:title=" ">
<path fill="none" stroke="#63b8ff" stroke-width="2" d="M534.7,-41.51C516.04,-36.79 495.99,-31.71 478.12,-27.19"/>
<polygon fill="#63b8ff" stroke="#63b8ff" stroke-width="2" points="534.49,-45.57 545.04,-44.63 536.2,-38.78 534.49,-45.57"/>
</a>
</g>
</g>
<!-- Node3 -->
<g id="Node000003" class="node">
<title>Node3</title>
<g id="a_Node000003"><a xlink:href="../../da/de9/clientsmenu_8c.html#ad2a8354e045a2d4deb82f4b3b20ad5a4" target="_top" xlink:title="Handles displaying of clients menu.">
<polygon fill="white" stroke="#666666" points="297.5,-71.75 194.5,-71.75 194.5,-45 297.5,-45 297.5,-71.75"/>
<text text-anchor="middle" x="246" y="-52.55" font-family="Helvetica,sans-Serif" font-size="16.00">clientsMenu</text>
</a>
</g>
</g>
<!-- Node2&#45;&gt;Node3 -->
<g id="edge2_Node000002_Node000003" class="edge">
<title>Node2&#45;&gt;Node3</title>
<g id="a_edge2_Node000002_Node000003"><a xlink:title=" ">
<path fill="none" stroke="#63b8ff" stroke-width="2" d="M355.17,-86.27C336.2,-81.38 315.82,-76.12 297.92,-71.51"/>
<polygon fill="#63b8ff" stroke="#63b8ff" stroke-width="2" points="355.16,-90.4 365.72,-89.51 356.91,-83.62 355.16,-90.4"/>
</a>
</g>
</g>
<!-- Node4 -->
<g id="Node000004" class="node">
<title>Node4</title>
<g id="a_Node000004"><a xlink:href="../../de/dc9/mmenu_8c.html#a315bc1f41a79da39147ec73e38cfc9e7" target="_top" xlink:title="Handles main menu.">
<polygon fill="#fff0f0" stroke="red" points="158.5,-71.75 0,-71.75 0,-45 158.5,-45 158.5,-71.75"/>
<text text-anchor="middle" x="79.25" y="-52.55" font-family="Helvetica,sans-Serif" font-size="16.00">mainMenuSelection</text>
</a>
</g>
</g>
<!-- Node3&#45;&gt;Node4 -->
<g id="edge3_Node000003_Node000004" class="edge">
<title>Node3&#45;&gt;Node4</title>
<g id="a_edge3_Node000003_Node000004"><a xlink:title=" ">
<path fill="none" stroke="#63b8ff" stroke-width="2" d="M181.23,-58.38C173.86,-58.38 166.27,-58.38 158.73,-58.38"/>
<polygon fill="#63b8ff" stroke="#63b8ff" stroke-width="2" points="181.23,-61.88 191.23,-58.38 181.23,-54.88 181.23,-61.88"/>
</a>
</g>
</g>
<!-- Node10&#45;&gt;Node3 -->
<g id="edge5_Node000010_Node000003" class="edge">
<title>Node10&#45;&gt;Node3</title>
<g id="a_edge5_Node000010_Node000003"><a xlink:title=" ">
<path fill="none" stroke="#63b8ff" stroke-width="2" d="M368.32,-58.38C345.94,-58.38 320.01,-58.38 297.88,-58.38"/>
<polygon fill="#63b8ff" stroke="#63b8ff" stroke-width="2" points="368.03,-61.88 378.03,-58.38 368.03,-54.88 368.03,-61.88"/>
</a>
</g>
</g>
<!-- Node11&#45;&gt;Node3 -->
<g id="edge7_Node000011_Node000003" class="edge">
<title>Node11&#45;&gt;Node3</title>
<g id="a_edge7_Node000011_Node000003"><a xlink:title=" ">
<path fill="none" stroke="#63b8ff" stroke-width="2" d="M355.17,-30.48C336.2,-35.37 315.82,-40.63 297.92,-45.24"/>
<polygon fill="#63b8ff" stroke="#63b8ff" stroke-width="2" points="356.91,-33.13 365.72,-27.24 355.16,-26.35 356.91,-33.13"/>
</a>
</g>
</g>
</g>
</svg>
