<?xml version="1.0" encoding="UTF-8" standalone="no"?>
<!DOCTYPE svg PUBLIC "-//W3C//DTD SVG 1.1//EN"
 "http://www.w3.org/Graphics/SVG/1.1/DTD/svg11.dtd">
<!-- Generated by graphviz version 8.0.5 (0)
 -->
<!-- Title: clientRemove Pages: 1 -->
<svg width="584pt" height="35pt"
 viewBox="0.00 0.00 583.50 34.75" xmlns="http://www.w3.org/2000/svg" xmlns:xlink="http://www.w3.org/1999/xlink">
<g id="graph0" class="graph" transform="scale(1 1) rotate(0) translate(4 30.75)">
<title>clientRemove</title>
<!-- Node1 -->
<g id="Node000001" class="node">
<title>Node1</title>
<g id="a_Node000001"><a xlink:title="Remove client.">
<polygon fill="#999999" stroke="#666666" points="575.5,-26.75 461.25,-26.75 461.25,0 575.5,0 575.5,-26.75"/>
<text text-anchor="middle" x="518.38" y="-7.55" font-family="Helvetica,sans-Serif" font-size="16.00">clientRemove</text>
</a>
</g>
</g>
<!-- Node2 -->
<g id="Node000002" class="node">
<title>Node2</title>
<g id="a_Node000002"><a xlink:href="../../da/de9/clientsmenu_8c.html#ad2a8354e045a2d4deb82f4b3b20ad5a4" target="_top" xlink:title="Handles displaying of clients menu.">
<polygon fill="white" stroke="#666666" points="425.25,-26.75 322.25,-26.75 322.25,0 425.25,0 425.25,-26.75"/>
<text text-anchor="middle" x="373.75" y="-7.55" font-family="Helvetica,sans-Serif" font-size="16.00">clientsMenu</text>
</a>
</g>
</g>
<!-- Node1&#45;&gt;Node2 -->
<g id="edge1_Node000001_Node000002" class="edge">
<title>Node1&#45;&gt;Node2</title>
<g id="a_edge1_Node000001_Node000002"><a xlink:title=" ">
<path fill="none" stroke="#63b8ff" stroke-width="2" d="M448.26,-13.38C440.63,-13.38 432.97,-13.38 425.62,-13.38"/>
<polygon fill="#63b8ff" stroke="#63b8ff" stroke-width="2" points="448.01,-16.88 458.01,-13.38 448.01,-9.88 448.01,-16.88"/>
</a>
</g>
</g>
<!-- Node3 -->
<g id="Node000003" class="node">
<title>Node3</title>
<g id="a_Node000003"><a xlink:href="../../de/dc9/mmenu_8c.html#a315bc1f41a79da39147ec73e38cfc9e7" target="_top" xlink:title="Handles main menu.">
<polygon fill="white" stroke="#666666" points="286.25,-26.75 127.75,-26.75 127.75,0 286.25,0 286.25,-26.75"/>
<text text-anchor="middle" x="207" y="-7.55" font-family="Helvetica,sans-Serif" font-size="16.00">mainMenuSelection</text>
</a>
</g>
</g>
<!-- Node2&#45;&gt;Node3 -->
<g id="edge2_Node000002_Node000003" class="edge">
<title>Node2&#45;&gt;Node3</title>
<g id="a_edge2_Node000002_Node000003"><a xlink:title=" ">
<path fill="none" stroke="#63b8ff" stroke-width="2" d="M308.98,-13.38C301.61,-13.38 294.02,-13.38 286.48,-13.38"/>
<polygon fill="#63b8ff" stroke="#63b8ff" stroke-width="2" points="308.98,-16.88 318.98,-13.38 308.98,-9.88 308.98,-16.88"/>
</a>
</g>
</g>
<!-- Node4 -->
<g id="Node000004" class="node">
<title>Node4</title>
<g id="a_Node000004"><a xlink:href="../../de/dc9/mmenu_8c.html#a29c2128f12316ca1ce77fd1d686f6ec7" target="_top" xlink:title="Invokes menu.">
<polygon fill="#fff0f0" stroke="red" points="91.75,-26.75 0,-26.75 0,0 91.75,0 91.75,-26.75"/>
<text text-anchor="middle" x="45.88" y="-7.55" font-family="Helvetica,sans-Serif" font-size="16.00">mainMenu</text>
</a>
</g>
</g>
<!-- Node3&#45;&gt;Node4 -->
<g id="edge3_Node000003_Node000004" class="edge">
<title>Node3&#45;&gt;Node4</title>
<g id="a_edge3_Node000003_Node000004"><a xlink:title=" ">
<path fill="none" stroke="#63b8ff" stroke-width="2" d="M114.41,-13.38C106.76,-13.38 99.27,-13.38 92.22,-13.38"/>
<polygon fill="#63b8ff" stroke="#63b8ff" stroke-width="2" points="114.37,-16.88 124.37,-13.38 114.37,-9.88 114.37,-16.88"/>
</a>
</g>
</g>
</g>
</svg>
