<?xml version="1.0" encoding="UTF-8" standalone="no"?>
<!DOCTYPE svg PUBLIC "-//W3C//DTD SVG 1.1//EN"
 "http://www.w3.org/Graphics/SVG/1.1/DTD/svg11.dtd">
<!-- Generated by graphviz version 8.0.5 (0)
 -->
<!-- Title: clientChoose Pages: 1 -->
<!--zoomable 125 -->

<svg id="main" version="1.1" xmlns="http://www.w3.org/2000/svg" xmlns:xlink="http://www.w3.org/1999/xlink" xml:space="preserve" onload="init(evt)">
<style type="text/css"><![CDATA[
.node, .edge {opacity: 0.7;}
.node.selected, .edge.selected {opacity: 1;}
.edge:hover path { stroke: red; }
.edge:hover polygon { stroke: red; fill: red; }
]]></style>

<defs>
  <circle id="rim" cx="0" cy="0" r="7"/>
  <circle id="rim2" cx="0" cy="0" r="3.5"/>
  <g id="zoomPlus">
    <use xlink:href="#rim" fill="#404040"><set attributeName="fill" to="#808080" begin="zoomplus.mouseover" end="zoomplus.mouseout"/></use>
    <path d="M-4,0h8M0,-4v8" fill="none" stroke="white" stroke-width="1.5" pointer-events="none"/>
  </g>
  <g id="zoomMin">
    <use xlink:href="#rim" fill="#404040"><set attributeName="fill" to="#808080" begin="zoomminus.mouseover" end="zoomminus.mouseout"/></use>
    <path d="M-4,0h8" fill="none" stroke="white" stroke-width="1.5" pointer-events="none"/>
  </g>
  <g id="arrowUp" transform="translate(30 24)">
    <use xlink:href="#rim"/>
    <path pointer-events="none" fill="none" stroke="white" stroke-width="1.5" d="M0,-3.0v7 M-2.5,-0.5L0,-3.0L2.5,-0.5"/>
  </g>
  <g id="arrowRight" transform="rotate(90) translate(36 -43)">
    <use xlink:href="#rim"/>
    <path pointer-events="none" fill="none" stroke="white" stroke-width="1.5" d="M0,-3.0v7 M-2.5,-0.5L0,-3.0L2.5,-0.5"/>
  </g>
  <g id="arrowDown" transform="rotate(180) translate(-30 -48)">
    <use xlink:href="#rim"/>
    <path pointer-events="none" fill="none" stroke="white" stroke-width="1.5" d="M0,-3.0v7 M-2.5,-0.5L0,-3.0L2.5,-0.5"/>
  </g>
  <g id="arrowLeft" transform="rotate(270) translate(-36 17)">
    <use xlink:href="#rim"/>
    <path pointer-events="none" fill="none" stroke="white" stroke-width="1.5" d="M0,-3.0v7 M-2.5,-0.5L0,-3.0L2.5,-0.5"/>
  </g>
  <g id="resetDef">
    <use xlink:href="#rim2" fill="#404040"><set attributeName="fill" to="#808080" begin="reset.mouseover" end="reset.mouseout"/></use>
  </g>
</defs>
<script type="application/ecmascript">
var viewWidth = 665;
var viewHeight = 125;
var sectionId = 'dynsection-4';
</script>
<script type="application/ecmascript" xlink:href="../../svg.min.js"/>
<svg id="graph" class="graph">
<g id="viewport">
<title>clientChoose</title>
<!-- Node1 -->
<g id="Node000001" class="node">
<title>Node1</title>
<g id="a_Node000001"><a xlink:title="Invokes ListView of clients.">
<polygon fill="#999999" stroke="#666666" points="657.25,-71.75 547.5,-71.75 547.5,-45 657.25,-45 657.25,-71.75"/>
<text text-anchor="middle" x="602.38" y="-52.55" font-family="Helvetica,sans-Serif" font-size="16.00">clientChoose</text>
</a>
</g>
</g>
<!-- Node2 -->
<g id="Node000002" class="node">
<title>Node2</title>
<g id="a_Node000002"><a xlink:href="../../da/de9/clientsmenu_8c.html#a1aa5fbc029a7e320bf6f6c3a2e6e27cc" target="_top" xlink:title="Wrapper around clientChoose frees extracted client instanntly.">
<polygon fill="white" stroke="#666666" points="511.5,-116.75 333.5,-116.75 333.5,-90 511.5,-90 511.5,-116.75"/>
<text text-anchor="middle" x="422.5" y="-97.55" font-family="Helvetica,sans-Serif" font-size="16.00">clientChooseNoReturn</text>
</a>
</g>
</g>
<!-- Node1&#45;&gt;Node2 -->
<g id="edge1_Node000001_Node000002" class="edge">
<title>Node1&#45;&gt;Node2</title>
<g id="a_edge1_Node000001_Node000002"><a xlink:title=" ">
<path fill="none" stroke="#63b8ff" stroke-width="2" d="M534.7,-75.24C516.04,-79.96 495.99,-85.04 478.12,-89.56"/>
<polygon fill="#63b8ff" stroke="#63b8ff" stroke-width="2" points="536.2,-77.97 545.04,-72.12 534.49,-71.18 536.2,-77.97"/>
</a>
</g>
</g>
<!-- Node10 -->
<g id="Node000010" class="node">
<title>Node10</title>
<g id="a_Node000010"><a xlink:href="../../da/de9/clientsmenu_8c.html#a3785053dd7fa7ee54cb52674dadf5941" target="_top" xlink:title="Edit client.">
<polygon fill="white" stroke="#666666" points="463.5,-71.75 381.5,-71.75 381.5,-45 463.5,-45 463.5,-71.75"/>
<text text-anchor="middle" x="422.5" y="-52.55" font-family="Helvetica,sans-Serif" font-size="16.00">clientEdit</text>
</a>
</g>
</g>
<!-- Node1&#45;&gt;Node10 -->
<g id="edge4_Node000001_Node000010" class="edge">
<title>Node1&#45;&gt;Node10</title>
<g id="a_edge4_Node000001_Node000010"><a xlink:title=" ">
<path fill="none" stroke="#63b8ff" stroke-width="2" d="M534.18,-58.38C510.53,-58.38 484.71,-58.38 463.95,-58.38"/>
<polygon fill="#63b8ff" stroke="#63b8ff" stroke-width="2" points="534.04,-61.88 544.04,-58.38 534.04,-54.88 534.04,-61.88"/>
</a>
</g>
</g>
<!-- Node11 -->
<g id="Node000011" class="node">
<title>Node11</title>
<g id="a_Node000011"><a xlink:href="../../da/de9/clientsmenu_8c.html#ae81aa78f6e32fdd87e554ba85c063111" target="_top" xlink:title="Remove client.">
<polygon fill="white" stroke="#666666" points="479.62,-26.75 365.38,-26.75 365.38,0 479.62,0 479.62,-26.75"/>
<text text-anchor="middle" x="422.5" y="-7.55" font-family="Helvetica,sans-Serif" font-size="16.00">clientRemove</text>
</a>
</g>
</g>
<!-- Node1&#45;&gt;Node11 -->
<g id="edge6_Node000001_Node000011" class="edge">
<title>Node1&#45;&gt;Node11</title>
<g id="a_edge6_Node000001_Node000011"><a xlink:title=" ">
<path fill="none" stroke="#63b8ff" stroke-width="2" d="M534.7,-41.51C516.04,-36.79 495.99,-31.71 478.12,-27.19"/>
<polygon fill="#63b8ff" stroke="#63b8ff" stroke-width="2" points="534.49,-45.57 545.04,-44.63 536.2,-38.78 534.49,-45.57"/>
</a>
</g>
</g>
<!-- Node3 -->
<g id="Node000003" class="node">
<title>Node3</title>
<g id="a_Node000003"><a xlink:href="../../da/de9/clientsmenu_8c.html#ad2a8354e045a2d4deb82f4b3b20ad5a4" target="_top" xlink:title="Handles displaying of clients menu.">
<polygon fill="white" stroke="#666666" points="297.5,-71.75 194.5,-71.75 194.5,-45 297.5,-45 297.5,-71.75"/>
<text text-anchor="middle" x="246" y="-52.55" font-family="Helvetica,sans-Serif" font-size="16.00">clientsMenu</text>
</a>
</g>
</g>
<!-- Node2&#45;&gt;Node3 -->
<g id="edge2_Node000002_Node000003" class="edge">
<title>Node2&#45;&gt;Node3</title>
<g id="a_edge2_Node000002_Node000003"><a xlink:title=" ">
<path fill="none" stroke="#63b8ff" stroke-width="2" d="M355.17,-86.27C336.2,-81.38 315.82,-76.12 297.92,-71.51"/>
<polygon fill="#63b8ff" stroke="#63b8ff" stroke-width="2" points="355.16,-90.4 365.72,-89.51 356.91,-83.62 355.16,-90.4"/>
</a>
</g>
</g>
<!-- Node4 -->
<g id="Node000004" class="node">
<title>Node4</title>
<g id="a_Node000004"><a xlink:href="../../de/dc9/mmenu_8c.html#a315bc1f41a79da39147ec73e38cfc9e7" target="_top" xlink:title="Handles main menu.">
<polygon fill="#fff0f0" stroke="red" points="158.5,-71.75 0,-71.75 0,-45 158.5,-45 158.5,-71.75"/>
<text text-anchor="middle" x="79.25" y="-52.55" font-family="Helvetica,sans-Serif" font-size="16.00">mainMenuSelection</text>
</a>
</g>
</g>
<!-- Node3&#45;&gt;Node4 -->
<g id="edge3_Node000003_Node000004" class="edge">
<title>Node3&#45;&gt;Node4</title>
<g id="a_edge3_Node000003_Node000004"><a xlink:title=" ">
<path fill="none" stroke="#63b8ff" stroke-width="2" d="M181.23,-58.38C173.86,-58.38 166.27,-58.38 158.73,-58.38"/>
<polygon fill="#63b8ff" stroke="#63b8ff" stroke-width="2" points="181.23,-61.88 191.23,-58.38 181.23,-54.88 181.23,-61.88"/>
</a>
</g>
</g>
<!-- Node10&#45;&gt;Node3 -->
<g id="edge5_Node000010_Node000003" class="edge">
<title>Node10&#45;&gt;Node3</title>
<g id="a_edge5_Node000010_Node000003"><a xlink:title=" ">
<path fill="none" stroke="#63b8ff" stroke-width="2" d="M368.32,-58.38C345.94,-58.38 320.01,-58.38 297.88,-58.38"/>
<polygon fill="#63b8ff" stroke="#63b8ff" stroke-width="2" points="368.03,-61.88 378.03,-58.38 368.03,-54.88 368.03,-61.88"/>
</a>
</g>
</g>
<!-- Node11&#45;&gt;Node3 -->
<g id="edge7_Node000011_Node000003" class="edge">
<title>Node11&#45;&gt;Node3</title>
<g id="a_edge7_Node000011_Node000003"><a xlink:title=" ">
<path fill="none" stroke="#63b8ff" stroke-width="2" d="M355.17,-30.48C336.2,-35.37 315.82,-40.63 297.92,-45.24"/>
<polygon fill="#63b8ff" stroke="#63b8ff" stroke-width="2" points="356.91,-33.13 365.72,-27.24 355.16,-26.35 356.91,-33.13"/>
</a>
</g>
</g>
</g>
</svg>

<g id="navigator" transform="translate(0 0)" fill="#404254">
  <rect fill="#f2f5e9" fill-opacity="0.5" stroke="#606060" stroke-width=".5" x="0" y="0" width="60" height="60"/>
  <use id="zoomplus" xlink:href="#zoomPlus" x="17" y="9" onmousedown="handleZoom(evt,'in')"/>
  <use id="zoomminus" xlink:href="#zoomMin" x="42" y="9" onmousedown="handleZoom(evt,'out')"/>
  <use id="reset" xlink:href="#resetDef" x="30" y="36" onmousedown="handleReset()"/>
   <use id="arrowup" xlink:href="#arrowUp" x="0" y="0" onmousedown="handlePan(0,-1)"/>
  <use id="arrowright" xlink:href="#arrowRight" x="0" y="0" onmousedown="handlePan(1,0)"/>
  <use id="arrowdown" xlink:href="#arrowDown" x="0" y="0" onmousedown="handlePan(0,1)"/>
  <use id="arrowleft" xlink:href="#arrowLeft" x="0" y="0" onmousedown="handlePan(-1,0)"/>
</g>
<svg viewBox="0 0 15 15" width="100%" height="30px" preserveAspectRatio="xMaxYMin meet">
 <g id="arrow_out" transform="scale(0.3 0.3)">
  <a xlink:href="clientsmenu_8c_a1d711b31a5a18af01cdd582e537ff921_icgraph_org.svg" target="_base">
   <rect id="button" ry="5" rx="5" y="6" x="6" height="38" width="38"
        fill="#f2f5e9" fill-opacity="0.5" stroke="#606060" stroke-width="1.0"/>
   <path id="arrow"
     d="M 11.500037,31.436501 C 11.940474,20.09759 22.043105,11.32322 32.158766,21.979434 L 37.068811,17.246167 C 37.068811,17.246167 37.088388,32 37.088388,32 L 22.160133,31.978069 C 22.160133,31.978069 26.997745,27.140456 26.997745,27.140456 C 18.528582,18.264221 13.291696,25.230495 11.500037,31.436501 z"
     style="fill:#404040;"/>
  </a>
 </g>
</svg>

<style type='text/css'>
<![CDATA[
[data-mouse-over-selected='false'] { opacity: 0.7; }
[data-mouse-over-selected='true']  { opacity: 1.0; }
]]>
</style>
<script type="application/ecmascript"><![CDATA[
document.addEventListener('DOMContentLoaded', (event) => {
  highlightEdges();
  highlightAdjacentNodes();
});
]]></script>
</svg>
