<?xml version="1.0" encoding="UTF-8" standalone="no"?>
<!DOCTYPE svg PUBLIC "-//W3C//DTD SVG 1.1//EN"
 "http://www.w3.org/Graphics/SVG/1.1/DTD/svg11.dtd">
<!-- Generated by graphviz version 8.0.5 (0)
 -->
<!-- Title: extractClient Pages: 1 -->
<svg width="613pt" height="125pt"
 viewBox="0.00 0.00 612.75 124.75" xmlns="http://www.w3.org/2000/svg" xmlns:xlink="http://www.w3.org/1999/xlink">
<g id="graph0" class="graph" transform="scale(1 1) rotate(0) translate(4 120.75)">
<title>extractClient</title>
<!-- Node1 -->
<g id="Node000001" class="node">
<title>Node1</title>
<g id="a_Node000001"><a xlink:title="extract client given ListNode.">
<polygon fill="#999999" stroke="#666666" points="604.75,-71.75 498.75,-71.75 498.75,-45 604.75,-45 604.75,-71.75"/>
<text text-anchor="middle" x="551.75" y="-52.55" font-family="Helvetica,sans-Serif" font-size="16.00">extractClient</text>
</a>
</g>
</g>
<!-- Node2 -->
<g id="Node000002" class="node">
<title>Node2</title>
<g id="a_Node000002"><a xlink:href="../../da/de9/clientsmenu_8c.html#a1d711b31a5a18af01cdd582e537ff921" target="_top" xlink:title="Invokes ListView of clients.">
<polygon fill="white" stroke="#666666" points="462.75,-71.75 353,-71.75 353,-45 462.75,-45 462.75,-71.75"/>
<text text-anchor="middle" x="407.88" y="-52.55" font-family="Helvetica,sans-Serif" font-size="16.00">clientChoose</text>
</a>
</g>
</g>
<!-- Node1&#45;&gt;Node2 -->
<g id="edge1_Node000001_Node000002" class="edge">
<title>Node1&#45;&gt;Node2</title>
<g id="a_edge1_Node000001_Node000002"><a xlink:title=" ">
<path fill="none" stroke="#63b8ff" stroke-width="2" d="M485.41,-58.38C477.91,-58.38 470.32,-58.38 462.98,-58.38"/>
<polygon fill="#63b8ff" stroke="#63b8ff" stroke-width="2" points="485.32,-61.88 495.32,-58.38 485.32,-54.88 485.32,-61.88"/>
</a>
</g>
</g>
<!-- Node3 -->
<g id="Node000003" class="node">
<title>Node3</title>
<g id="a_Node000003"><a xlink:href="../../da/de9/clientsmenu_8c.html#a1aa5fbc029a7e320bf6f6c3a2e6e27cc" target="_top" xlink:title="Wrapper around clientChoose frees extracted client instanntly.">
<polygon fill="white" stroke="#666666" points="317,-116.75 139,-116.75 139,-90 317,-90 317,-116.75"/>
<text text-anchor="middle" x="228" y="-97.55" font-family="Helvetica,sans-Serif" font-size="16.00">clientChooseNoReturn</text>
</a>
</g>
</g>
<!-- Node2&#45;&gt;Node3 -->
<g id="edge2_Node000002_Node000003" class="edge">
<title>Node2&#45;&gt;Node3</title>
<g id="a_edge2_Node000002_Node000003"><a xlink:title=" ">
<path fill="none" stroke="#63b8ff" stroke-width="2" d="M340.2,-75.24C321.54,-79.96 301.49,-85.04 283.62,-89.56"/>
<polygon fill="#63b8ff" stroke="#63b8ff" stroke-width="2" points="341.7,-77.97 350.54,-72.12 339.99,-71.18 341.7,-77.97"/>
</a>
</g>
</g>
<!-- Node11 -->
<g id="Node000011" class="node">
<title>Node11</title>
<g id="a_Node000011"><a xlink:href="../../da/de9/clientsmenu_8c.html#a3785053dd7fa7ee54cb52674dadf5941" target="_top" xlink:title="Edit client.">
<polygon fill="white" stroke="#666666" points="269,-71.75 187,-71.75 187,-45 269,-45 269,-71.75"/>
<text text-anchor="middle" x="228" y="-52.55" font-family="Helvetica,sans-Serif" font-size="16.00">clientEdit</text>
</a>
</g>
</g>
<!-- Node2&#45;&gt;Node11 -->
<g id="edge4_Node000002_Node000011" class="edge">
<title>Node2&#45;&gt;Node11</title>
<g id="a_edge4_Node000002_Node000011"><a xlink:title=" ">
<path fill="none" stroke="#63b8ff" stroke-width="2" d="M339.68,-58.38C316.03,-58.38 290.21,-58.38 269.45,-58.38"/>
<polygon fill="#63b8ff" stroke="#63b8ff" stroke-width="2" points="339.54,-61.88 349.54,-58.38 339.54,-54.88 339.54,-61.88"/>
</a>
</g>
</g>
<!-- Node12 -->
<g id="Node000012" class="node">
<title>Node12</title>
<g id="a_Node000012"><a xlink:href="../../da/de9/clientsmenu_8c.html#ae81aa78f6e32fdd87e554ba85c063111" target="_top" xlink:title="Remove client.">
<polygon fill="white" stroke="#666666" points="285.12,-26.75 170.88,-26.75 170.88,0 285.12,0 285.12,-26.75"/>
<text text-anchor="middle" x="228" y="-7.55" font-family="Helvetica,sans-Serif" font-size="16.00">clientRemove</text>
</a>
</g>
</g>
<!-- Node2&#45;&gt;Node12 -->
<g id="edge6_Node000002_Node000012" class="edge">
<title>Node2&#45;&gt;Node12</title>
<g id="a_edge6_Node000002_Node000012"><a xlink:title=" ">
<path fill="none" stroke="#63b8ff" stroke-width="2" d="M340.2,-41.51C321.54,-36.79 301.49,-31.71 283.62,-27.19"/>
<polygon fill="#63b8ff" stroke="#63b8ff" stroke-width="2" points="339.99,-45.57 350.54,-44.63 341.7,-38.78 339.99,-45.57"/>
</a>
</g>
</g>
<!-- Node4 -->
<g id="Node000004" class="node">
<title>Node4</title>
<g id="a_Node000004"><a xlink:href="../../da/de9/clientsmenu_8c.html#ad2a8354e045a2d4deb82f4b3b20ad5a4" target="_top" xlink:title="Handles displaying of clients menu.">
<polygon fill="#fff0f0" stroke="red" points="103,-71.75 0,-71.75 0,-45 103,-45 103,-71.75"/>
<text text-anchor="middle" x="51.5" y="-52.55" font-family="Helvetica,sans-Serif" font-size="16.00">clientsMenu</text>
</a>
</g>
</g>
<!-- Node3&#45;&gt;Node4 -->
<g id="edge3_Node000003_Node000004" class="edge">
<title>Node3&#45;&gt;Node4</title>
<g id="a_edge3_Node000003_Node000004"><a xlink:title=" ">
<path fill="none" stroke="#63b8ff" stroke-width="2" d="M160.67,-86.27C141.7,-81.38 121.32,-76.12 103.42,-71.51"/>
<polygon fill="#63b8ff" stroke="#63b8ff" stroke-width="2" points="160.66,-90.4 171.22,-89.51 162.41,-83.62 160.66,-90.4"/>
</a>
</g>
</g>
<!-- Node11&#45;&gt;Node4 -->
<g id="edge5_Node000011_Node000004" class="edge">
<title>Node11&#45;&gt;Node4</title>
<g id="a_edge5_Node000011_Node000004"><a xlink:title=" ">
<path fill="none" stroke="#63b8ff" stroke-width="2" d="M173.82,-58.38C151.44,-58.38 125.51,-58.38 103.38,-58.38"/>
<polygon fill="#63b8ff" stroke="#63b8ff" stroke-width="2" points="173.53,-61.88 183.53,-58.38 173.53,-54.88 173.53,-61.88"/>
</a>
</g>
</g>
<!-- Node12&#45;&gt;Node4 -->
<g id="edge7_Node000012_Node000004" class="edge">
<title>Node12&#45;&gt;Node4</title>
<g id="a_edge7_Node000012_Node000004"><a xlink:title=" ">
<path fill="none" stroke="#63b8ff" stroke-width="2" d="M160.67,-30.48C141.7,-35.37 121.32,-40.63 103.42,-45.24"/>
<polygon fill="#63b8ff" stroke="#63b8ff" stroke-width="2" points="162.41,-33.13 171.22,-27.24 160.66,-26.35 162.41,-33.13"/>
</a>
</g>
</g>
</g>
</svg>
