<?xml version="1.0" encoding="UTF-8" standalone="no"?>
<!DOCTYPE svg PUBLIC "-//W3C//DTD SVG 1.1//EN"
 "http://www.w3.org/Graphics/SVG/1.1/DTD/svg11.dtd">
<!-- Generated by graphviz version 8.0.5 (0)
 -->
<!-- Title: rentalsmenu.c Pages: 1 -->
<svg width="321pt" height="223pt"
 viewBox="0.00 0.00 321.25 223.00" xmlns="http://www.w3.org/2000/svg" xmlns:xlink="http://www.w3.org/1999/xlink">

<svg id="main" version="1.1" xmlns="http://www.w3.org/2000/svg" xmlns:xlink="http://www.w3.org/1999/xlink" xml:space="preserve" onload="init(evt)">
<style type="text/css"><![CDATA[
.node, .edge {opacity: 0.7;}
.node.selected, .edge.selected {opacity: 1;}
.edge:hover path { stroke: red; }
.edge:hover polygon { stroke: red; fill: red; }
]]></style>
<script type="application/ecmascript" xlink:href="../../svg.min.js"/>
<svg id="graph" class="graph">
<g id="graph0" class="graph" transform="scale(1 1) rotate(0) translate(4 219)">
<title>rentalsmenu.c</title>
<!-- Node1 -->
<g id="Node000001" class="node">
<title>Node1</title>
<g id="a_Node000001"><a xlink:title="Rentals menu implementation.">
<polygon fill="#999999" stroke="#666666" points="241.38,-215 123.38,-215 123.38,-188.25 241.38,-188.25 241.38,-215"/>
<text text-anchor="middle" x="182.38" y="-195.8" font-family="Helvetica,sans-Serif" font-size="16.00">rentalsmenu.c</text>
</a>
</g>
</g>
<!-- Node2 -->
<g id="Node000002" class="node">
<title>Node2</title>
<g id="a_Node000002"><a xlink:href="../../d9/d03/rentalsmenu_8h.html" target="_top" xlink:title="Rentals menu interface.">
<polygon fill="white" stroke="#666666" points="118.75,-152.25 0,-152.25 0,-125.5 118.75,-125.5 118.75,-152.25"/>
<text text-anchor="middle" x="59.38" y="-133.05" font-family="Helvetica,sans-Serif" font-size="16.00">rentalsmenu.h</text>
</a>
</g>
</g>
<!-- Node1&#45;&gt;Node2 -->
<g id="edge1_Node000001_Node000002" class="edge">
<title>Node1&#45;&gt;Node2</title>
<g id="a_edge1_Node000001_Node000002"><a xlink:title=" ">
<path fill="none" stroke="#63b8ff" stroke-width="2" d="M156.59,-187.89C139.21,-179.3 115.99,-167.84 96.61,-158.27"/>
<polygon fill="#63b8ff" stroke="#63b8ff" stroke-width="2" points="97.64,-154.88 87.13,-153.59 94.54,-161.16 97.64,-154.88"/>
</a>
</g>
</g>
<!-- Node3 -->
<g id="Node000003" class="node">
<title>Node3</title>
<g id="a_Node000003"><a xlink:href="../../de/d0e/menuutil_8h.html" target="_top" xlink:title="Header file for menu operations.">
<polygon fill="white" stroke="#666666" points="227.88,-152.25 136.88,-152.25 136.88,-125.5 227.88,-125.5 227.88,-152.25"/>
<text text-anchor="middle" x="182.38" y="-133.05" font-family="Helvetica,sans-Serif" font-size="16.00">menuutil.h</text>
</a>
</g>
</g>
<!-- Node1&#45;&gt;Node3 -->
<g id="edge2_Node000001_Node000003" class="edge">
<title>Node1&#45;&gt;Node3</title>
<g id="a_edge2_Node000001_Node000003"><a xlink:title=" ">
<path fill="none" stroke="#63b8ff" stroke-width="2" d="M182.38,-188.04C182.38,-181.44 182.38,-173.11 182.38,-165.25"/>
<polygon fill="#63b8ff" stroke="#63b8ff" stroke-width="2" points="185.88,-165.45 182.38,-155.45 178.88,-165.45 185.88,-165.45"/>
</a>
</g>
</g>
<!-- Node7 -->
<g id="Node000007" class="node">
<title>Node7</title>
<g id="a_Node000007"><a xlink:title=" ">
<polygon fill="#e0e0e0" stroke="#999999" points="313.25,-152.25 245.5,-152.25 245.5,-125.5 313.25,-125.5 313.25,-152.25"/>
<text text-anchor="middle" x="279.38" y="-133.05" font-family="Helvetica,sans-Serif" font-size="16.00">stdlib.h</text>
</a>
</g>
</g>
<!-- Node1&#45;&gt;Node7 -->
<g id="edge6_Node000001_Node000007" class="edge">
<title>Node1&#45;&gt;Node7</title>
<g id="a_edge6_Node000001_Node000007"><a xlink:title=" ">
<path fill="none" stroke="#63b8ff" stroke-width="2" d="M202.47,-188.04C215.65,-179.78 233.15,-168.83 248.12,-159.45"/>
<polygon fill="#63b8ff" stroke="#63b8ff" stroke-width="2" points="250.35,-161.93 256.97,-153.66 246.64,-156 250.35,-161.93"/>
</a>
</g>
</g>
<!-- Node4 -->
<g id="Node000004" class="node">
<title>Node4</title>
<g id="a_Node000004"><a xlink:href="../../da/d23/list_8h.html" target="_top" xlink:title="Doubly linked list interface.">
<polygon fill="white" stroke="#666666" points="170.25,-89.5 120.5,-89.5 120.5,-62.75 170.25,-62.75 170.25,-89.5"/>
<text text-anchor="middle" x="145.38" y="-70.3" font-family="Helvetica,sans-Serif" font-size="16.00">list.h</text>
</a>
</g>
</g>
<!-- Node3&#45;&gt;Node4 -->
<g id="edge3_Node000003_Node000004" class="edge">
<title>Node3&#45;&gt;Node4</title>
<g id="a_edge3_Node000003_Node000004"><a xlink:title=" ">
<path fill="none" stroke="#63b8ff" stroke-width="2" d="M174.71,-125.29C170.39,-118.2 164.86,-109.12 159.77,-100.76"/>
<polygon fill="#63b8ff" stroke="#63b8ff" stroke-width="2" points="162.22,-98.42 154.03,-91.7 156.24,-102.06 162.22,-98.42"/>
</a>
</g>
</g>
<!-- Node6 -->
<g id="Node000006" class="node">
<title>Node6</title>
<g id="a_Node000006"><a xlink:title=" ">
<polygon fill="#e0e0e0" stroke="#999999" points="250.25,-89.5 188.5,-89.5 188.5,-62.75 250.25,-62.75 250.25,-89.5"/>
<text text-anchor="middle" x="219.38" y="-70.3" font-family="Helvetica,sans-Serif" font-size="16.00">form.h</text>
</a>
</g>
</g>
<!-- Node3&#45;&gt;Node6 -->
<g id="edge5_Node000003_Node000006" class="edge">
<title>Node3&#45;&gt;Node6</title>
<g id="a_edge5_Node000003_Node000006"><a xlink:title=" ">
<path fill="none" stroke="#63b8ff" stroke-width="2" d="M190.04,-125.29C194.36,-118.2 199.89,-109.12 204.98,-100.76"/>
<polygon fill="#63b8ff" stroke="#63b8ff" stroke-width="2" points="208.51,-102.06 210.72,-91.7 202.53,-98.42 208.51,-102.06"/>
</a>
</g>
</g>
<!-- Node5 -->
<g id="Node000005" class="node">
<title>Node5</title>
<g id="a_Node000005"><a xlink:title=" ">
<polygon fill="#e0e0e0" stroke="#999999" points="186.38,-26.75 104.38,-26.75 104.38,0 186.38,0 186.38,-26.75"/>
<text text-anchor="middle" x="145.38" y="-7.55" font-family="Helvetica,sans-Serif" font-size="16.00">stdbool.h</text>
</a>
</g>
</g>
<!-- Node4&#45;&gt;Node5 -->
<g id="edge4_Node000004_Node000005" class="edge">
<title>Node4&#45;&gt;Node5</title>
<g id="a_edge4_Node000004_Node000005"><a xlink:title=" ">
<path fill="none" stroke="#63b8ff" stroke-width="2" d="M145.38,-62.54C145.38,-55.94 145.38,-47.61 145.38,-39.75"/>
<polygon fill="#63b8ff" stroke="#63b8ff" stroke-width="2" points="148.88,-39.95 145.38,-29.95 141.88,-39.95 148.88,-39.95"/>
</a>
</g>
</g>
</g>
</svg>
</svg>

<style type='text/css'>
<![CDATA[
[data-mouse-over-selected='false'] { opacity: 0.7; }
[data-mouse-over-selected='true']  { opacity: 1.0; }
]]>
</style>
<script type="application/ecmascript"><![CDATA[
document.addEventListener('DOMContentLoaded', (event) => {
  highlightEdges();
  highlightAdjacentNodes();
});
]]></script>
</svg>
