<?xml version="1.0" encoding="UTF-8" standalone="no"?>
<!DOCTYPE svg PUBLIC "-//W3C//DTD SVG 1.1//EN"
 "http://www.w3.org/Graphics/SVG/1.1/DTD/svg11.dtd">
<!-- Generated by graphviz version 8.0.5 (0)
 -->
<!-- Title: list.c Pages: 1 -->
<svg width="356pt" height="160pt"
 viewBox="0.00 0.00 355.75 160.25" xmlns="http://www.w3.org/2000/svg" xmlns:xlink="http://www.w3.org/1999/xlink">

<svg id="main" version="1.1" xmlns="http://www.w3.org/2000/svg" xmlns:xlink="http://www.w3.org/1999/xlink" xml:space="preserve" onload="init(evt)">
<style type="text/css"><![CDATA[
.node, .edge {opacity: 0.7;}
.node.selected, .edge.selected {opacity: 1;}
.edge:hover path { stroke: red; }
.edge:hover polygon { stroke: red; fill: red; }
]]></style>
<script type="application/ecmascript" xlink:href="../../svg.min.js"/>
<svg id="graph" class="graph">
<g id="graph0" class="graph" transform="scale(1 1) rotate(0) translate(4 156.25)">
<title>list.c</title>
<!-- Node1 -->
<g id="Node000001" class="node">
<title>Node1</title>
<g id="a_Node000001"><a xlink:title="Doubly linked list implementation.">
<polygon fill="#999999" stroke="#666666" points="167.38,-152.25 118.38,-152.25 118.38,-125.5 167.38,-125.5 167.38,-152.25"/>
<text text-anchor="middle" x="142.88" y="-133.05" font-family="Helvetica,sans-Serif" font-size="16.00">list.c</text>
</a>
</g>
</g>
<!-- Node2 -->
<g id="Node000002" class="node">
<title>Node2</title>
<g id="a_Node000002"><a xlink:href="../../da/d23/list_8h.html" target="_top" xlink:title="Doubly linked list interface.">
<polygon fill="white" stroke="#666666" points="49.75,-89.5 0,-89.5 0,-62.75 49.75,-62.75 49.75,-89.5"/>
<text text-anchor="middle" x="24.88" y="-70.3" font-family="Helvetica,sans-Serif" font-size="16.00">list.h</text>
</a>
</g>
</g>
<!-- Node1&#45;&gt;Node2 -->
<g id="edge1_Node000001_Node000002" class="edge">
<title>Node1&#45;&gt;Node2</title>
<g id="a_edge1_Node000001_Node000002"><a xlink:title=" ">
<path fill="none" stroke="#63b8ff" stroke-width="2" d="M118.14,-125.14C101.62,-116.63 79.61,-105.31 61.13,-95.79"/>
<polygon fill="#63b8ff" stroke="#63b8ff" stroke-width="2" points="62.07,-92.31 51.58,-90.84 58.87,-98.53 62.07,-92.31"/>
</a>
</g>
</g>
<!-- Node3 -->
<g id="Node000003" class="node">
<title>Node3</title>
<g id="a_Node000003"><a xlink:title=" ">
<polygon fill="#e0e0e0" stroke="#999999" points="91.88,-26.75 9.88,-26.75 9.88,0 91.88,0 91.88,-26.75"/>
<text text-anchor="middle" x="50.88" y="-7.55" font-family="Helvetica,sans-Serif" font-size="16.00">stdbool.h</text>
</a>
</g>
</g>
<!-- Node1&#45;&gt;Node3 -->
<g id="edge4_Node000001_Node000003" class="edge">
<title>Node1&#45;&gt;Node3</title>
<g id="a_edge4_Node000001_Node000003"><a xlink:title=" ">
<path fill="none" stroke="#63b8ff" stroke-width="2" d="M129.19,-125.01C119.59,-115.63 106.76,-102.37 96.88,-89.5 84.38,-73.23 72.35,-53.38 63.73,-38.18"/>
<polygon fill="#63b8ff" stroke="#63b8ff" stroke-width="2" points="66.51,-36.18 58.6,-29.13 60.39,-39.57 66.51,-36.18"/>
</a>
</g>
</g>
<!-- Node4 -->
<g id="Node000004" class="node">
<title>Node4</title>
<g id="a_Node000004"><a xlink:title=" ">
<polygon fill="#e0e0e0" stroke="#999999" points="179.75,-89.5 106,-89.5 106,-62.75 179.75,-62.75 179.75,-89.5"/>
<text text-anchor="middle" x="142.88" y="-70.3" font-family="Helvetica,sans-Serif" font-size="16.00">assert.h</text>
</a>
</g>
</g>
<!-- Node1&#45;&gt;Node4 -->
<g id="edge3_Node000001_Node000004" class="edge">
<title>Node1&#45;&gt;Node4</title>
<g id="a_edge3_Node000001_Node000004"><a xlink:title=" ">
<path fill="none" stroke="#63b8ff" stroke-width="2" d="M142.88,-125.29C142.88,-118.69 142.88,-110.36 142.88,-102.5"/>
<polygon fill="#63b8ff" stroke="#63b8ff" stroke-width="2" points="146.38,-102.7 142.88,-92.7 139.38,-102.7 146.38,-102.7"/>
</a>
</g>
</g>
<!-- Node5 -->
<g id="Node000005" class="node">
<title>Node5</title>
<g id="a_Node000005"><a xlink:title=" ">
<polygon fill="#e0e0e0" stroke="#999999" points="261.88,-89.5 197.88,-89.5 197.88,-62.75 261.88,-62.75 261.88,-89.5"/>
<text text-anchor="middle" x="229.88" y="-70.3" font-family="Helvetica,sans-Serif" font-size="16.00">stdio.h</text>
</a>
</g>
</g>
<!-- Node1&#45;&gt;Node5 -->
<g id="edge5_Node000001_Node000005" class="edge">
<title>Node1&#45;&gt;Node5</title>
<g id="a_edge5_Node000001_Node000005"><a xlink:title=" ">
<path fill="none" stroke="#63b8ff" stroke-width="2" d="M160.9,-125.29C172.49,-117.2 187.8,-106.51 201.05,-97.25"/>
<polygon fill="#63b8ff" stroke="#63b8ff" stroke-width="2" points="203.38,-99.5 209.57,-90.91 199.37,-93.76 203.38,-99.5"/>
</a>
</g>
</g>
<!-- Node6 -->
<g id="Node000006" class="node">
<title>Node6</title>
<g id="a_Node000006"><a xlink:title=" ">
<polygon fill="#e0e0e0" stroke="#999999" points="347.75,-89.5 280,-89.5 280,-62.75 347.75,-62.75 347.75,-89.5"/>
<text text-anchor="middle" x="313.88" y="-70.3" font-family="Helvetica,sans-Serif" font-size="16.00">stdlib.h</text>
</a>
</g>
</g>
<!-- Node1&#45;&gt;Node6 -->
<g id="edge6_Node000001_Node000006" class="edge">
<title>Node1&#45;&gt;Node6</title>
<g id="a_edge6_Node000001_Node000006"><a xlink:title=" ">
<path fill="none" stroke="#63b8ff" stroke-width="2" d="M167.74,-129.04C193.74,-119.8 235.17,-105.09 267.28,-93.68"/>
<polygon fill="#63b8ff" stroke="#63b8ff" stroke-width="2" points="269.27,-96.98 277.52,-90.33 266.92,-90.38 269.27,-96.98"/>
</a>
</g>
</g>
<!-- Node2&#45;&gt;Node3 -->
<g id="edge2_Node000002_Node000003" class="edge">
<title>Node2&#45;&gt;Node3</title>
<g id="a_edge2_Node000002_Node000003"><a xlink:title=" ">
<path fill="none" stroke="#63b8ff" stroke-width="2" d="M30.26,-62.54C33.19,-55.7 36.91,-46.99 40.39,-38.87"/>
<polygon fill="#63b8ff" stroke="#63b8ff" stroke-width="2" points="43.78,-39.52 44.49,-28.95 37.34,-36.76 43.78,-39.52"/>
</a>
</g>
</g>
</g>
</svg>
</svg>

<style type='text/css'>
<![CDATA[
[data-mouse-over-selected='false'] { opacity: 0.7; }
[data-mouse-over-selected='true']  { opacity: 1.0; }
]]>
</style>
<script type="application/ecmascript"><![CDATA[
document.addEventListener('DOMContentLoaded', (event) => {
  highlightEdges();
  highlightAdjacentNodes();
});
]]></script>
</svg>
