<?xml version="1.0" encoding="UTF-8" standalone="no"?>
<!DOCTYPE svg PUBLIC "-//W3C//DTD SVG 1.1//EN"
 "http://www.w3.org/Graphics/SVG/1.1/DTD/svg11.dtd">
<!-- Generated by graphviz version 8.0.5 (0)
 -->
<!-- Title: clientsmenu.h Pages: 1 -->
<svg width="483pt" height="98pt"
 viewBox="0.00 0.00 483.00 97.50" xmlns="http://www.w3.org/2000/svg" xmlns:xlink="http://www.w3.org/1999/xlink">
<g id="graph0" class="graph" transform="scale(1 1) rotate(0) translate(4 93.5)">
<title>clientsmenu.h</title>
<!-- Node1 -->
<g id="Node000001" class="node">
<title>Node1</title>
<g id="a_Node000001"><a xlink:title="Clients menu interface.">
<polygon fill="#999999" stroke="#666666" points="293.12,-89.5 176.62,-89.5 176.62,-62.75 293.12,-62.75 293.12,-89.5"/>
<text text-anchor="middle" x="234.88" y="-70.3" font-family="Helvetica,sans-Serif" font-size="16.00">clientsmenu.h</text>
</a>
</g>
</g>
<!-- Node2 -->
<g id="Node000002" class="node">
<title>Node2</title>
<g id="a_Node000002"><a xlink:href="../../da/de9/clientsmenu_8c.html" target="_top" xlink:title="Clients menu implementation.">
<polygon fill="white" stroke="#666666" points="115.75,-26.75 0,-26.75 0,0 115.75,0 115.75,-26.75"/>
<text text-anchor="middle" x="57.88" y="-7.55" font-family="Helvetica,sans-Serif" font-size="16.00">clientsmenu.c</text>
</a>
</g>
</g>
<!-- Node1&#45;&gt;Node2 -->
<g id="edge1_Node000001_Node000002" class="edge">
<title>Node1&#45;&gt;Node2</title>
<g id="a_edge1_Node000001_Node000002"><a xlink:title=" ">
<path fill="none" stroke="#63b8ff" stroke-width="2" d="M185.57,-58.2C156.97,-48.39 121.52,-36.22 95.24,-27.2"/>
<polygon fill="#63b8ff" stroke="#63b8ff" stroke-width="2" points="185.18,-62.45 195.77,-62.39 187.45,-55.83 185.18,-62.45"/>
</a>
</g>
</g>
<!-- Node3 -->
<g id="Node000003" class="node">
<title>Node3</title>
<g id="a_Node000003"><a xlink:href="../../d3/df4/dbhandle_8c.html" target="_top" xlink:title="Database handling.">
<polygon fill="white" stroke="#666666" points="229.62,-26.75 134.12,-26.75 134.12,0 229.62,0 229.62,-26.75"/>
<text text-anchor="middle" x="181.88" y="-7.55" font-family="Helvetica,sans-Serif" font-size="16.00">dbhandle.c</text>
</a>
</g>
</g>
<!-- Node1&#45;&gt;Node3 -->
<g id="edge2_Node000001_Node000003" class="edge">
<title>Node1&#45;&gt;Node3</title>
<g id="a_edge2_Node000001_Node000003"><a xlink:title=" ">
<path fill="none" stroke="#63b8ff" stroke-width="2" d="M215.49,-52.91C207.86,-44.16 199.38,-34.44 192.84,-26.95"/>
<polygon fill="#63b8ff" stroke="#63b8ff" stroke-width="2" points="213.68,-55.3 222.89,-60.54 218.96,-50.7 213.68,-55.3"/>
</a>
</g>
</g>
<!-- Node4 -->
<g id="Node000004" class="node">
<title>Node4</title>
<g id="a_Node000004"><a xlink:href="../../de/dc9/mmenu_8c.html" target="_top" xlink:title="Menu implementation.">
<polygon fill="white" stroke="#666666" points="330.25,-26.75 247.5,-26.75 247.5,0 330.25,0 330.25,-26.75"/>
<text text-anchor="middle" x="288.88" y="-7.55" font-family="Helvetica,sans-Serif" font-size="16.00">mmenu.c</text>
</a>
</g>
</g>
<!-- Node1&#45;&gt;Node4 -->
<g id="edge3_Node000001_Node000004" class="edge">
<title>Node1&#45;&gt;Node4</title>
<g id="a_edge3_Node000001_Node000004"><a xlink:title=" ">
<path fill="none" stroke="#63b8ff" stroke-width="2" d="M254.62,-52.91C262.4,-44.16 271.04,-34.44 277.7,-26.95"/>
<polygon fill="#63b8ff" stroke="#63b8ff" stroke-width="2" points="252.09,-50.74 248.06,-60.54 257.32,-55.39 252.09,-50.74"/>
</a>
</g>
</g>
<!-- Node5 -->
<g id="Node000005" class="node">
<title>Node5</title>
<g id="a_Node000005"><a xlink:href="../../d2/da6/testDbHandle_8c_source.html" target="_top" xlink:title=" ">
<polygon fill="white" stroke="#666666" points="475,-26.75 348.75,-26.75 348.75,0 475,0 475,-26.75"/>
<text text-anchor="middle" x="411.88" y="-7.55" font-family="Helvetica,sans-Serif" font-size="16.00">testDbHandle.c</text>
</a>
</g>
</g>
<!-- Node1&#45;&gt;Node5 -->
<g id="edge4_Node000001_Node000005" class="edge">
<title>Node1&#45;&gt;Node5</title>
<g id="a_edge4_Node000001_Node000005"><a xlink:title=" ">
<path fill="none" stroke="#63b8ff" stroke-width="2" d="M284.18,-58.2C312.78,-48.39 348.23,-36.22 374.51,-27.2"/>
<polygon fill="#63b8ff" stroke="#63b8ff" stroke-width="2" points="282.3,-55.83 273.98,-62.39 284.57,-62.45 282.3,-55.83"/>
</a>
</g>
</g>
</g>
</svg>
