<?xml version="1.0" encoding="UTF-8" standalone="no"?>
<!DOCTYPE svg PUBLIC "-//W3C//DTD SVG 1.1//EN"
 "http://www.w3.org/Graphics/SVG/1.1/DTD/svg11.dtd">
<!-- Generated by graphviz version 8.0.5 (0)
 -->
<!-- Title: listDeleteNode Pages: 1 -->
<svg width="595pt" height="80pt"
 viewBox="0.00 0.00 594.75 79.75" xmlns="http://www.w3.org/2000/svg" xmlns:xlink="http://www.w3.org/1999/xlink">
<g id="graph0" class="graph" transform="scale(1 1) rotate(0) translate(4 75.75)">
<title>listDeleteNode</title>
<!-- Node1 -->
<g id="Node000001" class="node">
<title>Node1</title>
<g id="a_Node000001"><a xlink:title="Removes ListNode from List.">
<polygon fill="#999999" stroke="#666666" points="586.75,-48.75 465.75,-48.75 465.75,-22 586.75,-22 586.75,-48.75"/>
<text text-anchor="middle" x="526.25" y="-29.55" font-family="Helvetica,sans-Serif" font-size="16.00">listDeleteNode</text>
</a>
</g>
</g>
<!-- Node2 -->
<g id="Node000002" class="node">
<title>Node2</title>
<g id="a_Node000002"><a xlink:href="../../d7/dba/menuutil_8c.html#a6229d06cea0b18a996e9f378719c56bb" target="_top" xlink:title="frees internal List of listView.">
<polygon fill="white" stroke="#666666" points="429.75,-48.75 300.5,-48.75 300.5,-22 429.75,-22 429.75,-48.75"/>
<text text-anchor="middle" x="365.12" y="-29.55" font-family="Helvetica,sans-Serif" font-size="16.00">listViewFreeList</text>
</a>
</g>
</g>
<!-- Node1&#45;&gt;Node2 -->
<g id="edge1_Node000001_Node000002" class="edge">
<title>Node1&#45;&gt;Node2</title>
<g id="a_edge1_Node000001_Node000002"><a xlink:title=" ">
<path fill="none" stroke="#63b8ff" stroke-width="2" d="M452.63,-35.38C445.13,-35.38 437.55,-35.38 430.16,-35.38"/>
<polygon fill="#63b8ff" stroke="#63b8ff" stroke-width="2" points="452.55,-38.88 462.54,-35.38 452.54,-31.88 452.55,-38.88"/>
</a>
</g>
</g>
<!-- Node3 -->
<g id="Node000003" class="node">
<title>Node3</title>
<g id="a_Node000003"><a xlink:href="../../d7/dba/menuutil_8c.html#aca301edf9d04aa391571851b148355ba" target="_top" xlink:title="List Viewer for lists.">
<polygon fill="white" stroke="#666666" points="264.5,-48.75 145.75,-48.75 145.75,-22 264.5,-22 264.5,-48.75"/>
<text text-anchor="middle" x="205.12" y="-29.55" font-family="Helvetica,sans-Serif" font-size="16.00">listViewInvoke</text>
</a>
</g>
</g>
<!-- Node2&#45;&gt;Node3 -->
<g id="edge2_Node000002_Node000003" class="edge">
<title>Node2&#45;&gt;Node3</title>
<g id="a_edge2_Node000002_Node000003"><a xlink:title=" ">
<path fill="none" stroke="#63b8ff" stroke-width="2" d="M287.54,-35.38C279.9,-35.38 272.22,-35.38 264.81,-35.38"/>
<polygon fill="#63b8ff" stroke="#63b8ff" stroke-width="2" points="287.32,-38.88 297.32,-35.38 287.32,-31.88 287.32,-38.88"/>
</a>
</g>
</g>
<!-- Node4 -->
<g id="Node000004" class="node">
<title>Node4</title>
<g id="a_Node000004"><a xlink:href="../../dc/dc6/carsmenu_8c.html#ad451b82b7f3d31d1bb3fc4c210941579" target="_top" xlink:title="Invokes the listView of cars.">
<polygon fill="#fff0f0" stroke="red" points="101.88,-71.75 7.87,-71.75 7.87,-45 101.88,-45 101.88,-71.75"/>
<text text-anchor="middle" x="54.88" y="-52.55" font-family="Helvetica,sans-Serif" font-size="16.00">carChoose</text>
</a>
</g>
</g>
<!-- Node3&#45;&gt;Node4 -->
<g id="edge3_Node000003_Node000004" class="edge">
<title>Node3&#45;&gt;Node4</title>
<g id="a_edge3_Node000003_Node000004"><a xlink:title=" ">
<path fill="none" stroke="#63b8ff" stroke-width="2" d="M132.89,-46.43C122.45,-48.05 111.93,-49.68 102.17,-51.19"/>
<polygon fill="#63b8ff" stroke="#63b8ff" stroke-width="2" points="134.19,-49.46 143.53,-44.47 133.11,-42.54 134.19,-49.46"/>
</a>
</g>
</g>
<!-- Node15 -->
<g id="Node000015" class="node">
<title>Node15</title>
<g id="a_Node000015"><a xlink:href="../../da/de9/clientsmenu_8c.html#a1d711b31a5a18af01cdd582e537ff921" target="_top" xlink:title="Invokes ListView of clients.">
<polygon fill="#fff0f0" stroke="red" points="109.75,-26.75 0,-26.75 0,0 109.75,0 109.75,-26.75"/>
<text text-anchor="middle" x="54.88" y="-7.55" font-family="Helvetica,sans-Serif" font-size="16.00">clientChoose</text>
</a>
</g>
</g>
<!-- Node3&#45;&gt;Node15 -->
<g id="edge4_Node000003_Node000015" class="edge">
<title>Node3&#45;&gt;Node15</title>
<g id="a_edge4_Node000003_Node000015"><a xlink:title=" ">
<path fill="none" stroke="#63b8ff" stroke-width="2" d="M132.82,-24.79C125.2,-23.66 117.55,-22.53 110.18,-21.43"/>
<polygon fill="#63b8ff" stroke="#63b8ff" stroke-width="2" points="133.13,-28.67 143.53,-26.68 134.15,-21.75 133.13,-28.67"/>
</a>
</g>
</g>
</g>
</svg>
