<?xml version="1.0" encoding="UTF-8" standalone="no"?>
<!DOCTYPE svg PUBLIC "-//W3C//DTD SVG 1.1//EN"
 "http://www.w3.org/Graphics/SVG/1.1/DTD/svg11.dtd">
<!-- Generated by graphviz version 8.0.5 (0)
 -->
<!-- Title: listPushBack Pages: 1 -->
<svg width="653pt" height="125pt"
 viewBox="0.00 0.00 653.25 124.75" xmlns="http://www.w3.org/2000/svg" xmlns:xlink="http://www.w3.org/1999/xlink">
<g id="graph0" class="graph" transform="scale(1 1) rotate(0) translate(4 120.75)">
<title>listPushBack</title>
<!-- Node1 -->
<g id="Node000001" class="node">
<title>Node1</title>
<g id="a_Node000001"><a xlink:title="Adds item at the end of list.">
<polygon fill="#999999" stroke="#666666" points="645.25,-71.75 536.25,-71.75 536.25,-45 645.25,-45 645.25,-71.75"/>
<text text-anchor="middle" x="590.75" y="-52.55" font-family="Helvetica,sans-Serif" font-size="16.00">listPushBack</text>
</a>
</g>
</g>
<!-- Node2 -->
<g id="Node000002" class="node">
<title>Node2</title>
<g id="a_Node000002"><a xlink:href="../../d5/df2/car_8c.html#a2337951b2ae65cc121c20255a2179ad2" target="_top" xlink:title="CallBack function for dbHandleGetResultAsList. Transforms row into Car.">
<polygon fill="white" stroke="#666666" points="492.38,-116.75 295.62,-116.75 295.62,-90 492.38,-90 492.38,-116.75"/>
<text text-anchor="middle" x="394" y="-97.55" font-family="Helvetica,sans-Serif" font-size="16.00">carGetListQueryCallback</text>
</a>
</g>
</g>
<!-- Node1&#45;&gt;Node2 -->
<g id="edge1_Node000001_Node000002" class="edge">
<title>Node1&#45;&gt;Node2</title>
<g id="a_edge1_Node000001_Node000002"><a xlink:title=" ">
<path fill="none" stroke="#63b8ff" stroke-width="2" d="M523.32,-74.91C515.55,-76.78 507.73,-78.64 500.25,-80.38 487.13,-83.42 473.07,-86.57 459.63,-89.53"/>
<polygon fill="#63b8ff" stroke="#63b8ff" stroke-width="2" points="524.96,-77.62 533.85,-71.86 523.31,-70.82 524.96,-77.62"/>
</a>
</g>
</g>
<!-- Node15 -->
<g id="Node000015" class="node">
<title>Node15</title>
<g id="a_Node000015"><a xlink:href="../../dd/d93/client_8c.html#a903cc00cfe46a85c92b09861aba1f26c" target="_top" xlink:title="CallBack function for dbHandleGetResultAsList . Transforms row into Client.">
<polygon fill="white" stroke="#666666" points="500.25,-71.75 287.75,-71.75 287.75,-45 500.25,-45 500.25,-71.75"/>
<text text-anchor="middle" x="394" y="-52.55" font-family="Helvetica,sans-Serif" font-size="16.00">clientGetListQueryCallback</text>
</a>
</g>
</g>
<!-- Node1&#45;&gt;Node15 -->
<g id="edge4_Node000001_Node000015" class="edge">
<title>Node1&#45;&gt;Node15</title>
<g id="a_edge4_Node000001_Node000015"><a xlink:title=" ">
<path fill="none" stroke="#63b8ff" stroke-width="2" d="M523,-58.38C515.73,-58.38 508.21,-58.38 500.62,-58.38"/>
<polygon fill="#63b8ff" stroke="#63b8ff" stroke-width="2" points="522.76,-61.88 532.76,-58.38 522.76,-54.88 522.76,-61.88"/>
</a>
</g>
</g>
<!-- Node21 -->
<g id="Node000021" class="node">
<title>Node21</title>
<g id="a_Node000021"><a xlink:href="../../d7/d40/list_8c.html#ab7795a44b989e068670f6c726c519287" target="_top" xlink:title="Inserts data in list at appropriate positon so that list remains sorted.">
<polygon fill="white" stroke="#666666" points="432.38,-26.75 355.62,-26.75 355.62,0 432.38,0 432.38,-26.75"/>
<text text-anchor="middle" x="394" y="-7.55" font-family="Helvetica,sans-Serif" font-size="16.00">listInsert</text>
</a>
</g>
</g>
<!-- Node1&#45;&gt;Node21 -->
<g id="edge7_Node000001_Node000021" class="edge">
<title>Node1&#45;&gt;Node21</title>
<g id="a_edge7_Node000001_Node000021"><a xlink:title=" ">
<path fill="none" stroke="#63b8ff" stroke-width="2" d="M523.32,-41.84C515.55,-39.97 507.73,-38.11 500.25,-36.38 477.84,-31.17 452.67,-25.66 432.56,-21.34"/>
<polygon fill="#63b8ff" stroke="#63b8ff" stroke-width="2" points="523.31,-45.93 533.85,-44.89 524.96,-39.13 523.31,-45.93"/>
</a>
</g>
</g>
<!-- Node3 -->
<g id="Node000003" class="node">
<title>Node3</title>
<g id="a_Node000003"><a xlink:href="../../d5/df2/car_8c.html#ad946b04e98242aa73d41af8cd6963335" target="_top" xlink:title="Get list of cars.">
<polygon fill="white" stroke="#666666" points="243.88,-116.75 153.62,-116.75 153.62,-90 243.88,-90 243.88,-116.75"/>
<text text-anchor="middle" x="198.75" y="-97.55" font-family="Helvetica,sans-Serif" font-size="16.00">carGetList</text>
</a>
</g>
</g>
<!-- Node2&#45;&gt;Node3 -->
<g id="edge2_Node000002_Node000003" class="edge">
<title>Node2&#45;&gt;Node3</title>
<g id="a_edge2_Node000002_Node000003"><a xlink:title=" ">
<path fill="none" stroke="#63b8ff" stroke-width="2" d="M282.64,-103.38C269.01,-103.38 255.74,-103.38 243.96,-103.38"/>
<polygon fill="#63b8ff" stroke="#63b8ff" stroke-width="2" points="282.24,-106.88 292.24,-103.38 282.24,-99.88 282.24,-106.88"/>
</a>
</g>
</g>
<!-- Node4 -->
<g id="Node000004" class="node">
<title>Node4</title>
<g id="a_Node000004"><a xlink:href="../../dc/dc6/carsmenu_8c.html#ad451b82b7f3d31d1bb3fc4c210941579" target="_top" xlink:title="Invokes the listView of cars.">
<polygon fill="#fff0f0" stroke="red" points="101.88,-116.75 7.87,-116.75 7.87,-90 101.88,-90 101.88,-116.75"/>
<text text-anchor="middle" x="54.88" y="-97.55" font-family="Helvetica,sans-Serif" font-size="16.00">carChoose</text>
</a>
</g>
</g>
<!-- Node3&#45;&gt;Node4 -->
<g id="edge3_Node000003_Node000004" class="edge">
<title>Node3&#45;&gt;Node4</title>
<g id="a_edge3_Node000003_Node000004"><a xlink:title=" ">
<path fill="none" stroke="#63b8ff" stroke-width="2" d="M140.32,-103.38C127.64,-103.38 114.35,-103.38 102.18,-103.38"/>
<polygon fill="#63b8ff" stroke="#63b8ff" stroke-width="2" points="140.25,-106.88 150.25,-103.38 140.25,-99.88 140.25,-106.88"/>
</a>
</g>
</g>
<!-- Node16 -->
<g id="Node000016" class="node">
<title>Node16</title>
<g id="a_Node000016"><a xlink:href="../../dd/d93/client_8c.html#ae9344815031f09e5f54986014cea5f29" target="_top" xlink:title="Get list of clients.">
<polygon fill="white" stroke="#666666" points="251.75,-71.75 145.75,-71.75 145.75,-45 251.75,-45 251.75,-71.75"/>
<text text-anchor="middle" x="198.75" y="-52.55" font-family="Helvetica,sans-Serif" font-size="16.00">clientGetList</text>
</a>
</g>
</g>
<!-- Node15&#45;&gt;Node16 -->
<g id="edge5_Node000015_Node000016" class="edge">
<title>Node15&#45;&gt;Node16</title>
<g id="a_edge5_Node000015_Node000016"><a xlink:title=" ">
<path fill="none" stroke="#63b8ff" stroke-width="2" d="M274.33,-58.38C266.69,-58.38 259.25,-58.38 252.21,-58.38"/>
<polygon fill="#63b8ff" stroke="#63b8ff" stroke-width="2" points="274.33,-61.88 284.33,-58.38 274.33,-54.88 274.33,-61.88"/>
</a>
</g>
</g>
<!-- Node17 -->
<g id="Node000017" class="node">
<title>Node17</title>
<g id="a_Node000017"><a xlink:href="../../da/de9/clientsmenu_8c.html#a1d711b31a5a18af01cdd582e537ff921" target="_top" xlink:title="Invokes ListView of clients.">
<polygon fill="#fff0f0" stroke="red" points="109.75,-71.75 0,-71.75 0,-45 109.75,-45 109.75,-71.75"/>
<text text-anchor="middle" x="54.88" y="-52.55" font-family="Helvetica,sans-Serif" font-size="16.00">clientChoose</text>
</a>
</g>
</g>
<!-- Node16&#45;&gt;Node17 -->
<g id="edge6_Node000016_Node000017" class="edge">
<title>Node16&#45;&gt;Node17</title>
<g id="a_edge6_Node000016_Node000017"><a xlink:title=" ">
<path fill="none" stroke="#63b8ff" stroke-width="2" d="M132.41,-58.38C124.91,-58.38 117.32,-58.38 109.98,-58.38"/>
<polygon fill="#63b8ff" stroke="#63b8ff" stroke-width="2" points="132.32,-61.88 142.32,-58.38 132.32,-54.88 132.32,-61.88"/>
</a>
</g>
</g>
</g>
</svg>
