<?xml version="1.0" encoding="UTF-8" standalone="no"?>
<!DOCTYPE svg PUBLIC "-//W3C//DTD SVG 1.1//EN"
 "http://www.w3.org/Graphics/SVG/1.1/DTD/svg11.dtd">
<!-- Generated by graphviz version 8.0.5 (0)
 -->
<!-- Title: listGetFront Pages: 1 -->
<svg width="589pt" height="114pt"
 viewBox="0.00 0.00 588.75 113.75" xmlns="http://www.w3.org/2000/svg" xmlns:xlink="http://www.w3.org/1999/xlink">
<g id="graph0" class="graph" transform="scale(1 1) rotate(0) translate(4 109.75)">
<title>listGetFront</title>
<!-- Node1 -->
<g id="Node000001" class="node">
<title>Node1</title>
<g id="a_Node000001"><a xlink:title="Returns pointer to the first element of list.">
<polygon fill="#999999" stroke="#666666" points="580.75,-64.75 480.75,-64.75 480.75,-38 580.75,-38 580.75,-64.75"/>
<text text-anchor="middle" x="530.75" y="-45.55" font-family="Helvetica,sans-Serif" font-size="16.00">listGetFront</text>
</a>
</g>
</g>
<!-- Node2 -->
<g id="Node000002" class="node">
<title>Node2</title>
<g id="a_Node000002"><a xlink:href="../../d7/d40/list_8c.html#afa2a7a1a43bfe8cfafd663b2739b0e2e" target="_top" xlink:title="Removes ListNode from List.">
<polygon fill="white" stroke="#666666" points="444.75,-105.75 323.75,-105.75 323.75,-79 444.75,-79 444.75,-105.75"/>
<text text-anchor="middle" x="384.25" y="-86.55" font-family="Helvetica,sans-Serif" font-size="16.00">listDeleteNode</text>
</a>
</g>
</g>
<!-- Node1&#45;&gt;Node2 -->
<g id="edge1_Node000001_Node000002" class="edge">
<title>Node1&#45;&gt;Node2</title>
<g id="a_edge1_Node000001_Node000002"><a xlink:title=" ">
<path fill="none" stroke="#63b8ff" stroke-width="2" d="M468.8,-68.67C457.15,-71.97 445.09,-75.4 433.89,-78.58"/>
<polygon fill="#63b8ff" stroke="#63b8ff" stroke-width="2" points="470.57,-71.24 479.23,-65.14 468.66,-64.5 470.57,-71.24"/>
</a>
</g>
</g>
<!-- Node3 -->
<g id="Node000003" class="node">
<title>Node3</title>
<g id="a_Node000003"><a xlink:href="../../d7/dba/menuutil_8c.html#a6229d06cea0b18a996e9f378719c56bb" target="_top" xlink:title="frees internal List of listView.">
<polygon fill="white" stroke="#666666" points="285.88,-71.75 156.62,-71.75 156.62,-45 285.88,-45 285.88,-71.75"/>
<text text-anchor="middle" x="221.25" y="-52.55" font-family="Helvetica,sans-Serif" font-size="16.00">listViewFreeList</text>
</a>
</g>
</g>
<!-- Node1&#45;&gt;Node3 -->
<g id="edge4_Node000001_Node000003" class="edge">
<title>Node1&#45;&gt;Node3</title>
<g id="a_edge4_Node000001_Node000003"><a xlink:title=" ">
<path fill="none" stroke="#63b8ff" stroke-width="2" d="M467.45,-52.79C414.71,-53.99 339.42,-55.71 286.22,-56.92"/>
<polygon fill="#63b8ff" stroke="#63b8ff" stroke-width="2" points="467.43,-56.23 477.34,-52.5 467.27,-49.23 467.43,-56.23"/>
</a>
</g>
</g>
<!-- Node20 -->
<g id="Node000020" class="node">
<title>Node20</title>
<g id="a_Node000020"><a xlink:href="../../d7/dba/menuutil_8c.html#a06a2ceb28df68b49e42d701e49f324c9" target="_top" xlink:title="Allocates and fills MENU, based on List content.">
<polygon fill="white" stroke="#666666" points="287.75,-26.75 154.75,-26.75 154.75,0 287.75,0 287.75,-26.75"/>
<text text-anchor="middle" x="221.25" y="-7.55" font-family="Helvetica,sans-Serif" font-size="16.00">listViewInitMenu</text>
</a>
</g>
</g>
<!-- Node1&#45;&gt;Node20 -->
<g id="edge5_Node000001_Node000020" class="edge">
<title>Node1&#45;&gt;Node20</title>
<g id="a_edge5_Node000001_Node000020"><a xlink:title=" ">
<path fill="none" stroke="#63b8ff" stroke-width="2" d="M467.6,-43.69C415.5,-37.26 341.31,-28.09 288.18,-21.52"/>
<polygon fill="#63b8ff" stroke="#63b8ff" stroke-width="2" points="466.99,-47.52 477.34,-45.27 467.85,-40.57 466.99,-47.52"/>
</a>
</g>
</g>
<!-- Node2&#45;&gt;Node3 -->
<g id="edge2_Node000002_Node000003" class="edge">
<title>Node2&#45;&gt;Node3</title>
<g id="a_edge2_Node000002_Node000003"><a xlink:title=" ">
<path fill="none" stroke="#63b8ff" stroke-width="2" d="M310.67,-77.05C302.54,-75.33 294.31,-73.59 286.3,-71.9"/>
<polygon fill="#63b8ff" stroke="#63b8ff" stroke-width="2" points="310.79,-81.07 321.3,-79.71 312.24,-74.22 310.79,-81.07"/>
</a>
</g>
</g>
<!-- Node4 -->
<g id="Node000004" class="node">
<title>Node4</title>
<g id="a_Node000004"><a xlink:href="../../d7/dba/menuutil_8c.html#aca301edf9d04aa391571851b148355ba" target="_top" xlink:title="List Viewer for lists.">
<polygon fill="#fff0f0" stroke="red" points="118.75,-48.75 0,-48.75 0,-22 118.75,-22 118.75,-48.75"/>
<text text-anchor="middle" x="59.38" y="-29.55" font-family="Helvetica,sans-Serif" font-size="16.00">listViewInvoke</text>
</a>
</g>
</g>
<!-- Node3&#45;&gt;Node4 -->
<g id="edge3_Node000003_Node000004" class="edge">
<title>Node3&#45;&gt;Node4</title>
<g id="a_edge3_Node000003_Node000004"><a xlink:title=" ">
<path fill="none" stroke="#63b8ff" stroke-width="2" d="M143.38,-47.32C135.2,-46.14 126.98,-44.96 119.06,-43.82"/>
<polygon fill="#63b8ff" stroke="#63b8ff" stroke-width="2" points="143.75,-51.19 154.14,-49.15 144.74,-44.26 143.75,-51.19"/>
</a>
</g>
</g>
<!-- Node20&#45;&gt;Node4 -->
<g id="edge6_Node000020_Node000004" class="edge">
<title>Node20&#45;&gt;Node4</title>
<g id="a_edge6_Node000020_Node000004"><a xlink:title=" ">
<path fill="none" stroke="#63b8ff" stroke-width="2" d="M141.58,-24.2C133.98,-25.25 126.37,-26.29 119.01,-27.31"/>
<polygon fill="#63b8ff" stroke="#63b8ff" stroke-width="2" points="142.87,-27.28 152.3,-22.45 141.92,-20.35 142.87,-27.28"/>
</a>
</g>
</g>
</g>
</svg>
