<?xml version="1.0" encoding="UTF-8" standalone="no"?>
<!DOCTYPE svg PUBLIC "-//W3C//DTD SVG 1.1//EN"
 "http://www.w3.org/Graphics/SVG/1.1/DTD/svg11.dtd">
<!-- Generated by graphviz version 8.0.5 (0)
 -->
<!-- Title: listSize Pages: 1 -->
<svg width="545pt" height="117pt"
 viewBox="0.00 0.00 545.25 116.75" xmlns="http://www.w3.org/2000/svg" xmlns:xlink="http://www.w3.org/1999/xlink">
<g id="graph0" class="graph" transform="scale(1 1) rotate(0) translate(4 112.75)">
<title>listSize</title>
<!-- Node1 -->
<g id="Node000001" class="node">
<title>Node1</title>
<g id="a_Node000001"><a xlink:title="How many elements are there in List.">
<polygon fill="#999999" stroke="#666666" points="537.25,-67.75 469.5,-67.75 469.5,-41 537.25,-41 537.25,-67.75"/>
<text text-anchor="middle" x="503.38" y="-48.55" font-family="Helvetica,sans-Serif" font-size="16.00">listSize</text>
</a>
</g>
</g>
<!-- Node2 -->
<g id="Node000002" class="node">
<title>Node2</title>
<g id="a_Node000002"><a xlink:href="../../d7/dba/menuutil_8c.html#a6229d06cea0b18a996e9f378719c56bb" target="_top" xlink:title="frees internal List of listView.">
<polygon fill="white" stroke="#666666" points="431.62,-108.75 302.38,-108.75 302.38,-82 431.62,-82 431.62,-108.75"/>
<text text-anchor="middle" x="367" y="-89.55" font-family="Helvetica,sans-Serif" font-size="16.00">listViewFreeList</text>
</a>
</g>
</g>
<!-- Node1&#45;&gt;Node2 -->
<g id="edge1_Node000001_Node000002" class="edge">
<title>Node1&#45;&gt;Node2</title>
<g id="a_edge1_Node000001_Node000002"><a xlink:title=" ">
<path fill="none" stroke="#63b8ff" stroke-width="2" d="M456.74,-68.3C442.71,-72.58 427.26,-77.29 413.25,-81.57"/>
<polygon fill="#63b8ff" stroke="#63b8ff" stroke-width="2" points="458.62,-70.78 467.16,-64.51 456.57,-64.08 458.62,-70.78"/>
</a>
</g>
</g>
<!-- Node3 -->
<g id="Node000003" class="node">
<title>Node3</title>
<g id="a_Node000003"><a xlink:href="../../d7/dba/menuutil_8c.html#aca301edf9d04aa391571851b148355ba" target="_top" xlink:title="List Viewer for lists.">
<polygon fill="white" stroke="#666666" points="264.5,-67.75 145.75,-67.75 145.75,-41 264.5,-41 264.5,-67.75"/>
<text text-anchor="middle" x="205.12" y="-48.55" font-family="Helvetica,sans-Serif" font-size="16.00">listViewInvoke</text>
</a>
</g>
</g>
<!-- Node1&#45;&gt;Node3 -->
<g id="edge7_Node000001_Node000003" class="edge">
<title>Node1&#45;&gt;Node3</title>
<g id="a_edge7_Node000001_Node000003"><a xlink:title=" ">
<path fill="none" stroke="#63b8ff" stroke-width="2" d="M456.56,-54.38C404.98,-54.38 321.05,-54.38 264.74,-54.38"/>
<polygon fill="#63b8ff" stroke="#63b8ff" stroke-width="2" points="456.25,-57.88 466.25,-54.38 456.25,-50.88 456.25,-57.88"/>
</a>
</g>
</g>
<!-- Node19 -->
<g id="Node000019" class="node">
<title>Node19</title>
<g id="a_Node000019"><a xlink:href="../../d7/dba/menuutil_8c.html#a06a2ceb28df68b49e42d701e49f324c9" target="_top" xlink:title="Allocates and fills MENU, based on List content.">
<polygon fill="white" stroke="#666666" points="433.5,-26.75 300.5,-26.75 300.5,0 433.5,0 433.5,-26.75"/>
<text text-anchor="middle" x="367" y="-7.55" font-family="Helvetica,sans-Serif" font-size="16.00">listViewInitMenu</text>
</a>
</g>
</g>
<!-- Node1&#45;&gt;Node19 -->
<g id="edge5_Node000001_Node000019" class="edge">
<title>Node1&#45;&gt;Node19</title>
<g id="a_edge5_Node000001_Node000019"><a xlink:title=" ">
<path fill="none" stroke="#63b8ff" stroke-width="2" d="M456.74,-40.45C442.71,-36.17 427.26,-31.46 413.25,-27.18"/>
<polygon fill="#63b8ff" stroke="#63b8ff" stroke-width="2" points="456.57,-44.67 467.16,-44.24 458.62,-37.97 456.57,-44.67"/>
</a>
</g>
</g>
<!-- Node2&#45;&gt;Node3 -->
<g id="edge2_Node000002_Node000003" class="edge">
<title>Node2&#45;&gt;Node3</title>
<g id="a_edge2_Node000002_Node000003"><a xlink:title=" ">
<path fill="none" stroke="#63b8ff" stroke-width="2" d="M299.87,-78.42C286.67,-75.03 272.95,-71.51 260.21,-68.24"/>
<polygon fill="#63b8ff" stroke="#63b8ff" stroke-width="2" points="299.76,-82.51 310.32,-81.61 301.5,-75.73 299.76,-82.51"/>
</a>
</g>
</g>
<!-- Node4 -->
<g id="Node000004" class="node">
<title>Node4</title>
<g id="a_Node000004"><a xlink:href="../../dc/dc6/carsmenu_8c.html#ad451b82b7f3d31d1bb3fc4c210941579" target="_top" xlink:title="Invokes the listView of cars.">
<polygon fill="#fff0f0" stroke="red" points="101.88,-90.75 7.87,-90.75 7.87,-64 101.88,-64 101.88,-90.75"/>
<text text-anchor="middle" x="54.88" y="-71.55" font-family="Helvetica,sans-Serif" font-size="16.00">carChoose</text>
</a>
</g>
</g>
<!-- Node3&#45;&gt;Node4 -->
<g id="edge3_Node000003_Node000004" class="edge">
<title>Node3&#45;&gt;Node4</title>
<g id="a_edge3_Node000003_Node000004"><a xlink:title=" ">
<path fill="none" stroke="#63b8ff" stroke-width="2" d="M132.89,-65.43C122.45,-67.05 111.93,-68.68 102.17,-70.19"/>
<polygon fill="#63b8ff" stroke="#63b8ff" stroke-width="2" points="134.19,-68.46 143.53,-63.47 133.11,-61.54 134.19,-68.46"/>
</a>
</g>
</g>
<!-- Node15 -->
<g id="Node000015" class="node">
<title>Node15</title>
<g id="a_Node000015"><a xlink:href="../../da/de9/clientsmenu_8c.html#a1d711b31a5a18af01cdd582e537ff921" target="_top" xlink:title="Invokes ListView of clients.">
<polygon fill="#fff0f0" stroke="red" points="109.75,-45.75 0,-45.75 0,-19 109.75,-19 109.75,-45.75"/>
<text text-anchor="middle" x="54.88" y="-26.55" font-family="Helvetica,sans-Serif" font-size="16.00">clientChoose</text>
</a>
</g>
</g>
<!-- Node3&#45;&gt;Node15 -->
<g id="edge4_Node000003_Node000015" class="edge">
<title>Node3&#45;&gt;Node15</title>
<g id="a_edge4_Node000003_Node000015"><a xlink:title=" ">
<path fill="none" stroke="#63b8ff" stroke-width="2" d="M132.82,-43.79C125.2,-42.66 117.55,-41.53 110.18,-40.43"/>
<polygon fill="#63b8ff" stroke="#63b8ff" stroke-width="2" points="133.13,-47.67 143.53,-45.68 134.15,-40.75 133.13,-47.67"/>
</a>
</g>
</g>
<!-- Node19&#45;&gt;Node3 -->
<g id="edge6_Node000019_Node000003" class="edge">
<title>Node19&#45;&gt;Node3</title>
<g id="a_edge6_Node000019_Node000003"><a xlink:title=" ">
<path fill="none" stroke="#63b8ff" stroke-width="2" d="M299.87,-30.33C286.67,-33.72 272.95,-37.24 260.21,-40.51"/>
<polygon fill="#63b8ff" stroke="#63b8ff" stroke-width="2" points="301.5,-33.02 310.32,-27.14 299.76,-26.24 301.5,-33.02"/>
</a>
</g>
</g>
</g>
</svg>
