<?xml version="1.0" encoding="UTF-8" standalone="no"?>
<!DOCTYPE svg PUBLIC "-//W3C//DTD SVG 1.1//EN"
 "http://www.w3.org/Graphics/SVG/1.1/DTD/svg11.dtd">
<!-- Generated by graphviz version 8.0.5 (0)
 -->
<!-- Title: listCreateList Pages: 1 -->
<svg width="643pt" height="80pt"
 viewBox="0.00 0.00 642.75 79.75" xmlns="http://www.w3.org/2000/svg" xmlns:xlink="http://www.w3.org/1999/xlink">
<g id="graph0" class="graph" transform="scale(1 1) rotate(0) translate(4 75.75)">
<title>listCreateList</title>
<!-- Node1 -->
<g id="Node000001" class="node">
<title>Node1</title>
<g id="a_Node000001"><a xlink:title="Returns empty list.">
<polygon fill="#999999" stroke="#666666" points="634.75,-48.75 525,-48.75 525,-22 634.75,-22 634.75,-48.75"/>
<text text-anchor="middle" x="579.88" y="-29.55" font-family="Helvetica,sans-Serif" font-size="16.00">listCreateList</text>
</a>
</g>
</g>
<!-- Node2 -->
<g id="Node000002" class="node">
<title>Node2</title>
<g id="a_Node000002"><a xlink:href="../../d3/df4/dbhandle_8c.html#a93d9b43b32495dc8630963c174aeba05" target="_top" xlink:title="Given query and callback function create List based on the query.">
<polygon fill="white" stroke="#666666" points="489,-48.75 287.75,-48.75 287.75,-22 489,-22 489,-48.75"/>
<text text-anchor="middle" x="388.38" y="-29.55" font-family="Helvetica,sans-Serif" font-size="16.00">dbHandleGetResultAsList</text>
</a>
</g>
</g>
<!-- Node1&#45;&gt;Node2 -->
<g id="edge1_Node000001_Node000002" class="edge">
<title>Node1&#45;&gt;Node2</title>
<g id="a_edge1_Node000001_Node000002"><a xlink:title=" ">
<path fill="none" stroke="#63b8ff" stroke-width="2" d="M511.68,-35.38C504.34,-35.38 496.77,-35.38 489.15,-35.38"/>
<polygon fill="#63b8ff" stroke="#63b8ff" stroke-width="2" points="511.57,-38.88 521.57,-35.38 511.57,-31.88 511.57,-38.88"/>
</a>
</g>
</g>
<!-- Node3 -->
<g id="Node000003" class="node">
<title>Node3</title>
<g id="a_Node000003"><a xlink:href="../../d5/df2/car_8c.html#ad946b04e98242aa73d41af8cd6963335" target="_top" xlink:title="Get list of cars.">
<polygon fill="white" stroke="#666666" points="243.88,-71.75 153.62,-71.75 153.62,-45 243.88,-45 243.88,-71.75"/>
<text text-anchor="middle" x="198.75" y="-52.55" font-family="Helvetica,sans-Serif" font-size="16.00">carGetList</text>
</a>
</g>
</g>
<!-- Node2&#45;&gt;Node3 -->
<g id="edge2_Node000002_Node000003" class="edge">
<title>Node2&#45;&gt;Node3</title>
<g id="a_edge2_Node000002_Node000003"><a xlink:title=" ">
<path fill="none" stroke="#63b8ff" stroke-width="2" d="M274.76,-49.18C263.99,-50.5 253.57,-51.78 244.09,-52.94"/>
<polygon fill="#63b8ff" stroke="#63b8ff" stroke-width="2" points="275.02,-52.31 284.52,-47.62 274.17,-45.36 275.02,-52.31"/>
</a>
</g>
</g>
<!-- Node15 -->
<g id="Node000015" class="node">
<title>Node15</title>
<g id="a_Node000015"><a xlink:href="../../dd/d93/client_8c.html#ae9344815031f09e5f54986014cea5f29" target="_top" xlink:title="Get list of clients.">
<polygon fill="white" stroke="#666666" points="251.75,-26.75 145.75,-26.75 145.75,0 251.75,0 251.75,-26.75"/>
<text text-anchor="middle" x="198.75" y="-7.55" font-family="Helvetica,sans-Serif" font-size="16.00">clientGetList</text>
</a>
</g>
</g>
<!-- Node2&#45;&gt;Node15 -->
<g id="edge4_Node000002_Node000015" class="edge">
<title>Node2&#45;&gt;Node15</title>
<g id="a_edge4_Node000002_Node000015"><a xlink:title=" ">
<path fill="none" stroke="#63b8ff" stroke-width="2" d="M274.69,-22.16C266.87,-21.25 259.24,-20.35 252.02,-19.5"/>
<polygon fill="#63b8ff" stroke="#63b8ff" stroke-width="2" points="274.18,-25.98 284.52,-23.67 275,-19.03 274.18,-25.98"/>
</a>
</g>
</g>
<!-- Node4 -->
<g id="Node000004" class="node">
<title>Node4</title>
<g id="a_Node000004"><a xlink:href="../../dc/dc6/carsmenu_8c.html#ad451b82b7f3d31d1bb3fc4c210941579" target="_top" xlink:title="Invokes the listView of cars.">
<polygon fill="#fff0f0" stroke="red" points="101.88,-71.75 7.87,-71.75 7.87,-45 101.88,-45 101.88,-71.75"/>
<text text-anchor="middle" x="54.88" y="-52.55" font-family="Helvetica,sans-Serif" font-size="16.00">carChoose</text>
</a>
</g>
</g>
<!-- Node3&#45;&gt;Node4 -->
<g id="edge3_Node000003_Node000004" class="edge">
<title>Node3&#45;&gt;Node4</title>
<g id="a_edge3_Node000003_Node000004"><a xlink:title=" ">
<path fill="none" stroke="#63b8ff" stroke-width="2" d="M140.32,-58.38C127.64,-58.38 114.35,-58.38 102.18,-58.38"/>
<polygon fill="#63b8ff" stroke="#63b8ff" stroke-width="2" points="140.25,-61.88 150.25,-58.38 140.25,-54.88 140.25,-61.88"/>
</a>
</g>
</g>
<!-- Node16 -->
<g id="Node000016" class="node">
<title>Node16</title>
<g id="a_Node000016"><a xlink:href="../../da/de9/clientsmenu_8c.html#a1d711b31a5a18af01cdd582e537ff921" target="_top" xlink:title="Invokes ListView of clients.">
<polygon fill="#fff0f0" stroke="red" points="109.75,-26.75 0,-26.75 0,0 109.75,0 109.75,-26.75"/>
<text text-anchor="middle" x="54.88" y="-7.55" font-family="Helvetica,sans-Serif" font-size="16.00">clientChoose</text>
</a>
</g>
</g>
<!-- Node15&#45;&gt;Node16 -->
<g id="edge5_Node000015_Node000016" class="edge">
<title>Node15&#45;&gt;Node16</title>
<g id="a_edge5_Node000015_Node000016"><a xlink:title=" ">
<path fill="none" stroke="#63b8ff" stroke-width="2" d="M132.41,-13.38C124.91,-13.38 117.32,-13.38 109.98,-13.38"/>
<polygon fill="#63b8ff" stroke="#63b8ff" stroke-width="2" points="132.32,-16.88 142.32,-13.38 132.32,-9.88 132.32,-16.88"/>
</a>
</g>
</g>
</g>
</svg>
