<?xml version="1.0" encoding="UTF-8" standalone="no"?>
<!DOCTYPE svg PUBLIC "-//W3C//DTD SVG 1.1//EN"
 "http://www.w3.org/Graphics/SVG/1.1/DTD/svg11.dtd">
<!-- Generated by graphviz version 8.0.5 (0)
 -->
<!-- Title: Car Pages: 1 -->
<svg width="155pt" height="210pt"
 viewBox="0.00 0.00 155.00 210.00" xmlns="http://www.w3.org/2000/svg" xmlns:xlink="http://www.w3.org/1999/xlink">
<g id="graph0" class="graph" transform="scale(1 1) rotate(0) translate(4 206)">
<title>Car</title>
<!-- Node1 -->
<g id="Node000001" class="node">
<title>Node1</title>
<g id="a_Node000001"><a xlink:title="Structure containing information about car.">
<polygon fill="#999999" stroke="none" points="147,-202 0,-202 0,0 147,0 147,-202"/>
<text text-anchor="start" x="60.75" y="-182.8" font-family="Helvetica,sans-Serif" font-size="16.00">Car</text>
<text text-anchor="start" x="4" y="-160.8" font-family="Helvetica,sans-Serif" font-size="16.00">+</text>
<text text-anchor="start" x="17" y="-160.8" font-family="Helvetica,sans-Serif" font-size="16.00">int m_ID</text>
<text text-anchor="start" x="4" y="-138.8" font-family="Helvetica,sans-Serif" font-size="16.00">+</text>
<text text-anchor="start" x="17" y="-138.8" font-family="Helvetica,sans-Serif" font-size="16.00">char * m_regNum</text>
<text text-anchor="start" x="4" y="-116.8" font-family="Helvetica,sans-Serif" font-size="16.00">+</text>
<text text-anchor="start" x="17" y="-116.8" font-family="Helvetica,sans-Serif" font-size="16.00">char * m_brand</text>
<text text-anchor="start" x="4" y="-94.8" font-family="Helvetica,sans-Serif" font-size="16.00">+</text>
<text text-anchor="start" x="17" y="-94.8" font-family="Helvetica,sans-Serif" font-size="16.00">char * m_model</text>
<text text-anchor="start" x="4" y="-72.8" font-family="Helvetica,sans-Serif" font-size="16.00">+</text>
<text text-anchor="start" x="17" y="-72.8" font-family="Helvetica,sans-Serif" font-size="16.00">short m_yOfProd</text>
<text text-anchor="start" x="4" y="-50.8" font-family="Helvetica,sans-Serif" font-size="16.00">+</text>
<text text-anchor="start" x="17" y="-50.8" font-family="Helvetica,sans-Serif" font-size="16.00">char * m_color</text>
<text text-anchor="start" x="4" y="-28.8" font-family="Helvetica,sans-Serif" font-size="16.00">+</text>
<text text-anchor="start" x="17" y="-28.8" font-family="Helvetica,sans-Serif" font-size="16.00">long m_mileage</text>
<text text-anchor="start" x="71.25" y="-6.8" font-family="Helvetica,sans-Serif" font-size="16.00"> </text>
<polygon fill="#666666" stroke="#666666" points="0,-178 0,-178 147,-178 147,-178 0,-178"/>
<polygon fill="#666666" stroke="#666666" points="0,-24 0,-24 15,-24 15,-24 0,-24"/>
<polygon fill="#666666" stroke="#666666" points="15,-24 15,-24 147,-24 147,-24 15,-24"/>
<polygon fill="none" stroke="#666666" points="0,0 0,-202 147,-202 147,0 0,0"/>
</a>
</g>
</g>
</g>
</svg>
