<?xml version="1.0" encoding="UTF-8" standalone="no"?>
<!DOCTYPE svg PUBLIC "-//W3C//DTD SVG 1.1//EN"
 "http://www.w3.org/Graphics/SVG/1.1/DTD/svg11.dtd">
<!-- Generated by graphviz version 8.0.5 (0)
 -->
<!-- Title: car.c Pages: 1 -->
<svg width="794pt" height="286pt"
 viewBox="0.00 0.00 793.95 285.75" xmlns="http://www.w3.org/2000/svg" xmlns:xlink="http://www.w3.org/1999/xlink">
<g id="graph0" class="graph" transform="scale(1 1) rotate(0) translate(4 281.75)">
<title>car.c</title>
<!-- Node1 -->
<g id="Node000001" class="node">
<title>Node1</title>
<g id="a_Node000001"><a xlink:title="Implements function to operate on client.">
<polygon fill="#999999" stroke="#666666" points="362.57,-277.75 312.07,-277.75 312.07,-251 362.57,-251 362.57,-277.75"/>
<text text-anchor="middle" x="337.32" y="-258.55" font-family="Helvetica,sans-Serif" font-size="16.00">car.c</text>
</a>
</g>
</g>
<!-- Node2 -->
<g id="Node000002" class="node">
<title>Node2</title>
<g id="a_Node000002"><a xlink:href="../../db/d42/car_8h.html" target="_top" xlink:title="Interface for Car structure.">
<polygon fill="white" stroke="#666666" points="181.95,-152.25 130.7,-152.25 130.7,-125.5 181.95,-125.5 181.95,-152.25"/>
<text text-anchor="middle" x="156.32" y="-133.05" font-family="Helvetica,sans-Serif" font-size="16.00">car.h</text>
</a>
</g>
</g>
<!-- Node1&#45;&gt;Node2 -->
<g id="edge1_Node000001_Node000002" class="edge">
<title>Node1&#45;&gt;Node2</title>
<g id="a_edge1_Node000001_Node000002"><a xlink:title=" ">
<path fill="none" stroke="#63b8ff" stroke-width="2" d="M311.61,-260.33C281,-255.51 229.8,-243.54 196.32,-215 180.8,-201.76 170.38,-180.95 164.08,-164.58"/>
<polygon fill="#63b8ff" stroke="#63b8ff" stroke-width="2" points="167.51,-162.92 160.89,-154.64 160.9,-165.23 167.51,-162.92"/>
</a>
</g>
</g>
<!-- Node3 -->
<g id="Node000003" class="node">
<title>Node3</title>
<g id="a_Node000003"><a xlink:href="../../da/d23/list_8h.html" target="_top" xlink:title="Doubly linked list interface.">
<polygon fill="white" stroke="#666666" points="234.2,-89.5 184.45,-89.5 184.45,-62.75 234.2,-62.75 234.2,-89.5"/>
<text text-anchor="middle" x="209.32" y="-70.3" font-family="Helvetica,sans-Serif" font-size="16.00">list.h</text>
</a>
</g>
</g>
<!-- Node1&#45;&gt;Node3 -->
<g id="edge11_Node000001_Node000003" class="edge">
<title>Node1&#45;&gt;Node3</title>
<g id="a_edge11_Node000001_Node000003"><a xlink:title=" ">
<path fill="none" stroke="#63b8ff" stroke-width="2" d="M311.98,-259.24C286.84,-253.72 249.26,-241.4 229.32,-215 204.53,-182.18 203.85,-132.12 206.19,-102.21"/>
<polygon fill="#63b8ff" stroke="#63b8ff" stroke-width="2" points="209.93,-102.96 207.44,-92.66 202.97,-102.26 209.93,-102.96"/>
</a>
</g>
</g>
<!-- Node4 -->
<g id="Node000004" class="node">
<title>Node4</title>
<g id="a_Node000004"><a xlink:title=" ">
<polygon fill="#e0e0e0" stroke="#999999" points="250.32,-26.75 168.32,-26.75 168.32,0 250.32,0 250.32,-26.75"/>
<text text-anchor="middle" x="209.32" y="-7.55" font-family="Helvetica,sans-Serif" font-size="16.00">stdbool.h</text>
</a>
</g>
</g>
<!-- Node1&#45;&gt;Node4 -->
<g id="edge17_Node000001_Node000004" class="edge">
<title>Node1&#45;&gt;Node4</title>
<g id="a_edge17_Node000001_Node000004"><a xlink:title=" ">
<path fill="none" stroke="#63b8ff" stroke-width="2" d="M311.78,-261.83C248.7,-257.59 87.47,-244.13 43.32,-215 15.72,-196.79 12.58,-184 3.32,-152.25 -17.87,-79.57 87.33,-41.67 155.23,-25.07"/>
<polygon fill="#63b8ff" stroke="#63b8ff" stroke-width="2" points="156.91,-27.81 165.85,-22.13 155.32,-20.99 156.91,-27.81"/>
</a>
</g>
</g>
<!-- Node5 -->
<g id="Node000005" class="node">
<title>Node5</title>
<g id="a_Node000005"><a xlink:href="../../db/d9d/dbhandle_8h.html" target="_top" xlink:title="Database operations interface.">
<polygon fill="white" stroke="#666666" points="334.45,-215 238.2,-215 238.2,-188.25 334.45,-188.25 334.45,-215"/>
<text text-anchor="middle" x="286.32" y="-195.8" font-family="Helvetica,sans-Serif" font-size="16.00">dbhandle.h</text>
</a>
</g>
</g>
<!-- Node1&#45;&gt;Node5 -->
<g id="edge5_Node000001_Node000005" class="edge">
<title>Node1&#45;&gt;Node5</title>
<g id="a_edge5_Node000001_Node000005"><a xlink:title=" ">
<path fill="none" stroke="#63b8ff" stroke-width="2" d="M326.76,-250.79C320.53,-243.38 312.48,-233.78 305.2,-225.11"/>
<polygon fill="#63b8ff" stroke="#63b8ff" stroke-width="2" points="306.99,-222.6 297.88,-217.2 301.63,-227.11 306.99,-222.6"/>
</a>
</g>
</g>
<!-- Node7 -->
<g id="Node000007" class="node">
<title>Node7</title>
<g id="a_Node000007"><a xlink:href="../../de/d0e/menuutil_8h.html" target="_top" xlink:title="Header file for menu operations.">
<polygon fill="white" stroke="#666666" points="143.82,-215 52.82,-215 52.82,-188.25 143.82,-188.25 143.82,-215"/>
<text text-anchor="middle" x="98.32" y="-195.8" font-family="Helvetica,sans-Serif" font-size="16.00">menuutil.h</text>
</a>
</g>
</g>
<!-- Node1&#45;&gt;Node7 -->
<g id="edge12_Node000001_Node000007" class="edge">
<title>Node1&#45;&gt;Node7</title>
<g id="a_edge12_Node000001_Node000007"><a xlink:title=" ">
<path fill="none" stroke="#63b8ff" stroke-width="2" d="M311.75,-256.87C274.97,-247.53 206.13,-230.03 156.56,-217.43"/>
<polygon fill="#63b8ff" stroke="#63b8ff" stroke-width="2" points="156.64,-213.33 146.09,-214.26 154.92,-220.11 156.64,-213.33"/>
</a>
</g>
</g>
<!-- Node9 -->
<g id="Node000009" class="node">
<title>Node9</title>
<g id="a_Node000009"><a xlink:title=" ">
<polygon fill="#e0e0e0" stroke="#999999" points="426.2,-215 352.45,-215 352.45,-188.25 426.2,-188.25 426.2,-215"/>
<text text-anchor="middle" x="389.32" y="-195.8" font-family="Helvetica,sans-Serif" font-size="16.00">assert.h</text>
</a>
</g>
</g>
<!-- Node1&#45;&gt;Node9 -->
<g id="edge15_Node000001_Node000009" class="edge">
<title>Node1&#45;&gt;Node9</title>
<g id="a_edge15_Node000001_Node000009"><a xlink:title=" ">
<path fill="none" stroke="#63b8ff" stroke-width="2" d="M348.1,-250.79C354.51,-243.29 362.84,-233.57 370.32,-224.82"/>
<polygon fill="#63b8ff" stroke="#63b8ff" stroke-width="2" points="373.72,-227.07 377.56,-217.2 368.4,-222.52 373.72,-227.07"/>
</a>
</g>
</g>
<!-- Node10 -->
<g id="Node000010" class="node">
<title>Node10</title>
<g id="a_Node000010"><a xlink:title=" ">
<polygon fill="#e0e0e0" stroke="#999999" points="530.57,-215 444.07,-215 444.07,-188.25 530.57,-188.25 530.57,-215"/>
<text text-anchor="middle" x="487.32" y="-195.8" font-family="Helvetica,sans-Serif" font-size="16.00">ncurses.h</text>
</a>
</g>
</g>
<!-- Node1&#45;&gt;Node10 -->
<g id="edge16_Node000001_Node000010" class="edge">
<title>Node1&#45;&gt;Node10</title>
<g id="a_edge16_Node000001_Node000010"><a xlink:title=" ">
<path fill="none" stroke="#63b8ff" stroke-width="2" d="M362.77,-253.07C384.92,-244.1 417.51,-230.9 443.8,-220.25"/>
<polygon fill="#63b8ff" stroke="#63b8ff" stroke-width="2" points="445.8,-223.41 453.75,-216.41 443.17,-216.92 445.8,-223.41"/>
</a>
</g>
</g>
<!-- Node11 -->
<g id="Node000011" class="node">
<title>Node11</title>
<g id="a_Node000011"><a xlink:title=" ">
<polygon fill="#e0e0e0" stroke="#999999" points="612.32,-215 548.32,-215 548.32,-188.25 612.32,-188.25 612.32,-215"/>
<text text-anchor="middle" x="580.32" y="-195.8" font-family="Helvetica,sans-Serif" font-size="16.00">stdio.h</text>
</a>
</g>
</g>
<!-- Node1&#45;&gt;Node11 -->
<g id="edge18_Node000001_Node000011" class="edge">
<title>Node1&#45;&gt;Node11</title>
<g id="a_edge18_Node000001_Node000011"><a xlink:title=" ">
<path fill="none" stroke="#63b8ff" stroke-width="2" d="M362.95,-257.74C399.25,-249.65 467.95,-233.95 535.92,-215.82"/>
<polygon fill="#63b8ff" stroke="#63b8ff" stroke-width="2" points="537.4,-218.51 546.15,-212.53 535.58,-211.75 537.4,-218.51"/>
</a>
</g>
</g>
<!-- Node12 -->
<g id="Node000012" class="node">
<title>Node12</title>
<g id="a_Node000012"><a xlink:title=" ">
<polygon fill="#e0e0e0" stroke="#999999" points="698.2,-215 630.45,-215 630.45,-188.25 698.2,-188.25 698.2,-215"/>
<text text-anchor="middle" x="664.32" y="-195.8" font-family="Helvetica,sans-Serif" font-size="16.00">stdlib.h</text>
</a>
</g>
</g>
<!-- Node1&#45;&gt;Node12 -->
<g id="edge19_Node000001_Node000012" class="edge">
<title>Node1&#45;&gt;Node12</title>
<g id="a_edge19_Node000001_Node000012"><a xlink:title=" ">
<path fill="none" stroke="#63b8ff" stroke-width="2" d="M362.97,-259.98C410.99,-253.43 517.95,-237.86 617.71,-215.65"/>
<polygon fill="#63b8ff" stroke="#63b8ff" stroke-width="2" points="619.16,-218.45 628.15,-212.83 617.62,-211.63 619.16,-218.45"/>
</a>
</g>
</g>
<!-- Node13 -->
<g id="Node000013" class="node">
<title>Node13</title>
<g id="a_Node000013"><a xlink:title=" ">
<polygon fill="#e0e0e0" stroke="#999999" points="785.95,-215 716.7,-215 716.7,-188.25 785.95,-188.25 785.95,-215"/>
<text text-anchor="middle" x="751.32" y="-195.8" font-family="Helvetica,sans-Serif" font-size="16.00">string.h</text>
</a>
</g>
</g>
<!-- Node1&#45;&gt;Node13 -->
<g id="edge20_Node000001_Node000013" class="edge">
<title>Node1&#45;&gt;Node13</title>
<g id="a_edge20_Node000001_Node000013"><a xlink:title=" ">
<path fill="none" stroke="#63b8ff" stroke-width="2" d="M362.65,-261.33C421.05,-256.36 569.75,-242.16 703.86,-215.48"/>
<polygon fill="#63b8ff" stroke="#63b8ff" stroke-width="2" points="705.26,-218.36 714.37,-212.95 703.87,-211.5 705.26,-218.36"/>
</a>
</g>
</g>
<!-- Node2&#45;&gt;Node3 -->
<g id="edge2_Node000002_Node000003" class="edge">
<title>Node2&#45;&gt;Node3</title>
<g id="a_edge2_Node000002_Node000003"><a xlink:title=" ">
<path fill="none" stroke="#63b8ff" stroke-width="2" d="M167.31,-125.29C173.84,-117.79 182.33,-108.07 189.96,-99.32"/>
<polygon fill="#63b8ff" stroke="#63b8ff" stroke-width="2" points="193.42,-101.53 197.36,-91.7 188.14,-96.93 193.42,-101.53"/>
</a>
</g>
</g>
<!-- Node2&#45;&gt;Node4 -->
<g id="edge4_Node000002_Node000004" class="edge">
<title>Node2&#45;&gt;Node4</title>
<g id="a_edge4_Node000002_Node000004"><a xlink:title=" ">
<path fill="none" stroke="#63b8ff" stroke-width="2" d="M158.09,-125.17C160.54,-109.84 165.79,-83.54 175.32,-62.75 179.35,-53.97 185.01,-45.12 190.55,-37.42"/>
<polygon fill="#63b8ff" stroke="#63b8ff" stroke-width="2" points="194.12,-39.2 197.4,-29.13 188.55,-34.96 194.12,-39.2"/>
</a>
</g>
</g>
<!-- Node3&#45;&gt;Node4 -->
<g id="edge3_Node000003_Node000004" class="edge">
<title>Node3&#45;&gt;Node4</title>
<g id="a_edge3_Node000003_Node000004"><a xlink:title=" ">
<path fill="none" stroke="#63b8ff" stroke-width="2" d="M209.32,-62.54C209.32,-55.94 209.32,-47.61 209.32,-39.75"/>
<polygon fill="#63b8ff" stroke="#63b8ff" stroke-width="2" points="212.82,-39.95 209.32,-29.95 205.82,-39.95 212.82,-39.95"/>
</a>
</g>
</g>
<!-- Node5&#45;&gt;Node2 -->
<g id="edge6_Node000005_Node000002" class="edge">
<title>Node5&#45;&gt;Node2</title>
<g id="a_edge6_Node000005_Node000002"><a xlink:title=" ">
<path fill="none" stroke="#63b8ff" stroke-width="2" d="M259.07,-187.89C240.15,-179.05 214.7,-167.15 193.86,-157.42"/>
<polygon fill="#63b8ff" stroke="#63b8ff" stroke-width="2" points="194.75,-154.04 184.21,-152.97 191.79,-160.38 194.75,-154.04"/>
</a>
</g>
</g>
<!-- Node5&#45;&gt;Node4 -->
<g id="edge10_Node000005_Node000004" class="edge">
<title>Node5&#45;&gt;Node4</title>
<g id="a_edge10_Node000005_Node000004"><a xlink:title=" ">
<path fill="none" stroke="#63b8ff" stroke-width="2" d="M297.07,-187.93C308.31,-173.04 323.29,-147.6 315.32,-125.5 301.4,-86.87 265.87,-54.51 239.77,-34.85"/>
<polygon fill="#63b8ff" stroke="#63b8ff" stroke-width="2" points="241.4,-31.25 231.25,-28.22 237.29,-36.92 241.4,-31.25"/>
</a>
</g>
</g>
<!-- Node6 -->
<g id="Node000006" class="node">
<title>Node6</title>
<g id="a_Node000006"><a xlink:href="../../d8/de1/client_8h.html" target="_top" xlink:title="Interface for Client structure.">
<polygon fill="white" stroke="#666666" points="306.2,-152.25 238.45,-152.25 238.45,-125.5 306.2,-125.5 306.2,-152.25"/>
<text text-anchor="middle" x="272.32" y="-133.05" font-family="Helvetica,sans-Serif" font-size="16.00">client.h</text>
</a>
</g>
</g>
<!-- Node5&#45;&gt;Node6 -->
<g id="edge7_Node000005_Node000006" class="edge">
<title>Node5&#45;&gt;Node6</title>
<g id="a_edge7_Node000005_Node000006"><a xlink:title=" ">
<path fill="none" stroke="#63b8ff" stroke-width="2" d="M283.42,-188.04C281.88,-181.36 279.94,-172.91 278.1,-164.96"/>
<polygon fill="#63b8ff" stroke="#63b8ff" stroke-width="2" points="280.88,-163.4 275.22,-154.45 274.06,-164.98 280.88,-163.4"/>
</a>
</g>
</g>
<!-- Node6&#45;&gt;Node3 -->
<g id="edge8_Node000006_Node000003" class="edge">
<title>Node6&#45;&gt;Node3</title>
<g id="a_edge8_Node000006_Node000003"><a xlink:title=" ">
<path fill="none" stroke="#63b8ff" stroke-width="2" d="M259.27,-125.29C251.25,-117.55 240.75,-107.43 231.46,-98.47"/>
<polygon fill="#63b8ff" stroke="#63b8ff" stroke-width="2" points="233.99,-96.12 224.36,-91.7 229.13,-101.16 233.99,-96.12"/>
</a>
</g>
</g>
<!-- Node6&#45;&gt;Node4 -->
<g id="edge9_Node000006_Node000004" class="edge">
<title>Node6&#45;&gt;Node4</title>
<g id="a_edge9_Node000006_Node000004"><a xlink:title=" ">
<path fill="none" stroke="#63b8ff" stroke-width="2" d="M268.49,-125.23C263.63,-109.96 254.52,-83.71 243.32,-62.75 238.66,-54.01 232.68,-44.98 227.04,-37.13"/>
<polygon fill="#63b8ff" stroke="#63b8ff" stroke-width="2" points="229.24,-34.89 220.46,-28.96 223.63,-39.07 229.24,-34.89"/>
</a>
</g>
</g>
<!-- Node7&#45;&gt;Node3 -->
<g id="edge13_Node000007_Node000003" class="edge">
<title>Node7&#45;&gt;Node3</title>
<g id="a_edge13_Node000007_Node000003"><a xlink:title=" ">
<path fill="none" stroke="#63b8ff" stroke-width="2" d="M99.31,-187.83C101.17,-171.68 106.44,-143.81 121.32,-125.5 134.49,-109.31 154.57,-97.69 172.23,-89.9"/>
<polygon fill="#63b8ff" stroke="#63b8ff" stroke-width="2" points="174.3,-93.02 182.24,-86 171.66,-86.53 174.3,-93.02"/>
</a>
</g>
</g>
<!-- Node8 -->
<g id="Node000008" class="node">
<title>Node8</title>
<g id="a_Node000008"><a xlink:title=" ">
<polygon fill="#e0e0e0" stroke="#999999" points="74.2,-152.25 12.45,-152.25 12.45,-125.5 74.2,-125.5 74.2,-152.25"/>
<text text-anchor="middle" x="43.32" y="-133.05" font-family="Helvetica,sans-Serif" font-size="16.00">form.h</text>
</a>
</g>
</g>
<!-- Node7&#45;&gt;Node8 -->
<g id="edge14_Node000007_Node000008" class="edge">
<title>Node7&#45;&gt;Node8</title>
<g id="a_edge14_Node000007_Node000008"><a xlink:title=" ">
<path fill="none" stroke="#63b8ff" stroke-width="2" d="M86.93,-188.04C80.14,-180.54 71.34,-170.82 63.42,-162.07"/>
<polygon fill="#63b8ff" stroke="#63b8ff" stroke-width="2" points="66.01,-159.51 56.7,-154.45 60.82,-164.21 66.01,-159.51"/>
</a>
</g>
</g>
</g>
</svg>
