<?xml version="1.0" encoding="UTF-8" standalone="no"?>
<!DOCTYPE svg PUBLIC "-//W3C//DTD SVG 1.1//EN"
 "http://www.w3.org/Graphics/SVG/1.1/DTD/svg11.dtd">
<!-- Generated by graphviz version 8.0.5 (0)
 -->
<!-- Title: ListNode Pages: 1 -->
<svg width="213pt" height="78pt"
 viewBox="0.00 0.00 212.75 78.00" xmlns="http://www.w3.org/2000/svg" xmlns:xlink="http://www.w3.org/1999/xlink">
<g id="graph0" class="graph" transform="scale(1 1) rotate(0) translate(4 74)">
<title>ListNode</title>
<!-- Node1 -->
<g id="Node000001" class="node">
<title>Node1</title>
<g id="a_Node000001"><a xlink:title="Doubly linked list node.">
<polygon fill="#999999" stroke="none" points="120,-70 0,-70 0,0 120,0 120,-70"/>
<text text-anchor="start" x="28.12" y="-50.8" font-family="Helvetica,sans-Serif" font-size="16.00">ListNode</text>
<text text-anchor="start" x="4" y="-28.8" font-family="Helvetica,sans-Serif" font-size="16.00">+</text>
<text text-anchor="start" x="17" y="-28.8" font-family="Helvetica,sans-Serif" font-size="16.00">void * m_data</text>
<text text-anchor="start" x="57.75" y="-6.8" font-family="Helvetica,sans-Serif" font-size="16.00"> </text>
<polygon fill="#666666" stroke="#666666" points="0,-46 0,-46 120,-46 120,-46 0,-46"/>
<polygon fill="#666666" stroke="#666666" points="0,-24 0,-24 15,-24 15,-24 0,-24"/>
<polygon fill="#666666" stroke="#666666" points="15,-24 15,-24 120,-24 120,-24 15,-24"/>
<polygon fill="none" stroke="#666666" points="0,0 0,-70 120,-70 120,0 0,0"/>
</a>
</g>
</g>
<!-- Node1&#45;&gt;Node1 -->
<g id="edge1_Node000001_Node000001" class="edge">
<title>Node1&#45;&gt;Node1</title>
<g id="a_edge1_Node000001_Node000001"><a xlink:title=" ">
<path fill="none" stroke="#63b8ff" stroke-width="2" d="M119.85,-47.36C130.53,-45.75 138,-41.63 138,-35 138,-31.68 136.13,-29 132.93,-26.94"/>
<polygon fill="none" stroke="#63b8ff" stroke-width="2" points="132.96,-26.95 126.01,-28.88 121.56,-23.21 128.51,-21.28 132.96,-26.95"/>
</a>
</g>
<text text-anchor="middle" x="171.38" y="-38.55" font-family="Helvetica,sans-Serif" font-size="16.00" fill="grey"> +m_next</text>
<text text-anchor="middle" x="171.38" y="-19.8" font-family="Helvetica,sans-Serif" font-size="16.00" fill="grey">+m_prev</text>
</g>
</g>
</svg>
