<?xml version="1.0" encoding="UTF-8" standalone="no"?>
<!DOCTYPE svg PUBLIC "-//W3C//DTD SVG 1.1//EN"
 "http://www.w3.org/Graphics/SVG/1.1/DTD/svg11.dtd">
<!-- Generated by graphviz version 8.0.5 (0)
 -->
<!-- Title: listGetBack Pages: 1 -->
<svg width="584pt" height="56pt"
 viewBox="0.00 0.00 583.50 55.75" xmlns="http://www.w3.org/2000/svg" xmlns:xlink="http://www.w3.org/1999/xlink">
<g id="graph0" class="graph" transform="scale(1 1) rotate(0) translate(4 51.75)">
<title>listGetBack</title>
<!-- Node1 -->
<g id="Node000001" class="node">
<title>Node1</title>
<g id="a_Node000001"><a xlink:title="Returns pointer to the last element of list.">
<polygon fill="#999999" stroke="#666666" points="575.5,-26.75 477,-26.75 477,0 575.5,0 575.5,-26.75"/>
<text text-anchor="middle" x="526.25" y="-7.55" font-family="Helvetica,sans-Serif" font-size="16.00">listGetBack</text>
</a>
</g>
</g>
<!-- Node2 -->
<g id="Node000002" class="node">
<title>Node2</title>
<g id="a_Node000002"><a xlink:href="../../d7/d40/list_8c.html#afa2a7a1a43bfe8cfafd663b2739b0e2e" target="_top" xlink:title="Removes ListNode from List.">
<polygon fill="white" stroke="#666666" points="441,-47.75 320,-47.75 320,-21 441,-21 441,-47.75"/>
<text text-anchor="middle" x="380.5" y="-28.55" font-family="Helvetica,sans-Serif" font-size="16.00">listDeleteNode</text>
</a>
</g>
</g>
<!-- Node1&#45;&gt;Node2 -->
<g id="edge1_Node000001_Node000002" class="edge">
<title>Node1&#45;&gt;Node2</title>
<g id="a_edge1_Node000001_Node000002"><a xlink:title=" ">
<path fill="none" stroke="#63b8ff" stroke-width="2" d="M463.83,-22.35C456.37,-23.44 448.77,-24.55 441.34,-25.63"/>
<polygon fill="#63b8ff" stroke="#63b8ff" stroke-width="2" points="465.19,-25.39 474.58,-20.48 464.18,-18.47 465.19,-25.39"/>
</a>
</g>
</g>
<!-- Node3 -->
<g id="Node000003" class="node">
<title>Node3</title>
<g id="a_Node000003"><a xlink:href="../../d7/dba/menuutil_8c.html#a6229d06cea0b18a996e9f378719c56bb" target="_top" xlink:title="frees internal List of listView.">
<polygon fill="white" stroke="#666666" points="284,-26.75 154.75,-26.75 154.75,0 284,0 284,-26.75"/>
<text text-anchor="middle" x="219.38" y="-7.55" font-family="Helvetica,sans-Serif" font-size="16.00">listViewFreeList</text>
</a>
</g>
</g>
<!-- Node1&#45;&gt;Node3 -->
<g id="edge4_Node000001_Node000003" class="edge">
<title>Node1&#45;&gt;Node3</title>
<g id="a_edge4_Node000001_Node000003"><a xlink:title=" ">
<path fill="none" stroke="#63b8ff" stroke-width="2" d="M463.87,-12.56C456.17,-12.48 448.4,-12.42 441,-12.38 387.22,-12.06 373.78,-12.11 320,-12.38 308.5,-12.43 296.25,-12.53 284.42,-12.64"/>
<polygon fill="#63b8ff" stroke="#63b8ff" stroke-width="2" points="463.65,-16.09 473.69,-12.7 463.73,-9.09 463.65,-16.09"/>
</a>
</g>
</g>
<!-- Node2&#45;&gt;Node3 -->
<g id="edge2_Node000002_Node000003" class="edge">
<title>Node2&#45;&gt;Node3</title>
<g id="a_edge2_Node000002_Node000003"><a xlink:title=" ">
<path fill="none" stroke="#63b8ff" stroke-width="2" d="M307.16,-24.83C299.57,-23.83 291.89,-22.81 284.41,-21.83"/>
<polygon fill="#63b8ff" stroke="#63b8ff" stroke-width="2" points="306.42,-28.66 316.79,-26.5 307.34,-21.72 306.42,-28.66"/>
</a>
</g>
</g>
<!-- Node4 -->
<g id="Node000004" class="node">
<title>Node4</title>
<g id="a_Node000004"><a xlink:href="../../d7/dba/menuutil_8c.html#aca301edf9d04aa391571851b148355ba" target="_top" xlink:title="List Viewer for lists.">
<polygon fill="#fff0f0" stroke="red" points="118.75,-26.75 0,-26.75 0,0 118.75,0 118.75,-26.75"/>
<text text-anchor="middle" x="59.38" y="-7.55" font-family="Helvetica,sans-Serif" font-size="16.00">listViewInvoke</text>
</a>
</g>
</g>
<!-- Node3&#45;&gt;Node4 -->
<g id="edge3_Node000003_Node000004" class="edge">
<title>Node3&#45;&gt;Node4</title>
<g id="a_edge3_Node000003_Node000004"><a xlink:title=" ">
<path fill="none" stroke="#63b8ff" stroke-width="2" d="M141.79,-13.38C134.15,-13.38 126.47,-13.38 119.06,-13.38"/>
<polygon fill="#63b8ff" stroke="#63b8ff" stroke-width="2" points="141.57,-16.88 151.57,-13.38 141.57,-9.88 141.57,-16.88"/>
</a>
</g>
</g>
</g>
</svg>
