<?xml version="1.0" encoding="UTF-8" standalone="no"?>
<!DOCTYPE svg PUBLIC "-//W3C//DTD SVG 1.1//EN"
 "http://www.w3.org/Graphics/SVG/1.1/DTD/svg11.dtd">
<!-- Generated by graphviz version 8.0.5 (0)
 -->
<!-- Title: listCreateNode Pages: 1 -->
<svg width="681pt" height="170pt"
 viewBox="0.00 0.00 681.00 169.75" xmlns="http://www.w3.org/2000/svg" xmlns:xlink="http://www.w3.org/1999/xlink">
<g id="graph0" class="graph" transform="scale(1 1) rotate(0) translate(4 165.75)">
<title>listCreateNode</title>
<!-- Node1 -->
<g id="Node000001" class="node">
<title>Node1</title>
<g id="a_Node000001"><a xlink:title="Instantiates ListNode containing pointer to data.">
<polygon fill="#999999" stroke="#666666" points="673,-116.75 550.5,-116.75 550.5,-90 673,-90 673,-116.75"/>
<text text-anchor="middle" x="611.75" y="-97.55" font-family="Helvetica,sans-Serif" font-size="16.00">listCreateNode</text>
</a>
</g>
</g>
<!-- Node2 -->
<g id="Node000002" class="node">
<title>Node2</title>
<g id="a_Node000002"><a xlink:href="../../d7/d40/list_8c.html#a3bd03e1f6cdb15cc517ab74d2dd77cc0" target="_top" xlink:title="Inserts data into list before given node.">
<polygon fill="white" stroke="#666666" points="514.5,-161.75 390.5,-161.75 390.5,-135 514.5,-135 514.5,-161.75"/>
<text text-anchor="middle" x="452.5" y="-142.55" font-family="Helvetica,sans-Serif" font-size="16.00">listInsertBefore</text>
</a>
</g>
</g>
<!-- Node1&#45;&gt;Node2 -->
<g id="edge1_Node000001_Node000002" class="edge">
<title>Node1&#45;&gt;Node2</title>
<g id="a_edge1_Node000001_Node000002"><a xlink:title=" ">
<path fill="none" stroke="#63b8ff" stroke-width="2" d="M549.8,-120.82C533.89,-125.37 516.96,-130.22 501.8,-134.55"/>
<polygon fill="#63b8ff" stroke="#63b8ff" stroke-width="2" points="551.64,-123.36 560.29,-117.24 549.71,-116.63 551.64,-123.36"/>
</a>
</g>
</g>
<!-- Node4 -->
<g id="Node000004" class="node">
<title>Node4</title>
<g id="a_Node000004"><a xlink:href="../../d7/d40/list_8c.html#a339df7b81560e9469a44d37ad966870f" target="_top" xlink:title="Adds item at the end of list.">
<polygon fill="white" stroke="#666666" points="507,-71.75 398,-71.75 398,-45 507,-45 507,-71.75"/>
<text text-anchor="middle" x="452.5" y="-52.55" font-family="Helvetica,sans-Serif" font-size="16.00">listPushBack</text>
</a>
</g>
</g>
<!-- Node1&#45;&gt;Node4 -->
<g id="edge3_Node000001_Node000004" class="edge">
<title>Node1&#45;&gt;Node4</title>
<g id="a_edge3_Node000001_Node000004"><a xlink:title=" ">
<path fill="none" stroke="#63b8ff" stroke-width="2" d="M549.8,-85.93C533.89,-81.38 516.96,-76.53 501.8,-72.2"/>
<polygon fill="#63b8ff" stroke="#63b8ff" stroke-width="2" points="549.71,-90.12 560.29,-89.51 551.64,-83.39 549.71,-90.12"/>
</a>
</g>
</g>
<!-- Node24 -->
<g id="Node000024" class="node">
<title>Node24</title>
<g id="a_Node000024"><a xlink:href="../../d7/d40/list_8c.html#ae5a76f57095bcfcc6b02eeb6785d5eeb" target="_top" xlink:title="Adds item at the front of list.">
<polygon fill="white" stroke="#666666" points="507.75,-116.75 397.25,-116.75 397.25,-90 507.75,-90 507.75,-116.75"/>
<text text-anchor="middle" x="452.5" y="-97.55" font-family="Helvetica,sans-Serif" font-size="16.00">listPushFront</text>
</a>
</g>
</g>
<!-- Node1&#45;&gt;Node24 -->
<g id="edge9_Node000001_Node000024" class="edge">
<title>Node1&#45;&gt;Node24</title>
<g id="a_edge9_Node000001_Node000024"><a xlink:title=" ">
<path fill="none" stroke="#63b8ff" stroke-width="2" d="M537.48,-103.38C527.57,-103.38 517.53,-103.38 508.02,-103.38"/>
<polygon fill="#63b8ff" stroke="#63b8ff" stroke-width="2" points="537.4,-106.88 547.4,-103.38 537.4,-99.88 537.4,-106.88"/>
</a>
</g>
</g>
<!-- Node3 -->
<g id="Node000003" class="node">
<title>Node3</title>
<g id="a_Node000003"><a xlink:href="../../d7/d40/list_8c.html#ab7795a44b989e068670f6c726c519287" target="_top" xlink:title="Inserts data in list at appropriate positon so that list remains sorted.">
<polygon fill="white" stroke="#666666" points="286.62,-116.75 209.88,-116.75 209.88,-90 286.62,-90 286.62,-116.75"/>
<text text-anchor="middle" x="248.25" y="-97.55" font-family="Helvetica,sans-Serif" font-size="16.00">listInsert</text>
</a>
</g>
</g>
<!-- Node2&#45;&gt;Node3 -->
<g id="edge2_Node000002_Node000003" class="edge">
<title>Node2&#45;&gt;Node3</title>
<g id="a_edge2_Node000002_Node000003"><a xlink:title=" ">
<path fill="none" stroke="#63b8ff" stroke-width="2" d="M377.79,-131.97C347.01,-125.13 312.56,-117.46 287.08,-111.79"/>
<polygon fill="#63b8ff" stroke="#63b8ff" stroke-width="2" points="377.75,-136 388.27,-134.75 379.27,-129.16 377.75,-136"/>
</a>
</g>
</g>
<!-- Node4&#45;&gt;Node3 -->
<g id="edge8_Node000004_Node000003" class="edge">
<title>Node4&#45;&gt;Node3</title>
<g id="a_edge8_Node000004_Node000003"><a xlink:title=" ">
<path fill="none" stroke="#63b8ff" stroke-width="2" d="M385.25,-73.47C374.96,-75.8 364.45,-78.16 354.5,-80.38 332.04,-85.38 306.87,-90.88 286.77,-95.25"/>
<polygon fill="#63b8ff" stroke="#63b8ff" stroke-width="2" points="386.66,-76.29 395.64,-70.67 385.12,-69.46 386.66,-76.29"/>
</a>
</g>
</g>
<!-- Node5 -->
<g id="Node000005" class="node">
<title>Node5</title>
<g id="a_Node000005"><a xlink:href="../../d5/df2/car_8c.html#a2337951b2ae65cc121c20255a2179ad2" target="_top" xlink:title="CallBack function for dbHandleGetResultAsList. Transforms row into Car.">
<polygon fill="white" stroke="#666666" points="346.62,-71.75 149.88,-71.75 149.88,-45 346.62,-45 346.62,-71.75"/>
<text text-anchor="middle" x="248.25" y="-52.55" font-family="Helvetica,sans-Serif" font-size="16.00">carGetListQueryCallback</text>
</a>
</g>
</g>
<!-- Node4&#45;&gt;Node5 -->
<g id="edge4_Node000004_Node000005" class="edge">
<title>Node4&#45;&gt;Node5</title>
<g id="a_edge4_Node000004_Node000005"><a xlink:title=" ">
<path fill="none" stroke="#63b8ff" stroke-width="2" d="M384.7,-58.38C372.53,-58.38 359.61,-58.38 346.77,-58.38"/>
<polygon fill="#63b8ff" stroke="#63b8ff" stroke-width="2" points="384.57,-61.88 394.57,-58.38 384.57,-54.88 384.57,-61.88"/>
</a>
</g>
</g>
<!-- Node18 -->
<g id="Node000018" class="node">
<title>Node18</title>
<g id="a_Node000018"><a xlink:href="../../dd/d93/client_8c.html#a903cc00cfe46a85c92b09861aba1f26c" target="_top" xlink:title="CallBack function for dbHandleGetResultAsList . Transforms row into Client.">
<polygon fill="white" stroke="#666666" points="354.5,-26.75 142,-26.75 142,0 354.5,0 354.5,-26.75"/>
<text text-anchor="middle" x="248.25" y="-7.55" font-family="Helvetica,sans-Serif" font-size="16.00">clientGetListQueryCallback</text>
</a>
</g>
</g>
<!-- Node4&#45;&gt;Node18 -->
<g id="edge6_Node000004_Node000018" class="edge">
<title>Node4&#45;&gt;Node18</title>
<g id="a_edge6_Node000004_Node000018"><a xlink:title=" ">
<path fill="none" stroke="#63b8ff" stroke-width="2" d="M385.25,-43.28C374.96,-40.95 364.45,-38.59 354.5,-36.38 341.08,-33.39 326.69,-30.22 313,-27.22"/>
<polygon fill="#63b8ff" stroke="#63b8ff" stroke-width="2" points="385.12,-47.29 395.64,-46.08 386.66,-40.46 385.12,-47.29"/>
</a>
</g>
</g>
<!-- Node6 -->
<g id="Node000006" class="node">
<title>Node6</title>
<g id="a_Node000006"><a xlink:href="../../d5/df2/car_8c.html#ad946b04e98242aa73d41af8cd6963335" target="_top" xlink:title="Get list of cars.">
<polygon fill="#fff0f0" stroke="red" points="98.12,-71.75 7.88,-71.75 7.88,-45 98.12,-45 98.12,-71.75"/>
<text text-anchor="middle" x="53" y="-52.55" font-family="Helvetica,sans-Serif" font-size="16.00">carGetList</text>
</a>
</g>
</g>
<!-- Node5&#45;&gt;Node6 -->
<g id="edge5_Node000005_Node000006" class="edge">
<title>Node5&#45;&gt;Node6</title>
<g id="a_edge5_Node000005_Node000006"><a xlink:title=" ">
<path fill="none" stroke="#63b8ff" stroke-width="2" d="M136.89,-58.38C123.26,-58.38 109.99,-58.38 98.21,-58.38"/>
<polygon fill="#63b8ff" stroke="#63b8ff" stroke-width="2" points="136.49,-61.88 146.49,-58.38 136.49,-54.88 136.49,-61.88"/>
</a>
</g>
</g>
<!-- Node19 -->
<g id="Node000019" class="node">
<title>Node19</title>
<g id="a_Node000019"><a xlink:href="../../dd/d93/client_8c.html#ae9344815031f09e5f54986014cea5f29" target="_top" xlink:title="Get list of clients.">
<polygon fill="#fff0f0" stroke="red" points="106,-26.75 0,-26.75 0,0 106,0 106,-26.75"/>
<text text-anchor="middle" x="53" y="-7.55" font-family="Helvetica,sans-Serif" font-size="16.00">clientGetList</text>
</a>
</g>
</g>
<!-- Node18&#45;&gt;Node19 -->
<g id="edge7_Node000018_Node000019" class="edge">
<title>Node18&#45;&gt;Node19</title>
<g id="a_edge7_Node000018_Node000019"><a xlink:title=" ">
<path fill="none" stroke="#63b8ff" stroke-width="2" d="M128.58,-13.38C120.94,-13.38 113.5,-13.38 106.46,-13.38"/>
<polygon fill="#63b8ff" stroke="#63b8ff" stroke-width="2" points="128.58,-16.88 138.58,-13.38 128.58,-9.88 128.58,-16.88"/>
</a>
</g>
</g>
<!-- Node24&#45;&gt;Node3 -->
<g id="edge10_Node000024_Node000003" class="edge">
<title>Node24&#45;&gt;Node3</title>
<g id="a_edge10_Node000024_Node000003"><a xlink:title=" ">
<path fill="none" stroke="#63b8ff" stroke-width="2" d="M383.78,-103.38C351.54,-103.38 314.21,-103.38 287.06,-103.38"/>
<polygon fill="#63b8ff" stroke="#63b8ff" stroke-width="2" points="383.77,-106.88 393.77,-103.38 383.77,-99.88 383.77,-106.88"/>
</a>
</g>
</g>
</g>
</svg>
