<?xml version="1.0" encoding="UTF-8" standalone="no"?>
<!DOCTYPE svg PUBLIC "-//W3C//DTD SVG 1.1//EN"
 "http://www.w3.org/Graphics/SVG/1.1/DTD/svg11.dtd">
<!-- Generated by graphviz version 8.0.5 (0)
 -->
<!-- Title: listInsert Pages: 1 -->
<svg width="403pt" height="125pt"
 viewBox="0.00 0.00 403.25 124.75" xmlns="http://www.w3.org/2000/svg" xmlns:xlink="http://www.w3.org/1999/xlink">
<g id="graph0" class="graph" transform="scale(1 1) rotate(0) translate(4 120.75)">
<title>listInsert</title>
<!-- Node1 -->
<g id="Node000001" class="node">
<title>Node1</title>
<g id="a_Node000001"><a xlink:title="Inserts data in list at appropriate positon so that list remains sorted.">
<polygon fill="#999999" stroke="#666666" points="76.75,-71.75 0,-71.75 0,-45 76.75,-45 76.75,-71.75"/>
<text text-anchor="middle" x="38.38" y="-52.55" font-family="Helvetica,sans-Serif" font-size="16.00">listInsert</text>
</a>
</g>
</g>
<!-- Node2 -->
<g id="Node000002" class="node">
<title>Node2</title>
<g id="a_Node000002"><a xlink:href="../../d7/d40/list_8c.html#a3bd03e1f6cdb15cc517ab74d2dd77cc0" target="_top" xlink:title="Inserts data into list before given node.">
<polygon fill="white" stroke="#666666" points="236.75,-116.75 112.75,-116.75 112.75,-90 236.75,-90 236.75,-116.75"/>
<text text-anchor="middle" x="174.75" y="-97.55" font-family="Helvetica,sans-Serif" font-size="16.00">listInsertBefore</text>
</a>
</g>
</g>
<!-- Node1&#45;&gt;Node2 -->
<g id="edge1_Node000001_Node000002" class="edge">
<title>Node1&#45;&gt;Node2</title>
<g id="a_edge1_Node000001_Node000002"><a xlink:title=" ">
<path fill="none" stroke="#63b8ff" stroke-width="2" d="M77.16,-71.03C90.63,-75.54 106.05,-80.7 120.57,-85.56"/>
<polygon fill="#63b8ff" stroke="#63b8ff" stroke-width="2" points="119.88,-89.7 130.48,-89.55 122.11,-83.06 119.88,-89.7"/>
</a>
</g>
</g>
<!-- Node4 -->
<g id="Node000004" class="node">
<title>Node4</title>
<g id="a_Node000004"><a xlink:href="../../d7/d40/list_8c.html#a339df7b81560e9469a44d37ad966870f" target="_top" xlink:title="Adds item at the end of list.">
<polygon fill="white" stroke="#666666" points="229.25,-71.75 120.25,-71.75 120.25,-45 229.25,-45 229.25,-71.75"/>
<text text-anchor="middle" x="174.75" y="-52.55" font-family="Helvetica,sans-Serif" font-size="16.00">listPushBack</text>
</a>
</g>
</g>
<!-- Node1&#45;&gt;Node4 -->
<g id="edge3_Node000001_Node000004" class="edge">
<title>Node1&#45;&gt;Node4</title>
<g id="a_edge3_Node000001_Node000004"><a xlink:title=" ">
<path fill="none" stroke="#63b8ff" stroke-width="2" d="M77.16,-58.38C86.5,-58.38 96.77,-58.38 107.03,-58.38"/>
<polygon fill="#63b8ff" stroke="#63b8ff" stroke-width="2" points="106.95,-61.88 116.95,-58.38 106.95,-54.88 106.95,-61.88"/>
</a>
</g>
</g>
<!-- Node5 -->
<g id="Node000005" class="node">
<title>Node5</title>
<g id="a_Node000005"><a xlink:href="../../d7/d40/list_8c.html#ae5a76f57095bcfcc6b02eeb6785d5eeb" target="_top" xlink:title="Adds item at the front of list.">
<polygon fill="white" stroke="#666666" points="230,-26.75 119.5,-26.75 119.5,0 230,0 230,-26.75"/>
<text text-anchor="middle" x="174.75" y="-7.55" font-family="Helvetica,sans-Serif" font-size="16.00">listPushFront</text>
</a>
</g>
</g>
<!-- Node1&#45;&gt;Node5 -->
<g id="edge5_Node000001_Node000005" class="edge">
<title>Node1&#45;&gt;Node5</title>
<g id="a_edge5_Node000001_Node000005"><a xlink:title=" ">
<path fill="none" stroke="#63b8ff" stroke-width="2" d="M77.16,-45.72C90.63,-41.21 106.05,-36.05 120.57,-31.19"/>
<polygon fill="#63b8ff" stroke="#63b8ff" stroke-width="2" points="122.11,-33.69 130.48,-27.2 119.88,-27.05 122.11,-33.69"/>
</a>
</g>
</g>
<!-- Node3 -->
<g id="Node000003" class="node">
<title>Node3</title>
<g id="a_Node000003"><a xlink:href="../../d7/d40/list_8c.html#ab3906daba38e516a6c2bd15bfa3042db" target="_top" xlink:title="Instantiates ListNode containing pointer to data.">
<polygon fill="white" stroke="#666666" points="395.25,-71.75 272.75,-71.75 272.75,-45 395.25,-45 395.25,-71.75"/>
<text text-anchor="middle" x="334" y="-52.55" font-family="Helvetica,sans-Serif" font-size="16.00">listCreateNode</text>
</a>
</g>
</g>
<!-- Node2&#45;&gt;Node3 -->
<g id="edge2_Node000002_Node000003" class="edge">
<title>Node2&#45;&gt;Node3</title>
<g id="a_edge2_Node000002_Node000003"><a xlink:title=" ">
<path fill="none" stroke="#63b8ff" stroke-width="2" d="M224.21,-89.51C239.38,-85.17 256.31,-80.32 272.22,-75.77"/>
<polygon fill="#63b8ff" stroke="#63b8ff" stroke-width="2" points="274.05,-78.31 282.7,-72.2 272.12,-71.58 274.05,-78.31"/>
</a>
</g>
</g>
<!-- Node4&#45;&gt;Node3 -->
<g id="edge4_Node000004_Node000003" class="edge">
<title>Node4&#45;&gt;Node3</title>
<g id="a_edge4_Node000004_Node000003"><a xlink:title=" ">
<path fill="none" stroke="#63b8ff" stroke-width="2" d="M229.43,-58.38C239.12,-58.38 249.38,-58.38 259.53,-58.38"/>
<polygon fill="#63b8ff" stroke="#63b8ff" stroke-width="2" points="259.27,-61.88 269.27,-58.38 259.27,-54.88 259.27,-61.88"/>
</a>
</g>
</g>
<!-- Node5&#45;&gt;Node3 -->
<g id="edge6_Node000005_Node000003" class="edge">
<title>Node5&#45;&gt;Node3</title>
<g id="a_edge6_Node000005_Node000003"><a xlink:title=" ">
<path fill="none" stroke="#63b8ff" stroke-width="2" d="M224.21,-27.24C239.38,-31.58 256.31,-36.43 272.22,-40.98"/>
<polygon fill="#63b8ff" stroke="#63b8ff" stroke-width="2" points="272.12,-45.17 282.7,-44.55 274.05,-38.44 272.12,-45.17"/>
</a>
</g>
</g>
</g>
</svg>
