<?xml version="1.0" encoding="UTF-8" standalone="no"?>
<!DOCTYPE svg PUBLIC "-//W3C//DTD SVG 1.1//EN"
 "http://www.w3.org/Graphics/SVG/1.1/DTD/svg11.dtd">
<!-- Generated by graphviz version 8.0.5 (0)
 -->
<!-- Title: clientNew Pages: 1 -->
<svg width="1082pt" height="162pt"
 viewBox="0.00 0.00 1081.50 161.75" xmlns="http://www.w3.org/2000/svg" xmlns:xlink="http://www.w3.org/1999/xlink">
<g id="graph0" class="graph" transform="scale(1 1) rotate(0) translate(4 157.75)">
<title>clientNew</title>
<!-- Node1 -->
<g id="Node000001" class="node">
<title>Node1</title>
<g id="a_Node000001"><a xlink:title="Allocates and returns client containing nothing.">
<polygon fill="#999999" stroke="#666666" points="1073.5,-102.75 987.75,-102.75 987.75,-76 1073.5,-76 1073.5,-102.75"/>
<text text-anchor="middle" x="1030.62" y="-83.55" font-family="Helvetica,sans-Serif" font-size="16.00">clientNew</text>
</a>
</g>
</g>
<!-- Node2 -->
<g id="Node000002" class="node">
<title>Node2</title>
<g id="a_Node000002"><a xlink:href="../../da/de9/clientsmenu_8c.html#a37a5ed3b8a63a9497f34682ce7db3126" target="_top" xlink:title="function for adding client;">
<polygon fill="white" stroke="#666666" points="548.5,-153.75 464.25,-153.75 464.25,-127 548.5,-127 548.5,-153.75"/>
<text text-anchor="middle" x="506.38" y="-134.55" font-family="Helvetica,sans-Serif" font-size="16.00">addClient</text>
</a>
</g>
</g>
<!-- Node1&#45;&gt;Node2 -->
<g id="edge1_Node000001_Node000002" class="edge">
<title>Node1&#45;&gt;Node2</title>
<g id="a_edge1_Node000001_Node000002"><a xlink:title=" ">
<path fill="none" stroke="#63b8ff" stroke-width="2" d="M975.12,-106.33C967.34,-108.3 959.38,-110.06 951.75,-111.38 805.07,-136.59 627.72,-140.28 548.76,-140.56"/>
<polygon fill="#63b8ff" stroke="#63b8ff" stroke-width="2" points="976.8,-108.97 985.56,-103 974.99,-102.21 976.8,-108.97"/>
</a>
</g>
</g>
<!-- Node10 -->
<g id="Node000010" class="node">
<title>Node10</title>
<g id="a_Node000010"><a xlink:href="../../dd/d93/client_8c.html#ad02c9ee4fe2e382b42ce897135f738af" target="_top" xlink:title="make Clone of Client. It allocates memory internaly.">
<polygon fill="white" stroke="#666666" points="893.62,-102.75 797.38,-102.75 797.38,-76 893.62,-76 893.62,-102.75"/>
<text text-anchor="middle" x="845.5" y="-83.55" font-family="Helvetica,sans-Serif" font-size="16.00">clientClone</text>
</a>
</g>
</g>
<!-- Node1&#45;&gt;Node10 -->
<g id="edge4_Node000001_Node000010" class="edge">
<title>Node1&#45;&gt;Node10</title>
<g id="a_edge4_Node000001_Node000010"><a xlink:title=" ">
<path fill="none" stroke="#63b8ff" stroke-width="2" d="M974.62,-89.38C948.87,-89.38 918.5,-89.38 893.8,-89.38"/>
<polygon fill="#63b8ff" stroke="#63b8ff" stroke-width="2" points="974.61,-92.88 984.61,-89.38 974.61,-85.88 974.61,-92.88"/>
</a>
</g>
</g>
<!-- Node16 -->
<g id="Node000016" class="node">
<title>Node16</title>
<g id="a_Node000016"><a xlink:href="../../dd/d93/client_8c.html#a903cc00cfe46a85c92b09861aba1f26c" target="_top" xlink:title="CallBack function for dbHandleGetResultAsList . Transforms row into Client.">
<polygon fill="white" stroke="#666666" points="951.75,-37.75 739.25,-37.75 739.25,-11 951.75,-11 951.75,-37.75"/>
<text text-anchor="middle" x="845.5" y="-18.55" font-family="Helvetica,sans-Serif" font-size="16.00">clientGetListQueryCallback</text>
</a>
</g>
</g>
<!-- Node1&#45;&gt;Node16 -->
<g id="edge10_Node000001_Node000016" class="edge">
<title>Node1&#45;&gt;Node16</title>
<g id="a_edge10_Node000001_Node000016"><a xlink:title=" ">
<path fill="none" stroke="#63b8ff" stroke-width="2" d="M978.61,-71.27C949.06,-60.78 912.46,-47.79 885.28,-38.14"/>
<polygon fill="#63b8ff" stroke="#63b8ff" stroke-width="2" points="978.19,-74.54 988.79,-74.59 980.54,-67.95 978.19,-74.54"/>
</a>
</g>
</g>
<!-- Node3 -->
<g id="Node000003" class="node">
<title>Node3</title>
<g id="a_Node000003"><a xlink:href="../../da/de9/clientsmenu_8c.html#ad2a8354e045a2d4deb82f4b3b20ad5a4" target="_top" xlink:title="Handles displaying of clients menu.">
<polygon fill="white" stroke="#666666" points="297.5,-132.75 194.5,-132.75 194.5,-106 297.5,-106 297.5,-132.75"/>
<text text-anchor="middle" x="246" y="-113.55" font-family="Helvetica,sans-Serif" font-size="16.00">clientsMenu</text>
</a>
</g>
</g>
<!-- Node2&#45;&gt;Node3 -->
<g id="edge2_Node000002_Node000003" class="edge">
<title>Node2&#45;&gt;Node3</title>
<g id="a_edge2_Node000002_Node000003"><a xlink:title=" ">
<path fill="none" stroke="#63b8ff" stroke-width="2" d="M451.05,-135.96C405.83,-132.28 341.92,-127.09 297.73,-123.5"/>
<polygon fill="#63b8ff" stroke="#63b8ff" stroke-width="2" points="450.61,-139.68 460.86,-137 451.18,-132.7 450.61,-139.68"/>
</a>
</g>
</g>
<!-- Node4 -->
<g id="Node000004" class="node">
<title>Node4</title>
<g id="a_Node000004"><a xlink:href="../../de/dc9/mmenu_8c.html#a315bc1f41a79da39147ec73e38cfc9e7" target="_top" xlink:title="Handles main menu.">
<polygon fill="#fff0f0" stroke="red" points="158.5,-132.75 0,-132.75 0,-106 158.5,-106 158.5,-132.75"/>
<text text-anchor="middle" x="79.25" y="-113.55" font-family="Helvetica,sans-Serif" font-size="16.00">mainMenuSelection</text>
</a>
</g>
</g>
<!-- Node3&#45;&gt;Node4 -->
<g id="edge3_Node000003_Node000004" class="edge">
<title>Node3&#45;&gt;Node4</title>
<g id="a_edge3_Node000003_Node000004"><a xlink:title=" ">
<path fill="none" stroke="#63b8ff" stroke-width="2" d="M181.23,-119.38C173.86,-119.38 166.27,-119.38 158.73,-119.38"/>
<polygon fill="#63b8ff" stroke="#63b8ff" stroke-width="2" points="181.23,-122.88 191.23,-119.38 181.23,-115.88 181.23,-122.88"/>
</a>
</g>
</g>
<!-- Node11 -->
<g id="Node000011" class="node">
<title>Node11</title>
<g id="a_Node000011"><a xlink:href="../../da/de9/clientsmenu_8c.html#a3785053dd7fa7ee54cb52674dadf5941" target="_top" xlink:title="Edit client.">
<polygon fill="white" stroke="#666666" points="415.5,-112.75 333.5,-112.75 333.5,-86 415.5,-86 415.5,-112.75"/>
<text text-anchor="middle" x="374.5" y="-93.55" font-family="Helvetica,sans-Serif" font-size="16.00">clientEdit</text>
</a>
</g>
</g>
<!-- Node10&#45;&gt;Node11 -->
<g id="edge5_Node000010_Node000011" class="edge">
<title>Node10&#45;&gt;Node11</title>
<g id="a_edge5_Node000010_Node000011"><a xlink:title=" ">
<path fill="none" stroke="#63b8ff" stroke-width="2" d="M784.14,-90.66C686.93,-92.73 498.24,-96.76 415.74,-98.52"/>
<polygon fill="#63b8ff" stroke="#63b8ff" stroke-width="2" points="784.03,-94.1 793.95,-90.39 783.88,-87.1 784.03,-94.1"/>
</a>
</g>
</g>
<!-- Node12 -->
<g id="Node000012" class="node">
<title>Node12</title>
<g id="a_Node000012"><a xlink:href="../../da/de9/clientsmenu_8c.html#a12535dbea3961ee9186a47a4988d2208" target="_top" xlink:title="extract client given ListNode.">
<polygon fill="white" stroke="#666666" points="703.25,-71.75 597.25,-71.75 597.25,-45 703.25,-45 703.25,-71.75"/>
<text text-anchor="middle" x="650.25" y="-52.55" font-family="Helvetica,sans-Serif" font-size="16.00">extractClient</text>
</a>
</g>
</g>
<!-- Node10&#45;&gt;Node12 -->
<g id="edge7_Node000010_Node000012" class="edge">
<title>Node10&#45;&gt;Node12</title>
<g id="a_edge7_Node000010_Node000012"><a xlink:title=" ">
<path fill="none" stroke="#63b8ff" stroke-width="2" d="M784.48,-79.75C758.54,-75.59 728.47,-70.76 703.47,-66.75"/>
<polygon fill="#63b8ff" stroke="#63b8ff" stroke-width="2" points="784.8,-83.66 795.23,-81.79 785.91,-76.75 784.8,-83.66"/>
</a>
</g>
</g>
<!-- Node11&#45;&gt;Node3 -->
<g id="edge6_Node000011_Node000003" class="edge">
<title>Node11&#45;&gt;Node3</title>
<g id="a_edge6_Node000011_Node000003"><a xlink:title=" ">
<path fill="none" stroke="#63b8ff" stroke-width="2" d="M320.33,-107.78C312.82,-108.97 305.12,-110.19 297.65,-111.37"/>
<polygon fill="#63b8ff" stroke="#63b8ff" stroke-width="2" points="321.8,-110.78 331.13,-105.76 320.7,-103.86 321.8,-110.78"/>
</a>
</g>
</g>
<!-- Node13 -->
<g id="Node000013" class="node">
<title>Node13</title>
<g id="a_Node000013"><a xlink:href="../../da/de9/clientsmenu_8c.html#a1d711b31a5a18af01cdd582e537ff921" target="_top" xlink:title="Invokes ListView of clients.">
<polygon fill="#fff0f0" stroke="red" points="561.25,-71.75 451.5,-71.75 451.5,-45 561.25,-45 561.25,-71.75"/>
<text text-anchor="middle" x="506.38" y="-52.55" font-family="Helvetica,sans-Serif" font-size="16.00">clientChoose</text>
</a>
</g>
</g>
<!-- Node12&#45;&gt;Node13 -->
<g id="edge8_Node000012_Node000013" class="edge">
<title>Node12&#45;&gt;Node13</title>
<g id="a_edge8_Node000012_Node000013"><a xlink:title=" ">
<path fill="none" stroke="#63b8ff" stroke-width="2" d="M583.91,-58.38C576.41,-58.38 568.82,-58.38 561.48,-58.38"/>
<polygon fill="#63b8ff" stroke="#63b8ff" stroke-width="2" points="583.82,-61.88 593.82,-58.38 583.82,-54.88 583.82,-61.88"/>
</a>
</g>
</g>
<!-- Node13&#45;&gt;Node11 -->
<g id="edge9_Node000013_Node000011" class="edge">
<title>Node13&#45;&gt;Node11</title>
<g id="a_edge9_Node000013_Node000011"><a xlink:title=" ">
<path fill="none" stroke="#63b8ff" stroke-width="2" d="M449.62,-75.98C438.22,-79.58 426.43,-83.3 415.71,-86.68"/>
<polygon fill="#63b8ff" stroke="#63b8ff" stroke-width="2" points="451.28,-78.49 459.77,-72.14 449.18,-71.81 451.28,-78.49"/>
</a>
</g>
</g>
<!-- Node17 -->
<g id="Node000017" class="node">
<title>Node17</title>
<g id="a_Node000017"><a xlink:href="../../dd/d93/client_8c.html#ae9344815031f09e5f54986014cea5f29" target="_top" xlink:title="Get list of clients.">
<polygon fill="white" stroke="#666666" points="703.25,-26.75 597.25,-26.75 597.25,0 703.25,0 703.25,-26.75"/>
<text text-anchor="middle" x="650.25" y="-7.55" font-family="Helvetica,sans-Serif" font-size="16.00">clientGetList</text>
</a>
</g>
</g>
<!-- Node16&#45;&gt;Node17 -->
<g id="edge11_Node000016_Node000017" class="edge">
<title>Node16&#45;&gt;Node17</title>
<g id="a_edge11_Node000016_Node000017"><a xlink:title=" ">
<path fill="none" stroke="#63b8ff" stroke-width="2" d="M726.11,-17.64C718.37,-17.2 710.84,-16.77 703.71,-16.36"/>
<polygon fill="#63b8ff" stroke="#63b8ff" stroke-width="2" points="725.65,-21.29 735.83,-18.36 726.04,-14.3 725.65,-21.29"/>
</a>
</g>
</g>
<!-- Node17&#45;&gt;Node13 -->
<g id="edge12_Node000017_Node000013" class="edge">
<title>Node17&#45;&gt;Node13</title>
<g id="a_edge12_Node000017_Node000013"><a xlink:title=" ">
<path fill="none" stroke="#63b8ff" stroke-width="2" d="M593.35,-31.11C579.17,-35.6 564.16,-40.36 550.71,-44.63"/>
<polygon fill="#63b8ff" stroke="#63b8ff" stroke-width="2" points="595.05,-33.6 603.53,-27.24 592.93,-26.93 595.05,-33.6"/>
</a>
</g>
</g>
</g>
</svg>
