<?xml version="1.0" encoding="UTF-8" standalone="no"?>
<!DOCTYPE svg PUBLIC "-//W3C//DTD SVG 1.1//EN"
 "http://www.w3.org/Graphics/SVG/1.1/DTD/svg11.dtd">
<!-- Generated by graphviz version 8.0.5 (0)
 -->
<!-- Title: clientGetListQueryCallback Pages: 1 -->
<svg width="524pt" height="80pt"
 viewBox="0.00 0.00 524.00 79.75" xmlns="http://www.w3.org/2000/svg" xmlns:xlink="http://www.w3.org/1999/xlink">
<g id="graph0" class="graph" transform="scale(1 1) rotate(0) translate(4 75.75)">
<title>clientGetListQueryCallback</title>
<!-- Node1 -->
<g id="Node000001" class="node">
<title>Node1</title>
<g id="a_Node000001"><a xlink:title="CallBack function for dbHandleGetResultAsList . Transforms row into Client.">
<polygon fill="#999999" stroke="#666666" points="212.5,-48.75 0,-48.75 0,-22 212.5,-22 212.5,-48.75"/>
<text text-anchor="middle" x="106.25" y="-29.55" font-family="Helvetica,sans-Serif" font-size="16.00">clientGetListQueryCallback</text>
</a>
</g>
</g>
<!-- Node2 -->
<g id="Node000002" class="node">
<title>Node2</title>
<g id="a_Node000002"><a xlink:href="../../dd/d93/client_8c.html#a2ecd1e440fb6f0c7ceb787859a7d284a" target="_top" xlink:title="Allocates and returns client containing nothing.">
<polygon fill="white" stroke="#666666" points="345.88,-71.75 260.12,-71.75 260.12,-45 345.88,-45 345.88,-71.75"/>
<text text-anchor="middle" x="303" y="-52.55" font-family="Helvetica,sans-Serif" font-size="16.00">clientNew</text>
</a>
</g>
</g>
<!-- Node1&#45;&gt;Node2 -->
<g id="edge1_Node000001_Node000002" class="edge">
<title>Node1&#45;&gt;Node2</title>
<g id="a_edge1_Node000001_Node000002"><a xlink:title=" ">
<path fill="none" stroke="#63b8ff" stroke-width="2" d="M212.89,-47.85C224.71,-49.25 236.37,-50.62 247.17,-51.9"/>
<polygon fill="#63b8ff" stroke="#63b8ff" stroke-width="2" points="246.51,-55.7 256.85,-53.4 247.33,-48.75 246.51,-55.7"/>
</a>
</g>
</g>
<!-- Node3 -->
<g id="Node000003" class="node">
<title>Node3</title>
<g id="a_Node000003"><a xlink:href="../../d7/d40/list_8c.html#a339df7b81560e9469a44d37ad966870f" target="_top" xlink:title="Adds item at the end of list.">
<polygon fill="white" stroke="#666666" points="357.5,-26.75 248.5,-26.75 248.5,0 357.5,0 357.5,-26.75"/>
<text text-anchor="middle" x="303" y="-7.55" font-family="Helvetica,sans-Serif" font-size="16.00">listPushBack</text>
</a>
</g>
</g>
<!-- Node1&#45;&gt;Node3 -->
<g id="edge2_Node000001_Node000003" class="edge">
<title>Node1&#45;&gt;Node3</title>
<g id="a_edge2_Node000001_Node000003"><a xlink:title=" ">
<path fill="none" stroke="#63b8ff" stroke-width="2" d="M212.89,-23.44C220.49,-22.58 228.02,-21.73 235.3,-20.91"/>
<polygon fill="#63b8ff" stroke="#63b8ff" stroke-width="2" points="235.54,-24.07 245.09,-19.47 234.76,-17.11 235.54,-24.07"/>
</a>
</g>
</g>
<!-- Node4 -->
<g id="Node000004" class="node">
<title>Node4</title>
<g id="a_Node000004"><a xlink:href="../../d7/d40/list_8c.html#ab3906daba38e516a6c2bd15bfa3042db" target="_top" xlink:title="Instantiates ListNode containing pointer to data.">
<polygon fill="white" stroke="#666666" points="516,-26.75 393.5,-26.75 393.5,0 516,0 516,-26.75"/>
<text text-anchor="middle" x="454.75" y="-7.55" font-family="Helvetica,sans-Serif" font-size="16.00">listCreateNode</text>
</a>
</g>
</g>
<!-- Node3&#45;&gt;Node4 -->
<g id="edge3_Node000003_Node000004" class="edge">
<title>Node3&#45;&gt;Node4</title>
<g id="a_edge3_Node000003_Node000004"><a xlink:title=" ">
<path fill="none" stroke="#63b8ff" stroke-width="2" d="M357.64,-13.38C365.01,-13.38 372.67,-13.38 380.31,-13.38"/>
<polygon fill="#63b8ff" stroke="#63b8ff" stroke-width="2" points="380.1,-16.88 390.1,-13.38 380.1,-9.88 380.1,-16.88"/>
</a>
</g>
</g>
</g>
</svg>
