<?xml version="1.0" encoding="UTF-8" standalone="no"?>
<!DOCTYPE svg PUBLIC "-//W3C//DTD SVG 1.1//EN"
 "http://www.w3.org/Graphics/SVG/1.1/DTD/svg11.dtd">
<!-- Generated by graphviz version 8.0.5 (0)
 -->
<!-- Title: clientFree Pages: 1 -->
<svg width="789pt" height="177pt"
 viewBox="0.00 0.00 788.50 176.53" xmlns="http://www.w3.org/2000/svg" xmlns:xlink="http://www.w3.org/1999/xlink">
<g id="graph0" class="graph" transform="scale(1 1) rotate(0) translate(4 172.53)">
<title>clientFree</title>
<!-- Node1 -->
<g id="Node000001" class="node">
<title>Node1</title>
<g id="a_Node000001"><a xlink:title="Dealloactes client.">
<polygon fill="#999999" stroke="#666666" points="780.5,-89.53 693.25,-89.53 693.25,-62.78 780.5,-62.78 780.5,-89.53"/>
<text text-anchor="middle" x="736.88" y="-70.33" font-family="Helvetica,sans-Serif" font-size="16.00">clientFree</text>
</a>
</g>
</g>
<!-- Node2 -->
<g id="Node000002" class="node">
<title>Node2</title>
<g id="a_Node000002"><a xlink:href="../../da/de9/clientsmenu_8c.html#a37a5ed3b8a63a9497f34682ce7db3126" target="_top" xlink:title="function for adding client;">
<polygon fill="white" stroke="#666666" points="644.5,-168.53 560.25,-168.53 560.25,-141.78 644.5,-141.78 644.5,-168.53"/>
<text text-anchor="middle" x="602.38" y="-149.33" font-family="Helvetica,sans-Serif" font-size="16.00">addClient</text>
</a>
</g>
</g>
<!-- Node1&#45;&gt;Node2 -->
<g id="edge1_Node000001_Node000002" class="edge">
<title>Node1&#45;&gt;Node2</title>
<g id="a_edge1_Node000001_Node000002"><a xlink:title=" ">
<path fill="none" stroke="#63b8ff" stroke-width="2" d="M706.22,-96.98C691.71,-106.85 673.84,-118.55 657.25,-128.15 649.37,-132.71 640.63,-137.29 632.51,-141.35"/>
<polygon fill="#63b8ff" stroke="#63b8ff" stroke-width="2" points="708.32,-99.41 714.58,-90.85 704.35,-93.64 708.32,-99.41"/>
</a>
</g>
</g>
<!-- Node10 -->
<g id="Node000010" class="node">
<title>Node10</title>
<g id="a_Node000010"><a xlink:href="../../da/de9/clientsmenu_8c.html#a1d711b31a5a18af01cdd582e537ff921" target="_top" xlink:title="Invokes ListView of clients.">
<polygon fill="white" stroke="#666666" points="657.25,-48.53 547.5,-48.53 547.5,-21.78 657.25,-21.78 657.25,-48.53"/>
<text text-anchor="middle" x="602.38" y="-29.33" font-family="Helvetica,sans-Serif" font-size="16.00">clientChoose</text>
</a>
</g>
</g>
<!-- Node1&#45;&gt;Node10 -->
<g id="edge4_Node000001_Node000010" class="edge">
<title>Node1&#45;&gt;Node10</title>
<g id="a_edge4_Node000001_Node000010"><a xlink:title=" ">
<path fill="none" stroke="#63b8ff" stroke-width="2" d="M680.77,-59.1C669.85,-55.72 658.52,-52.21 648,-48.96"/>
<polygon fill="#63b8ff" stroke="#63b8ff" stroke-width="2" points="680.27,-63.23 690.86,-62.84 682.34,-56.54 680.27,-63.23"/>
</a>
</g>
</g>
<!-- Node11 -->
<g id="Node000011" class="node">
<title>Node11</title>
<g id="a_Node000011"><a xlink:href="../../da/de9/clientsmenu_8c.html#a1aa5fbc029a7e320bf6f6c3a2e6e27cc" target="_top" xlink:title="Wrapper around clientChoose frees extracted client instanntly.">
<polygon fill="white" stroke="#666666" points="511.5,-127.53 333.5,-127.53 333.5,-100.78 511.5,-100.78 511.5,-127.53"/>
<text text-anchor="middle" x="422.5" y="-108.33" font-family="Helvetica,sans-Serif" font-size="16.00">clientChooseNoReturn</text>
</a>
</g>
</g>
<!-- Node1&#45;&gt;Node11 -->
<g id="edge11_Node000001_Node000011" class="edge">
<title>Node1&#45;&gt;Node11</title>
<g id="a_edge11_Node000001_Node000011"><a xlink:title=" ">
<path fill="none" stroke="#63b8ff" stroke-width="2" d="M680.24,-83.28C672.52,-84.25 664.69,-85.23 657.25,-86.15 609.18,-92.09 555.53,-98.53 511.76,-103.73"/>
<polygon fill="#63b8ff" stroke="#63b8ff" stroke-width="2" points="680.55,-86.39 690.04,-81.66 679.68,-79.44 680.55,-86.39"/>
</a>
</g>
</g>
<!-- Node12 -->
<g id="Node000012" class="node">
<title>Node12</title>
<g id="a_Node000012"><a xlink:href="../../da/de9/clientsmenu_8c.html#a3785053dd7fa7ee54cb52674dadf5941" target="_top" xlink:title="Edit client.">
<polygon fill="white" stroke="#666666" points="463.5,-82.53 381.5,-82.53 381.5,-55.78 463.5,-55.78 463.5,-82.53"/>
<text text-anchor="middle" x="422.5" y="-63.33" font-family="Helvetica,sans-Serif" font-size="16.00">clientEdit</text>
</a>
</g>
</g>
<!-- Node1&#45;&gt;Node12 -->
<g id="edge12_Node000001_Node000012" class="edge">
<title>Node1&#45;&gt;Node12</title>
<g id="a_edge12_Node000001_Node000012"><a xlink:title=" ">
<path fill="none" stroke="#63b8ff" stroke-width="2" d="M680.08,-74.9C617.86,-73.51 518.75,-71.29 463.69,-70.05"/>
<polygon fill="#63b8ff" stroke="#63b8ff" stroke-width="2" points="679.69,-78.46 689.77,-75.19 679.85,-71.46 679.69,-78.46"/>
</a>
</g>
</g>
<!-- Node13 -->
<g id="Node000013" class="node">
<title>Node13</title>
<g id="a_Node000013"><a xlink:href="../../da/de9/clientsmenu_8c.html#ae81aa78f6e32fdd87e554ba85c063111" target="_top" xlink:title="Remove client.">
<polygon fill="white" stroke="#666666" points="479.62,-37.53 365.38,-37.53 365.38,-10.78 479.62,-10.78 479.62,-37.53"/>
<text text-anchor="middle" x="422.5" y="-18.33" font-family="Helvetica,sans-Serif" font-size="16.00">clientRemove</text>
</a>
</g>
</g>
<!-- Node1&#45;&gt;Node13 -->
<g id="edge13_Node000001_Node000013" class="edge">
<title>Node1&#45;&gt;Node13</title>
<g id="a_edge13_Node000001_Node000013"><a xlink:title=" ">
<path fill="none" stroke="#63b8ff" stroke-width="2" d="M715.62,-53.38C701.04,-38.79 679.99,-21.14 657.25,-13.15 598.41,7.51 526.09,-0.56 477.61,-10.34"/>
<polygon fill="#63b8ff" stroke="#63b8ff" stroke-width="2" points="712.78,-55.57 722.22,-60.39 717.85,-50.74 712.78,-55.57"/>
</a>
</g>
</g>
<!-- Node3 -->
<g id="Node000003" class="node">
<title>Node3</title>
<g id="a_Node000003"><a xlink:href="../../da/de9/clientsmenu_8c.html#ad2a8354e045a2d4deb82f4b3b20ad5a4" target="_top" xlink:title="Handles displaying of clients menu.">
<polygon fill="white" stroke="#666666" points="297.5,-104.53 194.5,-104.53 194.5,-77.78 297.5,-77.78 297.5,-104.53"/>
<text text-anchor="middle" x="246" y="-85.33" font-family="Helvetica,sans-Serif" font-size="16.00">clientsMenu</text>
</a>
</g>
</g>
<!-- Node2&#45;&gt;Node3 -->
<g id="edge2_Node000002_Node000003" class="edge">
<title>Node2&#45;&gt;Node3</title>
<g id="a_edge2_Node000002_Node000003"><a xlink:title=" ">
<path fill="none" stroke="#63b8ff" stroke-width="2" d="M547.2,-157.69C492.29,-158.79 405.42,-156.46 333.5,-136.15 309.55,-129.39 284.59,-115.56 267.67,-105"/>
<polygon fill="#63b8ff" stroke="#63b8ff" stroke-width="2" points="547.19,-161.11 557.1,-157.35 547.01,-154.11 547.19,-161.11"/>
</a>
</g>
</g>
<!-- Node4 -->
<g id="Node000004" class="node">
<title>Node4</title>
<g id="a_Node000004"><a xlink:href="../../de/dc9/mmenu_8c.html#a315bc1f41a79da39147ec73e38cfc9e7" target="_top" xlink:title="Handles main menu.">
<polygon fill="#fff0f0" stroke="red" points="158.5,-104.53 0,-104.53 0,-77.78 158.5,-77.78 158.5,-104.53"/>
<text text-anchor="middle" x="79.25" y="-85.33" font-family="Helvetica,sans-Serif" font-size="16.00">mainMenuSelection</text>
</a>
</g>
</g>
<!-- Node3&#45;&gt;Node4 -->
<g id="edge3_Node000003_Node000004" class="edge">
<title>Node3&#45;&gt;Node4</title>
<g id="a_edge3_Node000003_Node000004"><a xlink:title=" ">
<path fill="none" stroke="#63b8ff" stroke-width="2" d="M181.23,-91.15C173.86,-91.15 166.27,-91.15 158.73,-91.15"/>
<polygon fill="#63b8ff" stroke="#63b8ff" stroke-width="2" points="181.23,-94.65 191.23,-91.15 181.23,-87.65 181.23,-94.65"/>
</a>
</g>
</g>
<!-- Node10&#45;&gt;Node11 -->
<g id="edge5_Node000010_Node000011" class="edge">
<title>Node10&#45;&gt;Node11</title>
<g id="a_edge5_Node000010_Node000011"><a xlink:title=" ">
<path fill="none" stroke="#63b8ff" stroke-width="2" d="M572.64,-56.18C555.57,-67.86 533.11,-81.85 511.5,-91.15 503.38,-94.65 494.6,-97.72 485.84,-100.37"/>
<polygon fill="#63b8ff" stroke="#63b8ff" stroke-width="2" points="574.82,-58.52 581.01,-49.92 570.81,-52.79 574.82,-58.52"/>
</a>
</g>
</g>
<!-- Node10&#45;&gt;Node12 -->
<g id="edge7_Node000010_Node000012" class="edge">
<title>Node10&#45;&gt;Node12</title>
<g id="a_edge7_Node000010_Node000012"><a xlink:title=" ">
<path fill="none" stroke="#63b8ff" stroke-width="2" d="M534.5,-47.93C510.77,-52.47 484.8,-57.43 463.95,-61.42"/>
<polygon fill="#63b8ff" stroke="#63b8ff" stroke-width="2" points="535.88,-50.85 545.04,-45.54 534.56,-43.98 535.88,-50.85"/>
</a>
</g>
</g>
<!-- Node10&#45;&gt;Node13 -->
<g id="edge9_Node000010_Node000013" class="edge">
<title>Node10&#45;&gt;Node13</title>
<g id="a_edge9_Node000010_Node000013"><a xlink:title=" ">
<path fill="none" stroke="#63b8ff" stroke-width="2" d="M534.28,-31C516.38,-29.9 497.23,-28.71 479.96,-27.64"/>
<polygon fill="#63b8ff" stroke="#63b8ff" stroke-width="2" points="533.84,-34.67 544.04,-31.79 534.28,-27.68 533.84,-34.67"/>
</a>
</g>
</g>
<!-- Node11&#45;&gt;Node3 -->
<g id="edge6_Node000011_Node000003" class="edge">
<title>Node11&#45;&gt;Node3</title>
<g id="a_edge6_Node000011_Node000003"><a xlink:title=" ">
<path fill="none" stroke="#63b8ff" stroke-width="2" d="M320.44,-100.83C312.63,-99.8 304.98,-98.79 297.74,-97.84"/>
<polygon fill="#63b8ff" stroke="#63b8ff" stroke-width="2" points="319.86,-104.68 330.23,-102.52 320.77,-97.74 319.86,-104.68"/>
</a>
</g>
</g>
<!-- Node12&#45;&gt;Node3 -->
<g id="edge8_Node000012_Node000003" class="edge">
<title>Node12&#45;&gt;Node3</title>
<g id="a_edge8_Node000012_Node000003"><a xlink:title=" ">
<path fill="none" stroke="#63b8ff" stroke-width="2" d="M368.32,-75.86C345.94,-78.68 320.01,-81.95 297.88,-84.74"/>
<polygon fill="#63b8ff" stroke="#63b8ff" stroke-width="2" points="368.54,-78.98 378.03,-74.25 367.67,-72.03 368.54,-78.98"/>
</a>
</g>
</g>
<!-- Node13&#45;&gt;Node3 -->
<g id="edge10_Node000013_Node000003" class="edge">
<title>Node13&#45;&gt;Node3</title>
<g id="a_edge10_Node000013_Node000003"><a xlink:title=" ">
<path fill="none" stroke="#63b8ff" stroke-width="2" d="M352.81,-40.56C346.22,-42.6 339.7,-44.8 333.5,-47.15 311.45,-55.53 287.65,-67.9 270.6,-77.4"/>
<polygon fill="#63b8ff" stroke="#63b8ff" stroke-width="2" points="354.46,-43.14 363.07,-36.98 352.49,-36.43 354.46,-43.14"/>
</a>
</g>
</g>
</g>
</svg>
