<?xml version="1.0" encoding="UTF-8" standalone="no"?>
<!DOCTYPE svg PUBLIC "-//W3C//DTD SVG 1.1//EN"
 "http://www.w3.org/Graphics/SVG/1.1/DTD/svg11.dtd">
<!-- Generated by graphviz version 8.0.5 (0)
 -->
<!-- Title: clientClone Pages: 1 -->
<svg width="940pt" height="125pt"
 viewBox="0.00 0.00 939.50 124.75" xmlns="http://www.w3.org/2000/svg" xmlns:xlink="http://www.w3.org/1999/xlink">
<g id="graph0" class="graph" transform="scale(1 1) rotate(0) translate(4 120.75)">
<title>clientClone</title>
<!-- Node1 -->
<g id="Node000001" class="node">
<title>Node1</title>
<g id="a_Node000001"><a xlink:title="make Clone of Client. It allocates memory internaly.">
<polygon fill="#999999" stroke="#666666" points="931.5,-94.75 835.25,-94.75 835.25,-68 931.5,-68 931.5,-94.75"/>
<text text-anchor="middle" x="883.38" y="-75.55" font-family="Helvetica,sans-Serif" font-size="16.00">clientClone</text>
</a>
</g>
</g>
<!-- Node2 -->
<g id="Node000002" class="node">
<title>Node2</title>
<g id="a_Node000002"><a xlink:href="../../da/de9/clientsmenu_8c.html#a3785053dd7fa7ee54cb52674dadf5941" target="_top" xlink:title="Edit client.">
<polygon fill="white" stroke="#666666" points="463.5,-116.75 381.5,-116.75 381.5,-90 463.5,-90 463.5,-116.75"/>
<text text-anchor="middle" x="422.5" y="-97.55" font-family="Helvetica,sans-Serif" font-size="16.00">clientEdit</text>
</a>
</g>
</g>
<!-- Node1&#45;&gt;Node2 -->
<g id="edge1_Node000001_Node000002" class="edge">
<title>Node1&#45;&gt;Node2</title>
<g id="a_edge1_Node000001_Node000002"><a xlink:title=" ">
<path fill="none" stroke="#63b8ff" stroke-width="2" d="M822.19,-84.26C727.18,-88.82 544.93,-97.55 463.97,-101.43"/>
<polygon fill="#63b8ff" stroke="#63b8ff" stroke-width="2" points="822.17,-87.62 832,-83.65 821.84,-80.63 822.17,-87.62"/>
</a>
</g>
</g>
<!-- Node10 -->
<g id="Node000010" class="node">
<title>Node10</title>
<g id="a_Node000010"><a xlink:href="../../da/de9/clientsmenu_8c.html#a12535dbea3961ee9186a47a4988d2208" target="_top" xlink:title="extract client given ListNode.">
<polygon fill="white" stroke="#666666" points="799.25,-74.75 693.25,-74.75 693.25,-48 799.25,-48 799.25,-74.75"/>
<text text-anchor="middle" x="746.25" y="-55.55" font-family="Helvetica,sans-Serif" font-size="16.00">extractClient</text>
</a>
</g>
</g>
<!-- Node1&#45;&gt;Node10 -->
<g id="edge4_Node000001_Node000010" class="edge">
<title>Node1&#45;&gt;Node10</title>
<g id="a_edge4_Node000001_Node000010"><a xlink:title=" ">
<path fill="none" stroke="#63b8ff" stroke-width="2" d="M822.38,-72.49C814.69,-71.36 806.87,-70.2 799.32,-69.08"/>
<polygon fill="#63b8ff" stroke="#63b8ff" stroke-width="2" points="822.71,-76.38 833.11,-74.38 823.74,-69.45 822.71,-76.38"/>
</a>
</g>
</g>
<!-- Node3 -->
<g id="Node000003" class="node">
<title>Node3</title>
<g id="a_Node000003"><a xlink:href="../../da/de9/clientsmenu_8c.html#ad2a8354e045a2d4deb82f4b3b20ad5a4" target="_top" xlink:title="Handles displaying of clients menu.">
<polygon fill="white" stroke="#666666" points="297.5,-71.75 194.5,-71.75 194.5,-45 297.5,-45 297.5,-71.75"/>
<text text-anchor="middle" x="246" y="-52.55" font-family="Helvetica,sans-Serif" font-size="16.00">clientsMenu</text>
</a>
</g>
</g>
<!-- Node2&#45;&gt;Node3 -->
<g id="edge2_Node000002_Node000003" class="edge">
<title>Node2&#45;&gt;Node3</title>
<g id="a_edge2_Node000002_Node000003"><a xlink:title=" ">
<path fill="none" stroke="#63b8ff" stroke-width="2" d="M368.63,-89.74C346.18,-83.95 320.11,-77.23 297.88,-71.5"/>
<polygon fill="#63b8ff" stroke="#63b8ff" stroke-width="2" points="368.47,-93.83 379.03,-92.94 370.22,-87.05 368.47,-93.83"/>
</a>
</g>
</g>
<!-- Node4 -->
<g id="Node000004" class="node">
<title>Node4</title>
<g id="a_Node000004"><a xlink:href="../../de/dc9/mmenu_8c.html#a315bc1f41a79da39147ec73e38cfc9e7" target="_top" xlink:title="Handles main menu.">
<polygon fill="#fff0f0" stroke="red" points="158.5,-71.75 0,-71.75 0,-45 158.5,-45 158.5,-71.75"/>
<text text-anchor="middle" x="79.25" y="-52.55" font-family="Helvetica,sans-Serif" font-size="16.00">mainMenuSelection</text>
</a>
</g>
</g>
<!-- Node3&#45;&gt;Node4 -->
<g id="edge3_Node000003_Node000004" class="edge">
<title>Node3&#45;&gt;Node4</title>
<g id="a_edge3_Node000003_Node000004"><a xlink:title=" ">
<path fill="none" stroke="#63b8ff" stroke-width="2" d="M181.23,-58.38C173.86,-58.38 166.27,-58.38 158.73,-58.38"/>
<polygon fill="#63b8ff" stroke="#63b8ff" stroke-width="2" points="181.23,-61.88 191.23,-58.38 181.23,-54.88 181.23,-61.88"/>
</a>
</g>
</g>
<!-- Node11 -->
<g id="Node000011" class="node">
<title>Node11</title>
<g id="a_Node000011"><a xlink:href="../../da/de9/clientsmenu_8c.html#a1d711b31a5a18af01cdd582e537ff921" target="_top" xlink:title="Invokes ListView of clients.">
<polygon fill="white" stroke="#666666" points="657.25,-73.75 547.5,-73.75 547.5,-47 657.25,-47 657.25,-73.75"/>
<text text-anchor="middle" x="602.38" y="-54.55" font-family="Helvetica,sans-Serif" font-size="16.00">clientChoose</text>
</a>
</g>
</g>
<!-- Node10&#45;&gt;Node11 -->
<g id="edge5_Node000010_Node000011" class="edge">
<title>Node10&#45;&gt;Node11</title>
<g id="a_edge5_Node000010_Node000011"><a xlink:title=" ">
<path fill="none" stroke="#63b8ff" stroke-width="2" d="M679.91,-60.91C672.41,-60.86 664.82,-60.81 657.48,-60.76"/>
<polygon fill="#63b8ff" stroke="#63b8ff" stroke-width="2" points="679.8,-64.43 689.82,-61.01 679.85,-57.44 679.8,-64.43"/>
</a>
</g>
</g>
<!-- Node11&#45;&gt;Node2 -->
<g id="edge8_Node000011_Node000002" class="edge">
<title>Node11&#45;&gt;Node2</title>
<g id="a_edge8_Node000011_Node000002"><a xlink:title=" ">
<path fill="none" stroke="#63b8ff" stroke-width="2" d="M534.5,-76.54C510.77,-82.28 484.8,-88.56 463.95,-93.6"/>
<polygon fill="#63b8ff" stroke="#63b8ff" stroke-width="2" points="536.14,-79.26 545.04,-73.51 534.5,-72.46 536.14,-79.26"/>
</a>
</g>
</g>
<!-- Node12 -->
<g id="Node000012" class="node">
<title>Node12</title>
<g id="a_Node000012"><a xlink:href="../../da/de9/clientsmenu_8c.html#a1aa5fbc029a7e320bf6f6c3a2e6e27cc" target="_top" xlink:title="Wrapper around clientChoose frees extracted client instanntly.">
<polygon fill="white" stroke="#666666" points="511.5,-71.75 333.5,-71.75 333.5,-45 511.5,-45 511.5,-71.75"/>
<text text-anchor="middle" x="422.5" y="-52.55" font-family="Helvetica,sans-Serif" font-size="16.00">clientChooseNoReturn</text>
</a>
</g>
</g>
<!-- Node11&#45;&gt;Node12 -->
<g id="edge6_Node000011_Node000012" class="edge">
<title>Node11&#45;&gt;Node12</title>
<g id="a_edge6_Node000011_Node000012"><a xlink:title=" ">
<path fill="none" stroke="#63b8ff" stroke-width="2" d="M534.2,-59.62C526.91,-59.54 519.42,-59.45 511.93,-59.37"/>
<polygon fill="#63b8ff" stroke="#63b8ff" stroke-width="2" points="534,-63.15 544.04,-59.76 534.08,-56.15 534,-63.15"/>
</a>
</g>
</g>
<!-- Node13 -->
<g id="Node000013" class="node">
<title>Node13</title>
<g id="a_Node000013"><a xlink:href="../../da/de9/clientsmenu_8c.html#ae81aa78f6e32fdd87e554ba85c063111" target="_top" xlink:title="Remove client.">
<polygon fill="white" stroke="#666666" points="479.62,-26.75 365.38,-26.75 365.38,0 479.62,0 479.62,-26.75"/>
<text text-anchor="middle" x="422.5" y="-7.55" font-family="Helvetica,sans-Serif" font-size="16.00">clientRemove</text>
</a>
</g>
</g>
<!-- Node11&#45;&gt;Node13 -->
<g id="edge9_Node000011_Node000013" class="edge">
<title>Node11&#45;&gt;Node13</title>
<g id="a_edge9_Node000011_Node000013"><a xlink:title=" ">
<path fill="none" stroke="#63b8ff" stroke-width="2" d="M537.74,-43.34C528.93,-40.99 519.99,-38.62 511.5,-36.38 500.2,-33.39 488.08,-30.21 476.56,-27.19"/>
<polygon fill="#63b8ff" stroke="#63b8ff" stroke-width="2" points="537.49,-47.43 548.06,-46.62 539.3,-40.66 537.49,-47.43"/>
</a>
</g>
</g>
<!-- Node12&#45;&gt;Node3 -->
<g id="edge7_Node000012_Node000003" class="edge">
<title>Node12&#45;&gt;Node3</title>
<g id="a_edge7_Node000012_Node000003"><a xlink:title=" ">
<path fill="none" stroke="#63b8ff" stroke-width="2" d="M320.44,-58.38C312.63,-58.38 304.98,-58.38 297.74,-58.38"/>
<polygon fill="#63b8ff" stroke="#63b8ff" stroke-width="2" points="320.23,-61.88 330.23,-58.38 320.23,-54.88 320.23,-61.88"/>
</a>
</g>
</g>
<!-- Node13&#45;&gt;Node3 -->
<g id="edge10_Node000013_Node000003" class="edge">
<title>Node13&#45;&gt;Node3</title>
<g id="a_edge10_Node000013_Node000003"><a xlink:title=" ">
<path fill="none" stroke="#63b8ff" stroke-width="2" d="M355.17,-30.48C336.2,-35.37 315.82,-40.63 297.92,-45.24"/>
<polygon fill="#63b8ff" stroke="#63b8ff" stroke-width="2" points="356.91,-33.13 365.72,-27.24 355.16,-26.35 356.91,-33.13"/>
</a>
</g>
</g>
</g>
</svg>
