<?xml version="1.0" encoding="UTF-8" standalone="no"?>
<!DOCTYPE svg PUBLIC "-//W3C//DTD SVG 1.1//EN"
 "http://www.w3.org/Graphics/SVG/1.1/DTD/svg11.dtd">
<!-- Generated by graphviz version 8.0.5 (0)
 -->
<!-- Title: clientGetList Pages: 1 -->
<svg width="794pt" height="226pt"
 viewBox="0.00 0.00 794.25 225.75" xmlns="http://www.w3.org/2000/svg" xmlns:xlink="http://www.w3.org/1999/xlink">
<g id="graph0" class="graph" transform="scale(1 1) rotate(0) translate(4 221.75)">
<title>clientGetList</title>
<!-- Node1 -->
<g id="Node000001" class="node">
<title>Node1</title>
<g id="a_Node000001"><a xlink:title="Get list of clients.">
<polygon fill="#999999" stroke="#666666" points="106,-138.75 0,-138.75 0,-112 106,-112 106,-138.75"/>
<text text-anchor="middle" x="53" y="-119.55" font-family="Helvetica,sans-Serif" font-size="16.00">clientGetList</text>
</a>
</g>
</g>
<!-- Node2 -->
<g id="Node000002" class="node">
<title>Node2</title>
<g id="a_Node000002"><a xlink:href="../../dd/d93/client_8c.html#a903cc00cfe46a85c92b09861aba1f26c" target="_top" xlink:title="CallBack function for dbHandleGetResultAsList . Transforms row into Client.">
<polygon fill="white" stroke="#666666" points="354.5,-183.75 142,-183.75 142,-157 354.5,-157 354.5,-183.75"/>
<text text-anchor="middle" x="248.25" y="-164.55" font-family="Helvetica,sans-Serif" font-size="16.00">clientGetListQueryCallback</text>
</a>
</g>
</g>
<!-- Node1&#45;&gt;Node2 -->
<g id="edge1_Node000001_Node000002" class="edge">
<title>Node1&#45;&gt;Node2</title>
<g id="a_edge1_Node000001_Node000002"><a xlink:title=" ">
<path fill="none" stroke="#63b8ff" stroke-width="2" d="M106.05,-138.66C117.86,-141.6 130.35,-144.65 142,-147.38 150.95,-149.47 160.35,-151.61 169.68,-153.7"/>
<polygon fill="#63b8ff" stroke="#63b8ff" stroke-width="2" points="169.81,-157.76 180.33,-156.51 171.33,-150.92 169.81,-157.76"/>
</a>
</g>
</g>
<!-- Node6 -->
<g id="Node000006" class="node">
<title>Node6</title>
<g id="a_Node000006"><a xlink:href="../../dd/d93/client_8c.html#aca1c3909e30e8a13a7f49a0bc74640bd" target="_top" xlink:title="Generates SQL query.">
<polygon fill="white" stroke="#666666" points="333.88,-138.75 162.62,-138.75 162.62,-112 333.88,-112 333.88,-138.75"/>
<text text-anchor="middle" x="248.25" y="-119.55" font-family="Helvetica,sans-Serif" font-size="16.00">clientGetQueryOfSort</text>
</a>
</g>
</g>
<!-- Node1&#45;&gt;Node6 -->
<g id="edge5_Node000001_Node000006" class="edge">
<title>Node1&#45;&gt;Node6</title>
<g id="a_edge5_Node000001_Node000006"><a xlink:title=" ">
<path fill="none" stroke="#63b8ff" stroke-width="2" d="M106.3,-125.38C119.61,-125.38 134.36,-125.38 149.15,-125.38"/>
<polygon fill="#63b8ff" stroke="#63b8ff" stroke-width="2" points="149.13,-128.88 159.13,-125.38 149.13,-121.88 149.13,-128.88"/>
</a>
</g>
</g>
<!-- Node7 -->
<g id="Node000007" class="node">
<title>Node7</title>
<g id="a_Node000007"><a xlink:href="../../d3/df4/dbhandle_8c.html#a93d9b43b32495dc8630963c174aeba05" target="_top" xlink:title="Given query and callback function create List based on the query.">
<polygon fill="white" stroke="#666666" points="348.88,-93.75 147.62,-93.75 147.62,-67 348.88,-67 348.88,-93.75"/>
<text text-anchor="middle" x="248.25" y="-74.55" font-family="Helvetica,sans-Serif" font-size="16.00">dbHandleGetResultAsList</text>
</a>
</g>
</g>
<!-- Node1&#45;&gt;Node7 -->
<g id="edge6_Node000001_Node000007" class="edge">
<title>Node1&#45;&gt;Node7</title>
<g id="a_edge6_Node000001_Node000007"><a xlink:title=" ">
<path fill="none" stroke="#63b8ff" stroke-width="2" d="M106.05,-112.09C117.86,-109.15 130.35,-106.1 142,-103.38 150.95,-101.28 160.35,-99.14 169.68,-97.05"/>
<polygon fill="#63b8ff" stroke="#63b8ff" stroke-width="2" points="171.33,-99.83 180.33,-94.24 169.81,-92.99 171.33,-99.83"/>
</a>
</g>
</g>
<!-- Node3 -->
<g id="Node000003" class="node">
<title>Node3</title>
<g id="a_Node000003"><a xlink:href="../../dd/d93/client_8c.html#a2ecd1e440fb6f0c7ceb787859a7d284a" target="_top" xlink:title="Allocates and returns client containing nothing.">
<polygon fill="white" stroke="#666666" points="519.38,-217.75 433.62,-217.75 433.62,-191 519.38,-191 519.38,-217.75"/>
<text text-anchor="middle" x="476.5" y="-198.55" font-family="Helvetica,sans-Serif" font-size="16.00">clientNew</text>
</a>
</g>
</g>
<!-- Node2&#45;&gt;Node3 -->
<g id="edge2_Node000002_Node000003" class="edge">
<title>Node2&#45;&gt;Node3</title>
<g id="a_edge2_Node000002_Node000003"><a xlink:title=" ">
<path fill="none" stroke="#63b8ff" stroke-width="2" d="M341.27,-184.2C368.22,-188.25 396.81,-192.55 420.66,-196.13"/>
<polygon fill="#63b8ff" stroke="#63b8ff" stroke-width="2" points="420.97,-200.02 431.38,-198.04 422.01,-193.1 420.97,-200.02"/>
</a>
</g>
</g>
<!-- Node4 -->
<g id="Node000004" class="node">
<title>Node4</title>
<g id="a_Node000004"><a xlink:href="../../d7/d40/list_8c.html#a339df7b81560e9469a44d37ad966870f" target="_top" xlink:title="Adds item at the end of list.">
<polygon fill="white" stroke="#666666" points="531,-172.75 422,-172.75 422,-146 531,-146 531,-172.75"/>
<text text-anchor="middle" x="476.5" y="-153.55" font-family="Helvetica,sans-Serif" font-size="16.00">listPushBack</text>
</a>
</g>
</g>
<!-- Node2&#45;&gt;Node4 -->
<g id="edge3_Node000002_Node000004" class="edge">
<title>Node2&#45;&gt;Node4</title>
<g id="a_edge3_Node000002_Node000004"><a xlink:title=" ">
<path fill="none" stroke="#63b8ff" stroke-width="2" d="M354.76,-165.25C373.12,-164.35 391.75,-163.45 408.7,-162.62"/>
<polygon fill="#63b8ff" stroke="#63b8ff" stroke-width="2" points="408.79,-165.98 418.6,-162 408.45,-158.99 408.79,-165.98"/>
</a>
</g>
</g>
<!-- Node5 -->
<g id="Node000005" class="node">
<title>Node5</title>
<g id="a_Node000005"><a xlink:href="../../d7/d40/list_8c.html#ab3906daba38e516a6c2bd15bfa3042db" target="_top" xlink:title="Instantiates ListNode containing pointer to data.">
<polygon fill="white" stroke="#666666" points="753.62,-172.75 631.12,-172.75 631.12,-146 753.62,-146 753.62,-172.75"/>
<text text-anchor="middle" x="692.38" y="-153.55" font-family="Helvetica,sans-Serif" font-size="16.00">listCreateNode</text>
</a>
</g>
</g>
<!-- Node4&#45;&gt;Node5 -->
<g id="edge4_Node000004_Node000005" class="edge">
<title>Node4&#45;&gt;Node5</title>
<g id="a_edge4_Node000004_Node000005"><a xlink:title=" ">
<path fill="none" stroke="#63b8ff" stroke-width="2" d="M531.47,-159.38C557.76,-159.38 589.77,-159.38 618.22,-159.38"/>
<polygon fill="#63b8ff" stroke="#63b8ff" stroke-width="2" points="618.01,-162.88 628.01,-159.38 618.01,-155.88 618.01,-162.88"/>
</a>
</g>
</g>
<!-- Node8 -->
<g id="Node000008" class="node">
<title>Node8</title>
<g id="a_Node000008"><a xlink:href="../../d7/d40/list_8c.html#a5fccd2bb814aa2d6757242416f61ac40" target="_top" xlink:title="Returns empty list.">
<polygon fill="white" stroke="#666666" points="531.38,-116.75 421.62,-116.75 421.62,-90 531.38,-90 531.38,-116.75"/>
<text text-anchor="middle" x="476.5" y="-97.55" font-family="Helvetica,sans-Serif" font-size="16.00">listCreateList</text>
</a>
</g>
</g>
<!-- Node7&#45;&gt;Node8 -->
<g id="edge7_Node000007_Node000008" class="edge">
<title>Node7&#45;&gt;Node8</title>
<g id="a_edge7_Node000007_Node000008"><a xlink:title=" ">
<path fill="none" stroke="#63b8ff" stroke-width="2" d="M349.15,-90.53C369.25,-92.57 389.91,-94.67 408.56,-96.57"/>
<polygon fill="#63b8ff" stroke="#63b8ff" stroke-width="2" points="408.12,-100.35 418.42,-97.88 408.83,-93.38 408.12,-100.35"/>
</a>
</g>
</g>
<!-- Node9 -->
<g id="Node000009" class="node">
<title>Node9</title>
<g id="a_Node000009"><a xlink:href="../../d7/dba/menuutil_8c.html#ae6ed898f3726361b1edde3f8707f0260" target="_top" xlink:title="Displays message box on the screen with title and message.">
<polygon fill="white" stroke="#666666" points="562.5,-71.75 390.5,-71.75 390.5,-45 562.5,-45 562.5,-71.75"/>
<text text-anchor="middle" x="476.5" y="-52.55" font-family="Helvetica,sans-Serif" font-size="16.00">menuUtilMessagebox</text>
</a>
</g>
</g>
<!-- Node7&#45;&gt;Node9 -->
<g id="edge8_Node000007_Node000009" class="edge">
<title>Node7&#45;&gt;Node9</title>
<g id="a_edge8_Node000007_Node000009"><a xlink:title=" ">
<path fill="none" stroke="#63b8ff" stroke-width="2" d="M349.15,-70.66C358.59,-69.74 368.15,-68.81 377.57,-67.9"/>
<polygon fill="#63b8ff" stroke="#63b8ff" stroke-width="2" points="377.69,-71.11 387.31,-66.66 377.02,-64.14 377.69,-71.11"/>
</a>
</g>
</g>
<!-- Node10 -->
<g id="Node000010" class="node">
<title>Node10</title>
<g id="a_Node000010"><a xlink:href="../../d7/dba/menuutil_8c.html#ac6b71fcc47a9cdec8ac08b98e754239c" target="_top" xlink:title="Get length of longest string in array of strings.">
<polygon fill="white" stroke="#666666" points="786.25,-116.75 598.5,-116.75 598.5,-90 786.25,-90 786.25,-116.75"/>
<text text-anchor="middle" x="692.38" y="-97.55" font-family="Helvetica,sans-Serif" font-size="16.00">getLongestStringLength</text>
</a>
</g>
</g>
<!-- Node9&#45;&gt;Node10 -->
<g id="edge9_Node000009_Node000010" class="edge">
<title>Node9&#45;&gt;Node10</title>
<g id="a_edge9_Node000009_Node000010"><a xlink:title=" ">
<path fill="none" stroke="#63b8ff" stroke-width="2" d="M543.41,-72.24C565.47,-76.88 590.28,-82.1 613.18,-86.92"/>
<polygon fill="#63b8ff" stroke="#63b8ff" stroke-width="2" points="613.17,-90.92 623.68,-89.55 614.61,-84.07 613.17,-90.92"/>
</a>
</g>
</g>
<!-- Node11 -->
<g id="Node000011" class="node">
<title>Node11</title>
<g id="a_Node000011"><a xlink:href="../../d7/dba/menuutil_8c.html#a9941ed217da0309cd9453bdb776d5c51" target="_top" xlink:title="Add basic functionality to the shitty language which C is.">
<polygon fill="white" stroke="#666666" points="715.75,-71.75 669,-71.75 669,-45 715.75,-45 715.75,-71.75"/>
<text text-anchor="middle" x="692.38" y="-52.55" font-family="Helvetica,sans-Serif" font-size="16.00">max</text>
</a>
</g>
</g>
<!-- Node9&#45;&gt;Node11 -->
<g id="edge10_Node000009_Node000011" class="edge">
<title>Node9&#45;&gt;Node11</title>
<g id="a_edge10_Node000009_Node000011"><a xlink:title=" ">
<path fill="none" stroke="#63b8ff" stroke-width="2" d="M562.95,-58.38C595.35,-58.38 630.49,-58.38 655.81,-58.38"/>
<polygon fill="#63b8ff" stroke="#63b8ff" stroke-width="2" points="655.78,-61.88 665.78,-58.38 655.78,-54.88 655.78,-61.88"/>
</a>
</g>
</g>
<!-- Node12 -->
<g id="Node000012" class="node">
<title>Node12</title>
<g id="a_Node000012"><a xlink:href="../../d7/dba/menuutil_8c.html#a14ca6bd9893f550a2051ca6cd5a689ac" target="_top" xlink:title="Print boarders of window.">
<polygon fill="white" stroke="#666666" points="777.25,-26.75 607.5,-26.75 607.5,0 777.25,0 777.25,-26.75"/>
<text text-anchor="middle" x="692.38" y="-7.55" font-family="Helvetica,sans-Serif" font-size="16.00">printWindowBoarders</text>
</a>
</g>
</g>
<!-- Node9&#45;&gt;Node12 -->
<g id="edge11_Node000009_Node000012" class="edge">
<title>Node9&#45;&gt;Node12</title>
<g id="a_edge11_Node000009_Node000012"><a xlink:title=" ">
<path fill="none" stroke="#63b8ff" stroke-width="2" d="M543.41,-44.51C565.47,-39.87 590.28,-34.65 613.18,-29.83"/>
<polygon fill="#63b8ff" stroke="#63b8ff" stroke-width="2" points="614.61,-32.68 623.68,-27.2 613.17,-25.83 614.61,-32.68"/>
</a>
</g>
</g>
</g>
</svg>
