<?xml version="1.0" encoding="UTF-8" standalone="no"?>
<!DOCTYPE svg PUBLIC "-//W3C//DTD SVG 1.1//EN"
 "http://www.w3.org/Graphics/SVG/1.1/DTD/svg11.dtd">
<!-- Generated by graphviz version 8.0.5 (0)
 -->
<!-- Title: main Pages: 1 -->
<!--zoomable 205 -->

<svg id="main" version="1.1" xmlns="http://www.w3.org/2000/svg" xmlns:xlink="http://www.w3.org/1999/xlink" xml:space="preserve" onload="init(evt)">
<style type="text/css"><![CDATA[
.node, .edge {opacity: 0.7;}
.node.selected, .edge.selected {opacity: 1;}
.edge:hover path { stroke: red; }
.edge:hover polygon { stroke: red; fill: red; }
]]></style>

<defs>
  <circle id="rim" cx="0" cy="0" r="7"/>
  <circle id="rim2" cx="0" cy="0" r="3.5"/>
  <g id="zoomPlus">
    <use xlink:href="#rim" fill="#404040"><set attributeName="fill" to="#808080" begin="zoomplus.mouseover" end="zoomplus.mouseout"/></use>
    <path d="M-4,0h8M0,-4v8" fill="none" stroke="white" stroke-width="1.5" pointer-events="none"/>
  </g>
  <g id="zoomMin">
    <use xlink:href="#rim" fill="#404040"><set attributeName="fill" to="#808080" begin="zoomminus.mouseover" end="zoomminus.mouseout"/></use>
    <path d="M-4,0h8" fill="none" stroke="white" stroke-width="1.5" pointer-events="none"/>
  </g>
  <g id="arrowUp" transform="translate(30 24)">
    <use xlink:href="#rim"/>
    <path pointer-events="none" fill="none" stroke="white" stroke-width="1.5" d="M0,-3.0v7 M-2.5,-0.5L0,-3.0L2.5,-0.5"/>
  </g>
  <g id="arrowRight" transform="rotate(90) translate(36 -43)">
    <use xlink:href="#rim"/>
    <path pointer-events="none" fill="none" stroke="white" stroke-width="1.5" d="M0,-3.0v7 M-2.5,-0.5L0,-3.0L2.5,-0.5"/>
  </g>
  <g id="arrowDown" transform="rotate(180) translate(-30 -48)">
    <use xlink:href="#rim"/>
    <path pointer-events="none" fill="none" stroke="white" stroke-width="1.5" d="M0,-3.0v7 M-2.5,-0.5L0,-3.0L2.5,-0.5"/>
  </g>
  <g id="arrowLeft" transform="rotate(270) translate(-36 17)">
    <use xlink:href="#rim"/>
    <path pointer-events="none" fill="none" stroke="white" stroke-width="1.5" d="M0,-3.0v7 M-2.5,-0.5L0,-3.0L2.5,-0.5"/>
  </g>
  <g id="resetDef">
    <use xlink:href="#rim2" fill="#404040"><set attributeName="fill" to="#808080" begin="reset.mouseover" end="reset.mouseout"/></use>
  </g>
</defs>
<script type="application/ecmascript">
var viewWidth = 744;
var viewHeight = 205;
var sectionId = 'dynsection-1';
</script>
<script type="application/ecmascript" xlink:href="../../svg.min.js"/>
<svg id="graph" class="graph">
<g id="viewport">
<title>main</title>
<!-- Node1 -->
<g id="Node000001" class="node">
<title>Node1</title>
<g id="a_Node000001"><a xlink:title="main.">
<polygon fill="#999999" stroke="#666666" points="51.25,-71.75 0,-71.75 0,-45 51.25,-45 51.25,-71.75"/>
<text text-anchor="middle" x="25.62" y="-52.55" font-family="Helvetica,sans-Serif" font-size="16.00">main</text>
</a>
</g>
</g>
<!-- Node2 -->
<g id="Node000002" class="node">
<title>Node2</title>
<g id="a_Node000002"><a xlink:href="../../d3/df4/dbhandle_8c.html#a20aaa4385efb6e120e0159b7230162a8" target="_top" xlink:title="Ensure that database exists.">
<polygon fill="white" stroke="#666666" points="246.5,-116.75 100,-116.75 100,-90 246.5,-90 246.5,-116.75"/>
<text text-anchor="middle" x="173.25" y="-97.55" font-family="Helvetica,sans-Serif" font-size="16.00">dbHandleOpenDB</text>
</a>
</g>
</g>
<!-- Node1&#45;&gt;Node2 -->
<g id="edge1_Node000001_Node000002" class="edge">
<title>Node1&#45;&gt;Node2</title>
<g id="a_edge1_Node000001_Node000002"><a xlink:title=" ">
<path fill="none" stroke="#63b8ff" stroke-width="2" d="M51.54,-67.95C62.43,-72 75.4,-76.63 87.25,-80.38 93.38,-82.31 99.79,-84.23 106.22,-86.09"/>
<polygon fill="#63b8ff" stroke="#63b8ff" stroke-width="2" points="105.97,-90.22 116.55,-89.58 107.88,-83.49 105.97,-90.22"/>
</a>
</g>
</g>
<!-- Node3 -->
<g id="Node000003" class="node">
<title>Node3</title>
<g id="a_Node000003"><a xlink:href="../../de/dc9/mmenu_8c.html#a29c2128f12316ca1ce77fd1d686f6ec7" target="_top" xlink:title="Invokes menu.">
<polygon fill="white" stroke="#666666" points="219.12,-71.75 127.38,-71.75 127.38,-45 219.12,-45 219.12,-71.75"/>
<text text-anchor="middle" x="173.25" y="-52.55" font-family="Helvetica,sans-Serif" font-size="16.00">mainMenu</text>
</a>
</g>
</g>
<!-- Node1&#45;&gt;Node3 -->
<g id="edge2_Node000001_Node000003" class="edge">
<title>Node1&#45;&gt;Node3</title>
<g id="a_edge2_Node000001_Node000003"><a xlink:title=" ">
<path fill="none" stroke="#63b8ff" stroke-width="2" d="M51.66,-58.38C68.84,-58.38 92.39,-58.38 114.11,-58.38"/>
<polygon fill="#63b8ff" stroke="#63b8ff" stroke-width="2" points="113.98,-61.88 123.98,-58.38 113.98,-54.88 113.98,-61.88"/>
</a>
</g>
</g>
<!-- Node21 -->
<g id="Node000021" class="node">
<title>Node21</title>
<g id="a_Node000021"><a xlink:href="../../d7/dba/menuutil_8c.html#ae6ed898f3726361b1edde3f8707f0260" target="_top" xlink:title="Displays message box on the screen with title and message.">
<polygon fill="#fff0f0" stroke="red" points="259.25,-26.75 87.25,-26.75 87.25,0 259.25,0 259.25,-26.75"/>
<text text-anchor="middle" x="173.25" y="-7.55" font-family="Helvetica,sans-Serif" font-size="16.00">menuUtilMessagebox</text>
</a>
</g>
</g>
<!-- Node1&#45;&gt;Node21 -->
<g id="edge12_Node000001_Node000021" class="edge">
<title>Node1&#45;&gt;Node21</title>
<g id="a_edge12_Node000001_Node000021"><a xlink:title=" ">
<path fill="none" stroke="#63b8ff" stroke-width="2" d="M51.54,-48.8C62.43,-44.75 75.4,-40.12 87.25,-36.38 93.38,-34.44 99.79,-32.52 106.22,-30.66"/>
<polygon fill="#63b8ff" stroke="#63b8ff" stroke-width="2" points="107.88,-33.26 116.55,-27.17 105.97,-26.53 107.88,-33.26"/>
</a>
</g>
</g>
<!-- Node4 -->
<g id="Node000004" class="node">
<title>Node4</title>
<g id="a_Node000004"><a xlink:href="../../de/dc9/mmenu_8c.html#a315bc1f41a79da39147ec73e38cfc9e7" target="_top" xlink:title="Handles main menu.">
<polygon fill="white" stroke="#666666" points="453.75,-114.75 295.25,-114.75 295.25,-88 453.75,-88 453.75,-114.75"/>
<text text-anchor="middle" x="374.5" y="-95.55" font-family="Helvetica,sans-Serif" font-size="16.00">mainMenuSelection</text>
</a>
</g>
</g>
<!-- Node3&#45;&gt;Node4 -->
<g id="edge3_Node000003_Node000004" class="edge">
<title>Node3&#45;&gt;Node4</title>
<g id="a_edge3_Node000003_Node000004"><a xlink:title=" ">
<path fill="none" stroke="#63b8ff" stroke-width="2" d="M219.46,-68.13C242.35,-73.07 270.78,-79.21 296.95,-84.85"/>
<polygon fill="#63b8ff" stroke="#63b8ff" stroke-width="2" points="297.07,-88.89 307.58,-87.58 298.55,-82.05 297.07,-88.89"/>
</a>
</g>
</g>
<!-- Node5 -->
<g id="Node000005" class="node">
<title>Node5</title>
<g id="a_Node000005"><a xlink:href="../../dc/dc6/carsmenu_8c.html#a7adcbb9b8798811ec24e33760623ebc0" target="_top" xlink:title="Handles displaying of cars menu.">
<polygon fill="#fff0f0" stroke="red" points="586,-196.75 498.75,-196.75 498.75,-170 586,-170 586,-196.75"/>
<text text-anchor="middle" x="542.38" y="-177.55" font-family="Helvetica,sans-Serif" font-size="16.00">carsMenu</text>
</a>
</g>
</g>
<!-- Node4&#45;&gt;Node5 -->
<g id="edge4_Node000004_Node000005" class="edge">
<title>Node4&#45;&gt;Node5</title>
<g id="a_edge4_Node000004_Node000005"><a xlink:title=" ">
<path fill="none" stroke="#63b8ff" stroke-width="2" d="M403.26,-115.1C430.3,-128.46 471.64,-148.9 502.05,-163.93"/>
<polygon fill="#63b8ff" stroke="#63b8ff" stroke-width="2" points="501.01,-167.31 511.52,-168.61 504.11,-161.04 501.01,-167.31"/>
</a>
</g>
</g>
<!-- Node49 -->
<g id="Node000049" class="node">
<title>Node49</title>
<g id="a_Node000049"><a xlink:href="../../d7/dba/menuutil_8c.html#a949419e66b27ac75475821fb7aba527d" target="_top" xlink:title="Handle all operation and functions for menu.">
<polygon fill="#fff0f0" stroke="red" points="735.5,-114.75 631,-114.75 631,-88 735.5,-88 735.5,-114.75"/>
<text text-anchor="middle" x="683.25" y="-95.55" font-family="Helvetica,sans-Serif" font-size="16.00">menuInvoke</text>
</a>
</g>
</g>
<!-- Node4&#45;&gt;Node49 -->
<g id="edge9_Node000004_Node000049" class="edge">
<title>Node4&#45;&gt;Node49</title>
<g id="a_edge9_Node000004_Node000049"><a xlink:title=" ">
<path fill="none" stroke="#63b8ff" stroke-width="2" d="M435.96,-115.24C453.24,-118.6 472.16,-121.7 489.75,-123.38 536.32,-127.82 548.58,-129.14 595,-123.38 604.49,-122.2 614.42,-120.33 624.05,-118.16"/>
<polygon fill="#63b8ff" stroke="#63b8ff" stroke-width="2" points="625.56,-120.92 634.47,-115.18 623.93,-114.11 625.56,-120.92"/>
</a>
</g>
</g>
<!-- Node52 -->
<g id="Node000052" class="node">
<title>Node52</title>
<g id="a_Node000052"><a xlink:href="../../da/de9/clientsmenu_8c.html#ad2a8354e045a2d4deb82f4b3b20ad5a4" target="_top" xlink:title="Handles displaying of clients menu.">
<polygon fill="#fff0f0" stroke="red" points="593.88,-114.75 490.88,-114.75 490.88,-88 593.88,-88 593.88,-114.75"/>
<text text-anchor="middle" x="542.38" y="-95.55" font-family="Helvetica,sans-Serif" font-size="16.00">clientsMenu</text>
</a>
</g>
</g>
<!-- Node4&#45;&gt;Node52 -->
<g id="edge7_Node000004_Node000052" class="edge">
<title>Node4&#45;&gt;Node52</title>
<g id="a_edge7_Node000004_Node000052"><a xlink:title=" ">
<path fill="none" stroke="#63b8ff" stroke-width="2" d="M454.07,-101.38C462.01,-101.38 470,-101.38 477.75,-101.38"/>
<polygon fill="#63b8ff" stroke="#63b8ff" stroke-width="2" points="477.53,-104.88 487.53,-101.38 477.53,-97.88 477.53,-104.88"/>
</a>
</g>
</g>
<!-- Node73 -->
<g id="Node000073" class="node">
<title>Node73</title>
<g id="a_Node000073"><a xlink:href="../../d6/dc5/rentalsmenu_8c.html#a4cad208e714dfe28ce655b7853a3d5fd" target="_top" xlink:title="Handles Rentals Menu.">
<polygon fill="white" stroke="#666666" points="595,-69.75 489.75,-69.75 489.75,-43 595,-43 595,-69.75"/>
<text text-anchor="middle" x="542.38" y="-50.55" font-family="Helvetica,sans-Serif" font-size="16.00">rentalsMenu</text>
</a>
</g>
</g>
<!-- Node4&#45;&gt;Node73 -->
<g id="edge10_Node000004_Node000073" class="edge">
<title>Node4&#45;&gt;Node73</title>
<g id="a_edge10_Node000004_Node000073"><a xlink:title=" ">
<path fill="none" stroke="#63b8ff" stroke-width="2" d="M426.62,-87.51C442.94,-83.08 461.19,-78.13 478.25,-73.5"/>
<polygon fill="#63b8ff" stroke="#63b8ff" stroke-width="2" points="479.69,-76.19 488.42,-70.2 477.85,-69.44 479.69,-76.19"/>
</a>
</g>
</g>
<!-- Node5&#45;&gt;Node49 -->
<g id="edge5_Node000005_Node000049" class="edge">
<title>Node5&#45;&gt;Node49</title>
<g id="a_edge5_Node000005_Node000049"><a xlink:title=" ">
<path fill="none" stroke="#63b8ff" stroke-width="2" d="M570.66,-169.63C578.58,-165.5 587.2,-160.86 595,-156.38 613.79,-145.56 634.32,-132.68 650.74,-122.1"/>
<polygon fill="#63b8ff" stroke="#63b8ff" stroke-width="2" points="652.9,-124.57 659.38,-116.19 649.09,-118.7 652.9,-124.57"/>
</a>
</g>
</g>
<!-- Node49&#45;&gt;Node3 -->
<g id="edge6_Node000049_Node000003" class="edge">
<title>Node49&#45;&gt;Node3</title>
<g id="a_edge6_Node000049_Node000003"><a xlink:title=" ">
<path fill="none" stroke="#63b8ff" stroke-width="2" d="M670.01,-87.59C654.46,-71.24 625.92,-44.88 595,-34.38 529.53,-12.14 331.37,-35.82 232.15,-49.74"/>
<polygon fill="#63b8ff" stroke="#63b8ff" stroke-width="2" points="230.81,-46.68 221.4,-51.55 231.8,-53.61 230.81,-46.68"/>
</a>
</g>
</g>
<!-- Node52&#45;&gt;Node49 -->
<g id="edge8_Node000052_Node000049" class="edge">
<title>Node52&#45;&gt;Node49</title>
<g id="a_edge8_Node000052_Node000049"><a xlink:title=" ">
<path fill="none" stroke="#63b8ff" stroke-width="2" d="M594.3,-101.38C602.03,-101.38 610.09,-101.38 618.06,-101.38"/>
<polygon fill="#63b8ff" stroke="#63b8ff" stroke-width="2" points="617.87,-104.88 627.87,-101.38 617.87,-97.88 617.87,-104.88"/>
</a>
</g>
</g>
<!-- Node73&#45;&gt;Node49 -->
<g id="edge11_Node000073_Node000049" class="edge">
<title>Node73&#45;&gt;Node49</title>
<g id="a_edge11_Node000073_Node000049"><a xlink:title=" ">
<path fill="none" stroke="#63b8ff" stroke-width="2" d="M586.18,-70.24C599.23,-74.47 613.77,-79.19 627.51,-83.64"/>
<polygon fill="#63b8ff" stroke="#63b8ff" stroke-width="2" points="627.24,-87.88 637.83,-87.63 629.4,-81.22 627.24,-87.88"/>
</a>
</g>
</g>
</g>
</svg>

<g id="navigator" transform="translate(0 0)" fill="#404254">
  <rect fill="#f2f5e9" fill-opacity="0.5" stroke="#606060" stroke-width=".5" x="0" y="0" width="60" height="60"/>
  <use id="zoomplus" xlink:href="#zoomPlus" x="17" y="9" onmousedown="handleZoom(evt,'in')"/>
  <use id="zoomminus" xlink:href="#zoomMin" x="42" y="9" onmousedown="handleZoom(evt,'out')"/>
  <use id="reset" xlink:href="#resetDef" x="30" y="36" onmousedown="handleReset()"/>
   <use id="arrowup" xlink:href="#arrowUp" x="0" y="0" onmousedown="handlePan(0,-1)"/>
  <use id="arrowright" xlink:href="#arrowRight" x="0" y="0" onmousedown="handlePan(1,0)"/>
  <use id="arrowdown" xlink:href="#arrowDown" x="0" y="0" onmousedown="handlePan(0,1)"/>
  <use id="arrowleft" xlink:href="#arrowLeft" x="0" y="0" onmousedown="handlePan(-1,0)"/>
</g>
<svg viewBox="0 0 15 15" width="100%" height="30px" preserveAspectRatio="xMaxYMin meet">
 <g id="arrow_out" transform="scale(0.3 0.3)">
  <a xlink:href="main_8c_ae66f6b31b5ad750f1fe042a706a4e3d4_cgraph_org.svg" target="_base">
   <rect id="button" ry="5" rx="5" y="6" x="6" height="38" width="38"
        fill="#f2f5e9" fill-opacity="0.5" stroke="#606060" stroke-width="1.0"/>
   <path id="arrow"
     d="M 11.500037,31.436501 C 11.940474,20.09759 22.043105,11.32322 32.158766,21.979434 L 37.068811,17.246167 C 37.068811,17.246167 37.088388,32 37.088388,32 L 22.160133,31.978069 C 22.160133,31.978069 26.997745,27.140456 26.997745,27.140456 C 18.528582,18.264221 13.291696,25.230495 11.500037,31.436501 z"
     style="fill:#404040;"/>
  </a>
 </g>
</svg>

<style type='text/css'>
<![CDATA[
[data-mouse-over-selected='false'] { opacity: 0.7; }
[data-mouse-over-selected='true']  { opacity: 1.0; }
]]>
</style>
<script type="application/ecmascript"><![CDATA[
document.addEventListener('DOMContentLoaded', (event) => {
  highlightEdges();
  highlightAdjacentNodes();
});
]]></script>
</svg>
