<?xml version="1.0" encoding="UTF-8" standalone="no"?>
<!DOCTYPE svg PUBLIC "-//W3C//DTD SVG 1.1//EN"
 "http://www.w3.org/Graphics/SVG/1.1/DTD/svg11.dtd">
<!-- Generated by graphviz version 8.0.5 (0)
 -->
<!-- Title: dbhandle.h Pages: 1 -->
<!--zoomable 98 -->

<svg id="main" version="1.1" xmlns="http://www.w3.org/2000/svg" xmlns:xlink="http://www.w3.org/1999/xlink" xml:space="preserve" onload="init(evt)">
<style type="text/css"><![CDATA[
.node, .edge {opacity: 0.7;}
.node.selected, .edge.selected {opacity: 1;}
.edge:hover path { stroke: red; }
.edge:hover polygon { stroke: red; fill: red; }
]]></style>

<defs>
  <circle id="rim" cx="0" cy="0" r="7"/>
  <circle id="rim2" cx="0" cy="0" r="3.5"/>
  <g id="zoomPlus">
    <use xlink:href="#rim" fill="#404040"><set attributeName="fill" to="#808080" begin="zoomplus.mouseover" end="zoomplus.mouseout"/></use>
    <path d="M-4,0h8M0,-4v8" fill="none" stroke="white" stroke-width="1.5" pointer-events="none"/>
  </g>
  <g id="zoomMin">
    <use xlink:href="#rim" fill="#404040"><set attributeName="fill" to="#808080" begin="zoomminus.mouseover" end="zoomminus.mouseout"/></use>
    <path d="M-4,0h8" fill="none" stroke="white" stroke-width="1.5" pointer-events="none"/>
  </g>
  <g id="arrowUp" transform="translate(30 24)">
    <use xlink:href="#rim"/>
    <path pointer-events="none" fill="none" stroke="white" stroke-width="1.5" d="M0,-3.0v7 M-2.5,-0.5L0,-3.0L2.5,-0.5"/>
  </g>
  <g id="arrowRight" transform="rotate(90) translate(36 -43)">
    <use xlink:href="#rim"/>
    <path pointer-events="none" fill="none" stroke="white" stroke-width="1.5" d="M0,-3.0v7 M-2.5,-0.5L0,-3.0L2.5,-0.5"/>
  </g>
  <g id="arrowDown" transform="rotate(180) translate(-30 -48)">
    <use xlink:href="#rim"/>
    <path pointer-events="none" fill="none" stroke="white" stroke-width="1.5" d="M0,-3.0v7 M-2.5,-0.5L0,-3.0L2.5,-0.5"/>
  </g>
  <g id="arrowLeft" transform="rotate(270) translate(-36 17)">
    <use xlink:href="#rim"/>
    <path pointer-events="none" fill="none" stroke="white" stroke-width="1.5" d="M0,-3.0v7 M-2.5,-0.5L0,-3.0L2.5,-0.5"/>
  </g>
  <g id="resetDef">
    <use xlink:href="#rim2" fill="#404040"><set attributeName="fill" to="#808080" begin="reset.mouseover" end="reset.mouseout"/></use>
  </g>
</defs>
<script type="application/ecmascript">
var viewWidth = 735;
var viewHeight = 98;
var sectionId = 'dynsection-1';
</script>
<script type="application/ecmascript" xlink:href="../../svg.min.js"/>
<svg id="graph" class="graph">
<g id="viewport">
<title>dbhandle.h</title>
<!-- Node1 -->
<g id="Node000001" class="node">
<title>Node1</title>
<g id="a_Node000001"><a xlink:title="Database operations interface.">
<polygon fill="#999999" stroke="#666666" points="377.38,-89.5 281.12,-89.5 281.12,-62.75 377.38,-62.75 377.38,-89.5"/>
<text text-anchor="middle" x="329.25" y="-70.3" font-family="Helvetica,sans-Serif" font-size="16.00">dbhandle.h</text>
</a>
</g>
</g>
<!-- Node2 -->
<g id="Node000002" class="node">
<title>Node2</title>
<g id="a_Node000002"><a xlink:href="../../d5/df2/car_8c.html" target="_top" xlink:title="Implements function to operate on client.">
<polygon fill="white" stroke="#666666" points="50.5,-26.75 0,-26.75 0,0 50.5,0 50.5,-26.75"/>
<text text-anchor="middle" x="25.25" y="-7.55" font-family="Helvetica,sans-Serif" font-size="16.00">car.c</text>
</a>
</g>
</g>
<!-- Node1&#45;&gt;Node2 -->
<g id="edge1_Node000001_Node000002" class="edge">
<title>Node1&#45;&gt;Node2</title>
<g id="a_edge1_Node000001_Node000002"><a xlink:title=" ">
<path fill="none" stroke="#63b8ff" stroke-width="2" d="M268.2,-67.24C213.04,-59.4 129.91,-45.79 59.25,-26.75 56.46,-26 53.57,-25.12 50.72,-24.18"/>
<polygon fill="#63b8ff" stroke="#63b8ff" stroke-width="2" points="268.52,-71.1 278.9,-69.02 269.48,-64.17 268.52,-71.1"/>
</a>
</g>
</g>
<!-- Node3 -->
<g id="Node000003" class="node">
<title>Node3</title>
<g id="a_Node000003"><a xlink:href="../../dc/dc6/carsmenu_8c.html" target="_top" xlink:title="Cars menu implementation.">
<polygon fill="white" stroke="#666666" points="168.25,-26.75 68.25,-26.75 68.25,0 168.25,0 168.25,-26.75"/>
<text text-anchor="middle" x="118.25" y="-7.55" font-family="Helvetica,sans-Serif" font-size="16.00">carsmenu.c</text>
</a>
</g>
</g>
<!-- Node1&#45;&gt;Node3 -->
<g id="edge2_Node000001_Node000003" class="edge">
<title>Node1&#45;&gt;Node3</title>
<g id="a_edge2_Node000001_Node000003"><a xlink:title=" ">
<path fill="none" stroke="#63b8ff" stroke-width="2" d="M272.5,-58.79C238.02,-48.86 194.65,-36.37 162.68,-27.17"/>
<polygon fill="#63b8ff" stroke="#63b8ff" stroke-width="2" points="272.18,-62.91 282.76,-62.32 274.12,-56.19 272.18,-62.91"/>
</a>
</g>
</g>
<!-- Node4 -->
<g id="Node000004" class="node">
<title>Node4</title>
<g id="a_Node000004"><a xlink:href="../../dd/d93/client_8c.html" target="_top" xlink:title="Implements function to operate on client.">
<polygon fill="white" stroke="#666666" points="253.75,-26.75 186.75,-26.75 186.75,0 253.75,0 253.75,-26.75"/>
<text text-anchor="middle" x="220.25" y="-7.55" font-family="Helvetica,sans-Serif" font-size="16.00">client.c</text>
</a>
</g>
</g>
<!-- Node1&#45;&gt;Node4 -->
<g id="edge3_Node000001_Node000004" class="edge">
<title>Node1&#45;&gt;Node4</title>
<g id="a_edge3_Node000001_Node000004"><a xlink:title=" ">
<path fill="none" stroke="#63b8ff" stroke-width="2" d="M295.24,-56.17C278.26,-46.71 258.18,-35.51 243.07,-27.09"/>
<polygon fill="#63b8ff" stroke="#63b8ff" stroke-width="2" points="293.96,-59.58 304.4,-61.39 297.37,-53.46 293.96,-59.58"/>
</a>
</g>
</g>
<!-- Node5 -->
<g id="Node000005" class="node">
<title>Node5</title>
<g id="a_Node000005"><a xlink:href="../../da/de9/clientsmenu_8c.html" target="_top" xlink:title="Clients menu implementation.">
<polygon fill="white" stroke="#666666" points="387.12,-26.75 271.38,-26.75 271.38,0 387.12,0 387.12,-26.75"/>
<text text-anchor="middle" x="329.25" y="-7.55" font-family="Helvetica,sans-Serif" font-size="16.00">clientsmenu.c</text>
</a>
</g>
</g>
<!-- Node1&#45;&gt;Node5 -->
<g id="edge4_Node000001_Node000005" class="edge">
<title>Node1&#45;&gt;Node5</title>
<g id="a_edge4_Node000001_Node000005"><a xlink:title=" ">
<path fill="none" stroke="#63b8ff" stroke-width="2" d="M329.25,-49.73C329.25,-41.87 329.25,-33.54 329.25,-26.95"/>
<polygon fill="#63b8ff" stroke="#63b8ff" stroke-width="2" points="325.75,-49.54 329.25,-59.54 332.75,-49.54 325.75,-49.54"/>
</a>
</g>
</g>
<!-- Node6 -->
<g id="Node000006" class="node">
<title>Node6</title>
<g id="a_Node000006"><a xlink:href="../../d3/df4/dbhandle_8c.html" target="_top" xlink:title="Database handling.">
<polygon fill="white" stroke="#666666" points="501,-26.75 405.5,-26.75 405.5,0 501,0 501,-26.75"/>
<text text-anchor="middle" x="453.25" y="-7.55" font-family="Helvetica,sans-Serif" font-size="16.00">dbhandle.c</text>
</a>
</g>
</g>
<!-- Node1&#45;&gt;Node6 -->
<g id="edge5_Node000001_Node000006" class="edge">
<title>Node1&#45;&gt;Node6</title>
<g id="a_edge5_Node000001_Node000006"><a xlink:title=" ">
<path fill="none" stroke="#63b8ff" stroke-width="2" d="M366.83,-56.71C386.37,-47.14 409.77,-35.68 427.29,-27.09"/>
<polygon fill="#63b8ff" stroke="#63b8ff" stroke-width="2" points="364.68,-53.85 357.24,-61.39 367.76,-60.13 364.68,-53.85"/>
</a>
</g>
</g>
<!-- Node7 -->
<g id="Node000007" class="node">
<title>Node7</title>
<g id="a_Node000007"><a xlink:href="../../d0/d29/main_8c.html" target="_top" xlink:title="Main file.">
<polygon fill="white" stroke="#666666" points="583.25,-26.75 519.25,-26.75 519.25,0 583.25,0 583.25,-26.75"/>
<text text-anchor="middle" x="551.25" y="-7.55" font-family="Helvetica,sans-Serif" font-size="16.00">main.c</text>
</a>
</g>
</g>
<!-- Node1&#45;&gt;Node7 -->
<g id="edge6_Node000001_Node000007" class="edge">
<title>Node1&#45;&gt;Node7</title>
<g id="a_edge6_Node000001_Node000007"><a xlink:title=" ">
<path fill="none" stroke="#63b8ff" stroke-width="2" d="M390.25,-59.34C425.41,-50.11 470.41,-38.08 510.25,-26.75 513.11,-25.94 516.08,-25.07 519.05,-24.2"/>
<polygon fill="#63b8ff" stroke="#63b8ff" stroke-width="2" points="388.55,-56.69 379.76,-62.61 390.32,-63.46 388.55,-56.69"/>
</a>
</g>
</g>
<!-- Node8 -->
<g id="Node000008" class="node">
<title>Node8</title>
<g id="a_Node000008"><a xlink:href="../../d2/da6/testDbHandle_8c_source.html" target="_top" xlink:title=" ">
<polygon fill="white" stroke="#666666" points="727.38,-26.75 601.12,-26.75 601.12,0 727.38,0 727.38,-26.75"/>
<text text-anchor="middle" x="664.25" y="-7.55" font-family="Helvetica,sans-Serif" font-size="16.00">testDbHandle.c</text>
</a>
</g>
</g>
<!-- Node1&#45;&gt;Node8 -->
<g id="edge7_Node000001_Node000008" class="edge">
<title>Node1&#45;&gt;Node8</title>
<g id="a_edge7_Node000001_Node000008"><a xlink:title=" ">
<path fill="none" stroke="#63b8ff" stroke-width="2" d="M390.21,-64.07C449.83,-53.26 540.25,-36.86 600.74,-25.89"/>
<polygon fill="#63b8ff" stroke="#63b8ff" stroke-width="2" points="388.82,-61.13 379.6,-66.36 390.07,-68.02 388.82,-61.13"/>
</a>
</g>
</g>
</g>
</svg>

<g id="navigator" transform="translate(0 0)" fill="#404254">
  <rect fill="#f2f5e9" fill-opacity="0.5" stroke="#606060" stroke-width=".5" x="0" y="0" width="60" height="60"/>
  <use id="zoomplus" xlink:href="#zoomPlus" x="17" y="9" onmousedown="handleZoom(evt,'in')"/>
  <use id="zoomminus" xlink:href="#zoomMin" x="42" y="9" onmousedown="handleZoom(evt,'out')"/>
  <use id="reset" xlink:href="#resetDef" x="30" y="36" onmousedown="handleReset()"/>
   <use id="arrowup" xlink:href="#arrowUp" x="0" y="0" onmousedown="handlePan(0,-1)"/>
  <use id="arrowright" xlink:href="#arrowRight" x="0" y="0" onmousedown="handlePan(1,0)"/>
  <use id="arrowdown" xlink:href="#arrowDown" x="0" y="0" onmousedown="handlePan(0,1)"/>
  <use id="arrowleft" xlink:href="#arrowLeft" x="0" y="0" onmousedown="handlePan(-1,0)"/>
</g>
<svg viewBox="0 0 15 15" width="100%" height="30px" preserveAspectRatio="xMaxYMin meet">
 <g id="arrow_out" transform="scale(0.3 0.3)">
  <a xlink:href="dbhandle_8h__dep__incl_org.svg" target="_base">
   <rect id="button" ry="5" rx="5" y="6" x="6" height="38" width="38"
        fill="#f2f5e9" fill-opacity="0.5" stroke="#606060" stroke-width="1.0"/>
   <path id="arrow"
     d="M 11.500037,31.436501 C 11.940474,20.09759 22.043105,11.32322 32.158766,21.979434 L 37.068811,17.246167 C 37.068811,17.246167 37.088388,32 37.088388,32 L 22.160133,31.978069 C 22.160133,31.978069 26.997745,27.140456 26.997745,27.140456 C 18.528582,18.264221 13.291696,25.230495 11.500037,31.436501 z"
     style="fill:#404040;"/>
  </a>
 </g>
</svg>

<style type='text/css'>
<![CDATA[
[data-mouse-over-selected='false'] { opacity: 0.7; }
[data-mouse-over-selected='true']  { opacity: 1.0; }
]]>
</style>
<script type="application/ecmascript"><![CDATA[
document.addEventListener('DOMContentLoaded', (event) => {
  highlightEdges();
  highlightAdjacentNodes();
});
]]></script>
</svg>
