<?xml version="1.0" encoding="UTF-8" standalone="no"?>
<!DOCTYPE svg PUBLIC "-//W3C//DTD SVG 1.1//EN"
 "http://www.w3.org/Graphics/SVG/1.1/DTD/svg11.dtd">
<!-- Generated by graphviz version 8.0.5 (0)
 -->
<!-- Title: dbhandle.h Pages: 1 -->
<svg width="735pt" height="98pt"
 viewBox="0.00 0.00 735.38 97.50" xmlns="http://www.w3.org/2000/svg" xmlns:xlink="http://www.w3.org/1999/xlink">
<g id="graph0" class="graph" transform="scale(1 1) rotate(0) translate(4 93.5)">
<title>dbhandle.h</title>
<!-- Node1 -->
<g id="Node000001" class="node">
<title>Node1</title>
<g id="a_Node000001"><a xlink:title="Database operations interface.">
<polygon fill="#999999" stroke="#666666" points="377.38,-89.5 281.12,-89.5 281.12,-62.75 377.38,-62.75 377.38,-89.5"/>
<text text-anchor="middle" x="329.25" y="-70.3" font-family="Helvetica,sans-Serif" font-size="16.00">dbhandle.h</text>
</a>
</g>
</g>
<!-- Node2 -->
<g id="Node000002" class="node">
<title>Node2</title>
<g id="a_Node000002"><a xlink:href="../../d5/df2/car_8c.html" target="_top" xlink:title="Implements function to operate on client.">
<polygon fill="white" stroke="#666666" points="50.5,-26.75 0,-26.75 0,0 50.5,0 50.5,-26.75"/>
<text text-anchor="middle" x="25.25" y="-7.55" font-family="Helvetica,sans-Serif" font-size="16.00">car.c</text>
</a>
</g>
</g>
<!-- Node1&#45;&gt;Node2 -->
<g id="edge1_Node000001_Node000002" class="edge">
<title>Node1&#45;&gt;Node2</title>
<g id="a_edge1_Node000001_Node000002"><a xlink:title=" ">
<path fill="none" stroke="#63b8ff" stroke-width="2" d="M268.2,-67.24C213.04,-59.4 129.91,-45.79 59.25,-26.75 56.46,-26 53.57,-25.12 50.72,-24.18"/>
<polygon fill="#63b8ff" stroke="#63b8ff" stroke-width="2" points="268.52,-71.1 278.9,-69.02 269.48,-64.17 268.52,-71.1"/>
</a>
</g>
</g>
<!-- Node3 -->
<g id="Node000003" class="node">
<title>Node3</title>
<g id="a_Node000003"><a xlink:href="../../dc/dc6/carsmenu_8c.html" target="_top" xlink:title="Cars menu implementation.">
<polygon fill="white" stroke="#666666" points="168.25,-26.75 68.25,-26.75 68.25,0 168.25,0 168.25,-26.75"/>
<text text-anchor="middle" x="118.25" y="-7.55" font-family="Helvetica,sans-Serif" font-size="16.00">carsmenu.c</text>
</a>
</g>
</g>
<!-- Node1&#45;&gt;Node3 -->
<g id="edge2_Node000001_Node000003" class="edge">
<title>Node1&#45;&gt;Node3</title>
<g id="a_edge2_Node000001_Node000003"><a xlink:title=" ">
<path fill="none" stroke="#63b8ff" stroke-width="2" d="M272.5,-58.79C238.02,-48.86 194.65,-36.37 162.68,-27.17"/>
<polygon fill="#63b8ff" stroke="#63b8ff" stroke-width="2" points="272.18,-62.91 282.76,-62.32 274.12,-56.19 272.18,-62.91"/>
</a>
</g>
</g>
<!-- Node4 -->
<g id="Node000004" class="node">
<title>Node4</title>
<g id="a_Node000004"><a xlink:href="../../dd/d93/client_8c.html" target="_top" xlink:title="Implements function to operate on client.">
<polygon fill="white" stroke="#666666" points="253.75,-26.75 186.75,-26.75 186.75,0 253.75,0 253.75,-26.75"/>
<text text-anchor="middle" x="220.25" y="-7.55" font-family="Helvetica,sans-Serif" font-size="16.00">client.c</text>
</a>
</g>
</g>
<!-- Node1&#45;&gt;Node4 -->
<g id="edge3_Node000001_Node000004" class="edge">
<title>Node1&#45;&gt;Node4</title>
<g id="a_edge3_Node000001_Node000004"><a xlink:title=" ">
<path fill="none" stroke="#63b8ff" stroke-width="2" d="M295.24,-56.17C278.26,-46.71 258.18,-35.51 243.07,-27.09"/>
<polygon fill="#63b8ff" stroke="#63b8ff" stroke-width="2" points="293.96,-59.58 304.4,-61.39 297.37,-53.46 293.96,-59.58"/>
</a>
</g>
</g>
<!-- Node5 -->
<g id="Node000005" class="node">
<title>Node5</title>
<g id="a_Node000005"><a xlink:href="../../da/de9/clientsmenu_8c.html" target="_top" xlink:title="Clients menu implementation.">
<polygon fill="white" stroke="#666666" points="387.12,-26.75 271.38,-26.75 271.38,0 387.12,0 387.12,-26.75"/>
<text text-anchor="middle" x="329.25" y="-7.55" font-family="Helvetica,sans-Serif" font-size="16.00">clientsmenu.c</text>
</a>
</g>
</g>
<!-- Node1&#45;&gt;Node5 -->
<g id="edge4_Node000001_Node000005" class="edge">
<title>Node1&#45;&gt;Node5</title>
<g id="a_edge4_Node000001_Node000005"><a xlink:title=" ">
<path fill="none" stroke="#63b8ff" stroke-width="2" d="M329.25,-49.73C329.25,-41.87 329.25,-33.54 329.25,-26.95"/>
<polygon fill="#63b8ff" stroke="#63b8ff" stroke-width="2" points="325.75,-49.54 329.25,-59.54 332.75,-49.54 325.75,-49.54"/>
</a>
</g>
</g>
<!-- Node6 -->
<g id="Node000006" class="node">
<title>Node6</title>
<g id="a_Node000006"><a xlink:href="../../d3/df4/dbhandle_8c.html" target="_top" xlink:title="Database handling.">
<polygon fill="white" stroke="#666666" points="501,-26.75 405.5,-26.75 405.5,0 501,0 501,-26.75"/>
<text text-anchor="middle" x="453.25" y="-7.55" font-family="Helvetica,sans-Serif" font-size="16.00">dbhandle.c</text>
</a>
</g>
</g>
<!-- Node1&#45;&gt;Node6 -->
<g id="edge5_Node000001_Node000006" class="edge">
<title>Node1&#45;&gt;Node6</title>
<g id="a_edge5_Node000001_Node000006"><a xlink:title=" ">
<path fill="none" stroke="#63b8ff" stroke-width="2" d="M366.83,-56.71C386.37,-47.14 409.77,-35.68 427.29,-27.09"/>
<polygon fill="#63b8ff" stroke="#63b8ff" stroke-width="2" points="364.68,-53.85 357.24,-61.39 367.76,-60.13 364.68,-53.85"/>
</a>
</g>
</g>
<!-- Node7 -->
<g id="Node000007" class="node">
<title>Node7</title>
<g id="a_Node000007"><a xlink:href="../../d0/d29/main_8c.html" target="_top" xlink:title="Main file.">
<polygon fill="white" stroke="#666666" points="583.25,-26.75 519.25,-26.75 519.25,0 583.25,0 583.25,-26.75"/>
<text text-anchor="middle" x="551.25" y="-7.55" font-family="Helvetica,sans-Serif" font-size="16.00">main.c</text>
</a>
</g>
</g>
<!-- Node1&#45;&gt;Node7 -->
<g id="edge6_Node000001_Node000007" class="edge">
<title>Node1&#45;&gt;Node7</title>
<g id="a_edge6_Node000001_Node000007"><a xlink:title=" ">
<path fill="none" stroke="#63b8ff" stroke-width="2" d="M390.25,-59.34C425.41,-50.11 470.41,-38.08 510.25,-26.75 513.11,-25.94 516.08,-25.07 519.05,-24.2"/>
<polygon fill="#63b8ff" stroke="#63b8ff" stroke-width="2" points="388.55,-56.69 379.76,-62.61 390.32,-63.46 388.55,-56.69"/>
</a>
</g>
</g>
<!-- Node8 -->
<g id="Node000008" class="node">
<title>Node8</title>
<g id="a_Node000008"><a xlink:href="../../d2/da6/testDbHandle_8c_source.html" target="_top" xlink:title=" ">
<polygon fill="white" stroke="#666666" points="727.38,-26.75 601.12,-26.75 601.12,0 727.38,0 727.38,-26.75"/>
<text text-anchor="middle" x="664.25" y="-7.55" font-family="Helvetica,sans-Serif" font-size="16.00">testDbHandle.c</text>
</a>
</g>
</g>
<!-- Node1&#45;&gt;Node8 -->
<g id="edge7_Node000001_Node000008" class="edge">
<title>Node1&#45;&gt;Node8</title>
<g id="a_edge7_Node000001_Node000008"><a xlink:title=" ">
<path fill="none" stroke="#63b8ff" stroke-width="2" d="M390.21,-64.07C449.83,-53.26 540.25,-36.86 600.74,-25.89"/>
<polygon fill="#63b8ff" stroke="#63b8ff" stroke-width="2" points="388.82,-61.13 379.6,-66.36 390.07,-68.02 388.82,-61.13"/>
</a>
</g>
</g>
</g>
</svg>
