<?xml version="1.0" encoding="UTF-8" standalone="no"?>
<!DOCTYPE svg PUBLIC "-//W3C//DTD SVG 1.1//EN"
 "http://www.w3.org/Graphics/SVG/1.1/DTD/svg11.dtd">
<!-- Generated by graphviz version 8.0.5 (0)
 -->
<!-- Title: rentalsMenu Pages: 1 -->
<!--zoomable 211 -->

<svg id="main" version="1.1" xmlns="http://www.w3.org/2000/svg" xmlns:xlink="http://www.w3.org/1999/xlink" xml:space="preserve" onload="init(evt)">
<style type="text/css"><![CDATA[
.node, .edge {opacity: 0.7;}
.node.selected, .edge.selected {opacity: 1;}
.edge:hover path { stroke: red; }
.edge:hover polygon { stroke: red; fill: red; }
]]></style>

<defs>
  <circle id="rim" cx="0" cy="0" r="7"/>
  <circle id="rim2" cx="0" cy="0" r="3.5"/>
  <g id="zoomPlus">
    <use xlink:href="#rim" fill="#404040"><set attributeName="fill" to="#808080" begin="zoomplus.mouseover" end="zoomplus.mouseout"/></use>
    <path d="M-4,0h8M0,-4v8" fill="none" stroke="white" stroke-width="1.5" pointer-events="none"/>
  </g>
  <g id="zoomMin">
    <use xlink:href="#rim" fill="#404040"><set attributeName="fill" to="#808080" begin="zoomminus.mouseover" end="zoomminus.mouseout"/></use>
    <path d="M-4,0h8" fill="none" stroke="white" stroke-width="1.5" pointer-events="none"/>
  </g>
  <g id="arrowUp" transform="translate(30 24)">
    <use xlink:href="#rim"/>
    <path pointer-events="none" fill="none" stroke="white" stroke-width="1.5" d="M0,-3.0v7 M-2.5,-0.5L0,-3.0L2.5,-0.5"/>
  </g>
  <g id="arrowRight" transform="rotate(90) translate(36 -43)">
    <use xlink:href="#rim"/>
    <path pointer-events="none" fill="none" stroke="white" stroke-width="1.5" d="M0,-3.0v7 M-2.5,-0.5L0,-3.0L2.5,-0.5"/>
  </g>
  <g id="arrowDown" transform="rotate(180) translate(-30 -48)">
    <use xlink:href="#rim"/>
    <path pointer-events="none" fill="none" stroke="white" stroke-width="1.5" d="M0,-3.0v7 M-2.5,-0.5L0,-3.0L2.5,-0.5"/>
  </g>
  <g id="arrowLeft" transform="rotate(270) translate(-36 17)">
    <use xlink:href="#rim"/>
    <path pointer-events="none" fill="none" stroke="white" stroke-width="1.5" d="M0,-3.0v7 M-2.5,-0.5L0,-3.0L2.5,-0.5"/>
  </g>
  <g id="resetDef">
    <use xlink:href="#rim2" fill="#404040"><set attributeName="fill" to="#808080" begin="reset.mouseover" end="reset.mouseout"/></use>
  </g>
</defs>
<script type="application/ecmascript">
var viewWidth = 688;
var viewHeight = 211;
var sectionId = 'dynsection-1';
</script>
<script type="application/ecmascript" xlink:href="../../svg.min.js"/>
<svg id="graph" class="graph">
<g id="viewport">
<title>rentalsMenu</title>
<!-- Node1 -->
<g id="Node000001" class="node">
<title>Node1</title>
<g id="a_Node000001"><a xlink:title="Handles Rentals Menu.">
<polygon fill="#999999" stroke="#666666" points="105.25,-27.75 0,-27.75 0,-1 105.25,-1 105.25,-27.75"/>
<text text-anchor="middle" x="52.62" y="-8.55" font-family="Helvetica,sans-Serif" font-size="16.00">rentalsMenu</text>
</a>
</g>
</g>
<!-- Node2 -->
<g id="Node000002" class="node">
<title>Node2</title>
<g id="a_Node000002"><a xlink:href="../../d7/dba/menuutil_8c.html#a949419e66b27ac75475821fb7aba527d" target="_top" xlink:title="Handle all operation and functions for menu.">
<polygon fill="white" stroke="#666666" points="245.75,-89.75 141.25,-89.75 141.25,-63 245.75,-63 245.75,-89.75"/>
<text text-anchor="middle" x="193.5" y="-70.55" font-family="Helvetica,sans-Serif" font-size="16.00">menuInvoke</text>
</a>
</g>
</g>
<!-- Node1&#45;&gt;Node2 -->
<g id="edge1_Node000001_Node000002" class="edge">
<title>Node1&#45;&gt;Node2</title>
<g id="a_edge1_Node000001_Node000002"><a xlink:title=" ">
<path fill="none" stroke="#63b8ff" stroke-width="2" d="M84.45,-28.13C103.77,-36.76 128.96,-48.01 150.15,-57.47"/>
<polygon fill="#63b8ff" stroke="#63b8ff" stroke-width="2" points="149.21,-60.77 159.77,-61.65 152.06,-54.38 149.21,-60.77"/>
</a>
</g>
</g>
<!-- Node3 -->
<g id="Node000003" class="node">
<title>Node3</title>
<g id="a_Node000003"><a xlink:href="../../d7/dba/menuutil_8c.html#acef3bbabe9293534ee600e9b89eda07b" target="_top" xlink:title="Calculate minimum window width.">
<polygon fill="white" stroke="#666666" points="428.62,-202.75 309.12,-202.75 309.12,-176 428.62,-176 428.62,-202.75"/>
<text text-anchor="middle" x="368.88" y="-183.55" font-family="Helvetica,sans-Serif" font-size="16.00">computeWidth</text>
</a>
</g>
</g>
<!-- Node2&#45;&gt;Node3 -->
<g id="edge2_Node000002_Node000003" class="edge">
<title>Node2&#45;&gt;Node3</title>
<g id="a_edge2_Node000002_Node000003"><a xlink:title=" ">
<path fill="none" stroke="#63b8ff" stroke-width="2" d="M204.07,-90.22C218.56,-110.1 247.97,-146.54 281.75,-166.38 286.4,-169.11 291.39,-171.52 296.53,-173.66"/>
<polygon fill="#63b8ff" stroke="#63b8ff" stroke-width="2" points="296.12,-176.97 306.71,-177.14 298.54,-170.4 296.12,-176.97"/>
</a>
</g>
</g>
<!-- Node5 -->
<g id="Node000005" class="node">
<title>Node5</title>
<g id="a_Node000005"><a xlink:href="../../de/dc9/mmenu_8c.html#a29c2128f12316ca1ce77fd1d686f6ec7" target="_top" xlink:title="Invokes menu.">
<polygon fill="white" stroke="#666666" points="414.75,-157.75 323,-157.75 323,-131 414.75,-131 414.75,-157.75"/>
<text text-anchor="middle" x="368.88" y="-138.55" font-family="Helvetica,sans-Serif" font-size="16.00">mainMenu</text>
</a>
</g>
</g>
<!-- Node2&#45;&gt;Node5 -->
<g id="edge4_Node000002_Node000005" class="edge">
<title>Node2&#45;&gt;Node5</title>
<g id="a_edge4_Node000002_Node000005"><a xlink:title=" ">
<path fill="none" stroke="#63b8ff" stroke-width="2" d="M217.93,-90.22C235.14,-99.95 259.33,-112.72 281.75,-121.38 290.78,-124.86 300.55,-128.02 310.15,-130.8"/>
<polygon fill="#63b8ff" stroke="#63b8ff" stroke-width="2" points="310.02,-134.95 320.59,-134.23 311.88,-128.2 310.02,-134.95"/>
</a>
</g>
</g>
<!-- Node71 -->
<g id="Node000071" class="node">
<title>Node71</title>
<g id="a_Node000071"><a xlink:href="../../d7/dba/menuutil_8c.html#ae9bbf0350539ebe186df7d627930ca51" target="_top" xlink:title="Control menu navigation and invoke option that we chose.">
<polygon fill="white" stroke="#666666" points="456,-112.75 281.75,-112.75 281.75,-86 456,-86 456,-112.75"/>
<text text-anchor="middle" x="368.88" y="-93.55" font-family="Helvetica,sans-Serif" font-size="16.00">menuHandleIteraction</text>
</a>
</g>
</g>
<!-- Node2&#45;&gt;Node71 -->
<g id="edge8_Node000002_Node000071" class="edge">
<title>Node2&#45;&gt;Node71</title>
<g id="a_edge8_Node000002_Node000071"><a xlink:title=" ">
<path fill="none" stroke="#63b8ff" stroke-width="2" d="M246.05,-83.21C253.3,-84.18 260.94,-85.19 268.72,-86.22"/>
<polygon fill="#63b8ff" stroke="#63b8ff" stroke-width="2" points="268.08,-90.07 278.46,-87.91 269,-83.13 268.08,-90.07"/>
</a>
</g>
</g>
<!-- Node16 -->
<g id="Node000016" class="node">
<title>Node16</title>
<g id="a_Node000016"><a xlink:href="../../d7/dba/menuutil_8c.html#a14ca6bd9893f550a2051ca6cd5a689ac" target="_top" xlink:title="Print boarders of window.">
<polygon fill="white" stroke="#666666" points="453.75,-67.75 284,-67.75 284,-41 453.75,-41 453.75,-67.75"/>
<text text-anchor="middle" x="368.88" y="-48.55" font-family="Helvetica,sans-Serif" font-size="16.00">printWindowBoarders</text>
</a>
</g>
</g>
<!-- Node2&#45;&gt;Node16 -->
<g id="edge9_Node000002_Node000016" class="edge">
<title>Node2&#45;&gt;Node16</title>
<g id="a_edge9_Node000002_Node000016"><a xlink:title=" ">
<path fill="none" stroke="#63b8ff" stroke-width="2" d="M246.05,-69.83C254.03,-68.82 262.49,-67.75 271.08,-66.66"/>
<polygon fill="#63b8ff" stroke="#63b8ff" stroke-width="2" points="271.25,-69.78 280.73,-65.05 270.37,-62.84 271.25,-69.78"/>
</a>
</g>
</g>
<!-- Node4 -->
<g id="Node000004" class="node">
<title>Node4</title>
<g id="a_Node000004"><a xlink:href="../../d7/dba/menuutil_8c.html#ac6b71fcc47a9cdec8ac08b98e754239c" target="_top" xlink:title="Get length of longest string in array of strings.">
<polygon fill="white" stroke="#666666" points="679.75,-202.75 492,-202.75 492,-176 679.75,-176 679.75,-202.75"/>
<text text-anchor="middle" x="585.88" y="-183.55" font-family="Helvetica,sans-Serif" font-size="16.00">getLongestStringLength</text>
</a>
</g>
</g>
<!-- Node3&#45;&gt;Node4 -->
<g id="edge3_Node000003_Node000004" class="edge">
<title>Node3&#45;&gt;Node4</title>
<g id="a_edge3_Node000003_Node000004"><a xlink:title=" ">
<path fill="none" stroke="#63b8ff" stroke-width="2" d="M428.91,-189.38C444.44,-189.38 461.67,-189.38 478.86,-189.38"/>
<polygon fill="#63b8ff" stroke="#63b8ff" stroke-width="2" points="478.65,-192.88 488.65,-189.38 478.65,-185.88 478.65,-192.88"/>
</a>
</g>
</g>
<!-- Node6 -->
<g id="Node000006" class="node">
<title>Node6</title>
<g id="a_Node000006"><a xlink:href="../../de/dc9/mmenu_8c.html#a315bc1f41a79da39147ec73e38cfc9e7" target="_top" xlink:title="Handles main menu.">
<polygon fill="#fff0f0" stroke="red" points="665.12,-26.75 506.62,-26.75 506.62,0 665.12,0 665.12,-26.75"/>
<text text-anchor="middle" x="585.88" y="-7.55" font-family="Helvetica,sans-Serif" font-size="16.00">mainMenuSelection</text>
</a>
</g>
</g>
<!-- Node5&#45;&gt;Node6 -->
<g id="edge5_Node000005_Node000006" class="edge">
<title>Node5&#45;&gt;Node6</title>
<g id="a_edge5_Node000005_Node000006"><a xlink:title=" ">
<path fill="none" stroke="#63b8ff" stroke-width="2" d="M415.07,-136.23C428.69,-132.76 443.37,-127.94 456,-121.38 498.57,-99.25 539.6,-61.02 563.52,-36.48"/>
<polygon fill="#63b8ff" stroke="#63b8ff" stroke-width="2" points="566.01,-38.85 570.39,-29.2 560.95,-34.01 566.01,-38.85"/>
</a>
</g>
</g>
<!-- Node6&#45;&gt;Node1 -->
<g id="edge7_Node000006_Node000001" class="edge">
<title>Node6&#45;&gt;Node1</title>
<g id="a_edge7_Node000006_Node000001"><a xlink:title=" ">
<path fill="none" stroke="#63b8ff" stroke-width="2" d="M506.19,-8.42C489.62,-7.57 472.24,-6.82 456,-6.38 336.91,-3.14 197.96,-7.77 118.43,-11.21"/>
<polygon fill="#63b8ff" stroke="#63b8ff" stroke-width="2" points="118.55,-7.84 108.72,-11.78 118.86,-14.83 118.55,-7.84"/>
</a>
</g>
</g>
<!-- Node6&#45;&gt;Node2 -->
<g id="edge6_Node000006_Node000002" class="edge">
<title>Node6&#45;&gt;Node2</title>
<g id="a_edge6_Node000006_Node000002"><a xlink:title=" ">
<path fill="none" stroke="#63b8ff" stroke-width="2" d="M506.23,-9.72C444.2,-8.88 356.05,-12.22 281.75,-32.38 262.51,-37.59 242.56,-47.29 226.59,-56.25"/>
<polygon fill="#63b8ff" stroke="#63b8ff" stroke-width="2" points="224.62,-53.52 217.74,-61.58 228.14,-59.56 224.62,-53.52"/>
</a>
</g>
</g>
</g>
</svg>

<g id="navigator" transform="translate(0 0)" fill="#404254">
  <rect fill="#f2f5e9" fill-opacity="0.5" stroke="#606060" stroke-width=".5" x="0" y="0" width="60" height="60"/>
  <use id="zoomplus" xlink:href="#zoomPlus" x="17" y="9" onmousedown="handleZoom(evt,'in')"/>
  <use id="zoomminus" xlink:href="#zoomMin" x="42" y="9" onmousedown="handleZoom(evt,'out')"/>
  <use id="reset" xlink:href="#resetDef" x="30" y="36" onmousedown="handleReset()"/>
   <use id="arrowup" xlink:href="#arrowUp" x="0" y="0" onmousedown="handlePan(0,-1)"/>
  <use id="arrowright" xlink:href="#arrowRight" x="0" y="0" onmousedown="handlePan(1,0)"/>
  <use id="arrowdown" xlink:href="#arrowDown" x="0" y="0" onmousedown="handlePan(0,1)"/>
  <use id="arrowleft" xlink:href="#arrowLeft" x="0" y="0" onmousedown="handlePan(-1,0)"/>
</g>
<svg viewBox="0 0 15 15" width="100%" height="30px" preserveAspectRatio="xMaxYMin meet">
 <g id="arrow_out" transform="scale(0.3 0.3)">
  <a xlink:href="rentalsmenu_8c_a4cad208e714dfe28ce655b7853a3d5fd_cgraph_org.svg" target="_base">
   <rect id="button" ry="5" rx="5" y="6" x="6" height="38" width="38"
        fill="#f2f5e9" fill-opacity="0.5" stroke="#606060" stroke-width="1.0"/>
   <path id="arrow"
     d="M 11.500037,31.436501 C 11.940474,20.09759 22.043105,11.32322 32.158766,21.979434 L 37.068811,17.246167 C 37.068811,17.246167 37.088388,32 37.088388,32 L 22.160133,31.978069 C 22.160133,31.978069 26.997745,27.140456 26.997745,27.140456 C 18.528582,18.264221 13.291696,25.230495 11.500037,31.436501 z"
     style="fill:#404040;"/>
  </a>
 </g>
</svg>

<style type='text/css'>
<![CDATA[
[data-mouse-over-selected='false'] { opacity: 0.7; }
[data-mouse-over-selected='true']  { opacity: 1.0; }
]]>
</style>
<script type="application/ecmascript"><![CDATA[
document.addEventListener('DOMContentLoaded', (event) => {
  highlightEdges();
  highlightAdjacentNodes();
});
]]></script>
</svg>
